<?xml version="1.0" encoding="utf-8" standalone="no"?>
<!DOCTYPE svg PUBLIC "-//W3C//DTD SVG 1.1//EN"
  "http://www.w3.org/Graphics/SVG/1.1/DTD/svg11.dtd">
<svg xmlns:xlink="http://www.w3.org/1999/xlink" width="851.4pt" height="347.04pt" viewBox="0 0 851.4 347.04" xmlns="http://www.w3.org/2000/svg" version="1.1">
 <metadata>
  <rdf:RDF xmlns:dc="http://purl.org/dc/elements/1.1/" xmlns:cc="http://creativecommons.org/ns#" xmlns:rdf="http://www.w3.org/1999/02/22-rdf-syntax-ns#">
   <cc:Work>
    <dc:type rdf:resource="http://purl.org/dc/dcmitype/StillImage"/>
    <dc:date>2025-07-09T13:06:57.733067</dc:date>
    <dc:format>image/svg+xml</dc:format>
    <dc:creator>
     <cc:Agent>
      <dc:title>Matplotlib v3.10.3, https://matplotlib.org/</dc:title>
     </cc:Agent>
    </dc:creator>
   </cc:Work>
  </rdf:RDF>
 </metadata>
 <defs>
  <style type="text/css">*{stroke-linejoin: round; stroke-linecap: butt}</style>
 </defs>
 <g id="figure_1">
  <g id="patch_1">
   <path d="M 0 347.04 
L 851.4 347.04 
L 851.4 -0 
L 0 -0 
z
" style="fill: #ffffff"/>
  </g>
  <g id="axes_1">
   <g id="patch_2">
    <path d="M 313.066982 213.79068 
Q 271.947739 255.488573 231.613522 296.390392 
" clip-path="url(#p6978f5eb4f)" style="fill: none; stroke: #000000; stroke-linecap: round"/>
    <path d="M 235.846178 294.94657 
L 231.613522 296.390392 
L 232.998058 292.137974 
z
" clip-path="url(#p6978f5eb4f)" style="stroke: #000000; stroke-linecap: round"/>
   </g>
   <g id="patch_3">
    <path d="M 335.070099 223.863239 
Q 332.35689 257.767477 329.732867 290.557243 
" clip-path="url(#p6978f5eb4f)" style="fill: none; stroke: #000000; stroke-linecap: round"/>
    <path d="M 332.045576 286.729531 
L 329.732867 290.557243 
L 328.058323 286.410448 
z
" clip-path="url(#p6978f5eb4f)" style="stroke: #000000; stroke-linecap: round"/>
   </g>
   <g id="patch_4">
    <path d="M 517.797582 215.842532 
Q 484.55862 255.954576 452.033024 295.205745 
" clip-path="url(#p6978f5eb4f)" style="fill: none; stroke: #000000; stroke-linecap: round"/>
    <path d="M 456.125226 293.401892 
L 452.033024 295.205745 
L 453.045263 290.849671 
z
" clip-path="url(#p6978f5eb4f)" style="stroke: #000000; stroke-linecap: round"/>
   </g>
   <g id="patch_5">
    <path d="M 543.087677 223.870708 
Q 545.712932 257.76938 548.251861 290.553356 
" clip-path="url(#p6978f5eb4f)" style="fill: none; stroke: #000000; stroke-linecap: round"/>
    <path d="M 549.937038 286.410871 
L 548.251861 290.553356 
L 545.94898 286.719723 
z
" clip-path="url(#p6978f5eb4f)" style="stroke: #000000; stroke-linecap: round"/>
   </g>
   <g id="patch_6">
    <path d="M 565.149271 213.824286 
Q 606.135026 255.495901 646.336799 296.370414 
" clip-path="url(#p6978f5eb4f)" style="fill: none; stroke: #000000; stroke-linecap: round"/>
    <path d="M 644.957837 292.116185 
L 646.336799 296.370414 
L 642.106038 294.921046 
z
" clip-path="url(#p6978f5eb4f)" style="stroke: #000000; stroke-linecap: round"/>
   </g>
   <g id="patch_7">
    <path d="M 571.604926 205.153856 
Q 663.029282 253.535787 753.465448 301.394766 
" clip-path="url(#p6978f5eb4f)" style="fill: none; stroke: #000000; stroke-linecap: round"/>
    <path d="M 750.865475 297.756065 
L 753.465448 301.394766 
L 748.994504 301.291524 
z
" clip-path="url(#p6978f5eb4f)" style="stroke: #000000; stroke-linecap: round"/>
   </g>
   <g id="patch_8">
    <path d="M 277.018379 72.050331 
Q 186.761246 125.406183 97.466555 178.193083 
" clip-path="url(#p6978f5eb4f)" style="fill: none; stroke: #000000; stroke-linecap: round"/>
    <path d="M 101.927663 177.87921 
L 97.466555 178.193083 
L 99.892121 174.435873 
z
" clip-path="url(#p6978f5eb4f)" style="stroke: #000000; stroke-linecap: round"/>
   </g>
   <g id="patch_9">
    <path d="M 288.791724 86.952665 
Q 246.467571 130.818352 204.919724 173.879459 
" clip-path="url(#p6978f5eb4f)" style="fill: none; stroke: #000000; stroke-linecap: round"/>
    <path d="M 209.136396 172.389603 
L 204.919724 173.879459 
L 206.257842 169.612207 
z
" clip-path="url(#p6978f5eb4f)" style="stroke: #000000; stroke-linecap: round"/>
   </g>
   <g id="patch_10">
    <path d="M 337.890649 106.778216 
Q 337.890649 130.017847 337.890649 152.139444 
" clip-path="url(#p6978f5eb4f)" style="fill: none; stroke: #000000; stroke-linecap: round"/>
    <path d="M 339.890649 148.139444 
L 337.890649 152.139444 
L 335.890649 148.139444 
z
" clip-path="url(#p6978f5eb4f)" style="stroke: #000000; stroke-linecap: round"/>
   </g>
   <g id="patch_11">
    <path d="M 394.367961 78.619276 
Q 453.24518 122.98135 511.22946 166.670623 
" clip-path="url(#p6978f5eb4f)" style="fill: none; stroke: #000000; stroke-linecap: round"/>
    <path d="M 509.238327 162.666202 
L 511.22946 166.670623 
L 506.831243 165.860877 
z
" clip-path="url(#p6978f5eb4f)" style="stroke: #000000; stroke-linecap: round"/>
   </g>
   <g id="patch_12">
    <path d="M 402.701925 64.341947 
Q 536.252125 122.608523 668.777576 180.428012 
" clip-path="url(#p6978f5eb4f)" style="fill: none; stroke: #000000; stroke-linecap: round"/>
    <path d="M 665.911094 176.995334 
L 668.777576 180.428012 
L 664.311544 180.661591 
z
" clip-path="url(#p6978f5eb4f)" style="stroke: #000000; stroke-linecap: round"/>
   </g>
   <g id="PathCollection_1">
    <path d="M 79.832231 207.982598 
C 84.967867 207.982598 89.893852 205.942189 93.525295 202.310746 
C 97.156738 198.679303 99.197148 193.753318 99.197148 188.617682 
C 99.197148 183.482046 97.156738 178.556061 93.525295 174.924618 
C 89.893852 171.293175 84.967867 169.252765 79.832231 169.252765 
C 74.696595 169.252765 69.77061 171.293175 66.139167 174.924618 
C 62.507724 178.556061 60.467315 183.482046 60.467315 188.617682 
C 60.467315 193.753318 62.507724 198.679303 66.139167 202.310746 
C 69.77061 205.942189 74.696595 207.982598 79.832231 207.982598 
z
" clip-path="url(#p6978f5eb4f)" style="fill: #add8e6; stroke: #add8e6"/>
    <path d="M 190.699434 207.982598 
C 195.83507 207.982598 200.761055 205.942189 204.392498 202.310746 
C 208.023941 198.679303 210.064351 193.753318 210.064351 188.617682 
C 210.064351 183.482046 208.023941 178.556061 204.392498 174.924618 
C 200.761055 171.293175 195.83507 169.252765 190.699434 169.252765 
C 185.563798 169.252765 180.637813 171.293175 177.00637 174.924618 
C 173.374927 178.556061 171.334517 183.482046 171.334517 188.617682 
C 171.334517 193.753318 173.374927 198.679303 177.00637 202.310746 
C 180.637813 205.942189 185.563798 207.982598 190.699434 207.982598 
z
" clip-path="url(#p6978f5eb4f)" style="fill: #add8e6; stroke: #add8e6"/>
    <path d="M 337.890649 223.973021 
C 347.266994 223.973021 356.260571 220.247759 362.890649 213.617682 
C 369.520726 206.987604 373.245988 197.994027 373.245988 188.617682 
C 373.245988 179.241336 369.520726 170.247759 362.890649 163.617682 
C 356.260571 156.987604 347.266994 153.262343 337.890649 153.262343 
C 328.514303 153.262343 319.520726 156.987604 312.890649 163.617682 
C 306.260571 170.247759 302.53531 179.241336 302.53531 188.617682 
C 302.53531 197.994027 306.260571 206.987604 312.890649 213.617682 
C 319.520726 220.247759 328.514303 223.973021 337.890649 223.973021 
z
" clip-path="url(#p6978f5eb4f)" style="fill: #add8e6; stroke: #add8e6"/>
    <path d="M 217.231756 330.339462 
C 222.367392 330.339462 227.293377 328.299052 230.92482 324.667609 
C 234.556263 321.036166 236.596673 316.110181 236.596673 310.974545 
C 236.596673 305.83891 234.556263 300.912925 230.92482 297.281482 
C 227.293377 293.650039 222.367392 291.609629 217.231756 291.609629 
C 212.09612 291.609629 207.170135 293.650039 203.538692 297.281482 
C 199.907249 300.912925 197.866839 305.83891 197.866839 310.974545 
C 197.866839 316.110181 199.907249 321.036166 203.538692 324.667609 
C 207.170135 328.299052 212.09612 330.339462 217.231756 330.339462 
z
" clip-path="url(#p6978f5eb4f)" style="fill: #add8e6; stroke: #add8e6"/>
    <path d="M 328.098958 330.339462 
C 333.234594 330.339462 338.160579 328.299052 341.792022 324.667609 
C 345.423465 321.036166 347.463875 316.110181 347.463875 310.974545 
C 347.463875 305.83891 345.423465 300.912925 341.792022 297.281482 
C 338.160579 293.650039 333.234594 291.609629 328.098958 291.609629 
C 322.963323 291.609629 318.037338 293.650039 314.405895 297.281482 
C 310.774452 300.912925 308.734042 305.83891 308.734042 310.974545 
C 308.734042 316.110181 310.774452 321.036166 314.405895 324.667609 
C 318.037338 328.299052 322.963323 330.339462 328.098958 330.339462 
z
" clip-path="url(#p6978f5eb4f)" style="fill: #add8e6; stroke: #add8e6"/>
    <path d="M 540.357534 223.973021 
C 549.73388 223.973021 558.727457 220.247759 565.357534 213.617682 
C 571.987612 206.987604 575.712873 197.994027 575.712873 188.617682 
C 575.712873 179.241336 571.987612 170.247759 565.357534 163.617682 
C 558.727457 156.987604 549.73388 153.262343 540.357534 153.262343 
C 530.981189 153.262343 521.987612 156.987604 515.357534 163.617682 
C 508.727457 170.247759 505.002195 179.241336 505.002195 188.617682 
C 505.002195 197.994027 508.727457 206.987604 515.357534 213.617682 
C 521.987612 220.247759 530.981189 223.973021 540.357534 223.973021 
z
" clip-path="url(#p6978f5eb4f)" style="fill: #add8e6; stroke: #add8e6"/>
    <path d="M 438.966161 330.339462 
C 444.101797 330.339462 449.027782 328.299052 452.659225 324.667609 
C 456.290668 321.036166 458.331078 316.110181 458.331078 310.974545 
C 458.331078 305.83891 456.290668 300.912925 452.659225 297.281482 
C 449.027782 293.650039 444.101797 291.609629 438.966161 291.609629 
C 433.830525 291.609629 428.90454 293.650039 425.273097 297.281482 
C 421.641654 300.912925 419.601244 305.83891 419.601244 310.974545 
C 419.601244 316.110181 421.641654 321.036166 425.273097 324.667609 
C 428.90454 328.299052 433.830525 330.339462 438.966161 330.339462 
z
" clip-path="url(#p6978f5eb4f)" style="fill: #add8e6; stroke: #add8e6"/>
    <path d="M 549.833364 330.339462 
C 554.968999 330.339462 559.894984 328.299052 563.526427 324.667609 
C 567.15787 321.036166 569.19828 316.110181 569.19828 310.974545 
C 569.19828 305.83891 567.15787 300.912925 563.526427 297.281482 
C 559.894984 293.650039 554.968999 291.609629 549.833364 291.609629 
C 544.697728 291.609629 539.771743 293.650039 536.1403 297.281482 
C 532.508857 300.912925 530.468447 305.83891 530.468447 310.974545 
C 530.468447 316.110181 532.508857 321.036166 536.1403 324.667609 
C 539.771743 328.299052 544.697728 330.339462 549.833364 330.339462 
z
" clip-path="url(#p6978f5eb4f)" style="fill: #add8e6; stroke: #add8e6"/>
    <path d="M 660.700566 330.339462 
C 665.836202 330.339462 670.762187 328.299052 674.39363 324.667609 
C 678.025073 321.036166 680.065483 316.110181 680.065483 310.974545 
C 680.065483 305.83891 678.025073 300.912925 674.39363 297.281482 
C 670.762187 293.650039 665.836202 291.609629 660.700566 291.609629 
C 655.56493 291.609629 650.638945 293.650039 647.007502 297.281482 
C 643.376059 300.912925 641.335649 305.83891 641.335649 310.974545 
C 641.335649 316.110181 643.376059 321.036166 647.007502 324.667609 
C 650.638945 328.299052 655.56493 330.339462 660.700566 330.339462 
z
" clip-path="url(#p6978f5eb4f)" style="fill: #add8e6; stroke: #add8e6"/>
    <path d="M 771.567769 330.339462 
C 776.703405 330.339462 781.62939 328.299052 785.260833 324.667609 
C 788.892276 321.036166 790.932685 316.110181 790.932685 310.974545 
C 790.932685 305.83891 788.892276 300.912925 785.260833 297.281482 
C 781.62939 293.650039 776.703405 291.609629 771.567769 291.609629 
C 766.432133 291.609629 761.506148 293.650039 757.874705 297.281482 
C 754.243262 300.912925 752.202852 305.83891 752.202852 310.974545 
C 752.202852 316.110181 754.243262 321.036166 757.874705 324.667609 
C 761.506148 328.299052 766.432133 330.339462 771.567769 330.339462 
z
" clip-path="url(#p6978f5eb4f)" style="fill: #add8e6; stroke: #add8e6"/>
    <path d="M 687.548749 207.982598 
C 692.684385 207.982598 697.61037 205.942189 701.241813 202.310746 
C 704.873256 198.679303 706.913666 193.753318 706.913666 188.617682 
C 706.913666 183.482046 704.873256 178.556061 701.241813 174.924618 
C 697.61037 171.293175 692.684385 169.252765 687.548749 169.252765 
C 682.413113 169.252765 677.487128 171.293175 673.855685 174.924618 
C 670.224242 178.556061 668.183832 183.482046 668.183832 188.617682 
C 668.183832 193.753318 670.224242 198.679303 673.855685 202.310746 
C 677.487128 205.942189 682.413113 207.982598 687.548749 207.982598 
z
" clip-path="url(#p6978f5eb4f)" style="fill: #add8e6; stroke: #add8e6"/>
    <path d="M 337.890649 106.776133 
C 356.64334 106.776133 374.630494 99.32561 387.890649 86.065455 
C 401.150804 72.8053 408.601327 54.818146 408.601327 36.065455 
C 408.601327 17.312764 401.150804 -0.67439 387.890649 -13.934545 
C 374.630494 -27.1947 356.64334 -34.645224 337.890649 -34.645224 
C 319.137958 -34.645224 301.150804 -27.1947 287.890649 -13.934545 
C 274.630494 -0.67439 267.179971 17.312764 267.179971 36.065455 
C 267.179971 54.818146 274.630494 72.8053 287.890649 86.065455 
C 301.150804 99.32561 319.137958 106.776133 337.890649 106.776133 
z
" clip-path="url(#p6978f5eb4f)" style="fill: #add8e6; stroke: #add8e6"/>
   </g>
   <g id="text_1">
    <!--  12.1 : Introduction -->
    <g transform="translate(65.474185 187.765822) scale(0.03 -0.03)">
     <defs>
      <path id="DejaVuSans-20" transform="scale(0.015625)"/>
      <path id="DejaVuSans-31" d="M 794 531 
L 1825 531 
L 1825 4091 
L 703 3866 
L 703 4441 
L 1819 4666 
L 2450 4666 
L 2450 531 
L 3481 531 
L 3481 0 
L 794 0 
L 794 531 
z
" transform="scale(0.015625)"/>
      <path id="DejaVuSans-32" d="M 1228 531 
L 3431 531 
L 3431 0 
L 469 0 
L 469 531 
Q 828 903 1448 1529 
Q 2069 2156 2228 2338 
Q 2531 2678 2651 2914 
Q 2772 3150 2772 3378 
Q 2772 3750 2511 3984 
Q 2250 4219 1831 4219 
Q 1534 4219 1204 4116 
Q 875 4013 500 3803 
L 500 4441 
Q 881 4594 1212 4672 
Q 1544 4750 1819 4750 
Q 2544 4750 2975 4387 
Q 3406 4025 3406 3419 
Q 3406 3131 3298 2873 
Q 3191 2616 2906 2266 
Q 2828 2175 2409 1742 
Q 1991 1309 1228 531 
z
" transform="scale(0.015625)"/>
      <path id="DejaVuSans-2e" d="M 684 794 
L 1344 794 
L 1344 0 
L 684 0 
L 684 794 
z
" transform="scale(0.015625)"/>
      <path id="DejaVuSans-3a" d="M 750 794 
L 1409 794 
L 1409 0 
L 750 0 
L 750 794 
z
M 750 3309 
L 1409 3309 
L 1409 2516 
L 750 2516 
L 750 3309 
z
" transform="scale(0.015625)"/>
      <path id="DejaVuSans-49" d="M 628 4666 
L 1259 4666 
L 1259 0 
L 628 0 
L 628 4666 
z
" transform="scale(0.015625)"/>
      <path id="DejaVuSans-6e" d="M 3513 2113 
L 3513 0 
L 2938 0 
L 2938 2094 
Q 2938 2591 2744 2837 
Q 2550 3084 2163 3084 
Q 1697 3084 1428 2787 
Q 1159 2491 1159 1978 
L 1159 0 
L 581 0 
L 581 3500 
L 1159 3500 
L 1159 2956 
Q 1366 3272 1645 3428 
Q 1925 3584 2291 3584 
Q 2894 3584 3203 3211 
Q 3513 2838 3513 2113 
z
" transform="scale(0.015625)"/>
      <path id="DejaVuSans-74" d="M 1172 4494 
L 1172 3500 
L 2356 3500 
L 2356 3053 
L 1172 3053 
L 1172 1153 
Q 1172 725 1289 603 
Q 1406 481 1766 481 
L 2356 481 
L 2356 0 
L 1766 0 
Q 1100 0 847 248 
Q 594 497 594 1153 
L 594 3053 
L 172 3053 
L 172 3500 
L 594 3500 
L 594 4494 
L 1172 4494 
z
" transform="scale(0.015625)"/>
      <path id="DejaVuSans-72" d="M 2631 2963 
Q 2534 3019 2420 3045 
Q 2306 3072 2169 3072 
Q 1681 3072 1420 2755 
Q 1159 2438 1159 1844 
L 1159 0 
L 581 0 
L 581 3500 
L 1159 3500 
L 1159 2956 
Q 1341 3275 1631 3429 
Q 1922 3584 2338 3584 
Q 2397 3584 2469 3576 
Q 2541 3569 2628 3553 
L 2631 2963 
z
" transform="scale(0.015625)"/>
      <path id="DejaVuSans-6f" d="M 1959 3097 
Q 1497 3097 1228 2736 
Q 959 2375 959 1747 
Q 959 1119 1226 758 
Q 1494 397 1959 397 
Q 2419 397 2687 759 
Q 2956 1122 2956 1747 
Q 2956 2369 2687 2733 
Q 2419 3097 1959 3097 
z
M 1959 3584 
Q 2709 3584 3137 3096 
Q 3566 2609 3566 1747 
Q 3566 888 3137 398 
Q 2709 -91 1959 -91 
Q 1206 -91 779 398 
Q 353 888 353 1747 
Q 353 2609 779 3096 
Q 1206 3584 1959 3584 
z
" transform="scale(0.015625)"/>
      <path id="DejaVuSans-64" d="M 2906 2969 
L 2906 4863 
L 3481 4863 
L 3481 0 
L 2906 0 
L 2906 525 
Q 2725 213 2448 61 
Q 2172 -91 1784 -91 
Q 1150 -91 751 415 
Q 353 922 353 1747 
Q 353 2572 751 3078 
Q 1150 3584 1784 3584 
Q 2172 3584 2448 3432 
Q 2725 3281 2906 2969 
z
M 947 1747 
Q 947 1113 1208 752 
Q 1469 391 1925 391 
Q 2381 391 2643 752 
Q 2906 1113 2906 1747 
Q 2906 2381 2643 2742 
Q 2381 3103 1925 3103 
Q 1469 3103 1208 2742 
Q 947 2381 947 1747 
z
" transform="scale(0.015625)"/>
      <path id="DejaVuSans-75" d="M 544 1381 
L 544 3500 
L 1119 3500 
L 1119 1403 
Q 1119 906 1312 657 
Q 1506 409 1894 409 
Q 2359 409 2629 706 
Q 2900 1003 2900 1516 
L 2900 3500 
L 3475 3500 
L 3475 0 
L 2900 0 
L 2900 538 
Q 2691 219 2414 64 
Q 2138 -91 1772 -91 
Q 1169 -91 856 284 
Q 544 659 544 1381 
z
M 1991 3584 
L 1991 3584 
z
" transform="scale(0.015625)"/>
      <path id="DejaVuSans-63" d="M 3122 3366 
L 3122 2828 
Q 2878 2963 2633 3030 
Q 2388 3097 2138 3097 
Q 1578 3097 1268 2742 
Q 959 2388 959 1747 
Q 959 1106 1268 751 
Q 1578 397 2138 397 
Q 2388 397 2633 464 
Q 2878 531 3122 666 
L 3122 134 
Q 2881 22 2623 -34 
Q 2366 -91 2075 -91 
Q 1284 -91 818 406 
Q 353 903 353 1747 
Q 353 2603 823 3093 
Q 1294 3584 2113 3584 
Q 2378 3584 2631 3529 
Q 2884 3475 3122 3366 
z
" transform="scale(0.015625)"/>
      <path id="DejaVuSans-69" d="M 603 3500 
L 1178 3500 
L 1178 0 
L 603 0 
L 603 3500 
z
M 603 4863 
L 1178 4863 
L 1178 4134 
L 603 4134 
L 603 4863 
z
" transform="scale(0.015625)"/>
     </defs>
     <use xlink:href="#DejaVuSans-20"/>
     <use xlink:href="#DejaVuSans-31" transform="translate(31.787109 0)"/>
     <use xlink:href="#DejaVuSans-32" transform="translate(95.410156 0)"/>
     <use xlink:href="#DejaVuSans-2e" transform="translate(159.033203 0)"/>
     <use xlink:href="#DejaVuSans-31" transform="translate(190.820312 0)"/>
     <use xlink:href="#DejaVuSans-20" transform="translate(254.443359 0)"/>
     <use xlink:href="#DejaVuSans-3a" transform="translate(286.230469 0)"/>
     <use xlink:href="#DejaVuSans-20" transform="translate(319.921875 0)"/>
     <use xlink:href="#DejaVuSans-49" transform="translate(351.708984 0)"/>
     <use xlink:href="#DejaVuSans-6e" transform="translate(381.201172 0)"/>
     <use xlink:href="#DejaVuSans-74" transform="translate(444.580078 0)"/>
     <use xlink:href="#DejaVuSans-72" transform="translate(483.789062 0)"/>
     <use xlink:href="#DejaVuSans-6f" transform="translate(522.652344 0)"/>
     <use xlink:href="#DejaVuSans-64" transform="translate(583.833984 0)"/>
     <use xlink:href="#DejaVuSans-75" transform="translate(647.310547 0)"/>
     <use xlink:href="#DejaVuSans-63" transform="translate(710.689453 0)"/>
     <use xlink:href="#DejaVuSans-74" transform="translate(765.669922 0)"/>
     <use xlink:href="#DejaVuSans-69" transform="translate(804.878906 0)"/>
     <use xlink:href="#DejaVuSans-6f" transform="translate(832.662109 0)"/>
     <use xlink:href="#DejaVuSans-6e" transform="translate(893.84375 0)"/>
    </g>
    <!--  -->
    <g transform="translate(79.832231 191.125166) scale(0.03 -0.03)"/>
   </g>
   <g id="text_2">
    <!--  12.2 : Governing -->
    <g transform="translate(177.672637 182.726807) scale(0.03 -0.03)">
     <defs>
      <path id="DejaVuSans-47" d="M 3809 666 
L 3809 1919 
L 2778 1919 
L 2778 2438 
L 4434 2438 
L 4434 434 
Q 4069 175 3628 42 
Q 3188 -91 2688 -91 
Q 1594 -91 976 548 
Q 359 1188 359 2328 
Q 359 3472 976 4111 
Q 1594 4750 2688 4750 
Q 3144 4750 3555 4637 
Q 3966 4525 4313 4306 
L 4313 3634 
Q 3963 3931 3569 4081 
Q 3175 4231 2741 4231 
Q 1884 4231 1454 3753 
Q 1025 3275 1025 2328 
Q 1025 1384 1454 906 
Q 1884 428 2741 428 
Q 3075 428 3337 486 
Q 3600 544 3809 666 
z
" transform="scale(0.015625)"/>
      <path id="DejaVuSans-76" d="M 191 3500 
L 800 3500 
L 1894 563 
L 2988 3500 
L 3597 3500 
L 2284 0 
L 1503 0 
L 191 3500 
z
" transform="scale(0.015625)"/>
      <path id="DejaVuSans-65" d="M 3597 1894 
L 3597 1613 
L 953 1613 
Q 991 1019 1311 708 
Q 1631 397 2203 397 
Q 2534 397 2845 478 
Q 3156 559 3463 722 
L 3463 178 
Q 3153 47 2828 -22 
Q 2503 -91 2169 -91 
Q 1331 -91 842 396 
Q 353 884 353 1716 
Q 353 2575 817 3079 
Q 1281 3584 2069 3584 
Q 2775 3584 3186 3129 
Q 3597 2675 3597 1894 
z
M 3022 2063 
Q 3016 2534 2758 2815 
Q 2500 3097 2075 3097 
Q 1594 3097 1305 2825 
Q 1016 2553 972 2059 
L 3022 2063 
z
" transform="scale(0.015625)"/>
      <path id="DejaVuSans-67" d="M 2906 1791 
Q 2906 2416 2648 2759 
Q 2391 3103 1925 3103 
Q 1463 3103 1205 2759 
Q 947 2416 947 1791 
Q 947 1169 1205 825 
Q 1463 481 1925 481 
Q 2391 481 2648 825 
Q 2906 1169 2906 1791 
z
M 3481 434 
Q 3481 -459 3084 -895 
Q 2688 -1331 1869 -1331 
Q 1566 -1331 1297 -1286 
Q 1028 -1241 775 -1147 
L 775 -588 
Q 1028 -725 1275 -790 
Q 1522 -856 1778 -856 
Q 2344 -856 2625 -561 
Q 2906 -266 2906 331 
L 2906 616 
Q 2728 306 2450 153 
Q 2172 0 1784 0 
Q 1141 0 747 490 
Q 353 981 353 1791 
Q 353 2603 747 3093 
Q 1141 3584 1784 3584 
Q 2172 3584 2450 3431 
Q 2728 3278 2906 2969 
L 2906 3500 
L 3481 3500 
L 3481 434 
z
" transform="scale(0.015625)"/>
     </defs>
     <use xlink:href="#DejaVuSans-20"/>
     <use xlink:href="#DejaVuSans-31" transform="translate(31.787109 0)"/>
     <use xlink:href="#DejaVuSans-32" transform="translate(95.410156 0)"/>
     <use xlink:href="#DejaVuSans-2e" transform="translate(159.033203 0)"/>
     <use xlink:href="#DejaVuSans-32" transform="translate(190.820312 0)"/>
     <use xlink:href="#DejaVuSans-20" transform="translate(254.443359 0)"/>
     <use xlink:href="#DejaVuSans-3a" transform="translate(286.230469 0)"/>
     <use xlink:href="#DejaVuSans-20" transform="translate(319.921875 0)"/>
     <use xlink:href="#DejaVuSans-47" transform="translate(351.708984 0)"/>
     <use xlink:href="#DejaVuSans-6f" transform="translate(429.199219 0)"/>
     <use xlink:href="#DejaVuSans-76" transform="translate(490.380859 0)"/>
     <use xlink:href="#DejaVuSans-65" transform="translate(549.560547 0)"/>
     <use xlink:href="#DejaVuSans-72" transform="translate(611.083984 0)"/>
     <use xlink:href="#DejaVuSans-6e" transform="translate(650.447266 0)"/>
     <use xlink:href="#DejaVuSans-69" transform="translate(713.826172 0)"/>
     <use xlink:href="#DejaVuSans-6e" transform="translate(741.609375 0)"/>
     <use xlink:href="#DejaVuSans-67" transform="translate(804.988281 0)"/>
    </g>
    <!--  Equations for -->
    <g transform="translate(180.258965 186.08615) scale(0.03 -0.03)">
     <defs>
      <path id="DejaVuSans-45" d="M 628 4666 
L 3578 4666 
L 3578 4134 
L 1259 4134 
L 1259 2753 
L 3481 2753 
L 3481 2222 
L 1259 2222 
L 1259 531 
L 3634 531 
L 3634 0 
L 628 0 
L 628 4666 
z
" transform="scale(0.015625)"/>
      <path id="DejaVuSans-71" d="M 947 1747 
Q 947 1113 1208 752 
Q 1469 391 1925 391 
Q 2381 391 2643 752 
Q 2906 1113 2906 1747 
Q 2906 2381 2643 2742 
Q 2381 3103 1925 3103 
Q 1469 3103 1208 2742 
Q 947 2381 947 1747 
z
M 2906 525 
Q 2725 213 2448 61 
Q 2172 -91 1784 -91 
Q 1150 -91 751 415 
Q 353 922 353 1747 
Q 353 2572 751 3078 
Q 1150 3584 1784 3584 
Q 2172 3584 2448 3432 
Q 2725 3281 2906 2969 
L 2906 3500 
L 3481 3500 
L 3481 -1331 
L 2906 -1331 
L 2906 525 
z
" transform="scale(0.015625)"/>
      <path id="DejaVuSans-61" d="M 2194 1759 
Q 1497 1759 1228 1600 
Q 959 1441 959 1056 
Q 959 750 1161 570 
Q 1363 391 1709 391 
Q 2188 391 2477 730 
Q 2766 1069 2766 1631 
L 2766 1759 
L 2194 1759 
z
M 3341 1997 
L 3341 0 
L 2766 0 
L 2766 531 
Q 2569 213 2275 61 
Q 1981 -91 1556 -91 
Q 1019 -91 701 211 
Q 384 513 384 1019 
Q 384 1609 779 1909 
Q 1175 2209 1959 2209 
L 2766 2209 
L 2766 2266 
Q 2766 2663 2505 2880 
Q 2244 3097 1772 3097 
Q 1472 3097 1187 3025 
Q 903 2953 641 2809 
L 641 3341 
Q 956 3463 1253 3523 
Q 1550 3584 1831 3584 
Q 2591 3584 2966 3190 
Q 3341 2797 3341 1997 
z
" transform="scale(0.015625)"/>
      <path id="DejaVuSans-73" d="M 2834 3397 
L 2834 2853 
Q 2591 2978 2328 3040 
Q 2066 3103 1784 3103 
Q 1356 3103 1142 2972 
Q 928 2841 928 2578 
Q 928 2378 1081 2264 
Q 1234 2150 1697 2047 
L 1894 2003 
Q 2506 1872 2764 1633 
Q 3022 1394 3022 966 
Q 3022 478 2636 193 
Q 2250 -91 1575 -91 
Q 1294 -91 989 -36 
Q 684 19 347 128 
L 347 722 
Q 666 556 975 473 
Q 1284 391 1588 391 
Q 1994 391 2212 530 
Q 2431 669 2431 922 
Q 2431 1156 2273 1281 
Q 2116 1406 1581 1522 
L 1381 1569 
Q 847 1681 609 1914 
Q 372 2147 372 2553 
Q 372 3047 722 3315 
Q 1072 3584 1716 3584 
Q 2034 3584 2315 3537 
Q 2597 3491 2834 3397 
z
" transform="scale(0.015625)"/>
      <path id="DejaVuSans-66" d="M 2375 4863 
L 2375 4384 
L 1825 4384 
Q 1516 4384 1395 4259 
Q 1275 4134 1275 3809 
L 1275 3500 
L 2222 3500 
L 2222 3053 
L 1275 3053 
L 1275 0 
L 697 0 
L 697 3053 
L 147 3053 
L 147 3500 
L 697 3500 
L 697 3744 
Q 697 4328 969 4595 
Q 1241 4863 1831 4863 
L 2375 4863 
z
" transform="scale(0.015625)"/>
     </defs>
     <use xlink:href="#DejaVuSans-20"/>
     <use xlink:href="#DejaVuSans-45" transform="translate(31.787109 0)"/>
     <use xlink:href="#DejaVuSans-71" transform="translate(94.970703 0)"/>
     <use xlink:href="#DejaVuSans-75" transform="translate(158.447266 0)"/>
     <use xlink:href="#DejaVuSans-61" transform="translate(221.826172 0)"/>
     <use xlink:href="#DejaVuSans-74" transform="translate(283.105469 0)"/>
     <use xlink:href="#DejaVuSans-69" transform="translate(322.314453 0)"/>
     <use xlink:href="#DejaVuSans-6f" transform="translate(350.097656 0)"/>
     <use xlink:href="#DejaVuSans-6e" transform="translate(411.279297 0)"/>
     <use xlink:href="#DejaVuSans-73" transform="translate(474.658203 0)"/>
     <use xlink:href="#DejaVuSans-20" transform="translate(526.757812 0)"/>
     <use xlink:href="#DejaVuSans-66" transform="translate(558.544922 0)"/>
     <use xlink:href="#DejaVuSans-6f" transform="translate(593.75 0)"/>
     <use xlink:href="#DejaVuSans-72" transform="translate(654.931641 0)"/>
    </g>
    <!--  Geothermal -->
    <g transform="translate(181.370606 189.445494) scale(0.03 -0.03)">
     <defs>
      <path id="DejaVuSans-68" d="M 3513 2113 
L 3513 0 
L 2938 0 
L 2938 2094 
Q 2938 2591 2744 2837 
Q 2550 3084 2163 3084 
Q 1697 3084 1428 2787 
Q 1159 2491 1159 1978 
L 1159 0 
L 581 0 
L 581 4863 
L 1159 4863 
L 1159 2956 
Q 1366 3272 1645 3428 
Q 1925 3584 2291 3584 
Q 2894 3584 3203 3211 
Q 3513 2838 3513 2113 
z
" transform="scale(0.015625)"/>
      <path id="DejaVuSans-6d" d="M 3328 2828 
Q 3544 3216 3844 3400 
Q 4144 3584 4550 3584 
Q 5097 3584 5394 3201 
Q 5691 2819 5691 2113 
L 5691 0 
L 5113 0 
L 5113 2094 
Q 5113 2597 4934 2840 
Q 4756 3084 4391 3084 
Q 3944 3084 3684 2787 
Q 3425 2491 3425 1978 
L 3425 0 
L 2847 0 
L 2847 2094 
Q 2847 2600 2669 2842 
Q 2491 3084 2119 3084 
Q 1678 3084 1418 2786 
Q 1159 2488 1159 1978 
L 1159 0 
L 581 0 
L 581 3500 
L 1159 3500 
L 1159 2956 
Q 1356 3278 1631 3431 
Q 1906 3584 2284 3584 
Q 2666 3584 2933 3390 
Q 3200 3197 3328 2828 
z
" transform="scale(0.015625)"/>
      <path id="DejaVuSans-6c" d="M 603 4863 
L 1178 4863 
L 1178 0 
L 603 0 
L 603 4863 
z
" transform="scale(0.015625)"/>
     </defs>
     <use xlink:href="#DejaVuSans-20"/>
     <use xlink:href="#DejaVuSans-47" transform="translate(31.787109 0)"/>
     <use xlink:href="#DejaVuSans-65" transform="translate(109.277344 0)"/>
     <use xlink:href="#DejaVuSans-6f" transform="translate(170.800781 0)"/>
     <use xlink:href="#DejaVuSans-74" transform="translate(231.982422 0)"/>
     <use xlink:href="#DejaVuSans-68" transform="translate(271.191406 0)"/>
     <use xlink:href="#DejaVuSans-65" transform="translate(334.570312 0)"/>
     <use xlink:href="#DejaVuSans-72" transform="translate(396.09375 0)"/>
     <use xlink:href="#DejaVuSans-6d" transform="translate(435.457031 0)"/>
     <use xlink:href="#DejaVuSans-61" transform="translate(532.869141 0)"/>
     <use xlink:href="#DejaVuSans-6c" transform="translate(594.148438 0)"/>
    </g>
    <!--  Applications -->
    <g transform="translate(181.060059 192.804838) scale(0.03 -0.03)">
     <defs>
      <path id="DejaVuSans-41" d="M 2188 4044 
L 1331 1722 
L 3047 1722 
L 2188 4044 
z
M 1831 4666 
L 2547 4666 
L 4325 0 
L 3669 0 
L 3244 1197 
L 1141 1197 
L 716 0 
L 50 0 
L 1831 4666 
z
" transform="scale(0.015625)"/>
      <path id="DejaVuSans-70" d="M 1159 525 
L 1159 -1331 
L 581 -1331 
L 581 3500 
L 1159 3500 
L 1159 2969 
Q 1341 3281 1617 3432 
Q 1894 3584 2278 3584 
Q 2916 3584 3314 3078 
Q 3713 2572 3713 1747 
Q 3713 922 3314 415 
Q 2916 -91 2278 -91 
Q 1894 -91 1617 61 
Q 1341 213 1159 525 
z
M 3116 1747 
Q 3116 2381 2855 2742 
Q 2594 3103 2138 3103 
Q 1681 3103 1420 2742 
Q 1159 2381 1159 1747 
Q 1159 1113 1420 752 
Q 1681 391 2138 391 
Q 2594 391 2855 752 
Q 3116 1113 3116 1747 
z
" transform="scale(0.015625)"/>
     </defs>
     <use xlink:href="#DejaVuSans-20"/>
     <use xlink:href="#DejaVuSans-41" transform="translate(31.787109 0)"/>
     <use xlink:href="#DejaVuSans-70" transform="translate(100.195312 0)"/>
     <use xlink:href="#DejaVuSans-70" transform="translate(163.671875 0)"/>
     <use xlink:href="#DejaVuSans-6c" transform="translate(227.148438 0)"/>
     <use xlink:href="#DejaVuSans-69" transform="translate(254.931641 0)"/>
     <use xlink:href="#DejaVuSans-63" transform="translate(282.714844 0)"/>
     <use xlink:href="#DejaVuSans-61" transform="translate(337.695312 0)"/>
     <use xlink:href="#DejaVuSans-74" transform="translate(398.974609 0)"/>
     <use xlink:href="#DejaVuSans-69" transform="translate(438.183594 0)"/>
     <use xlink:href="#DejaVuSans-6f" transform="translate(465.966797 0)"/>
     <use xlink:href="#DejaVuSans-6e" transform="translate(527.148438 0)"/>
     <use xlink:href="#DejaVuSans-73" transform="translate(590.527344 0)"/>
    </g>
    <!--  -->
    <g transform="translate(190.699434 196.164182) scale(0.03 -0.03)"/>
   </g>
   <g id="text_3">
    <!--  12.3 : The -->
    <g transform="translate(324.448852 184.398463) scale(0.05 -0.05)">
     <defs>
      <path id="DejaVuSans-33" d="M 2597 2516 
Q 3050 2419 3304 2112 
Q 3559 1806 3559 1356 
Q 3559 666 3084 287 
Q 2609 -91 1734 -91 
Q 1441 -91 1130 -33 
Q 819 25 488 141 
L 488 750 
Q 750 597 1062 519 
Q 1375 441 1716 441 
Q 2309 441 2620 675 
Q 2931 909 2931 1356 
Q 2931 1769 2642 2001 
Q 2353 2234 1838 2234 
L 1294 2234 
L 1294 2753 
L 1863 2753 
Q 2328 2753 2575 2939 
Q 2822 3125 2822 3475 
Q 2822 3834 2567 4026 
Q 2313 4219 1838 4219 
Q 1578 4219 1281 4162 
Q 984 4106 628 3988 
L 628 4550 
Q 988 4650 1302 4700 
Q 1616 4750 1894 4750 
Q 2613 4750 3031 4423 
Q 3450 4097 3450 3541 
Q 3450 3153 3228 2886 
Q 3006 2619 2597 2516 
z
" transform="scale(0.015625)"/>
      <path id="DejaVuSans-54" d="M -19 4666 
L 3928 4666 
L 3928 4134 
L 2272 4134 
L 2272 0 
L 1638 0 
L 1638 4134 
L -19 4134 
L -19 4666 
z
" transform="scale(0.015625)"/>
     </defs>
     <use xlink:href="#DejaVuSans-20"/>
     <use xlink:href="#DejaVuSans-31" transform="translate(31.787109 0)"/>
     <use xlink:href="#DejaVuSans-32" transform="translate(95.410156 0)"/>
     <use xlink:href="#DejaVuSans-2e" transform="translate(159.033203 0)"/>
     <use xlink:href="#DejaVuSans-33" transform="translate(190.820312 0)"/>
     <use xlink:href="#DejaVuSans-20" transform="translate(254.443359 0)"/>
     <use xlink:href="#DejaVuSans-3a" transform="translate(286.230469 0)"/>
     <use xlink:href="#DejaVuSans-20" transform="translate(319.921875 0)"/>
     <use xlink:href="#DejaVuSans-54" transform="translate(351.708984 0)"/>
     <use xlink:href="#DejaVuSans-68" transform="translate(412.792969 0)"/>
     <use xlink:href="#DejaVuSans-65" transform="translate(476.171875 0)"/>
    </g>
    <!--  Geothermal -->
    <g transform="translate(322.342602 189.997369) scale(0.05 -0.05)">
     <use xlink:href="#DejaVuSans-20"/>
     <use xlink:href="#DejaVuSans-47" transform="translate(31.787109 0)"/>
     <use xlink:href="#DejaVuSans-65" transform="translate(109.277344 0)"/>
     <use xlink:href="#DejaVuSans-6f" transform="translate(170.800781 0)"/>
     <use xlink:href="#DejaVuSans-74" transform="translate(231.982422 0)"/>
     <use xlink:href="#DejaVuSans-68" transform="translate(271.191406 0)"/>
     <use xlink:href="#DejaVuSans-65" transform="translate(334.570312 0)"/>
     <use xlink:href="#DejaVuSans-72" transform="translate(396.09375 0)"/>
     <use xlink:href="#DejaVuSans-6d" transform="translate(435.457031 0)"/>
     <use xlink:href="#DejaVuSans-61" transform="translate(532.869141 0)"/>
     <use xlink:href="#DejaVuSans-6c" transform="translate(594.148438 0)"/>
    </g>
    <!--  Module -->
    <g transform="translate(328.005102 195.596275) scale(0.05 -0.05)">
     <defs>
      <path id="DejaVuSans-4d" d="M 628 4666 
L 1569 4666 
L 2759 1491 
L 3956 4666 
L 4897 4666 
L 4897 0 
L 4281 0 
L 4281 4097 
L 3078 897 
L 2444 897 
L 1241 4097 
L 1241 0 
L 628 0 
L 628 4666 
z
" transform="scale(0.015625)"/>
     </defs>
     <use xlink:href="#DejaVuSans-20"/>
     <use xlink:href="#DejaVuSans-4d" transform="translate(31.787109 0)"/>
     <use xlink:href="#DejaVuSans-6f" transform="translate(118.066406 0)"/>
     <use xlink:href="#DejaVuSans-64" transform="translate(179.248047 0)"/>
     <use xlink:href="#DejaVuSans-75" transform="translate(242.724609 0)"/>
     <use xlink:href="#DejaVuSans-6c" transform="translate(306.103516 0)"/>
     <use xlink:href="#DejaVuSans-65" transform="translate(333.886719 0)"/>
    </g>
   </g>
   <g id="text_4">
    <!--  12.3.1 : A -->
    <g transform="translate(209.499256 308.443014) scale(0.03 -0.03)">
     <use xlink:href="#DejaVuSans-20"/>
     <use xlink:href="#DejaVuSans-31" transform="translate(31.787109 0)"/>
     <use xlink:href="#DejaVuSans-32" transform="translate(95.410156 0)"/>
     <use xlink:href="#DejaVuSans-2e" transform="translate(159.033203 0)"/>
     <use xlink:href="#DejaVuSans-33" transform="translate(190.820312 0)"/>
     <use xlink:href="#DejaVuSans-2e" transform="translate(254.443359 0)"/>
     <use xlink:href="#DejaVuSans-31" transform="translate(286.230469 0)"/>
     <use xlink:href="#DejaVuSans-20" transform="translate(349.853516 0)"/>
     <use xlink:href="#DejaVuSans-3a" transform="translate(381.640625 0)"/>
     <use xlink:href="#DejaVuSans-20" transform="translate(415.332031 0)"/>
     <use xlink:href="#DejaVuSans-41" transform="translate(447.119141 0)"/>
    </g>
    <!--  Simple Worked -->
    <g transform="translate(205.537381 311.802358) scale(0.03 -0.03)">
     <defs>
      <path id="DejaVuSans-53" d="M 3425 4513 
L 3425 3897 
Q 3066 4069 2747 4153 
Q 2428 4238 2131 4238 
Q 1616 4238 1336 4038 
Q 1056 3838 1056 3469 
Q 1056 3159 1242 3001 
Q 1428 2844 1947 2747 
L 2328 2669 
Q 3034 2534 3370 2195 
Q 3706 1856 3706 1288 
Q 3706 609 3251 259 
Q 2797 -91 1919 -91 
Q 1588 -91 1214 -16 
Q 841 59 441 206 
L 441 856 
Q 825 641 1194 531 
Q 1563 422 1919 422 
Q 2459 422 2753 634 
Q 3047 847 3047 1241 
Q 3047 1584 2836 1778 
Q 2625 1972 2144 2069 
L 1759 2144 
Q 1053 2284 737 2584 
Q 422 2884 422 3419 
Q 422 4038 858 4394 
Q 1294 4750 2059 4750 
Q 2388 4750 2728 4690 
Q 3069 4631 3425 4513 
z
" transform="scale(0.015625)"/>
      <path id="DejaVuSans-57" d="M 213 4666 
L 850 4666 
L 1831 722 
L 2809 4666 
L 3519 4666 
L 4500 722 
L 5478 4666 
L 6119 4666 
L 4947 0 
L 4153 0 
L 3169 4050 
L 2175 0 
L 1381 0 
L 213 4666 
z
" transform="scale(0.015625)"/>
      <path id="DejaVuSans-6b" d="M 581 4863 
L 1159 4863 
L 1159 1991 
L 2875 3500 
L 3609 3500 
L 1753 1863 
L 3688 0 
L 2938 0 
L 1159 1709 
L 1159 0 
L 581 0 
L 581 4863 
z
" transform="scale(0.015625)"/>
     </defs>
     <use xlink:href="#DejaVuSans-20"/>
     <use xlink:href="#DejaVuSans-53" transform="translate(31.787109 0)"/>
     <use xlink:href="#DejaVuSans-69" transform="translate(95.263672 0)"/>
     <use xlink:href="#DejaVuSans-6d" transform="translate(123.046875 0)"/>
     <use xlink:href="#DejaVuSans-70" transform="translate(220.458984 0)"/>
     <use xlink:href="#DejaVuSans-6c" transform="translate(283.935547 0)"/>
     <use xlink:href="#DejaVuSans-65" transform="translate(311.71875 0)"/>
     <use xlink:href="#DejaVuSans-20" transform="translate(373.242188 0)"/>
     <use xlink:href="#DejaVuSans-57" transform="translate(405.029297 0)"/>
     <use xlink:href="#DejaVuSans-6f" transform="translate(498.03125 0)"/>
     <use xlink:href="#DejaVuSans-72" transform="translate(559.212891 0)"/>
     <use xlink:href="#DejaVuSans-6b" transform="translate(600.326172 0)"/>
     <use xlink:href="#DejaVuSans-65" transform="translate(654.611328 0)"/>
     <use xlink:href="#DejaVuSans-64" transform="translate(716.134766 0)"/>
    </g>
    <!--  Example -->
    <g transform="translate(210.247147 315.161702) scale(0.03 -0.03)">
     <defs>
      <path id="DejaVuSans-78" d="M 3513 3500 
L 2247 1797 
L 3578 0 
L 2900 0 
L 1881 1375 
L 863 0 
L 184 0 
L 1544 1831 
L 300 3500 
L 978 3500 
L 1906 2253 
L 2834 3500 
L 3513 3500 
z
" transform="scale(0.015625)"/>
     </defs>
     <use xlink:href="#DejaVuSans-20"/>
     <use xlink:href="#DejaVuSans-45" transform="translate(31.787109 0)"/>
     <use xlink:href="#DejaVuSans-78" transform="translate(94.970703 0)"/>
     <use xlink:href="#DejaVuSans-61" transform="translate(154.150391 0)"/>
     <use xlink:href="#DejaVuSans-6d" transform="translate(215.429688 0)"/>
     <use xlink:href="#DejaVuSans-70" transform="translate(312.841797 0)"/>
     <use xlink:href="#DejaVuSans-6c" transform="translate(376.318359 0)"/>
     <use xlink:href="#DejaVuSans-65" transform="translate(404.101562 0)"/>
    </g>
   </g>
   <g id="text_5">
    <!--  12.3.2 : Utility -->
    <g transform="translate(316.980677 308.443014) scale(0.03 -0.03)">
     <defs>
      <path id="DejaVuSans-55" d="M 556 4666 
L 1191 4666 
L 1191 1831 
Q 1191 1081 1462 751 
Q 1734 422 2344 422 
Q 2950 422 3222 751 
Q 3494 1081 3494 1831 
L 3494 4666 
L 4128 4666 
L 4128 1753 
Q 4128 841 3676 375 
Q 3225 -91 2344 -91 
Q 1459 -91 1007 375 
Q 556 841 556 1753 
L 556 4666 
z
" transform="scale(0.015625)"/>
      <path id="DejaVuSans-79" d="M 2059 -325 
Q 1816 -950 1584 -1140 
Q 1353 -1331 966 -1331 
L 506 -1331 
L 506 -850 
L 844 -850 
Q 1081 -850 1212 -737 
Q 1344 -625 1503 -206 
L 1606 56 
L 191 3500 
L 800 3500 
L 1894 763 
L 2988 3500 
L 3597 3500 
L 2059 -325 
z
" transform="scale(0.015625)"/>
     </defs>
     <use xlink:href="#DejaVuSans-20"/>
     <use xlink:href="#DejaVuSans-31" transform="translate(31.787109 0)"/>
     <use xlink:href="#DejaVuSans-32" transform="translate(95.410156 0)"/>
     <use xlink:href="#DejaVuSans-2e" transform="translate(159.033203 0)"/>
     <use xlink:href="#DejaVuSans-33" transform="translate(190.820312 0)"/>
     <use xlink:href="#DejaVuSans-2e" transform="translate(254.443359 0)"/>
     <use xlink:href="#DejaVuSans-32" transform="translate(286.230469 0)"/>
     <use xlink:href="#DejaVuSans-20" transform="translate(349.853516 0)"/>
     <use xlink:href="#DejaVuSans-3a" transform="translate(381.640625 0)"/>
     <use xlink:href="#DejaVuSans-20" transform="translate(415.332031 0)"/>
     <use xlink:href="#DejaVuSans-55" transform="translate(447.119141 0)"/>
     <use xlink:href="#DejaVuSans-74" transform="translate(520.3125 0)"/>
     <use xlink:href="#DejaVuSans-69" transform="translate(559.521484 0)"/>
     <use xlink:href="#DejaVuSans-6c" transform="translate(587.304688 0)"/>
     <use xlink:href="#DejaVuSans-69" transform="translate(615.087891 0)"/>
     <use xlink:href="#DejaVuSans-74" transform="translate(642.871094 0)"/>
     <use xlink:href="#DejaVuSans-79" transform="translate(682.080078 0)"/>
    </g>
    <!--  and State Functions -->
    <g transform="translate(312.715287 311.802358) scale(0.03 -0.03)">
     <defs>
      <path id="DejaVuSans-46" d="M 628 4666 
L 3309 4666 
L 3309 4134 
L 1259 4134 
L 1259 2759 
L 3109 2759 
L 3109 2228 
L 1259 2228 
L 1259 0 
L 628 0 
L 628 4666 
z
" transform="scale(0.015625)"/>
     </defs>
     <use xlink:href="#DejaVuSans-20"/>
     <use xlink:href="#DejaVuSans-61" transform="translate(31.787109 0)"/>
     <use xlink:href="#DejaVuSans-6e" transform="translate(93.066406 0)"/>
     <use xlink:href="#DejaVuSans-64" transform="translate(156.445312 0)"/>
     <use xlink:href="#DejaVuSans-20" transform="translate(219.921875 0)"/>
     <use xlink:href="#DejaVuSans-53" transform="translate(251.708984 0)"/>
     <use xlink:href="#DejaVuSans-74" transform="translate(315.185547 0)"/>
     <use xlink:href="#DejaVuSans-61" transform="translate(354.394531 0)"/>
     <use xlink:href="#DejaVuSans-74" transform="translate(415.673828 0)"/>
     <use xlink:href="#DejaVuSans-65" transform="translate(454.882812 0)"/>
     <use xlink:href="#DejaVuSans-20" transform="translate(516.40625 0)"/>
     <use xlink:href="#DejaVuSans-46" transform="translate(548.193359 0)"/>
     <use xlink:href="#DejaVuSans-75" transform="translate(600.212891 0)"/>
     <use xlink:href="#DejaVuSans-6e" transform="translate(663.591797 0)"/>
     <use xlink:href="#DejaVuSans-63" transform="translate(726.970703 0)"/>
     <use xlink:href="#DejaVuSans-74" transform="translate(781.951172 0)"/>
     <use xlink:href="#DejaVuSans-69" transform="translate(821.160156 0)"/>
     <use xlink:href="#DejaVuSans-6f" transform="translate(848.943359 0)"/>
     <use xlink:href="#DejaVuSans-6e" transform="translate(910.125 0)"/>
     <use xlink:href="#DejaVuSans-73" transform="translate(973.503906 0)"/>
    </g>
    <!--  -->
    <g transform="translate(328.098958 315.161702) scale(0.03 -0.03)"/>
   </g>
   <g id="text_6">
    <!--  12.4 : Numerical -->
    <g transform="translate(518.813784 187.197916) scale(0.05 -0.05)">
     <defs>
      <path id="DejaVuSans-34" d="M 2419 4116 
L 825 1625 
L 2419 1625 
L 2419 4116 
z
M 2253 4666 
L 3047 4666 
L 3047 1625 
L 3713 1625 
L 3713 1100 
L 3047 1100 
L 3047 0 
L 2419 0 
L 2419 1100 
L 313 1100 
L 313 1709 
L 2253 4666 
z
" transform="scale(0.015625)"/>
      <path id="DejaVuSans-4e" d="M 628 4666 
L 1478 4666 
L 3547 763 
L 3547 4666 
L 4159 4666 
L 4159 0 
L 3309 0 
L 1241 3903 
L 1241 0 
L 628 0 
L 628 4666 
z
" transform="scale(0.015625)"/>
     </defs>
     <use xlink:href="#DejaVuSans-20"/>
     <use xlink:href="#DejaVuSans-31" transform="translate(31.787109 0)"/>
     <use xlink:href="#DejaVuSans-32" transform="translate(95.410156 0)"/>
     <use xlink:href="#DejaVuSans-2e" transform="translate(159.033203 0)"/>
     <use xlink:href="#DejaVuSans-34" transform="translate(190.820312 0)"/>
     <use xlink:href="#DejaVuSans-20" transform="translate(254.443359 0)"/>
     <use xlink:href="#DejaVuSans-3a" transform="translate(286.230469 0)"/>
     <use xlink:href="#DejaVuSans-20" transform="translate(319.921875 0)"/>
     <use xlink:href="#DejaVuSans-4e" transform="translate(351.708984 0)"/>
     <use xlink:href="#DejaVuSans-75" transform="translate(426.513672 0)"/>
     <use xlink:href="#DejaVuSans-6d" transform="translate(489.892578 0)"/>
     <use xlink:href="#DejaVuSans-65" transform="translate(587.304688 0)"/>
     <use xlink:href="#DejaVuSans-72" transform="translate(648.828125 0)"/>
     <use xlink:href="#DejaVuSans-69" transform="translate(689.941406 0)"/>
     <use xlink:href="#DejaVuSans-63" transform="translate(717.724609 0)"/>
     <use xlink:href="#DejaVuSans-61" transform="translate(772.705078 0)"/>
     <use xlink:href="#DejaVuSans-6c" transform="translate(833.984375 0)"/>
    </g>
    <!--  Examples -->
    <g transform="translate(527.414175 192.796822) scale(0.05 -0.05)">
     <use xlink:href="#DejaVuSans-20"/>
     <use xlink:href="#DejaVuSans-45" transform="translate(31.787109 0)"/>
     <use xlink:href="#DejaVuSans-78" transform="translate(94.970703 0)"/>
     <use xlink:href="#DejaVuSans-61" transform="translate(154.150391 0)"/>
     <use xlink:href="#DejaVuSans-6d" transform="translate(215.429688 0)"/>
     <use xlink:href="#DejaVuSans-70" transform="translate(312.841797 0)"/>
     <use xlink:href="#DejaVuSans-6c" transform="translate(376.318359 0)"/>
     <use xlink:href="#DejaVuSans-65" transform="translate(404.101562 0)"/>
     <use xlink:href="#DejaVuSans-73" transform="translate(465.625 0)"/>
    </g>
   </g>
   <g id="text_7">
    <!--  12.4.1 : Benchmark -->
    <g transform="translate(423.716083 308.443014) scale(0.03 -0.03)">
     <defs>
      <path id="DejaVuSans-42" d="M 1259 2228 
L 1259 519 
L 2272 519 
Q 2781 519 3026 730 
Q 3272 941 3272 1375 
Q 3272 1813 3026 2020 
Q 2781 2228 2272 2228 
L 1259 2228 
z
M 1259 4147 
L 1259 2741 
L 2194 2741 
Q 2656 2741 2882 2914 
Q 3109 3088 3109 3444 
Q 3109 3797 2882 3972 
Q 2656 4147 2194 4147 
L 1259 4147 
z
M 628 4666 
L 2241 4666 
Q 2963 4666 3353 4366 
Q 3744 4066 3744 3513 
Q 3744 3084 3544 2831 
Q 3344 2578 2956 2516 
Q 3422 2416 3680 2098 
Q 3938 1781 3938 1306 
Q 3938 681 3513 340 
Q 3088 0 2303 0 
L 628 0 
L 628 4666 
z
" transform="scale(0.015625)"/>
     </defs>
     <use xlink:href="#DejaVuSans-20"/>
     <use xlink:href="#DejaVuSans-31" transform="translate(31.787109 0)"/>
     <use xlink:href="#DejaVuSans-32" transform="translate(95.410156 0)"/>
     <use xlink:href="#DejaVuSans-2e" transform="translate(159.033203 0)"/>
     <use xlink:href="#DejaVuSans-34" transform="translate(190.820312 0)"/>
     <use xlink:href="#DejaVuSans-2e" transform="translate(254.443359 0)"/>
     <use xlink:href="#DejaVuSans-31" transform="translate(286.230469 0)"/>
     <use xlink:href="#DejaVuSans-20" transform="translate(349.853516 0)"/>
     <use xlink:href="#DejaVuSans-3a" transform="translate(381.640625 0)"/>
     <use xlink:href="#DejaVuSans-20" transform="translate(415.332031 0)"/>
     <use xlink:href="#DejaVuSans-42" transform="translate(447.119141 0)"/>
     <use xlink:href="#DejaVuSans-65" transform="translate(515.722656 0)"/>
     <use xlink:href="#DejaVuSans-6e" transform="translate(577.246094 0)"/>
     <use xlink:href="#DejaVuSans-63" transform="translate(640.625 0)"/>
     <use xlink:href="#DejaVuSans-68" transform="translate(695.605469 0)"/>
     <use xlink:href="#DejaVuSans-6d" transform="translate(758.984375 0)"/>
     <use xlink:href="#DejaVuSans-61" transform="translate(856.396484 0)"/>
     <use xlink:href="#DejaVuSans-72" transform="translate(917.675781 0)"/>
     <use xlink:href="#DejaVuSans-6b" transform="translate(958.789062 0)"/>
    </g>
    <!--  with TOUGH2 -->
    <g transform="translate(428.391161 311.802358) scale(0.03 -0.03)">
     <defs>
      <path id="DejaVuSans-77" d="M 269 3500 
L 844 3500 
L 1563 769 
L 2278 3500 
L 2956 3500 
L 3675 769 
L 4391 3500 
L 4966 3500 
L 4050 0 
L 3372 0 
L 2619 2869 
L 1863 0 
L 1184 0 
L 269 3500 
z
" transform="scale(0.015625)"/>
      <path id="DejaVuSans-4f" d="M 2522 4238 
Q 1834 4238 1429 3725 
Q 1025 3213 1025 2328 
Q 1025 1447 1429 934 
Q 1834 422 2522 422 
Q 3209 422 3611 934 
Q 4013 1447 4013 2328 
Q 4013 3213 3611 3725 
Q 3209 4238 2522 4238 
z
M 2522 4750 
Q 3503 4750 4090 4092 
Q 4678 3434 4678 2328 
Q 4678 1225 4090 567 
Q 3503 -91 2522 -91 
Q 1538 -91 948 565 
Q 359 1222 359 2328 
Q 359 3434 948 4092 
Q 1538 4750 2522 4750 
z
" transform="scale(0.015625)"/>
      <path id="DejaVuSans-48" d="M 628 4666 
L 1259 4666 
L 1259 2753 
L 3553 2753 
L 3553 4666 
L 4184 4666 
L 4184 0 
L 3553 0 
L 3553 2222 
L 1259 2222 
L 1259 0 
L 628 0 
L 628 4666 
z
" transform="scale(0.015625)"/>
     </defs>
     <use xlink:href="#DejaVuSans-20"/>
     <use xlink:href="#DejaVuSans-77" transform="translate(31.787109 0)"/>
     <use xlink:href="#DejaVuSans-69" transform="translate(113.574219 0)"/>
     <use xlink:href="#DejaVuSans-74" transform="translate(141.357422 0)"/>
     <use xlink:href="#DejaVuSans-68" transform="translate(180.566406 0)"/>
     <use xlink:href="#DejaVuSans-20" transform="translate(243.945312 0)"/>
     <use xlink:href="#DejaVuSans-54" transform="translate(275.732422 0)"/>
     <use xlink:href="#DejaVuSans-4f" transform="translate(336.816406 0)"/>
     <use xlink:href="#DejaVuSans-55" transform="translate(415.527344 0)"/>
     <use xlink:href="#DejaVuSans-47" transform="translate(488.720703 0)"/>
     <use xlink:href="#DejaVuSans-48" transform="translate(566.210938 0)"/>
     <use xlink:href="#DejaVuSans-32" transform="translate(641.40625 0)"/>
    </g>
    <!--  -->
    <g transform="translate(438.966161 315.161702) scale(0.03 -0.03)"/>
   </g>
   <g id="text_8">
    <!--  12.4.2 : Subset -->
    <g transform="translate(537.979379 308.443014) scale(0.03 -0.03)">
     <defs>
      <path id="DejaVuSans-62" d="M 3116 1747 
Q 3116 2381 2855 2742 
Q 2594 3103 2138 3103 
Q 1681 3103 1420 2742 
Q 1159 2381 1159 1747 
Q 1159 1113 1420 752 
Q 1681 391 2138 391 
Q 2594 391 2855 752 
Q 3116 1113 3116 1747 
z
M 1159 2969 
Q 1341 3281 1617 3432 
Q 1894 3584 2278 3584 
Q 2916 3584 3314 3078 
Q 3713 2572 3713 1747 
Q 3713 922 3314 415 
Q 2916 -91 2278 -91 
Q 1894 -91 1617 61 
Q 1341 213 1159 525 
L 1159 0 
L 581 0 
L 581 4863 
L 1159 4863 
L 1159 2969 
z
" transform="scale(0.015625)"/>
     </defs>
     <use xlink:href="#DejaVuSans-20"/>
     <use xlink:href="#DejaVuSans-31" transform="translate(31.787109 0)"/>
     <use xlink:href="#DejaVuSans-32" transform="translate(95.410156 0)"/>
     <use xlink:href="#DejaVuSans-2e" transform="translate(159.033203 0)"/>
     <use xlink:href="#DejaVuSans-34" transform="translate(190.820312 0)"/>
     <use xlink:href="#DejaVuSans-2e" transform="translate(254.443359 0)"/>
     <use xlink:href="#DejaVuSans-32" transform="translate(286.230469 0)"/>
     <use xlink:href="#DejaVuSans-20" transform="translate(349.853516 0)"/>
     <use xlink:href="#DejaVuSans-3a" transform="translate(381.640625 0)"/>
     <use xlink:href="#DejaVuSans-20" transform="translate(415.332031 0)"/>
     <use xlink:href="#DejaVuSans-53" transform="translate(447.119141 0)"/>
     <use xlink:href="#DejaVuSans-75" transform="translate(510.595703 0)"/>
     <use xlink:href="#DejaVuSans-62" transform="translate(573.974609 0)"/>
     <use xlink:href="#DejaVuSans-73" transform="translate(637.451172 0)"/>
     <use xlink:href="#DejaVuSans-65" transform="translate(689.550781 0)"/>
     <use xlink:href="#DejaVuSans-74" transform="translate(751.074219 0)"/>
    </g>
    <!--  of SPE10 Model -->
    <g transform="translate(537.740082 311.802358) scale(0.03 -0.03)">
     <defs>
      <path id="DejaVuSans-50" d="M 1259 4147 
L 1259 2394 
L 2053 2394 
Q 2494 2394 2734 2622 
Q 2975 2850 2975 3272 
Q 2975 3691 2734 3919 
Q 2494 4147 2053 4147 
L 1259 4147 
z
M 628 4666 
L 2053 4666 
Q 2838 4666 3239 4311 
Q 3641 3956 3641 3272 
Q 3641 2581 3239 2228 
Q 2838 1875 2053 1875 
L 1259 1875 
L 1259 0 
L 628 0 
L 628 4666 
z
" transform="scale(0.015625)"/>
      <path id="DejaVuSans-30" d="M 2034 4250 
Q 1547 4250 1301 3770 
Q 1056 3291 1056 2328 
Q 1056 1369 1301 889 
Q 1547 409 2034 409 
Q 2525 409 2770 889 
Q 3016 1369 3016 2328 
Q 3016 3291 2770 3770 
Q 2525 4250 2034 4250 
z
M 2034 4750 
Q 2819 4750 3233 4129 
Q 3647 3509 3647 2328 
Q 3647 1150 3233 529 
Q 2819 -91 2034 -91 
Q 1250 -91 836 529 
Q 422 1150 422 2328 
Q 422 3509 836 4129 
Q 1250 4750 2034 4750 
z
" transform="scale(0.015625)"/>
     </defs>
     <use xlink:href="#DejaVuSans-20"/>
     <use xlink:href="#DejaVuSans-6f" transform="translate(31.787109 0)"/>
     <use xlink:href="#DejaVuSans-66" transform="translate(92.96875 0)"/>
     <use xlink:href="#DejaVuSans-20" transform="translate(128.173828 0)"/>
     <use xlink:href="#DejaVuSans-53" transform="translate(159.960938 0)"/>
     <use xlink:href="#DejaVuSans-50" transform="translate(223.4375 0)"/>
     <use xlink:href="#DejaVuSans-45" transform="translate(283.740234 0)"/>
     <use xlink:href="#DejaVuSans-31" transform="translate(346.923828 0)"/>
     <use xlink:href="#DejaVuSans-30" transform="translate(410.546875 0)"/>
     <use xlink:href="#DejaVuSans-20" transform="translate(474.169922 0)"/>
     <use xlink:href="#DejaVuSans-4d" transform="translate(505.957031 0)"/>
     <use xlink:href="#DejaVuSans-6f" transform="translate(592.236328 0)"/>
     <use xlink:href="#DejaVuSans-64" transform="translate(653.417969 0)"/>
     <use xlink:href="#DejaVuSans-65" transform="translate(716.894531 0)"/>
     <use xlink:href="#DejaVuSans-6c" transform="translate(778.417969 0)"/>
    </g>
    <!--  2 -->
    <g transform="translate(548.40227 315.161702) scale(0.03 -0.03)">
     <use xlink:href="#DejaVuSans-20"/>
     <use xlink:href="#DejaVuSans-32" transform="translate(31.787109 0)"/>
    </g>
   </g>
   <g id="text_9">
    <!--  12.4.3 : Enhanced -->
    <g transform="translate(646.575254 308.443014) scale(0.03 -0.03)">
     <use xlink:href="#DejaVuSans-20"/>
     <use xlink:href="#DejaVuSans-31" transform="translate(31.787109 0)"/>
     <use xlink:href="#DejaVuSans-32" transform="translate(95.410156 0)"/>
     <use xlink:href="#DejaVuSans-2e" transform="translate(159.033203 0)"/>
     <use xlink:href="#DejaVuSans-34" transform="translate(190.820312 0)"/>
     <use xlink:href="#DejaVuSans-2e" transform="translate(254.443359 0)"/>
     <use xlink:href="#DejaVuSans-33" transform="translate(286.230469 0)"/>
     <use xlink:href="#DejaVuSans-20" transform="translate(349.853516 0)"/>
     <use xlink:href="#DejaVuSans-3a" transform="translate(381.640625 0)"/>
     <use xlink:href="#DejaVuSans-20" transform="translate(415.332031 0)"/>
     <use xlink:href="#DejaVuSans-45" transform="translate(447.119141 0)"/>
     <use xlink:href="#DejaVuSans-6e" transform="translate(510.302734 0)"/>
     <use xlink:href="#DejaVuSans-68" transform="translate(573.681641 0)"/>
     <use xlink:href="#DejaVuSans-61" transform="translate(637.060547 0)"/>
     <use xlink:href="#DejaVuSans-6e" transform="translate(698.339844 0)"/>
     <use xlink:href="#DejaVuSans-63" transform="translate(761.71875 0)"/>
     <use xlink:href="#DejaVuSans-65" transform="translate(816.699219 0)"/>
     <use xlink:href="#DejaVuSans-64" transform="translate(878.222656 0)"/>
    </g>
    <!--  Geothermal -->
    <g transform="translate(651.371738 311.802358) scale(0.03 -0.03)">
     <use xlink:href="#DejaVuSans-20"/>
     <use xlink:href="#DejaVuSans-47" transform="translate(31.787109 0)"/>
     <use xlink:href="#DejaVuSans-65" transform="translate(109.277344 0)"/>
     <use xlink:href="#DejaVuSans-6f" transform="translate(170.800781 0)"/>
     <use xlink:href="#DejaVuSans-74" transform="translate(231.982422 0)"/>
     <use xlink:href="#DejaVuSans-68" transform="translate(271.191406 0)"/>
     <use xlink:href="#DejaVuSans-65" transform="translate(334.570312 0)"/>
     <use xlink:href="#DejaVuSans-72" transform="translate(396.09375 0)"/>
     <use xlink:href="#DejaVuSans-6d" transform="translate(435.457031 0)"/>
     <use xlink:href="#DejaVuSans-61" transform="translate(532.869141 0)"/>
     <use xlink:href="#DejaVuSans-6c" transform="translate(594.148438 0)"/>
    </g>
    <!--  System -->
    <g transform="translate(654.630254 315.161702) scale(0.03 -0.03)">
     <use xlink:href="#DejaVuSans-20"/>
     <use xlink:href="#DejaVuSans-53" transform="translate(31.787109 0)"/>
     <use xlink:href="#DejaVuSans-79" transform="translate(95.263672 0)"/>
     <use xlink:href="#DejaVuSans-73" transform="translate(154.443359 0)"/>
     <use xlink:href="#DejaVuSans-74" transform="translate(206.542969 0)"/>
     <use xlink:href="#DejaVuSans-65" transform="translate(245.751953 0)"/>
     <use xlink:href="#DejaVuSans-6d" transform="translate(307.275391 0)"/>
    </g>
   </g>
   <g id="text_10">
    <!--  12.4.4 : Thermal -->
    <g transform="translate(758.684175 308.443014) scale(0.03 -0.03)">
     <use xlink:href="#DejaVuSans-20"/>
     <use xlink:href="#DejaVuSans-31" transform="translate(31.787109 0)"/>
     <use xlink:href="#DejaVuSans-32" transform="translate(95.410156 0)"/>
     <use xlink:href="#DejaVuSans-2e" transform="translate(159.033203 0)"/>
     <use xlink:href="#DejaVuSans-34" transform="translate(190.820312 0)"/>
     <use xlink:href="#DejaVuSans-2e" transform="translate(254.443359 0)"/>
     <use xlink:href="#DejaVuSans-34" transform="translate(286.230469 0)"/>
     <use xlink:href="#DejaVuSans-20" transform="translate(349.853516 0)"/>
     <use xlink:href="#DejaVuSans-3a" transform="translate(381.640625 0)"/>
     <use xlink:href="#DejaVuSans-20" transform="translate(415.332031 0)"/>
     <use xlink:href="#DejaVuSans-54" transform="translate(447.119141 0)"/>
     <use xlink:href="#DejaVuSans-68" transform="translate(508.203125 0)"/>
     <use xlink:href="#DejaVuSans-65" transform="translate(571.582031 0)"/>
     <use xlink:href="#DejaVuSans-72" transform="translate(633.105469 0)"/>
     <use xlink:href="#DejaVuSans-6d" transform="translate(672.46875 0)"/>
     <use xlink:href="#DejaVuSans-61" transform="translate(769.880859 0)"/>
     <use xlink:href="#DejaVuSans-6c" transform="translate(831.160156 0)"/>
    </g>
    <!--  Aquifer Energy -->
    <g transform="translate(759.975347 311.802358) scale(0.03 -0.03)">
     <use xlink:href="#DejaVuSans-20"/>
     <use xlink:href="#DejaVuSans-41" transform="translate(31.787109 0)"/>
     <use xlink:href="#DejaVuSans-71" transform="translate(98.445312 0)"/>
     <use xlink:href="#DejaVuSans-75" transform="translate(161.921875 0)"/>
     <use xlink:href="#DejaVuSans-69" transform="translate(225.300781 0)"/>
     <use xlink:href="#DejaVuSans-66" transform="translate(253.083984 0)"/>
     <use xlink:href="#DejaVuSans-65" transform="translate(288.289062 0)"/>
     <use xlink:href="#DejaVuSans-72" transform="translate(349.8125 0)"/>
     <use xlink:href="#DejaVuSans-20" transform="translate(390.925781 0)"/>
     <use xlink:href="#DejaVuSans-45" transform="translate(422.712891 0)"/>
     <use xlink:href="#DejaVuSans-6e" transform="translate(485.896484 0)"/>
     <use xlink:href="#DejaVuSans-65" transform="translate(549.275391 0)"/>
     <use xlink:href="#DejaVuSans-72" transform="translate(610.798828 0)"/>
     <use xlink:href="#DejaVuSans-67" transform="translate(650.162109 0)"/>
     <use xlink:href="#DejaVuSans-79" transform="translate(713.638672 0)"/>
    </g>
    <!--  Storage -->
    <g transform="translate(765.221831 315.161702) scale(0.03 -0.03)">
     <use xlink:href="#DejaVuSans-20"/>
     <use xlink:href="#DejaVuSans-53" transform="translate(31.787109 0)"/>
     <use xlink:href="#DejaVuSans-74" transform="translate(95.263672 0)"/>
     <use xlink:href="#DejaVuSans-6f" transform="translate(134.472656 0)"/>
     <use xlink:href="#DejaVuSans-72" transform="translate(195.654297 0)"/>
     <use xlink:href="#DejaVuSans-61" transform="translate(236.767578 0)"/>
     <use xlink:href="#DejaVuSans-67" transform="translate(298.046875 0)"/>
     <use xlink:href="#DejaVuSans-65" transform="translate(361.523438 0)"/>
    </g>
   </g>
   <g id="text_11">
    <!--  12.5 : Concluding -->
    <g transform="translate(673.893593 187.765822) scale(0.03 -0.03)">
     <defs>
      <path id="DejaVuSans-35" d="M 691 4666 
L 3169 4666 
L 3169 4134 
L 1269 4134 
L 1269 2991 
Q 1406 3038 1543 3061 
Q 1681 3084 1819 3084 
Q 2600 3084 3056 2656 
Q 3513 2228 3513 1497 
Q 3513 744 3044 326 
Q 2575 -91 1722 -91 
Q 1428 -91 1123 -41 
Q 819 9 494 109 
L 494 744 
Q 775 591 1075 516 
Q 1375 441 1709 441 
Q 2250 441 2565 725 
Q 2881 1009 2881 1497 
Q 2881 1984 2565 2268 
Q 2250 2553 1709 2553 
Q 1456 2553 1204 2497 
Q 953 2441 691 2322 
L 691 4666 
z
" transform="scale(0.015625)"/>
      <path id="DejaVuSans-43" d="M 4122 4306 
L 4122 3641 
Q 3803 3938 3442 4084 
Q 3081 4231 2675 4231 
Q 1875 4231 1450 3742 
Q 1025 3253 1025 2328 
Q 1025 1406 1450 917 
Q 1875 428 2675 428 
Q 3081 428 3442 575 
Q 3803 722 4122 1019 
L 4122 359 
Q 3791 134 3420 21 
Q 3050 -91 2638 -91 
Q 1578 -91 968 557 
Q 359 1206 359 2328 
Q 359 3453 968 4101 
Q 1578 4750 2638 4750 
Q 3056 4750 3426 4639 
Q 3797 4528 4122 4306 
z
" transform="scale(0.015625)"/>
     </defs>
     <use xlink:href="#DejaVuSans-20"/>
     <use xlink:href="#DejaVuSans-31" transform="translate(31.787109 0)"/>
     <use xlink:href="#DejaVuSans-32" transform="translate(95.410156 0)"/>
     <use xlink:href="#DejaVuSans-2e" transform="translate(159.033203 0)"/>
     <use xlink:href="#DejaVuSans-35" transform="translate(190.820312 0)"/>
     <use xlink:href="#DejaVuSans-20" transform="translate(254.443359 0)"/>
     <use xlink:href="#DejaVuSans-3a" transform="translate(286.230469 0)"/>
     <use xlink:href="#DejaVuSans-20" transform="translate(319.921875 0)"/>
     <use xlink:href="#DejaVuSans-43" transform="translate(351.708984 0)"/>
     <use xlink:href="#DejaVuSans-6f" transform="translate(421.533203 0)"/>
     <use xlink:href="#DejaVuSans-6e" transform="translate(482.714844 0)"/>
     <use xlink:href="#DejaVuSans-63" transform="translate(546.09375 0)"/>
     <use xlink:href="#DejaVuSans-6c" transform="translate(601.074219 0)"/>
     <use xlink:href="#DejaVuSans-75" transform="translate(628.857422 0)"/>
     <use xlink:href="#DejaVuSans-64" transform="translate(692.236328 0)"/>
     <use xlink:href="#DejaVuSans-69" transform="translate(755.712891 0)"/>
     <use xlink:href="#DejaVuSans-6e" transform="translate(783.496094 0)"/>
     <use xlink:href="#DejaVuSans-67" transform="translate(846.875 0)"/>
    </g>
    <!--  Remarks -->
    <g transform="translate(680.527343 191.125166) scale(0.03 -0.03)">
     <defs>
      <path id="DejaVuSans-52" d="M 2841 2188 
Q 3044 2119 3236 1894 
Q 3428 1669 3622 1275 
L 4263 0 
L 3584 0 
L 2988 1197 
Q 2756 1666 2539 1819 
Q 2322 1972 1947 1972 
L 1259 1972 
L 1259 0 
L 628 0 
L 628 4666 
L 2053 4666 
Q 2853 4666 3247 4331 
Q 3641 3997 3641 3322 
Q 3641 2881 3436 2590 
Q 3231 2300 2841 2188 
z
M 1259 4147 
L 1259 2491 
L 2053 2491 
Q 2509 2491 2742 2702 
Q 2975 2913 2975 3322 
Q 2975 3731 2742 3939 
Q 2509 4147 2053 4147 
L 1259 4147 
z
" transform="scale(0.015625)"/>
     </defs>
     <use xlink:href="#DejaVuSans-20"/>
     <use xlink:href="#DejaVuSans-52" transform="translate(31.787109 0)"/>
     <use xlink:href="#DejaVuSans-65" transform="translate(96.769531 0)"/>
     <use xlink:href="#DejaVuSans-6d" transform="translate(158.292969 0)"/>
     <use xlink:href="#DejaVuSans-61" transform="translate(255.705078 0)"/>
     <use xlink:href="#DejaVuSans-72" transform="translate(316.984375 0)"/>
     <use xlink:href="#DejaVuSans-6b" transform="translate(358.097656 0)"/>
     <use xlink:href="#DejaVuSans-73" transform="translate(416.007812 0)"/>
    </g>
   </g>
   <g id="text_12">
    <!--  12: Simulation -->
    <g transform="translate(300.032836 29.380025) scale(0.1 -0.1)">
     <use xlink:href="#DejaVuSans-20"/>
     <use xlink:href="#DejaVuSans-31" transform="translate(31.787109 0)"/>
     <use xlink:href="#DejaVuSans-32" transform="translate(95.410156 0)"/>
     <use xlink:href="#DejaVuSans-3a" transform="translate(159.033203 0)"/>
     <use xlink:href="#DejaVuSans-20" transform="translate(192.724609 0)"/>
     <use xlink:href="#DejaVuSans-53" transform="translate(224.511719 0)"/>
     <use xlink:href="#DejaVuSans-69" transform="translate(287.988281 0)"/>
     <use xlink:href="#DejaVuSans-6d" transform="translate(315.771484 0)"/>
     <use xlink:href="#DejaVuSans-75" transform="translate(413.183594 0)"/>
     <use xlink:href="#DejaVuSans-6c" transform="translate(476.5625 0)"/>
     <use xlink:href="#DejaVuSans-61" transform="translate(504.345703 0)"/>
     <use xlink:href="#DejaVuSans-74" transform="translate(565.625 0)"/>
     <use xlink:href="#DejaVuSans-69" transform="translate(604.833984 0)"/>
     <use xlink:href="#DejaVuSans-6f" transform="translate(632.617188 0)"/>
     <use xlink:href="#DejaVuSans-6e" transform="translate(693.798828 0)"/>
    </g>
    <!--  of Geothermal -->
    <g transform="translate(300.385961 40.577838) scale(0.1 -0.1)">
     <use xlink:href="#DejaVuSans-20"/>
     <use xlink:href="#DejaVuSans-6f" transform="translate(31.787109 0)"/>
     <use xlink:href="#DejaVuSans-66" transform="translate(92.96875 0)"/>
     <use xlink:href="#DejaVuSans-20" transform="translate(128.173828 0)"/>
     <use xlink:href="#DejaVuSans-47" transform="translate(159.960938 0)"/>
     <use xlink:href="#DejaVuSans-65" transform="translate(237.451172 0)"/>
     <use xlink:href="#DejaVuSans-6f" transform="translate(298.974609 0)"/>
     <use xlink:href="#DejaVuSans-74" transform="translate(360.15625 0)"/>
     <use xlink:href="#DejaVuSans-68" transform="translate(399.365234 0)"/>
     <use xlink:href="#DejaVuSans-65" transform="translate(462.744141 0)"/>
     <use xlink:href="#DejaVuSans-72" transform="translate(524.267578 0)"/>
     <use xlink:href="#DejaVuSans-6d" transform="translate(563.630859 0)"/>
     <use xlink:href="#DejaVuSans-61" transform="translate(661.042969 0)"/>
     <use xlink:href="#DejaVuSans-6c" transform="translate(722.322266 0)"/>
    </g>
    <!--  Systems Using -->
    <g transform="translate(299.46643 51.77565) scale(0.1 -0.1)">
     <use xlink:href="#DejaVuSans-20"/>
     <use xlink:href="#DejaVuSans-53" transform="translate(31.787109 0)"/>
     <use xlink:href="#DejaVuSans-79" transform="translate(95.263672 0)"/>
     <use xlink:href="#DejaVuSans-73" transform="translate(154.443359 0)"/>
     <use xlink:href="#DejaVuSans-74" transform="translate(206.542969 0)"/>
     <use xlink:href="#DejaVuSans-65" transform="translate(245.751953 0)"/>
     <use xlink:href="#DejaVuSans-6d" transform="translate(307.275391 0)"/>
     <use xlink:href="#DejaVuSans-73" transform="translate(404.6875 0)"/>
     <use xlink:href="#DejaVuSans-20" transform="translate(456.787109 0)"/>
     <use xlink:href="#DejaVuSans-55" transform="translate(488.574219 0)"/>
     <use xlink:href="#DejaVuSans-73" transform="translate(561.767578 0)"/>
     <use xlink:href="#DejaVuSans-69" transform="translate(613.867188 0)"/>
     <use xlink:href="#DejaVuSans-6e" transform="translate(641.650391 0)"/>
     <use xlink:href="#DejaVuSans-67" transform="translate(705.029297 0)"/>
    </g>
    <!--  MRST -->
    <g transform="translate(322.28518 62.973463) scale(0.1 -0.1)">
     <use xlink:href="#DejaVuSans-20"/>
     <use xlink:href="#DejaVuSans-4d" transform="translate(31.787109 0)"/>
     <use xlink:href="#DejaVuSans-52" transform="translate(118.066406 0)"/>
     <use xlink:href="#DejaVuSans-53" transform="translate(187.548828 0)"/>
     <use xlink:href="#DejaVuSans-54" transform="translate(251.025391 0)"/>
    </g>
   </g>
  </g>
 </g>
 <defs>
  <clipPath id="p6978f5eb4f">
   <rect x="7.2" y="7.2" width="837" height="332.64"/>
  </clipPath>
 </defs>
</svg>
