<?xml version="1.0" encoding="utf-8" standalone="no"?>
<!DOCTYPE svg PUBLIC "-//W3C//DTD SVG 1.1//EN"
  "http://www.w3.org/Graphics/SVG/1.1/DTD/svg11.dtd">
<svg xmlns:xlink="http://www.w3.org/1999/xlink" width="878.4pt" height="374.4pt" viewBox="0 0 878.4 374.4" xmlns="http://www.w3.org/2000/svg" version="1.1">
 <metadata>
  <rdf:RDF xmlns:dc="http://purl.org/dc/elements/1.1/" xmlns:cc="http://creativecommons.org/ns#" xmlns:rdf="http://www.w3.org/1999/02/22-rdf-syntax-ns#">
   <cc:Work>
    <dc:type rdf:resource="http://purl.org/dc/dcmitype/StillImage"/>
    <dc:date>2025-07-09T11:13:50.276110</dc:date>
    <dc:format>image/svg+xml</dc:format>
    <dc:creator>
     <cc:Agent>
      <dc:title>Matplotlib v3.10.3, https://matplotlib.org/</dc:title>
     </cc:Agent>
    </dc:creator>
   </cc:Work>
  </rdf:RDF>
 </metadata>
 <defs>
  <style type="text/css">*{stroke-linejoin: round; stroke-linecap: butt}</style>
 </defs>
 <g id="figure_1">
  <g id="patch_1">
   <path d="M 0 374.4 
L 878.4 374.4 
L 878.4 -0 
L 0 -0 
z
" style="fill: #ffffff"/>
  </g>
  <g id="axes_1">
   <g id="patch_2">
    <path d="M 232.291123 224.604048 
Q 165.008563 274.514384 98.623951 323.75862 
" clip-path="url(#p8afddae48a)" style="fill: none; stroke: #000000; stroke-linecap: round"/>
    <path d="M 103.028104 322.981807 
L 98.623951 323.75862 
L 100.644993 319.76921 
z
" clip-path="url(#p8afddae48a)" style="stroke: #000000; stroke-linecap: round"/>
   </g>
   <g id="patch_3">
    <path d="M 240.925832 232.858124 
Q 211.589844 276.381112 182.87875 318.977004 
" clip-path="url(#p8afddae48a)" style="fill: none; stroke: #000000; stroke-linecap: round"/>
    <path d="M 186.77288 316.77797 
L 182.87875 318.977004 
L 183.456001 314.54228 
z
" clip-path="url(#p8afddae48a)" style="stroke: #000000; stroke-linecap: round"/>
   </g>
   <g id="patch_4">
    <path d="M 260.687603 238.895623 
Q 260.687603 277.746092 260.687603 315.478527 
" clip-path="url(#p8afddae48a)" style="fill: none; stroke: #000000; stroke-linecap: round"/>
    <path d="M 262.687603 311.478527 
L 260.687603 315.478527 
L 258.687603 311.478527 
z
" clip-path="url(#p8afddae48a)" style="stroke: #000000; stroke-linecap: round"/>
   </g>
   <g id="patch_5">
    <path d="M 419.438229 232.858124 
Q 390.102241 276.381112 361.391147 318.977004 
" clip-path="url(#p8afddae48a)" style="fill: none; stroke: #000000; stroke-linecap: round"/>
    <path d="M 365.285277 316.77797 
L 361.391147 318.977004 
L 361.968398 314.54228 
z
" clip-path="url(#p8afddae48a)" style="stroke: #000000; stroke-linecap: round"/>
   </g>
   <g id="patch_6">
    <path d="M 439.2 238.895623 
Q 439.2 277.746092 439.2 315.478527 
" clip-path="url(#p8afddae48a)" style="fill: none; stroke: #000000; stroke-linecap: round"/>
    <path d="M 441.2 311.478527 
L 439.2 315.478527 
L 437.2 311.478527 
z
" clip-path="url(#p8afddae48a)" style="stroke: #000000; stroke-linecap: round"/>
   </g>
   <g id="patch_7">
    <path d="M 458.961771 232.858124 
Q 488.297759 276.381112 517.008853 318.977004 
" clip-path="url(#p8afddae48a)" style="fill: none; stroke: #000000; stroke-linecap: round"/>
    <path d="M 516.431602 314.54228 
L 517.008853 318.977004 
L 513.114723 316.77797 
z
" clip-path="url(#p8afddae48a)" style="stroke: #000000; stroke-linecap: round"/>
   </g>
   <g id="patch_8">
    <path d="M 617.712397 238.895623 
Q 617.712397 277.746092 617.712397 315.478527 
" clip-path="url(#p8afddae48a)" style="fill: none; stroke: #000000; stroke-linecap: round"/>
    <path d="M 619.712397 311.478527 
L 617.712397 315.478527 
L 615.712397 311.478527 
z
" clip-path="url(#p8afddae48a)" style="stroke: #000000; stroke-linecap: round"/>
   </g>
   <g id="patch_9">
    <path d="M 637.474168 232.858124 
Q 666.810156 276.381112 695.52125 318.977004 
" clip-path="url(#p8afddae48a)" style="fill: none; stroke: #000000; stroke-linecap: round"/>
    <path d="M 694.943999 314.54228 
L 695.52125 318.977004 
L 691.62712 316.77797 
z
" clip-path="url(#p8afddae48a)" style="stroke: #000000; stroke-linecap: round"/>
   </g>
   <g id="patch_10">
    <path d="M 646.108877 224.604048 
Q 713.391437 274.514384 779.776049 323.75862 
" clip-path="url(#p8afddae48a)" style="fill: none; stroke: #000000; stroke-linecap: round"/>
    <path d="M 777.755007 319.76921 
L 779.776049 323.75862 
L 775.371896 322.981807 
z
" clip-path="url(#p8afddae48a)" style="stroke: #000000; stroke-linecap: round"/>
   </g>
   <g id="patch_11">
    <path d="M 363.508056 80.514476 
Q 261.309256 137.323623 160.087663 193.589571 
" clip-path="url(#p8afddae48a)" style="fill: none; stroke: #000000; stroke-linecap: round"/>
    <path d="M 164.555531 193.394243 
L 160.087663 193.589571 
L 162.612122 189.89808 
z
" clip-path="url(#p8afddae48a)" style="stroke: #000000; stroke-linecap: round"/>
   </g>
   <g id="patch_12">
    <path d="M 375.621847 97.240859 
Q 331.134283 138.385835 287.467523 178.77168 
" clip-path="url(#p8afddae48a)" style="fill: none; stroke: #000000; stroke-linecap: round"/>
    <path d="M 291.762096 177.524024 
L 287.467523 178.77168 
L 289.046142 174.587428 
z
" clip-path="url(#p8afddae48a)" style="stroke: #000000; stroke-linecap: round"/>
   </g>
   <g id="patch_13">
    <path d="M 439.2 125.043006 
Q 439.2 146.614685 439.2 167.06833 
" clip-path="url(#p8afddae48a)" style="fill: none; stroke: #000000; stroke-linecap: round"/>
    <path d="M 441.2 163.06833 
L 439.2 167.06833 
L 437.2 163.06833 
z
" clip-path="url(#p8afddae48a)" style="stroke: #000000; stroke-linecap: round"/>
   </g>
   <g id="patch_14">
    <path d="M 502.778153 97.240859 
Q 547.265717 138.385835 590.932477 178.77168 
" clip-path="url(#p8afddae48a)" style="fill: none; stroke: #000000; stroke-linecap: round"/>
    <path d="M 589.353858 174.587428 
L 590.932477 178.77168 
L 586.637904 177.524024 
z
" clip-path="url(#p8afddae48a)" style="stroke: #000000; stroke-linecap: round"/>
   </g>
   <g id="patch_15">
    <path d="M 514.891944 80.514476 
Q 617.090744 137.323623 718.312337 193.589571 
" clip-path="url(#p8afddae48a)" style="fill: none; stroke: #000000; stroke-linecap: round"/>
    <path d="M 715.787878 189.89808 
L 718.312337 193.589571 
L 713.844469 193.394243 
z
" clip-path="url(#p8afddae48a)" style="stroke: #000000; stroke-linecap: round"/>
   </g>
   <g id="PathCollection_1">
    <path d="M 142.187921 222.904399 
C 147.323557 222.904399 152.249542 220.863989 155.880985 217.232546 
C 159.512428 213.601103 161.552838 208.675118 161.552838 203.539482 
C 161.552838 198.403846 159.512428 193.477861 155.880985 189.846418 
C 152.249542 186.214975 147.323557 184.174566 142.187921 184.174566 
C 137.052285 184.174566 132.1263 186.214975 128.494857 189.846418 
C 124.863414 193.477861 122.823004 198.403846 122.823004 203.539482 
C 122.823004 208.675118 124.863414 213.601103 128.494857 217.232546 
C 132.1263 220.863989 137.052285 222.904399 142.187921 222.904399 
z
" clip-path="url(#p8afddae48a)" style="fill: #add8e6; stroke: #add8e6"/>
    <path d="M 260.687603 238.894821 
C 270.063949 238.894821 279.057526 235.16956 285.687603 228.539482 
C 292.317681 221.909405 296.042942 212.915828 296.042942 203.539482 
C 296.042942 194.163137 292.317681 185.16956 285.687603 178.539482 
C 279.057526 171.909405 270.063949 168.184143 260.687603 168.184143 
C 251.311258 168.184143 242.317681 171.909405 235.687603 178.539482 
C 229.057526 185.16956 225.332264 194.163137 225.332264 203.539482 
C 225.332264 212.915828 229.057526 221.909405 235.687603 228.539482 
C 242.317681 235.16956 251.311258 238.894821 260.687603 238.894821 
z
" clip-path="url(#p8afddae48a)" style="fill: #add8e6; stroke: #add8e6"/>
    <path d="M 82.175207 355.325247 
C 87.310843 355.325247 92.236828 353.284838 95.868271 349.653395 
C 99.499714 346.021952 101.540123 341.095967 101.540123 335.960331 
C 101.540123 330.824695 99.499714 325.89871 95.868271 322.267267 
C 92.236828 318.635824 87.310843 316.595414 82.175207 316.595414 
C 77.039571 316.595414 72.113586 318.635824 68.482143 322.267267 
C 64.8507 325.89871 62.81029 330.824695 62.81029 335.960331 
C 62.81029 341.095967 64.8507 346.021952 68.482143 349.653395 
C 72.113586 353.284838 77.039571 355.325247 82.175207 355.325247 
z
" clip-path="url(#p8afddae48a)" style="fill: #add8e6; stroke: #add8e6"/>
    <path d="M 171.431405 355.325247 
C 176.567041 355.325247 181.493026 353.284838 185.124469 349.653395 
C 188.755912 346.021952 190.796322 341.095967 190.796322 335.960331 
C 190.796322 330.824695 188.755912 325.89871 185.124469 322.267267 
C 181.493026 318.635824 176.567041 316.595414 171.431405 316.595414 
C 166.295769 316.595414 161.369784 318.635824 157.738341 322.267267 
C 154.106898 325.89871 152.066488 330.824695 152.066488 335.960331 
C 152.066488 341.095967 154.106898 346.021952 157.738341 349.653395 
C 161.369784 353.284838 166.295769 355.325247 171.431405 355.325247 
z
" clip-path="url(#p8afddae48a)" style="fill: #add8e6; stroke: #add8e6"/>
    <path d="M 260.687603 355.325247 
C 265.823239 355.325247 270.749224 353.284838 274.380667 349.653395 
C 278.01211 346.021952 280.05252 341.095967 280.05252 335.960331 
C 280.05252 330.824695 278.01211 325.89871 274.380667 322.267267 
C 270.749224 318.635824 265.823239 316.595414 260.687603 316.595414 
C 255.551967 316.595414 250.625982 318.635824 246.994539 322.267267 
C 243.363096 325.89871 241.322687 330.824695 241.322687 335.960331 
C 241.322687 341.095967 243.363096 346.021952 246.994539 349.653395 
C 250.625982 353.284838 255.551967 355.325247 260.687603 355.325247 
z
" clip-path="url(#p8afddae48a)" style="fill: #008000; stroke: #008000"/>
    <path d="M 439.2 238.894821 
C 448.576346 238.894821 457.569922 235.16956 464.2 228.539482 
C 470.830078 221.909405 474.555339 212.915828 474.555339 203.539482 
C 474.555339 194.163137 470.830078 185.16956 464.2 178.539482 
C 457.569922 171.909405 448.576346 168.184143 439.2 168.184143 
C 429.823654 168.184143 420.830078 171.909405 414.2 178.539482 
C 407.569922 185.16956 403.844661 194.163137 403.844661 203.539482 
C 403.844661 212.915828 407.569922 221.909405 414.2 228.539482 
C 420.830078 235.16956 429.823654 238.894821 439.2 238.894821 
z
" clip-path="url(#p8afddae48a)" style="fill: #add8e6; stroke: #add8e6"/>
    <path d="M 349.943802 355.325247 
C 355.079438 355.325247 360.005423 353.284838 363.636866 349.653395 
C 367.268309 346.021952 369.308718 341.095967 369.308718 335.960331 
C 369.308718 330.824695 367.268309 325.89871 363.636866 322.267267 
C 360.005423 318.635824 355.079438 316.595414 349.943802 316.595414 
C 344.808166 316.595414 339.882181 318.635824 336.250738 322.267267 
C 332.619295 325.89871 330.578885 330.824695 330.578885 335.960331 
C 330.578885 341.095967 332.619295 346.021952 336.250738 349.653395 
C 339.882181 353.284838 344.808166 355.325247 349.943802 355.325247 
z
" clip-path="url(#p8afddae48a)" style="fill: #add8e6; stroke: #add8e6"/>
    <path d="M 439.2 355.325247 
C 444.335636 355.325247 449.261621 353.284838 452.893064 349.653395 
C 456.524507 346.021952 458.564917 341.095967 458.564917 335.960331 
C 458.564917 330.824695 456.524507 325.89871 452.893064 322.267267 
C 449.261621 318.635824 444.335636 316.595414 439.2 316.595414 
C 434.064364 316.595414 429.138379 318.635824 425.506936 322.267267 
C 421.875493 325.89871 419.835083 330.824695 419.835083 335.960331 
C 419.835083 341.095967 421.875493 346.021952 425.506936 349.653395 
C 429.138379 353.284838 434.064364 355.325247 439.2 355.325247 
z
" clip-path="url(#p8afddae48a)" style="fill: #add8e6; stroke: #add8e6"/>
    <path d="M 528.456198 355.325247 
C 533.591834 355.325247 538.517819 353.284838 542.149262 349.653395 
C 545.780705 346.021952 547.821115 341.095967 547.821115 335.960331 
C 547.821115 330.824695 545.780705 325.89871 542.149262 322.267267 
C 538.517819 318.635824 533.591834 316.595414 528.456198 316.595414 
C 523.320562 316.595414 518.394577 318.635824 514.763134 322.267267 
C 511.131691 325.89871 509.091282 330.824695 509.091282 335.960331 
C 509.091282 341.095967 511.131691 346.021952 514.763134 349.653395 
C 518.394577 353.284838 523.320562 355.325247 528.456198 355.325247 
z
" clip-path="url(#p8afddae48a)" style="fill: #add8e6; stroke: #add8e6"/>
    <path d="M 617.712397 238.894821 
C 627.088742 238.894821 636.082319 235.16956 642.712397 228.539482 
C 649.342474 221.909405 653.067736 212.915828 653.067736 203.539482 
C 653.067736 194.163137 649.342474 185.16956 642.712397 178.539482 
C 636.082319 171.909405 627.088742 168.184143 617.712397 168.184143 
C 608.336051 168.184143 599.342474 171.909405 592.712397 178.539482 
C 586.082319 185.16956 582.357058 194.163137 582.357058 203.539482 
C 582.357058 212.915828 586.082319 221.909405 592.712397 228.539482 
C 599.342474 235.16956 608.336051 238.894821 617.712397 238.894821 
z
" clip-path="url(#p8afddae48a)" style="fill: #add8e6; stroke: #add8e6"/>
    <path d="M 617.712397 355.325247 
C 622.848033 355.325247 627.774018 353.284838 631.405461 349.653395 
C 635.036904 346.021952 637.077313 341.095967 637.077313 335.960331 
C 637.077313 330.824695 635.036904 325.89871 631.405461 322.267267 
C 627.774018 318.635824 622.848033 316.595414 617.712397 316.595414 
C 612.576761 316.595414 607.650776 318.635824 604.019333 322.267267 
C 600.38789 325.89871 598.34748 330.824695 598.34748 335.960331 
C 598.34748 341.095967 600.38789 346.021952 604.019333 349.653395 
C 607.650776 353.284838 612.576761 355.325247 617.712397 355.325247 
z
" clip-path="url(#p8afddae48a)" style="fill: #add8e6; stroke: #add8e6"/>
    <path d="M 706.968595 355.325247 
C 712.104231 355.325247 717.030216 353.284838 720.661659 349.653395 
C 724.293102 346.021952 726.333512 341.095967 726.333512 335.960331 
C 726.333512 330.824695 724.293102 325.89871 720.661659 322.267267 
C 717.030216 318.635824 712.104231 316.595414 706.968595 316.595414 
C 701.832959 316.595414 696.906974 318.635824 693.275531 322.267267 
C 689.644088 325.89871 687.603678 330.824695 687.603678 335.960331 
C 687.603678 341.095967 689.644088 346.021952 693.275531 349.653395 
C 696.906974 353.284838 701.832959 355.325247 706.968595 355.325247 
z
" clip-path="url(#p8afddae48a)" style="fill: #add8e6; stroke: #add8e6"/>
    <path d="M 796.224793 355.325247 
C 801.360429 355.325247 806.286414 353.284838 809.917857 349.653395 
C 813.5493 346.021952 815.58971 341.095967 815.58971 335.960331 
C 815.58971 330.824695 813.5493 325.89871 809.917857 322.267267 
C 806.286414 318.635824 801.360429 316.595414 796.224793 316.595414 
C 791.089157 316.595414 786.163172 318.635824 782.531729 322.267267 
C 778.900286 325.89871 776.859877 330.824695 776.859877 335.960331 
C 776.859877 341.095967 778.900286 346.021952 782.531729 349.653395 
C 786.163172 353.284838 791.089157 355.325247 796.224793 355.325247 
z
" clip-path="url(#p8afddae48a)" style="fill: #add8e6; stroke: #add8e6"/>
    <path d="M 736.212079 222.904399 
C 741.347715 222.904399 746.2737 220.863989 749.905143 217.232546 
C 753.536586 213.601103 755.576996 208.675118 755.576996 203.539482 
C 755.576996 198.403846 753.536586 193.477861 749.905143 189.846418 
C 746.2737 186.214975 741.347715 184.174566 736.212079 184.174566 
C 731.076443 184.174566 726.150458 186.214975 722.519015 189.846418 
C 718.887572 193.477861 716.847162 198.403846 716.847162 203.539482 
C 716.847162 208.675118 718.887572 213.601103 722.519015 217.232546 
C 726.150458 220.863989 731.076443 222.904399 736.212079 222.904399 
z
" clip-path="url(#p8afddae48a)" style="fill: #add8e6; stroke: #add8e6"/>
    <path d="M 439.2 125.04221 
C 462.167262 125.04221 484.196937 115.91722 500.437244 99.676913 
C 516.67755 83.436606 525.80254 61.406932 525.80254 38.439669 
C 525.80254 15.472407 516.67755 -6.557267 500.437244 -22.797574 
C 484.196937 -39.037881 462.167262 -48.162871 439.2 -48.162871 
C 416.232738 -48.162871 394.203063 -39.037881 377.962756 -22.797574 
C 361.72245 -6.557267 352.59746 15.472407 352.59746 38.439669 
C 352.59746 61.406932 361.72245 83.436606 377.962756 99.676913 
C 394.203063 115.91722 416.232738 125.04221 439.2 125.04221 
z
" clip-path="url(#p8afddae48a)" style="fill: #add8e6; stroke: #add8e6"/>
   </g>
   <g id="text_1">
    <!--  13.1 : Introduction -->
    <g transform="translate(127.829874 202.687623) scale(0.03 -0.03)">
     <defs>
      <path id="DejaVuSans-20" transform="scale(0.015625)"/>
      <path id="DejaVuSans-31" d="M 794 531 
L 1825 531 
L 1825 4091 
L 703 3866 
L 703 4441 
L 1819 4666 
L 2450 4666 
L 2450 531 
L 3481 531 
L 3481 0 
L 794 0 
L 794 531 
z
" transform="scale(0.015625)"/>
      <path id="DejaVuSans-33" d="M 2597 2516 
Q 3050 2419 3304 2112 
Q 3559 1806 3559 1356 
Q 3559 666 3084 287 
Q 2609 -91 1734 -91 
Q 1441 -91 1130 -33 
Q 819 25 488 141 
L 488 750 
Q 750 597 1062 519 
Q 1375 441 1716 441 
Q 2309 441 2620 675 
Q 2931 909 2931 1356 
Q 2931 1769 2642 2001 
Q 2353 2234 1838 2234 
L 1294 2234 
L 1294 2753 
L 1863 2753 
Q 2328 2753 2575 2939 
Q 2822 3125 2822 3475 
Q 2822 3834 2567 4026 
Q 2313 4219 1838 4219 
Q 1578 4219 1281 4162 
Q 984 4106 628 3988 
L 628 4550 
Q 988 4650 1302 4700 
Q 1616 4750 1894 4750 
Q 2613 4750 3031 4423 
Q 3450 4097 3450 3541 
Q 3450 3153 3228 2886 
Q 3006 2619 2597 2516 
z
" transform="scale(0.015625)"/>
      <path id="DejaVuSans-2e" d="M 684 794 
L 1344 794 
L 1344 0 
L 684 0 
L 684 794 
z
" transform="scale(0.015625)"/>
      <path id="DejaVuSans-3a" d="M 750 794 
L 1409 794 
L 1409 0 
L 750 0 
L 750 794 
z
M 750 3309 
L 1409 3309 
L 1409 2516 
L 750 2516 
L 750 3309 
z
" transform="scale(0.015625)"/>
      <path id="DejaVuSans-49" d="M 628 4666 
L 1259 4666 
L 1259 0 
L 628 0 
L 628 4666 
z
" transform="scale(0.015625)"/>
      <path id="DejaVuSans-6e" d="M 3513 2113 
L 3513 0 
L 2938 0 
L 2938 2094 
Q 2938 2591 2744 2837 
Q 2550 3084 2163 3084 
Q 1697 3084 1428 2787 
Q 1159 2491 1159 1978 
L 1159 0 
L 581 0 
L 581 3500 
L 1159 3500 
L 1159 2956 
Q 1366 3272 1645 3428 
Q 1925 3584 2291 3584 
Q 2894 3584 3203 3211 
Q 3513 2838 3513 2113 
z
" transform="scale(0.015625)"/>
      <path id="DejaVuSans-74" d="M 1172 4494 
L 1172 3500 
L 2356 3500 
L 2356 3053 
L 1172 3053 
L 1172 1153 
Q 1172 725 1289 603 
Q 1406 481 1766 481 
L 2356 481 
L 2356 0 
L 1766 0 
Q 1100 0 847 248 
Q 594 497 594 1153 
L 594 3053 
L 172 3053 
L 172 3500 
L 594 3500 
L 594 4494 
L 1172 4494 
z
" transform="scale(0.015625)"/>
      <path id="DejaVuSans-72" d="M 2631 2963 
Q 2534 3019 2420 3045 
Q 2306 3072 2169 3072 
Q 1681 3072 1420 2755 
Q 1159 2438 1159 1844 
L 1159 0 
L 581 0 
L 581 3500 
L 1159 3500 
L 1159 2956 
Q 1341 3275 1631 3429 
Q 1922 3584 2338 3584 
Q 2397 3584 2469 3576 
Q 2541 3569 2628 3553 
L 2631 2963 
z
" transform="scale(0.015625)"/>
      <path id="DejaVuSans-6f" d="M 1959 3097 
Q 1497 3097 1228 2736 
Q 959 2375 959 1747 
Q 959 1119 1226 758 
Q 1494 397 1959 397 
Q 2419 397 2687 759 
Q 2956 1122 2956 1747 
Q 2956 2369 2687 2733 
Q 2419 3097 1959 3097 
z
M 1959 3584 
Q 2709 3584 3137 3096 
Q 3566 2609 3566 1747 
Q 3566 888 3137 398 
Q 2709 -91 1959 -91 
Q 1206 -91 779 398 
Q 353 888 353 1747 
Q 353 2609 779 3096 
Q 1206 3584 1959 3584 
z
" transform="scale(0.015625)"/>
      <path id="DejaVuSans-64" d="M 2906 2969 
L 2906 4863 
L 3481 4863 
L 3481 0 
L 2906 0 
L 2906 525 
Q 2725 213 2448 61 
Q 2172 -91 1784 -91 
Q 1150 -91 751 415 
Q 353 922 353 1747 
Q 353 2572 751 3078 
Q 1150 3584 1784 3584 
Q 2172 3584 2448 3432 
Q 2725 3281 2906 2969 
z
M 947 1747 
Q 947 1113 1208 752 
Q 1469 391 1925 391 
Q 2381 391 2643 752 
Q 2906 1113 2906 1747 
Q 2906 2381 2643 2742 
Q 2381 3103 1925 3103 
Q 1469 3103 1208 2742 
Q 947 2381 947 1747 
z
" transform="scale(0.015625)"/>
      <path id="DejaVuSans-75" d="M 544 1381 
L 544 3500 
L 1119 3500 
L 1119 1403 
Q 1119 906 1312 657 
Q 1506 409 1894 409 
Q 2359 409 2629 706 
Q 2900 1003 2900 1516 
L 2900 3500 
L 3475 3500 
L 3475 0 
L 2900 0 
L 2900 538 
Q 2691 219 2414 64 
Q 2138 -91 1772 -91 
Q 1169 -91 856 284 
Q 544 659 544 1381 
z
M 1991 3584 
L 1991 3584 
z
" transform="scale(0.015625)"/>
      <path id="DejaVuSans-63" d="M 3122 3366 
L 3122 2828 
Q 2878 2963 2633 3030 
Q 2388 3097 2138 3097 
Q 1578 3097 1268 2742 
Q 959 2388 959 1747 
Q 959 1106 1268 751 
Q 1578 397 2138 397 
Q 2388 397 2633 464 
Q 2878 531 3122 666 
L 3122 134 
Q 2881 22 2623 -34 
Q 2366 -91 2075 -91 
Q 1284 -91 818 406 
Q 353 903 353 1747 
Q 353 2603 823 3093 
Q 1294 3584 2113 3584 
Q 2378 3584 2631 3529 
Q 2884 3475 3122 3366 
z
" transform="scale(0.015625)"/>
      <path id="DejaVuSans-69" d="M 603 3500 
L 1178 3500 
L 1178 0 
L 603 0 
L 603 3500 
z
M 603 4863 
L 1178 4863 
L 1178 4134 
L 603 4134 
L 603 4863 
z
" transform="scale(0.015625)"/>
     </defs>
     <use xlink:href="#DejaVuSans-20"/>
     <use xlink:href="#DejaVuSans-31" transform="translate(31.787109 0)"/>
     <use xlink:href="#DejaVuSans-33" transform="translate(95.410156 0)"/>
     <use xlink:href="#DejaVuSans-2e" transform="translate(159.033203 0)"/>
     <use xlink:href="#DejaVuSans-31" transform="translate(190.820312 0)"/>
     <use xlink:href="#DejaVuSans-20" transform="translate(254.443359 0)"/>
     <use xlink:href="#DejaVuSans-3a" transform="translate(286.230469 0)"/>
     <use xlink:href="#DejaVuSans-20" transform="translate(319.921875 0)"/>
     <use xlink:href="#DejaVuSans-49" transform="translate(351.708984 0)"/>
     <use xlink:href="#DejaVuSans-6e" transform="translate(381.201172 0)"/>
     <use xlink:href="#DejaVuSans-74" transform="translate(444.580078 0)"/>
     <use xlink:href="#DejaVuSans-72" transform="translate(483.789062 0)"/>
     <use xlink:href="#DejaVuSans-6f" transform="translate(522.652344 0)"/>
     <use xlink:href="#DejaVuSans-64" transform="translate(583.833984 0)"/>
     <use xlink:href="#DejaVuSans-75" transform="translate(647.310547 0)"/>
     <use xlink:href="#DejaVuSans-63" transform="translate(710.689453 0)"/>
     <use xlink:href="#DejaVuSans-74" transform="translate(765.669922 0)"/>
     <use xlink:href="#DejaVuSans-69" transform="translate(804.878906 0)"/>
     <use xlink:href="#DejaVuSans-6f" transform="translate(832.662109 0)"/>
     <use xlink:href="#DejaVuSans-6e" transform="translate(893.84375 0)"/>
    </g>
    <!--  -->
    <g transform="translate(142.187921 206.046967) scale(0.03 -0.03)"/>
   </g>
   <g id="text_2">
    <!--  13.2 : Governing -->
    <g transform="translate(238.976275 202.119717) scale(0.05 -0.05)">
     <defs>
      <path id="DejaVuSans-32" d="M 1228 531 
L 3431 531 
L 3431 0 
L 469 0 
L 469 531 
Q 828 903 1448 1529 
Q 2069 2156 2228 2338 
Q 2531 2678 2651 2914 
Q 2772 3150 2772 3378 
Q 2772 3750 2511 3984 
Q 2250 4219 1831 4219 
Q 1534 4219 1204 4116 
Q 875 4013 500 3803 
L 500 4441 
Q 881 4594 1212 4672 
Q 1544 4750 1819 4750 
Q 2544 4750 2975 4387 
Q 3406 4025 3406 3419 
Q 3406 3131 3298 2873 
Q 3191 2616 2906 2266 
Q 2828 2175 2409 1742 
Q 1991 1309 1228 531 
z
" transform="scale(0.015625)"/>
      <path id="DejaVuSans-47" d="M 3809 666 
L 3809 1919 
L 2778 1919 
L 2778 2438 
L 4434 2438 
L 4434 434 
Q 4069 175 3628 42 
Q 3188 -91 2688 -91 
Q 1594 -91 976 548 
Q 359 1188 359 2328 
Q 359 3472 976 4111 
Q 1594 4750 2688 4750 
Q 3144 4750 3555 4637 
Q 3966 4525 4313 4306 
L 4313 3634 
Q 3963 3931 3569 4081 
Q 3175 4231 2741 4231 
Q 1884 4231 1454 3753 
Q 1025 3275 1025 2328 
Q 1025 1384 1454 906 
Q 1884 428 2741 428 
Q 3075 428 3337 486 
Q 3600 544 3809 666 
z
" transform="scale(0.015625)"/>
      <path id="DejaVuSans-76" d="M 191 3500 
L 800 3500 
L 1894 563 
L 2988 3500 
L 3597 3500 
L 2284 0 
L 1503 0 
L 191 3500 
z
" transform="scale(0.015625)"/>
      <path id="DejaVuSans-65" d="M 3597 1894 
L 3597 1613 
L 953 1613 
Q 991 1019 1311 708 
Q 1631 397 2203 397 
Q 2534 397 2845 478 
Q 3156 559 3463 722 
L 3463 178 
Q 3153 47 2828 -22 
Q 2503 -91 2169 -91 
Q 1331 -91 842 396 
Q 353 884 353 1716 
Q 353 2575 817 3079 
Q 1281 3584 2069 3584 
Q 2775 3584 3186 3129 
Q 3597 2675 3597 1894 
z
M 3022 2063 
Q 3016 2534 2758 2815 
Q 2500 3097 2075 3097 
Q 1594 3097 1305 2825 
Q 1016 2553 972 2059 
L 3022 2063 
z
" transform="scale(0.015625)"/>
      <path id="DejaVuSans-67" d="M 2906 1791 
Q 2906 2416 2648 2759 
Q 2391 3103 1925 3103 
Q 1463 3103 1205 2759 
Q 947 2416 947 1791 
Q 947 1169 1205 825 
Q 1463 481 1925 481 
Q 2391 481 2648 825 
Q 2906 1169 2906 1791 
z
M 3481 434 
Q 3481 -459 3084 -895 
Q 2688 -1331 1869 -1331 
Q 1566 -1331 1297 -1286 
Q 1028 -1241 775 -1147 
L 775 -588 
Q 1028 -725 1275 -790 
Q 1522 -856 1778 -856 
Q 2344 -856 2625 -561 
Q 2906 -266 2906 331 
L 2906 616 
Q 2728 306 2450 153 
Q 2172 0 1784 0 
Q 1141 0 747 490 
Q 353 981 353 1791 
Q 353 2603 747 3093 
Q 1141 3584 1784 3584 
Q 2172 3584 2450 3431 
Q 2728 3278 2906 2969 
L 2906 3500 
L 3481 3500 
L 3481 434 
z
" transform="scale(0.015625)"/>
     </defs>
     <use xlink:href="#DejaVuSans-20"/>
     <use xlink:href="#DejaVuSans-31" transform="translate(31.787109 0)"/>
     <use xlink:href="#DejaVuSans-33" transform="translate(95.410156 0)"/>
     <use xlink:href="#DejaVuSans-2e" transform="translate(159.033203 0)"/>
     <use xlink:href="#DejaVuSans-32" transform="translate(190.820312 0)"/>
     <use xlink:href="#DejaVuSans-20" transform="translate(254.443359 0)"/>
     <use xlink:href="#DejaVuSans-3a" transform="translate(286.230469 0)"/>
     <use xlink:href="#DejaVuSans-20" transform="translate(319.921875 0)"/>
     <use xlink:href="#DejaVuSans-47" transform="translate(351.708984 0)"/>
     <use xlink:href="#DejaVuSans-6f" transform="translate(429.199219 0)"/>
     <use xlink:href="#DejaVuSans-76" transform="translate(490.380859 0)"/>
     <use xlink:href="#DejaVuSans-65" transform="translate(549.560547 0)"/>
     <use xlink:href="#DejaVuSans-72" transform="translate(611.083984 0)"/>
     <use xlink:href="#DejaVuSans-6e" transform="translate(650.447266 0)"/>
     <use xlink:href="#DejaVuSans-69" transform="translate(713.826172 0)"/>
     <use xlink:href="#DejaVuSans-6e" transform="translate(741.609375 0)"/>
     <use xlink:href="#DejaVuSans-67" transform="translate(804.988281 0)"/>
    </g>
    <!--  Equations -->
    <g transform="translate(247.518853 207.718623) scale(0.05 -0.05)">
     <defs>
      <path id="DejaVuSans-45" d="M 628 4666 
L 3578 4666 
L 3578 4134 
L 1259 4134 
L 1259 2753 
L 3481 2753 
L 3481 2222 
L 1259 2222 
L 1259 531 
L 3634 531 
L 3634 0 
L 628 0 
L 628 4666 
z
" transform="scale(0.015625)"/>
      <path id="DejaVuSans-71" d="M 947 1747 
Q 947 1113 1208 752 
Q 1469 391 1925 391 
Q 2381 391 2643 752 
Q 2906 1113 2906 1747 
Q 2906 2381 2643 2742 
Q 2381 3103 1925 3103 
Q 1469 3103 1208 2742 
Q 947 2381 947 1747 
z
M 2906 525 
Q 2725 213 2448 61 
Q 2172 -91 1784 -91 
Q 1150 -91 751 415 
Q 353 922 353 1747 
Q 353 2572 751 3078 
Q 1150 3584 1784 3584 
Q 2172 3584 2448 3432 
Q 2725 3281 2906 2969 
L 2906 3500 
L 3481 3500 
L 3481 -1331 
L 2906 -1331 
L 2906 525 
z
" transform="scale(0.015625)"/>
      <path id="DejaVuSans-61" d="M 2194 1759 
Q 1497 1759 1228 1600 
Q 959 1441 959 1056 
Q 959 750 1161 570 
Q 1363 391 1709 391 
Q 2188 391 2477 730 
Q 2766 1069 2766 1631 
L 2766 1759 
L 2194 1759 
z
M 3341 1997 
L 3341 0 
L 2766 0 
L 2766 531 
Q 2569 213 2275 61 
Q 1981 -91 1556 -91 
Q 1019 -91 701 211 
Q 384 513 384 1019 
Q 384 1609 779 1909 
Q 1175 2209 1959 2209 
L 2766 2209 
L 2766 2266 
Q 2766 2663 2505 2880 
Q 2244 3097 1772 3097 
Q 1472 3097 1187 3025 
Q 903 2953 641 2809 
L 641 3341 
Q 956 3463 1253 3523 
Q 1550 3584 1831 3584 
Q 2591 3584 2966 3190 
Q 3341 2797 3341 1997 
z
" transform="scale(0.015625)"/>
      <path id="DejaVuSans-73" d="M 2834 3397 
L 2834 2853 
Q 2591 2978 2328 3040 
Q 2066 3103 1784 3103 
Q 1356 3103 1142 2972 
Q 928 2841 928 2578 
Q 928 2378 1081 2264 
Q 1234 2150 1697 2047 
L 1894 2003 
Q 2506 1872 2764 1633 
Q 3022 1394 3022 966 
Q 3022 478 2636 193 
Q 2250 -91 1575 -91 
Q 1294 -91 989 -36 
Q 684 19 347 128 
L 347 722 
Q 666 556 975 473 
Q 1284 391 1588 391 
Q 1994 391 2212 530 
Q 2431 669 2431 922 
Q 2431 1156 2273 1281 
Q 2116 1406 1581 1522 
L 1381 1569 
Q 847 1681 609 1914 
Q 372 2147 372 2553 
Q 372 3047 722 3315 
Q 1072 3584 1716 3584 
Q 2034 3584 2315 3537 
Q 2597 3491 2834 3397 
z
" transform="scale(0.015625)"/>
     </defs>
     <use xlink:href="#DejaVuSans-20"/>
     <use xlink:href="#DejaVuSans-45" transform="translate(31.787109 0)"/>
     <use xlink:href="#DejaVuSans-71" transform="translate(94.970703 0)"/>
     <use xlink:href="#DejaVuSans-75" transform="translate(158.447266 0)"/>
     <use xlink:href="#DejaVuSans-61" transform="translate(221.826172 0)"/>
     <use xlink:href="#DejaVuSans-74" transform="translate(283.105469 0)"/>
     <use xlink:href="#DejaVuSans-69" transform="translate(322.314453 0)"/>
     <use xlink:href="#DejaVuSans-6f" transform="translate(350.097656 0)"/>
     <use xlink:href="#DejaVuSans-6e" transform="translate(411.279297 0)"/>
     <use xlink:href="#DejaVuSans-73" transform="translate(474.658203 0)"/>
    </g>
   </g>
   <g id="text_3">
    <!--  13.2.1 : Richards' -->
    <g transform="translate(68.578878 335.108471) scale(0.03 -0.03)">
     <defs>
      <path id="DejaVuSans-52" d="M 2841 2188 
Q 3044 2119 3236 1894 
Q 3428 1669 3622 1275 
L 4263 0 
L 3584 0 
L 2988 1197 
Q 2756 1666 2539 1819 
Q 2322 1972 1947 1972 
L 1259 1972 
L 1259 0 
L 628 0 
L 628 4666 
L 2053 4666 
Q 2853 4666 3247 4331 
Q 3641 3997 3641 3322 
Q 3641 2881 3436 2590 
Q 3231 2300 2841 2188 
z
M 1259 4147 
L 1259 2491 
L 2053 2491 
Q 2509 2491 2742 2702 
Q 2975 2913 2975 3322 
Q 2975 3731 2742 3939 
Q 2509 4147 2053 4147 
L 1259 4147 
z
" transform="scale(0.015625)"/>
      <path id="DejaVuSans-68" d="M 3513 2113 
L 3513 0 
L 2938 0 
L 2938 2094 
Q 2938 2591 2744 2837 
Q 2550 3084 2163 3084 
Q 1697 3084 1428 2787 
Q 1159 2491 1159 1978 
L 1159 0 
L 581 0 
L 581 4863 
L 1159 4863 
L 1159 2956 
Q 1366 3272 1645 3428 
Q 1925 3584 2291 3584 
Q 2894 3584 3203 3211 
Q 3513 2838 3513 2113 
z
" transform="scale(0.015625)"/>
      <path id="DejaVuSans-27" d="M 1147 4666 
L 1147 2931 
L 616 2931 
L 616 4666 
L 1147 4666 
z
" transform="scale(0.015625)"/>
     </defs>
     <use xlink:href="#DejaVuSans-20"/>
     <use xlink:href="#DejaVuSans-31" transform="translate(31.787109 0)"/>
     <use xlink:href="#DejaVuSans-33" transform="translate(95.410156 0)"/>
     <use xlink:href="#DejaVuSans-2e" transform="translate(159.033203 0)"/>
     <use xlink:href="#DejaVuSans-32" transform="translate(190.820312 0)"/>
     <use xlink:href="#DejaVuSans-2e" transform="translate(254.443359 0)"/>
     <use xlink:href="#DejaVuSans-31" transform="translate(286.230469 0)"/>
     <use xlink:href="#DejaVuSans-20" transform="translate(349.853516 0)"/>
     <use xlink:href="#DejaVuSans-3a" transform="translate(381.640625 0)"/>
     <use xlink:href="#DejaVuSans-20" transform="translate(415.332031 0)"/>
     <use xlink:href="#DejaVuSans-52" transform="translate(447.119141 0)"/>
     <use xlink:href="#DejaVuSans-69" transform="translate(516.601562 0)"/>
     <use xlink:href="#DejaVuSans-63" transform="translate(544.384766 0)"/>
     <use xlink:href="#DejaVuSans-68" transform="translate(599.365234 0)"/>
     <use xlink:href="#DejaVuSans-61" transform="translate(662.744141 0)"/>
     <use xlink:href="#DejaVuSans-72" transform="translate(724.023438 0)"/>
     <use xlink:href="#DejaVuSans-64" transform="translate(763.386719 0)"/>
     <use xlink:href="#DejaVuSans-73" transform="translate(826.863281 0)"/>
     <use xlink:href="#DejaVuSans-27" transform="translate(878.962891 0)"/>
    </g>
    <!--  Equation -->
    <g transform="translate(75.055363 338.467815) scale(0.03 -0.03)">
     <use xlink:href="#DejaVuSans-20"/>
     <use xlink:href="#DejaVuSans-45" transform="translate(31.787109 0)"/>
     <use xlink:href="#DejaVuSans-71" transform="translate(94.970703 0)"/>
     <use xlink:href="#DejaVuSans-75" transform="translate(158.447266 0)"/>
     <use xlink:href="#DejaVuSans-61" transform="translate(221.826172 0)"/>
     <use xlink:href="#DejaVuSans-74" transform="translate(283.105469 0)"/>
     <use xlink:href="#DejaVuSans-69" transform="translate(322.314453 0)"/>
     <use xlink:href="#DejaVuSans-6f" transform="translate(350.097656 0)"/>
     <use xlink:href="#DejaVuSans-6e" transform="translate(411.279297 0)"/>
    </g>
   </g>
   <g id="text_4">
    <!--  13.2.2 : Unsaturated -->
    <g transform="translate(155.438124 333.428799) scale(0.03 -0.03)">
     <defs>
      <path id="DejaVuSans-55" d="M 556 4666 
L 1191 4666 
L 1191 1831 
Q 1191 1081 1462 751 
Q 1734 422 2344 422 
Q 2950 422 3222 751 
Q 3494 1081 3494 1831 
L 3494 4666 
L 4128 4666 
L 4128 1753 
Q 4128 841 3676 375 
Q 3225 -91 2344 -91 
Q 1459 -91 1007 375 
Q 556 841 556 1753 
L 556 4666 
z
" transform="scale(0.015625)"/>
     </defs>
     <use xlink:href="#DejaVuSans-20"/>
     <use xlink:href="#DejaVuSans-31" transform="translate(31.787109 0)"/>
     <use xlink:href="#DejaVuSans-33" transform="translate(95.410156 0)"/>
     <use xlink:href="#DejaVuSans-2e" transform="translate(159.033203 0)"/>
     <use xlink:href="#DejaVuSans-32" transform="translate(190.820312 0)"/>
     <use xlink:href="#DejaVuSans-2e" transform="translate(254.443359 0)"/>
     <use xlink:href="#DejaVuSans-32" transform="translate(286.230469 0)"/>
     <use xlink:href="#DejaVuSans-20" transform="translate(349.853516 0)"/>
     <use xlink:href="#DejaVuSans-3a" transform="translate(381.640625 0)"/>
     <use xlink:href="#DejaVuSans-20" transform="translate(415.332031 0)"/>
     <use xlink:href="#DejaVuSans-55" transform="translate(447.119141 0)"/>
     <use xlink:href="#DejaVuSans-6e" transform="translate(520.3125 0)"/>
     <use xlink:href="#DejaVuSans-73" transform="translate(583.691406 0)"/>
     <use xlink:href="#DejaVuSans-61" transform="translate(635.791016 0)"/>
     <use xlink:href="#DejaVuSans-74" transform="translate(697.070312 0)"/>
     <use xlink:href="#DejaVuSans-75" transform="translate(736.279297 0)"/>
     <use xlink:href="#DejaVuSans-72" transform="translate(799.658203 0)"/>
     <use xlink:href="#DejaVuSans-61" transform="translate(840.771484 0)"/>
     <use xlink:href="#DejaVuSans-74" transform="translate(902.050781 0)"/>
     <use xlink:href="#DejaVuSans-65" transform="translate(941.259766 0)"/>
     <use xlink:href="#DejaVuSans-64" transform="translate(1002.783203 0)"/>
    </g>
    <!--  Poroelasticity -->
    <g transform="translate(160.923671 336.788143) scale(0.03 -0.03)">
     <defs>
      <path id="DejaVuSans-50" d="M 1259 4147 
L 1259 2394 
L 2053 2394 
Q 2494 2394 2734 2622 
Q 2975 2850 2975 3272 
Q 2975 3691 2734 3919 
Q 2494 4147 2053 4147 
L 1259 4147 
z
M 628 4666 
L 2053 4666 
Q 2838 4666 3239 4311 
Q 3641 3956 3641 3272 
Q 3641 2581 3239 2228 
Q 2838 1875 2053 1875 
L 1259 1875 
L 1259 0 
L 628 0 
L 628 4666 
z
" transform="scale(0.015625)"/>
      <path id="DejaVuSans-6c" d="M 603 4863 
L 1178 4863 
L 1178 0 
L 603 0 
L 603 4863 
z
" transform="scale(0.015625)"/>
      <path id="DejaVuSans-79" d="M 2059 -325 
Q 1816 -950 1584 -1140 
Q 1353 -1331 966 -1331 
L 506 -1331 
L 506 -850 
L 844 -850 
Q 1081 -850 1212 -737 
Q 1344 -625 1503 -206 
L 1606 56 
L 191 3500 
L 800 3500 
L 1894 763 
L 2988 3500 
L 3597 3500 
L 2059 -325 
z
" transform="scale(0.015625)"/>
     </defs>
     <use xlink:href="#DejaVuSans-20"/>
     <use xlink:href="#DejaVuSans-50" transform="translate(31.787109 0)"/>
     <use xlink:href="#DejaVuSans-6f" transform="translate(88.464844 0)"/>
     <use xlink:href="#DejaVuSans-72" transform="translate(149.646484 0)"/>
     <use xlink:href="#DejaVuSans-6f" transform="translate(188.509766 0)"/>
     <use xlink:href="#DejaVuSans-65" transform="translate(249.691406 0)"/>
     <use xlink:href="#DejaVuSans-6c" transform="translate(311.214844 0)"/>
     <use xlink:href="#DejaVuSans-61" transform="translate(338.998047 0)"/>
     <use xlink:href="#DejaVuSans-73" transform="translate(400.277344 0)"/>
     <use xlink:href="#DejaVuSans-74" transform="translate(452.376953 0)"/>
     <use xlink:href="#DejaVuSans-69" transform="translate(491.585938 0)"/>
     <use xlink:href="#DejaVuSans-63" transform="translate(519.369141 0)"/>
     <use xlink:href="#DejaVuSans-69" transform="translate(574.349609 0)"/>
     <use xlink:href="#DejaVuSans-74" transform="translate(602.132812 0)"/>
     <use xlink:href="#DejaVuSans-79" transform="translate(641.341797 0)"/>
    </g>
    <!--  -->
    <g transform="translate(171.431405 340.147487) scale(0.03 -0.03)"/>
   </g>
   <g id="text_5">
    <!--  13.2.3 : Boundary -->
    <g transform="translate(246.757056 331.749127) scale(0.03 -0.03)">
     <defs>
      <path id="DejaVuSans-42" d="M 1259 2228 
L 1259 519 
L 2272 519 
Q 2781 519 3026 730 
Q 3272 941 3272 1375 
Q 3272 1813 3026 2020 
Q 2781 2228 2272 2228 
L 1259 2228 
z
M 1259 4147 
L 1259 2741 
L 2194 2741 
Q 2656 2741 2882 2914 
Q 3109 3088 3109 3444 
Q 3109 3797 2882 3972 
Q 2656 4147 2194 4147 
L 1259 4147 
z
M 628 4666 
L 2241 4666 
Q 2963 4666 3353 4366 
Q 3744 4066 3744 3513 
Q 3744 3084 3544 2831 
Q 3344 2578 2956 2516 
Q 3422 2416 3680 2098 
Q 3938 1781 3938 1306 
Q 3938 681 3513 340 
Q 3088 0 2303 0 
L 628 0 
L 628 4666 
z
" transform="scale(0.015625)"/>
     </defs>
     <use xlink:href="#DejaVuSans-20"/>
     <use xlink:href="#DejaVuSans-31" transform="translate(31.787109 0)"/>
     <use xlink:href="#DejaVuSans-33" transform="translate(95.410156 0)"/>
     <use xlink:href="#DejaVuSans-2e" transform="translate(159.033203 0)"/>
     <use xlink:href="#DejaVuSans-32" transform="translate(190.820312 0)"/>
     <use xlink:href="#DejaVuSans-2e" transform="translate(254.443359 0)"/>
     <use xlink:href="#DejaVuSans-33" transform="translate(286.230469 0)"/>
     <use xlink:href="#DejaVuSans-20" transform="translate(349.853516 0)"/>
     <use xlink:href="#DejaVuSans-3a" transform="translate(381.640625 0)"/>
     <use xlink:href="#DejaVuSans-20" transform="translate(415.332031 0)"/>
     <use xlink:href="#DejaVuSans-42" transform="translate(447.119141 0)"/>
     <use xlink:href="#DejaVuSans-6f" transform="translate(515.722656 0)"/>
     <use xlink:href="#DejaVuSans-75" transform="translate(576.904297 0)"/>
     <use xlink:href="#DejaVuSans-6e" transform="translate(640.283203 0)"/>
     <use xlink:href="#DejaVuSans-64" transform="translate(703.662109 0)"/>
     <use xlink:href="#DejaVuSans-61" transform="translate(767.138672 0)"/>
     <use xlink:href="#DejaVuSans-72" transform="translate(828.417969 0)"/>
     <use xlink:href="#DejaVuSans-79" transform="translate(869.53125 0)"/>
    </g>
    <!--  and Initial -->
    <g transform="translate(252.76151 335.108471) scale(0.03 -0.03)">
     <use xlink:href="#DejaVuSans-20"/>
     <use xlink:href="#DejaVuSans-61" transform="translate(31.787109 0)"/>
     <use xlink:href="#DejaVuSans-6e" transform="translate(93.066406 0)"/>
     <use xlink:href="#DejaVuSans-64" transform="translate(156.445312 0)"/>
     <use xlink:href="#DejaVuSans-20" transform="translate(219.921875 0)"/>
     <use xlink:href="#DejaVuSans-49" transform="translate(251.708984 0)"/>
     <use xlink:href="#DejaVuSans-6e" transform="translate(281.201172 0)"/>
     <use xlink:href="#DejaVuSans-69" transform="translate(344.580078 0)"/>
     <use xlink:href="#DejaVuSans-74" transform="translate(372.363281 0)"/>
     <use xlink:href="#DejaVuSans-69" transform="translate(411.572266 0)"/>
     <use xlink:href="#DejaVuSans-61" transform="translate(439.355469 0)"/>
     <use xlink:href="#DejaVuSans-6c" transform="translate(500.634766 0)"/>
    </g>
    <!--  Conditions -->
    <g transform="translate(252.271431 338.467815) scale(0.03 -0.03)">
     <defs>
      <path id="DejaVuSans-43" d="M 4122 4306 
L 4122 3641 
Q 3803 3938 3442 4084 
Q 3081 4231 2675 4231 
Q 1875 4231 1450 3742 
Q 1025 3253 1025 2328 
Q 1025 1406 1450 917 
Q 1875 428 2675 428 
Q 3081 428 3442 575 
Q 3803 722 4122 1019 
L 4122 359 
Q 3791 134 3420 21 
Q 3050 -91 2638 -91 
Q 1578 -91 968 557 
Q 359 1206 359 2328 
Q 359 3453 968 4101 
Q 1578 4750 2638 4750 
Q 3056 4750 3426 4639 
Q 3797 4528 4122 4306 
z
" transform="scale(0.015625)"/>
     </defs>
     <use xlink:href="#DejaVuSans-20"/>
     <use xlink:href="#DejaVuSans-43" transform="translate(31.787109 0)"/>
     <use xlink:href="#DejaVuSans-6f" transform="translate(101.611328 0)"/>
     <use xlink:href="#DejaVuSans-6e" transform="translate(162.792969 0)"/>
     <use xlink:href="#DejaVuSans-64" transform="translate(226.171875 0)"/>
     <use xlink:href="#DejaVuSans-69" transform="translate(289.648438 0)"/>
     <use xlink:href="#DejaVuSans-74" transform="translate(317.431641 0)"/>
     <use xlink:href="#DejaVuSans-69" transform="translate(356.640625 0)"/>
     <use xlink:href="#DejaVuSans-6f" transform="translate(384.423828 0)"/>
     <use xlink:href="#DejaVuSans-6e" transform="translate(445.605469 0)"/>
     <use xlink:href="#DejaVuSans-73" transform="translate(508.984375 0)"/>
    </g>
    <!--  -->
    <g transform="translate(260.687603 341.827159) scale(0.03 -0.03)"/>
   </g>
   <g id="text_6">
    <!--  13.3 : Discretization -->
    <g transform="translate(413.294141 199.320264) scale(0.05 -0.05)">
     <defs>
      <path id="DejaVuSans-44" d="M 1259 4147 
L 1259 519 
L 2022 519 
Q 2988 519 3436 956 
Q 3884 1394 3884 2338 
Q 3884 3275 3436 3711 
Q 2988 4147 2022 4147 
L 1259 4147 
z
M 628 4666 
L 1925 4666 
Q 3281 4666 3915 4102 
Q 4550 3538 4550 2338 
Q 4550 1131 3912 565 
Q 3275 0 1925 0 
L 628 0 
L 628 4666 
z
" transform="scale(0.015625)"/>
      <path id="DejaVuSans-7a" d="M 353 3500 
L 3084 3500 
L 3084 2975 
L 922 459 
L 3084 459 
L 3084 0 
L 275 0 
L 275 525 
L 2438 3041 
L 353 3041 
L 353 3500 
z
" transform="scale(0.015625)"/>
     </defs>
     <use xlink:href="#DejaVuSans-20"/>
     <use xlink:href="#DejaVuSans-31" transform="translate(31.787109 0)"/>
     <use xlink:href="#DejaVuSans-33" transform="translate(95.410156 0)"/>
     <use xlink:href="#DejaVuSans-2e" transform="translate(159.033203 0)"/>
     <use xlink:href="#DejaVuSans-33" transform="translate(190.820312 0)"/>
     <use xlink:href="#DejaVuSans-20" transform="translate(254.443359 0)"/>
     <use xlink:href="#DejaVuSans-3a" transform="translate(286.230469 0)"/>
     <use xlink:href="#DejaVuSans-20" transform="translate(319.921875 0)"/>
     <use xlink:href="#DejaVuSans-44" transform="translate(351.708984 0)"/>
     <use xlink:href="#DejaVuSans-69" transform="translate(428.710938 0)"/>
     <use xlink:href="#DejaVuSans-73" transform="translate(456.494141 0)"/>
     <use xlink:href="#DejaVuSans-63" transform="translate(508.59375 0)"/>
     <use xlink:href="#DejaVuSans-72" transform="translate(563.574219 0)"/>
     <use xlink:href="#DejaVuSans-65" transform="translate(602.4375 0)"/>
     <use xlink:href="#DejaVuSans-74" transform="translate(663.960938 0)"/>
     <use xlink:href="#DejaVuSans-69" transform="translate(703.169922 0)"/>
     <use xlink:href="#DejaVuSans-7a" transform="translate(730.953125 0)"/>
     <use xlink:href="#DejaVuSans-61" transform="translate(783.443359 0)"/>
     <use xlink:href="#DejaVuSans-74" transform="translate(844.722656 0)"/>
     <use xlink:href="#DejaVuSans-69" transform="translate(883.931641 0)"/>
     <use xlink:href="#DejaVuSans-6f" transform="translate(911.714844 0)"/>
     <use xlink:href="#DejaVuSans-6e" transform="translate(972.896484 0)"/>
    </g>
    <!--  and Implementation -->
    <g transform="translate(413.05625 204.91917) scale(0.05 -0.05)">
     <defs>
      <path id="DejaVuSans-6d" d="M 3328 2828 
Q 3544 3216 3844 3400 
Q 4144 3584 4550 3584 
Q 5097 3584 5394 3201 
Q 5691 2819 5691 2113 
L 5691 0 
L 5113 0 
L 5113 2094 
Q 5113 2597 4934 2840 
Q 4756 3084 4391 3084 
Q 3944 3084 3684 2787 
Q 3425 2491 3425 1978 
L 3425 0 
L 2847 0 
L 2847 2094 
Q 2847 2600 2669 2842 
Q 2491 3084 2119 3084 
Q 1678 3084 1418 2786 
Q 1159 2488 1159 1978 
L 1159 0 
L 581 0 
L 581 3500 
L 1159 3500 
L 1159 2956 
Q 1356 3278 1631 3431 
Q 1906 3584 2284 3584 
Q 2666 3584 2933 3390 
Q 3200 3197 3328 2828 
z
" transform="scale(0.015625)"/>
      <path id="DejaVuSans-70" d="M 1159 525 
L 1159 -1331 
L 581 -1331 
L 581 3500 
L 1159 3500 
L 1159 2969 
Q 1341 3281 1617 3432 
Q 1894 3584 2278 3584 
Q 2916 3584 3314 3078 
Q 3713 2572 3713 1747 
Q 3713 922 3314 415 
Q 2916 -91 2278 -91 
Q 1894 -91 1617 61 
Q 1341 213 1159 525 
z
M 3116 1747 
Q 3116 2381 2855 2742 
Q 2594 3103 2138 3103 
Q 1681 3103 1420 2742 
Q 1159 2381 1159 1747 
Q 1159 1113 1420 752 
Q 1681 391 2138 391 
Q 2594 391 2855 752 
Q 3116 1113 3116 1747 
z
" transform="scale(0.015625)"/>
     </defs>
     <use xlink:href="#DejaVuSans-20"/>
     <use xlink:href="#DejaVuSans-61" transform="translate(31.787109 0)"/>
     <use xlink:href="#DejaVuSans-6e" transform="translate(93.066406 0)"/>
     <use xlink:href="#DejaVuSans-64" transform="translate(156.445312 0)"/>
     <use xlink:href="#DejaVuSans-20" transform="translate(219.921875 0)"/>
     <use xlink:href="#DejaVuSans-49" transform="translate(251.708984 0)"/>
     <use xlink:href="#DejaVuSans-6d" transform="translate(281.201172 0)"/>
     <use xlink:href="#DejaVuSans-70" transform="translate(378.613281 0)"/>
     <use xlink:href="#DejaVuSans-6c" transform="translate(442.089844 0)"/>
     <use xlink:href="#DejaVuSans-65" transform="translate(469.873047 0)"/>
     <use xlink:href="#DejaVuSans-6d" transform="translate(531.396484 0)"/>
     <use xlink:href="#DejaVuSans-65" transform="translate(628.808594 0)"/>
     <use xlink:href="#DejaVuSans-6e" transform="translate(690.332031 0)"/>
     <use xlink:href="#DejaVuSans-74" transform="translate(753.710938 0)"/>
     <use xlink:href="#DejaVuSans-61" transform="translate(792.919922 0)"/>
     <use xlink:href="#DejaVuSans-74" transform="translate(854.199219 0)"/>
     <use xlink:href="#DejaVuSans-69" transform="translate(893.408203 0)"/>
     <use xlink:href="#DejaVuSans-6f" transform="translate(921.191406 0)"/>
     <use xlink:href="#DejaVuSans-6e" transform="translate(982.373047 0)"/>
    </g>
    <!--  -->
    <g transform="translate(439.2 210.518076) scale(0.05 -0.05)"/>
   </g>
   <g id="text_7">
    <!--  13.3.1 : MPFA -->
    <g transform="translate(339.28677 335.108471) scale(0.03 -0.03)">
     <defs>
      <path id="DejaVuSans-4d" d="M 628 4666 
L 1569 4666 
L 2759 1491 
L 3956 4666 
L 4897 4666 
L 4897 0 
L 4281 0 
L 4281 4097 
L 3078 897 
L 2444 897 
L 1241 4097 
L 1241 0 
L 628 0 
L 628 4666 
z
" transform="scale(0.015625)"/>
      <path id="DejaVuSans-46" d="M 628 4666 
L 3309 4666 
L 3309 4134 
L 1259 4134 
L 1259 2759 
L 3109 2759 
L 3109 2228 
L 1259 2228 
L 1259 0 
L 628 0 
L 628 4666 
z
" transform="scale(0.015625)"/>
      <path id="DejaVuSans-41" d="M 2188 4044 
L 1331 1722 
L 3047 1722 
L 2188 4044 
z
M 1831 4666 
L 2547 4666 
L 4325 0 
L 3669 0 
L 3244 1197 
L 1141 1197 
L 716 0 
L 50 0 
L 1831 4666 
z
" transform="scale(0.015625)"/>
     </defs>
     <use xlink:href="#DejaVuSans-20"/>
     <use xlink:href="#DejaVuSans-31" transform="translate(31.787109 0)"/>
     <use xlink:href="#DejaVuSans-33" transform="translate(95.410156 0)"/>
     <use xlink:href="#DejaVuSans-2e" transform="translate(159.033203 0)"/>
     <use xlink:href="#DejaVuSans-33" transform="translate(190.820312 0)"/>
     <use xlink:href="#DejaVuSans-2e" transform="translate(254.443359 0)"/>
     <use xlink:href="#DejaVuSans-31" transform="translate(286.230469 0)"/>
     <use xlink:href="#DejaVuSans-20" transform="translate(349.853516 0)"/>
     <use xlink:href="#DejaVuSans-3a" transform="translate(381.640625 0)"/>
     <use xlink:href="#DejaVuSans-20" transform="translate(415.332031 0)"/>
     <use xlink:href="#DejaVuSans-4d" transform="translate(447.119141 0)"/>
     <use xlink:href="#DejaVuSans-50" transform="translate(533.398438 0)"/>
     <use xlink:href="#DejaVuSans-46" transform="translate(593.701172 0)"/>
     <use xlink:href="#DejaVuSans-41" transform="translate(642.095703 0)"/>
    </g>
    <!--  and MPSA -->
    <g transform="translate(341.963099 338.467815) scale(0.03 -0.03)">
     <defs>
      <path id="DejaVuSans-53" d="M 3425 4513 
L 3425 3897 
Q 3066 4069 2747 4153 
Q 2428 4238 2131 4238 
Q 1616 4238 1336 4038 
Q 1056 3838 1056 3469 
Q 1056 3159 1242 3001 
Q 1428 2844 1947 2747 
L 2328 2669 
Q 3034 2534 3370 2195 
Q 3706 1856 3706 1288 
Q 3706 609 3251 259 
Q 2797 -91 1919 -91 
Q 1588 -91 1214 -16 
Q 841 59 441 206 
L 441 856 
Q 825 641 1194 531 
Q 1563 422 1919 422 
Q 2459 422 2753 634 
Q 3047 847 3047 1241 
Q 3047 1584 2836 1778 
Q 2625 1972 2144 2069 
L 1759 2144 
Q 1053 2284 737 2584 
Q 422 2884 422 3419 
Q 422 4038 858 4394 
Q 1294 4750 2059 4750 
Q 2388 4750 2728 4690 
Q 3069 4631 3425 4513 
z
" transform="scale(0.015625)"/>
     </defs>
     <use xlink:href="#DejaVuSans-20"/>
     <use xlink:href="#DejaVuSans-61" transform="translate(31.787109 0)"/>
     <use xlink:href="#DejaVuSans-6e" transform="translate(93.066406 0)"/>
     <use xlink:href="#DejaVuSans-64" transform="translate(156.445312 0)"/>
     <use xlink:href="#DejaVuSans-20" transform="translate(219.921875 0)"/>
     <use xlink:href="#DejaVuSans-4d" transform="translate(251.708984 0)"/>
     <use xlink:href="#DejaVuSans-50" transform="translate(337.988281 0)"/>
     <use xlink:href="#DejaVuSans-53" transform="translate(398.291016 0)"/>
     <use xlink:href="#DejaVuSans-41" transform="translate(463.642578 0)"/>
    </g>
   </g>
   <g id="text_8">
    <!--  13.3.2 : Discretization -->
    <g transform="translate(422.225391 335.108471) scale(0.03 -0.03)">
     <use xlink:href="#DejaVuSans-20"/>
     <use xlink:href="#DejaVuSans-31" transform="translate(31.787109 0)"/>
     <use xlink:href="#DejaVuSans-33" transform="translate(95.410156 0)"/>
     <use xlink:href="#DejaVuSans-2e" transform="translate(159.033203 0)"/>
     <use xlink:href="#DejaVuSans-33" transform="translate(190.820312 0)"/>
     <use xlink:href="#DejaVuSans-2e" transform="translate(254.443359 0)"/>
     <use xlink:href="#DejaVuSans-32" transform="translate(286.230469 0)"/>
     <use xlink:href="#DejaVuSans-20" transform="translate(349.853516 0)"/>
     <use xlink:href="#DejaVuSans-3a" transform="translate(381.640625 0)"/>
     <use xlink:href="#DejaVuSans-20" transform="translate(415.332031 0)"/>
     <use xlink:href="#DejaVuSans-44" transform="translate(447.119141 0)"/>
     <use xlink:href="#DejaVuSans-69" transform="translate(524.121094 0)"/>
     <use xlink:href="#DejaVuSans-73" transform="translate(551.904297 0)"/>
     <use xlink:href="#DejaVuSans-63" transform="translate(604.003906 0)"/>
     <use xlink:href="#DejaVuSans-72" transform="translate(658.984375 0)"/>
     <use xlink:href="#DejaVuSans-65" transform="translate(697.847656 0)"/>
     <use xlink:href="#DejaVuSans-74" transform="translate(759.371094 0)"/>
     <use xlink:href="#DejaVuSans-69" transform="translate(798.580078 0)"/>
     <use xlink:href="#DejaVuSans-7a" transform="translate(826.363281 0)"/>
     <use xlink:href="#DejaVuSans-61" transform="translate(878.853516 0)"/>
     <use xlink:href="#DejaVuSans-74" transform="translate(940.132812 0)"/>
     <use xlink:href="#DejaVuSans-69" transform="translate(979.341797 0)"/>
     <use xlink:href="#DejaVuSans-6f" transform="translate(1007.125 0)"/>
     <use xlink:href="#DejaVuSans-6e" transform="translate(1068.306641 0)"/>
    </g>
    <!--  -->
    <g transform="translate(439.2 338.467815) scale(0.03 -0.03)"/>
   </g>
   <g id="text_9">
    <!--  13.3.3 : Solving -->
    <g transform="translate(516.255573 333.428799) scale(0.03 -0.03)">
     <use xlink:href="#DejaVuSans-20"/>
     <use xlink:href="#DejaVuSans-31" transform="translate(31.787109 0)"/>
     <use xlink:href="#DejaVuSans-33" transform="translate(95.410156 0)"/>
     <use xlink:href="#DejaVuSans-2e" transform="translate(159.033203 0)"/>
     <use xlink:href="#DejaVuSans-33" transform="translate(190.820312 0)"/>
     <use xlink:href="#DejaVuSans-2e" transform="translate(254.443359 0)"/>
     <use xlink:href="#DejaVuSans-33" transform="translate(286.230469 0)"/>
     <use xlink:href="#DejaVuSans-20" transform="translate(349.853516 0)"/>
     <use xlink:href="#DejaVuSans-3a" transform="translate(381.640625 0)"/>
     <use xlink:href="#DejaVuSans-20" transform="translate(415.332031 0)"/>
     <use xlink:href="#DejaVuSans-53" transform="translate(447.119141 0)"/>
     <use xlink:href="#DejaVuSans-6f" transform="translate(510.595703 0)"/>
     <use xlink:href="#DejaVuSans-6c" transform="translate(571.777344 0)"/>
     <use xlink:href="#DejaVuSans-76" transform="translate(599.560547 0)"/>
     <use xlink:href="#DejaVuSans-69" transform="translate(658.740234 0)"/>
     <use xlink:href="#DejaVuSans-6e" transform="translate(686.523438 0)"/>
     <use xlink:href="#DejaVuSans-67" transform="translate(749.902344 0)"/>
    </g>
    <!--  the Equations -->
    <g transform="translate(517.616589 336.788143) scale(0.03 -0.03)">
     <use xlink:href="#DejaVuSans-20"/>
     <use xlink:href="#DejaVuSans-74" transform="translate(31.787109 0)"/>
     <use xlink:href="#DejaVuSans-68" transform="translate(70.996094 0)"/>
     <use xlink:href="#DejaVuSans-65" transform="translate(134.375 0)"/>
     <use xlink:href="#DejaVuSans-20" transform="translate(195.898438 0)"/>
     <use xlink:href="#DejaVuSans-45" transform="translate(227.685547 0)"/>
     <use xlink:href="#DejaVuSans-71" transform="translate(290.869141 0)"/>
     <use xlink:href="#DejaVuSans-75" transform="translate(354.345703 0)"/>
     <use xlink:href="#DejaVuSans-61" transform="translate(417.724609 0)"/>
     <use xlink:href="#DejaVuSans-74" transform="translate(479.003906 0)"/>
     <use xlink:href="#DejaVuSans-69" transform="translate(518.212891 0)"/>
     <use xlink:href="#DejaVuSans-6f" transform="translate(545.996094 0)"/>
     <use xlink:href="#DejaVuSans-6e" transform="translate(607.177734 0)"/>
     <use xlink:href="#DejaVuSans-73" transform="translate(670.556641 0)"/>
    </g>
    <!--  -->
    <g transform="translate(528.456198 340.147487) scale(0.03 -0.03)"/>
   </g>
   <g id="text_10">
    <!--  13.4 : Numerical -->
    <g transform="translate(596.168647 202.119717) scale(0.05 -0.05)">
     <defs>
      <path id="DejaVuSans-34" d="M 2419 4116 
L 825 1625 
L 2419 1625 
L 2419 4116 
z
M 2253 4666 
L 3047 4666 
L 3047 1625 
L 3713 1625 
L 3713 1100 
L 3047 1100 
L 3047 0 
L 2419 0 
L 2419 1100 
L 313 1100 
L 313 1709 
L 2253 4666 
z
" transform="scale(0.015625)"/>
      <path id="DejaVuSans-4e" d="M 628 4666 
L 1478 4666 
L 3547 763 
L 3547 4666 
L 4159 4666 
L 4159 0 
L 3309 0 
L 1241 3903 
L 1241 0 
L 628 0 
L 628 4666 
z
" transform="scale(0.015625)"/>
     </defs>
     <use xlink:href="#DejaVuSans-20"/>
     <use xlink:href="#DejaVuSans-31" transform="translate(31.787109 0)"/>
     <use xlink:href="#DejaVuSans-33" transform="translate(95.410156 0)"/>
     <use xlink:href="#DejaVuSans-2e" transform="translate(159.033203 0)"/>
     <use xlink:href="#DejaVuSans-34" transform="translate(190.820312 0)"/>
     <use xlink:href="#DejaVuSans-20" transform="translate(254.443359 0)"/>
     <use xlink:href="#DejaVuSans-3a" transform="translate(286.230469 0)"/>
     <use xlink:href="#DejaVuSans-20" transform="translate(319.921875 0)"/>
     <use xlink:href="#DejaVuSans-4e" transform="translate(351.708984 0)"/>
     <use xlink:href="#DejaVuSans-75" transform="translate(426.513672 0)"/>
     <use xlink:href="#DejaVuSans-6d" transform="translate(489.892578 0)"/>
     <use xlink:href="#DejaVuSans-65" transform="translate(587.304688 0)"/>
     <use xlink:href="#DejaVuSans-72" transform="translate(648.828125 0)"/>
     <use xlink:href="#DejaVuSans-69" transform="translate(689.941406 0)"/>
     <use xlink:href="#DejaVuSans-63" transform="translate(717.724609 0)"/>
     <use xlink:href="#DejaVuSans-61" transform="translate(772.705078 0)"/>
     <use xlink:href="#DejaVuSans-6c" transform="translate(833.984375 0)"/>
    </g>
    <!--  Examples -->
    <g transform="translate(604.769037 207.718623) scale(0.05 -0.05)">
     <defs>
      <path id="DejaVuSans-78" d="M 3513 3500 
L 2247 1797 
L 3578 0 
L 2900 0 
L 1881 1375 
L 863 0 
L 184 0 
L 1544 1831 
L 300 3500 
L 978 3500 
L 1906 2253 
L 2834 3500 
L 3513 3500 
z
" transform="scale(0.015625)"/>
     </defs>
     <use xlink:href="#DejaVuSans-20"/>
     <use xlink:href="#DejaVuSans-45" transform="translate(31.787109 0)"/>
     <use xlink:href="#DejaVuSans-78" transform="translate(94.970703 0)"/>
     <use xlink:href="#DejaVuSans-61" transform="translate(154.150391 0)"/>
     <use xlink:href="#DejaVuSans-6d" transform="translate(215.429688 0)"/>
     <use xlink:href="#DejaVuSans-70" transform="translate(312.841797 0)"/>
     <use xlink:href="#DejaVuSans-6c" transform="translate(376.318359 0)"/>
     <use xlink:href="#DejaVuSans-65" transform="translate(404.101562 0)"/>
     <use xlink:href="#DejaVuSans-73" transform="translate(465.625 0)"/>
    </g>
   </g>
   <g id="text_11">
    <!--  13.4.1 : Numerical -->
    <g transform="translate(603.355053 333.428799) scale(0.03 -0.03)">
     <use xlink:href="#DejaVuSans-20"/>
     <use xlink:href="#DejaVuSans-31" transform="translate(31.787109 0)"/>
     <use xlink:href="#DejaVuSans-33" transform="translate(95.410156 0)"/>
     <use xlink:href="#DejaVuSans-2e" transform="translate(159.033203 0)"/>
     <use xlink:href="#DejaVuSans-34" transform="translate(190.820312 0)"/>
     <use xlink:href="#DejaVuSans-2e" transform="translate(254.443359 0)"/>
     <use xlink:href="#DejaVuSans-31" transform="translate(286.230469 0)"/>
     <use xlink:href="#DejaVuSans-20" transform="translate(349.853516 0)"/>
     <use xlink:href="#DejaVuSans-3a" transform="translate(381.640625 0)"/>
     <use xlink:href="#DejaVuSans-20" transform="translate(415.332031 0)"/>
     <use xlink:href="#DejaVuSans-4e" transform="translate(447.119141 0)"/>
     <use xlink:href="#DejaVuSans-75" transform="translate(521.923828 0)"/>
     <use xlink:href="#DejaVuSans-6d" transform="translate(585.302734 0)"/>
     <use xlink:href="#DejaVuSans-65" transform="translate(682.714844 0)"/>
     <use xlink:href="#DejaVuSans-72" transform="translate(744.238281 0)"/>
     <use xlink:href="#DejaVuSans-69" transform="translate(785.351562 0)"/>
     <use xlink:href="#DejaVuSans-63" transform="translate(813.134766 0)"/>
     <use xlink:href="#DejaVuSans-61" transform="translate(868.115234 0)"/>
     <use xlink:href="#DejaVuSans-6c" transform="translate(929.394531 0)"/>
    </g>
    <!--  Convergence -->
    <g transform="translate(607.345053 336.788143) scale(0.03 -0.03)">
     <use xlink:href="#DejaVuSans-20"/>
     <use xlink:href="#DejaVuSans-43" transform="translate(31.787109 0)"/>
     <use xlink:href="#DejaVuSans-6f" transform="translate(101.611328 0)"/>
     <use xlink:href="#DejaVuSans-6e" transform="translate(162.792969 0)"/>
     <use xlink:href="#DejaVuSans-76" transform="translate(226.171875 0)"/>
     <use xlink:href="#DejaVuSans-65" transform="translate(285.351562 0)"/>
     <use xlink:href="#DejaVuSans-72" transform="translate(346.875 0)"/>
     <use xlink:href="#DejaVuSans-67" transform="translate(386.238281 0)"/>
     <use xlink:href="#DejaVuSans-65" transform="translate(449.714844 0)"/>
     <use xlink:href="#DejaVuSans-6e" transform="translate(511.238281 0)"/>
     <use xlink:href="#DejaVuSans-63" transform="translate(574.617188 0)"/>
     <use xlink:href="#DejaVuSans-65" transform="translate(629.597656 0)"/>
    </g>
    <!--  Tests -->
    <g transform="translate(613.500678 340.147487) scale(0.03 -0.03)">
     <defs>
      <path id="DejaVuSans-54" d="M -19 4666 
L 3928 4666 
L 3928 4134 
L 2272 4134 
L 2272 0 
L 1638 0 
L 1638 4134 
L -19 4134 
L -19 4666 
z
" transform="scale(0.015625)"/>
     </defs>
     <use xlink:href="#DejaVuSans-20"/>
     <use xlink:href="#DejaVuSans-54" transform="translate(31.787109 0)"/>
     <use xlink:href="#DejaVuSans-65" transform="translate(75.871094 0)"/>
     <use xlink:href="#DejaVuSans-73" transform="translate(137.394531 0)"/>
     <use xlink:href="#DejaVuSans-74" transform="translate(189.494141 0)"/>
     <use xlink:href="#DejaVuSans-73" transform="translate(228.703125 0)"/>
    </g>
   </g>
   <g id="text_12">
    <!--  13.4.2 : Water -->
    <g transform="translate(695.827814 330.069456) scale(0.03 -0.03)">
     <defs>
      <path id="DejaVuSans-57" d="M 213 4666 
L 850 4666 
L 1831 722 
L 2809 4666 
L 3519 4666 
L 4500 722 
L 5478 4666 
L 6119 4666 
L 4947 0 
L 4153 0 
L 3169 4050 
L 2175 0 
L 1381 0 
L 213 4666 
z
" transform="scale(0.015625)"/>
     </defs>
     <use xlink:href="#DejaVuSans-20"/>
     <use xlink:href="#DejaVuSans-31" transform="translate(31.787109 0)"/>
     <use xlink:href="#DejaVuSans-33" transform="translate(95.410156 0)"/>
     <use xlink:href="#DejaVuSans-2e" transform="translate(159.033203 0)"/>
     <use xlink:href="#DejaVuSans-34" transform="translate(190.820312 0)"/>
     <use xlink:href="#DejaVuSans-2e" transform="translate(254.443359 0)"/>
     <use xlink:href="#DejaVuSans-32" transform="translate(286.230469 0)"/>
     <use xlink:href="#DejaVuSans-20" transform="translate(349.853516 0)"/>
     <use xlink:href="#DejaVuSans-3a" transform="translate(381.640625 0)"/>
     <use xlink:href="#DejaVuSans-20" transform="translate(415.332031 0)"/>
     <use xlink:href="#DejaVuSans-57" transform="translate(447.119141 0)"/>
     <use xlink:href="#DejaVuSans-61" transform="translate(539.621094 0)"/>
     <use xlink:href="#DejaVuSans-74" transform="translate(600.900391 0)"/>
     <use xlink:href="#DejaVuSans-65" transform="translate(640.109375 0)"/>
     <use xlink:href="#DejaVuSans-72" transform="translate(701.632812 0)"/>
    </g>
    <!--  Infiltration -->
    <g transform="translate(698.740158 333.428799) scale(0.03 -0.03)">
     <defs>
      <path id="DejaVuSans-66" d="M 2375 4863 
L 2375 4384 
L 1825 4384 
Q 1516 4384 1395 4259 
Q 1275 4134 1275 3809 
L 1275 3500 
L 2222 3500 
L 2222 3053 
L 1275 3053 
L 1275 0 
L 697 0 
L 697 3053 
L 147 3053 
L 147 3500 
L 697 3500 
L 697 3744 
Q 697 4328 969 4595 
Q 1241 4863 1831 4863 
L 2375 4863 
z
" transform="scale(0.015625)"/>
     </defs>
     <use xlink:href="#DejaVuSans-20"/>
     <use xlink:href="#DejaVuSans-49" transform="translate(31.787109 0)"/>
     <use xlink:href="#DejaVuSans-6e" transform="translate(61.279297 0)"/>
     <use xlink:href="#DejaVuSans-66" transform="translate(124.658203 0)"/>
     <use xlink:href="#DejaVuSans-69" transform="translate(159.863281 0)"/>
     <use xlink:href="#DejaVuSans-6c" transform="translate(187.646484 0)"/>
     <use xlink:href="#DejaVuSans-74" transform="translate(215.429688 0)"/>
     <use xlink:href="#DejaVuSans-72" transform="translate(254.638672 0)"/>
     <use xlink:href="#DejaVuSans-61" transform="translate(295.751953 0)"/>
     <use xlink:href="#DejaVuSans-74" transform="translate(357.03125 0)"/>
     <use xlink:href="#DejaVuSans-69" transform="translate(396.240234 0)"/>
     <use xlink:href="#DejaVuSans-6f" transform="translate(424.023438 0)"/>
     <use xlink:href="#DejaVuSans-6e" transform="translate(485.205078 0)"/>
    </g>
    <!--  in a Column -->
    <g transform="translate(697.507579 336.788143) scale(0.03 -0.03)">
     <use xlink:href="#DejaVuSans-20"/>
     <use xlink:href="#DejaVuSans-69" transform="translate(31.787109 0)"/>
     <use xlink:href="#DejaVuSans-6e" transform="translate(59.570312 0)"/>
     <use xlink:href="#DejaVuSans-20" transform="translate(122.949219 0)"/>
     <use xlink:href="#DejaVuSans-61" transform="translate(154.736328 0)"/>
     <use xlink:href="#DejaVuSans-20" transform="translate(216.015625 0)"/>
     <use xlink:href="#DejaVuSans-43" transform="translate(247.802734 0)"/>
     <use xlink:href="#DejaVuSans-6f" transform="translate(317.626953 0)"/>
     <use xlink:href="#DejaVuSans-6c" transform="translate(378.808594 0)"/>
     <use xlink:href="#DejaVuSans-75" transform="translate(406.591797 0)"/>
     <use xlink:href="#DejaVuSans-6d" transform="translate(469.970703 0)"/>
     <use xlink:href="#DejaVuSans-6e" transform="translate(567.382812 0)"/>
    </g>
    <!--  of Dry Soil -->
    <g transform="translate(698.729611 340.147487) scale(0.03 -0.03)">
     <use xlink:href="#DejaVuSans-20"/>
     <use xlink:href="#DejaVuSans-6f" transform="translate(31.787109 0)"/>
     <use xlink:href="#DejaVuSans-66" transform="translate(92.96875 0)"/>
     <use xlink:href="#DejaVuSans-20" transform="translate(128.173828 0)"/>
     <use xlink:href="#DejaVuSans-44" transform="translate(159.960938 0)"/>
     <use xlink:href="#DejaVuSans-72" transform="translate(236.962891 0)"/>
     <use xlink:href="#DejaVuSans-79" transform="translate(278.076172 0)"/>
     <use xlink:href="#DejaVuSans-20" transform="translate(337.255859 0)"/>
     <use xlink:href="#DejaVuSans-53" transform="translate(369.042969 0)"/>
     <use xlink:href="#DejaVuSans-6f" transform="translate(432.519531 0)"/>
     <use xlink:href="#DejaVuSans-69" transform="translate(493.701172 0)"/>
     <use xlink:href="#DejaVuSans-6c" transform="translate(521.484375 0)"/>
    </g>
    <!--  -->
    <g transform="translate(706.968595 343.506831) scale(0.03 -0.03)"/>
   </g>
   <g id="text_13">
    <!--  13.4.3 : Desiccation -->
    <g transform="translate(780.80034 331.749127) scale(0.03 -0.03)">
     <use xlink:href="#DejaVuSans-20"/>
     <use xlink:href="#DejaVuSans-31" transform="translate(31.787109 0)"/>
     <use xlink:href="#DejaVuSans-33" transform="translate(95.410156 0)"/>
     <use xlink:href="#DejaVuSans-2e" transform="translate(159.033203 0)"/>
     <use xlink:href="#DejaVuSans-34" transform="translate(190.820312 0)"/>
     <use xlink:href="#DejaVuSans-2e" transform="translate(254.443359 0)"/>
     <use xlink:href="#DejaVuSans-33" transform="translate(286.230469 0)"/>
     <use xlink:href="#DejaVuSans-20" transform="translate(349.853516 0)"/>
     <use xlink:href="#DejaVuSans-3a" transform="translate(381.640625 0)"/>
     <use xlink:href="#DejaVuSans-20" transform="translate(415.332031 0)"/>
     <use xlink:href="#DejaVuSans-44" transform="translate(447.119141 0)"/>
     <use xlink:href="#DejaVuSans-65" transform="translate(524.121094 0)"/>
     <use xlink:href="#DejaVuSans-73" transform="translate(585.644531 0)"/>
     <use xlink:href="#DejaVuSans-69" transform="translate(637.744141 0)"/>
     <use xlink:href="#DejaVuSans-63" transform="translate(665.527344 0)"/>
     <use xlink:href="#DejaVuSans-63" transform="translate(720.507812 0)"/>
     <use xlink:href="#DejaVuSans-61" transform="translate(775.488281 0)"/>
     <use xlink:href="#DejaVuSans-74" transform="translate(836.767578 0)"/>
     <use xlink:href="#DejaVuSans-69" transform="translate(875.976562 0)"/>
     <use xlink:href="#DejaVuSans-6f" transform="translate(903.759766 0)"/>
     <use xlink:href="#DejaVuSans-6e" transform="translate(964.941406 0)"/>
    </g>
    <!--  of a Clayey -->
    <g transform="translate(787.347606 335.108471) scale(0.03 -0.03)">
     <use xlink:href="#DejaVuSans-20"/>
     <use xlink:href="#DejaVuSans-6f" transform="translate(31.787109 0)"/>
     <use xlink:href="#DejaVuSans-66" transform="translate(92.96875 0)"/>
     <use xlink:href="#DejaVuSans-20" transform="translate(128.173828 0)"/>
     <use xlink:href="#DejaVuSans-61" transform="translate(159.960938 0)"/>
     <use xlink:href="#DejaVuSans-20" transform="translate(221.240234 0)"/>
     <use xlink:href="#DejaVuSans-43" transform="translate(253.027344 0)"/>
     <use xlink:href="#DejaVuSans-6c" transform="translate(322.851562 0)"/>
     <use xlink:href="#DejaVuSans-61" transform="translate(350.634766 0)"/>
     <use xlink:href="#DejaVuSans-79" transform="translate(411.914062 0)"/>
     <use xlink:href="#DejaVuSans-65" transform="translate(471.09375 0)"/>
     <use xlink:href="#DejaVuSans-79" transform="translate(532.617188 0)"/>
    </g>
    <!--  Soil in a Petri -->
    <g transform="translate(785.933387 338.467815) scale(0.03 -0.03)">
     <use xlink:href="#DejaVuSans-20"/>
     <use xlink:href="#DejaVuSans-53" transform="translate(31.787109 0)"/>
     <use xlink:href="#DejaVuSans-6f" transform="translate(95.263672 0)"/>
     <use xlink:href="#DejaVuSans-69" transform="translate(156.445312 0)"/>
     <use xlink:href="#DejaVuSans-6c" transform="translate(184.228516 0)"/>
     <use xlink:href="#DejaVuSans-20" transform="translate(212.011719 0)"/>
     <use xlink:href="#DejaVuSans-69" transform="translate(243.798828 0)"/>
     <use xlink:href="#DejaVuSans-6e" transform="translate(271.582031 0)"/>
     <use xlink:href="#DejaVuSans-20" transform="translate(334.960938 0)"/>
     <use xlink:href="#DejaVuSans-61" transform="translate(366.748047 0)"/>
     <use xlink:href="#DejaVuSans-20" transform="translate(428.027344 0)"/>
     <use xlink:href="#DejaVuSans-50" transform="translate(459.814453 0)"/>
     <use xlink:href="#DejaVuSans-65" transform="translate(516.492188 0)"/>
     <use xlink:href="#DejaVuSans-74" transform="translate(578.015625 0)"/>
     <use xlink:href="#DejaVuSans-72" transform="translate(617.224609 0)"/>
     <use xlink:href="#DejaVuSans-69" transform="translate(658.337891 0)"/>
    </g>
    <!--  Dish -->
    <g transform="translate(792.444325 341.827159) scale(0.03 -0.03)">
     <use xlink:href="#DejaVuSans-20"/>
     <use xlink:href="#DejaVuSans-44" transform="translate(31.787109 0)"/>
     <use xlink:href="#DejaVuSans-69" transform="translate(108.789062 0)"/>
     <use xlink:href="#DejaVuSans-73" transform="translate(136.572266 0)"/>
     <use xlink:href="#DejaVuSans-68" transform="translate(188.671875 0)"/>
    </g>
   </g>
   <g id="text_14">
    <!--  13.5 : Concluding -->
    <g transform="translate(722.556923 202.687623) scale(0.03 -0.03)">
     <defs>
      <path id="DejaVuSans-35" d="M 691 4666 
L 3169 4666 
L 3169 4134 
L 1269 4134 
L 1269 2991 
Q 1406 3038 1543 3061 
Q 1681 3084 1819 3084 
Q 2600 3084 3056 2656 
Q 3513 2228 3513 1497 
Q 3513 744 3044 326 
Q 2575 -91 1722 -91 
Q 1428 -91 1123 -41 
Q 819 9 494 109 
L 494 744 
Q 775 591 1075 516 
Q 1375 441 1709 441 
Q 2250 441 2565 725 
Q 2881 1009 2881 1497 
Q 2881 1984 2565 2268 
Q 2250 2553 1709 2553 
Q 1456 2553 1204 2497 
Q 953 2441 691 2322 
L 691 4666 
z
" transform="scale(0.015625)"/>
     </defs>
     <use xlink:href="#DejaVuSans-20"/>
     <use xlink:href="#DejaVuSans-31" transform="translate(31.787109 0)"/>
     <use xlink:href="#DejaVuSans-33" transform="translate(95.410156 0)"/>
     <use xlink:href="#DejaVuSans-2e" transform="translate(159.033203 0)"/>
     <use xlink:href="#DejaVuSans-35" transform="translate(190.820312 0)"/>
     <use xlink:href="#DejaVuSans-20" transform="translate(254.443359 0)"/>
     <use xlink:href="#DejaVuSans-3a" transform="translate(286.230469 0)"/>
     <use xlink:href="#DejaVuSans-20" transform="translate(319.921875 0)"/>
     <use xlink:href="#DejaVuSans-43" transform="translate(351.708984 0)"/>
     <use xlink:href="#DejaVuSans-6f" transform="translate(421.533203 0)"/>
     <use xlink:href="#DejaVuSans-6e" transform="translate(482.714844 0)"/>
     <use xlink:href="#DejaVuSans-63" transform="translate(546.09375 0)"/>
     <use xlink:href="#DejaVuSans-6c" transform="translate(601.074219 0)"/>
     <use xlink:href="#DejaVuSans-75" transform="translate(628.857422 0)"/>
     <use xlink:href="#DejaVuSans-64" transform="translate(692.236328 0)"/>
     <use xlink:href="#DejaVuSans-69" transform="translate(755.712891 0)"/>
     <use xlink:href="#DejaVuSans-6e" transform="translate(783.496094 0)"/>
     <use xlink:href="#DejaVuSans-67" transform="translate(846.875 0)"/>
    </g>
    <!--  Remarks -->
    <g transform="translate(729.190673 206.046967) scale(0.03 -0.03)">
     <defs>
      <path id="DejaVuSans-6b" d="M 581 4863 
L 1159 4863 
L 1159 1991 
L 2875 3500 
L 3609 3500 
L 1753 1863 
L 3688 0 
L 2938 0 
L 1159 1709 
L 1159 0 
L 581 0 
L 581 4863 
z
" transform="scale(0.015625)"/>
     </defs>
     <use xlink:href="#DejaVuSans-20"/>
     <use xlink:href="#DejaVuSans-52" transform="translate(31.787109 0)"/>
     <use xlink:href="#DejaVuSans-65" transform="translate(96.769531 0)"/>
     <use xlink:href="#DejaVuSans-6d" transform="translate(158.292969 0)"/>
     <use xlink:href="#DejaVuSans-61" transform="translate(255.705078 0)"/>
     <use xlink:href="#DejaVuSans-72" transform="translate(316.984375 0)"/>
     <use xlink:href="#DejaVuSans-6b" transform="translate(358.097656 0)"/>
     <use xlink:href="#DejaVuSans-73" transform="translate(416.007812 0)"/>
    </g>
   </g>
   <g id="text_15">
    <!--  13: A Finite-Volume-Based -->
    <g transform="translate(372.389062 28.749191) scale(0.1 -0.1)">
     <defs>
      <path id="DejaVuSans-2d" d="M 313 2009 
L 1997 2009 
L 1997 1497 
L 313 1497 
L 313 2009 
z
" transform="scale(0.015625)"/>
      <path id="DejaVuSans-56" d="M 1831 0 
L 50 4666 
L 709 4666 
L 2188 738 
L 3669 4666 
L 4325 4666 
L 2547 0 
L 1831 0 
z
" transform="scale(0.015625)"/>
     </defs>
     <use xlink:href="#DejaVuSans-20"/>
     <use xlink:href="#DejaVuSans-31" transform="translate(31.787109 0)"/>
     <use xlink:href="#DejaVuSans-33" transform="translate(95.410156 0)"/>
     <use xlink:href="#DejaVuSans-3a" transform="translate(159.033203 0)"/>
     <use xlink:href="#DejaVuSans-20" transform="translate(192.724609 0)"/>
     <use xlink:href="#DejaVuSans-41" transform="translate(224.511719 0)"/>
     <use xlink:href="#DejaVuSans-20" transform="translate(292.919922 0)"/>
     <use xlink:href="#DejaVuSans-46" transform="translate(324.707031 0)"/>
     <use xlink:href="#DejaVuSans-69" transform="translate(374.976562 0)"/>
     <use xlink:href="#DejaVuSans-6e" transform="translate(402.759766 0)"/>
     <use xlink:href="#DejaVuSans-69" transform="translate(466.138672 0)"/>
     <use xlink:href="#DejaVuSans-74" transform="translate(493.921875 0)"/>
     <use xlink:href="#DejaVuSans-65" transform="translate(533.130859 0)"/>
     <use xlink:href="#DejaVuSans-2d" transform="translate(594.654297 0)"/>
     <use xlink:href="#DejaVuSans-56" transform="translate(624.863281 0)"/>
     <use xlink:href="#DejaVuSans-6f" transform="translate(685.521484 0)"/>
     <use xlink:href="#DejaVuSans-6c" transform="translate(746.703125 0)"/>
     <use xlink:href="#DejaVuSans-75" transform="translate(774.486328 0)"/>
     <use xlink:href="#DejaVuSans-6d" transform="translate(837.865234 0)"/>
     <use xlink:href="#DejaVuSans-65" transform="translate(935.277344 0)"/>
     <use xlink:href="#DejaVuSans-2d" transform="translate(996.800781 0)"/>
     <use xlink:href="#DejaVuSans-42" transform="translate(1029.259766 0)"/>
     <use xlink:href="#DejaVuSans-61" transform="translate(1097.863281 0)"/>
     <use xlink:href="#DejaVuSans-73" transform="translate(1159.142578 0)"/>
     <use xlink:href="#DejaVuSans-65" transform="translate(1211.242188 0)"/>
     <use xlink:href="#DejaVuSans-64" transform="translate(1272.765625 0)"/>
    </g>
    <!--  Module for -->
    <g transform="translate(410.964844 39.947004) scale(0.1 -0.1)">
     <use xlink:href="#DejaVuSans-20"/>
     <use xlink:href="#DejaVuSans-4d" transform="translate(31.787109 0)"/>
     <use xlink:href="#DejaVuSans-6f" transform="translate(118.066406 0)"/>
     <use xlink:href="#DejaVuSans-64" transform="translate(179.248047 0)"/>
     <use xlink:href="#DejaVuSans-75" transform="translate(242.724609 0)"/>
     <use xlink:href="#DejaVuSans-6c" transform="translate(306.103516 0)"/>
     <use xlink:href="#DejaVuSans-65" transform="translate(333.886719 0)"/>
     <use xlink:href="#DejaVuSans-20" transform="translate(395.410156 0)"/>
     <use xlink:href="#DejaVuSans-66" transform="translate(427.197266 0)"/>
     <use xlink:href="#DejaVuSans-6f" transform="translate(462.402344 0)"/>
     <use xlink:href="#DejaVuSans-72" transform="translate(523.583984 0)"/>
    </g>
    <!--  Unsaturated -->
    <g transform="translate(406.654687 51.144816) scale(0.1 -0.1)">
     <use xlink:href="#DejaVuSans-20"/>
     <use xlink:href="#DejaVuSans-55" transform="translate(31.787109 0)"/>
     <use xlink:href="#DejaVuSans-6e" transform="translate(104.980469 0)"/>
     <use xlink:href="#DejaVuSans-73" transform="translate(168.359375 0)"/>
     <use xlink:href="#DejaVuSans-61" transform="translate(220.458984 0)"/>
     <use xlink:href="#DejaVuSans-74" transform="translate(281.738281 0)"/>
     <use xlink:href="#DejaVuSans-75" transform="translate(320.947266 0)"/>
     <use xlink:href="#DejaVuSans-72" transform="translate(384.326172 0)"/>
     <use xlink:href="#DejaVuSans-61" transform="translate(425.439453 0)"/>
     <use xlink:href="#DejaVuSans-74" transform="translate(486.71875 0)"/>
     <use xlink:href="#DejaVuSans-65" transform="translate(525.927734 0)"/>
     <use xlink:href="#DejaVuSans-64" transform="translate(587.451172 0)"/>
    </g>
    <!--  Poroelasticity -->
    <g transform="translate(404.174219 62.342629) scale(0.1 -0.1)">
     <use xlink:href="#DejaVuSans-20"/>
     <use xlink:href="#DejaVuSans-50" transform="translate(31.787109 0)"/>
     <use xlink:href="#DejaVuSans-6f" transform="translate(88.464844 0)"/>
     <use xlink:href="#DejaVuSans-72" transform="translate(149.646484 0)"/>
     <use xlink:href="#DejaVuSans-6f" transform="translate(188.509766 0)"/>
     <use xlink:href="#DejaVuSans-65" transform="translate(249.691406 0)"/>
     <use xlink:href="#DejaVuSans-6c" transform="translate(311.214844 0)"/>
     <use xlink:href="#DejaVuSans-61" transform="translate(338.998047 0)"/>
     <use xlink:href="#DejaVuSans-73" transform="translate(400.277344 0)"/>
     <use xlink:href="#DejaVuSans-74" transform="translate(452.376953 0)"/>
     <use xlink:href="#DejaVuSans-69" transform="translate(491.585938 0)"/>
     <use xlink:href="#DejaVuSans-63" transform="translate(519.369141 0)"/>
     <use xlink:href="#DejaVuSans-69" transform="translate(574.349609 0)"/>
     <use xlink:href="#DejaVuSans-74" transform="translate(602.132812 0)"/>
     <use xlink:href="#DejaVuSans-79" transform="translate(641.341797 0)"/>
    </g>
    <!--  -->
    <g transform="translate(439.2 73.540441) scale(0.1 -0.1)"/>
   </g>
  </g>
 </g>
 <defs>
  <clipPath id="p8afddae48a">
   <rect x="7.2" y="7.2" width="864" height="360"/>
  </clipPath>
 </defs>
</svg>
