<?xml version="1.0" encoding="utf-8" standalone="no"?>
<!DOCTYPE svg PUBLIC "-//W3C//DTD SVG 1.1//EN"
  "http://www.w3.org/Graphics/SVG/1.1/DTD/svg11.dtd">
<svg xmlns:xlink="http://www.w3.org/1999/xlink" width="851.4pt" height="347.04pt" viewBox="0 0 851.4 347.04" xmlns="http://www.w3.org/2000/svg" version="1.1">
 <metadata>
  <rdf:RDF xmlns:dc="http://purl.org/dc/elements/1.1/" xmlns:cc="http://creativecommons.org/ns#" xmlns:rdf="http://www.w3.org/1999/02/22-rdf-syntax-ns#">
   <cc:Work>
    <dc:type rdf:resource="http://purl.org/dc/dcmitype/StillImage"/>
    <dc:date>2025-07-09T13:06:55.928029</dc:date>
    <dc:format>image/svg+xml</dc:format>
    <dc:creator>
     <cc:Agent>
      <dc:title>Matplotlib v3.10.3, https://matplotlib.org/</dc:title>
     </cc:Agent>
    </dc:creator>
   </cc:Work>
  </rdf:RDF>
 </metadata>
 <defs>
  <style type="text/css">*{stroke-linejoin: round; stroke-linecap: butt}</style>
 </defs>
 <g id="figure_1">
  <g id="patch_1">
   <path d="M 0 347.04 
L 851.4 347.04 
L 851.4 -0 
L 0 -0 
z
" style="fill: #ffffff"/>
  </g>
  <g id="axes_1">
   <g id="patch_2">
    <path d="M 343.607371 202.106884 
Q 220.669142 252.847062 98.764384 303.160696 
" clip-path="url(#pa5adb7c925)" style="fill: none; stroke: #000000; stroke-linecap: round"/>
    <path d="M 103.224864 303.483377 
L 98.764384 303.160696 
L 101.698816 299.785921 
z
" clip-path="url(#pa5adb7c925)" style="stroke: #000000; stroke-linecap: round"/>
   </g>
   <g id="patch_3">
    <path d="M 346.22653 207.22998 
Q 270.671293 254.005741 196.066662 300.192989 
" clip-path="url(#pa5adb7c925)" style="fill: none; stroke: #000000; stroke-linecap: round"/>
    <path d="M 200.520419 299.787953 
L 196.066662 300.192989 
L 198.414887 296.386962 
z
" clip-path="url(#pa5adb7c925)" style="stroke: #000000; stroke-linecap: round"/>
   </g>
   <g id="patch_4">
    <path d="M 354.073453 216.126319 
Q 321.856128 256.017396 290.341274 295.038684 
" clip-path="url(#pa5adb7c925)" style="fill: none; stroke: #000000; stroke-linecap: round"/>
    <path d="M 294.410437 293.183446 
L 290.341274 295.038684 
L 291.298581 290.67021 
z
" clip-path="url(#pa5adb7c925)" style="stroke: #000000; stroke-linecap: round"/>
   </g>
   <g id="patch_5">
    <path d="M 376.290319 223.975261 
Q 376.290319 257.793418 376.290319 290.493542 
" clip-path="url(#pa5adb7c925)" style="fill: none; stroke: #000000; stroke-linecap: round"/>
    <path d="M 378.290319 286.493542 
L 376.290319 290.493542 
L 374.290319 286.493542 
z
" clip-path="url(#pa5adb7c925)" style="stroke: #000000; stroke-linecap: round"/>
   </g>
   <g id="patch_6">
    <path d="M 398.507184 216.126319 
Q 430.724509 256.017396 462.239364 295.038684 
" clip-path="url(#pa5adb7c925)" style="fill: none; stroke: #000000; stroke-linecap: round"/>
    <path d="M 461.282056 290.67021 
L 462.239364 295.038684 
L 458.1702 293.183446 
z
" clip-path="url(#pa5adb7c925)" style="stroke: #000000; stroke-linecap: round"/>
   </g>
   <g id="patch_7">
    <path d="M 573.929044 223.975261 
Q 573.929044 257.793418 573.929044 290.493542 
" clip-path="url(#pa5adb7c925)" style="fill: none; stroke: #000000; stroke-linecap: round"/>
    <path d="M 575.929044 286.493542 
L 573.929044 290.493542 
L 571.929044 286.493542 
z
" clip-path="url(#pa5adb7c925)" style="stroke: #000000; stroke-linecap: round"/>
   </g>
   <g id="patch_8">
    <path d="M 596.145909 216.126319 
Q 628.363234 256.017396 659.878089 295.038684 
" clip-path="url(#pa5adb7c925)" style="fill: none; stroke: #000000; stroke-linecap: round"/>
    <path d="M 658.920781 290.67021 
L 659.878089 295.038684 
L 655.808925 293.183446 
z
" clip-path="url(#pa5adb7c925)" style="stroke: #000000; stroke-linecap: round"/>
   </g>
   <g id="patch_9">
    <path d="M 603.992832 207.22998 
Q 679.548069 254.005741 754.1527 300.192989 
" clip-path="url(#pa5adb7c925)" style="fill: none; stroke: #000000; stroke-linecap: round"/>
    <path d="M 751.804475 296.386962 
L 754.1527 300.192989 
L 749.698944 299.787953 
z
" clip-path="url(#pa5adb7c925)" style="stroke: #000000; stroke-linecap: round"/>
   </g>
   <g id="patch_10">
    <path d="M 317.365007 75.146255 
Q 239.88809 126.530964 163.34291 177.29772 
" clip-path="url(#pa5adb7c925)" style="fill: none; stroke: #000000; stroke-linecap: round"/>
    <path d="M 167.781822 176.753608 
L 163.34291 177.29772 
L 165.570968 173.420123 
z
" clip-path="url(#pa5adb7c925)" style="stroke: #000000; stroke-linecap: round"/>
   </g>
   <g id="patch_11">
    <path d="M 330.184715 89.676147 
Q 293.953489 131.805107 258.451268 173.086393 
" clip-path="url(#pa5adb7c925)" style="fill: none; stroke: #000000; stroke-linecap: round"/>
    <path d="M 262.575803 171.357749 
L 258.451268 173.086393 
L 259.543074 168.749579 
z
" clip-path="url(#pa5adb7c925)" style="stroke: #000000; stroke-linecap: round"/>
   </g>
   <g id="patch_12">
    <path d="M 376.290319 106.778216 
Q 376.290319 130.017847 376.290319 152.139444 
" clip-path="url(#pa5adb7c925)" style="fill: none; stroke: #000000; stroke-linecap: round"/>
    <path d="M 378.290319 148.139444 
L 376.290319 152.139444 
L 374.290319 148.139444 
z
" clip-path="url(#pa5adb7c925)" style="stroke: #000000; stroke-linecap: round"/>
   </g>
   <g id="patch_13">
    <path d="M 432.265239 79.27105 
Q 489.103906 123.143349 545.057525 166.332502 
" clip-path="url(#pa5adb7c925)" style="fill: none; stroke: #000000; stroke-linecap: round"/>
    <path d="M 543.113128 162.305181 
L 545.057525 166.332502 
L 540.66903 165.471627 
z
" clip-path="url(#pa5adb7c925)" style="stroke: #000000; stroke-linecap: round"/>
   </g>
   <g id="patch_14">
    <path d="M 440.433075 65.822403 
Q 563.996553 123.145666 686.545821 179.998419 
" clip-path="url(#pa5adb7c925)" style="fill: none; stroke: #000000; stroke-linecap: round"/>
    <path d="M 683.758948 176.5008 
L 686.545821 179.998419 
L 682.075602 180.129346 
z
" clip-path="url(#pa5adb7c925)" style="stroke: #000000; stroke-linecap: round"/>
   </g>
   <g id="PathCollection_1">
    <path d="M 146.27488 207.982598 
C 151.410516 207.982598 156.336501 205.942189 159.967944 202.310746 
C 163.599387 198.679303 165.639796 193.753318 165.639796 188.617682 
C 165.639796 183.482046 163.599387 178.556061 159.967944 174.924618 
C 156.336501 171.293175 151.410516 169.252765 146.27488 169.252765 
C 141.139244 169.252765 136.213259 171.293175 132.581816 174.924618 
C 128.950373 178.556061 126.909963 183.482046 126.909963 188.617682 
C 126.909963 193.753318 128.950373 198.679303 132.581816 202.310746 
C 136.213259 205.942189 141.139244 207.982598 146.27488 207.982598 
z
" clip-path="url(#pa5adb7c925)" style="fill: #add8e6; stroke: #add8e6"/>
    <path d="M 245.094242 207.982598 
C 250.229878 207.982598 255.155863 205.942189 258.787306 202.310746 
C 262.418749 198.679303 264.459159 193.753318 264.459159 188.617682 
C 264.459159 183.482046 262.418749 178.556061 258.787306 174.924618 
C 255.155863 171.293175 250.229878 169.252765 245.094242 169.252765 
C 239.958606 169.252765 235.032621 171.293175 231.401178 174.924618 
C 227.769735 178.556061 225.729325 183.482046 225.729325 188.617682 
C 225.729325 193.753318 227.769735 198.679303 231.401178 202.310746 
C 235.032621 205.942189 239.958606 207.982598 245.094242 207.982598 
z
" clip-path="url(#pa5adb7c925)" style="fill: #add8e6; stroke: #add8e6"/>
    <path d="M 376.290319 223.973021 
C 385.666664 223.973021 394.660241 220.247759 401.290319 213.617682 
C 407.920396 206.987604 411.645658 197.994027 411.645658 188.617682 
C 411.645658 179.241336 407.920396 170.247759 401.290319 163.617682 
C 394.660241 156.987604 385.666664 153.262343 376.290319 153.262343 
C 366.913973 153.262343 357.920396 156.987604 351.290319 163.617682 
C 344.660241 170.247759 340.93498 179.241336 340.93498 188.617682 
C 340.93498 197.994027 344.660241 206.987604 351.290319 213.617682 
C 357.920396 220.247759 366.913973 223.973021 376.290319 223.973021 
z
" clip-path="url(#pa5adb7c925)" style="fill: #add8e6; stroke: #add8e6"/>
    <path d="M 79.832231 330.339462 
C 84.967867 330.339462 89.893852 328.299052 93.525295 324.667609 
C 97.156738 321.036166 99.197148 316.110181 99.197148 310.974545 
C 99.197148 305.83891 97.156738 300.912925 93.525295 297.281482 
C 89.893852 293.650039 84.967867 291.609629 79.832231 291.609629 
C 74.696595 291.609629 69.77061 293.650039 66.139167 297.281482 
C 62.507724 300.912925 60.467315 305.83891 60.467315 310.974545 
C 60.467315 316.110181 62.507724 321.036166 66.139167 324.667609 
C 69.77061 328.299052 74.696595 330.339462 79.832231 330.339462 
z
" clip-path="url(#pa5adb7c925)" style="fill: #add8e6; stroke: #add8e6"/>
    <path d="M 178.651594 330.339462 
C 183.78723 330.339462 188.713215 328.299052 192.344658 324.667609 
C 195.976101 321.036166 198.016511 316.110181 198.016511 310.974545 
C 198.016511 305.83891 195.976101 300.912925 192.344658 297.281482 
C 188.713215 293.650039 183.78723 291.609629 178.651594 291.609629 
C 173.515958 291.609629 168.589973 293.650039 164.95853 297.281482 
C 161.327087 300.912925 159.286677 305.83891 159.286677 310.974545 
C 159.286677 316.110181 161.327087 321.036166 164.95853 324.667609 
C 168.589973 328.299052 173.515958 330.339462 178.651594 330.339462 
z
" clip-path="url(#pa5adb7c925)" style="fill: #add8e6; stroke: #add8e6"/>
    <path d="M 277.470956 330.339462 
C 282.606592 330.339462 287.532577 328.299052 291.16402 324.667609 
C 294.795463 321.036166 296.835873 316.110181 296.835873 310.974545 
C 296.835873 305.83891 294.795463 300.912925 291.16402 297.281482 
C 287.532577 293.650039 282.606592 291.609629 277.470956 291.609629 
C 272.33532 291.609629 267.409335 293.650039 263.777892 297.281482 
C 260.146449 300.912925 258.10604 305.83891 258.10604 310.974545 
C 258.10604 316.110181 260.146449 321.036166 263.777892 324.667609 
C 267.409335 328.299052 272.33532 330.339462 277.470956 330.339462 
z
" clip-path="url(#pa5adb7c925)" style="fill: #add8e6; stroke: #add8e6"/>
    <path d="M 376.290319 330.339462 
C 381.425955 330.339462 386.35194 328.299052 389.983383 324.667609 
C 393.614826 321.036166 395.655236 316.110181 395.655236 310.974545 
C 395.655236 305.83891 393.614826 300.912925 389.983383 297.281482 
C 386.35194 293.650039 381.425955 291.609629 376.290319 291.609629 
C 371.154683 291.609629 366.228698 293.650039 362.597255 297.281482 
C 358.965812 300.912925 356.925402 305.83891 356.925402 310.974545 
C 356.925402 316.110181 358.965812 321.036166 362.597255 324.667609 
C 366.228698 328.299052 371.154683 330.339462 376.290319 330.339462 
z
" clip-path="url(#pa5adb7c925)" style="fill: #add8e6; stroke: #add8e6"/>
    <path d="M 475.109681 330.339462 
C 480.245317 330.339462 485.171302 328.299052 488.802745 324.667609 
C 492.434188 321.036166 494.474598 316.110181 494.474598 310.974545 
C 494.474598 305.83891 492.434188 300.912925 488.802745 297.281482 
C 485.171302 293.650039 480.245317 291.609629 475.109681 291.609629 
C 469.974045 291.609629 465.04806 293.650039 461.416617 297.281482 
C 457.785174 300.912925 455.744764 305.83891 455.744764 310.974545 
C 455.744764 316.110181 457.785174 321.036166 461.416617 324.667609 
C 465.04806 328.299052 469.974045 330.339462 475.109681 330.339462 
z
" clip-path="url(#pa5adb7c925)" style="fill: #add8e6; stroke: #add8e6"/>
    <path d="M 573.929044 223.973021 
C 583.305389 223.973021 592.298966 220.247759 598.929044 213.617682 
C 605.559121 206.987604 609.284383 197.994027 609.284383 188.617682 
C 609.284383 179.241336 605.559121 170.247759 598.929044 163.617682 
C 592.298966 156.987604 583.305389 153.262343 573.929044 153.262343 
C 564.552698 153.262343 555.559121 156.987604 548.929044 163.617682 
C 542.298966 170.247759 538.573705 179.241336 538.573705 188.617682 
C 538.573705 197.994027 542.298966 206.987604 548.929044 213.617682 
C 555.559121 220.247759 564.552698 223.973021 573.929044 223.973021 
z
" clip-path="url(#pa5adb7c925)" style="fill: #add8e6; stroke: #add8e6"/>
    <path d="M 573.929044 330.339462 
C 579.06468 330.339462 583.990665 328.299052 587.622108 324.667609 
C 591.253551 321.036166 593.29396 316.110181 593.29396 310.974545 
C 593.29396 305.83891 591.253551 300.912925 587.622108 297.281482 
C 583.990665 293.650039 579.06468 291.609629 573.929044 291.609629 
C 568.793408 291.609629 563.867423 293.650039 560.23598 297.281482 
C 556.604537 300.912925 554.564127 305.83891 554.564127 310.974545 
C 554.564127 316.110181 556.604537 321.036166 560.23598 324.667609 
C 563.867423 328.299052 568.793408 330.339462 573.929044 330.339462 
z
" clip-path="url(#pa5adb7c925)" style="fill: #add8e6; stroke: #add8e6"/>
    <path d="M 672.748406 330.339462 
C 677.884042 330.339462 682.810027 328.299052 686.44147 324.667609 
C 690.072913 321.036166 692.113323 316.110181 692.113323 310.974545 
C 692.113323 305.83891 690.072913 300.912925 686.44147 297.281482 
C 682.810027 293.650039 677.884042 291.609629 672.748406 291.609629 
C 667.61277 291.609629 662.686785 293.650039 659.055342 297.281482 
C 655.423899 300.912925 653.383489 305.83891 653.383489 310.974545 
C 653.383489 316.110181 655.423899 321.036166 659.055342 324.667609 
C 662.686785 328.299052 667.61277 330.339462 672.748406 330.339462 
z
" clip-path="url(#pa5adb7c925)" style="fill: #add8e6; stroke: #add8e6"/>
    <path d="M 771.567769 330.339462 
C 776.703405 330.339462 781.62939 328.299052 785.260833 324.667609 
C 788.892276 321.036166 790.932685 316.110181 790.932685 310.974545 
C 790.932685 305.83891 788.892276 300.912925 785.260833 297.281482 
C 781.62939 293.650039 776.703405 291.609629 771.567769 291.609629 
C 766.432133 291.609629 761.506148 293.650039 757.874705 297.281482 
C 754.243262 300.912925 752.202852 305.83891 752.202852 310.974545 
C 752.202852 316.110181 754.243262 321.036166 757.874705 324.667609 
C 761.506148 328.299052 766.432133 330.339462 771.567769 330.339462 
z
" clip-path="url(#pa5adb7c925)" style="fill: #add8e6; stroke: #add8e6"/>
    <path d="M 705.12512 207.982598 
C 710.260756 207.982598 715.186741 205.942189 718.818184 202.310746 
C 722.449627 198.679303 724.490037 193.753318 724.490037 188.617682 
C 724.490037 183.482046 722.449627 178.556061 718.818184 174.924618 
C 715.186741 171.293175 710.260756 169.252765 705.12512 169.252765 
C 699.989484 169.252765 695.063499 171.293175 691.432056 174.924618 
C 687.800613 178.556061 685.760204 183.482046 685.760204 188.617682 
C 685.760204 193.753318 687.800613 198.679303 691.432056 202.310746 
C 695.063499 205.942189 699.989484 207.982598 705.12512 207.982598 
z
" clip-path="url(#pa5adb7c925)" style="fill: #add8e6; stroke: #add8e6"/>
    <path d="M 376.290319 106.776133 
C 395.04301 106.776133 413.030164 99.32561 426.290319 86.065455 
C 439.550474 72.8053 447.000997 54.818146 447.000997 36.065455 
C 447.000997 17.312764 439.550474 -0.67439 426.290319 -13.934545 
C 413.030164 -27.1947 395.04301 -34.645224 376.290319 -34.645224 
C 357.537628 -34.645224 339.550474 -27.1947 326.290319 -13.934545 
C 313.030164 -0.67439 305.579641 17.312764 305.579641 36.065455 
C 305.579641 54.818146 313.030164 72.8053 326.290319 86.065455 
C 339.550474 99.32561 357.537628 106.776133 376.290319 106.776133 
z
" clip-path="url(#pa5adb7c925)" style="fill: #add8e6; stroke: #add8e6"/>
   </g>
   <g id="text_1">
    <!--  2.1 : Introduction -->
    <g transform="translate(132.871208 187.765822) scale(0.03 -0.03)">
     <defs>
      <path id="DejaVuSans-20" transform="scale(0.015625)"/>
      <path id="DejaVuSans-32" d="M 1228 531 
L 3431 531 
L 3431 0 
L 469 0 
L 469 531 
Q 828 903 1448 1529 
Q 2069 2156 2228 2338 
Q 2531 2678 2651 2914 
Q 2772 3150 2772 3378 
Q 2772 3750 2511 3984 
Q 2250 4219 1831 4219 
Q 1534 4219 1204 4116 
Q 875 4013 500 3803 
L 500 4441 
Q 881 4594 1212 4672 
Q 1544 4750 1819 4750 
Q 2544 4750 2975 4387 
Q 3406 4025 3406 3419 
Q 3406 3131 3298 2873 
Q 3191 2616 2906 2266 
Q 2828 2175 2409 1742 
Q 1991 1309 1228 531 
z
" transform="scale(0.015625)"/>
      <path id="DejaVuSans-2e" d="M 684 794 
L 1344 794 
L 1344 0 
L 684 0 
L 684 794 
z
" transform="scale(0.015625)"/>
      <path id="DejaVuSans-31" d="M 794 531 
L 1825 531 
L 1825 4091 
L 703 3866 
L 703 4441 
L 1819 4666 
L 2450 4666 
L 2450 531 
L 3481 531 
L 3481 0 
L 794 0 
L 794 531 
z
" transform="scale(0.015625)"/>
      <path id="DejaVuSans-3a" d="M 750 794 
L 1409 794 
L 1409 0 
L 750 0 
L 750 794 
z
M 750 3309 
L 1409 3309 
L 1409 2516 
L 750 2516 
L 750 3309 
z
" transform="scale(0.015625)"/>
      <path id="DejaVuSans-49" d="M 628 4666 
L 1259 4666 
L 1259 0 
L 628 0 
L 628 4666 
z
" transform="scale(0.015625)"/>
      <path id="DejaVuSans-6e" d="M 3513 2113 
L 3513 0 
L 2938 0 
L 2938 2094 
Q 2938 2591 2744 2837 
Q 2550 3084 2163 3084 
Q 1697 3084 1428 2787 
Q 1159 2491 1159 1978 
L 1159 0 
L 581 0 
L 581 3500 
L 1159 3500 
L 1159 2956 
Q 1366 3272 1645 3428 
Q 1925 3584 2291 3584 
Q 2894 3584 3203 3211 
Q 3513 2838 3513 2113 
z
" transform="scale(0.015625)"/>
      <path id="DejaVuSans-74" d="M 1172 4494 
L 1172 3500 
L 2356 3500 
L 2356 3053 
L 1172 3053 
L 1172 1153 
Q 1172 725 1289 603 
Q 1406 481 1766 481 
L 2356 481 
L 2356 0 
L 1766 0 
Q 1100 0 847 248 
Q 594 497 594 1153 
L 594 3053 
L 172 3053 
L 172 3500 
L 594 3500 
L 594 4494 
L 1172 4494 
z
" transform="scale(0.015625)"/>
      <path id="DejaVuSans-72" d="M 2631 2963 
Q 2534 3019 2420 3045 
Q 2306 3072 2169 3072 
Q 1681 3072 1420 2755 
Q 1159 2438 1159 1844 
L 1159 0 
L 581 0 
L 581 3500 
L 1159 3500 
L 1159 2956 
Q 1341 3275 1631 3429 
Q 1922 3584 2338 3584 
Q 2397 3584 2469 3576 
Q 2541 3569 2628 3553 
L 2631 2963 
z
" transform="scale(0.015625)"/>
      <path id="DejaVuSans-6f" d="M 1959 3097 
Q 1497 3097 1228 2736 
Q 959 2375 959 1747 
Q 959 1119 1226 758 
Q 1494 397 1959 397 
Q 2419 397 2687 759 
Q 2956 1122 2956 1747 
Q 2956 2369 2687 2733 
Q 2419 3097 1959 3097 
z
M 1959 3584 
Q 2709 3584 3137 3096 
Q 3566 2609 3566 1747 
Q 3566 888 3137 398 
Q 2709 -91 1959 -91 
Q 1206 -91 779 398 
Q 353 888 353 1747 
Q 353 2609 779 3096 
Q 1206 3584 1959 3584 
z
" transform="scale(0.015625)"/>
      <path id="DejaVuSans-64" d="M 2906 2969 
L 2906 4863 
L 3481 4863 
L 3481 0 
L 2906 0 
L 2906 525 
Q 2725 213 2448 61 
Q 2172 -91 1784 -91 
Q 1150 -91 751 415 
Q 353 922 353 1747 
Q 353 2572 751 3078 
Q 1150 3584 1784 3584 
Q 2172 3584 2448 3432 
Q 2725 3281 2906 2969 
z
M 947 1747 
Q 947 1113 1208 752 
Q 1469 391 1925 391 
Q 2381 391 2643 752 
Q 2906 1113 2906 1747 
Q 2906 2381 2643 2742 
Q 2381 3103 1925 3103 
Q 1469 3103 1208 2742 
Q 947 2381 947 1747 
z
" transform="scale(0.015625)"/>
      <path id="DejaVuSans-75" d="M 544 1381 
L 544 3500 
L 1119 3500 
L 1119 1403 
Q 1119 906 1312 657 
Q 1506 409 1894 409 
Q 2359 409 2629 706 
Q 2900 1003 2900 1516 
L 2900 3500 
L 3475 3500 
L 3475 0 
L 2900 0 
L 2900 538 
Q 2691 219 2414 64 
Q 2138 -91 1772 -91 
Q 1169 -91 856 284 
Q 544 659 544 1381 
z
M 1991 3584 
L 1991 3584 
z
" transform="scale(0.015625)"/>
      <path id="DejaVuSans-63" d="M 3122 3366 
L 3122 2828 
Q 2878 2963 2633 3030 
Q 2388 3097 2138 3097 
Q 1578 3097 1268 2742 
Q 959 2388 959 1747 
Q 959 1106 1268 751 
Q 1578 397 2138 397 
Q 2388 397 2633 464 
Q 2878 531 3122 666 
L 3122 134 
Q 2881 22 2623 -34 
Q 2366 -91 2075 -91 
Q 1284 -91 818 406 
Q 353 903 353 1747 
Q 353 2603 823 3093 
Q 1294 3584 2113 3584 
Q 2378 3584 2631 3529 
Q 2884 3475 3122 3366 
z
" transform="scale(0.015625)"/>
      <path id="DejaVuSans-69" d="M 603 3500 
L 1178 3500 
L 1178 0 
L 603 0 
L 603 3500 
z
M 603 4863 
L 1178 4863 
L 1178 4134 
L 603 4134 
L 603 4863 
z
" transform="scale(0.015625)"/>
     </defs>
     <use xlink:href="#DejaVuSans-20"/>
     <use xlink:href="#DejaVuSans-32" transform="translate(31.787109 0)"/>
     <use xlink:href="#DejaVuSans-2e" transform="translate(95.410156 0)"/>
     <use xlink:href="#DejaVuSans-31" transform="translate(127.197266 0)"/>
     <use xlink:href="#DejaVuSans-20" transform="translate(190.820312 0)"/>
     <use xlink:href="#DejaVuSans-3a" transform="translate(222.607422 0)"/>
     <use xlink:href="#DejaVuSans-20" transform="translate(256.298828 0)"/>
     <use xlink:href="#DejaVuSans-49" transform="translate(288.085938 0)"/>
     <use xlink:href="#DejaVuSans-6e" transform="translate(317.578125 0)"/>
     <use xlink:href="#DejaVuSans-74" transform="translate(380.957031 0)"/>
     <use xlink:href="#DejaVuSans-72" transform="translate(420.166016 0)"/>
     <use xlink:href="#DejaVuSans-6f" transform="translate(459.029297 0)"/>
     <use xlink:href="#DejaVuSans-64" transform="translate(520.210938 0)"/>
     <use xlink:href="#DejaVuSans-75" transform="translate(583.6875 0)"/>
     <use xlink:href="#DejaVuSans-63" transform="translate(647.066406 0)"/>
     <use xlink:href="#DejaVuSans-74" transform="translate(702.046875 0)"/>
     <use xlink:href="#DejaVuSans-69" transform="translate(741.255859 0)"/>
     <use xlink:href="#DejaVuSans-6f" transform="translate(769.039062 0)"/>
     <use xlink:href="#DejaVuSans-6e" transform="translate(830.220703 0)"/>
    </g>
    <!--  -->
    <g transform="translate(146.27488 191.125166) scale(0.03 -0.03)"/>
   </g>
   <g id="text_2">
    <!--  2.2 : Model -->
    <g transform="translate(236.26932 187.765822) scale(0.03 -0.03)">
     <defs>
      <path id="DejaVuSans-4d" d="M 628 4666 
L 1569 4666 
L 2759 1491 
L 3956 4666 
L 4897 4666 
L 4897 0 
L 4281 0 
L 4281 4097 
L 3078 897 
L 2444 897 
L 1241 4097 
L 1241 0 
L 628 0 
L 628 4666 
z
" transform="scale(0.015625)"/>
      <path id="DejaVuSans-65" d="M 3597 1894 
L 3597 1613 
L 953 1613 
Q 991 1019 1311 708 
Q 1631 397 2203 397 
Q 2534 397 2845 478 
Q 3156 559 3463 722 
L 3463 178 
Q 3153 47 2828 -22 
Q 2503 -91 2169 -91 
Q 1331 -91 842 396 
Q 353 884 353 1716 
Q 353 2575 817 3079 
Q 1281 3584 2069 3584 
Q 2775 3584 3186 3129 
Q 3597 2675 3597 1894 
z
M 3022 2063 
Q 3016 2534 2758 2815 
Q 2500 3097 2075 3097 
Q 1594 3097 1305 2825 
Q 1016 2553 972 2059 
L 3022 2063 
z
" transform="scale(0.015625)"/>
      <path id="DejaVuSans-6c" d="M 603 4863 
L 1178 4863 
L 1178 0 
L 603 0 
L 603 4863 
z
" transform="scale(0.015625)"/>
     </defs>
     <use xlink:href="#DejaVuSans-20"/>
     <use xlink:href="#DejaVuSans-32" transform="translate(31.787109 0)"/>
     <use xlink:href="#DejaVuSans-2e" transform="translate(95.410156 0)"/>
     <use xlink:href="#DejaVuSans-32" transform="translate(127.197266 0)"/>
     <use xlink:href="#DejaVuSans-20" transform="translate(190.820312 0)"/>
     <use xlink:href="#DejaVuSans-3a" transform="translate(222.607422 0)"/>
     <use xlink:href="#DejaVuSans-20" transform="translate(256.298828 0)"/>
     <use xlink:href="#DejaVuSans-4d" transform="translate(288.085938 0)"/>
     <use xlink:href="#DejaVuSans-6f" transform="translate(374.365234 0)"/>
     <use xlink:href="#DejaVuSans-64" transform="translate(435.546875 0)"/>
     <use xlink:href="#DejaVuSans-65" transform="translate(499.023438 0)"/>
     <use xlink:href="#DejaVuSans-6c" transform="translate(560.546875 0)"/>
    </g>
    <!--  Equations -->
    <g transform="translate(237.192992 191.125166) scale(0.03 -0.03)">
     <defs>
      <path id="DejaVuSans-45" d="M 628 4666 
L 3578 4666 
L 3578 4134 
L 1259 4134 
L 1259 2753 
L 3481 2753 
L 3481 2222 
L 1259 2222 
L 1259 531 
L 3634 531 
L 3634 0 
L 628 0 
L 628 4666 
z
" transform="scale(0.015625)"/>
      <path id="DejaVuSans-71" d="M 947 1747 
Q 947 1113 1208 752 
Q 1469 391 1925 391 
Q 2381 391 2643 752 
Q 2906 1113 2906 1747 
Q 2906 2381 2643 2742 
Q 2381 3103 1925 3103 
Q 1469 3103 1208 2742 
Q 947 2381 947 1747 
z
M 2906 525 
Q 2725 213 2448 61 
Q 2172 -91 1784 -91 
Q 1150 -91 751 415 
Q 353 922 353 1747 
Q 353 2572 751 3078 
Q 1150 3584 1784 3584 
Q 2172 3584 2448 3432 
Q 2725 3281 2906 2969 
L 2906 3500 
L 3481 3500 
L 3481 -1331 
L 2906 -1331 
L 2906 525 
z
" transform="scale(0.015625)"/>
      <path id="DejaVuSans-61" d="M 2194 1759 
Q 1497 1759 1228 1600 
Q 959 1441 959 1056 
Q 959 750 1161 570 
Q 1363 391 1709 391 
Q 2188 391 2477 730 
Q 2766 1069 2766 1631 
L 2766 1759 
L 2194 1759 
z
M 3341 1997 
L 3341 0 
L 2766 0 
L 2766 531 
Q 2569 213 2275 61 
Q 1981 -91 1556 -91 
Q 1019 -91 701 211 
Q 384 513 384 1019 
Q 384 1609 779 1909 
Q 1175 2209 1959 2209 
L 2766 2209 
L 2766 2266 
Q 2766 2663 2505 2880 
Q 2244 3097 1772 3097 
Q 1472 3097 1187 3025 
Q 903 2953 641 2809 
L 641 3341 
Q 956 3463 1253 3523 
Q 1550 3584 1831 3584 
Q 2591 3584 2966 3190 
Q 3341 2797 3341 1997 
z
" transform="scale(0.015625)"/>
      <path id="DejaVuSans-73" d="M 2834 3397 
L 2834 2853 
Q 2591 2978 2328 3040 
Q 2066 3103 1784 3103 
Q 1356 3103 1142 2972 
Q 928 2841 928 2578 
Q 928 2378 1081 2264 
Q 1234 2150 1697 2047 
L 1894 2003 
Q 2506 1872 2764 1633 
Q 3022 1394 3022 966 
Q 3022 478 2636 193 
Q 2250 -91 1575 -91 
Q 1294 -91 989 -36 
Q 684 19 347 128 
L 347 722 
Q 666 556 975 473 
Q 1284 391 1588 391 
Q 1994 391 2212 530 
Q 2431 669 2431 922 
Q 2431 1156 2273 1281 
Q 2116 1406 1581 1522 
L 1381 1569 
Q 847 1681 609 1914 
Q 372 2147 372 2553 
Q 372 3047 722 3315 
Q 1072 3584 1716 3584 
Q 2034 3584 2315 3537 
Q 2597 3491 2834 3397 
z
" transform="scale(0.015625)"/>
     </defs>
     <use xlink:href="#DejaVuSans-20"/>
     <use xlink:href="#DejaVuSans-45" transform="translate(31.787109 0)"/>
     <use xlink:href="#DejaVuSans-71" transform="translate(94.970703 0)"/>
     <use xlink:href="#DejaVuSans-75" transform="translate(158.447266 0)"/>
     <use xlink:href="#DejaVuSans-61" transform="translate(221.826172 0)"/>
     <use xlink:href="#DejaVuSans-74" transform="translate(283.105469 0)"/>
     <use xlink:href="#DejaVuSans-69" transform="translate(322.314453 0)"/>
     <use xlink:href="#DejaVuSans-6f" transform="translate(350.097656 0)"/>
     <use xlink:href="#DejaVuSans-6e" transform="translate(411.279297 0)"/>
     <use xlink:href="#DejaVuSans-73" transform="translate(474.658203 0)"/>
    </g>
   </g>
   <g id="text_3">
    <!--  2.3 : Nonlinear -->
    <g transform="translate(357.032897 184.398463) scale(0.05 -0.05)">
     <defs>
      <path id="DejaVuSans-33" d="M 2597 2516 
Q 3050 2419 3304 2112 
Q 3559 1806 3559 1356 
Q 3559 666 3084 287 
Q 2609 -91 1734 -91 
Q 1441 -91 1130 -33 
Q 819 25 488 141 
L 488 750 
Q 750 597 1062 519 
Q 1375 441 1716 441 
Q 2309 441 2620 675 
Q 2931 909 2931 1356 
Q 2931 1769 2642 2001 
Q 2353 2234 1838 2234 
L 1294 2234 
L 1294 2753 
L 1863 2753 
Q 2328 2753 2575 2939 
Q 2822 3125 2822 3475 
Q 2822 3834 2567 4026 
Q 2313 4219 1838 4219 
Q 1578 4219 1281 4162 
Q 984 4106 628 3988 
L 628 4550 
Q 988 4650 1302 4700 
Q 1616 4750 1894 4750 
Q 2613 4750 3031 4423 
Q 3450 4097 3450 3541 
Q 3450 3153 3228 2886 
Q 3006 2619 2597 2516 
z
" transform="scale(0.015625)"/>
      <path id="DejaVuSans-4e" d="M 628 4666 
L 1478 4666 
L 3547 763 
L 3547 4666 
L 4159 4666 
L 4159 0 
L 3309 0 
L 1241 3903 
L 1241 0 
L 628 0 
L 628 4666 
z
" transform="scale(0.015625)"/>
     </defs>
     <use xlink:href="#DejaVuSans-20"/>
     <use xlink:href="#DejaVuSans-32" transform="translate(31.787109 0)"/>
     <use xlink:href="#DejaVuSans-2e" transform="translate(95.410156 0)"/>
     <use xlink:href="#DejaVuSans-33" transform="translate(127.197266 0)"/>
     <use xlink:href="#DejaVuSans-20" transform="translate(190.820312 0)"/>
     <use xlink:href="#DejaVuSans-3a" transform="translate(222.607422 0)"/>
     <use xlink:href="#DejaVuSans-20" transform="translate(256.298828 0)"/>
     <use xlink:href="#DejaVuSans-4e" transform="translate(288.085938 0)"/>
     <use xlink:href="#DejaVuSans-6f" transform="translate(362.890625 0)"/>
     <use xlink:href="#DejaVuSans-6e" transform="translate(424.072266 0)"/>
     <use xlink:href="#DejaVuSans-6c" transform="translate(487.451172 0)"/>
     <use xlink:href="#DejaVuSans-69" transform="translate(515.234375 0)"/>
     <use xlink:href="#DejaVuSans-6e" transform="translate(543.017578 0)"/>
     <use xlink:href="#DejaVuSans-65" transform="translate(606.396484 0)"/>
     <use xlink:href="#DejaVuSans-61" transform="translate(667.919922 0)"/>
     <use xlink:href="#DejaVuSans-72" transform="translate(729.199219 0)"/>
    </g>
    <!--  Finite-Volume -->
    <g transform="translate(358.693834 189.997369) scale(0.05 -0.05)">
     <defs>
      <path id="DejaVuSans-46" d="M 628 4666 
L 3309 4666 
L 3309 4134 
L 1259 4134 
L 1259 2759 
L 3109 2759 
L 3109 2228 
L 1259 2228 
L 1259 0 
L 628 0 
L 628 4666 
z
" transform="scale(0.015625)"/>
      <path id="DejaVuSans-2d" d="M 313 2009 
L 1997 2009 
L 1997 1497 
L 313 1497 
L 313 2009 
z
" transform="scale(0.015625)"/>
      <path id="DejaVuSans-56" d="M 1831 0 
L 50 4666 
L 709 4666 
L 2188 738 
L 3669 4666 
L 4325 4666 
L 2547 0 
L 1831 0 
z
" transform="scale(0.015625)"/>
      <path id="DejaVuSans-6d" d="M 3328 2828 
Q 3544 3216 3844 3400 
Q 4144 3584 4550 3584 
Q 5097 3584 5394 3201 
Q 5691 2819 5691 2113 
L 5691 0 
L 5113 0 
L 5113 2094 
Q 5113 2597 4934 2840 
Q 4756 3084 4391 3084 
Q 3944 3084 3684 2787 
Q 3425 2491 3425 1978 
L 3425 0 
L 2847 0 
L 2847 2094 
Q 2847 2600 2669 2842 
Q 2491 3084 2119 3084 
Q 1678 3084 1418 2786 
Q 1159 2488 1159 1978 
L 1159 0 
L 581 0 
L 581 3500 
L 1159 3500 
L 1159 2956 
Q 1356 3278 1631 3431 
Q 1906 3584 2284 3584 
Q 2666 3584 2933 3390 
Q 3200 3197 3328 2828 
z
" transform="scale(0.015625)"/>
     </defs>
     <use xlink:href="#DejaVuSans-20"/>
     <use xlink:href="#DejaVuSans-46" transform="translate(31.787109 0)"/>
     <use xlink:href="#DejaVuSans-69" transform="translate(82.056641 0)"/>
     <use xlink:href="#DejaVuSans-6e" transform="translate(109.839844 0)"/>
     <use xlink:href="#DejaVuSans-69" transform="translate(173.21875 0)"/>
     <use xlink:href="#DejaVuSans-74" transform="translate(201.001953 0)"/>
     <use xlink:href="#DejaVuSans-65" transform="translate(240.210938 0)"/>
     <use xlink:href="#DejaVuSans-2d" transform="translate(301.734375 0)"/>
     <use xlink:href="#DejaVuSans-56" transform="translate(331.943359 0)"/>
     <use xlink:href="#DejaVuSans-6f" transform="translate(392.601562 0)"/>
     <use xlink:href="#DejaVuSans-6c" transform="translate(453.783203 0)"/>
     <use xlink:href="#DejaVuSans-75" transform="translate(481.566406 0)"/>
     <use xlink:href="#DejaVuSans-6d" transform="translate(544.945312 0)"/>
     <use xlink:href="#DejaVuSans-65" transform="translate(642.357422 0)"/>
    </g>
    <!--  Methods -->
    <g transform="translate(364.816881 195.596275) scale(0.05 -0.05)">
     <defs>
      <path id="DejaVuSans-68" d="M 3513 2113 
L 3513 0 
L 2938 0 
L 2938 2094 
Q 2938 2591 2744 2837 
Q 2550 3084 2163 3084 
Q 1697 3084 1428 2787 
Q 1159 2491 1159 1978 
L 1159 0 
L 581 0 
L 581 4863 
L 1159 4863 
L 1159 2956 
Q 1366 3272 1645 3428 
Q 1925 3584 2291 3584 
Q 2894 3584 3203 3211 
Q 3513 2838 3513 2113 
z
" transform="scale(0.015625)"/>
     </defs>
     <use xlink:href="#DejaVuSans-20"/>
     <use xlink:href="#DejaVuSans-4d" transform="translate(31.787109 0)"/>
     <use xlink:href="#DejaVuSans-65" transform="translate(118.066406 0)"/>
     <use xlink:href="#DejaVuSans-74" transform="translate(179.589844 0)"/>
     <use xlink:href="#DejaVuSans-68" transform="translate(218.798828 0)"/>
     <use xlink:href="#DejaVuSans-6f" transform="translate(282.177734 0)"/>
     <use xlink:href="#DejaVuSans-64" transform="translate(343.359375 0)"/>
     <use xlink:href="#DejaVuSans-73" transform="translate(406.835938 0)"/>
    </g>
   </g>
   <g id="text_4">
    <!--  2.3.1 : Construction -->
    <g transform="translate(64.529653 308.443014) scale(0.03 -0.03)">
     <defs>
      <path id="DejaVuSans-43" d="M 4122 4306 
L 4122 3641 
Q 3803 3938 3442 4084 
Q 3081 4231 2675 4231 
Q 1875 4231 1450 3742 
Q 1025 3253 1025 2328 
Q 1025 1406 1450 917 
Q 1875 428 2675 428 
Q 3081 428 3442 575 
Q 3803 722 4122 1019 
L 4122 359 
Q 3791 134 3420 21 
Q 3050 -91 2638 -91 
Q 1578 -91 968 557 
Q 359 1206 359 2328 
Q 359 3453 968 4101 
Q 1578 4750 2638 4750 
Q 3056 4750 3426 4639 
Q 3797 4528 4122 4306 
z
" transform="scale(0.015625)"/>
     </defs>
     <use xlink:href="#DejaVuSans-20"/>
     <use xlink:href="#DejaVuSans-32" transform="translate(31.787109 0)"/>
     <use xlink:href="#DejaVuSans-2e" transform="translate(95.410156 0)"/>
     <use xlink:href="#DejaVuSans-33" transform="translate(127.197266 0)"/>
     <use xlink:href="#DejaVuSans-2e" transform="translate(190.820312 0)"/>
     <use xlink:href="#DejaVuSans-31" transform="translate(222.607422 0)"/>
     <use xlink:href="#DejaVuSans-20" transform="translate(286.230469 0)"/>
     <use xlink:href="#DejaVuSans-3a" transform="translate(318.017578 0)"/>
     <use xlink:href="#DejaVuSans-20" transform="translate(351.708984 0)"/>
     <use xlink:href="#DejaVuSans-43" transform="translate(383.496094 0)"/>
     <use xlink:href="#DejaVuSans-6f" transform="translate(453.320312 0)"/>
     <use xlink:href="#DejaVuSans-6e" transform="translate(514.501953 0)"/>
     <use xlink:href="#DejaVuSans-73" transform="translate(577.880859 0)"/>
     <use xlink:href="#DejaVuSans-74" transform="translate(629.980469 0)"/>
     <use xlink:href="#DejaVuSans-72" transform="translate(669.189453 0)"/>
     <use xlink:href="#DejaVuSans-75" transform="translate(710.302734 0)"/>
     <use xlink:href="#DejaVuSans-63" transform="translate(773.681641 0)"/>
     <use xlink:href="#DejaVuSans-74" transform="translate(828.662109 0)"/>
     <use xlink:href="#DejaVuSans-69" transform="translate(867.871094 0)"/>
     <use xlink:href="#DejaVuSans-6f" transform="translate(895.654297 0)"/>
     <use xlink:href="#DejaVuSans-6e" transform="translate(956.835938 0)"/>
    </g>
    <!--  of One-Sided -->
    <g transform="translate(69.640903 311.802358) scale(0.03 -0.03)">
     <defs>
      <path id="DejaVuSans-66" d="M 2375 4863 
L 2375 4384 
L 1825 4384 
Q 1516 4384 1395 4259 
Q 1275 4134 1275 3809 
L 1275 3500 
L 2222 3500 
L 2222 3053 
L 1275 3053 
L 1275 0 
L 697 0 
L 697 3053 
L 147 3053 
L 147 3500 
L 697 3500 
L 697 3744 
Q 697 4328 969 4595 
Q 1241 4863 1831 4863 
L 2375 4863 
z
" transform="scale(0.015625)"/>
      <path id="DejaVuSans-4f" d="M 2522 4238 
Q 1834 4238 1429 3725 
Q 1025 3213 1025 2328 
Q 1025 1447 1429 934 
Q 1834 422 2522 422 
Q 3209 422 3611 934 
Q 4013 1447 4013 2328 
Q 4013 3213 3611 3725 
Q 3209 4238 2522 4238 
z
M 2522 4750 
Q 3503 4750 4090 4092 
Q 4678 3434 4678 2328 
Q 4678 1225 4090 567 
Q 3503 -91 2522 -91 
Q 1538 -91 948 565 
Q 359 1222 359 2328 
Q 359 3434 948 4092 
Q 1538 4750 2522 4750 
z
" transform="scale(0.015625)"/>
      <path id="DejaVuSans-53" d="M 3425 4513 
L 3425 3897 
Q 3066 4069 2747 4153 
Q 2428 4238 2131 4238 
Q 1616 4238 1336 4038 
Q 1056 3838 1056 3469 
Q 1056 3159 1242 3001 
Q 1428 2844 1947 2747 
L 2328 2669 
Q 3034 2534 3370 2195 
Q 3706 1856 3706 1288 
Q 3706 609 3251 259 
Q 2797 -91 1919 -91 
Q 1588 -91 1214 -16 
Q 841 59 441 206 
L 441 856 
Q 825 641 1194 531 
Q 1563 422 1919 422 
Q 2459 422 2753 634 
Q 3047 847 3047 1241 
Q 3047 1584 2836 1778 
Q 2625 1972 2144 2069 
L 1759 2144 
Q 1053 2284 737 2584 
Q 422 2884 422 3419 
Q 422 4038 858 4394 
Q 1294 4750 2059 4750 
Q 2388 4750 2728 4690 
Q 3069 4631 3425 4513 
z
" transform="scale(0.015625)"/>
     </defs>
     <use xlink:href="#DejaVuSans-20"/>
     <use xlink:href="#DejaVuSans-6f" transform="translate(31.787109 0)"/>
     <use xlink:href="#DejaVuSans-66" transform="translate(92.96875 0)"/>
     <use xlink:href="#DejaVuSans-20" transform="translate(128.173828 0)"/>
     <use xlink:href="#DejaVuSans-4f" transform="translate(159.960938 0)"/>
     <use xlink:href="#DejaVuSans-6e" transform="translate(238.671875 0)"/>
     <use xlink:href="#DejaVuSans-65" transform="translate(302.050781 0)"/>
     <use xlink:href="#DejaVuSans-2d" transform="translate(363.574219 0)"/>
     <use xlink:href="#DejaVuSans-53" transform="translate(399.658203 0)"/>
     <use xlink:href="#DejaVuSans-69" transform="translate(463.134766 0)"/>
     <use xlink:href="#DejaVuSans-64" transform="translate(490.917969 0)"/>
     <use xlink:href="#DejaVuSans-65" transform="translate(554.394531 0)"/>
     <use xlink:href="#DejaVuSans-64" transform="translate(615.917969 0)"/>
    </g>
    <!--  Fluxes -->
    <g transform="translate(74.580122 315.161702) scale(0.03 -0.03)">
     <defs>
      <path id="DejaVuSans-78" d="M 3513 3500 
L 2247 1797 
L 3578 0 
L 2900 0 
L 1881 1375 
L 863 0 
L 184 0 
L 1544 1831 
L 300 3500 
L 978 3500 
L 1906 2253 
L 2834 3500 
L 3513 3500 
z
" transform="scale(0.015625)"/>
     </defs>
     <use xlink:href="#DejaVuSans-20"/>
     <use xlink:href="#DejaVuSans-46" transform="translate(31.787109 0)"/>
     <use xlink:href="#DejaVuSans-6c" transform="translate(89.306641 0)"/>
     <use xlink:href="#DejaVuSans-75" transform="translate(117.089844 0)"/>
     <use xlink:href="#DejaVuSans-78" transform="translate(180.46875 0)"/>
     <use xlink:href="#DejaVuSans-65" transform="translate(236.523438 0)"/>
     <use xlink:href="#DejaVuSans-73" transform="translate(298.046875 0)"/>
    </g>
   </g>
   <g id="text_5">
    <!--  2.3.2 : Harmonic -->
    <g transform="translate(165.690891 308.443014) scale(0.03 -0.03)">
     <defs>
      <path id="DejaVuSans-48" d="M 628 4666 
L 1259 4666 
L 1259 2753 
L 3553 2753 
L 3553 4666 
L 4184 4666 
L 4184 0 
L 3553 0 
L 3553 2222 
L 1259 2222 
L 1259 0 
L 628 0 
L 628 4666 
z
" transform="scale(0.015625)"/>
     </defs>
     <use xlink:href="#DejaVuSans-20"/>
     <use xlink:href="#DejaVuSans-32" transform="translate(31.787109 0)"/>
     <use xlink:href="#DejaVuSans-2e" transform="translate(95.410156 0)"/>
     <use xlink:href="#DejaVuSans-33" transform="translate(127.197266 0)"/>
     <use xlink:href="#DejaVuSans-2e" transform="translate(190.820312 0)"/>
     <use xlink:href="#DejaVuSans-32" transform="translate(222.607422 0)"/>
     <use xlink:href="#DejaVuSans-20" transform="translate(286.230469 0)"/>
     <use xlink:href="#DejaVuSans-3a" transform="translate(318.017578 0)"/>
     <use xlink:href="#DejaVuSans-20" transform="translate(351.708984 0)"/>
     <use xlink:href="#DejaVuSans-48" transform="translate(383.496094 0)"/>
     <use xlink:href="#DejaVuSans-61" transform="translate(458.691406 0)"/>
     <use xlink:href="#DejaVuSans-72" transform="translate(519.970703 0)"/>
     <use xlink:href="#DejaVuSans-6d" transform="translate(559.333984 0)"/>
     <use xlink:href="#DejaVuSans-6f" transform="translate(656.746094 0)"/>
     <use xlink:href="#DejaVuSans-6e" transform="translate(717.927734 0)"/>
     <use xlink:href="#DejaVuSans-69" transform="translate(781.306641 0)"/>
     <use xlink:href="#DejaVuSans-63" transform="translate(809.089844 0)"/>
    </g>
    <!--  Averaging Point -->
    <g transform="translate(166.418391 311.802358) scale(0.03 -0.03)">
     <defs>
      <path id="DejaVuSans-41" d="M 2188 4044 
L 1331 1722 
L 3047 1722 
L 2188 4044 
z
M 1831 4666 
L 2547 4666 
L 4325 0 
L 3669 0 
L 3244 1197 
L 1141 1197 
L 716 0 
L 50 0 
L 1831 4666 
z
" transform="scale(0.015625)"/>
      <path id="DejaVuSans-76" d="M 191 3500 
L 800 3500 
L 1894 563 
L 2988 3500 
L 3597 3500 
L 2284 0 
L 1503 0 
L 191 3500 
z
" transform="scale(0.015625)"/>
      <path id="DejaVuSans-67" d="M 2906 1791 
Q 2906 2416 2648 2759 
Q 2391 3103 1925 3103 
Q 1463 3103 1205 2759 
Q 947 2416 947 1791 
Q 947 1169 1205 825 
Q 1463 481 1925 481 
Q 2391 481 2648 825 
Q 2906 1169 2906 1791 
z
M 3481 434 
Q 3481 -459 3084 -895 
Q 2688 -1331 1869 -1331 
Q 1566 -1331 1297 -1286 
Q 1028 -1241 775 -1147 
L 775 -588 
Q 1028 -725 1275 -790 
Q 1522 -856 1778 -856 
Q 2344 -856 2625 -561 
Q 2906 -266 2906 331 
L 2906 616 
Q 2728 306 2450 153 
Q 2172 0 1784 0 
Q 1141 0 747 490 
Q 353 981 353 1791 
Q 353 2603 747 3093 
Q 1141 3584 1784 3584 
Q 2172 3584 2450 3431 
Q 2728 3278 2906 2969 
L 2906 3500 
L 3481 3500 
L 3481 434 
z
" transform="scale(0.015625)"/>
      <path id="DejaVuSans-50" d="M 1259 4147 
L 1259 2394 
L 2053 2394 
Q 2494 2394 2734 2622 
Q 2975 2850 2975 3272 
Q 2975 3691 2734 3919 
Q 2494 4147 2053 4147 
L 1259 4147 
z
M 628 4666 
L 2053 4666 
Q 2838 4666 3239 4311 
Q 3641 3956 3641 3272 
Q 3641 2581 3239 2228 
Q 2838 1875 2053 1875 
L 1259 1875 
L 1259 0 
L 628 0 
L 628 4666 
z
" transform="scale(0.015625)"/>
     </defs>
     <use xlink:href="#DejaVuSans-20"/>
     <use xlink:href="#DejaVuSans-41" transform="translate(31.787109 0)"/>
     <use xlink:href="#DejaVuSans-76" transform="translate(94.320312 0)"/>
     <use xlink:href="#DejaVuSans-65" transform="translate(153.5 0)"/>
     <use xlink:href="#DejaVuSans-72" transform="translate(215.023438 0)"/>
     <use xlink:href="#DejaVuSans-61" transform="translate(256.136719 0)"/>
     <use xlink:href="#DejaVuSans-67" transform="translate(317.416016 0)"/>
     <use xlink:href="#DejaVuSans-69" transform="translate(380.892578 0)"/>
     <use xlink:href="#DejaVuSans-6e" transform="translate(408.675781 0)"/>
     <use xlink:href="#DejaVuSans-67" transform="translate(472.054688 0)"/>
     <use xlink:href="#DejaVuSans-20" transform="translate(535.53125 0)"/>
     <use xlink:href="#DejaVuSans-50" transform="translate(567.318359 0)"/>
     <use xlink:href="#DejaVuSans-6f" transform="translate(623.996094 0)"/>
     <use xlink:href="#DejaVuSans-69" transform="translate(685.177734 0)"/>
     <use xlink:href="#DejaVuSans-6e" transform="translate(712.960938 0)"/>
     <use xlink:href="#DejaVuSans-74" transform="translate(776.339844 0)"/>
    </g>
    <!--  -->
    <g transform="translate(178.651594 315.161702) scale(0.03 -0.03)"/>
   </g>
   <g id="text_6">
    <!--  2.3.3 : Nonlinear -->
    <g transform="translate(264.485409 310.122686) scale(0.03 -0.03)">
     <use xlink:href="#DejaVuSans-20"/>
     <use xlink:href="#DejaVuSans-32" transform="translate(31.787109 0)"/>
     <use xlink:href="#DejaVuSans-2e" transform="translate(95.410156 0)"/>
     <use xlink:href="#DejaVuSans-33" transform="translate(127.197266 0)"/>
     <use xlink:href="#DejaVuSans-2e" transform="translate(190.820312 0)"/>
     <use xlink:href="#DejaVuSans-33" transform="translate(222.607422 0)"/>
     <use xlink:href="#DejaVuSans-20" transform="translate(286.230469 0)"/>
     <use xlink:href="#DejaVuSans-3a" transform="translate(318.017578 0)"/>
     <use xlink:href="#DejaVuSans-20" transform="translate(351.708984 0)"/>
     <use xlink:href="#DejaVuSans-4e" transform="translate(383.496094 0)"/>
     <use xlink:href="#DejaVuSans-6f" transform="translate(458.300781 0)"/>
     <use xlink:href="#DejaVuSans-6e" transform="translate(519.482422 0)"/>
     <use xlink:href="#DejaVuSans-6c" transform="translate(582.861328 0)"/>
     <use xlink:href="#DejaVuSans-69" transform="translate(610.644531 0)"/>
     <use xlink:href="#DejaVuSans-6e" transform="translate(638.427734 0)"/>
     <use xlink:href="#DejaVuSans-65" transform="translate(701.806641 0)"/>
     <use xlink:href="#DejaVuSans-61" transform="translate(763.330078 0)"/>
     <use xlink:href="#DejaVuSans-72" transform="translate(824.609375 0)"/>
    </g>
    <!--  TPFA -->
    <g transform="translate(273.421659 313.48203) scale(0.03 -0.03)">
     <defs>
      <path id="DejaVuSans-54" d="M -19 4666 
L 3928 4666 
L 3928 4134 
L 2272 4134 
L 2272 0 
L 1638 0 
L 1638 4134 
L -19 4134 
L -19 4666 
z
" transform="scale(0.015625)"/>
     </defs>
     <use xlink:href="#DejaVuSans-20"/>
     <use xlink:href="#DejaVuSans-54" transform="translate(31.787109 0)"/>
     <use xlink:href="#DejaVuSans-50" transform="translate(92.871094 0)"/>
     <use xlink:href="#DejaVuSans-46" transform="translate(153.173828 0)"/>
     <use xlink:href="#DejaVuSans-41" transform="translate(201.568359 0)"/>
    </g>
   </g>
   <g id="text_7">
    <!--  2.3.4 : Nonlinear -->
    <g transform="translate(363.304772 310.122686) scale(0.03 -0.03)">
     <defs>
      <path id="DejaVuSans-34" d="M 2419 4116 
L 825 1625 
L 2419 1625 
L 2419 4116 
z
M 2253 4666 
L 3047 4666 
L 3047 1625 
L 3713 1625 
L 3713 1100 
L 3047 1100 
L 3047 0 
L 2419 0 
L 2419 1100 
L 313 1100 
L 313 1709 
L 2253 4666 
z
" transform="scale(0.015625)"/>
     </defs>
     <use xlink:href="#DejaVuSans-20"/>
     <use xlink:href="#DejaVuSans-32" transform="translate(31.787109 0)"/>
     <use xlink:href="#DejaVuSans-2e" transform="translate(95.410156 0)"/>
     <use xlink:href="#DejaVuSans-33" transform="translate(127.197266 0)"/>
     <use xlink:href="#DejaVuSans-2e" transform="translate(190.820312 0)"/>
     <use xlink:href="#DejaVuSans-34" transform="translate(222.607422 0)"/>
     <use xlink:href="#DejaVuSans-20" transform="translate(286.230469 0)"/>
     <use xlink:href="#DejaVuSans-3a" transform="translate(318.017578 0)"/>
     <use xlink:href="#DejaVuSans-20" transform="translate(351.708984 0)"/>
     <use xlink:href="#DejaVuSans-4e" transform="translate(383.496094 0)"/>
     <use xlink:href="#DejaVuSans-6f" transform="translate(458.300781 0)"/>
     <use xlink:href="#DejaVuSans-6e" transform="translate(519.482422 0)"/>
     <use xlink:href="#DejaVuSans-6c" transform="translate(582.861328 0)"/>
     <use xlink:href="#DejaVuSans-69" transform="translate(610.644531 0)"/>
     <use xlink:href="#DejaVuSans-6e" transform="translate(638.427734 0)"/>
     <use xlink:href="#DejaVuSans-65" transform="translate(701.806641 0)"/>
     <use xlink:href="#DejaVuSans-61" transform="translate(763.330078 0)"/>
     <use xlink:href="#DejaVuSans-72" transform="translate(824.609375 0)"/>
    </g>
    <!--  MPFA -->
    <g transform="translate(371.862975 313.48203) scale(0.03 -0.03)">
     <use xlink:href="#DejaVuSans-20"/>
     <use xlink:href="#DejaVuSans-4d" transform="translate(31.787109 0)"/>
     <use xlink:href="#DejaVuSans-50" transform="translate(118.066406 0)"/>
     <use xlink:href="#DejaVuSans-46" transform="translate(178.369141 0)"/>
     <use xlink:href="#DejaVuSans-41" transform="translate(226.763672 0)"/>
    </g>
   </g>
   <g id="text_8">
    <!--  2.3.5 : Nonlinear -->
    <g transform="translate(462.124134 310.122686) scale(0.03 -0.03)">
     <defs>
      <path id="DejaVuSans-35" d="M 691 4666 
L 3169 4666 
L 3169 4134 
L 1269 4134 
L 1269 2991 
Q 1406 3038 1543 3061 
Q 1681 3084 1819 3084 
Q 2600 3084 3056 2656 
Q 3513 2228 3513 1497 
Q 3513 744 3044 326 
Q 2575 -91 1722 -91 
Q 1428 -91 1123 -41 
Q 819 9 494 109 
L 494 744 
Q 775 591 1075 516 
Q 1375 441 1709 441 
Q 2250 441 2565 725 
Q 2881 1009 2881 1497 
Q 2881 1984 2565 2268 
Q 2250 2553 1709 2553 
Q 1456 2553 1204 2497 
Q 953 2441 691 2322 
L 691 4666 
z
" transform="scale(0.015625)"/>
     </defs>
     <use xlink:href="#DejaVuSans-20"/>
     <use xlink:href="#DejaVuSans-32" transform="translate(31.787109 0)"/>
     <use xlink:href="#DejaVuSans-2e" transform="translate(95.410156 0)"/>
     <use xlink:href="#DejaVuSans-33" transform="translate(127.197266 0)"/>
     <use xlink:href="#DejaVuSans-2e" transform="translate(190.820312 0)"/>
     <use xlink:href="#DejaVuSans-35" transform="translate(222.607422 0)"/>
     <use xlink:href="#DejaVuSans-20" transform="translate(286.230469 0)"/>
     <use xlink:href="#DejaVuSans-3a" transform="translate(318.017578 0)"/>
     <use xlink:href="#DejaVuSans-20" transform="translate(351.708984 0)"/>
     <use xlink:href="#DejaVuSans-4e" transform="translate(383.496094 0)"/>
     <use xlink:href="#DejaVuSans-6f" transform="translate(458.300781 0)"/>
     <use xlink:href="#DejaVuSans-6e" transform="translate(519.482422 0)"/>
     <use xlink:href="#DejaVuSans-6c" transform="translate(582.861328 0)"/>
     <use xlink:href="#DejaVuSans-69" transform="translate(610.644531 0)"/>
     <use xlink:href="#DejaVuSans-6e" transform="translate(638.427734 0)"/>
     <use xlink:href="#DejaVuSans-65" transform="translate(701.806641 0)"/>
     <use xlink:href="#DejaVuSans-61" transform="translate(763.330078 0)"/>
     <use xlink:href="#DejaVuSans-72" transform="translate(824.609375 0)"/>
    </g>
    <!--  Solver -->
    <g transform="translate(469.918744 313.48203) scale(0.03 -0.03)">
     <use xlink:href="#DejaVuSans-20"/>
     <use xlink:href="#DejaVuSans-53" transform="translate(31.787109 0)"/>
     <use xlink:href="#DejaVuSans-6f" transform="translate(95.263672 0)"/>
     <use xlink:href="#DejaVuSans-6c" transform="translate(156.445312 0)"/>
     <use xlink:href="#DejaVuSans-76" transform="translate(184.228516 0)"/>
     <use xlink:href="#DejaVuSans-65" transform="translate(243.408203 0)"/>
     <use xlink:href="#DejaVuSans-72" transform="translate(304.931641 0)"/>
    </g>
   </g>
   <g id="text_9">
    <!--  2.4 : Numerical -->
    <g transform="translate(553.975919 187.197916) scale(0.05 -0.05)">
     <use xlink:href="#DejaVuSans-20"/>
     <use xlink:href="#DejaVuSans-32" transform="translate(31.787109 0)"/>
     <use xlink:href="#DejaVuSans-2e" transform="translate(95.410156 0)"/>
     <use xlink:href="#DejaVuSans-34" transform="translate(127.197266 0)"/>
     <use xlink:href="#DejaVuSans-20" transform="translate(190.820312 0)"/>
     <use xlink:href="#DejaVuSans-3a" transform="translate(222.607422 0)"/>
     <use xlink:href="#DejaVuSans-20" transform="translate(256.298828 0)"/>
     <use xlink:href="#DejaVuSans-4e" transform="translate(288.085938 0)"/>
     <use xlink:href="#DejaVuSans-75" transform="translate(362.890625 0)"/>
     <use xlink:href="#DejaVuSans-6d" transform="translate(426.269531 0)"/>
     <use xlink:href="#DejaVuSans-65" transform="translate(523.681641 0)"/>
     <use xlink:href="#DejaVuSans-72" transform="translate(585.205078 0)"/>
     <use xlink:href="#DejaVuSans-69" transform="translate(626.318359 0)"/>
     <use xlink:href="#DejaVuSans-63" transform="translate(654.101562 0)"/>
     <use xlink:href="#DejaVuSans-61" transform="translate(709.082031 0)"/>
     <use xlink:href="#DejaVuSans-6c" transform="translate(770.361328 0)"/>
    </g>
    <!--  Examples -->
    <g transform="translate(560.985684 192.796822) scale(0.05 -0.05)">
     <defs>
      <path id="DejaVuSans-70" d="M 1159 525 
L 1159 -1331 
L 581 -1331 
L 581 3500 
L 1159 3500 
L 1159 2969 
Q 1341 3281 1617 3432 
Q 1894 3584 2278 3584 
Q 2916 3584 3314 3078 
Q 3713 2572 3713 1747 
Q 3713 922 3314 415 
Q 2916 -91 2278 -91 
Q 1894 -91 1617 61 
Q 1341 213 1159 525 
z
M 3116 1747 
Q 3116 2381 2855 2742 
Q 2594 3103 2138 3103 
Q 1681 3103 1420 2742 
Q 1159 2381 1159 1747 
Q 1159 1113 1420 752 
Q 1681 391 2138 391 
Q 2594 391 2855 752 
Q 3116 1113 3116 1747 
z
" transform="scale(0.015625)"/>
     </defs>
     <use xlink:href="#DejaVuSans-20"/>
     <use xlink:href="#DejaVuSans-45" transform="translate(31.787109 0)"/>
     <use xlink:href="#DejaVuSans-78" transform="translate(94.970703 0)"/>
     <use xlink:href="#DejaVuSans-61" transform="translate(154.150391 0)"/>
     <use xlink:href="#DejaVuSans-6d" transform="translate(215.429688 0)"/>
     <use xlink:href="#DejaVuSans-70" transform="translate(312.841797 0)"/>
     <use xlink:href="#DejaVuSans-6c" transform="translate(376.318359 0)"/>
     <use xlink:href="#DejaVuSans-65" transform="translate(404.101562 0)"/>
     <use xlink:href="#DejaVuSans-73" transform="translate(465.625 0)"/>
    </g>
   </g>
   <g id="text_10">
    <!--  2.4.1 : Example -->
    <g transform="translate(561.669122 306.763342) scale(0.03 -0.03)">
     <use xlink:href="#DejaVuSans-20"/>
     <use xlink:href="#DejaVuSans-32" transform="translate(31.787109 0)"/>
     <use xlink:href="#DejaVuSans-2e" transform="translate(95.410156 0)"/>
     <use xlink:href="#DejaVuSans-34" transform="translate(127.197266 0)"/>
     <use xlink:href="#DejaVuSans-2e" transform="translate(190.820312 0)"/>
     <use xlink:href="#DejaVuSans-31" transform="translate(222.607422 0)"/>
     <use xlink:href="#DejaVuSans-20" transform="translate(286.230469 0)"/>
     <use xlink:href="#DejaVuSans-3a" transform="translate(318.017578 0)"/>
     <use xlink:href="#DejaVuSans-20" transform="translate(351.708984 0)"/>
     <use xlink:href="#DejaVuSans-45" transform="translate(383.496094 0)"/>
     <use xlink:href="#DejaVuSans-78" transform="translate(446.679688 0)"/>
     <use xlink:href="#DejaVuSans-61" transform="translate(505.859375 0)"/>
     <use xlink:href="#DejaVuSans-6d" transform="translate(567.138672 0)"/>
     <use xlink:href="#DejaVuSans-70" transform="translate(664.550781 0)"/>
     <use xlink:href="#DejaVuSans-6c" transform="translate(728.027344 0)"/>
     <use xlink:href="#DejaVuSans-65" transform="translate(755.810547 0)"/>
    </g>
    <!--  1: Homogeneous -->
    <g transform="translate(560.692481 310.122686) scale(0.03 -0.03)">
     <use xlink:href="#DejaVuSans-20"/>
     <use xlink:href="#DejaVuSans-31" transform="translate(31.787109 0)"/>
     <use xlink:href="#DejaVuSans-3a" transform="translate(95.410156 0)"/>
     <use xlink:href="#DejaVuSans-20" transform="translate(129.101562 0)"/>
     <use xlink:href="#DejaVuSans-48" transform="translate(160.888672 0)"/>
     <use xlink:href="#DejaVuSans-6f" transform="translate(236.083984 0)"/>
     <use xlink:href="#DejaVuSans-6d" transform="translate(297.265625 0)"/>
     <use xlink:href="#DejaVuSans-6f" transform="translate(394.677734 0)"/>
     <use xlink:href="#DejaVuSans-67" transform="translate(455.859375 0)"/>
     <use xlink:href="#DejaVuSans-65" transform="translate(519.335938 0)"/>
     <use xlink:href="#DejaVuSans-6e" transform="translate(580.859375 0)"/>
     <use xlink:href="#DejaVuSans-65" transform="translate(644.238281 0)"/>
     <use xlink:href="#DejaVuSans-6f" transform="translate(705.761719 0)"/>
     <use xlink:href="#DejaVuSans-75" transform="translate(766.943359 0)"/>
     <use xlink:href="#DejaVuSans-73" transform="translate(830.322266 0)"/>
    </g>
    <!--  Permeability -->
    <g transform="translate(564.107325 313.48203) scale(0.03 -0.03)">
     <defs>
      <path id="DejaVuSans-62" d="M 3116 1747 
Q 3116 2381 2855 2742 
Q 2594 3103 2138 3103 
Q 1681 3103 1420 2742 
Q 1159 2381 1159 1747 
Q 1159 1113 1420 752 
Q 1681 391 2138 391 
Q 2594 391 2855 752 
Q 3116 1113 3116 1747 
z
M 1159 2969 
Q 1341 3281 1617 3432 
Q 1894 3584 2278 3584 
Q 2916 3584 3314 3078 
Q 3713 2572 3713 1747 
Q 3713 922 3314 415 
Q 2916 -91 2278 -91 
Q 1894 -91 1617 61 
Q 1341 213 1159 525 
L 1159 0 
L 581 0 
L 581 4863 
L 1159 4863 
L 1159 2969 
z
" transform="scale(0.015625)"/>
      <path id="DejaVuSans-79" d="M 2059 -325 
Q 1816 -950 1584 -1140 
Q 1353 -1331 966 -1331 
L 506 -1331 
L 506 -850 
L 844 -850 
Q 1081 -850 1212 -737 
Q 1344 -625 1503 -206 
L 1606 56 
L 191 3500 
L 800 3500 
L 1894 763 
L 2988 3500 
L 3597 3500 
L 2059 -325 
z
" transform="scale(0.015625)"/>
     </defs>
     <use xlink:href="#DejaVuSans-20"/>
     <use xlink:href="#DejaVuSans-50" transform="translate(31.787109 0)"/>
     <use xlink:href="#DejaVuSans-65" transform="translate(88.464844 0)"/>
     <use xlink:href="#DejaVuSans-72" transform="translate(149.988281 0)"/>
     <use xlink:href="#DejaVuSans-6d" transform="translate(189.351562 0)"/>
     <use xlink:href="#DejaVuSans-65" transform="translate(286.763672 0)"/>
     <use xlink:href="#DejaVuSans-61" transform="translate(348.287109 0)"/>
     <use xlink:href="#DejaVuSans-62" transform="translate(409.566406 0)"/>
     <use xlink:href="#DejaVuSans-69" transform="translate(473.042969 0)"/>
     <use xlink:href="#DejaVuSans-6c" transform="translate(500.826172 0)"/>
     <use xlink:href="#DejaVuSans-69" transform="translate(528.609375 0)"/>
     <use xlink:href="#DejaVuSans-74" transform="translate(556.392578 0)"/>
     <use xlink:href="#DejaVuSans-79" transform="translate(595.601562 0)"/>
    </g>
    <!--  -->
    <g transform="translate(573.929044 316.841374) scale(0.03 -0.03)"/>
   </g>
   <g id="text_11">
    <!--  2.4.2 : Example -->
    <g transform="translate(660.488484 306.763342) scale(0.03 -0.03)">
     <use xlink:href="#DejaVuSans-20"/>
     <use xlink:href="#DejaVuSans-32" transform="translate(31.787109 0)"/>
     <use xlink:href="#DejaVuSans-2e" transform="translate(95.410156 0)"/>
     <use xlink:href="#DejaVuSans-34" transform="translate(127.197266 0)"/>
     <use xlink:href="#DejaVuSans-2e" transform="translate(190.820312 0)"/>
     <use xlink:href="#DejaVuSans-32" transform="translate(222.607422 0)"/>
     <use xlink:href="#DejaVuSans-20" transform="translate(286.230469 0)"/>
     <use xlink:href="#DejaVuSans-3a" transform="translate(318.017578 0)"/>
     <use xlink:href="#DejaVuSans-20" transform="translate(351.708984 0)"/>
     <use xlink:href="#DejaVuSans-45" transform="translate(383.496094 0)"/>
     <use xlink:href="#DejaVuSans-78" transform="translate(446.679688 0)"/>
     <use xlink:href="#DejaVuSans-61" transform="translate(505.859375 0)"/>
     <use xlink:href="#DejaVuSans-6d" transform="translate(567.138672 0)"/>
     <use xlink:href="#DejaVuSans-70" transform="translate(664.550781 0)"/>
     <use xlink:href="#DejaVuSans-6c" transform="translate(728.027344 0)"/>
     <use xlink:href="#DejaVuSans-65" transform="translate(755.810547 0)"/>
    </g>
    <!--  2: Discontinuous -->
    <g transform="translate(659.733094 310.122686) scale(0.03 -0.03)">
     <defs>
      <path id="DejaVuSans-44" d="M 1259 4147 
L 1259 519 
L 2022 519 
Q 2988 519 3436 956 
Q 3884 1394 3884 2338 
Q 3884 3275 3436 3711 
Q 2988 4147 2022 4147 
L 1259 4147 
z
M 628 4666 
L 1925 4666 
Q 3281 4666 3915 4102 
Q 4550 3538 4550 2338 
Q 4550 1131 3912 565 
Q 3275 0 1925 0 
L 628 0 
L 628 4666 
z
" transform="scale(0.015625)"/>
     </defs>
     <use xlink:href="#DejaVuSans-20"/>
     <use xlink:href="#DejaVuSans-32" transform="translate(31.787109 0)"/>
     <use xlink:href="#DejaVuSans-3a" transform="translate(95.410156 0)"/>
     <use xlink:href="#DejaVuSans-20" transform="translate(129.101562 0)"/>
     <use xlink:href="#DejaVuSans-44" transform="translate(160.888672 0)"/>
     <use xlink:href="#DejaVuSans-69" transform="translate(237.890625 0)"/>
     <use xlink:href="#DejaVuSans-73" transform="translate(265.673828 0)"/>
     <use xlink:href="#DejaVuSans-63" transform="translate(317.773438 0)"/>
     <use xlink:href="#DejaVuSans-6f" transform="translate(372.753906 0)"/>
     <use xlink:href="#DejaVuSans-6e" transform="translate(433.935547 0)"/>
     <use xlink:href="#DejaVuSans-74" transform="translate(497.314453 0)"/>
     <use xlink:href="#DejaVuSans-69" transform="translate(536.523438 0)"/>
     <use xlink:href="#DejaVuSans-6e" transform="translate(564.306641 0)"/>
     <use xlink:href="#DejaVuSans-75" transform="translate(627.685547 0)"/>
     <use xlink:href="#DejaVuSans-6f" transform="translate(691.064453 0)"/>
     <use xlink:href="#DejaVuSans-75" transform="translate(752.246094 0)"/>
     <use xlink:href="#DejaVuSans-73" transform="translate(815.625 0)"/>
    </g>
    <!--  Permeability -->
    <g transform="translate(662.926687 313.48203) scale(0.03 -0.03)">
     <use xlink:href="#DejaVuSans-20"/>
     <use xlink:href="#DejaVuSans-50" transform="translate(31.787109 0)"/>
     <use xlink:href="#DejaVuSans-65" transform="translate(88.464844 0)"/>
     <use xlink:href="#DejaVuSans-72" transform="translate(149.988281 0)"/>
     <use xlink:href="#DejaVuSans-6d" transform="translate(189.351562 0)"/>
     <use xlink:href="#DejaVuSans-65" transform="translate(286.763672 0)"/>
     <use xlink:href="#DejaVuSans-61" transform="translate(348.287109 0)"/>
     <use xlink:href="#DejaVuSans-62" transform="translate(409.566406 0)"/>
     <use xlink:href="#DejaVuSans-69" transform="translate(473.042969 0)"/>
     <use xlink:href="#DejaVuSans-6c" transform="translate(500.826172 0)"/>
     <use xlink:href="#DejaVuSans-69" transform="translate(528.609375 0)"/>
     <use xlink:href="#DejaVuSans-74" transform="translate(556.392578 0)"/>
     <use xlink:href="#DejaVuSans-79" transform="translate(595.601562 0)"/>
    </g>
    <!--  -->
    <g transform="translate(672.748406 316.841374) scale(0.03 -0.03)"/>
   </g>
   <g id="text_12">
    <!--  2.4.3 : Example -->
    <g transform="translate(759.307847 306.763342) scale(0.03 -0.03)">
     <use xlink:href="#DejaVuSans-20"/>
     <use xlink:href="#DejaVuSans-32" transform="translate(31.787109 0)"/>
     <use xlink:href="#DejaVuSans-2e" transform="translate(95.410156 0)"/>
     <use xlink:href="#DejaVuSans-34" transform="translate(127.197266 0)"/>
     <use xlink:href="#DejaVuSans-2e" transform="translate(190.820312 0)"/>
     <use xlink:href="#DejaVuSans-33" transform="translate(222.607422 0)"/>
     <use xlink:href="#DejaVuSans-20" transform="translate(286.230469 0)"/>
     <use xlink:href="#DejaVuSans-3a" transform="translate(318.017578 0)"/>
     <use xlink:href="#DejaVuSans-20" transform="translate(351.708984 0)"/>
     <use xlink:href="#DejaVuSans-45" transform="translate(383.496094 0)"/>
     <use xlink:href="#DejaVuSans-78" transform="translate(446.679688 0)"/>
     <use xlink:href="#DejaVuSans-61" transform="translate(505.859375 0)"/>
     <use xlink:href="#DejaVuSans-6d" transform="translate(567.138672 0)"/>
     <use xlink:href="#DejaVuSans-70" transform="translate(664.550781 0)"/>
     <use xlink:href="#DejaVuSans-6c" transform="translate(728.027344 0)"/>
     <use xlink:href="#DejaVuSans-65" transform="translate(755.810547 0)"/>
    </g>
    <!--  3: No-Flow -->
    <g transform="translate(763.121362 310.122686) scale(0.03 -0.03)">
     <defs>
      <path id="DejaVuSans-77" d="M 269 3500 
L 844 3500 
L 1563 769 
L 2278 3500 
L 2956 3500 
L 3675 769 
L 4391 3500 
L 4966 3500 
L 4050 0 
L 3372 0 
L 2619 2869 
L 1863 0 
L 1184 0 
L 269 3500 
z
" transform="scale(0.015625)"/>
     </defs>
     <use xlink:href="#DejaVuSans-20"/>
     <use xlink:href="#DejaVuSans-33" transform="translate(31.787109 0)"/>
     <use xlink:href="#DejaVuSans-3a" transform="translate(95.410156 0)"/>
     <use xlink:href="#DejaVuSans-20" transform="translate(129.101562 0)"/>
     <use xlink:href="#DejaVuSans-4e" transform="translate(160.888672 0)"/>
     <use xlink:href="#DejaVuSans-6f" transform="translate(235.693359 0)"/>
     <use xlink:href="#DejaVuSans-2d" transform="translate(298.75 0)"/>
     <use xlink:href="#DejaVuSans-46" transform="translate(334.833984 0)"/>
     <use xlink:href="#DejaVuSans-6c" transform="translate(392.353516 0)"/>
     <use xlink:href="#DejaVuSans-6f" transform="translate(420.136719 0)"/>
     <use xlink:href="#DejaVuSans-77" transform="translate(481.318359 0)"/>
    </g>
    <!--  Boundary Conditions -->
    <g transform="translate(755.450737 313.48203) scale(0.03 -0.03)">
     <defs>
      <path id="DejaVuSans-42" d="M 1259 2228 
L 1259 519 
L 2272 519 
Q 2781 519 3026 730 
Q 3272 941 3272 1375 
Q 3272 1813 3026 2020 
Q 2781 2228 2272 2228 
L 1259 2228 
z
M 1259 4147 
L 1259 2741 
L 2194 2741 
Q 2656 2741 2882 2914 
Q 3109 3088 3109 3444 
Q 3109 3797 2882 3972 
Q 2656 4147 2194 4147 
L 1259 4147 
z
M 628 4666 
L 2241 4666 
Q 2963 4666 3353 4366 
Q 3744 4066 3744 3513 
Q 3744 3084 3544 2831 
Q 3344 2578 2956 2516 
Q 3422 2416 3680 2098 
Q 3938 1781 3938 1306 
Q 3938 681 3513 340 
Q 3088 0 2303 0 
L 628 0 
L 628 4666 
z
" transform="scale(0.015625)"/>
     </defs>
     <use xlink:href="#DejaVuSans-20"/>
     <use xlink:href="#DejaVuSans-42" transform="translate(31.787109 0)"/>
     <use xlink:href="#DejaVuSans-6f" transform="translate(100.390625 0)"/>
     <use xlink:href="#DejaVuSans-75" transform="translate(161.572266 0)"/>
     <use xlink:href="#DejaVuSans-6e" transform="translate(224.951172 0)"/>
     <use xlink:href="#DejaVuSans-64" transform="translate(288.330078 0)"/>
     <use xlink:href="#DejaVuSans-61" transform="translate(351.806641 0)"/>
     <use xlink:href="#DejaVuSans-72" transform="translate(413.085938 0)"/>
     <use xlink:href="#DejaVuSans-79" transform="translate(454.199219 0)"/>
     <use xlink:href="#DejaVuSans-20" transform="translate(513.378906 0)"/>
     <use xlink:href="#DejaVuSans-43" transform="translate(545.166016 0)"/>
     <use xlink:href="#DejaVuSans-6f" transform="translate(614.990234 0)"/>
     <use xlink:href="#DejaVuSans-6e" transform="translate(676.171875 0)"/>
     <use xlink:href="#DejaVuSans-64" transform="translate(739.550781 0)"/>
     <use xlink:href="#DejaVuSans-69" transform="translate(803.027344 0)"/>
     <use xlink:href="#DejaVuSans-74" transform="translate(830.810547 0)"/>
     <use xlink:href="#DejaVuSans-69" transform="translate(870.019531 0)"/>
     <use xlink:href="#DejaVuSans-6f" transform="translate(897.802734 0)"/>
     <use xlink:href="#DejaVuSans-6e" transform="translate(958.984375 0)"/>
     <use xlink:href="#DejaVuSans-73" transform="translate(1022.363281 0)"/>
    </g>
    <!--  -->
    <g transform="translate(771.567769 316.841374) scale(0.03 -0.03)"/>
   </g>
   <g id="text_13">
    <!--  2.5 : Concluding -->
    <g transform="translate(692.424339 187.765822) scale(0.03 -0.03)">
     <use xlink:href="#DejaVuSans-20"/>
     <use xlink:href="#DejaVuSans-32" transform="translate(31.787109 0)"/>
     <use xlink:href="#DejaVuSans-2e" transform="translate(95.410156 0)"/>
     <use xlink:href="#DejaVuSans-35" transform="translate(127.197266 0)"/>
     <use xlink:href="#DejaVuSans-20" transform="translate(190.820312 0)"/>
     <use xlink:href="#DejaVuSans-3a" transform="translate(222.607422 0)"/>
     <use xlink:href="#DejaVuSans-20" transform="translate(256.298828 0)"/>
     <use xlink:href="#DejaVuSans-43" transform="translate(288.085938 0)"/>
     <use xlink:href="#DejaVuSans-6f" transform="translate(357.910156 0)"/>
     <use xlink:href="#DejaVuSans-6e" transform="translate(419.091797 0)"/>
     <use xlink:href="#DejaVuSans-63" transform="translate(482.470703 0)"/>
     <use xlink:href="#DejaVuSans-6c" transform="translate(537.451172 0)"/>
     <use xlink:href="#DejaVuSans-75" transform="translate(565.234375 0)"/>
     <use xlink:href="#DejaVuSans-64" transform="translate(628.613281 0)"/>
     <use xlink:href="#DejaVuSans-69" transform="translate(692.089844 0)"/>
     <use xlink:href="#DejaVuSans-6e" transform="translate(719.873047 0)"/>
     <use xlink:href="#DejaVuSans-67" transform="translate(783.251953 0)"/>
    </g>
    <!--  Remarks -->
    <g transform="translate(698.103714 191.125166) scale(0.03 -0.03)">
     <defs>
      <path id="DejaVuSans-52" d="M 2841 2188 
Q 3044 2119 3236 1894 
Q 3428 1669 3622 1275 
L 4263 0 
L 3584 0 
L 2988 1197 
Q 2756 1666 2539 1819 
Q 2322 1972 1947 1972 
L 1259 1972 
L 1259 0 
L 628 0 
L 628 4666 
L 2053 4666 
Q 2853 4666 3247 4331 
Q 3641 3997 3641 3322 
Q 3641 2881 3436 2590 
Q 3231 2300 2841 2188 
z
M 1259 4147 
L 1259 2491 
L 2053 2491 
Q 2509 2491 2742 2702 
Q 2975 2913 2975 3322 
Q 2975 3731 2742 3939 
Q 2509 4147 2053 4147 
L 1259 4147 
z
" transform="scale(0.015625)"/>
      <path id="DejaVuSans-6b" d="M 581 4863 
L 1159 4863 
L 1159 1991 
L 2875 3500 
L 3609 3500 
L 1753 1863 
L 3688 0 
L 2938 0 
L 1159 1709 
L 1159 0 
L 581 0 
L 581 4863 
z
" transform="scale(0.015625)"/>
     </defs>
     <use xlink:href="#DejaVuSans-20"/>
     <use xlink:href="#DejaVuSans-52" transform="translate(31.787109 0)"/>
     <use xlink:href="#DejaVuSans-65" transform="translate(96.769531 0)"/>
     <use xlink:href="#DejaVuSans-6d" transform="translate(158.292969 0)"/>
     <use xlink:href="#DejaVuSans-61" transform="translate(255.705078 0)"/>
     <use xlink:href="#DejaVuSans-72" transform="translate(316.984375 0)"/>
     <use xlink:href="#DejaVuSans-6b" transform="translate(358.097656 0)"/>
     <use xlink:href="#DejaVuSans-73" transform="translate(416.007812 0)"/>
    </g>
   </g>
   <g id="text_14">
    <!--  2: Nonlinear -->
    <g transform="translate(344.13485 21.85817) scale(0.1 -0.1)">
     <use xlink:href="#DejaVuSans-20"/>
     <use xlink:href="#DejaVuSans-32" transform="translate(31.787109 0)"/>
     <use xlink:href="#DejaVuSans-3a" transform="translate(95.410156 0)"/>
     <use xlink:href="#DejaVuSans-20" transform="translate(129.101562 0)"/>
     <use xlink:href="#DejaVuSans-4e" transform="translate(160.888672 0)"/>
     <use xlink:href="#DejaVuSans-6f" transform="translate(235.693359 0)"/>
     <use xlink:href="#DejaVuSans-6e" transform="translate(296.875 0)"/>
     <use xlink:href="#DejaVuSans-6c" transform="translate(360.253906 0)"/>
     <use xlink:href="#DejaVuSans-69" transform="translate(388.037109 0)"/>
     <use xlink:href="#DejaVuSans-6e" transform="translate(415.820312 0)"/>
     <use xlink:href="#DejaVuSans-65" transform="translate(479.199219 0)"/>
     <use xlink:href="#DejaVuSans-61" transform="translate(540.722656 0)"/>
     <use xlink:href="#DejaVuSans-72" transform="translate(602.001953 0)"/>
    </g>
    <!--  Finite-Volume -->
    <g transform="translate(341.09735 33.055983) scale(0.1 -0.1)">
     <use xlink:href="#DejaVuSans-20"/>
     <use xlink:href="#DejaVuSans-46" transform="translate(31.787109 0)"/>
     <use xlink:href="#DejaVuSans-69" transform="translate(82.056641 0)"/>
     <use xlink:href="#DejaVuSans-6e" transform="translate(109.839844 0)"/>
     <use xlink:href="#DejaVuSans-69" transform="translate(173.21875 0)"/>
     <use xlink:href="#DejaVuSans-74" transform="translate(201.001953 0)"/>
     <use xlink:href="#DejaVuSans-65" transform="translate(240.210938 0)"/>
     <use xlink:href="#DejaVuSans-2d" transform="translate(301.734375 0)"/>
     <use xlink:href="#DejaVuSans-56" transform="translate(331.943359 0)"/>
     <use xlink:href="#DejaVuSans-6f" transform="translate(392.601562 0)"/>
     <use xlink:href="#DejaVuSans-6c" transform="translate(453.783203 0)"/>
     <use xlink:href="#DejaVuSans-75" transform="translate(481.566406 0)"/>
     <use xlink:href="#DejaVuSans-6d" transform="translate(544.945312 0)"/>
     <use xlink:href="#DejaVuSans-65" transform="translate(642.357422 0)"/>
    </g>
    <!--  Methods for -->
    <g transform="translate(344.879381 44.253795) scale(0.1 -0.1)">
     <use xlink:href="#DejaVuSans-20"/>
     <use xlink:href="#DejaVuSans-4d" transform="translate(31.787109 0)"/>
     <use xlink:href="#DejaVuSans-65" transform="translate(118.066406 0)"/>
     <use xlink:href="#DejaVuSans-74" transform="translate(179.589844 0)"/>
     <use xlink:href="#DejaVuSans-68" transform="translate(218.798828 0)"/>
     <use xlink:href="#DejaVuSans-6f" transform="translate(282.177734 0)"/>
     <use xlink:href="#DejaVuSans-64" transform="translate(343.359375 0)"/>
     <use xlink:href="#DejaVuSans-73" transform="translate(406.835938 0)"/>
     <use xlink:href="#DejaVuSans-20" transform="translate(458.935547 0)"/>
     <use xlink:href="#DejaVuSans-66" transform="translate(490.722656 0)"/>
     <use xlink:href="#DejaVuSans-6f" transform="translate(525.927734 0)"/>
     <use xlink:href="#DejaVuSans-72" transform="translate(587.109375 0)"/>
    </g>
    <!--  the Flow Equation -->
    <g transform="translate(329.760631 55.451608) scale(0.1 -0.1)">
     <use xlink:href="#DejaVuSans-20"/>
     <use xlink:href="#DejaVuSans-74" transform="translate(31.787109 0)"/>
     <use xlink:href="#DejaVuSans-68" transform="translate(70.996094 0)"/>
     <use xlink:href="#DejaVuSans-65" transform="translate(134.375 0)"/>
     <use xlink:href="#DejaVuSans-20" transform="translate(195.898438 0)"/>
     <use xlink:href="#DejaVuSans-46" transform="translate(227.685547 0)"/>
     <use xlink:href="#DejaVuSans-6c" transform="translate(285.205078 0)"/>
     <use xlink:href="#DejaVuSans-6f" transform="translate(312.988281 0)"/>
     <use xlink:href="#DejaVuSans-77" transform="translate(374.169922 0)"/>
     <use xlink:href="#DejaVuSans-20" transform="translate(455.957031 0)"/>
     <use xlink:href="#DejaVuSans-45" transform="translate(487.744141 0)"/>
     <use xlink:href="#DejaVuSans-71" transform="translate(550.927734 0)"/>
     <use xlink:href="#DejaVuSans-75" transform="translate(614.404297 0)"/>
     <use xlink:href="#DejaVuSans-61" transform="translate(677.783203 0)"/>
     <use xlink:href="#DejaVuSans-74" transform="translate(739.0625 0)"/>
     <use xlink:href="#DejaVuSans-69" transform="translate(778.271484 0)"/>
     <use xlink:href="#DejaVuSans-6f" transform="translate(806.054688 0)"/>
     <use xlink:href="#DejaVuSans-6e" transform="translate(867.236328 0)"/>
    </g>
    <!--  in Porous Media -->
    <g transform="translate(335.2786 66.64942) scale(0.1 -0.1)">
     <use xlink:href="#DejaVuSans-20"/>
     <use xlink:href="#DejaVuSans-69" transform="translate(31.787109 0)"/>
     <use xlink:href="#DejaVuSans-6e" transform="translate(59.570312 0)"/>
     <use xlink:href="#DejaVuSans-20" transform="translate(122.949219 0)"/>
     <use xlink:href="#DejaVuSans-50" transform="translate(154.736328 0)"/>
     <use xlink:href="#DejaVuSans-6f" transform="translate(211.414062 0)"/>
     <use xlink:href="#DejaVuSans-72" transform="translate(272.595703 0)"/>
     <use xlink:href="#DejaVuSans-6f" transform="translate(311.458984 0)"/>
     <use xlink:href="#DejaVuSans-75" transform="translate(372.640625 0)"/>
     <use xlink:href="#DejaVuSans-73" transform="translate(436.019531 0)"/>
     <use xlink:href="#DejaVuSans-20" transform="translate(488.119141 0)"/>
     <use xlink:href="#DejaVuSans-4d" transform="translate(519.90625 0)"/>
     <use xlink:href="#DejaVuSans-65" transform="translate(606.185547 0)"/>
     <use xlink:href="#DejaVuSans-64" transform="translate(667.708984 0)"/>
     <use xlink:href="#DejaVuSans-69" transform="translate(731.185547 0)"/>
     <use xlink:href="#DejaVuSans-61" transform="translate(758.96875 0)"/>
    </g>
    <!--  -->
    <g transform="translate(376.290319 77.847233) scale(0.1 -0.1)"/>
   </g>
  </g>
 </g>
 <defs>
  <clipPath id="pa5adb7c925">
   <rect x="7.2" y="7.2" width="837" height="332.64"/>
  </clipPath>
 </defs>
</svg>
