<?xml version="1.0" encoding="utf-8" standalone="no"?>
<!DOCTYPE svg PUBLIC "-//W3C//DTD SVG 1.1//EN"
  "http://www.w3.org/Graphics/SVG/1.1/DTD/svg11.dtd">
<svg xmlns:xlink="http://www.w3.org/1999/xlink" width="851.4pt" height="347.04pt" viewBox="0 0 851.4 347.04" xmlns="http://www.w3.org/2000/svg" version="1.1">
 <metadata>
  <rdf:RDF xmlns:dc="http://purl.org/dc/elements/1.1/" xmlns:cc="http://creativecommons.org/ns#" xmlns:rdf="http://www.w3.org/1999/02/22-rdf-syntax-ns#">
   <cc:Work>
    <dc:type rdf:resource="http://purl.org/dc/dcmitype/StillImage"/>
    <dc:date>2025-07-09T13:06:56.155076</dc:date>
    <dc:format>image/svg+xml</dc:format>
    <dc:creator>
     <cc:Agent>
      <dc:title>Matplotlib v3.10.3, https://matplotlib.org/</dc:title>
     </cc:Agent>
    </dc:creator>
   </cc:Work>
  </rdf:RDF>
 </metadata>
 <defs>
  <style type="text/css">*{stroke-linejoin: round; stroke-linecap: butt}</style>
 </defs>
 <g id="figure_1">
  <g id="patch_1">
   <path d="M 0 347.04 
L 851.4 347.04 
L 851.4 -0 
L 0 -0 
z
" style="fill: #ffffff"/>
  </g>
  <g id="axes_1">
   <g id="patch_2">
    <path d="M 290.286474 204.571347 
Q 193.699293 253.404694 98.109872 301.733585 
" clip-path="url(#pe1c110952d)" style="fill: none; stroke: #000000; stroke-linecap: round"/>
    <path d="M 102.581964 301.713636 
L 98.109872 301.733585 
L 100.777168 298.143942 
z
" clip-path="url(#pe1c110952d)" style="stroke: #000000; stroke-linecap: round"/>
   </g>
   <g id="patch_3">
    <path d="M 292.986891 209.044721 
Q 228.899964 254.414349 165.72555 299.137974 
" clip-path="url(#pe1c110952d)" style="fill: none; stroke: #000000; stroke-linecap: round"/>
    <path d="M 170.145861 298.459115 
L 165.72555 299.137974 
L 167.834649 295.194409 
z
" clip-path="url(#pe1c110952d)" style="stroke: #000000; stroke-linecap: round"/>
   </g>
   <g id="patch_4">
    <path d="M 298.984795 215.596086 
Q 264.841974 255.896454 231.421863 295.343774 
" clip-path="url(#pe1c110952d)" style="fill: none; stroke: #000000; stroke-linecap: round"/>
    <path d="M 235.533487 293.584639 
L 231.421863 295.343774 
L 232.481529 290.998995 
z
" clip-path="url(#pe1c110952d)" style="stroke: #000000; stroke-linecap: round"/>
   </g>
   <g id="patch_5">
    <path d="M 312.249722 222.645944 
Q 302.428284 257.490294 292.910164 291.258541 
" clip-path="url(#pe1c110952d)" style="fill: none; stroke: #000000; stroke-linecap: round"/>
    <path d="M 295.920336 287.951146 
L 292.910164 291.258541 
L 292.070351 286.865966 
z
" clip-path="url(#pe1c110952d)" style="stroke: #000000; stroke-linecap: round"/>
   </g>
   <g id="patch_6">
    <path d="M 331.483116 222.631008 
Q 341.363874 257.486642 350.939711 291.266627 
" clip-path="url(#pe1c110952d)" style="fill: none; stroke: #000000; stroke-linecap: round"/>
    <path d="M 351.772972 286.872804 
L 350.939711 291.266627 
L 347.924609 287.963725 
z
" clip-path="url(#pe1c110952d)" style="stroke: #000000; stroke-linecap: round"/>
   </g>
   <g id="patch_7">
    <path d="M 344.721905 215.573681 
Q 378.945084 255.89225 412.444756 295.358449 
" clip-path="url(#pe1c110952d)" style="fill: none; stroke: #000000; stroke-linecap: round"/>
    <path d="M 411.381019 291.014664 
L 412.444756 295.358449 
L 408.331486 293.603167 
z
" clip-path="url(#pe1c110952d)" style="stroke: #000000; stroke-linecap: round"/>
   </g>
   <g id="patch_8">
    <path d="M 546.646058 219.397333 
Q 525.524209 256.758477 504.952591 293.146354 
" clip-path="url(#pe1c110952d)" style="fill: none; stroke: #000000; stroke-linecap: round"/>
    <path d="M 508.662182 290.64857 
L 504.952591 293.146354 
L 505.180118 288.68001 
z
" clip-path="url(#pe1c110952d)" style="stroke: #000000; stroke-linecap: round"/>
   </g>
   <g id="patch_9">
    <path d="M 564.047107 223.975261 
Q 564.047107 257.793418 564.047107 290.493542 
" clip-path="url(#pe1c110952d)" style="fill: none; stroke: #000000; stroke-linecap: round"/>
    <path d="M 566.047107 286.493542 
L 564.047107 290.493542 
L 562.047107 286.493542 
z
" clip-path="url(#pe1c110952d)" style="stroke: #000000; stroke-linecap: round"/>
   </g>
   <g id="patch_10">
    <path d="M 581.448157 219.397333 
Q 602.570005 256.758477 623.141624 293.146354 
" clip-path="url(#pe1c110952d)" style="fill: none; stroke: #000000; stroke-linecap: round"/>
    <path d="M 622.914097 288.68001 
L 623.141624 293.146354 
L 619.432033 290.64857 
z
" clip-path="url(#pe1c110952d)" style="stroke: #000000; stroke-linecap: round"/>
   </g>
   <g id="patch_11">
    <path d="M 590.529719 212.039417 
Q 639.209278 255.092562 687.051351 297.40502 
" clip-path="url(#pe1c110952d)" style="fill: none; stroke: #000000; stroke-linecap: round"/>
    <path d="M 685.380057 293.256915 
L 687.051351 297.40502 
L 682.730091 296.253192 
z
" clip-path="url(#pe1c110952d)" style="stroke: #000000; stroke-linecap: round"/>
   </g>
   <g id="patch_12">
    <path d="M 594.505806 206.576524 
Q 674.69513 253.857186 753.921364 300.569997 
" clip-path="url(#pe1c110952d)" style="fill: none; stroke: #000000; stroke-linecap: round"/>
    <path d="M 751.491506 296.815561 
L 753.921364 300.569997 
L 749.4599 300.261221 
z
" clip-path="url(#pe1c110952d)" style="stroke: #000000; stroke-linecap: round"/>
   </g>
   <g id="patch_13">
    <path d="M 270.510584 84.699391 
Q 222.69785 130.00032 175.696716 174.532284 
" clip-path="url(#pe1c110952d)" style="fill: none; stroke: #000000; stroke-linecap: round"/>
    <path d="M 179.975949 173.232992 
L 175.696716 174.532284 
L 177.224822 170.329322 
z
" clip-path="url(#pe1c110952d)" style="stroke: #000000; stroke-linecap: round"/>
   </g>
   <g id="patch_14">
    <path d="M 285.371641 96.645467 
Q 262.681638 134.336168 240.568271 171.069011 
" clip-path="url(#pe1c110952d)" style="fill: none; stroke: #000000; stroke-linecap: round"/>
    <path d="M 244.344773 168.673592 
L 240.568271 171.069011 
L 240.917837 166.610558 
z
" clip-path="url(#pe1c110952d)" style="stroke: #000000; stroke-linecap: round"/>
   </g>
   <g id="patch_15">
    <path d="M 321.841132 106.778216 
Q 321.841132 130.017847 321.841132 152.139444 
" clip-path="url(#pe1c110952d)" style="fill: none; stroke: #000000; stroke-linecap: round"/>
    <path d="M 323.841132 148.139444 
L 321.841132 152.139444 
L 319.841132 148.139444 
z
" clip-path="url(#pe1c110952d)" style="stroke: #000000; stroke-linecap: round"/>
   </g>
   <g id="patch_16">
    <path d="M 381.67195 73.749598 
Q 457.900458 121.761744 533.182941 169.17804 
" clip-path="url(#pe1c110952d)" style="fill: none; stroke: #000000; stroke-linecap: round"/>
    <path d="M 530.864226 165.353964 
L 533.182941 169.17804 
L 528.732451 168.738566 
z
" clip-path="url(#pe1c110952d)" style="stroke: #000000; stroke-linecap: round"/>
   </g>
   <g id="patch_17">
    <path d="M 386.163924 65.44065 
Q 512.214685 123.006027 637.248447 180.106956 
" clip-path="url(#pe1c110952d)" style="fill: none; stroke: #000000; stroke-linecap: round"/>
    <path d="M 634.440747 176.626034 
L 637.248447 180.106956 
L 632.779089 180.264562 
z
" clip-path="url(#pe1c110952d)" style="stroke: #000000; stroke-linecap: round"/>
   </g>
   <g id="PathCollection_1">
    <path d="M 160.830324 207.982598 
C 165.96596 207.982598 170.891945 205.942189 174.523388 202.310746 
C 178.154831 198.679303 180.195241 193.753318 180.195241 188.617682 
C 180.195241 183.482046 178.154831 178.556061 174.523388 174.924618 
C 170.891945 171.293175 165.96596 169.252765 160.830324 169.252765 
C 155.694688 169.252765 150.768703 171.293175 147.13726 174.924618 
C 143.505817 178.556061 141.465407 183.482046 141.465407 188.617682 
C 141.465407 193.753318 143.505817 198.679303 147.13726 202.310746 
C 150.768703 205.942189 155.694688 207.982598 160.830324 207.982598 
z
" clip-path="url(#pe1c110952d)" style="fill: #add8e6; stroke: #add8e6"/>
    <path d="M 230.003878 207.982598 
C 235.139514 207.982598 240.065499 205.942189 243.696942 202.310746 
C 247.328385 198.679303 249.368795 193.753318 249.368795 188.617682 
C 249.368795 183.482046 247.328385 178.556061 243.696942 174.924618 
C 240.065499 171.293175 235.139514 169.252765 230.003878 169.252765 
C 224.868242 169.252765 219.942257 171.293175 216.310814 174.924618 
C 212.679371 178.556061 210.638961 183.482046 210.638961 188.617682 
C 210.638961 193.753318 212.679371 198.679303 216.310814 202.310746 
C 219.942257 205.942189 224.868242 207.982598 230.003878 207.982598 
z
" clip-path="url(#pe1c110952d)" style="fill: #add8e6; stroke: #add8e6"/>
    <path d="M 321.841132 223.973021 
C 331.217477 223.973021 340.211054 220.247759 346.841132 213.617682 
C 353.471209 206.987604 357.196471 197.994027 357.196471 188.617682 
C 357.196471 179.241336 353.471209 170.247759 346.841132 163.617682 
C 340.211054 156.987604 331.217477 153.262343 321.841132 153.262343 
C 312.464786 153.262343 303.471209 156.987604 296.841132 163.617682 
C 290.211054 170.247759 286.485793 179.241336 286.485793 188.617682 
C 286.485793 197.994027 290.211054 206.987604 296.841132 213.617682 
C 303.471209 220.247759 312.464786 223.973021 321.841132 223.973021 
z
" clip-path="url(#pe1c110952d)" style="fill: #add8e6; stroke: #add8e6"/>
    <path d="M 79.832231 330.339462 
C 84.967867 330.339462 89.893852 328.299052 93.525295 324.667609 
C 97.156738 321.036166 99.197148 316.110181 99.197148 310.974545 
C 99.197148 305.83891 97.156738 300.912925 93.525295 297.281482 
C 89.893852 293.650039 84.967867 291.609629 79.832231 291.609629 
C 74.696595 291.609629 69.77061 293.650039 66.139167 297.281482 
C 62.507724 300.912925 60.467315 305.83891 60.467315 310.974545 
C 60.467315 316.110181 62.507724 321.036166 66.139167 324.667609 
C 69.77061 328.299052 74.696595 330.339462 79.832231 330.339462 
z
" clip-path="url(#pe1c110952d)" style="fill: #add8e6; stroke: #add8e6"/>
    <path d="M 149.005785 330.339462 
C 154.141421 330.339462 159.067406 328.299052 162.698849 324.667609 
C 166.330292 321.036166 168.370702 316.110181 168.370702 310.974545 
C 168.370702 305.83891 166.330292 300.912925 162.698849 297.281482 
C 159.067406 293.650039 154.141421 291.609629 149.005785 291.609629 
C 143.870149 291.609629 138.944164 293.650039 135.312721 297.281482 
C 131.681278 300.912925 129.640868 305.83891 129.640868 310.974545 
C 129.640868 316.110181 131.681278 321.036166 135.312721 324.667609 
C 138.944164 328.299052 143.870149 330.339462 149.005785 330.339462 
z
" clip-path="url(#pe1c110952d)" style="fill: #add8e6; stroke: #add8e6"/>
    <path d="M 218.179339 330.339462 
C 223.314975 330.339462 228.24096 328.299052 231.872403 324.667609 
C 235.503846 321.036166 237.544256 316.110181 237.544256 310.974545 
C 237.544256 305.83891 235.503846 300.912925 231.872403 297.281482 
C 228.24096 293.650039 223.314975 291.609629 218.179339 291.609629 
C 213.043703 291.609629 208.117718 293.650039 204.486275 297.281482 
C 200.854832 300.912925 198.814422 305.83891 198.814422 310.974545 
C 198.814422 316.110181 200.854832 321.036166 204.486275 324.667609 
C 208.117718 328.299052 213.043703 330.339462 218.179339 330.339462 
z
" clip-path="url(#pe1c110952d)" style="fill: #add8e6; stroke: #add8e6"/>
    <path d="M 287.352893 330.339462 
C 292.488529 330.339462 297.414513 328.299052 301.045956 324.667609 
C 304.6774 321.036166 306.717809 316.110181 306.717809 310.974545 
C 306.717809 305.83891 304.6774 300.912925 301.045956 297.281482 
C 297.414513 293.650039 292.488529 291.609629 287.352893 291.609629 
C 282.217257 291.609629 277.291272 293.650039 273.659829 297.281482 
C 270.028386 300.912925 267.987976 305.83891 267.987976 310.974545 
C 267.987976 316.110181 270.028386 321.036166 273.659829 324.667609 
C 277.291272 328.299052 282.217257 330.339462 287.352893 330.339462 
z
" clip-path="url(#pe1c110952d)" style="fill: #add8e6; stroke: #add8e6"/>
    <path d="M 356.526446 330.339462 
C 361.662082 330.339462 366.588067 328.299052 370.21951 324.667609 
C 373.850953 321.036166 375.891363 316.110181 375.891363 310.974545 
C 375.891363 305.83891 373.850953 300.912925 370.21951 297.281482 
C 366.588067 293.650039 361.662082 291.609629 356.526446 291.609629 
C 351.39081 291.609629 346.464825 293.650039 342.833382 297.281482 
C 339.201939 300.912925 337.16153 305.83891 337.16153 310.974545 
C 337.16153 316.110181 339.201939 321.036166 342.833382 324.667609 
C 346.464825 328.299052 351.39081 330.339462 356.526446 330.339462 
z
" clip-path="url(#pe1c110952d)" style="fill: #add8e6; stroke: #add8e6"/>
    <path d="M 425.7 330.339462 
C 430.835636 330.339462 435.761621 328.299052 439.393064 324.667609 
C 443.024507 321.036166 445.064917 316.110181 445.064917 310.974545 
C 445.064917 305.83891 443.024507 300.912925 439.393064 297.281482 
C 435.761621 293.650039 430.835636 291.609629 425.7 291.609629 
C 420.564364 291.609629 415.638379 293.650039 412.006936 297.281482 
C 408.375493 300.912925 406.335083 305.83891 406.335083 310.974545 
C 406.335083 316.110181 408.375493 321.036166 412.006936 324.667609 
C 415.638379 328.299052 420.564364 330.339462 425.7 330.339462 
z
" clip-path="url(#pe1c110952d)" style="fill: #add8e6; stroke: #add8e6"/>
    <path d="M 564.047107 223.973021 
C 573.423453 223.973021 582.41703 220.247759 589.047107 213.617682 
C 595.677185 206.987604 599.402446 197.994027 599.402446 188.617682 
C 599.402446 179.241336 595.677185 170.247759 589.047107 163.617682 
C 582.41703 156.987604 573.423453 153.262343 564.047107 153.262343 
C 554.670762 153.262343 545.677185 156.987604 539.047107 163.617682 
C 532.41703 170.247759 528.691768 179.241336 528.691768 188.617682 
C 528.691768 197.994027 532.41703 206.987604 539.047107 213.617682 
C 545.677185 220.247759 554.670762 223.973021 564.047107 223.973021 
z
" clip-path="url(#pe1c110952d)" style="fill: #add8e6; stroke: #add8e6"/>
    <path d="M 494.873554 330.339462 
C 500.00919 330.339462 504.935175 328.299052 508.566618 324.667609 
C 512.198061 321.036166 514.23847 316.110181 514.23847 310.974545 
C 514.23847 305.83891 512.198061 300.912925 508.566618 297.281482 
C 504.935175 293.650039 500.00919 291.609629 494.873554 291.609629 
C 489.737918 291.609629 484.811933 293.650039 481.18049 297.281482 
C 477.549047 300.912925 475.508637 305.83891 475.508637 310.974545 
C 475.508637 316.110181 477.549047 321.036166 481.18049 324.667609 
C 484.811933 328.299052 489.737918 330.339462 494.873554 330.339462 
z
" clip-path="url(#pe1c110952d)" style="fill: #add8e6; stroke: #add8e6"/>
    <path d="M 564.047107 330.339462 
C 569.182743 330.339462 574.108728 328.299052 577.740171 324.667609 
C 581.371614 321.036166 583.412024 316.110181 583.412024 310.974545 
C 583.412024 305.83891 581.371614 300.912925 577.740171 297.281482 
C 574.108728 293.650039 569.182743 291.609629 564.047107 291.609629 
C 558.911471 291.609629 553.985487 293.650039 550.354044 297.281482 
C 546.7226 300.912925 544.682191 305.83891 544.682191 310.974545 
C 544.682191 316.110181 546.7226 321.036166 550.354044 324.667609 
C 553.985487 328.299052 558.911471 330.339462 564.047107 330.339462 
z
" clip-path="url(#pe1c110952d)" style="fill: #add8e6; stroke: #add8e6"/>
    <path d="M 633.220661 330.339462 
C 638.356297 330.339462 643.282282 328.299052 646.913725 324.667609 
C 650.545168 321.036166 652.585578 316.110181 652.585578 310.974545 
C 652.585578 305.83891 650.545168 300.912925 646.913725 297.281482 
C 643.282282 293.650039 638.356297 291.609629 633.220661 291.609629 
C 628.085025 291.609629 623.15904 293.650039 619.527597 297.281482 
C 615.896154 300.912925 613.855744 305.83891 613.855744 310.974545 
C 613.855744 316.110181 615.896154 321.036166 619.527597 324.667609 
C 623.15904 328.299052 628.085025 330.339462 633.220661 330.339462 
z
" clip-path="url(#pe1c110952d)" style="fill: #add8e6; stroke: #add8e6"/>
    <path d="M 702.394215 330.339462 
C 707.529851 330.339462 712.455836 328.299052 716.087279 324.667609 
C 719.718722 321.036166 721.759132 316.110181 721.759132 310.974545 
C 721.759132 305.83891 719.718722 300.912925 716.087279 297.281482 
C 712.455836 293.650039 707.529851 291.609629 702.394215 291.609629 
C 697.258579 291.609629 692.332594 293.650039 688.701151 297.281482 
C 685.069708 300.912925 683.029298 305.83891 683.029298 310.974545 
C 683.029298 316.110181 685.069708 321.036166 688.701151 324.667609 
C 692.332594 328.299052 697.258579 330.339462 702.394215 330.339462 
z
" clip-path="url(#pe1c110952d)" style="fill: #add8e6; stroke: #add8e6"/>
    <path d="M 771.567769 330.339462 
C 776.703405 330.339462 781.62939 328.299052 785.260833 324.667609 
C 788.892276 321.036166 790.932685 316.110181 790.932685 310.974545 
C 790.932685 305.83891 788.892276 300.912925 785.260833 297.281482 
C 781.62939 293.650039 776.703405 291.609629 771.567769 291.609629 
C 766.432133 291.609629 761.506148 293.650039 757.874705 297.281482 
C 754.243262 300.912925 752.202852 305.83891 752.202852 310.974545 
C 752.202852 316.110181 754.243262 321.036166 757.874705 324.667609 
C 761.506148 328.299052 766.432133 330.339462 771.567769 330.339462 
z
" clip-path="url(#pe1c110952d)" style="fill: #add8e6; stroke: #add8e6"/>
    <path d="M 655.884361 207.982598 
C 661.019997 207.982598 665.945982 205.942189 669.577425 202.310746 
C 673.208868 198.679303 675.249278 193.753318 675.249278 188.617682 
C 675.249278 183.482046 673.208868 178.556061 669.577425 174.924618 
C 665.945982 171.293175 661.019997 169.252765 655.884361 169.252765 
C 650.748725 169.252765 645.82274 171.293175 642.191297 174.924618 
C 638.559854 178.556061 636.519444 183.482046 636.519444 188.617682 
C 636.519444 193.753318 638.559854 198.679303 642.191297 202.310746 
C 645.82274 205.942189 650.748725 207.982598 655.884361 207.982598 
z
" clip-path="url(#pe1c110952d)" style="fill: #add8e6; stroke: #add8e6"/>
    <path d="M 321.841132 106.776133 
C 340.593823 106.776133 358.580977 99.32561 371.841132 86.065455 
C 385.101287 72.8053 392.55181 54.818146 392.55181 36.065455 
C 392.55181 17.312764 385.101287 -0.67439 371.841132 -13.934545 
C 358.580977 -27.1947 340.593823 -34.645224 321.841132 -34.645224 
C 303.088441 -34.645224 285.101287 -27.1947 271.841132 -13.934545 
C 258.580977 -0.67439 251.130453 17.312764 251.130453 36.065455 
C 251.130453 54.818146 258.580977 72.8053 271.841132 86.065455 
C 285.101287 99.32561 303.088441 106.776133 321.841132 106.776133 
z
" clip-path="url(#pe1c110952d)" style="fill: #add8e6; stroke: #add8e6"/>
   </g>
   <g id="text_1">
    <!--  3.1 : Introduction -->
    <g transform="translate(147.426652 187.765822) scale(0.03 -0.03)">
     <defs>
      <path id="DejaVuSans-20" transform="scale(0.015625)"/>
      <path id="DejaVuSans-33" d="M 2597 2516 
Q 3050 2419 3304 2112 
Q 3559 1806 3559 1356 
Q 3559 666 3084 287 
Q 2609 -91 1734 -91 
Q 1441 -91 1130 -33 
Q 819 25 488 141 
L 488 750 
Q 750 597 1062 519 
Q 1375 441 1716 441 
Q 2309 441 2620 675 
Q 2931 909 2931 1356 
Q 2931 1769 2642 2001 
Q 2353 2234 1838 2234 
L 1294 2234 
L 1294 2753 
L 1863 2753 
Q 2328 2753 2575 2939 
Q 2822 3125 2822 3475 
Q 2822 3834 2567 4026 
Q 2313 4219 1838 4219 
Q 1578 4219 1281 4162 
Q 984 4106 628 3988 
L 628 4550 
Q 988 4650 1302 4700 
Q 1616 4750 1894 4750 
Q 2613 4750 3031 4423 
Q 3450 4097 3450 3541 
Q 3450 3153 3228 2886 
Q 3006 2619 2597 2516 
z
" transform="scale(0.015625)"/>
      <path id="DejaVuSans-2e" d="M 684 794 
L 1344 794 
L 1344 0 
L 684 0 
L 684 794 
z
" transform="scale(0.015625)"/>
      <path id="DejaVuSans-31" d="M 794 531 
L 1825 531 
L 1825 4091 
L 703 3866 
L 703 4441 
L 1819 4666 
L 2450 4666 
L 2450 531 
L 3481 531 
L 3481 0 
L 794 0 
L 794 531 
z
" transform="scale(0.015625)"/>
      <path id="DejaVuSans-3a" d="M 750 794 
L 1409 794 
L 1409 0 
L 750 0 
L 750 794 
z
M 750 3309 
L 1409 3309 
L 1409 2516 
L 750 2516 
L 750 3309 
z
" transform="scale(0.015625)"/>
      <path id="DejaVuSans-49" d="M 628 4666 
L 1259 4666 
L 1259 0 
L 628 0 
L 628 4666 
z
" transform="scale(0.015625)"/>
      <path id="DejaVuSans-6e" d="M 3513 2113 
L 3513 0 
L 2938 0 
L 2938 2094 
Q 2938 2591 2744 2837 
Q 2550 3084 2163 3084 
Q 1697 3084 1428 2787 
Q 1159 2491 1159 1978 
L 1159 0 
L 581 0 
L 581 3500 
L 1159 3500 
L 1159 2956 
Q 1366 3272 1645 3428 
Q 1925 3584 2291 3584 
Q 2894 3584 3203 3211 
Q 3513 2838 3513 2113 
z
" transform="scale(0.015625)"/>
      <path id="DejaVuSans-74" d="M 1172 4494 
L 1172 3500 
L 2356 3500 
L 2356 3053 
L 1172 3053 
L 1172 1153 
Q 1172 725 1289 603 
Q 1406 481 1766 481 
L 2356 481 
L 2356 0 
L 1766 0 
Q 1100 0 847 248 
Q 594 497 594 1153 
L 594 3053 
L 172 3053 
L 172 3500 
L 594 3500 
L 594 4494 
L 1172 4494 
z
" transform="scale(0.015625)"/>
      <path id="DejaVuSans-72" d="M 2631 2963 
Q 2534 3019 2420 3045 
Q 2306 3072 2169 3072 
Q 1681 3072 1420 2755 
Q 1159 2438 1159 1844 
L 1159 0 
L 581 0 
L 581 3500 
L 1159 3500 
L 1159 2956 
Q 1341 3275 1631 3429 
Q 1922 3584 2338 3584 
Q 2397 3584 2469 3576 
Q 2541 3569 2628 3553 
L 2631 2963 
z
" transform="scale(0.015625)"/>
      <path id="DejaVuSans-6f" d="M 1959 3097 
Q 1497 3097 1228 2736 
Q 959 2375 959 1747 
Q 959 1119 1226 758 
Q 1494 397 1959 397 
Q 2419 397 2687 759 
Q 2956 1122 2956 1747 
Q 2956 2369 2687 2733 
Q 2419 3097 1959 3097 
z
M 1959 3584 
Q 2709 3584 3137 3096 
Q 3566 2609 3566 1747 
Q 3566 888 3137 398 
Q 2709 -91 1959 -91 
Q 1206 -91 779 398 
Q 353 888 353 1747 
Q 353 2609 779 3096 
Q 1206 3584 1959 3584 
z
" transform="scale(0.015625)"/>
      <path id="DejaVuSans-64" d="M 2906 2969 
L 2906 4863 
L 3481 4863 
L 3481 0 
L 2906 0 
L 2906 525 
Q 2725 213 2448 61 
Q 2172 -91 1784 -91 
Q 1150 -91 751 415 
Q 353 922 353 1747 
Q 353 2572 751 3078 
Q 1150 3584 1784 3584 
Q 2172 3584 2448 3432 
Q 2725 3281 2906 2969 
z
M 947 1747 
Q 947 1113 1208 752 
Q 1469 391 1925 391 
Q 2381 391 2643 752 
Q 2906 1113 2906 1747 
Q 2906 2381 2643 2742 
Q 2381 3103 1925 3103 
Q 1469 3103 1208 2742 
Q 947 2381 947 1747 
z
" transform="scale(0.015625)"/>
      <path id="DejaVuSans-75" d="M 544 1381 
L 544 3500 
L 1119 3500 
L 1119 1403 
Q 1119 906 1312 657 
Q 1506 409 1894 409 
Q 2359 409 2629 706 
Q 2900 1003 2900 1516 
L 2900 3500 
L 3475 3500 
L 3475 0 
L 2900 0 
L 2900 538 
Q 2691 219 2414 64 
Q 2138 -91 1772 -91 
Q 1169 -91 856 284 
Q 544 659 544 1381 
z
M 1991 3584 
L 1991 3584 
z
" transform="scale(0.015625)"/>
      <path id="DejaVuSans-63" d="M 3122 3366 
L 3122 2828 
Q 2878 2963 2633 3030 
Q 2388 3097 2138 3097 
Q 1578 3097 1268 2742 
Q 959 2388 959 1747 
Q 959 1106 1268 751 
Q 1578 397 2138 397 
Q 2388 397 2633 464 
Q 2878 531 3122 666 
L 3122 134 
Q 2881 22 2623 -34 
Q 2366 -91 2075 -91 
Q 1284 -91 818 406 
Q 353 903 353 1747 
Q 353 2603 823 3093 
Q 1294 3584 2113 3584 
Q 2378 3584 2631 3529 
Q 2884 3475 3122 3366 
z
" transform="scale(0.015625)"/>
      <path id="DejaVuSans-69" d="M 603 3500 
L 1178 3500 
L 1178 0 
L 603 0 
L 603 3500 
z
M 603 4863 
L 1178 4863 
L 1178 4134 
L 603 4134 
L 603 4863 
z
" transform="scale(0.015625)"/>
     </defs>
     <use xlink:href="#DejaVuSans-20"/>
     <use xlink:href="#DejaVuSans-33" transform="translate(31.787109 0)"/>
     <use xlink:href="#DejaVuSans-2e" transform="translate(95.410156 0)"/>
     <use xlink:href="#DejaVuSans-31" transform="translate(127.197266 0)"/>
     <use xlink:href="#DejaVuSans-20" transform="translate(190.820312 0)"/>
     <use xlink:href="#DejaVuSans-3a" transform="translate(222.607422 0)"/>
     <use xlink:href="#DejaVuSans-20" transform="translate(256.298828 0)"/>
     <use xlink:href="#DejaVuSans-49" transform="translate(288.085938 0)"/>
     <use xlink:href="#DejaVuSans-6e" transform="translate(317.578125 0)"/>
     <use xlink:href="#DejaVuSans-74" transform="translate(380.957031 0)"/>
     <use xlink:href="#DejaVuSans-72" transform="translate(420.166016 0)"/>
     <use xlink:href="#DejaVuSans-6f" transform="translate(459.029297 0)"/>
     <use xlink:href="#DejaVuSans-64" transform="translate(520.210938 0)"/>
     <use xlink:href="#DejaVuSans-75" transform="translate(583.6875 0)"/>
     <use xlink:href="#DejaVuSans-63" transform="translate(647.066406 0)"/>
     <use xlink:href="#DejaVuSans-74" transform="translate(702.046875 0)"/>
     <use xlink:href="#DejaVuSans-69" transform="translate(741.255859 0)"/>
     <use xlink:href="#DejaVuSans-6f" transform="translate(769.039062 0)"/>
     <use xlink:href="#DejaVuSans-6e" transform="translate(830.220703 0)"/>
    </g>
    <!--  -->
    <g transform="translate(160.830324 191.125166) scale(0.03 -0.03)"/>
   </g>
   <g id="text_2">
    <!--  3.2 : Model -->
    <g transform="translate(221.178956 187.765822) scale(0.03 -0.03)">
     <defs>
      <path id="DejaVuSans-32" d="M 1228 531 
L 3431 531 
L 3431 0 
L 469 0 
L 469 531 
Q 828 903 1448 1529 
Q 2069 2156 2228 2338 
Q 2531 2678 2651 2914 
Q 2772 3150 2772 3378 
Q 2772 3750 2511 3984 
Q 2250 4219 1831 4219 
Q 1534 4219 1204 4116 
Q 875 4013 500 3803 
L 500 4441 
Q 881 4594 1212 4672 
Q 1544 4750 1819 4750 
Q 2544 4750 2975 4387 
Q 3406 4025 3406 3419 
Q 3406 3131 3298 2873 
Q 3191 2616 2906 2266 
Q 2828 2175 2409 1742 
Q 1991 1309 1228 531 
z
" transform="scale(0.015625)"/>
      <path id="DejaVuSans-4d" d="M 628 4666 
L 1569 4666 
L 2759 1491 
L 3956 4666 
L 4897 4666 
L 4897 0 
L 4281 0 
L 4281 4097 
L 3078 897 
L 2444 897 
L 1241 4097 
L 1241 0 
L 628 0 
L 628 4666 
z
" transform="scale(0.015625)"/>
      <path id="DejaVuSans-65" d="M 3597 1894 
L 3597 1613 
L 953 1613 
Q 991 1019 1311 708 
Q 1631 397 2203 397 
Q 2534 397 2845 478 
Q 3156 559 3463 722 
L 3463 178 
Q 3153 47 2828 -22 
Q 2503 -91 2169 -91 
Q 1331 -91 842 396 
Q 353 884 353 1716 
Q 353 2575 817 3079 
Q 1281 3584 2069 3584 
Q 2775 3584 3186 3129 
Q 3597 2675 3597 1894 
z
M 3022 2063 
Q 3016 2534 2758 2815 
Q 2500 3097 2075 3097 
Q 1594 3097 1305 2825 
Q 1016 2553 972 2059 
L 3022 2063 
z
" transform="scale(0.015625)"/>
      <path id="DejaVuSans-6c" d="M 603 4863 
L 1178 4863 
L 1178 0 
L 603 0 
L 603 4863 
z
" transform="scale(0.015625)"/>
     </defs>
     <use xlink:href="#DejaVuSans-20"/>
     <use xlink:href="#DejaVuSans-33" transform="translate(31.787109 0)"/>
     <use xlink:href="#DejaVuSans-2e" transform="translate(95.410156 0)"/>
     <use xlink:href="#DejaVuSans-32" transform="translate(127.197266 0)"/>
     <use xlink:href="#DejaVuSans-20" transform="translate(190.820312 0)"/>
     <use xlink:href="#DejaVuSans-3a" transform="translate(222.607422 0)"/>
     <use xlink:href="#DejaVuSans-20" transform="translate(256.298828 0)"/>
     <use xlink:href="#DejaVuSans-4d" transform="translate(288.085938 0)"/>
     <use xlink:href="#DejaVuSans-6f" transform="translate(374.365234 0)"/>
     <use xlink:href="#DejaVuSans-64" transform="translate(435.546875 0)"/>
     <use xlink:href="#DejaVuSans-65" transform="translate(499.023438 0)"/>
     <use xlink:href="#DejaVuSans-6c" transform="translate(560.546875 0)"/>
    </g>
    <!--  Equations -->
    <g transform="translate(222.102628 191.125166) scale(0.03 -0.03)">
     <defs>
      <path id="DejaVuSans-45" d="M 628 4666 
L 3578 4666 
L 3578 4134 
L 1259 4134 
L 1259 2753 
L 3481 2753 
L 3481 2222 
L 1259 2222 
L 1259 531 
L 3634 531 
L 3634 0 
L 628 0 
L 628 4666 
z
" transform="scale(0.015625)"/>
      <path id="DejaVuSans-71" d="M 947 1747 
Q 947 1113 1208 752 
Q 1469 391 1925 391 
Q 2381 391 2643 752 
Q 2906 1113 2906 1747 
Q 2906 2381 2643 2742 
Q 2381 3103 1925 3103 
Q 1469 3103 1208 2742 
Q 947 2381 947 1747 
z
M 2906 525 
Q 2725 213 2448 61 
Q 2172 -91 1784 -91 
Q 1150 -91 751 415 
Q 353 922 353 1747 
Q 353 2572 751 3078 
Q 1150 3584 1784 3584 
Q 2172 3584 2448 3432 
Q 2725 3281 2906 2969 
L 2906 3500 
L 3481 3500 
L 3481 -1331 
L 2906 -1331 
L 2906 525 
z
" transform="scale(0.015625)"/>
      <path id="DejaVuSans-61" d="M 2194 1759 
Q 1497 1759 1228 1600 
Q 959 1441 959 1056 
Q 959 750 1161 570 
Q 1363 391 1709 391 
Q 2188 391 2477 730 
Q 2766 1069 2766 1631 
L 2766 1759 
L 2194 1759 
z
M 3341 1997 
L 3341 0 
L 2766 0 
L 2766 531 
Q 2569 213 2275 61 
Q 1981 -91 1556 -91 
Q 1019 -91 701 211 
Q 384 513 384 1019 
Q 384 1609 779 1909 
Q 1175 2209 1959 2209 
L 2766 2209 
L 2766 2266 
Q 2766 2663 2505 2880 
Q 2244 3097 1772 3097 
Q 1472 3097 1187 3025 
Q 903 2953 641 2809 
L 641 3341 
Q 956 3463 1253 3523 
Q 1550 3584 1831 3584 
Q 2591 3584 2966 3190 
Q 3341 2797 3341 1997 
z
" transform="scale(0.015625)"/>
      <path id="DejaVuSans-73" d="M 2834 3397 
L 2834 2853 
Q 2591 2978 2328 3040 
Q 2066 3103 1784 3103 
Q 1356 3103 1142 2972 
Q 928 2841 928 2578 
Q 928 2378 1081 2264 
Q 1234 2150 1697 2047 
L 1894 2003 
Q 2506 1872 2764 1633 
Q 3022 1394 3022 966 
Q 3022 478 2636 193 
Q 2250 -91 1575 -91 
Q 1294 -91 989 -36 
Q 684 19 347 128 
L 347 722 
Q 666 556 975 473 
Q 1284 391 1588 391 
Q 1994 391 2212 530 
Q 2431 669 2431 922 
Q 2431 1156 2273 1281 
Q 2116 1406 1581 1522 
L 1381 1569 
Q 847 1681 609 1914 
Q 372 2147 372 2553 
Q 372 3047 722 3315 
Q 1072 3584 1716 3584 
Q 2034 3584 2315 3537 
Q 2597 3491 2834 3397 
z
" transform="scale(0.015625)"/>
     </defs>
     <use xlink:href="#DejaVuSans-20"/>
     <use xlink:href="#DejaVuSans-45" transform="translate(31.787109 0)"/>
     <use xlink:href="#DejaVuSans-71" transform="translate(94.970703 0)"/>
     <use xlink:href="#DejaVuSans-75" transform="translate(158.447266 0)"/>
     <use xlink:href="#DejaVuSans-61" transform="translate(221.826172 0)"/>
     <use xlink:href="#DejaVuSans-74" transform="translate(283.105469 0)"/>
     <use xlink:href="#DejaVuSans-69" transform="translate(322.314453 0)"/>
     <use xlink:href="#DejaVuSans-6f" transform="translate(350.097656 0)"/>
     <use xlink:href="#DejaVuSans-6e" transform="translate(411.279297 0)"/>
     <use xlink:href="#DejaVuSans-73" transform="translate(474.658203 0)"/>
    </g>
   </g>
   <g id="text_3">
    <!--  3.3 : Discontinuous -->
    <g transform="translate(296.969257 184.398463) scale(0.05 -0.05)">
     <defs>
      <path id="DejaVuSans-44" d="M 1259 4147 
L 1259 519 
L 2022 519 
Q 2988 519 3436 956 
Q 3884 1394 3884 2338 
Q 3884 3275 3436 3711 
Q 2988 4147 2022 4147 
L 1259 4147 
z
M 628 4666 
L 1925 4666 
Q 3281 4666 3915 4102 
Q 4550 3538 4550 2338 
Q 4550 1131 3912 565 
Q 3275 0 1925 0 
L 628 0 
L 628 4666 
z
" transform="scale(0.015625)"/>
     </defs>
     <use xlink:href="#DejaVuSans-20"/>
     <use xlink:href="#DejaVuSans-33" transform="translate(31.787109 0)"/>
     <use xlink:href="#DejaVuSans-2e" transform="translate(95.410156 0)"/>
     <use xlink:href="#DejaVuSans-33" transform="translate(127.197266 0)"/>
     <use xlink:href="#DejaVuSans-20" transform="translate(190.820312 0)"/>
     <use xlink:href="#DejaVuSans-3a" transform="translate(222.607422 0)"/>
     <use xlink:href="#DejaVuSans-20" transform="translate(256.298828 0)"/>
     <use xlink:href="#DejaVuSans-44" transform="translate(288.085938 0)"/>
     <use xlink:href="#DejaVuSans-69" transform="translate(365.087891 0)"/>
     <use xlink:href="#DejaVuSans-73" transform="translate(392.871094 0)"/>
     <use xlink:href="#DejaVuSans-63" transform="translate(444.970703 0)"/>
     <use xlink:href="#DejaVuSans-6f" transform="translate(499.951172 0)"/>
     <use xlink:href="#DejaVuSans-6e" transform="translate(561.132812 0)"/>
     <use xlink:href="#DejaVuSans-74" transform="translate(624.511719 0)"/>
     <use xlink:href="#DejaVuSans-69" transform="translate(663.720703 0)"/>
     <use xlink:href="#DejaVuSans-6e" transform="translate(691.503906 0)"/>
     <use xlink:href="#DejaVuSans-75" transform="translate(754.882812 0)"/>
     <use xlink:href="#DejaVuSans-6f" transform="translate(818.261719 0)"/>
     <use xlink:href="#DejaVuSans-75" transform="translate(879.443359 0)"/>
     <use xlink:href="#DejaVuSans-73" transform="translate(942.822266 0)"/>
    </g>
    <!--  Galerkin Methods -->
    <g transform="translate(299.116913 189.997369) scale(0.05 -0.05)">
     <defs>
      <path id="DejaVuSans-47" d="M 3809 666 
L 3809 1919 
L 2778 1919 
L 2778 2438 
L 4434 2438 
L 4434 434 
Q 4069 175 3628 42 
Q 3188 -91 2688 -91 
Q 1594 -91 976 548 
Q 359 1188 359 2328 
Q 359 3472 976 4111 
Q 1594 4750 2688 4750 
Q 3144 4750 3555 4637 
Q 3966 4525 4313 4306 
L 4313 3634 
Q 3963 3931 3569 4081 
Q 3175 4231 2741 4231 
Q 1884 4231 1454 3753 
Q 1025 3275 1025 2328 
Q 1025 1384 1454 906 
Q 1884 428 2741 428 
Q 3075 428 3337 486 
Q 3600 544 3809 666 
z
" transform="scale(0.015625)"/>
      <path id="DejaVuSans-6b" d="M 581 4863 
L 1159 4863 
L 1159 1991 
L 2875 3500 
L 3609 3500 
L 1753 1863 
L 3688 0 
L 2938 0 
L 1159 1709 
L 1159 0 
L 581 0 
L 581 4863 
z
" transform="scale(0.015625)"/>
      <path id="DejaVuSans-68" d="M 3513 2113 
L 3513 0 
L 2938 0 
L 2938 2094 
Q 2938 2591 2744 2837 
Q 2550 3084 2163 3084 
Q 1697 3084 1428 2787 
Q 1159 2491 1159 1978 
L 1159 0 
L 581 0 
L 581 4863 
L 1159 4863 
L 1159 2956 
Q 1366 3272 1645 3428 
Q 1925 3584 2291 3584 
Q 2894 3584 3203 3211 
Q 3513 2838 3513 2113 
z
" transform="scale(0.015625)"/>
     </defs>
     <use xlink:href="#DejaVuSans-20"/>
     <use xlink:href="#DejaVuSans-47" transform="translate(31.787109 0)"/>
     <use xlink:href="#DejaVuSans-61" transform="translate(109.277344 0)"/>
     <use xlink:href="#DejaVuSans-6c" transform="translate(170.556641 0)"/>
     <use xlink:href="#DejaVuSans-65" transform="translate(198.339844 0)"/>
     <use xlink:href="#DejaVuSans-72" transform="translate(259.863281 0)"/>
     <use xlink:href="#DejaVuSans-6b" transform="translate(300.976562 0)"/>
     <use xlink:href="#DejaVuSans-69" transform="translate(358.886719 0)"/>
     <use xlink:href="#DejaVuSans-6e" transform="translate(386.669922 0)"/>
     <use xlink:href="#DejaVuSans-20" transform="translate(450.048828 0)"/>
     <use xlink:href="#DejaVuSans-4d" transform="translate(481.835938 0)"/>
     <use xlink:href="#DejaVuSans-65" transform="translate(568.115234 0)"/>
     <use xlink:href="#DejaVuSans-74" transform="translate(629.638672 0)"/>
     <use xlink:href="#DejaVuSans-68" transform="translate(668.847656 0)"/>
     <use xlink:href="#DejaVuSans-6f" transform="translate(732.226562 0)"/>
     <use xlink:href="#DejaVuSans-64" transform="translate(793.408203 0)"/>
     <use xlink:href="#DejaVuSans-73" transform="translate(856.884766 0)"/>
    </g>
    <!--  -->
    <g transform="translate(321.841132 195.596275) scale(0.05 -0.05)"/>
   </g>
   <g id="text_4">
    <!--  3.3.1 : Weak -->
    <g transform="translate(69.974419 308.443014) scale(0.03 -0.03)">
     <defs>
      <path id="DejaVuSans-57" d="M 213 4666 
L 850 4666 
L 1831 722 
L 2809 4666 
L 3519 4666 
L 4500 722 
L 5478 4666 
L 6119 4666 
L 4947 0 
L 4153 0 
L 3169 4050 
L 2175 0 
L 1381 0 
L 213 4666 
z
" transform="scale(0.015625)"/>
     </defs>
     <use xlink:href="#DejaVuSans-20"/>
     <use xlink:href="#DejaVuSans-33" transform="translate(31.787109 0)"/>
     <use xlink:href="#DejaVuSans-2e" transform="translate(95.410156 0)"/>
     <use xlink:href="#DejaVuSans-33" transform="translate(127.197266 0)"/>
     <use xlink:href="#DejaVuSans-2e" transform="translate(190.820312 0)"/>
     <use xlink:href="#DejaVuSans-31" transform="translate(222.607422 0)"/>
     <use xlink:href="#DejaVuSans-20" transform="translate(286.230469 0)"/>
     <use xlink:href="#DejaVuSans-3a" transform="translate(318.017578 0)"/>
     <use xlink:href="#DejaVuSans-20" transform="translate(351.708984 0)"/>
     <use xlink:href="#DejaVuSans-57" transform="translate(383.496094 0)"/>
     <use xlink:href="#DejaVuSans-65" transform="translate(476.498047 0)"/>
     <use xlink:href="#DejaVuSans-61" transform="translate(538.021484 0)"/>
     <use xlink:href="#DejaVuSans-6b" transform="translate(599.300781 0)"/>
    </g>
    <!--  Residual Form -->
    <g transform="translate(68.76645 311.802358) scale(0.03 -0.03)">
     <defs>
      <path id="DejaVuSans-52" d="M 2841 2188 
Q 3044 2119 3236 1894 
Q 3428 1669 3622 1275 
L 4263 0 
L 3584 0 
L 2988 1197 
Q 2756 1666 2539 1819 
Q 2322 1972 1947 1972 
L 1259 1972 
L 1259 0 
L 628 0 
L 628 4666 
L 2053 4666 
Q 2853 4666 3247 4331 
Q 3641 3997 3641 3322 
Q 3641 2881 3436 2590 
Q 3231 2300 2841 2188 
z
M 1259 4147 
L 1259 2491 
L 2053 2491 
Q 2509 2491 2742 2702 
Q 2975 2913 2975 3322 
Q 2975 3731 2742 3939 
Q 2509 4147 2053 4147 
L 1259 4147 
z
" transform="scale(0.015625)"/>
      <path id="DejaVuSans-46" d="M 628 4666 
L 3309 4666 
L 3309 4134 
L 1259 4134 
L 1259 2759 
L 3109 2759 
L 3109 2228 
L 1259 2228 
L 1259 0 
L 628 0 
L 628 4666 
z
" transform="scale(0.015625)"/>
      <path id="DejaVuSans-6d" d="M 3328 2828 
Q 3544 3216 3844 3400 
Q 4144 3584 4550 3584 
Q 5097 3584 5394 3201 
Q 5691 2819 5691 2113 
L 5691 0 
L 5113 0 
L 5113 2094 
Q 5113 2597 4934 2840 
Q 4756 3084 4391 3084 
Q 3944 3084 3684 2787 
Q 3425 2491 3425 1978 
L 3425 0 
L 2847 0 
L 2847 2094 
Q 2847 2600 2669 2842 
Q 2491 3084 2119 3084 
Q 1678 3084 1418 2786 
Q 1159 2488 1159 1978 
L 1159 0 
L 581 0 
L 581 3500 
L 1159 3500 
L 1159 2956 
Q 1356 3278 1631 3431 
Q 1906 3584 2284 3584 
Q 2666 3584 2933 3390 
Q 3200 3197 3328 2828 
z
" transform="scale(0.015625)"/>
     </defs>
     <use xlink:href="#DejaVuSans-20"/>
     <use xlink:href="#DejaVuSans-52" transform="translate(31.787109 0)"/>
     <use xlink:href="#DejaVuSans-65" transform="translate(96.769531 0)"/>
     <use xlink:href="#DejaVuSans-73" transform="translate(158.292969 0)"/>
     <use xlink:href="#DejaVuSans-69" transform="translate(210.392578 0)"/>
     <use xlink:href="#DejaVuSans-64" transform="translate(238.175781 0)"/>
     <use xlink:href="#DejaVuSans-75" transform="translate(301.652344 0)"/>
     <use xlink:href="#DejaVuSans-61" transform="translate(365.03125 0)"/>
     <use xlink:href="#DejaVuSans-6c" transform="translate(426.310547 0)"/>
     <use xlink:href="#DejaVuSans-20" transform="translate(454.09375 0)"/>
     <use xlink:href="#DejaVuSans-46" transform="translate(485.880859 0)"/>
     <use xlink:href="#DejaVuSans-6f" transform="translate(539.775391 0)"/>
     <use xlink:href="#DejaVuSans-72" transform="translate(600.957031 0)"/>
     <use xlink:href="#DejaVuSans-6d" transform="translate(640.320312 0)"/>
    </g>
    <!--  -->
    <g transform="translate(79.832231 315.161702) scale(0.03 -0.03)"/>
   </g>
   <g id="text_5">
    <!--  3.3.2 : Basis -->
    <g transform="translate(139.325863 310.122686) scale(0.03 -0.03)">
     <defs>
      <path id="DejaVuSans-42" d="M 1259 2228 
L 1259 519 
L 2272 519 
Q 2781 519 3026 730 
Q 3272 941 3272 1375 
Q 3272 1813 3026 2020 
Q 2781 2228 2272 2228 
L 1259 2228 
z
M 1259 4147 
L 1259 2741 
L 2194 2741 
Q 2656 2741 2882 2914 
Q 3109 3088 3109 3444 
Q 3109 3797 2882 3972 
Q 2656 4147 2194 4147 
L 1259 4147 
z
M 628 4666 
L 2241 4666 
Q 2963 4666 3353 4366 
Q 3744 4066 3744 3513 
Q 3744 3084 3544 2831 
Q 3344 2578 2956 2516 
Q 3422 2416 3680 2098 
Q 3938 1781 3938 1306 
Q 3938 681 3513 340 
Q 3088 0 2303 0 
L 628 0 
L 628 4666 
z
" transform="scale(0.015625)"/>
     </defs>
     <use xlink:href="#DejaVuSans-20"/>
     <use xlink:href="#DejaVuSans-33" transform="translate(31.787109 0)"/>
     <use xlink:href="#DejaVuSans-2e" transform="translate(95.410156 0)"/>
     <use xlink:href="#DejaVuSans-33" transform="translate(127.197266 0)"/>
     <use xlink:href="#DejaVuSans-2e" transform="translate(190.820312 0)"/>
     <use xlink:href="#DejaVuSans-32" transform="translate(222.607422 0)"/>
     <use xlink:href="#DejaVuSans-20" transform="translate(286.230469 0)"/>
     <use xlink:href="#DejaVuSans-3a" transform="translate(318.017578 0)"/>
     <use xlink:href="#DejaVuSans-20" transform="translate(351.708984 0)"/>
     <use xlink:href="#DejaVuSans-42" transform="translate(383.496094 0)"/>
     <use xlink:href="#DejaVuSans-61" transform="translate(452.099609 0)"/>
     <use xlink:href="#DejaVuSans-73" transform="translate(513.378906 0)"/>
     <use xlink:href="#DejaVuSans-69" transform="translate(565.478516 0)"/>
     <use xlink:href="#DejaVuSans-73" transform="translate(593.261719 0)"/>
    </g>
    <!--  Functions -->
    <g transform="translate(141.368207 313.48203) scale(0.03 -0.03)">
     <use xlink:href="#DejaVuSans-20"/>
     <use xlink:href="#DejaVuSans-46" transform="translate(31.787109 0)"/>
     <use xlink:href="#DejaVuSans-75" transform="translate(83.806641 0)"/>
     <use xlink:href="#DejaVuSans-6e" transform="translate(147.185547 0)"/>
     <use xlink:href="#DejaVuSans-63" transform="translate(210.564453 0)"/>
     <use xlink:href="#DejaVuSans-74" transform="translate(265.544922 0)"/>
     <use xlink:href="#DejaVuSans-69" transform="translate(304.753906 0)"/>
     <use xlink:href="#DejaVuSans-6f" transform="translate(332.537109 0)"/>
     <use xlink:href="#DejaVuSans-6e" transform="translate(393.71875 0)"/>
     <use xlink:href="#DejaVuSans-73" transform="translate(457.097656 0)"/>
    </g>
   </g>
   <g id="text_6">
    <!--  3.3.3 : Numerical -->
    <g transform="translate(204.77637 308.443014) scale(0.03 -0.03)">
     <defs>
      <path id="DejaVuSans-4e" d="M 628 4666 
L 1478 4666 
L 3547 763 
L 3547 4666 
L 4159 4666 
L 4159 0 
L 3309 0 
L 1241 3903 
L 1241 0 
L 628 0 
L 628 4666 
z
" transform="scale(0.015625)"/>
     </defs>
     <use xlink:href="#DejaVuSans-20"/>
     <use xlink:href="#DejaVuSans-33" transform="translate(31.787109 0)"/>
     <use xlink:href="#DejaVuSans-2e" transform="translate(95.410156 0)"/>
     <use xlink:href="#DejaVuSans-33" transform="translate(127.197266 0)"/>
     <use xlink:href="#DejaVuSans-2e" transform="translate(190.820312 0)"/>
     <use xlink:href="#DejaVuSans-33" transform="translate(222.607422 0)"/>
     <use xlink:href="#DejaVuSans-20" transform="translate(286.230469 0)"/>
     <use xlink:href="#DejaVuSans-3a" transform="translate(318.017578 0)"/>
     <use xlink:href="#DejaVuSans-20" transform="translate(351.708984 0)"/>
     <use xlink:href="#DejaVuSans-4e" transform="translate(383.496094 0)"/>
     <use xlink:href="#DejaVuSans-75" transform="translate(458.300781 0)"/>
     <use xlink:href="#DejaVuSans-6d" transform="translate(521.679688 0)"/>
     <use xlink:href="#DejaVuSans-65" transform="translate(619.091797 0)"/>
     <use xlink:href="#DejaVuSans-72" transform="translate(680.615234 0)"/>
     <use xlink:href="#DejaVuSans-69" transform="translate(721.728516 0)"/>
     <use xlink:href="#DejaVuSans-63" transform="translate(749.511719 0)"/>
     <use xlink:href="#DejaVuSans-61" transform="translate(804.492188 0)"/>
     <use xlink:href="#DejaVuSans-6c" transform="translate(865.771484 0)"/>
    </g>
    <!--  Integration -->
    <g transform="translate(209.437151 311.802358) scale(0.03 -0.03)">
     <defs>
      <path id="DejaVuSans-67" d="M 2906 1791 
Q 2906 2416 2648 2759 
Q 2391 3103 1925 3103 
Q 1463 3103 1205 2759 
Q 947 2416 947 1791 
Q 947 1169 1205 825 
Q 1463 481 1925 481 
Q 2391 481 2648 825 
Q 2906 1169 2906 1791 
z
M 3481 434 
Q 3481 -459 3084 -895 
Q 2688 -1331 1869 -1331 
Q 1566 -1331 1297 -1286 
Q 1028 -1241 775 -1147 
L 775 -588 
Q 1028 -725 1275 -790 
Q 1522 -856 1778 -856 
Q 2344 -856 2625 -561 
Q 2906 -266 2906 331 
L 2906 616 
Q 2728 306 2450 153 
Q 2172 0 1784 0 
Q 1141 0 747 490 
Q 353 981 353 1791 
Q 353 2603 747 3093 
Q 1141 3584 1784 3584 
Q 2172 3584 2450 3431 
Q 2728 3278 2906 2969 
L 2906 3500 
L 3481 3500 
L 3481 434 
z
" transform="scale(0.015625)"/>
     </defs>
     <use xlink:href="#DejaVuSans-20"/>
     <use xlink:href="#DejaVuSans-49" transform="translate(31.787109 0)"/>
     <use xlink:href="#DejaVuSans-6e" transform="translate(61.279297 0)"/>
     <use xlink:href="#DejaVuSans-74" transform="translate(124.658203 0)"/>
     <use xlink:href="#DejaVuSans-65" transform="translate(163.867188 0)"/>
     <use xlink:href="#DejaVuSans-67" transform="translate(225.390625 0)"/>
     <use xlink:href="#DejaVuSans-72" transform="translate(288.867188 0)"/>
     <use xlink:href="#DejaVuSans-61" transform="translate(329.980469 0)"/>
     <use xlink:href="#DejaVuSans-74" transform="translate(391.259766 0)"/>
     <use xlink:href="#DejaVuSans-69" transform="translate(430.46875 0)"/>
     <use xlink:href="#DejaVuSans-6f" transform="translate(458.251953 0)"/>
     <use xlink:href="#DejaVuSans-6e" transform="translate(519.433594 0)"/>
    </g>
    <!--  -->
    <g transform="translate(218.179339 315.161702) scale(0.03 -0.03)"/>
   </g>
   <g id="text_7">
    <!--  3.3.4 : Evaluating -->
    <g transform="translate(273.651799 308.443014) scale(0.03 -0.03)">
     <defs>
      <path id="DejaVuSans-34" d="M 2419 4116 
L 825 1625 
L 2419 1625 
L 2419 4116 
z
M 2253 4666 
L 3047 4666 
L 3047 1625 
L 3713 1625 
L 3713 1100 
L 3047 1100 
L 3047 0 
L 2419 0 
L 2419 1100 
L 313 1100 
L 313 1709 
L 2253 4666 
z
" transform="scale(0.015625)"/>
      <path id="DejaVuSans-76" d="M 191 3500 
L 800 3500 
L 1894 563 
L 2988 3500 
L 3597 3500 
L 2284 0 
L 1503 0 
L 191 3500 
z
" transform="scale(0.015625)"/>
     </defs>
     <use xlink:href="#DejaVuSans-20"/>
     <use xlink:href="#DejaVuSans-33" transform="translate(31.787109 0)"/>
     <use xlink:href="#DejaVuSans-2e" transform="translate(95.410156 0)"/>
     <use xlink:href="#DejaVuSans-33" transform="translate(127.197266 0)"/>
     <use xlink:href="#DejaVuSans-2e" transform="translate(190.820312 0)"/>
     <use xlink:href="#DejaVuSans-34" transform="translate(222.607422 0)"/>
     <use xlink:href="#DejaVuSans-20" transform="translate(286.230469 0)"/>
     <use xlink:href="#DejaVuSans-3a" transform="translate(318.017578 0)"/>
     <use xlink:href="#DejaVuSans-20" transform="translate(351.708984 0)"/>
     <use xlink:href="#DejaVuSans-45" transform="translate(383.496094 0)"/>
     <use xlink:href="#DejaVuSans-76" transform="translate(446.679688 0)"/>
     <use xlink:href="#DejaVuSans-61" transform="translate(505.859375 0)"/>
     <use xlink:href="#DejaVuSans-6c" transform="translate(567.138672 0)"/>
     <use xlink:href="#DejaVuSans-75" transform="translate(594.921875 0)"/>
     <use xlink:href="#DejaVuSans-61" transform="translate(658.300781 0)"/>
     <use xlink:href="#DejaVuSans-74" transform="translate(719.580078 0)"/>
     <use xlink:href="#DejaVuSans-69" transform="translate(758.789062 0)"/>
     <use xlink:href="#DejaVuSans-6e" transform="translate(786.572266 0)"/>
     <use xlink:href="#DejaVuSans-67" transform="translate(849.951172 0)"/>
    </g>
    <!--  the Interface -->
    <g transform="translate(277.222033 311.802358) scale(0.03 -0.03)">
     <defs>
      <path id="DejaVuSans-66" d="M 2375 4863 
L 2375 4384 
L 1825 4384 
Q 1516 4384 1395 4259 
Q 1275 4134 1275 3809 
L 1275 3500 
L 2222 3500 
L 2222 3053 
L 1275 3053 
L 1275 0 
L 697 0 
L 697 3053 
L 147 3053 
L 147 3500 
L 697 3500 
L 697 3744 
Q 697 4328 969 4595 
Q 1241 4863 1831 4863 
L 2375 4863 
z
" transform="scale(0.015625)"/>
     </defs>
     <use xlink:href="#DejaVuSans-20"/>
     <use xlink:href="#DejaVuSans-74" transform="translate(31.787109 0)"/>
     <use xlink:href="#DejaVuSans-68" transform="translate(70.996094 0)"/>
     <use xlink:href="#DejaVuSans-65" transform="translate(134.375 0)"/>
     <use xlink:href="#DejaVuSans-20" transform="translate(195.898438 0)"/>
     <use xlink:href="#DejaVuSans-49" transform="translate(227.685547 0)"/>
     <use xlink:href="#DejaVuSans-6e" transform="translate(257.177734 0)"/>
     <use xlink:href="#DejaVuSans-74" transform="translate(320.556641 0)"/>
     <use xlink:href="#DejaVuSans-65" transform="translate(359.765625 0)"/>
     <use xlink:href="#DejaVuSans-72" transform="translate(421.289062 0)"/>
     <use xlink:href="#DejaVuSans-66" transform="translate(462.402344 0)"/>
     <use xlink:href="#DejaVuSans-61" transform="translate(497.607422 0)"/>
     <use xlink:href="#DejaVuSans-63" transform="translate(558.886719 0)"/>
     <use xlink:href="#DejaVuSans-65" transform="translate(613.867188 0)"/>
    </g>
    <!--  Flux -->
    <g transform="translate(283.758283 315.161702) scale(0.03 -0.03)">
     <defs>
      <path id="DejaVuSans-78" d="M 3513 3500 
L 2247 1797 
L 3578 0 
L 2900 0 
L 1881 1375 
L 863 0 
L 184 0 
L 1544 1831 
L 300 3500 
L 978 3500 
L 1906 2253 
L 2834 3500 
L 3513 3500 
z
" transform="scale(0.015625)"/>
     </defs>
     <use xlink:href="#DejaVuSans-20"/>
     <use xlink:href="#DejaVuSans-46" transform="translate(31.787109 0)"/>
     <use xlink:href="#DejaVuSans-6c" transform="translate(89.306641 0)"/>
     <use xlink:href="#DejaVuSans-75" transform="translate(117.089844 0)"/>
     <use xlink:href="#DejaVuSans-78" transform="translate(180.46875 0)"/>
    </g>
   </g>
   <g id="text_8">
    <!--  3.3.5 : Velocity -->
    <g transform="translate(344.889728 308.443014) scale(0.03 -0.03)">
     <defs>
      <path id="DejaVuSans-35" d="M 691 4666 
L 3169 4666 
L 3169 4134 
L 1269 4134 
L 1269 2991 
Q 1406 3038 1543 3061 
Q 1681 3084 1819 3084 
Q 2600 3084 3056 2656 
Q 3513 2228 3513 1497 
Q 3513 744 3044 326 
Q 2575 -91 1722 -91 
Q 1428 -91 1123 -41 
Q 819 9 494 109 
L 494 744 
Q 775 591 1075 516 
Q 1375 441 1709 441 
Q 2250 441 2565 725 
Q 2881 1009 2881 1497 
Q 2881 1984 2565 2268 
Q 2250 2553 1709 2553 
Q 1456 2553 1204 2497 
Q 953 2441 691 2322 
L 691 4666 
z
" transform="scale(0.015625)"/>
      <path id="DejaVuSans-56" d="M 1831 0 
L 50 4666 
L 709 4666 
L 2188 738 
L 3669 4666 
L 4325 4666 
L 2547 0 
L 1831 0 
z
" transform="scale(0.015625)"/>
      <path id="DejaVuSans-79" d="M 2059 -325 
Q 1816 -950 1584 -1140 
Q 1353 -1331 966 -1331 
L 506 -1331 
L 506 -850 
L 844 -850 
Q 1081 -850 1212 -737 
Q 1344 -625 1503 -206 
L 1606 56 
L 191 3500 
L 800 3500 
L 1894 763 
L 2988 3500 
L 3597 3500 
L 2059 -325 
z
" transform="scale(0.015625)"/>
     </defs>
     <use xlink:href="#DejaVuSans-20"/>
     <use xlink:href="#DejaVuSans-33" transform="translate(31.787109 0)"/>
     <use xlink:href="#DejaVuSans-2e" transform="translate(95.410156 0)"/>
     <use xlink:href="#DejaVuSans-33" transform="translate(127.197266 0)"/>
     <use xlink:href="#DejaVuSans-2e" transform="translate(190.820312 0)"/>
     <use xlink:href="#DejaVuSans-35" transform="translate(222.607422 0)"/>
     <use xlink:href="#DejaVuSans-20" transform="translate(286.230469 0)"/>
     <use xlink:href="#DejaVuSans-3a" transform="translate(318.017578 0)"/>
     <use xlink:href="#DejaVuSans-20" transform="translate(351.708984 0)"/>
     <use xlink:href="#DejaVuSans-56" transform="translate(383.496094 0)"/>
     <use xlink:href="#DejaVuSans-65" transform="translate(444.154297 0)"/>
     <use xlink:href="#DejaVuSans-6c" transform="translate(505.677734 0)"/>
     <use xlink:href="#DejaVuSans-6f" transform="translate(533.460938 0)"/>
     <use xlink:href="#DejaVuSans-63" transform="translate(594.642578 0)"/>
     <use xlink:href="#DejaVuSans-69" transform="translate(649.623047 0)"/>
     <use xlink:href="#DejaVuSans-74" transform="translate(677.40625 0)"/>
     <use xlink:href="#DejaVuSans-79" transform="translate(716.615234 0)"/>
    </g>
    <!--  Interpolation -->
    <g transform="translate(346.449728 311.802358) scale(0.03 -0.03)">
     <defs>
      <path id="DejaVuSans-70" d="M 1159 525 
L 1159 -1331 
L 581 -1331 
L 581 3500 
L 1159 3500 
L 1159 2969 
Q 1341 3281 1617 3432 
Q 1894 3584 2278 3584 
Q 2916 3584 3314 3078 
Q 3713 2572 3713 1747 
Q 3713 922 3314 415 
Q 2916 -91 2278 -91 
Q 1894 -91 1617 61 
Q 1341 213 1159 525 
z
M 3116 1747 
Q 3116 2381 2855 2742 
Q 2594 3103 2138 3103 
Q 1681 3103 1420 2742 
Q 1159 2381 1159 1747 
Q 1159 1113 1420 752 
Q 1681 391 2138 391 
Q 2594 391 2855 752 
Q 3116 1113 3116 1747 
z
" transform="scale(0.015625)"/>
     </defs>
     <use xlink:href="#DejaVuSans-20"/>
     <use xlink:href="#DejaVuSans-49" transform="translate(31.787109 0)"/>
     <use xlink:href="#DejaVuSans-6e" transform="translate(61.279297 0)"/>
     <use xlink:href="#DejaVuSans-74" transform="translate(124.658203 0)"/>
     <use xlink:href="#DejaVuSans-65" transform="translate(163.867188 0)"/>
     <use xlink:href="#DejaVuSans-72" transform="translate(225.390625 0)"/>
     <use xlink:href="#DejaVuSans-70" transform="translate(266.503906 0)"/>
     <use xlink:href="#DejaVuSans-6f" transform="translate(329.980469 0)"/>
     <use xlink:href="#DejaVuSans-6c" transform="translate(391.162109 0)"/>
     <use xlink:href="#DejaVuSans-61" transform="translate(418.945312 0)"/>
     <use xlink:href="#DejaVuSans-74" transform="translate(480.224609 0)"/>
     <use xlink:href="#DejaVuSans-69" transform="translate(519.433594 0)"/>
     <use xlink:href="#DejaVuSans-6f" transform="translate(547.216797 0)"/>
     <use xlink:href="#DejaVuSans-6e" transform="translate(608.398438 0)"/>
    </g>
    <!--  -->
    <g transform="translate(356.526446 315.161702) scale(0.03 -0.03)"/>
   </g>
   <g id="text_9">
    <!--  3.3.6 : Limiters -->
    <g transform="translate(413.908594 310.122686) scale(0.03 -0.03)">
     <defs>
      <path id="DejaVuSans-36" d="M 2113 2584 
Q 1688 2584 1439 2293 
Q 1191 2003 1191 1497 
Q 1191 994 1439 701 
Q 1688 409 2113 409 
Q 2538 409 2786 701 
Q 3034 994 3034 1497 
Q 3034 2003 2786 2293 
Q 2538 2584 2113 2584 
z
M 3366 4563 
L 3366 3988 
Q 3128 4100 2886 4159 
Q 2644 4219 2406 4219 
Q 1781 4219 1451 3797 
Q 1122 3375 1075 2522 
Q 1259 2794 1537 2939 
Q 1816 3084 2150 3084 
Q 2853 3084 3261 2657 
Q 3669 2231 3669 1497 
Q 3669 778 3244 343 
Q 2819 -91 2113 -91 
Q 1303 -91 875 529 
Q 447 1150 447 2328 
Q 447 3434 972 4092 
Q 1497 4750 2381 4750 
Q 2619 4750 2861 4703 
Q 3103 4656 3366 4563 
z
" transform="scale(0.015625)"/>
      <path id="DejaVuSans-4c" d="M 628 4666 
L 1259 4666 
L 1259 531 
L 3531 531 
L 3531 0 
L 628 0 
L 628 4666 
z
" transform="scale(0.015625)"/>
     </defs>
     <use xlink:href="#DejaVuSans-20"/>
     <use xlink:href="#DejaVuSans-33" transform="translate(31.787109 0)"/>
     <use xlink:href="#DejaVuSans-2e" transform="translate(95.410156 0)"/>
     <use xlink:href="#DejaVuSans-33" transform="translate(127.197266 0)"/>
     <use xlink:href="#DejaVuSans-2e" transform="translate(190.820312 0)"/>
     <use xlink:href="#DejaVuSans-36" transform="translate(222.607422 0)"/>
     <use xlink:href="#DejaVuSans-20" transform="translate(286.230469 0)"/>
     <use xlink:href="#DejaVuSans-3a" transform="translate(318.017578 0)"/>
     <use xlink:href="#DejaVuSans-20" transform="translate(351.708984 0)"/>
     <use xlink:href="#DejaVuSans-4c" transform="translate(383.496094 0)"/>
     <use xlink:href="#DejaVuSans-69" transform="translate(439.208984 0)"/>
     <use xlink:href="#DejaVuSans-6d" transform="translate(466.992188 0)"/>
     <use xlink:href="#DejaVuSans-69" transform="translate(564.404297 0)"/>
     <use xlink:href="#DejaVuSans-74" transform="translate(592.1875 0)"/>
     <use xlink:href="#DejaVuSans-65" transform="translate(631.396484 0)"/>
     <use xlink:href="#DejaVuSans-72" transform="translate(692.919922 0)"/>
     <use xlink:href="#DejaVuSans-73" transform="translate(734.033203 0)"/>
    </g>
    <!--  -->
    <g transform="translate(425.7 313.48203) scale(0.03 -0.03)"/>
   </g>
   <g id="text_10">
    <!--  3.4 : Numerical -->
    <g transform="translate(544.093982 187.197916) scale(0.05 -0.05)">
     <use xlink:href="#DejaVuSans-20"/>
     <use xlink:href="#DejaVuSans-33" transform="translate(31.787109 0)"/>
     <use xlink:href="#DejaVuSans-2e" transform="translate(95.410156 0)"/>
     <use xlink:href="#DejaVuSans-34" transform="translate(127.197266 0)"/>
     <use xlink:href="#DejaVuSans-20" transform="translate(190.820312 0)"/>
     <use xlink:href="#DejaVuSans-3a" transform="translate(222.607422 0)"/>
     <use xlink:href="#DejaVuSans-20" transform="translate(256.298828 0)"/>
     <use xlink:href="#DejaVuSans-4e" transform="translate(288.085938 0)"/>
     <use xlink:href="#DejaVuSans-75" transform="translate(362.890625 0)"/>
     <use xlink:href="#DejaVuSans-6d" transform="translate(426.269531 0)"/>
     <use xlink:href="#DejaVuSans-65" transform="translate(523.681641 0)"/>
     <use xlink:href="#DejaVuSans-72" transform="translate(585.205078 0)"/>
     <use xlink:href="#DejaVuSans-69" transform="translate(626.318359 0)"/>
     <use xlink:href="#DejaVuSans-63" transform="translate(654.101562 0)"/>
     <use xlink:href="#DejaVuSans-61" transform="translate(709.082031 0)"/>
     <use xlink:href="#DejaVuSans-6c" transform="translate(770.361328 0)"/>
    </g>
    <!--  Examples -->
    <g transform="translate(551.103748 192.796822) scale(0.05 -0.05)">
     <use xlink:href="#DejaVuSans-20"/>
     <use xlink:href="#DejaVuSans-45" transform="translate(31.787109 0)"/>
     <use xlink:href="#DejaVuSans-78" transform="translate(94.970703 0)"/>
     <use xlink:href="#DejaVuSans-61" transform="translate(154.150391 0)"/>
     <use xlink:href="#DejaVuSans-6d" transform="translate(215.429688 0)"/>
     <use xlink:href="#DejaVuSans-70" transform="translate(312.841797 0)"/>
     <use xlink:href="#DejaVuSans-6c" transform="translate(376.318359 0)"/>
     <use xlink:href="#DejaVuSans-65" transform="translate(404.101562 0)"/>
     <use xlink:href="#DejaVuSans-73" transform="translate(465.625 0)"/>
    </g>
   </g>
   <g id="text_11">
    <!--  3.4.1 : 1D -->
    <g transform="translate(487.012147 306.763342) scale(0.03 -0.03)">
     <use xlink:href="#DejaVuSans-20"/>
     <use xlink:href="#DejaVuSans-33" transform="translate(31.787109 0)"/>
     <use xlink:href="#DejaVuSans-2e" transform="translate(95.410156 0)"/>
     <use xlink:href="#DejaVuSans-34" transform="translate(127.197266 0)"/>
     <use xlink:href="#DejaVuSans-2e" transform="translate(190.820312 0)"/>
     <use xlink:href="#DejaVuSans-31" transform="translate(222.607422 0)"/>
     <use xlink:href="#DejaVuSans-20" transform="translate(286.230469 0)"/>
     <use xlink:href="#DejaVuSans-3a" transform="translate(318.017578 0)"/>
     <use xlink:href="#DejaVuSans-20" transform="translate(351.708984 0)"/>
     <use xlink:href="#DejaVuSans-31" transform="translate(383.496094 0)"/>
     <use xlink:href="#DejaVuSans-44" transform="translate(447.119141 0)"/>
    </g>
    <!--  Buckley-Leverett -->
    <g transform="translate(481.756054 310.122686) scale(0.03 -0.03)">
     <defs>
      <path id="DejaVuSans-2d" d="M 313 2009 
L 1997 2009 
L 1997 1497 
L 313 1497 
L 313 2009 
z
" transform="scale(0.015625)"/>
     </defs>
     <use xlink:href="#DejaVuSans-20"/>
     <use xlink:href="#DejaVuSans-42" transform="translate(31.787109 0)"/>
     <use xlink:href="#DejaVuSans-75" transform="translate(100.390625 0)"/>
     <use xlink:href="#DejaVuSans-63" transform="translate(163.769531 0)"/>
     <use xlink:href="#DejaVuSans-6b" transform="translate(218.75 0)"/>
     <use xlink:href="#DejaVuSans-6c" transform="translate(276.660156 0)"/>
     <use xlink:href="#DejaVuSans-65" transform="translate(304.443359 0)"/>
     <use xlink:href="#DejaVuSans-79" transform="translate(365.966797 0)"/>
     <use xlink:href="#DejaVuSans-2d" transform="translate(423.396484 0)"/>
     <use xlink:href="#DejaVuSans-4c" transform="translate(459.480469 0)"/>
     <use xlink:href="#DejaVuSans-65" transform="translate(513.443359 0)"/>
     <use xlink:href="#DejaVuSans-76" transform="translate(574.966797 0)"/>
     <use xlink:href="#DejaVuSans-65" transform="translate(634.146484 0)"/>
     <use xlink:href="#DejaVuSans-72" transform="translate(695.669922 0)"/>
     <use xlink:href="#DejaVuSans-65" transform="translate(734.533203 0)"/>
     <use xlink:href="#DejaVuSans-74" transform="translate(796.056641 0)"/>
     <use xlink:href="#DejaVuSans-74" transform="translate(835.265625 0)"/>
    </g>
    <!--  Displacement -->
    <g transform="translate(484.085038 313.48203) scale(0.03 -0.03)">
     <use xlink:href="#DejaVuSans-20"/>
     <use xlink:href="#DejaVuSans-44" transform="translate(31.787109 0)"/>
     <use xlink:href="#DejaVuSans-69" transform="translate(108.789062 0)"/>
     <use xlink:href="#DejaVuSans-73" transform="translate(136.572266 0)"/>
     <use xlink:href="#DejaVuSans-70" transform="translate(188.671875 0)"/>
     <use xlink:href="#DejaVuSans-6c" transform="translate(252.148438 0)"/>
     <use xlink:href="#DejaVuSans-61" transform="translate(279.931641 0)"/>
     <use xlink:href="#DejaVuSans-63" transform="translate(341.210938 0)"/>
     <use xlink:href="#DejaVuSans-65" transform="translate(396.191406 0)"/>
     <use xlink:href="#DejaVuSans-6d" transform="translate(457.714844 0)"/>
     <use xlink:href="#DejaVuSans-65" transform="translate(555.126953 0)"/>
     <use xlink:href="#DejaVuSans-6e" transform="translate(616.650391 0)"/>
     <use xlink:href="#DejaVuSans-74" transform="translate(680.029297 0)"/>
    </g>
    <!--  -->
    <g transform="translate(494.873554 316.841374) scale(0.03 -0.03)"/>
   </g>
   <g id="text_12">
    <!--  3.4.2 : Smearing -->
    <g transform="translate(551.103279 308.443014) scale(0.03 -0.03)">
     <defs>
      <path id="DejaVuSans-53" d="M 3425 4513 
L 3425 3897 
Q 3066 4069 2747 4153 
Q 2428 4238 2131 4238 
Q 1616 4238 1336 4038 
Q 1056 3838 1056 3469 
Q 1056 3159 1242 3001 
Q 1428 2844 1947 2747 
L 2328 2669 
Q 3034 2534 3370 2195 
Q 3706 1856 3706 1288 
Q 3706 609 3251 259 
Q 2797 -91 1919 -91 
Q 1588 -91 1214 -16 
Q 841 59 441 206 
L 441 856 
Q 825 641 1194 531 
Q 1563 422 1919 422 
Q 2459 422 2753 634 
Q 3047 847 3047 1241 
Q 3047 1584 2836 1778 
Q 2625 1972 2144 2069 
L 1759 2144 
Q 1053 2284 737 2584 
Q 422 2884 422 3419 
Q 422 4038 858 4394 
Q 1294 4750 2059 4750 
Q 2388 4750 2728 4690 
Q 3069 4631 3425 4513 
z
" transform="scale(0.015625)"/>
     </defs>
     <use xlink:href="#DejaVuSans-20"/>
     <use xlink:href="#DejaVuSans-33" transform="translate(31.787109 0)"/>
     <use xlink:href="#DejaVuSans-2e" transform="translate(95.410156 0)"/>
     <use xlink:href="#DejaVuSans-34" transform="translate(127.197266 0)"/>
     <use xlink:href="#DejaVuSans-2e" transform="translate(190.820312 0)"/>
     <use xlink:href="#DejaVuSans-32" transform="translate(222.607422 0)"/>
     <use xlink:href="#DejaVuSans-20" transform="translate(286.230469 0)"/>
     <use xlink:href="#DejaVuSans-3a" transform="translate(318.017578 0)"/>
     <use xlink:href="#DejaVuSans-20" transform="translate(351.708984 0)"/>
     <use xlink:href="#DejaVuSans-53" transform="translate(383.496094 0)"/>
     <use xlink:href="#DejaVuSans-6d" transform="translate(446.972656 0)"/>
     <use xlink:href="#DejaVuSans-65" transform="translate(544.384766 0)"/>
     <use xlink:href="#DejaVuSans-61" transform="translate(605.908203 0)"/>
     <use xlink:href="#DejaVuSans-72" transform="translate(667.1875 0)"/>
     <use xlink:href="#DejaVuSans-69" transform="translate(708.300781 0)"/>
     <use xlink:href="#DejaVuSans-6e" transform="translate(736.083984 0)"/>
     <use xlink:href="#DejaVuSans-67" transform="translate(799.462891 0)"/>
    </g>
    <!--  of Trailing -->
    <g transform="translate(556.263982 311.802358) scale(0.03 -0.03)">
     <defs>
      <path id="DejaVuSans-54" d="M -19 4666 
L 3928 4666 
L 3928 4134 
L 2272 4134 
L 2272 0 
L 1638 0 
L 1638 4134 
L -19 4134 
L -19 4666 
z
" transform="scale(0.015625)"/>
     </defs>
     <use xlink:href="#DejaVuSans-20"/>
     <use xlink:href="#DejaVuSans-6f" transform="translate(31.787109 0)"/>
     <use xlink:href="#DejaVuSans-66" transform="translate(92.96875 0)"/>
     <use xlink:href="#DejaVuSans-20" transform="translate(128.173828 0)"/>
     <use xlink:href="#DejaVuSans-54" transform="translate(159.960938 0)"/>
     <use xlink:href="#DejaVuSans-72" transform="translate(206.294922 0)"/>
     <use xlink:href="#DejaVuSans-61" transform="translate(247.408203 0)"/>
     <use xlink:href="#DejaVuSans-69" transform="translate(308.6875 0)"/>
     <use xlink:href="#DejaVuSans-6c" transform="translate(336.470703 0)"/>
     <use xlink:href="#DejaVuSans-69" transform="translate(364.253906 0)"/>
     <use xlink:href="#DejaVuSans-6e" transform="translate(392.037109 0)"/>
     <use xlink:href="#DejaVuSans-67" transform="translate(455.416016 0)"/>
    </g>
    <!--  Waves -->
    <g transform="translate(558.671482 315.161702) scale(0.03 -0.03)">
     <use xlink:href="#DejaVuSans-20"/>
     <use xlink:href="#DejaVuSans-57" transform="translate(31.787109 0)"/>
     <use xlink:href="#DejaVuSans-61" transform="translate(124.289062 0)"/>
     <use xlink:href="#DejaVuSans-76" transform="translate(185.568359 0)"/>
     <use xlink:href="#DejaVuSans-65" transform="translate(244.748047 0)"/>
     <use xlink:href="#DejaVuSans-73" transform="translate(306.271484 0)"/>
    </g>
   </g>
   <g id="text_13">
    <!--  3.4.3 : Inverted -->
    <g transform="translate(621.184802 305.08367) scale(0.03 -0.03)">
     <use xlink:href="#DejaVuSans-20"/>
     <use xlink:href="#DejaVuSans-33" transform="translate(31.787109 0)"/>
     <use xlink:href="#DejaVuSans-2e" transform="translate(95.410156 0)"/>
     <use xlink:href="#DejaVuSans-34" transform="translate(127.197266 0)"/>
     <use xlink:href="#DejaVuSans-2e" transform="translate(190.820312 0)"/>
     <use xlink:href="#DejaVuSans-33" transform="translate(222.607422 0)"/>
     <use xlink:href="#DejaVuSans-20" transform="translate(286.230469 0)"/>
     <use xlink:href="#DejaVuSans-3a" transform="translate(318.017578 0)"/>
     <use xlink:href="#DejaVuSans-20" transform="translate(351.708984 0)"/>
     <use xlink:href="#DejaVuSans-49" transform="translate(383.496094 0)"/>
     <use xlink:href="#DejaVuSans-6e" transform="translate(412.988281 0)"/>
     <use xlink:href="#DejaVuSans-76" transform="translate(476.367188 0)"/>
     <use xlink:href="#DejaVuSans-65" transform="translate(535.546875 0)"/>
     <use xlink:href="#DejaVuSans-72" transform="translate(597.070312 0)"/>
     <use xlink:href="#DejaVuSans-74" transform="translate(638.183594 0)"/>
     <use xlink:href="#DejaVuSans-65" transform="translate(677.392578 0)"/>
     <use xlink:href="#DejaVuSans-64" transform="translate(738.916016 0)"/>
    </g>
    <!--  Five-Spot Pattern -->
    <g transform="translate(619.937927 308.443014) scale(0.03 -0.03)">
     <defs>
      <path id="DejaVuSans-50" d="M 1259 4147 
L 1259 2394 
L 2053 2394 
Q 2494 2394 2734 2622 
Q 2975 2850 2975 3272 
Q 2975 3691 2734 3919 
Q 2494 4147 2053 4147 
L 1259 4147 
z
M 628 4666 
L 2053 4666 
Q 2838 4666 3239 4311 
Q 3641 3956 3641 3272 
Q 3641 2581 3239 2228 
Q 2838 1875 2053 1875 
L 1259 1875 
L 1259 0 
L 628 0 
L 628 4666 
z
" transform="scale(0.015625)"/>
     </defs>
     <use xlink:href="#DejaVuSans-20"/>
     <use xlink:href="#DejaVuSans-46" transform="translate(31.787109 0)"/>
     <use xlink:href="#DejaVuSans-69" transform="translate(82.056641 0)"/>
     <use xlink:href="#DejaVuSans-76" transform="translate(109.839844 0)"/>
     <use xlink:href="#DejaVuSans-65" transform="translate(169.019531 0)"/>
     <use xlink:href="#DejaVuSans-2d" transform="translate(230.542969 0)"/>
     <use xlink:href="#DejaVuSans-53" transform="translate(266.626953 0)"/>
     <use xlink:href="#DejaVuSans-70" transform="translate(330.103516 0)"/>
     <use xlink:href="#DejaVuSans-6f" transform="translate(393.580078 0)"/>
     <use xlink:href="#DejaVuSans-74" transform="translate(454.761719 0)"/>
     <use xlink:href="#DejaVuSans-20" transform="translate(493.970703 0)"/>
     <use xlink:href="#DejaVuSans-50" transform="translate(525.757812 0)"/>
     <use xlink:href="#DejaVuSans-61" transform="translate(581.560547 0)"/>
     <use xlink:href="#DejaVuSans-74" transform="translate(642.839844 0)"/>
     <use xlink:href="#DejaVuSans-74" transform="translate(682.048828 0)"/>
     <use xlink:href="#DejaVuSans-65" transform="translate(721.257812 0)"/>
     <use xlink:href="#DejaVuSans-72" transform="translate(782.78125 0)"/>
     <use xlink:href="#DejaVuSans-6e" transform="translate(822.144531 0)"/>
    </g>
    <!--  on a Perpendicular -->
    <g transform="translate(618.690349 311.802358) scale(0.03 -0.03)">
     <use xlink:href="#DejaVuSans-20"/>
     <use xlink:href="#DejaVuSans-6f" transform="translate(31.787109 0)"/>
     <use xlink:href="#DejaVuSans-6e" transform="translate(92.96875 0)"/>
     <use xlink:href="#DejaVuSans-20" transform="translate(156.347656 0)"/>
     <use xlink:href="#DejaVuSans-61" transform="translate(188.134766 0)"/>
     <use xlink:href="#DejaVuSans-20" transform="translate(249.414062 0)"/>
     <use xlink:href="#DejaVuSans-50" transform="translate(281.201172 0)"/>
     <use xlink:href="#DejaVuSans-65" transform="translate(337.878906 0)"/>
     <use xlink:href="#DejaVuSans-72" transform="translate(399.402344 0)"/>
     <use xlink:href="#DejaVuSans-70" transform="translate(440.515625 0)"/>
     <use xlink:href="#DejaVuSans-65" transform="translate(503.992188 0)"/>
     <use xlink:href="#DejaVuSans-6e" transform="translate(565.515625 0)"/>
     <use xlink:href="#DejaVuSans-64" transform="translate(628.894531 0)"/>
     <use xlink:href="#DejaVuSans-69" transform="translate(692.371094 0)"/>
     <use xlink:href="#DejaVuSans-63" transform="translate(720.154297 0)"/>
     <use xlink:href="#DejaVuSans-75" transform="translate(775.134766 0)"/>
     <use xlink:href="#DejaVuSans-6c" transform="translate(838.513672 0)"/>
     <use xlink:href="#DejaVuSans-61" transform="translate(866.296875 0)"/>
     <use xlink:href="#DejaVuSans-72" transform="translate(927.576172 0)"/>
    </g>
    <!--  Bisector Grid -->
    <g transform="translate(623.021833 315.161702) scale(0.03 -0.03)">
     <use xlink:href="#DejaVuSans-20"/>
     <use xlink:href="#DejaVuSans-42" transform="translate(31.787109 0)"/>
     <use xlink:href="#DejaVuSans-69" transform="translate(100.390625 0)"/>
     <use xlink:href="#DejaVuSans-73" transform="translate(128.173828 0)"/>
     <use xlink:href="#DejaVuSans-65" transform="translate(180.273438 0)"/>
     <use xlink:href="#DejaVuSans-63" transform="translate(241.796875 0)"/>
     <use xlink:href="#DejaVuSans-74" transform="translate(296.777344 0)"/>
     <use xlink:href="#DejaVuSans-6f" transform="translate(335.986328 0)"/>
     <use xlink:href="#DejaVuSans-72" transform="translate(397.167969 0)"/>
     <use xlink:href="#DejaVuSans-20" transform="translate(438.28125 0)"/>
     <use xlink:href="#DejaVuSans-47" transform="translate(470.068359 0)"/>
     <use xlink:href="#DejaVuSans-72" transform="translate(547.558594 0)"/>
     <use xlink:href="#DejaVuSans-69" transform="translate(588.671875 0)"/>
     <use xlink:href="#DejaVuSans-64" transform="translate(616.455078 0)"/>
    </g>
    <!--  -->
    <g transform="translate(633.220661 318.521045) scale(0.03 -0.03)"/>
   </g>
   <g id="text_14">
    <!--  3.4.4 : Grid-Orientation -->
    <g transform="translate(684.443668 306.763342) scale(0.03 -0.03)">
     <defs>
      <path id="DejaVuSans-4f" d="M 2522 4238 
Q 1834 4238 1429 3725 
Q 1025 3213 1025 2328 
Q 1025 1447 1429 934 
Q 1834 422 2522 422 
Q 3209 422 3611 934 
Q 4013 1447 4013 2328 
Q 4013 3213 3611 3725 
Q 3209 4238 2522 4238 
z
M 2522 4750 
Q 3503 4750 4090 4092 
Q 4678 3434 4678 2328 
Q 4678 1225 4090 567 
Q 3503 -91 2522 -91 
Q 1538 -91 948 565 
Q 359 1222 359 2328 
Q 359 3434 948 4092 
Q 1538 4750 2522 4750 
z
" transform="scale(0.015625)"/>
     </defs>
     <use xlink:href="#DejaVuSans-20"/>
     <use xlink:href="#DejaVuSans-33" transform="translate(31.787109 0)"/>
     <use xlink:href="#DejaVuSans-2e" transform="translate(95.410156 0)"/>
     <use xlink:href="#DejaVuSans-34" transform="translate(127.197266 0)"/>
     <use xlink:href="#DejaVuSans-2e" transform="translate(190.820312 0)"/>
     <use xlink:href="#DejaVuSans-34" transform="translate(222.607422 0)"/>
     <use xlink:href="#DejaVuSans-20" transform="translate(286.230469 0)"/>
     <use xlink:href="#DejaVuSans-3a" transform="translate(318.017578 0)"/>
     <use xlink:href="#DejaVuSans-20" transform="translate(351.708984 0)"/>
     <use xlink:href="#DejaVuSans-47" transform="translate(383.496094 0)"/>
     <use xlink:href="#DejaVuSans-72" transform="translate(460.986328 0)"/>
     <use xlink:href="#DejaVuSans-69" transform="translate(502.099609 0)"/>
     <use xlink:href="#DejaVuSans-64" transform="translate(529.882812 0)"/>
     <use xlink:href="#DejaVuSans-2d" transform="translate(593.359375 0)"/>
     <use xlink:href="#DejaVuSans-4f" transform="translate(632.193359 0)"/>
     <use xlink:href="#DejaVuSans-72" transform="translate(710.904297 0)"/>
     <use xlink:href="#DejaVuSans-69" transform="translate(752.017578 0)"/>
     <use xlink:href="#DejaVuSans-65" transform="translate(779.800781 0)"/>
     <use xlink:href="#DejaVuSans-6e" transform="translate(841.324219 0)"/>
     <use xlink:href="#DejaVuSans-74" transform="translate(904.703125 0)"/>
     <use xlink:href="#DejaVuSans-61" transform="translate(943.912109 0)"/>
     <use xlink:href="#DejaVuSans-74" transform="translate(1005.191406 0)"/>
     <use xlink:href="#DejaVuSans-69" transform="translate(1044.400391 0)"/>
     <use xlink:href="#DejaVuSans-6f" transform="translate(1072.183594 0)"/>
     <use xlink:href="#DejaVuSans-6e" transform="translate(1133.365234 0)"/>
    </g>
    <!--  Errors for -->
    <g transform="translate(694.941324 310.122686) scale(0.03 -0.03)">
     <use xlink:href="#DejaVuSans-20"/>
     <use xlink:href="#DejaVuSans-45" transform="translate(31.787109 0)"/>
     <use xlink:href="#DejaVuSans-72" transform="translate(94.970703 0)"/>
     <use xlink:href="#DejaVuSans-72" transform="translate(134.333984 0)"/>
     <use xlink:href="#DejaVuSans-6f" transform="translate(173.197266 0)"/>
     <use xlink:href="#DejaVuSans-72" transform="translate(234.378906 0)"/>
     <use xlink:href="#DejaVuSans-73" transform="translate(275.492188 0)"/>
     <use xlink:href="#DejaVuSans-20" transform="translate(327.591797 0)"/>
     <use xlink:href="#DejaVuSans-66" transform="translate(359.378906 0)"/>
     <use xlink:href="#DejaVuSans-6f" transform="translate(394.583984 0)"/>
     <use xlink:href="#DejaVuSans-72" transform="translate(455.765625 0)"/>
    </g>
    <!--  Adverse Mobility -->
    <g transform="translate(689.466559 313.48203) scale(0.03 -0.03)">
     <defs>
      <path id="DejaVuSans-41" d="M 2188 4044 
L 1331 1722 
L 3047 1722 
L 2188 4044 
z
M 1831 4666 
L 2547 4666 
L 4325 0 
L 3669 0 
L 3244 1197 
L 1141 1197 
L 716 0 
L 50 0 
L 1831 4666 
z
" transform="scale(0.015625)"/>
      <path id="DejaVuSans-62" d="M 3116 1747 
Q 3116 2381 2855 2742 
Q 2594 3103 2138 3103 
Q 1681 3103 1420 2742 
Q 1159 2381 1159 1747 
Q 1159 1113 1420 752 
Q 1681 391 2138 391 
Q 2594 391 2855 752 
Q 3116 1113 3116 1747 
z
M 1159 2969 
Q 1341 3281 1617 3432 
Q 1894 3584 2278 3584 
Q 2916 3584 3314 3078 
Q 3713 2572 3713 1747 
Q 3713 922 3314 415 
Q 2916 -91 2278 -91 
Q 1894 -91 1617 61 
Q 1341 213 1159 525 
L 1159 0 
L 581 0 
L 581 4863 
L 1159 4863 
L 1159 2969 
z
" transform="scale(0.015625)"/>
     </defs>
     <use xlink:href="#DejaVuSans-20"/>
     <use xlink:href="#DejaVuSans-41" transform="translate(31.787109 0)"/>
     <use xlink:href="#DejaVuSans-64" transform="translate(98.445312 0)"/>
     <use xlink:href="#DejaVuSans-76" transform="translate(161.921875 0)"/>
     <use xlink:href="#DejaVuSans-65" transform="translate(221.101562 0)"/>
     <use xlink:href="#DejaVuSans-72" transform="translate(282.625 0)"/>
     <use xlink:href="#DejaVuSans-73" transform="translate(323.738281 0)"/>
     <use xlink:href="#DejaVuSans-65" transform="translate(375.837891 0)"/>
     <use xlink:href="#DejaVuSans-20" transform="translate(437.361328 0)"/>
     <use xlink:href="#DejaVuSans-4d" transform="translate(469.148438 0)"/>
     <use xlink:href="#DejaVuSans-6f" transform="translate(555.427734 0)"/>
     <use xlink:href="#DejaVuSans-62" transform="translate(616.609375 0)"/>
     <use xlink:href="#DejaVuSans-69" transform="translate(680.085938 0)"/>
     <use xlink:href="#DejaVuSans-6c" transform="translate(707.869141 0)"/>
     <use xlink:href="#DejaVuSans-69" transform="translate(735.652344 0)"/>
     <use xlink:href="#DejaVuSans-74" transform="translate(763.435547 0)"/>
     <use xlink:href="#DejaVuSans-79" transform="translate(802.644531 0)"/>
    </g>
    <!--  Ratios -->
    <g transform="translate(697.285777 316.841374) scale(0.03 -0.03)">
     <use xlink:href="#DejaVuSans-20"/>
     <use xlink:href="#DejaVuSans-52" transform="translate(31.787109 0)"/>
     <use xlink:href="#DejaVuSans-61" transform="translate(99.019531 0)"/>
     <use xlink:href="#DejaVuSans-74" transform="translate(160.298828 0)"/>
     <use xlink:href="#DejaVuSans-69" transform="translate(199.507812 0)"/>
     <use xlink:href="#DejaVuSans-6f" transform="translate(227.291016 0)"/>
     <use xlink:href="#DejaVuSans-73" transform="translate(288.472656 0)"/>
    </g>
   </g>
   <g id="text_15">
    <!--  3.4.5 : Channelized -->
    <g transform="translate(756.578315 310.122686) scale(0.03 -0.03)">
     <defs>
      <path id="DejaVuSans-43" d="M 4122 4306 
L 4122 3641 
Q 3803 3938 3442 4084 
Q 3081 4231 2675 4231 
Q 1875 4231 1450 3742 
Q 1025 3253 1025 2328 
Q 1025 1406 1450 917 
Q 1875 428 2675 428 
Q 3081 428 3442 575 
Q 3803 722 4122 1019 
L 4122 359 
Q 3791 134 3420 21 
Q 3050 -91 2638 -91 
Q 1578 -91 968 557 
Q 359 1206 359 2328 
Q 359 3453 968 4101 
Q 1578 4750 2638 4750 
Q 3056 4750 3426 4639 
Q 3797 4528 4122 4306 
z
" transform="scale(0.015625)"/>
      <path id="DejaVuSans-7a" d="M 353 3500 
L 3084 3500 
L 3084 2975 
L 922 459 
L 3084 459 
L 3084 0 
L 275 0 
L 275 525 
L 2438 3041 
L 353 3041 
L 353 3500 
z
" transform="scale(0.015625)"/>
     </defs>
     <use xlink:href="#DejaVuSans-20"/>
     <use xlink:href="#DejaVuSans-33" transform="translate(31.787109 0)"/>
     <use xlink:href="#DejaVuSans-2e" transform="translate(95.410156 0)"/>
     <use xlink:href="#DejaVuSans-34" transform="translate(127.197266 0)"/>
     <use xlink:href="#DejaVuSans-2e" transform="translate(190.820312 0)"/>
     <use xlink:href="#DejaVuSans-35" transform="translate(222.607422 0)"/>
     <use xlink:href="#DejaVuSans-20" transform="translate(286.230469 0)"/>
     <use xlink:href="#DejaVuSans-3a" transform="translate(318.017578 0)"/>
     <use xlink:href="#DejaVuSans-20" transform="translate(351.708984 0)"/>
     <use xlink:href="#DejaVuSans-43" transform="translate(383.496094 0)"/>
     <use xlink:href="#DejaVuSans-68" transform="translate(453.320312 0)"/>
     <use xlink:href="#DejaVuSans-61" transform="translate(516.699219 0)"/>
     <use xlink:href="#DejaVuSans-6e" transform="translate(577.978516 0)"/>
     <use xlink:href="#DejaVuSans-6e" transform="translate(641.357422 0)"/>
     <use xlink:href="#DejaVuSans-65" transform="translate(704.736328 0)"/>
     <use xlink:href="#DejaVuSans-6c" transform="translate(766.259766 0)"/>
     <use xlink:href="#DejaVuSans-69" transform="translate(794.042969 0)"/>
     <use xlink:href="#DejaVuSans-7a" transform="translate(821.826172 0)"/>
     <use xlink:href="#DejaVuSans-65" transform="translate(874.316406 0)"/>
     <use xlink:href="#DejaVuSans-64" transform="translate(935.839844 0)"/>
    </g>
    <!--  Medium -->
    <g transform="translate(765.093159 313.48203) scale(0.03 -0.03)">
     <use xlink:href="#DejaVuSans-20"/>
     <use xlink:href="#DejaVuSans-4d" transform="translate(31.787109 0)"/>
     <use xlink:href="#DejaVuSans-65" transform="translate(118.066406 0)"/>
     <use xlink:href="#DejaVuSans-64" transform="translate(179.589844 0)"/>
     <use xlink:href="#DejaVuSans-69" transform="translate(243.066406 0)"/>
     <use xlink:href="#DejaVuSans-75" transform="translate(270.849609 0)"/>
     <use xlink:href="#DejaVuSans-6d" transform="translate(334.228516 0)"/>
    </g>
   </g>
   <g id="text_16">
    <!--  3.5 : Concluding -->
    <g transform="translate(643.18358 187.765822) scale(0.03 -0.03)">
     <use xlink:href="#DejaVuSans-20"/>
     <use xlink:href="#DejaVuSans-33" transform="translate(31.787109 0)"/>
     <use xlink:href="#DejaVuSans-2e" transform="translate(95.410156 0)"/>
     <use xlink:href="#DejaVuSans-35" transform="translate(127.197266 0)"/>
     <use xlink:href="#DejaVuSans-20" transform="translate(190.820312 0)"/>
     <use xlink:href="#DejaVuSans-3a" transform="translate(222.607422 0)"/>
     <use xlink:href="#DejaVuSans-20" transform="translate(256.298828 0)"/>
     <use xlink:href="#DejaVuSans-43" transform="translate(288.085938 0)"/>
     <use xlink:href="#DejaVuSans-6f" transform="translate(357.910156 0)"/>
     <use xlink:href="#DejaVuSans-6e" transform="translate(419.091797 0)"/>
     <use xlink:href="#DejaVuSans-63" transform="translate(482.470703 0)"/>
     <use xlink:href="#DejaVuSans-6c" transform="translate(537.451172 0)"/>
     <use xlink:href="#DejaVuSans-75" transform="translate(565.234375 0)"/>
     <use xlink:href="#DejaVuSans-64" transform="translate(628.613281 0)"/>
     <use xlink:href="#DejaVuSans-69" transform="translate(692.089844 0)"/>
     <use xlink:href="#DejaVuSans-6e" transform="translate(719.873047 0)"/>
     <use xlink:href="#DejaVuSans-67" transform="translate(783.251953 0)"/>
    </g>
    <!--  Remarks -->
    <g transform="translate(648.862955 191.125166) scale(0.03 -0.03)">
     <use xlink:href="#DejaVuSans-20"/>
     <use xlink:href="#DejaVuSans-52" transform="translate(31.787109 0)"/>
     <use xlink:href="#DejaVuSans-65" transform="translate(96.769531 0)"/>
     <use xlink:href="#DejaVuSans-6d" transform="translate(158.292969 0)"/>
     <use xlink:href="#DejaVuSans-61" transform="translate(255.705078 0)"/>
     <use xlink:href="#DejaVuSans-72" transform="translate(316.984375 0)"/>
     <use xlink:href="#DejaVuSans-6b" transform="translate(358.097656 0)"/>
     <use xlink:href="#DejaVuSans-73" transform="translate(416.007812 0)"/>
    </g>
   </g>
   <g id="text_17">
    <!--  3: Implicit -->
    <g transform="translate(295.401288 18.097243) scale(0.1 -0.1)">
     <use xlink:href="#DejaVuSans-20"/>
     <use xlink:href="#DejaVuSans-33" transform="translate(31.787109 0)"/>
     <use xlink:href="#DejaVuSans-3a" transform="translate(95.410156 0)"/>
     <use xlink:href="#DejaVuSans-20" transform="translate(129.101562 0)"/>
     <use xlink:href="#DejaVuSans-49" transform="translate(160.888672 0)"/>
     <use xlink:href="#DejaVuSans-6d" transform="translate(190.380859 0)"/>
     <use xlink:href="#DejaVuSans-70" transform="translate(287.792969 0)"/>
     <use xlink:href="#DejaVuSans-6c" transform="translate(351.269531 0)"/>
     <use xlink:href="#DejaVuSans-69" transform="translate(379.052734 0)"/>
     <use xlink:href="#DejaVuSans-63" transform="translate(406.835938 0)"/>
     <use xlink:href="#DejaVuSans-69" transform="translate(461.816406 0)"/>
     <use xlink:href="#DejaVuSans-74" transform="translate(489.599609 0)"/>
    </g>
    <!--  Discontinuous -->
    <g transform="translate(284.911444 29.295055) scale(0.1 -0.1)">
     <use xlink:href="#DejaVuSans-20"/>
     <use xlink:href="#DejaVuSans-44" transform="translate(31.787109 0)"/>
     <use xlink:href="#DejaVuSans-69" transform="translate(108.789062 0)"/>
     <use xlink:href="#DejaVuSans-73" transform="translate(136.572266 0)"/>
     <use xlink:href="#DejaVuSans-63" transform="translate(188.671875 0)"/>
     <use xlink:href="#DejaVuSans-6f" transform="translate(243.652344 0)"/>
     <use xlink:href="#DejaVuSans-6e" transform="translate(304.833984 0)"/>
     <use xlink:href="#DejaVuSans-74" transform="translate(368.212891 0)"/>
     <use xlink:href="#DejaVuSans-69" transform="translate(407.421875 0)"/>
     <use xlink:href="#DejaVuSans-6e" transform="translate(435.205078 0)"/>
     <use xlink:href="#DejaVuSans-75" transform="translate(498.583984 0)"/>
     <use xlink:href="#DejaVuSans-6f" transform="translate(561.962891 0)"/>
     <use xlink:href="#DejaVuSans-75" transform="translate(623.144531 0)"/>
     <use xlink:href="#DejaVuSans-73" transform="translate(686.523438 0)"/>
    </g>
    <!--  Galerkin Methods -->
    <g transform="translate(276.392694 40.492868) scale(0.1 -0.1)">
     <use xlink:href="#DejaVuSans-20"/>
     <use xlink:href="#DejaVuSans-47" transform="translate(31.787109 0)"/>
     <use xlink:href="#DejaVuSans-61" transform="translate(109.277344 0)"/>
     <use xlink:href="#DejaVuSans-6c" transform="translate(170.556641 0)"/>
     <use xlink:href="#DejaVuSans-65" transform="translate(198.339844 0)"/>
     <use xlink:href="#DejaVuSans-72" transform="translate(259.863281 0)"/>
     <use xlink:href="#DejaVuSans-6b" transform="translate(300.976562 0)"/>
     <use xlink:href="#DejaVuSans-69" transform="translate(358.886719 0)"/>
     <use xlink:href="#DejaVuSans-6e" transform="translate(386.669922 0)"/>
     <use xlink:href="#DejaVuSans-20" transform="translate(450.048828 0)"/>
     <use xlink:href="#DejaVuSans-4d" transform="translate(481.835938 0)"/>
     <use xlink:href="#DejaVuSans-65" transform="translate(568.115234 0)"/>
     <use xlink:href="#DejaVuSans-74" transform="translate(629.638672 0)"/>
     <use xlink:href="#DejaVuSans-68" transform="translate(668.847656 0)"/>
     <use xlink:href="#DejaVuSans-6f" transform="translate(732.226562 0)"/>
     <use xlink:href="#DejaVuSans-64" transform="translate(793.408203 0)"/>
     <use xlink:href="#DejaVuSans-73" transform="translate(856.884766 0)"/>
    </g>
    <!--  for Transport -->
    <g transform="translate(288.329413 51.69068) scale(0.1 -0.1)">
     <use xlink:href="#DejaVuSans-20"/>
     <use xlink:href="#DejaVuSans-66" transform="translate(31.787109 0)"/>
     <use xlink:href="#DejaVuSans-6f" transform="translate(66.992188 0)"/>
     <use xlink:href="#DejaVuSans-72" transform="translate(128.173828 0)"/>
     <use xlink:href="#DejaVuSans-20" transform="translate(169.287109 0)"/>
     <use xlink:href="#DejaVuSans-54" transform="translate(201.074219 0)"/>
     <use xlink:href="#DejaVuSans-72" transform="translate(247.408203 0)"/>
     <use xlink:href="#DejaVuSans-61" transform="translate(288.521484 0)"/>
     <use xlink:href="#DejaVuSans-6e" transform="translate(349.800781 0)"/>
     <use xlink:href="#DejaVuSans-73" transform="translate(413.179688 0)"/>
     <use xlink:href="#DejaVuSans-70" transform="translate(465.279297 0)"/>
     <use xlink:href="#DejaVuSans-6f" transform="translate(528.755859 0)"/>
     <use xlink:href="#DejaVuSans-72" transform="translate(589.9375 0)"/>
     <use xlink:href="#DejaVuSans-74" transform="translate(631.050781 0)"/>
    </g>
    <!--  Equations in -->
    <g transform="translate(289.356757 62.888493) scale(0.1 -0.1)">
     <use xlink:href="#DejaVuSans-20"/>
     <use xlink:href="#DejaVuSans-45" transform="translate(31.787109 0)"/>
     <use xlink:href="#DejaVuSans-71" transform="translate(94.970703 0)"/>
     <use xlink:href="#DejaVuSans-75" transform="translate(158.447266 0)"/>
     <use xlink:href="#DejaVuSans-61" transform="translate(221.826172 0)"/>
     <use xlink:href="#DejaVuSans-74" transform="translate(283.105469 0)"/>
     <use xlink:href="#DejaVuSans-69" transform="translate(322.314453 0)"/>
     <use xlink:href="#DejaVuSans-6f" transform="translate(350.097656 0)"/>
     <use xlink:href="#DejaVuSans-6e" transform="translate(411.279297 0)"/>
     <use xlink:href="#DejaVuSans-73" transform="translate(474.658203 0)"/>
     <use xlink:href="#DejaVuSans-20" transform="translate(526.757812 0)"/>
     <use xlink:href="#DejaVuSans-69" transform="translate(558.544922 0)"/>
     <use xlink:href="#DejaVuSans-6e" transform="translate(586.328125 0)"/>
    </g>
    <!--  Porous Media -->
    <g transform="translate(286.976288 74.086305) scale(0.1 -0.1)">
     <use xlink:href="#DejaVuSans-20"/>
     <use xlink:href="#DejaVuSans-50" transform="translate(31.787109 0)"/>
     <use xlink:href="#DejaVuSans-6f" transform="translate(88.464844 0)"/>
     <use xlink:href="#DejaVuSans-72" transform="translate(149.646484 0)"/>
     <use xlink:href="#DejaVuSans-6f" transform="translate(188.509766 0)"/>
     <use xlink:href="#DejaVuSans-75" transform="translate(249.691406 0)"/>
     <use xlink:href="#DejaVuSans-73" transform="translate(313.070312 0)"/>
     <use xlink:href="#DejaVuSans-20" transform="translate(365.169922 0)"/>
     <use xlink:href="#DejaVuSans-4d" transform="translate(396.957031 0)"/>
     <use xlink:href="#DejaVuSans-65" transform="translate(483.236328 0)"/>
     <use xlink:href="#DejaVuSans-64" transform="translate(544.759766 0)"/>
     <use xlink:href="#DejaVuSans-69" transform="translate(608.236328 0)"/>
     <use xlink:href="#DejaVuSans-61" transform="translate(636.019531 0)"/>
    </g>
    <!--  -->
    <g transform="translate(321.841132 85.284118) scale(0.1 -0.1)"/>
   </g>
  </g>
 </g>
 <defs>
  <clipPath id="pe1c110952d">
   <rect x="7.2" y="7.2" width="837" height="332.64"/>
  </clipPath>
 </defs>
</svg>
