<?xml version="1.0" encoding="utf-8" standalone="no"?>
<!DOCTYPE svg PUBLIC "-//W3C//DTD SVG 1.1//EN"
  "http://www.w3.org/Graphics/SVG/1.1/DTD/svg11.dtd">
<svg xmlns:xlink="http://www.w3.org/1999/xlink" width="851.4pt" height="347.04pt" viewBox="0 0 851.4 347.04" xmlns="http://www.w3.org/2000/svg" version="1.1">
 <metadata>
  <rdf:RDF xmlns:dc="http://purl.org/dc/elements/1.1/" xmlns:cc="http://creativecommons.org/ns#" xmlns:rdf="http://www.w3.org/1999/02/22-rdf-syntax-ns#">
   <cc:Work>
    <dc:type rdf:resource="http://purl.org/dc/dcmitype/StillImage"/>
    <dc:date>2025-07-31T13:28:22.971444</dc:date>
    <dc:format>image/svg+xml</dc:format>
    <dc:creator>
     <cc:Agent>
      <dc:title>Matplotlib v3.10.3, https://matplotlib.org/</dc:title>
     </cc:Agent>
    </dc:creator>
   </cc:Work>
  </rdf:RDF>
 </metadata>
 <defs>
  <style type="text/css">*{stroke-linejoin: round; stroke-linecap: butt}</style>
 </defs>
 <g id="figure_1">
  <g id="patch_1">
   <path d="M 0 347.04 
L 851.4 347.04 
L 851.4 -0 
L 0 -0 
z
" style="fill: #ffffff"/>
  </g>
  <g id="axes_1">
   <g id="patch_2">
    <path d="M 275.918347 218.830924 
Q 165.465542 260.952082 56.057388 302.674863 
" clip-path="url(#p1910f79e1e)" style="fill: none; stroke: #000000; stroke-linecap: round"/>
    <path d="M 60.507484 303.118313 
L 56.057388 302.674863 
L 59.082206 299.380856 
z
" clip-path="url(#p1910f79e1e)" style="stroke: #000000; stroke-linecap: round"/>
   </g>
   <g id="patch_3">
    <path d="M 277.766435 222.886447 
Q 204.763533 261.868298 132.746867 300.323521 
" clip-path="url(#p1910f79e1e)" style="fill: none; stroke: #000000; stroke-linecap: round"/>
    <path d="M 137.217396 300.203636 
L 132.746867 300.323521 
L 135.333276 296.675167 
z
" clip-path="url(#p1910f79e1e)" style="stroke: #000000; stroke-linecap: round"/>
   </g>
   <g id="patch_4">
    <path d="M 282.552218 229.739047 
Q 244.724122 263.417386 207.731069 296.352286 
" clip-path="url(#p1910f79e1e)" style="fill: none; stroke: #000000; stroke-linecap: round"/>
    <path d="M 212.048517 295.186249 
L 207.731069 296.352286 
L 209.388708 292.198705 
z
" clip-path="url(#p1910f79e1e)" style="stroke: #000000; stroke-linecap: round"/>
   </g>
   <g id="patch_5">
    <path d="M 296.579315 239.350732 
Q 286.773716 265.590378 277.359487 290.782727 
" clip-path="url(#p1910f79e1e)" style="fill: none; stroke: #000000; stroke-linecap: round"/>
    <path d="M 280.633151 287.735906 
L 277.359487 290.782727 
L 276.886228 286.335703 
z
" clip-path="url(#p1910f79e1e)" style="stroke: #000000; stroke-linecap: round"/>
   </g>
   <g id="patch_6">
    <path d="M 321.392904 239.325405 
Q 331.262933 265.587397 340.739633 290.802827 
" clip-path="url(#p1910f79e1e)" style="fill: none; stroke: #000000; stroke-linecap: round"/>
    <path d="M 341.204564 286.354924 
L 340.739633 290.802827 
L 337.46027 287.76214 
z
" clip-path="url(#p1910f79e1e)" style="stroke: #000000; stroke-linecap: round"/>
   </g>
   <g id="patch_7">
    <path d="M 335.387618 229.720051 
Q 373.304873 263.413711 410.386382 296.36472 
" clip-path="url(#p1910f79e1e)" style="fill: none; stroke: #000000; stroke-linecap: round"/>
    <path d="M 408.724826 292.212705 
L 410.386382 296.36472 
L 406.067837 295.202756 
z
" clip-path="url(#p1910f79e1e)" style="stroke: #000000; stroke-linecap: round"/>
   </g>
   <g id="patch_8">
    <path d="M 560.004858 234.525894 
Q 537.53659 264.502634 515.738869 293.584743 
" clip-path="url(#p1910f79e1e)" style="fill: none; stroke: #000000; stroke-linecap: round"/>
    <path d="M 519.738259 291.583523 
L 515.738869 293.584743 
L 516.537527 289.184499 
z
" clip-path="url(#p1910f79e1e)" style="stroke: #000000; stroke-linecap: round"/>
   </g>
   <g id="patch_9">
    <path d="M 581.211638 241.58586 
Q 581.211638 266.097633 581.211638 289.491371 
" clip-path="url(#p1910f79e1e)" style="fill: none; stroke: #000000; stroke-linecap: round"/>
    <path d="M 583.211638 285.491371 
L 581.211638 289.491371 
L 579.211638 285.491371 
z
" clip-path="url(#p1910f79e1e)" style="stroke: #000000; stroke-linecap: round"/>
   </g>
   <g id="patch_10">
    <path d="M 602.418417 234.525894 
Q 624.886686 264.502634 646.684407 293.584743 
" clip-path="url(#p1910f79e1e)" style="fill: none; stroke: #000000; stroke-linecap: round"/>
    <path d="M 645.885749 289.184499 
L 646.684407 293.584743 
L 642.685017 291.583523 
z
" clip-path="url(#p1910f79e1e)" style="stroke: #000000; stroke-linecap: round"/>
   </g>
   <g id="patch_11">
    <path d="M 610.623972 225.852899 
Q 665.617322 262.538445 719.680594 298.603545 
" clip-path="url(#p1910f79e1e)" style="fill: none; stroke: #000000; stroke-linecap: round"/>
    <path d="M 717.462933 294.719992 
L 719.680594 298.603545 
L 715.243155 298.047542 
z
" clip-path="url(#p1910f79e1e)" style="stroke: #000000; stroke-linecap: round"/>
   </g>
   <g id="patch_12">
    <path d="M 613.513002 220.597498 
Q 705.147665 261.349912 795.760762 301.648008 
" clip-path="url(#p1910f79e1e)" style="fill: none; stroke: #000000; stroke-linecap: round"/>
    <path d="M 792.918608 298.195161 
L 795.760762 301.648008 
L 791.293191 301.850023 
z
" clip-path="url(#p1910f79e1e)" style="stroke: #000000; stroke-linecap: round"/>
   </g>
   <g id="patch_13">
    <path d="M 251.427674 118.002653 
Q 197.574332 156.48865 144.630617 194.324587 
" clip-path="url(#p1910f79e1e)" style="fill: none; stroke: #000000; stroke-linecap: round"/>
    <path d="M 149.047861 193.626051 
L 144.630617 194.324587 
L 146.722135 190.37167 
z
" clip-path="url(#p1910f79e1e)" style="stroke: #000000; stroke-linecap: round"/>
   </g>
   <g id="patch_14">
    <path d="M 264.845582 132.157275 
Q 241.324564 161.627425 218.500979 190.22374 
" clip-path="url(#p1910f79e1e)" style="fill: none; stroke: #000000; stroke-linecap: round"/>
    <path d="M 222.559356 188.345023 
L 218.500979 190.22374 
L 219.433031 185.849808 
z
" clip-path="url(#p1910f79e1e)" style="stroke: #000000; stroke-linecap: round"/>
   </g>
   <g id="patch_15">
    <path d="M 308.955508 147.604601 
Q 308.955508 159.23959 308.955508 169.756546 
" clip-path="url(#p1910f79e1e)" style="fill: none; stroke: #000000; stroke-linecap: round"/>
    <path d="M 310.955508 165.756546 
L 308.955508 169.756546 
L 306.955508 165.756546 
z
" clip-path="url(#p1910f79e1e)" style="stroke: #000000; stroke-linecap: round"/>
   </g>
   <g id="patch_16">
    <path d="M 372.827853 107.23472 
Q 461.052961 149.148077 548.268203 190.581675 
" clip-path="url(#p1910f79e1e)" style="fill: none; stroke: #000000; stroke-linecap: round"/>
    <path d="M 545.513416 187.058729 
L 548.268203 190.581675 
L 543.796974 190.671737 
z
" clip-path="url(#p1910f79e1e)" style="stroke: #000000; stroke-linecap: round"/>
   </g>
   <g id="patch_17">
    <path d="M 375.809999 99.919591 
Q 520.973852 149.92315 665.080626 199.562586 
" clip-path="url(#p1910f79e1e)" style="fill: none; stroke: #000000; stroke-linecap: round"/>
    <path d="M 661.950075 196.368897 
L 665.080626 199.562586 
L 660.647345 200.150814 
z
" clip-path="url(#p1910f79e1e)" style="stroke: #000000; stroke-linecap: round"/>
   </g>
   <g id="PathCollection_1">
    <path d="M 127.968317 225.597125 
C 133.103953 225.597125 138.029938 223.556715 141.661381 219.925272 
C 145.292824 216.293829 147.333234 211.367844 147.333234 206.232208 
C 147.333234 201.096572 145.292824 196.170587 141.661381 192.539144 
C 138.029938 188.907701 133.103953 186.867291 127.968317 186.867291 
C 122.832681 186.867291 117.906696 188.907701 114.275253 192.539144 
C 110.64381 196.170587 108.603401 201.096572 108.603401 206.232208 
C 108.603401 211.367844 110.64381 216.293829 114.275253 219.925272 
C 117.906696 223.556715 122.832681 225.597125 127.968317 225.597125 
z
" clip-path="url(#p1910f79e1e)" style="fill: #add8e6; stroke: #add8e6"/>
    <path d="M 205.724136 225.597125 
C 210.859772 225.597125 215.785757 223.556715 219.4172 219.925272 
C 223.048643 216.293829 225.089053 211.367844 225.089053 206.232208 
C 225.089053 201.096572 223.048643 196.170587 219.4172 192.539144 
C 215.785757 188.907701 210.859772 186.867291 205.724136 186.867291 
C 200.5885 186.867291 195.662515 188.907701 192.031072 192.539144 
C 188.399629 196.170587 186.35922 201.096572 186.35922 206.232208 
C 186.35922 211.367844 188.399629 216.293829 192.031072 219.925272 
C 195.662515 223.556715 200.5885 225.597125 205.724136 225.597125 
z
" clip-path="url(#p1910f79e1e)" style="fill: #add8e6; stroke: #add8e6"/>
    <path d="M 308.955508 241.587547 
C 318.331854 241.587547 327.325431 237.862286 333.955508 231.232208 
C 340.585586 224.602131 344.310847 215.608554 344.310847 206.232208 
C 344.310847 196.855863 340.585586 187.862286 333.955508 181.232208 
C 327.325431 174.602131 318.331854 170.876869 308.955508 170.876869 
C 299.579163 170.876869 290.585586 174.602131 283.955508 181.232208 
C 277.325431 187.862286 273.600169 196.855863 273.600169 206.232208 
C 273.600169 215.608554 277.325431 224.602131 283.955508 231.232208 
C 290.585586 237.862286 299.579163 241.587547 308.955508 241.587547 
z
" clip-path="url(#p1910f79e1e)" style="fill: #add8e6; stroke: #add8e6"/>
    <path d="M 36.920905 329.337474 
C 42.056541 329.337474 46.982526 327.297064 50.613969 323.665621 
C 54.245412 320.034178 56.285822 315.108193 56.285822 309.972557 
C 56.285822 304.836921 54.245412 299.910936 50.613969 296.279493 
C 46.982526 292.64805 42.056541 290.60764 36.920905 290.60764 
C 31.785269 290.60764 26.859284 292.64805 23.227841 296.279493 
C 19.596398 299.910936 17.555989 304.836921 17.555989 309.972557 
C 17.555989 315.108193 19.596398 320.034178 23.227841 323.665621 
C 26.859284 327.297064 31.785269 329.337474 36.920905 329.337474 
z
" clip-path="url(#p1910f79e1e)" style="fill: #add8e6; stroke: #add8e6"/>
    <path d="M 114.676724 329.337474 
C 119.81236 329.337474 124.738345 327.297064 128.369788 323.665621 
C 132.001231 320.034178 134.041641 315.108193 134.041641 309.972557 
C 134.041641 304.836921 132.001231 299.910936 128.369788 296.279493 
C 124.738345 292.64805 119.81236 290.60764 114.676724 290.60764 
C 109.541088 290.60764 104.615103 292.64805 100.98366 296.279493 
C 97.352217 299.910936 95.311808 304.836921 95.311808 309.972557 
C 95.311808 315.108193 97.352217 320.034178 100.98366 323.665621 
C 104.615103 327.297064 109.541088 329.337474 114.676724 329.337474 
z
" clip-path="url(#p1910f79e1e)" style="fill: #add8e6; stroke: #add8e6"/>
    <path d="M 192.432543 329.337474 
C 197.568179 329.337474 202.494164 327.297064 206.125607 323.665621 
C 209.75705 320.034178 211.79746 315.108193 211.79746 309.972557 
C 211.79746 304.836921 209.75705 299.910936 206.125607 296.279493 
C 202.494164 292.64805 197.568179 290.60764 192.432543 290.60764 
C 187.296907 290.60764 182.370922 292.64805 178.739479 296.279493 
C 175.108036 299.910936 173.067627 304.836921 173.067627 309.972557 
C 173.067627 315.108193 175.108036 320.034178 178.739479 323.665621 
C 182.370922 327.297064 187.296907 329.337474 192.432543 329.337474 
z
" clip-path="url(#p1910f79e1e)" style="fill: #add8e6; stroke: #add8e6"/>
    <path d="M 270.188362 329.337474 
C 275.323998 329.337474 280.249983 327.297064 283.881426 323.665621 
C 287.512869 320.034178 289.553279 315.108193 289.553279 309.972557 
C 289.553279 304.836921 287.512869 299.910936 283.881426 296.279493 
C 280.249983 292.64805 275.323998 290.60764 270.188362 290.60764 
C 265.052726 290.60764 260.126741 292.64805 256.495298 296.279493 
C 252.863855 299.910936 250.823445 304.836921 250.823445 309.972557 
C 250.823445 315.108193 252.863855 320.034178 256.495298 323.665621 
C 260.126741 327.297064 265.052726 329.337474 270.188362 329.337474 
z
" clip-path="url(#p1910f79e1e)" style="fill: #add8e6; stroke: #add8e6"/>
    <path d="M 347.944181 329.337474 
C 353.079817 329.337474 358.005802 327.297064 361.637245 323.665621 
C 365.268688 320.034178 367.309098 315.108193 367.309098 309.972557 
C 367.309098 304.836921 365.268688 299.910936 361.637245 296.279493 
C 358.005802 292.64805 353.079817 290.60764 347.944181 290.60764 
C 342.808545 290.60764 337.88256 292.64805 334.251117 296.279493 
C 330.619674 299.910936 328.579264 304.836921 328.579264 309.972557 
C 328.579264 315.108193 330.619674 320.034178 334.251117 323.665621 
C 337.88256 327.297064 342.808545 329.337474 347.944181 329.337474 
z
" clip-path="url(#p1910f79e1e)" style="fill: #add8e6; stroke: #add8e6"/>
    <path d="M 425.7 329.337474 
C 430.835636 329.337474 435.761621 327.297064 439.393064 323.665621 
C 443.024507 320.034178 445.064917 315.108193 445.064917 309.972557 
C 445.064917 304.836921 443.024507 299.910936 439.393064 296.279493 
C 435.761621 292.64805 430.835636 290.60764 425.7 290.60764 
C 420.564364 290.60764 415.638379 292.64805 412.006936 296.279493 
C 408.375493 299.910936 406.335083 304.836921 406.335083 309.972557 
C 406.335083 315.108193 408.375493 320.034178 412.006936 323.665621 
C 415.638379 327.297064 420.564364 329.337474 425.7 329.337474 
z
" clip-path="url(#p1910f79e1e)" style="fill: #add8e6; stroke: #add8e6"/>
    <path d="M 581.211638 241.587547 
C 590.587983 241.587547 599.58156 237.862286 606.211638 231.232208 
C 612.841715 224.602131 616.566977 215.608554 616.566977 206.232208 
C 616.566977 196.855863 612.841715 187.862286 606.211638 181.232208 
C 599.58156 174.602131 590.587983 170.876869 581.211638 170.876869 
C 571.835292 170.876869 562.841715 174.602131 556.211638 181.232208 
C 549.58156 187.862286 545.856299 196.855863 545.856299 206.232208 
C 545.856299 215.608554 549.58156 224.602131 556.211638 231.232208 
C 562.841715 237.862286 571.835292 241.587547 581.211638 241.587547 
z
" clip-path="url(#p1910f79e1e)" style="fill: #add8e6; stroke: #add8e6"/>
    <path d="M 503.455819 329.337474 
C 508.591455 329.337474 513.51744 327.297064 517.148883 323.665621 
C 520.780326 320.034178 522.820736 315.108193 522.820736 309.972557 
C 522.820736 304.836921 520.780326 299.910936 517.148883 296.279493 
C 513.51744 292.64805 508.591455 290.60764 503.455819 290.60764 
C 498.320183 290.60764 493.394198 292.64805 489.762755 296.279493 
C 486.131312 299.910936 484.090902 304.836921 484.090902 309.972557 
C 484.090902 315.108193 486.131312 320.034178 489.762755 323.665621 
C 493.394198 327.297064 498.320183 329.337474 503.455819 329.337474 
z
" clip-path="url(#p1910f79e1e)" style="fill: #add8e6; stroke: #add8e6"/>
    <path d="M 581.211638 329.337474 
C 586.347274 329.337474 591.273259 327.297064 594.904702 323.665621 
C 598.536145 320.034178 600.576555 315.108193 600.576555 309.972557 
C 600.576555 304.836921 598.536145 299.910936 594.904702 296.279493 
C 591.273259 292.64805 586.347274 290.60764 581.211638 290.60764 
C 576.076002 290.60764 571.150017 292.64805 567.518574 296.279493 
C 563.887131 299.910936 561.846721 304.836921 561.846721 309.972557 
C 561.846721 315.108193 563.887131 320.034178 567.518574 323.665621 
C 571.150017 327.297064 576.076002 329.337474 581.211638 329.337474 
z
" clip-path="url(#p1910f79e1e)" style="fill: #add8e6; stroke: #add8e6"/>
    <path d="M 658.967457 329.337474 
C 664.103093 329.337474 669.029078 327.297064 672.660521 323.665621 
C 676.291964 320.034178 678.332373 315.108193 678.332373 309.972557 
C 678.332373 304.836921 676.291964 299.910936 672.660521 296.279493 
C 669.029078 292.64805 664.103093 290.60764 658.967457 290.60764 
C 653.831821 290.60764 648.905836 292.64805 645.274393 296.279493 
C 641.64295 299.910936 639.60254 304.836921 639.60254 309.972557 
C 639.60254 315.108193 641.64295 320.034178 645.274393 323.665621 
C 648.905836 327.297064 653.831821 329.337474 658.967457 329.337474 
z
" clip-path="url(#p1910f79e1e)" style="fill: #add8e6; stroke: #add8e6"/>
    <path d="M 736.723276 329.337474 
C 741.858912 329.337474 746.784897 327.297064 750.41634 323.665621 
C 754.047783 320.034178 756.088192 315.108193 756.088192 309.972557 
C 756.088192 304.836921 754.047783 299.910936 750.41634 296.279493 
C 746.784897 292.64805 741.858912 290.60764 736.723276 290.60764 
C 731.58764 290.60764 726.661655 292.64805 723.030212 296.279493 
C 719.398769 299.910936 717.358359 304.836921 717.358359 309.972557 
C 717.358359 315.108193 719.398769 320.034178 723.030212 323.665621 
C 726.661655 327.297064 731.58764 329.337474 736.723276 329.337474 
z
" clip-path="url(#p1910f79e1e)" style="fill: #add8e6; stroke: #add8e6"/>
    <path d="M 814.479095 329.337474 
C 819.614731 329.337474 824.540716 327.297064 828.172159 323.665621 
C 831.803602 320.034178 833.844011 315.108193 833.844011 309.972557 
C 833.844011 304.836921 831.803602 299.910936 828.172159 296.279493 
C 824.540716 292.64805 819.614731 290.60764 814.479095 290.60764 
C 809.343459 290.60764 804.417474 292.64805 800.786031 296.279493 
C 797.154588 299.910936 795.114178 304.836921 795.114178 309.972557 
C 795.114178 315.108193 797.154588 320.034178 800.786031 323.665621 
C 804.417474 327.297064 809.343459 329.337474 814.479095 329.337474 
z
" clip-path="url(#p1910f79e1e)" style="fill: #add8e6; stroke: #add8e6"/>
    <path d="M 684.44301 225.597125 
C 689.578646 225.597125 694.504631 223.556715 698.136074 219.925272 
C 701.767517 216.293829 703.807927 211.367844 703.807927 206.232208 
C 703.807927 201.096572 701.767517 196.170587 698.136074 192.539144 
C 694.504631 188.907701 689.578646 186.867291 684.44301 186.867291 
C 679.307374 186.867291 674.381389 188.907701 670.749946 192.539144 
C 667.118503 196.170587 665.078093 201.096572 665.078093 206.232208 
C 665.078093 211.367844 667.118503 216.293829 670.749946 219.925272 
C 674.381389 223.556715 679.307374 225.597125 684.44301 225.597125 
z
" clip-path="url(#p1910f79e1e)" style="fill: #add8e6; stroke: #add8e6"/>
    <path d="M 308.955508 147.601378 
C 327.708199 147.601378 345.695353 140.150855 358.955508 126.8907 
C 372.215663 113.630545 379.666186 95.643391 379.666186 76.8907 
C 379.666186 58.138009 372.215663 40.150855 358.955508 26.8907 
C 345.695353 13.630545 327.708199 6.180022 308.955508 6.180022 
C 290.202817 6.180022 272.215663 13.630545 258.955508 26.8907 
C 245.695353 40.150855 238.24483 58.138009 238.24483 76.8907 
C 238.24483 95.643391 245.695353 113.630545 258.955508 126.8907 
C 272.215663 140.150855 290.202817 147.601378 308.955508 147.601378 
z
" clip-path="url(#p1910f79e1e)" style="fill: #add8e6; stroke: #add8e6"/>
   </g>
   <g id="text_1">
    <!--  3.1 : Introduction -->
    <g transform="translate(114.564645 205.380349) scale(0.03 -0.03)">
     <defs>
      <path id="DejaVuSans-20" transform="scale(0.015625)"/>
      <path id="DejaVuSans-33" d="M 2597 2516 
Q 3050 2419 3304 2112 
Q 3559 1806 3559 1356 
Q 3559 666 3084 287 
Q 2609 -91 1734 -91 
Q 1441 -91 1130 -33 
Q 819 25 488 141 
L 488 750 
Q 750 597 1062 519 
Q 1375 441 1716 441 
Q 2309 441 2620 675 
Q 2931 909 2931 1356 
Q 2931 1769 2642 2001 
Q 2353 2234 1838 2234 
L 1294 2234 
L 1294 2753 
L 1863 2753 
Q 2328 2753 2575 2939 
Q 2822 3125 2822 3475 
Q 2822 3834 2567 4026 
Q 2313 4219 1838 4219 
Q 1578 4219 1281 4162 
Q 984 4106 628 3988 
L 628 4550 
Q 988 4650 1302 4700 
Q 1616 4750 1894 4750 
Q 2613 4750 3031 4423 
Q 3450 4097 3450 3541 
Q 3450 3153 3228 2886 
Q 3006 2619 2597 2516 
z
" transform="scale(0.015625)"/>
      <path id="DejaVuSans-2e" d="M 684 794 
L 1344 794 
L 1344 0 
L 684 0 
L 684 794 
z
" transform="scale(0.015625)"/>
      <path id="DejaVuSans-31" d="M 794 531 
L 1825 531 
L 1825 4091 
L 703 3866 
L 703 4441 
L 1819 4666 
L 2450 4666 
L 2450 531 
L 3481 531 
L 3481 0 
L 794 0 
L 794 531 
z
" transform="scale(0.015625)"/>
      <path id="DejaVuSans-3a" d="M 750 794 
L 1409 794 
L 1409 0 
L 750 0 
L 750 794 
z
M 750 3309 
L 1409 3309 
L 1409 2516 
L 750 2516 
L 750 3309 
z
" transform="scale(0.015625)"/>
      <path id="DejaVuSans-49" d="M 628 4666 
L 1259 4666 
L 1259 0 
L 628 0 
L 628 4666 
z
" transform="scale(0.015625)"/>
      <path id="DejaVuSans-6e" d="M 3513 2113 
L 3513 0 
L 2938 0 
L 2938 2094 
Q 2938 2591 2744 2837 
Q 2550 3084 2163 3084 
Q 1697 3084 1428 2787 
Q 1159 2491 1159 1978 
L 1159 0 
L 581 0 
L 581 3500 
L 1159 3500 
L 1159 2956 
Q 1366 3272 1645 3428 
Q 1925 3584 2291 3584 
Q 2894 3584 3203 3211 
Q 3513 2838 3513 2113 
z
" transform="scale(0.015625)"/>
      <path id="DejaVuSans-74" d="M 1172 4494 
L 1172 3500 
L 2356 3500 
L 2356 3053 
L 1172 3053 
L 1172 1153 
Q 1172 725 1289 603 
Q 1406 481 1766 481 
L 2356 481 
L 2356 0 
L 1766 0 
Q 1100 0 847 248 
Q 594 497 594 1153 
L 594 3053 
L 172 3053 
L 172 3500 
L 594 3500 
L 594 4494 
L 1172 4494 
z
" transform="scale(0.015625)"/>
      <path id="DejaVuSans-72" d="M 2631 2963 
Q 2534 3019 2420 3045 
Q 2306 3072 2169 3072 
Q 1681 3072 1420 2755 
Q 1159 2438 1159 1844 
L 1159 0 
L 581 0 
L 581 3500 
L 1159 3500 
L 1159 2956 
Q 1341 3275 1631 3429 
Q 1922 3584 2338 3584 
Q 2397 3584 2469 3576 
Q 2541 3569 2628 3553 
L 2631 2963 
z
" transform="scale(0.015625)"/>
      <path id="DejaVuSans-6f" d="M 1959 3097 
Q 1497 3097 1228 2736 
Q 959 2375 959 1747 
Q 959 1119 1226 758 
Q 1494 397 1959 397 
Q 2419 397 2687 759 
Q 2956 1122 2956 1747 
Q 2956 2369 2687 2733 
Q 2419 3097 1959 3097 
z
M 1959 3584 
Q 2709 3584 3137 3096 
Q 3566 2609 3566 1747 
Q 3566 888 3137 398 
Q 2709 -91 1959 -91 
Q 1206 -91 779 398 
Q 353 888 353 1747 
Q 353 2609 779 3096 
Q 1206 3584 1959 3584 
z
" transform="scale(0.015625)"/>
      <path id="DejaVuSans-64" d="M 2906 2969 
L 2906 4863 
L 3481 4863 
L 3481 0 
L 2906 0 
L 2906 525 
Q 2725 213 2448 61 
Q 2172 -91 1784 -91 
Q 1150 -91 751 415 
Q 353 922 353 1747 
Q 353 2572 751 3078 
Q 1150 3584 1784 3584 
Q 2172 3584 2448 3432 
Q 2725 3281 2906 2969 
z
M 947 1747 
Q 947 1113 1208 752 
Q 1469 391 1925 391 
Q 2381 391 2643 752 
Q 2906 1113 2906 1747 
Q 2906 2381 2643 2742 
Q 2381 3103 1925 3103 
Q 1469 3103 1208 2742 
Q 947 2381 947 1747 
z
" transform="scale(0.015625)"/>
      <path id="DejaVuSans-75" d="M 544 1381 
L 544 3500 
L 1119 3500 
L 1119 1403 
Q 1119 906 1312 657 
Q 1506 409 1894 409 
Q 2359 409 2629 706 
Q 2900 1003 2900 1516 
L 2900 3500 
L 3475 3500 
L 3475 0 
L 2900 0 
L 2900 538 
Q 2691 219 2414 64 
Q 2138 -91 1772 -91 
Q 1169 -91 856 284 
Q 544 659 544 1381 
z
M 1991 3584 
L 1991 3584 
z
" transform="scale(0.015625)"/>
      <path id="DejaVuSans-63" d="M 3122 3366 
L 3122 2828 
Q 2878 2963 2633 3030 
Q 2388 3097 2138 3097 
Q 1578 3097 1268 2742 
Q 959 2388 959 1747 
Q 959 1106 1268 751 
Q 1578 397 2138 397 
Q 2388 397 2633 464 
Q 2878 531 3122 666 
L 3122 134 
Q 2881 22 2623 -34 
Q 2366 -91 2075 -91 
Q 1284 -91 818 406 
Q 353 903 353 1747 
Q 353 2603 823 3093 
Q 1294 3584 2113 3584 
Q 2378 3584 2631 3529 
Q 2884 3475 3122 3366 
z
" transform="scale(0.015625)"/>
      <path id="DejaVuSans-69" d="M 603 3500 
L 1178 3500 
L 1178 0 
L 603 0 
L 603 3500 
z
M 603 4863 
L 1178 4863 
L 1178 4134 
L 603 4134 
L 603 4863 
z
" transform="scale(0.015625)"/>
     </defs>
     <use xlink:href="#DejaVuSans-20"/>
     <use xlink:href="#DejaVuSans-33" transform="translate(31.787109 0)"/>
     <use xlink:href="#DejaVuSans-2e" transform="translate(95.410156 0)"/>
     <use xlink:href="#DejaVuSans-31" transform="translate(127.197266 0)"/>
     <use xlink:href="#DejaVuSans-20" transform="translate(190.820312 0)"/>
     <use xlink:href="#DejaVuSans-3a" transform="translate(222.607422 0)"/>
     <use xlink:href="#DejaVuSans-20" transform="translate(256.298828 0)"/>
     <use xlink:href="#DejaVuSans-49" transform="translate(288.085938 0)"/>
     <use xlink:href="#DejaVuSans-6e" transform="translate(317.578125 0)"/>
     <use xlink:href="#DejaVuSans-74" transform="translate(380.957031 0)"/>
     <use xlink:href="#DejaVuSans-72" transform="translate(420.166016 0)"/>
     <use xlink:href="#DejaVuSans-6f" transform="translate(459.029297 0)"/>
     <use xlink:href="#DejaVuSans-64" transform="translate(520.210938 0)"/>
     <use xlink:href="#DejaVuSans-75" transform="translate(583.6875 0)"/>
     <use xlink:href="#DejaVuSans-63" transform="translate(647.066406 0)"/>
     <use xlink:href="#DejaVuSans-74" transform="translate(702.046875 0)"/>
     <use xlink:href="#DejaVuSans-69" transform="translate(741.255859 0)"/>
     <use xlink:href="#DejaVuSans-6f" transform="translate(769.039062 0)"/>
     <use xlink:href="#DejaVuSans-6e" transform="translate(830.220703 0)"/>
    </g>
    <!--  -->
    <g transform="translate(127.968317 208.739692) scale(0.03 -0.03)"/>
   </g>
   <g id="text_2">
    <!--  3.2 : Model -->
    <g transform="translate(196.899214 205.380349) scale(0.03 -0.03)">
     <defs>
      <path id="DejaVuSans-32" d="M 1228 531 
L 3431 531 
L 3431 0 
L 469 0 
L 469 531 
Q 828 903 1448 1529 
Q 2069 2156 2228 2338 
Q 2531 2678 2651 2914 
Q 2772 3150 2772 3378 
Q 2772 3750 2511 3984 
Q 2250 4219 1831 4219 
Q 1534 4219 1204 4116 
Q 875 4013 500 3803 
L 500 4441 
Q 881 4594 1212 4672 
Q 1544 4750 1819 4750 
Q 2544 4750 2975 4387 
Q 3406 4025 3406 3419 
Q 3406 3131 3298 2873 
Q 3191 2616 2906 2266 
Q 2828 2175 2409 1742 
Q 1991 1309 1228 531 
z
" transform="scale(0.015625)"/>
      <path id="DejaVuSans-4d" d="M 628 4666 
L 1569 4666 
L 2759 1491 
L 3956 4666 
L 4897 4666 
L 4897 0 
L 4281 0 
L 4281 4097 
L 3078 897 
L 2444 897 
L 1241 4097 
L 1241 0 
L 628 0 
L 628 4666 
z
" transform="scale(0.015625)"/>
      <path id="DejaVuSans-65" d="M 3597 1894 
L 3597 1613 
L 953 1613 
Q 991 1019 1311 708 
Q 1631 397 2203 397 
Q 2534 397 2845 478 
Q 3156 559 3463 722 
L 3463 178 
Q 3153 47 2828 -22 
Q 2503 -91 2169 -91 
Q 1331 -91 842 396 
Q 353 884 353 1716 
Q 353 2575 817 3079 
Q 1281 3584 2069 3584 
Q 2775 3584 3186 3129 
Q 3597 2675 3597 1894 
z
M 3022 2063 
Q 3016 2534 2758 2815 
Q 2500 3097 2075 3097 
Q 1594 3097 1305 2825 
Q 1016 2553 972 2059 
L 3022 2063 
z
" transform="scale(0.015625)"/>
      <path id="DejaVuSans-6c" d="M 603 4863 
L 1178 4863 
L 1178 0 
L 603 0 
L 603 4863 
z
" transform="scale(0.015625)"/>
     </defs>
     <use xlink:href="#DejaVuSans-20"/>
     <use xlink:href="#DejaVuSans-33" transform="translate(31.787109 0)"/>
     <use xlink:href="#DejaVuSans-2e" transform="translate(95.410156 0)"/>
     <use xlink:href="#DejaVuSans-32" transform="translate(127.197266 0)"/>
     <use xlink:href="#DejaVuSans-20" transform="translate(190.820312 0)"/>
     <use xlink:href="#DejaVuSans-3a" transform="translate(222.607422 0)"/>
     <use xlink:href="#DejaVuSans-20" transform="translate(256.298828 0)"/>
     <use xlink:href="#DejaVuSans-4d" transform="translate(288.085938 0)"/>
     <use xlink:href="#DejaVuSans-6f" transform="translate(374.365234 0)"/>
     <use xlink:href="#DejaVuSans-64" transform="translate(435.546875 0)"/>
     <use xlink:href="#DejaVuSans-65" transform="translate(499.023438 0)"/>
     <use xlink:href="#DejaVuSans-6c" transform="translate(560.546875 0)"/>
    </g>
    <!--  Equations -->
    <g transform="translate(197.822886 208.739692) scale(0.03 -0.03)">
     <defs>
      <path id="DejaVuSans-45" d="M 628 4666 
L 3578 4666 
L 3578 4134 
L 1259 4134 
L 1259 2753 
L 3481 2753 
L 3481 2222 
L 1259 2222 
L 1259 531 
L 3634 531 
L 3634 0 
L 628 0 
L 628 4666 
z
" transform="scale(0.015625)"/>
      <path id="DejaVuSans-71" d="M 947 1747 
Q 947 1113 1208 752 
Q 1469 391 1925 391 
Q 2381 391 2643 752 
Q 2906 1113 2906 1747 
Q 2906 2381 2643 2742 
Q 2381 3103 1925 3103 
Q 1469 3103 1208 2742 
Q 947 2381 947 1747 
z
M 2906 525 
Q 2725 213 2448 61 
Q 2172 -91 1784 -91 
Q 1150 -91 751 415 
Q 353 922 353 1747 
Q 353 2572 751 3078 
Q 1150 3584 1784 3584 
Q 2172 3584 2448 3432 
Q 2725 3281 2906 2969 
L 2906 3500 
L 3481 3500 
L 3481 -1331 
L 2906 -1331 
L 2906 525 
z
" transform="scale(0.015625)"/>
      <path id="DejaVuSans-61" d="M 2194 1759 
Q 1497 1759 1228 1600 
Q 959 1441 959 1056 
Q 959 750 1161 570 
Q 1363 391 1709 391 
Q 2188 391 2477 730 
Q 2766 1069 2766 1631 
L 2766 1759 
L 2194 1759 
z
M 3341 1997 
L 3341 0 
L 2766 0 
L 2766 531 
Q 2569 213 2275 61 
Q 1981 -91 1556 -91 
Q 1019 -91 701 211 
Q 384 513 384 1019 
Q 384 1609 779 1909 
Q 1175 2209 1959 2209 
L 2766 2209 
L 2766 2266 
Q 2766 2663 2505 2880 
Q 2244 3097 1772 3097 
Q 1472 3097 1187 3025 
Q 903 2953 641 2809 
L 641 3341 
Q 956 3463 1253 3523 
Q 1550 3584 1831 3584 
Q 2591 3584 2966 3190 
Q 3341 2797 3341 1997 
z
" transform="scale(0.015625)"/>
      <path id="DejaVuSans-73" d="M 2834 3397 
L 2834 2853 
Q 2591 2978 2328 3040 
Q 2066 3103 1784 3103 
Q 1356 3103 1142 2972 
Q 928 2841 928 2578 
Q 928 2378 1081 2264 
Q 1234 2150 1697 2047 
L 1894 2003 
Q 2506 1872 2764 1633 
Q 3022 1394 3022 966 
Q 3022 478 2636 193 
Q 2250 -91 1575 -91 
Q 1294 -91 989 -36 
Q 684 19 347 128 
L 347 722 
Q 666 556 975 473 
Q 1284 391 1588 391 
Q 1994 391 2212 530 
Q 2431 669 2431 922 
Q 2431 1156 2273 1281 
Q 2116 1406 1581 1522 
L 1381 1569 
Q 847 1681 609 1914 
Q 372 2147 372 2553 
Q 372 3047 722 3315 
Q 1072 3584 1716 3584 
Q 2034 3584 2315 3537 
Q 2597 3491 2834 3397 
z
" transform="scale(0.015625)"/>
     </defs>
     <use xlink:href="#DejaVuSans-20"/>
     <use xlink:href="#DejaVuSans-45" transform="translate(31.787109 0)"/>
     <use xlink:href="#DejaVuSans-71" transform="translate(94.970703 0)"/>
     <use xlink:href="#DejaVuSans-75" transform="translate(158.447266 0)"/>
     <use xlink:href="#DejaVuSans-61" transform="translate(221.826172 0)"/>
     <use xlink:href="#DejaVuSans-74" transform="translate(283.105469 0)"/>
     <use xlink:href="#DejaVuSans-69" transform="translate(322.314453 0)"/>
     <use xlink:href="#DejaVuSans-6f" transform="translate(350.097656 0)"/>
     <use xlink:href="#DejaVuSans-6e" transform="translate(411.279297 0)"/>
     <use xlink:href="#DejaVuSans-73" transform="translate(474.658203 0)"/>
    </g>
   </g>
   <g id="text_3">
    <!--  3.3 : Discontinuous -->
    <g transform="translate(284.083633 202.012989) scale(0.05 -0.05)">
     <defs>
      <path id="DejaVuSans-44" d="M 1259 4147 
L 1259 519 
L 2022 519 
Q 2988 519 3436 956 
Q 3884 1394 3884 2338 
Q 3884 3275 3436 3711 
Q 2988 4147 2022 4147 
L 1259 4147 
z
M 628 4666 
L 1925 4666 
Q 3281 4666 3915 4102 
Q 4550 3538 4550 2338 
Q 4550 1131 3912 565 
Q 3275 0 1925 0 
L 628 0 
L 628 4666 
z
" transform="scale(0.015625)"/>
     </defs>
     <use xlink:href="#DejaVuSans-20"/>
     <use xlink:href="#DejaVuSans-33" transform="translate(31.787109 0)"/>
     <use xlink:href="#DejaVuSans-2e" transform="translate(95.410156 0)"/>
     <use xlink:href="#DejaVuSans-33" transform="translate(127.197266 0)"/>
     <use xlink:href="#DejaVuSans-20" transform="translate(190.820312 0)"/>
     <use xlink:href="#DejaVuSans-3a" transform="translate(222.607422 0)"/>
     <use xlink:href="#DejaVuSans-20" transform="translate(256.298828 0)"/>
     <use xlink:href="#DejaVuSans-44" transform="translate(288.085938 0)"/>
     <use xlink:href="#DejaVuSans-69" transform="translate(365.087891 0)"/>
     <use xlink:href="#DejaVuSans-73" transform="translate(392.871094 0)"/>
     <use xlink:href="#DejaVuSans-63" transform="translate(444.970703 0)"/>
     <use xlink:href="#DejaVuSans-6f" transform="translate(499.951172 0)"/>
     <use xlink:href="#DejaVuSans-6e" transform="translate(561.132812 0)"/>
     <use xlink:href="#DejaVuSans-74" transform="translate(624.511719 0)"/>
     <use xlink:href="#DejaVuSans-69" transform="translate(663.720703 0)"/>
     <use xlink:href="#DejaVuSans-6e" transform="translate(691.503906 0)"/>
     <use xlink:href="#DejaVuSans-75" transform="translate(754.882812 0)"/>
     <use xlink:href="#DejaVuSans-6f" transform="translate(818.261719 0)"/>
     <use xlink:href="#DejaVuSans-75" transform="translate(879.443359 0)"/>
     <use xlink:href="#DejaVuSans-73" transform="translate(942.822266 0)"/>
    </g>
    <!--  Galerkin Methods -->
    <g transform="translate(286.23129 207.611896) scale(0.05 -0.05)">
     <defs>
      <path id="DejaVuSans-47" d="M 3809 666 
L 3809 1919 
L 2778 1919 
L 2778 2438 
L 4434 2438 
L 4434 434 
Q 4069 175 3628 42 
Q 3188 -91 2688 -91 
Q 1594 -91 976 548 
Q 359 1188 359 2328 
Q 359 3472 976 4111 
Q 1594 4750 2688 4750 
Q 3144 4750 3555 4637 
Q 3966 4525 4313 4306 
L 4313 3634 
Q 3963 3931 3569 4081 
Q 3175 4231 2741 4231 
Q 1884 4231 1454 3753 
Q 1025 3275 1025 2328 
Q 1025 1384 1454 906 
Q 1884 428 2741 428 
Q 3075 428 3337 486 
Q 3600 544 3809 666 
z
" transform="scale(0.015625)"/>
      <path id="DejaVuSans-6b" d="M 581 4863 
L 1159 4863 
L 1159 1991 
L 2875 3500 
L 3609 3500 
L 1753 1863 
L 3688 0 
L 2938 0 
L 1159 1709 
L 1159 0 
L 581 0 
L 581 4863 
z
" transform="scale(0.015625)"/>
      <path id="DejaVuSans-68" d="M 3513 2113 
L 3513 0 
L 2938 0 
L 2938 2094 
Q 2938 2591 2744 2837 
Q 2550 3084 2163 3084 
Q 1697 3084 1428 2787 
Q 1159 2491 1159 1978 
L 1159 0 
L 581 0 
L 581 4863 
L 1159 4863 
L 1159 2956 
Q 1366 3272 1645 3428 
Q 1925 3584 2291 3584 
Q 2894 3584 3203 3211 
Q 3513 2838 3513 2113 
z
" transform="scale(0.015625)"/>
     </defs>
     <use xlink:href="#DejaVuSans-20"/>
     <use xlink:href="#DejaVuSans-47" transform="translate(31.787109 0)"/>
     <use xlink:href="#DejaVuSans-61" transform="translate(109.277344 0)"/>
     <use xlink:href="#DejaVuSans-6c" transform="translate(170.556641 0)"/>
     <use xlink:href="#DejaVuSans-65" transform="translate(198.339844 0)"/>
     <use xlink:href="#DejaVuSans-72" transform="translate(259.863281 0)"/>
     <use xlink:href="#DejaVuSans-6b" transform="translate(300.976562 0)"/>
     <use xlink:href="#DejaVuSans-69" transform="translate(358.886719 0)"/>
     <use xlink:href="#DejaVuSans-6e" transform="translate(386.669922 0)"/>
     <use xlink:href="#DejaVuSans-20" transform="translate(450.048828 0)"/>
     <use xlink:href="#DejaVuSans-4d" transform="translate(481.835938 0)"/>
     <use xlink:href="#DejaVuSans-65" transform="translate(568.115234 0)"/>
     <use xlink:href="#DejaVuSans-74" transform="translate(629.638672 0)"/>
     <use xlink:href="#DejaVuSans-68" transform="translate(668.847656 0)"/>
     <use xlink:href="#DejaVuSans-6f" transform="translate(732.226562 0)"/>
     <use xlink:href="#DejaVuSans-64" transform="translate(793.408203 0)"/>
     <use xlink:href="#DejaVuSans-73" transform="translate(856.884766 0)"/>
    </g>
    <!--  -->
    <g transform="translate(308.955508 213.210802) scale(0.05 -0.05)"/>
   </g>
   <g id="text_4">
    <!--  3.3.1 : Weak -->
    <g transform="translate(27.063093 307.441026) scale(0.03 -0.03)">
     <defs>
      <path id="DejaVuSans-57" d="M 213 4666 
L 850 4666 
L 1831 722 
L 2809 4666 
L 3519 4666 
L 4500 722 
L 5478 4666 
L 6119 4666 
L 4947 0 
L 4153 0 
L 3169 4050 
L 2175 0 
L 1381 0 
L 213 4666 
z
" transform="scale(0.015625)"/>
     </defs>
     <use xlink:href="#DejaVuSans-20"/>
     <use xlink:href="#DejaVuSans-33" transform="translate(31.787109 0)"/>
     <use xlink:href="#DejaVuSans-2e" transform="translate(95.410156 0)"/>
     <use xlink:href="#DejaVuSans-33" transform="translate(127.197266 0)"/>
     <use xlink:href="#DejaVuSans-2e" transform="translate(190.820312 0)"/>
     <use xlink:href="#DejaVuSans-31" transform="translate(222.607422 0)"/>
     <use xlink:href="#DejaVuSans-20" transform="translate(286.230469 0)"/>
     <use xlink:href="#DejaVuSans-3a" transform="translate(318.017578 0)"/>
     <use xlink:href="#DejaVuSans-20" transform="translate(351.708984 0)"/>
     <use xlink:href="#DejaVuSans-57" transform="translate(383.496094 0)"/>
     <use xlink:href="#DejaVuSans-65" transform="translate(476.498047 0)"/>
     <use xlink:href="#DejaVuSans-61" transform="translate(538.021484 0)"/>
     <use xlink:href="#DejaVuSans-6b" transform="translate(599.300781 0)"/>
    </g>
    <!--  Residual Form -->
    <g transform="translate(25.855124 310.80037) scale(0.03 -0.03)">
     <defs>
      <path id="DejaVuSans-52" d="M 2841 2188 
Q 3044 2119 3236 1894 
Q 3428 1669 3622 1275 
L 4263 0 
L 3584 0 
L 2988 1197 
Q 2756 1666 2539 1819 
Q 2322 1972 1947 1972 
L 1259 1972 
L 1259 0 
L 628 0 
L 628 4666 
L 2053 4666 
Q 2853 4666 3247 4331 
Q 3641 3997 3641 3322 
Q 3641 2881 3436 2590 
Q 3231 2300 2841 2188 
z
M 1259 4147 
L 1259 2491 
L 2053 2491 
Q 2509 2491 2742 2702 
Q 2975 2913 2975 3322 
Q 2975 3731 2742 3939 
Q 2509 4147 2053 4147 
L 1259 4147 
z
" transform="scale(0.015625)"/>
      <path id="DejaVuSans-46" d="M 628 4666 
L 3309 4666 
L 3309 4134 
L 1259 4134 
L 1259 2759 
L 3109 2759 
L 3109 2228 
L 1259 2228 
L 1259 0 
L 628 0 
L 628 4666 
z
" transform="scale(0.015625)"/>
      <path id="DejaVuSans-6d" d="M 3328 2828 
Q 3544 3216 3844 3400 
Q 4144 3584 4550 3584 
Q 5097 3584 5394 3201 
Q 5691 2819 5691 2113 
L 5691 0 
L 5113 0 
L 5113 2094 
Q 5113 2597 4934 2840 
Q 4756 3084 4391 3084 
Q 3944 3084 3684 2787 
Q 3425 2491 3425 1978 
L 3425 0 
L 2847 0 
L 2847 2094 
Q 2847 2600 2669 2842 
Q 2491 3084 2119 3084 
Q 1678 3084 1418 2786 
Q 1159 2488 1159 1978 
L 1159 0 
L 581 0 
L 581 3500 
L 1159 3500 
L 1159 2956 
Q 1356 3278 1631 3431 
Q 1906 3584 2284 3584 
Q 2666 3584 2933 3390 
Q 3200 3197 3328 2828 
z
" transform="scale(0.015625)"/>
     </defs>
     <use xlink:href="#DejaVuSans-20"/>
     <use xlink:href="#DejaVuSans-52" transform="translate(31.787109 0)"/>
     <use xlink:href="#DejaVuSans-65" transform="translate(96.769531 0)"/>
     <use xlink:href="#DejaVuSans-73" transform="translate(158.292969 0)"/>
     <use xlink:href="#DejaVuSans-69" transform="translate(210.392578 0)"/>
     <use xlink:href="#DejaVuSans-64" transform="translate(238.175781 0)"/>
     <use xlink:href="#DejaVuSans-75" transform="translate(301.652344 0)"/>
     <use xlink:href="#DejaVuSans-61" transform="translate(365.03125 0)"/>
     <use xlink:href="#DejaVuSans-6c" transform="translate(426.310547 0)"/>
     <use xlink:href="#DejaVuSans-20" transform="translate(454.09375 0)"/>
     <use xlink:href="#DejaVuSans-46" transform="translate(485.880859 0)"/>
     <use xlink:href="#DejaVuSans-6f" transform="translate(539.775391 0)"/>
     <use xlink:href="#DejaVuSans-72" transform="translate(600.957031 0)"/>
     <use xlink:href="#DejaVuSans-6d" transform="translate(640.320312 0)"/>
    </g>
    <!--  -->
    <g transform="translate(36.920905 314.159713) scale(0.03 -0.03)"/>
   </g>
   <g id="text_5">
    <!--  3.3.2 : Basis -->
    <g transform="translate(104.996802 309.120698) scale(0.03 -0.03)">
     <defs>
      <path id="DejaVuSans-42" d="M 1259 2228 
L 1259 519 
L 2272 519 
Q 2781 519 3026 730 
Q 3272 941 3272 1375 
Q 3272 1813 3026 2020 
Q 2781 2228 2272 2228 
L 1259 2228 
z
M 1259 4147 
L 1259 2741 
L 2194 2741 
Q 2656 2741 2882 2914 
Q 3109 3088 3109 3444 
Q 3109 3797 2882 3972 
Q 2656 4147 2194 4147 
L 1259 4147 
z
M 628 4666 
L 2241 4666 
Q 2963 4666 3353 4366 
Q 3744 4066 3744 3513 
Q 3744 3084 3544 2831 
Q 3344 2578 2956 2516 
Q 3422 2416 3680 2098 
Q 3938 1781 3938 1306 
Q 3938 681 3513 340 
Q 3088 0 2303 0 
L 628 0 
L 628 4666 
z
" transform="scale(0.015625)"/>
     </defs>
     <use xlink:href="#DejaVuSans-20"/>
     <use xlink:href="#DejaVuSans-33" transform="translate(31.787109 0)"/>
     <use xlink:href="#DejaVuSans-2e" transform="translate(95.410156 0)"/>
     <use xlink:href="#DejaVuSans-33" transform="translate(127.197266 0)"/>
     <use xlink:href="#DejaVuSans-2e" transform="translate(190.820312 0)"/>
     <use xlink:href="#DejaVuSans-32" transform="translate(222.607422 0)"/>
     <use xlink:href="#DejaVuSans-20" transform="translate(286.230469 0)"/>
     <use xlink:href="#DejaVuSans-3a" transform="translate(318.017578 0)"/>
     <use xlink:href="#DejaVuSans-20" transform="translate(351.708984 0)"/>
     <use xlink:href="#DejaVuSans-42" transform="translate(383.496094 0)"/>
     <use xlink:href="#DejaVuSans-61" transform="translate(452.099609 0)"/>
     <use xlink:href="#DejaVuSans-73" transform="translate(513.378906 0)"/>
     <use xlink:href="#DejaVuSans-69" transform="translate(565.478516 0)"/>
     <use xlink:href="#DejaVuSans-73" transform="translate(593.261719 0)"/>
    </g>
    <!--  Functions -->
    <g transform="translate(107.039146 312.480042) scale(0.03 -0.03)">
     <use xlink:href="#DejaVuSans-20"/>
     <use xlink:href="#DejaVuSans-46" transform="translate(31.787109 0)"/>
     <use xlink:href="#DejaVuSans-75" transform="translate(83.806641 0)"/>
     <use xlink:href="#DejaVuSans-6e" transform="translate(147.185547 0)"/>
     <use xlink:href="#DejaVuSans-63" transform="translate(210.564453 0)"/>
     <use xlink:href="#DejaVuSans-74" transform="translate(265.544922 0)"/>
     <use xlink:href="#DejaVuSans-69" transform="translate(304.753906 0)"/>
     <use xlink:href="#DejaVuSans-6f" transform="translate(332.537109 0)"/>
     <use xlink:href="#DejaVuSans-6e" transform="translate(393.71875 0)"/>
     <use xlink:href="#DejaVuSans-73" transform="translate(457.097656 0)"/>
    </g>
   </g>
   <g id="text_6">
    <!--  3.3.3 : Numerical -->
    <g transform="translate(179.029575 307.441026) scale(0.03 -0.03)">
     <defs>
      <path id="DejaVuSans-4e" d="M 628 4666 
L 1478 4666 
L 3547 763 
L 3547 4666 
L 4159 4666 
L 4159 0 
L 3309 0 
L 1241 3903 
L 1241 0 
L 628 0 
L 628 4666 
z
" transform="scale(0.015625)"/>
     </defs>
     <use xlink:href="#DejaVuSans-20"/>
     <use xlink:href="#DejaVuSans-33" transform="translate(31.787109 0)"/>
     <use xlink:href="#DejaVuSans-2e" transform="translate(95.410156 0)"/>
     <use xlink:href="#DejaVuSans-33" transform="translate(127.197266 0)"/>
     <use xlink:href="#DejaVuSans-2e" transform="translate(190.820312 0)"/>
     <use xlink:href="#DejaVuSans-33" transform="translate(222.607422 0)"/>
     <use xlink:href="#DejaVuSans-20" transform="translate(286.230469 0)"/>
     <use xlink:href="#DejaVuSans-3a" transform="translate(318.017578 0)"/>
     <use xlink:href="#DejaVuSans-20" transform="translate(351.708984 0)"/>
     <use xlink:href="#DejaVuSans-4e" transform="translate(383.496094 0)"/>
     <use xlink:href="#DejaVuSans-75" transform="translate(458.300781 0)"/>
     <use xlink:href="#DejaVuSans-6d" transform="translate(521.679688 0)"/>
     <use xlink:href="#DejaVuSans-65" transform="translate(619.091797 0)"/>
     <use xlink:href="#DejaVuSans-72" transform="translate(680.615234 0)"/>
     <use xlink:href="#DejaVuSans-69" transform="translate(721.728516 0)"/>
     <use xlink:href="#DejaVuSans-63" transform="translate(749.511719 0)"/>
     <use xlink:href="#DejaVuSans-61" transform="translate(804.492188 0)"/>
     <use xlink:href="#DejaVuSans-6c" transform="translate(865.771484 0)"/>
    </g>
    <!--  Integration -->
    <g transform="translate(183.690356 310.80037) scale(0.03 -0.03)">
     <defs>
      <path id="DejaVuSans-67" d="M 2906 1791 
Q 2906 2416 2648 2759 
Q 2391 3103 1925 3103 
Q 1463 3103 1205 2759 
Q 947 2416 947 1791 
Q 947 1169 1205 825 
Q 1463 481 1925 481 
Q 2391 481 2648 825 
Q 2906 1169 2906 1791 
z
M 3481 434 
Q 3481 -459 3084 -895 
Q 2688 -1331 1869 -1331 
Q 1566 -1331 1297 -1286 
Q 1028 -1241 775 -1147 
L 775 -588 
Q 1028 -725 1275 -790 
Q 1522 -856 1778 -856 
Q 2344 -856 2625 -561 
Q 2906 -266 2906 331 
L 2906 616 
Q 2728 306 2450 153 
Q 2172 0 1784 0 
Q 1141 0 747 490 
Q 353 981 353 1791 
Q 353 2603 747 3093 
Q 1141 3584 1784 3584 
Q 2172 3584 2450 3431 
Q 2728 3278 2906 2969 
L 2906 3500 
L 3481 3500 
L 3481 434 
z
" transform="scale(0.015625)"/>
     </defs>
     <use xlink:href="#DejaVuSans-20"/>
     <use xlink:href="#DejaVuSans-49" transform="translate(31.787109 0)"/>
     <use xlink:href="#DejaVuSans-6e" transform="translate(61.279297 0)"/>
     <use xlink:href="#DejaVuSans-74" transform="translate(124.658203 0)"/>
     <use xlink:href="#DejaVuSans-65" transform="translate(163.867188 0)"/>
     <use xlink:href="#DejaVuSans-67" transform="translate(225.390625 0)"/>
     <use xlink:href="#DejaVuSans-72" transform="translate(288.867188 0)"/>
     <use xlink:href="#DejaVuSans-61" transform="translate(329.980469 0)"/>
     <use xlink:href="#DejaVuSans-74" transform="translate(391.259766 0)"/>
     <use xlink:href="#DejaVuSans-69" transform="translate(430.46875 0)"/>
     <use xlink:href="#DejaVuSans-6f" transform="translate(458.251953 0)"/>
     <use xlink:href="#DejaVuSans-6e" transform="translate(519.433594 0)"/>
    </g>
    <!--  -->
    <g transform="translate(192.432543 314.159713) scale(0.03 -0.03)"/>
   </g>
   <g id="text_7">
    <!--  3.3.4 : Evaluating -->
    <g transform="translate(256.487268 307.441026) scale(0.03 -0.03)">
     <defs>
      <path id="DejaVuSans-34" d="M 2419 4116 
L 825 1625 
L 2419 1625 
L 2419 4116 
z
M 2253 4666 
L 3047 4666 
L 3047 1625 
L 3713 1625 
L 3713 1100 
L 3047 1100 
L 3047 0 
L 2419 0 
L 2419 1100 
L 313 1100 
L 313 1709 
L 2253 4666 
z
" transform="scale(0.015625)"/>
      <path id="DejaVuSans-76" d="M 191 3500 
L 800 3500 
L 1894 563 
L 2988 3500 
L 3597 3500 
L 2284 0 
L 1503 0 
L 191 3500 
z
" transform="scale(0.015625)"/>
     </defs>
     <use xlink:href="#DejaVuSans-20"/>
     <use xlink:href="#DejaVuSans-33" transform="translate(31.787109 0)"/>
     <use xlink:href="#DejaVuSans-2e" transform="translate(95.410156 0)"/>
     <use xlink:href="#DejaVuSans-33" transform="translate(127.197266 0)"/>
     <use xlink:href="#DejaVuSans-2e" transform="translate(190.820312 0)"/>
     <use xlink:href="#DejaVuSans-34" transform="translate(222.607422 0)"/>
     <use xlink:href="#DejaVuSans-20" transform="translate(286.230469 0)"/>
     <use xlink:href="#DejaVuSans-3a" transform="translate(318.017578 0)"/>
     <use xlink:href="#DejaVuSans-20" transform="translate(351.708984 0)"/>
     <use xlink:href="#DejaVuSans-45" transform="translate(383.496094 0)"/>
     <use xlink:href="#DejaVuSans-76" transform="translate(446.679688 0)"/>
     <use xlink:href="#DejaVuSans-61" transform="translate(505.859375 0)"/>
     <use xlink:href="#DejaVuSans-6c" transform="translate(567.138672 0)"/>
     <use xlink:href="#DejaVuSans-75" transform="translate(594.921875 0)"/>
     <use xlink:href="#DejaVuSans-61" transform="translate(658.300781 0)"/>
     <use xlink:href="#DejaVuSans-74" transform="translate(719.580078 0)"/>
     <use xlink:href="#DejaVuSans-69" transform="translate(758.789062 0)"/>
     <use xlink:href="#DejaVuSans-6e" transform="translate(786.572266 0)"/>
     <use xlink:href="#DejaVuSans-67" transform="translate(849.951172 0)"/>
    </g>
    <!--  the Interface -->
    <g transform="translate(260.057503 310.80037) scale(0.03 -0.03)">
     <defs>
      <path id="DejaVuSans-66" d="M 2375 4863 
L 2375 4384 
L 1825 4384 
Q 1516 4384 1395 4259 
Q 1275 4134 1275 3809 
L 1275 3500 
L 2222 3500 
L 2222 3053 
L 1275 3053 
L 1275 0 
L 697 0 
L 697 3053 
L 147 3053 
L 147 3500 
L 697 3500 
L 697 3744 
Q 697 4328 969 4595 
Q 1241 4863 1831 4863 
L 2375 4863 
z
" transform="scale(0.015625)"/>
     </defs>
     <use xlink:href="#DejaVuSans-20"/>
     <use xlink:href="#DejaVuSans-74" transform="translate(31.787109 0)"/>
     <use xlink:href="#DejaVuSans-68" transform="translate(70.996094 0)"/>
     <use xlink:href="#DejaVuSans-65" transform="translate(134.375 0)"/>
     <use xlink:href="#DejaVuSans-20" transform="translate(195.898438 0)"/>
     <use xlink:href="#DejaVuSans-49" transform="translate(227.685547 0)"/>
     <use xlink:href="#DejaVuSans-6e" transform="translate(257.177734 0)"/>
     <use xlink:href="#DejaVuSans-74" transform="translate(320.556641 0)"/>
     <use xlink:href="#DejaVuSans-65" transform="translate(359.765625 0)"/>
     <use xlink:href="#DejaVuSans-72" transform="translate(421.289062 0)"/>
     <use xlink:href="#DejaVuSans-66" transform="translate(462.402344 0)"/>
     <use xlink:href="#DejaVuSans-61" transform="translate(497.607422 0)"/>
     <use xlink:href="#DejaVuSans-63" transform="translate(558.886719 0)"/>
     <use xlink:href="#DejaVuSans-65" transform="translate(613.867188 0)"/>
    </g>
    <!--  Flux -->
    <g transform="translate(266.593753 314.159713) scale(0.03 -0.03)">
     <defs>
      <path id="DejaVuSans-78" d="M 3513 3500 
L 2247 1797 
L 3578 0 
L 2900 0 
L 1881 1375 
L 863 0 
L 184 0 
L 1544 1831 
L 300 3500 
L 978 3500 
L 1906 2253 
L 2834 3500 
L 3513 3500 
z
" transform="scale(0.015625)"/>
     </defs>
     <use xlink:href="#DejaVuSans-20"/>
     <use xlink:href="#DejaVuSans-46" transform="translate(31.787109 0)"/>
     <use xlink:href="#DejaVuSans-6c" transform="translate(89.306641 0)"/>
     <use xlink:href="#DejaVuSans-75" transform="translate(117.089844 0)"/>
     <use xlink:href="#DejaVuSans-78" transform="translate(180.46875 0)"/>
    </g>
   </g>
   <g id="text_8">
    <!--  3.3.5 : Velocity -->
    <g transform="translate(336.307462 307.441026) scale(0.03 -0.03)">
     <defs>
      <path id="DejaVuSans-35" d="M 691 4666 
L 3169 4666 
L 3169 4134 
L 1269 4134 
L 1269 2991 
Q 1406 3038 1543 3061 
Q 1681 3084 1819 3084 
Q 2600 3084 3056 2656 
Q 3513 2228 3513 1497 
Q 3513 744 3044 326 
Q 2575 -91 1722 -91 
Q 1428 -91 1123 -41 
Q 819 9 494 109 
L 494 744 
Q 775 591 1075 516 
Q 1375 441 1709 441 
Q 2250 441 2565 725 
Q 2881 1009 2881 1497 
Q 2881 1984 2565 2268 
Q 2250 2553 1709 2553 
Q 1456 2553 1204 2497 
Q 953 2441 691 2322 
L 691 4666 
z
" transform="scale(0.015625)"/>
      <path id="DejaVuSans-56" d="M 1831 0 
L 50 4666 
L 709 4666 
L 2188 738 
L 3669 4666 
L 4325 4666 
L 2547 0 
L 1831 0 
z
" transform="scale(0.015625)"/>
      <path id="DejaVuSans-79" d="M 2059 -325 
Q 1816 -950 1584 -1140 
Q 1353 -1331 966 -1331 
L 506 -1331 
L 506 -850 
L 844 -850 
Q 1081 -850 1212 -737 
Q 1344 -625 1503 -206 
L 1606 56 
L 191 3500 
L 800 3500 
L 1894 763 
L 2988 3500 
L 3597 3500 
L 2059 -325 
z
" transform="scale(0.015625)"/>
     </defs>
     <use xlink:href="#DejaVuSans-20"/>
     <use xlink:href="#DejaVuSans-33" transform="translate(31.787109 0)"/>
     <use xlink:href="#DejaVuSans-2e" transform="translate(95.410156 0)"/>
     <use xlink:href="#DejaVuSans-33" transform="translate(127.197266 0)"/>
     <use xlink:href="#DejaVuSans-2e" transform="translate(190.820312 0)"/>
     <use xlink:href="#DejaVuSans-35" transform="translate(222.607422 0)"/>
     <use xlink:href="#DejaVuSans-20" transform="translate(286.230469 0)"/>
     <use xlink:href="#DejaVuSans-3a" transform="translate(318.017578 0)"/>
     <use xlink:href="#DejaVuSans-20" transform="translate(351.708984 0)"/>
     <use xlink:href="#DejaVuSans-56" transform="translate(383.496094 0)"/>
     <use xlink:href="#DejaVuSans-65" transform="translate(444.154297 0)"/>
     <use xlink:href="#DejaVuSans-6c" transform="translate(505.677734 0)"/>
     <use xlink:href="#DejaVuSans-6f" transform="translate(533.460938 0)"/>
     <use xlink:href="#DejaVuSans-63" transform="translate(594.642578 0)"/>
     <use xlink:href="#DejaVuSans-69" transform="translate(649.623047 0)"/>
     <use xlink:href="#DejaVuSans-74" transform="translate(677.40625 0)"/>
     <use xlink:href="#DejaVuSans-79" transform="translate(716.615234 0)"/>
    </g>
    <!--  Interpolation -->
    <g transform="translate(337.867462 310.80037) scale(0.03 -0.03)">
     <defs>
      <path id="DejaVuSans-70" d="M 1159 525 
L 1159 -1331 
L 581 -1331 
L 581 3500 
L 1159 3500 
L 1159 2969 
Q 1341 3281 1617 3432 
Q 1894 3584 2278 3584 
Q 2916 3584 3314 3078 
Q 3713 2572 3713 1747 
Q 3713 922 3314 415 
Q 2916 -91 2278 -91 
Q 1894 -91 1617 61 
Q 1341 213 1159 525 
z
M 3116 1747 
Q 3116 2381 2855 2742 
Q 2594 3103 2138 3103 
Q 1681 3103 1420 2742 
Q 1159 2381 1159 1747 
Q 1159 1113 1420 752 
Q 1681 391 2138 391 
Q 2594 391 2855 752 
Q 3116 1113 3116 1747 
z
" transform="scale(0.015625)"/>
     </defs>
     <use xlink:href="#DejaVuSans-20"/>
     <use xlink:href="#DejaVuSans-49" transform="translate(31.787109 0)"/>
     <use xlink:href="#DejaVuSans-6e" transform="translate(61.279297 0)"/>
     <use xlink:href="#DejaVuSans-74" transform="translate(124.658203 0)"/>
     <use xlink:href="#DejaVuSans-65" transform="translate(163.867188 0)"/>
     <use xlink:href="#DejaVuSans-72" transform="translate(225.390625 0)"/>
     <use xlink:href="#DejaVuSans-70" transform="translate(266.503906 0)"/>
     <use xlink:href="#DejaVuSans-6f" transform="translate(329.980469 0)"/>
     <use xlink:href="#DejaVuSans-6c" transform="translate(391.162109 0)"/>
     <use xlink:href="#DejaVuSans-61" transform="translate(418.945312 0)"/>
     <use xlink:href="#DejaVuSans-74" transform="translate(480.224609 0)"/>
     <use xlink:href="#DejaVuSans-69" transform="translate(519.433594 0)"/>
     <use xlink:href="#DejaVuSans-6f" transform="translate(547.216797 0)"/>
     <use xlink:href="#DejaVuSans-6e" transform="translate(608.398438 0)"/>
    </g>
    <!--  -->
    <g transform="translate(347.944181 314.159713) scale(0.03 -0.03)"/>
   </g>
   <g id="text_9">
    <!--  3.3.6 : Limiters -->
    <g transform="translate(413.908594 309.120698) scale(0.03 -0.03)">
     <defs>
      <path id="DejaVuSans-36" d="M 2113 2584 
Q 1688 2584 1439 2293 
Q 1191 2003 1191 1497 
Q 1191 994 1439 701 
Q 1688 409 2113 409 
Q 2538 409 2786 701 
Q 3034 994 3034 1497 
Q 3034 2003 2786 2293 
Q 2538 2584 2113 2584 
z
M 3366 4563 
L 3366 3988 
Q 3128 4100 2886 4159 
Q 2644 4219 2406 4219 
Q 1781 4219 1451 3797 
Q 1122 3375 1075 2522 
Q 1259 2794 1537 2939 
Q 1816 3084 2150 3084 
Q 2853 3084 3261 2657 
Q 3669 2231 3669 1497 
Q 3669 778 3244 343 
Q 2819 -91 2113 -91 
Q 1303 -91 875 529 
Q 447 1150 447 2328 
Q 447 3434 972 4092 
Q 1497 4750 2381 4750 
Q 2619 4750 2861 4703 
Q 3103 4656 3366 4563 
z
" transform="scale(0.015625)"/>
      <path id="DejaVuSans-4c" d="M 628 4666 
L 1259 4666 
L 1259 531 
L 3531 531 
L 3531 0 
L 628 0 
L 628 4666 
z
" transform="scale(0.015625)"/>
     </defs>
     <use xlink:href="#DejaVuSans-20"/>
     <use xlink:href="#DejaVuSans-33" transform="translate(31.787109 0)"/>
     <use xlink:href="#DejaVuSans-2e" transform="translate(95.410156 0)"/>
     <use xlink:href="#DejaVuSans-33" transform="translate(127.197266 0)"/>
     <use xlink:href="#DejaVuSans-2e" transform="translate(190.820312 0)"/>
     <use xlink:href="#DejaVuSans-36" transform="translate(222.607422 0)"/>
     <use xlink:href="#DejaVuSans-20" transform="translate(286.230469 0)"/>
     <use xlink:href="#DejaVuSans-3a" transform="translate(318.017578 0)"/>
     <use xlink:href="#DejaVuSans-20" transform="translate(351.708984 0)"/>
     <use xlink:href="#DejaVuSans-4c" transform="translate(383.496094 0)"/>
     <use xlink:href="#DejaVuSans-69" transform="translate(439.208984 0)"/>
     <use xlink:href="#DejaVuSans-6d" transform="translate(466.992188 0)"/>
     <use xlink:href="#DejaVuSans-69" transform="translate(564.404297 0)"/>
     <use xlink:href="#DejaVuSans-74" transform="translate(592.1875 0)"/>
     <use xlink:href="#DejaVuSans-65" transform="translate(631.396484 0)"/>
     <use xlink:href="#DejaVuSans-72" transform="translate(692.919922 0)"/>
     <use xlink:href="#DejaVuSans-73" transform="translate(734.033203 0)"/>
    </g>
    <!--  -->
    <g transform="translate(425.7 312.480042) scale(0.03 -0.03)"/>
   </g>
   <g id="text_10">
    <!--  3.4 : Numerical -->
    <g transform="translate(561.258513 204.812442) scale(0.05 -0.05)">
     <use xlink:href="#DejaVuSans-20"/>
     <use xlink:href="#DejaVuSans-33" transform="translate(31.787109 0)"/>
     <use xlink:href="#DejaVuSans-2e" transform="translate(95.410156 0)"/>
     <use xlink:href="#DejaVuSans-34" transform="translate(127.197266 0)"/>
     <use xlink:href="#DejaVuSans-20" transform="translate(190.820312 0)"/>
     <use xlink:href="#DejaVuSans-3a" transform="translate(222.607422 0)"/>
     <use xlink:href="#DejaVuSans-20" transform="translate(256.298828 0)"/>
     <use xlink:href="#DejaVuSans-4e" transform="translate(288.085938 0)"/>
     <use xlink:href="#DejaVuSans-75" transform="translate(362.890625 0)"/>
     <use xlink:href="#DejaVuSans-6d" transform="translate(426.269531 0)"/>
     <use xlink:href="#DejaVuSans-65" transform="translate(523.681641 0)"/>
     <use xlink:href="#DejaVuSans-72" transform="translate(585.205078 0)"/>
     <use xlink:href="#DejaVuSans-69" transform="translate(626.318359 0)"/>
     <use xlink:href="#DejaVuSans-63" transform="translate(654.101562 0)"/>
     <use xlink:href="#DejaVuSans-61" transform="translate(709.082031 0)"/>
     <use xlink:href="#DejaVuSans-6c" transform="translate(770.361328 0)"/>
    </g>
    <!--  Examples -->
    <g transform="translate(568.268278 210.411349) scale(0.05 -0.05)">
     <use xlink:href="#DejaVuSans-20"/>
     <use xlink:href="#DejaVuSans-45" transform="translate(31.787109 0)"/>
     <use xlink:href="#DejaVuSans-78" transform="translate(94.970703 0)"/>
     <use xlink:href="#DejaVuSans-61" transform="translate(154.150391 0)"/>
     <use xlink:href="#DejaVuSans-6d" transform="translate(215.429688 0)"/>
     <use xlink:href="#DejaVuSans-70" transform="translate(312.841797 0)"/>
     <use xlink:href="#DejaVuSans-6c" transform="translate(376.318359 0)"/>
     <use xlink:href="#DejaVuSans-65" transform="translate(404.101562 0)"/>
     <use xlink:href="#DejaVuSans-73" transform="translate(465.625 0)"/>
    </g>
   </g>
   <g id="text_11">
    <!--  3.4.1 : 1D -->
    <g transform="translate(495.594413 305.761354) scale(0.03 -0.03)">
     <use xlink:href="#DejaVuSans-20"/>
     <use xlink:href="#DejaVuSans-33" transform="translate(31.787109 0)"/>
     <use xlink:href="#DejaVuSans-2e" transform="translate(95.410156 0)"/>
     <use xlink:href="#DejaVuSans-34" transform="translate(127.197266 0)"/>
     <use xlink:href="#DejaVuSans-2e" transform="translate(190.820312 0)"/>
     <use xlink:href="#DejaVuSans-31" transform="translate(222.607422 0)"/>
     <use xlink:href="#DejaVuSans-20" transform="translate(286.230469 0)"/>
     <use xlink:href="#DejaVuSans-3a" transform="translate(318.017578 0)"/>
     <use xlink:href="#DejaVuSans-20" transform="translate(351.708984 0)"/>
     <use xlink:href="#DejaVuSans-31" transform="translate(383.496094 0)"/>
     <use xlink:href="#DejaVuSans-44" transform="translate(447.119141 0)"/>
    </g>
    <!--  Buckley-Leverett -->
    <g transform="translate(490.338319 309.120698) scale(0.03 -0.03)">
     <defs>
      <path id="DejaVuSans-2d" d="M 313 2009 
L 1997 2009 
L 1997 1497 
L 313 1497 
L 313 2009 
z
" transform="scale(0.015625)"/>
     </defs>
     <use xlink:href="#DejaVuSans-20"/>
     <use xlink:href="#DejaVuSans-42" transform="translate(31.787109 0)"/>
     <use xlink:href="#DejaVuSans-75" transform="translate(100.390625 0)"/>
     <use xlink:href="#DejaVuSans-63" transform="translate(163.769531 0)"/>
     <use xlink:href="#DejaVuSans-6b" transform="translate(218.75 0)"/>
     <use xlink:href="#DejaVuSans-6c" transform="translate(276.660156 0)"/>
     <use xlink:href="#DejaVuSans-65" transform="translate(304.443359 0)"/>
     <use xlink:href="#DejaVuSans-79" transform="translate(365.966797 0)"/>
     <use xlink:href="#DejaVuSans-2d" transform="translate(423.396484 0)"/>
     <use xlink:href="#DejaVuSans-4c" transform="translate(459.480469 0)"/>
     <use xlink:href="#DejaVuSans-65" transform="translate(513.443359 0)"/>
     <use xlink:href="#DejaVuSans-76" transform="translate(574.966797 0)"/>
     <use xlink:href="#DejaVuSans-65" transform="translate(634.146484 0)"/>
     <use xlink:href="#DejaVuSans-72" transform="translate(695.669922 0)"/>
     <use xlink:href="#DejaVuSans-65" transform="translate(734.533203 0)"/>
     <use xlink:href="#DejaVuSans-74" transform="translate(796.056641 0)"/>
     <use xlink:href="#DejaVuSans-74" transform="translate(835.265625 0)"/>
    </g>
    <!--  Displacement -->
    <g transform="translate(492.667303 312.480042) scale(0.03 -0.03)">
     <use xlink:href="#DejaVuSans-20"/>
     <use xlink:href="#DejaVuSans-44" transform="translate(31.787109 0)"/>
     <use xlink:href="#DejaVuSans-69" transform="translate(108.789062 0)"/>
     <use xlink:href="#DejaVuSans-73" transform="translate(136.572266 0)"/>
     <use xlink:href="#DejaVuSans-70" transform="translate(188.671875 0)"/>
     <use xlink:href="#DejaVuSans-6c" transform="translate(252.148438 0)"/>
     <use xlink:href="#DejaVuSans-61" transform="translate(279.931641 0)"/>
     <use xlink:href="#DejaVuSans-63" transform="translate(341.210938 0)"/>
     <use xlink:href="#DejaVuSans-65" transform="translate(396.191406 0)"/>
     <use xlink:href="#DejaVuSans-6d" transform="translate(457.714844 0)"/>
     <use xlink:href="#DejaVuSans-65" transform="translate(555.126953 0)"/>
     <use xlink:href="#DejaVuSans-6e" transform="translate(616.650391 0)"/>
     <use xlink:href="#DejaVuSans-74" transform="translate(680.029297 0)"/>
    </g>
    <!--  -->
    <g transform="translate(503.455819 315.839385) scale(0.03 -0.03)"/>
   </g>
   <g id="text_12">
    <!--  3.4.2 : Smearing -->
    <g transform="translate(568.26781 307.441026) scale(0.03 -0.03)">
     <defs>
      <path id="DejaVuSans-53" d="M 3425 4513 
L 3425 3897 
Q 3066 4069 2747 4153 
Q 2428 4238 2131 4238 
Q 1616 4238 1336 4038 
Q 1056 3838 1056 3469 
Q 1056 3159 1242 3001 
Q 1428 2844 1947 2747 
L 2328 2669 
Q 3034 2534 3370 2195 
Q 3706 1856 3706 1288 
Q 3706 609 3251 259 
Q 2797 -91 1919 -91 
Q 1588 -91 1214 -16 
Q 841 59 441 206 
L 441 856 
Q 825 641 1194 531 
Q 1563 422 1919 422 
Q 2459 422 2753 634 
Q 3047 847 3047 1241 
Q 3047 1584 2836 1778 
Q 2625 1972 2144 2069 
L 1759 2144 
Q 1053 2284 737 2584 
Q 422 2884 422 3419 
Q 422 4038 858 4394 
Q 1294 4750 2059 4750 
Q 2388 4750 2728 4690 
Q 3069 4631 3425 4513 
z
" transform="scale(0.015625)"/>
     </defs>
     <use xlink:href="#DejaVuSans-20"/>
     <use xlink:href="#DejaVuSans-33" transform="translate(31.787109 0)"/>
     <use xlink:href="#DejaVuSans-2e" transform="translate(95.410156 0)"/>
     <use xlink:href="#DejaVuSans-34" transform="translate(127.197266 0)"/>
     <use xlink:href="#DejaVuSans-2e" transform="translate(190.820312 0)"/>
     <use xlink:href="#DejaVuSans-32" transform="translate(222.607422 0)"/>
     <use xlink:href="#DejaVuSans-20" transform="translate(286.230469 0)"/>
     <use xlink:href="#DejaVuSans-3a" transform="translate(318.017578 0)"/>
     <use xlink:href="#DejaVuSans-20" transform="translate(351.708984 0)"/>
     <use xlink:href="#DejaVuSans-53" transform="translate(383.496094 0)"/>
     <use xlink:href="#DejaVuSans-6d" transform="translate(446.972656 0)"/>
     <use xlink:href="#DejaVuSans-65" transform="translate(544.384766 0)"/>
     <use xlink:href="#DejaVuSans-61" transform="translate(605.908203 0)"/>
     <use xlink:href="#DejaVuSans-72" transform="translate(667.1875 0)"/>
     <use xlink:href="#DejaVuSans-69" transform="translate(708.300781 0)"/>
     <use xlink:href="#DejaVuSans-6e" transform="translate(736.083984 0)"/>
     <use xlink:href="#DejaVuSans-67" transform="translate(799.462891 0)"/>
    </g>
    <!--  of Trailing -->
    <g transform="translate(573.428513 310.80037) scale(0.03 -0.03)">
     <defs>
      <path id="DejaVuSans-54" d="M -19 4666 
L 3928 4666 
L 3928 4134 
L 2272 4134 
L 2272 0 
L 1638 0 
L 1638 4134 
L -19 4134 
L -19 4666 
z
" transform="scale(0.015625)"/>
     </defs>
     <use xlink:href="#DejaVuSans-20"/>
     <use xlink:href="#DejaVuSans-6f" transform="translate(31.787109 0)"/>
     <use xlink:href="#DejaVuSans-66" transform="translate(92.96875 0)"/>
     <use xlink:href="#DejaVuSans-20" transform="translate(128.173828 0)"/>
     <use xlink:href="#DejaVuSans-54" transform="translate(159.960938 0)"/>
     <use xlink:href="#DejaVuSans-72" transform="translate(206.294922 0)"/>
     <use xlink:href="#DejaVuSans-61" transform="translate(247.408203 0)"/>
     <use xlink:href="#DejaVuSans-69" transform="translate(308.6875 0)"/>
     <use xlink:href="#DejaVuSans-6c" transform="translate(336.470703 0)"/>
     <use xlink:href="#DejaVuSans-69" transform="translate(364.253906 0)"/>
     <use xlink:href="#DejaVuSans-6e" transform="translate(392.037109 0)"/>
     <use xlink:href="#DejaVuSans-67" transform="translate(455.416016 0)"/>
    </g>
    <!--  Waves -->
    <g transform="translate(575.836013 314.159713) scale(0.03 -0.03)">
     <use xlink:href="#DejaVuSans-20"/>
     <use xlink:href="#DejaVuSans-57" transform="translate(31.787109 0)"/>
     <use xlink:href="#DejaVuSans-61" transform="translate(124.289062 0)"/>
     <use xlink:href="#DejaVuSans-76" transform="translate(185.568359 0)"/>
     <use xlink:href="#DejaVuSans-65" transform="translate(244.748047 0)"/>
     <use xlink:href="#DejaVuSans-73" transform="translate(306.271484 0)"/>
    </g>
   </g>
   <g id="text_13">
    <!--  3.4.3 : Inverted -->
    <g transform="translate(646.931597 304.081682) scale(0.03 -0.03)">
     <use xlink:href="#DejaVuSans-20"/>
     <use xlink:href="#DejaVuSans-33" transform="translate(31.787109 0)"/>
     <use xlink:href="#DejaVuSans-2e" transform="translate(95.410156 0)"/>
     <use xlink:href="#DejaVuSans-34" transform="translate(127.197266 0)"/>
     <use xlink:href="#DejaVuSans-2e" transform="translate(190.820312 0)"/>
     <use xlink:href="#DejaVuSans-33" transform="translate(222.607422 0)"/>
     <use xlink:href="#DejaVuSans-20" transform="translate(286.230469 0)"/>
     <use xlink:href="#DejaVuSans-3a" transform="translate(318.017578 0)"/>
     <use xlink:href="#DejaVuSans-20" transform="translate(351.708984 0)"/>
     <use xlink:href="#DejaVuSans-49" transform="translate(383.496094 0)"/>
     <use xlink:href="#DejaVuSans-6e" transform="translate(412.988281 0)"/>
     <use xlink:href="#DejaVuSans-76" transform="translate(476.367188 0)"/>
     <use xlink:href="#DejaVuSans-65" transform="translate(535.546875 0)"/>
     <use xlink:href="#DejaVuSans-72" transform="translate(597.070312 0)"/>
     <use xlink:href="#DejaVuSans-74" transform="translate(638.183594 0)"/>
     <use xlink:href="#DejaVuSans-65" transform="translate(677.392578 0)"/>
     <use xlink:href="#DejaVuSans-64" transform="translate(738.916016 0)"/>
    </g>
    <!--  Five-Spot Pattern -->
    <g transform="translate(645.684722 307.441026) scale(0.03 -0.03)">
     <defs>
      <path id="DejaVuSans-50" d="M 1259 4147 
L 1259 2394 
L 2053 2394 
Q 2494 2394 2734 2622 
Q 2975 2850 2975 3272 
Q 2975 3691 2734 3919 
Q 2494 4147 2053 4147 
L 1259 4147 
z
M 628 4666 
L 2053 4666 
Q 2838 4666 3239 4311 
Q 3641 3956 3641 3272 
Q 3641 2581 3239 2228 
Q 2838 1875 2053 1875 
L 1259 1875 
L 1259 0 
L 628 0 
L 628 4666 
z
" transform="scale(0.015625)"/>
     </defs>
     <use xlink:href="#DejaVuSans-20"/>
     <use xlink:href="#DejaVuSans-46" transform="translate(31.787109 0)"/>
     <use xlink:href="#DejaVuSans-69" transform="translate(82.056641 0)"/>
     <use xlink:href="#DejaVuSans-76" transform="translate(109.839844 0)"/>
     <use xlink:href="#DejaVuSans-65" transform="translate(169.019531 0)"/>
     <use xlink:href="#DejaVuSans-2d" transform="translate(230.542969 0)"/>
     <use xlink:href="#DejaVuSans-53" transform="translate(266.626953 0)"/>
     <use xlink:href="#DejaVuSans-70" transform="translate(330.103516 0)"/>
     <use xlink:href="#DejaVuSans-6f" transform="translate(393.580078 0)"/>
     <use xlink:href="#DejaVuSans-74" transform="translate(454.761719 0)"/>
     <use xlink:href="#DejaVuSans-20" transform="translate(493.970703 0)"/>
     <use xlink:href="#DejaVuSans-50" transform="translate(525.757812 0)"/>
     <use xlink:href="#DejaVuSans-61" transform="translate(581.560547 0)"/>
     <use xlink:href="#DejaVuSans-74" transform="translate(642.839844 0)"/>
     <use xlink:href="#DejaVuSans-74" transform="translate(682.048828 0)"/>
     <use xlink:href="#DejaVuSans-65" transform="translate(721.257812 0)"/>
     <use xlink:href="#DejaVuSans-72" transform="translate(782.78125 0)"/>
     <use xlink:href="#DejaVuSans-6e" transform="translate(822.144531 0)"/>
    </g>
    <!--  on a Perpendicular -->
    <g transform="translate(644.437144 310.80037) scale(0.03 -0.03)">
     <use xlink:href="#DejaVuSans-20"/>
     <use xlink:href="#DejaVuSans-6f" transform="translate(31.787109 0)"/>
     <use xlink:href="#DejaVuSans-6e" transform="translate(92.96875 0)"/>
     <use xlink:href="#DejaVuSans-20" transform="translate(156.347656 0)"/>
     <use xlink:href="#DejaVuSans-61" transform="translate(188.134766 0)"/>
     <use xlink:href="#DejaVuSans-20" transform="translate(249.414062 0)"/>
     <use xlink:href="#DejaVuSans-50" transform="translate(281.201172 0)"/>
     <use xlink:href="#DejaVuSans-65" transform="translate(337.878906 0)"/>
     <use xlink:href="#DejaVuSans-72" transform="translate(399.402344 0)"/>
     <use xlink:href="#DejaVuSans-70" transform="translate(440.515625 0)"/>
     <use xlink:href="#DejaVuSans-65" transform="translate(503.992188 0)"/>
     <use xlink:href="#DejaVuSans-6e" transform="translate(565.515625 0)"/>
     <use xlink:href="#DejaVuSans-64" transform="translate(628.894531 0)"/>
     <use xlink:href="#DejaVuSans-69" transform="translate(692.371094 0)"/>
     <use xlink:href="#DejaVuSans-63" transform="translate(720.154297 0)"/>
     <use xlink:href="#DejaVuSans-75" transform="translate(775.134766 0)"/>
     <use xlink:href="#DejaVuSans-6c" transform="translate(838.513672 0)"/>
     <use xlink:href="#DejaVuSans-61" transform="translate(866.296875 0)"/>
     <use xlink:href="#DejaVuSans-72" transform="translate(927.576172 0)"/>
    </g>
    <!--  Bisector Grid -->
    <g transform="translate(648.768629 314.159713) scale(0.03 -0.03)">
     <use xlink:href="#DejaVuSans-20"/>
     <use xlink:href="#DejaVuSans-42" transform="translate(31.787109 0)"/>
     <use xlink:href="#DejaVuSans-69" transform="translate(100.390625 0)"/>
     <use xlink:href="#DejaVuSans-73" transform="translate(128.173828 0)"/>
     <use xlink:href="#DejaVuSans-65" transform="translate(180.273438 0)"/>
     <use xlink:href="#DejaVuSans-63" transform="translate(241.796875 0)"/>
     <use xlink:href="#DejaVuSans-74" transform="translate(296.777344 0)"/>
     <use xlink:href="#DejaVuSans-6f" transform="translate(335.986328 0)"/>
     <use xlink:href="#DejaVuSans-72" transform="translate(397.167969 0)"/>
     <use xlink:href="#DejaVuSans-20" transform="translate(438.28125 0)"/>
     <use xlink:href="#DejaVuSans-47" transform="translate(470.068359 0)"/>
     <use xlink:href="#DejaVuSans-72" transform="translate(547.558594 0)"/>
     <use xlink:href="#DejaVuSans-69" transform="translate(588.671875 0)"/>
     <use xlink:href="#DejaVuSans-64" transform="translate(616.455078 0)"/>
    </g>
    <!--  -->
    <g transform="translate(658.967457 317.519057) scale(0.03 -0.03)"/>
   </g>
   <g id="text_14">
    <!--  3.4.4 : Grid-Orientation -->
    <g transform="translate(718.772729 305.761354) scale(0.03 -0.03)">
     <defs>
      <path id="DejaVuSans-4f" d="M 2522 4238 
Q 1834 4238 1429 3725 
Q 1025 3213 1025 2328 
Q 1025 1447 1429 934 
Q 1834 422 2522 422 
Q 3209 422 3611 934 
Q 4013 1447 4013 2328 
Q 4013 3213 3611 3725 
Q 3209 4238 2522 4238 
z
M 2522 4750 
Q 3503 4750 4090 4092 
Q 4678 3434 4678 2328 
Q 4678 1225 4090 567 
Q 3503 -91 2522 -91 
Q 1538 -91 948 565 
Q 359 1222 359 2328 
Q 359 3434 948 4092 
Q 1538 4750 2522 4750 
z
" transform="scale(0.015625)"/>
     </defs>
     <use xlink:href="#DejaVuSans-20"/>
     <use xlink:href="#DejaVuSans-33" transform="translate(31.787109 0)"/>
     <use xlink:href="#DejaVuSans-2e" transform="translate(95.410156 0)"/>
     <use xlink:href="#DejaVuSans-34" transform="translate(127.197266 0)"/>
     <use xlink:href="#DejaVuSans-2e" transform="translate(190.820312 0)"/>
     <use xlink:href="#DejaVuSans-34" transform="translate(222.607422 0)"/>
     <use xlink:href="#DejaVuSans-20" transform="translate(286.230469 0)"/>
     <use xlink:href="#DejaVuSans-3a" transform="translate(318.017578 0)"/>
     <use xlink:href="#DejaVuSans-20" transform="translate(351.708984 0)"/>
     <use xlink:href="#DejaVuSans-47" transform="translate(383.496094 0)"/>
     <use xlink:href="#DejaVuSans-72" transform="translate(460.986328 0)"/>
     <use xlink:href="#DejaVuSans-69" transform="translate(502.099609 0)"/>
     <use xlink:href="#DejaVuSans-64" transform="translate(529.882812 0)"/>
     <use xlink:href="#DejaVuSans-2d" transform="translate(593.359375 0)"/>
     <use xlink:href="#DejaVuSans-4f" transform="translate(632.193359 0)"/>
     <use xlink:href="#DejaVuSans-72" transform="translate(710.904297 0)"/>
     <use xlink:href="#DejaVuSans-69" transform="translate(752.017578 0)"/>
     <use xlink:href="#DejaVuSans-65" transform="translate(779.800781 0)"/>
     <use xlink:href="#DejaVuSans-6e" transform="translate(841.324219 0)"/>
     <use xlink:href="#DejaVuSans-74" transform="translate(904.703125 0)"/>
     <use xlink:href="#DejaVuSans-61" transform="translate(943.912109 0)"/>
     <use xlink:href="#DejaVuSans-74" transform="translate(1005.191406 0)"/>
     <use xlink:href="#DejaVuSans-69" transform="translate(1044.400391 0)"/>
     <use xlink:href="#DejaVuSans-6f" transform="translate(1072.183594 0)"/>
     <use xlink:href="#DejaVuSans-6e" transform="translate(1133.365234 0)"/>
    </g>
    <!--  Errors for -->
    <g transform="translate(729.270385 309.120698) scale(0.03 -0.03)">
     <use xlink:href="#DejaVuSans-20"/>
     <use xlink:href="#DejaVuSans-45" transform="translate(31.787109 0)"/>
     <use xlink:href="#DejaVuSans-72" transform="translate(94.970703 0)"/>
     <use xlink:href="#DejaVuSans-72" transform="translate(134.333984 0)"/>
     <use xlink:href="#DejaVuSans-6f" transform="translate(173.197266 0)"/>
     <use xlink:href="#DejaVuSans-72" transform="translate(234.378906 0)"/>
     <use xlink:href="#DejaVuSans-73" transform="translate(275.492188 0)"/>
     <use xlink:href="#DejaVuSans-20" transform="translate(327.591797 0)"/>
     <use xlink:href="#DejaVuSans-66" transform="translate(359.378906 0)"/>
     <use xlink:href="#DejaVuSans-6f" transform="translate(394.583984 0)"/>
     <use xlink:href="#DejaVuSans-72" transform="translate(455.765625 0)"/>
    </g>
    <!--  Adverse Mobility -->
    <g transform="translate(723.795619 312.480042) scale(0.03 -0.03)">
     <defs>
      <path id="DejaVuSans-41" d="M 2188 4044 
L 1331 1722 
L 3047 1722 
L 2188 4044 
z
M 1831 4666 
L 2547 4666 
L 4325 0 
L 3669 0 
L 3244 1197 
L 1141 1197 
L 716 0 
L 50 0 
L 1831 4666 
z
" transform="scale(0.015625)"/>
      <path id="DejaVuSans-62" d="M 3116 1747 
Q 3116 2381 2855 2742 
Q 2594 3103 2138 3103 
Q 1681 3103 1420 2742 
Q 1159 2381 1159 1747 
Q 1159 1113 1420 752 
Q 1681 391 2138 391 
Q 2594 391 2855 752 
Q 3116 1113 3116 1747 
z
M 1159 2969 
Q 1341 3281 1617 3432 
Q 1894 3584 2278 3584 
Q 2916 3584 3314 3078 
Q 3713 2572 3713 1747 
Q 3713 922 3314 415 
Q 2916 -91 2278 -91 
Q 1894 -91 1617 61 
Q 1341 213 1159 525 
L 1159 0 
L 581 0 
L 581 4863 
L 1159 4863 
L 1159 2969 
z
" transform="scale(0.015625)"/>
     </defs>
     <use xlink:href="#DejaVuSans-20"/>
     <use xlink:href="#DejaVuSans-41" transform="translate(31.787109 0)"/>
     <use xlink:href="#DejaVuSans-64" transform="translate(98.445312 0)"/>
     <use xlink:href="#DejaVuSans-76" transform="translate(161.921875 0)"/>
     <use xlink:href="#DejaVuSans-65" transform="translate(221.101562 0)"/>
     <use xlink:href="#DejaVuSans-72" transform="translate(282.625 0)"/>
     <use xlink:href="#DejaVuSans-73" transform="translate(323.738281 0)"/>
     <use xlink:href="#DejaVuSans-65" transform="translate(375.837891 0)"/>
     <use xlink:href="#DejaVuSans-20" transform="translate(437.361328 0)"/>
     <use xlink:href="#DejaVuSans-4d" transform="translate(469.148438 0)"/>
     <use xlink:href="#DejaVuSans-6f" transform="translate(555.427734 0)"/>
     <use xlink:href="#DejaVuSans-62" transform="translate(616.609375 0)"/>
     <use xlink:href="#DejaVuSans-69" transform="translate(680.085938 0)"/>
     <use xlink:href="#DejaVuSans-6c" transform="translate(707.869141 0)"/>
     <use xlink:href="#DejaVuSans-69" transform="translate(735.652344 0)"/>
     <use xlink:href="#DejaVuSans-74" transform="translate(763.435547 0)"/>
     <use xlink:href="#DejaVuSans-79" transform="translate(802.644531 0)"/>
    </g>
    <!--  Ratios -->
    <g transform="translate(731.614838 315.839385) scale(0.03 -0.03)">
     <use xlink:href="#DejaVuSans-20"/>
     <use xlink:href="#DejaVuSans-52" transform="translate(31.787109 0)"/>
     <use xlink:href="#DejaVuSans-61" transform="translate(99.019531 0)"/>
     <use xlink:href="#DejaVuSans-74" transform="translate(160.298828 0)"/>
     <use xlink:href="#DejaVuSans-69" transform="translate(199.507812 0)"/>
     <use xlink:href="#DejaVuSans-6f" transform="translate(227.291016 0)"/>
     <use xlink:href="#DejaVuSans-73" transform="translate(288.472656 0)"/>
    </g>
   </g>
   <g id="text_15">
    <!--  3.4.5 : Channelized -->
    <g transform="translate(799.489641 309.120698) scale(0.03 -0.03)">
     <defs>
      <path id="DejaVuSans-43" d="M 4122 4306 
L 4122 3641 
Q 3803 3938 3442 4084 
Q 3081 4231 2675 4231 
Q 1875 4231 1450 3742 
Q 1025 3253 1025 2328 
Q 1025 1406 1450 917 
Q 1875 428 2675 428 
Q 3081 428 3442 575 
Q 3803 722 4122 1019 
L 4122 359 
Q 3791 134 3420 21 
Q 3050 -91 2638 -91 
Q 1578 -91 968 557 
Q 359 1206 359 2328 
Q 359 3453 968 4101 
Q 1578 4750 2638 4750 
Q 3056 4750 3426 4639 
Q 3797 4528 4122 4306 
z
" transform="scale(0.015625)"/>
      <path id="DejaVuSans-7a" d="M 353 3500 
L 3084 3500 
L 3084 2975 
L 922 459 
L 3084 459 
L 3084 0 
L 275 0 
L 275 525 
L 2438 3041 
L 353 3041 
L 353 3500 
z
" transform="scale(0.015625)"/>
     </defs>
     <use xlink:href="#DejaVuSans-20"/>
     <use xlink:href="#DejaVuSans-33" transform="translate(31.787109 0)"/>
     <use xlink:href="#DejaVuSans-2e" transform="translate(95.410156 0)"/>
     <use xlink:href="#DejaVuSans-34" transform="translate(127.197266 0)"/>
     <use xlink:href="#DejaVuSans-2e" transform="translate(190.820312 0)"/>
     <use xlink:href="#DejaVuSans-35" transform="translate(222.607422 0)"/>
     <use xlink:href="#DejaVuSans-20" transform="translate(286.230469 0)"/>
     <use xlink:href="#DejaVuSans-3a" transform="translate(318.017578 0)"/>
     <use xlink:href="#DejaVuSans-20" transform="translate(351.708984 0)"/>
     <use xlink:href="#DejaVuSans-43" transform="translate(383.496094 0)"/>
     <use xlink:href="#DejaVuSans-68" transform="translate(453.320312 0)"/>
     <use xlink:href="#DejaVuSans-61" transform="translate(516.699219 0)"/>
     <use xlink:href="#DejaVuSans-6e" transform="translate(577.978516 0)"/>
     <use xlink:href="#DejaVuSans-6e" transform="translate(641.357422 0)"/>
     <use xlink:href="#DejaVuSans-65" transform="translate(704.736328 0)"/>
     <use xlink:href="#DejaVuSans-6c" transform="translate(766.259766 0)"/>
     <use xlink:href="#DejaVuSans-69" transform="translate(794.042969 0)"/>
     <use xlink:href="#DejaVuSans-7a" transform="translate(821.826172 0)"/>
     <use xlink:href="#DejaVuSans-65" transform="translate(874.316406 0)"/>
     <use xlink:href="#DejaVuSans-64" transform="translate(935.839844 0)"/>
    </g>
    <!--  Medium -->
    <g transform="translate(808.004485 312.480042) scale(0.03 -0.03)">
     <use xlink:href="#DejaVuSans-20"/>
     <use xlink:href="#DejaVuSans-4d" transform="translate(31.787109 0)"/>
     <use xlink:href="#DejaVuSans-65" transform="translate(118.066406 0)"/>
     <use xlink:href="#DejaVuSans-64" transform="translate(179.589844 0)"/>
     <use xlink:href="#DejaVuSans-69" transform="translate(243.066406 0)"/>
     <use xlink:href="#DejaVuSans-75" transform="translate(270.849609 0)"/>
     <use xlink:href="#DejaVuSans-6d" transform="translate(334.228516 0)"/>
    </g>
   </g>
   <g id="text_16">
    <!--  3.5 : Concluding -->
    <g transform="translate(671.742229 205.380349) scale(0.03 -0.03)">
     <use xlink:href="#DejaVuSans-20"/>
     <use xlink:href="#DejaVuSans-33" transform="translate(31.787109 0)"/>
     <use xlink:href="#DejaVuSans-2e" transform="translate(95.410156 0)"/>
     <use xlink:href="#DejaVuSans-35" transform="translate(127.197266 0)"/>
     <use xlink:href="#DejaVuSans-20" transform="translate(190.820312 0)"/>
     <use xlink:href="#DejaVuSans-3a" transform="translate(222.607422 0)"/>
     <use xlink:href="#DejaVuSans-20" transform="translate(256.298828 0)"/>
     <use xlink:href="#DejaVuSans-43" transform="translate(288.085938 0)"/>
     <use xlink:href="#DejaVuSans-6f" transform="translate(357.910156 0)"/>
     <use xlink:href="#DejaVuSans-6e" transform="translate(419.091797 0)"/>
     <use xlink:href="#DejaVuSans-63" transform="translate(482.470703 0)"/>
     <use xlink:href="#DejaVuSans-6c" transform="translate(537.451172 0)"/>
     <use xlink:href="#DejaVuSans-75" transform="translate(565.234375 0)"/>
     <use xlink:href="#DejaVuSans-64" transform="translate(628.613281 0)"/>
     <use xlink:href="#DejaVuSans-69" transform="translate(692.089844 0)"/>
     <use xlink:href="#DejaVuSans-6e" transform="translate(719.873047 0)"/>
     <use xlink:href="#DejaVuSans-67" transform="translate(783.251953 0)"/>
    </g>
    <!--  Remarks -->
    <g transform="translate(677.421604 208.739692) scale(0.03 -0.03)">
     <use xlink:href="#DejaVuSans-20"/>
     <use xlink:href="#DejaVuSans-52" transform="translate(31.787109 0)"/>
     <use xlink:href="#DejaVuSans-65" transform="translate(96.769531 0)"/>
     <use xlink:href="#DejaVuSans-6d" transform="translate(158.292969 0)"/>
     <use xlink:href="#DejaVuSans-61" transform="translate(255.705078 0)"/>
     <use xlink:href="#DejaVuSans-72" transform="translate(316.984375 0)"/>
     <use xlink:href="#DejaVuSans-6b" transform="translate(358.097656 0)"/>
     <use xlink:href="#DejaVuSans-73" transform="translate(416.007812 0)"/>
    </g>
   </g>
   <g id="text_17">
    <!--  3: Implicit -->
    <g transform="translate(282.515665 46.056637) scale(0.1 -0.1)">
     <use xlink:href="#DejaVuSans-20"/>
     <use xlink:href="#DejaVuSans-33" transform="translate(31.787109 0)"/>
     <use xlink:href="#DejaVuSans-3a" transform="translate(95.410156 0)"/>
     <use xlink:href="#DejaVuSans-20" transform="translate(129.101562 0)"/>
     <use xlink:href="#DejaVuSans-49" transform="translate(160.888672 0)"/>
     <use xlink:href="#DejaVuSans-6d" transform="translate(190.380859 0)"/>
     <use xlink:href="#DejaVuSans-70" transform="translate(287.792969 0)"/>
     <use xlink:href="#DejaVuSans-6c" transform="translate(351.269531 0)"/>
     <use xlink:href="#DejaVuSans-69" transform="translate(379.052734 0)"/>
     <use xlink:href="#DejaVuSans-63" transform="translate(406.835938 0)"/>
     <use xlink:href="#DejaVuSans-69" transform="translate(461.816406 0)"/>
     <use xlink:href="#DejaVuSans-74" transform="translate(489.599609 0)"/>
    </g>
    <!--  Discontinuous -->
    <g transform="translate(272.025821 57.25445) scale(0.1 -0.1)">
     <use xlink:href="#DejaVuSans-20"/>
     <use xlink:href="#DejaVuSans-44" transform="translate(31.787109 0)"/>
     <use xlink:href="#DejaVuSans-69" transform="translate(108.789062 0)"/>
     <use xlink:href="#DejaVuSans-73" transform="translate(136.572266 0)"/>
     <use xlink:href="#DejaVuSans-63" transform="translate(188.671875 0)"/>
     <use xlink:href="#DejaVuSans-6f" transform="translate(243.652344 0)"/>
     <use xlink:href="#DejaVuSans-6e" transform="translate(304.833984 0)"/>
     <use xlink:href="#DejaVuSans-74" transform="translate(368.212891 0)"/>
     <use xlink:href="#DejaVuSans-69" transform="translate(407.421875 0)"/>
     <use xlink:href="#DejaVuSans-6e" transform="translate(435.205078 0)"/>
     <use xlink:href="#DejaVuSans-75" transform="translate(498.583984 0)"/>
     <use xlink:href="#DejaVuSans-6f" transform="translate(561.962891 0)"/>
     <use xlink:href="#DejaVuSans-75" transform="translate(623.144531 0)"/>
     <use xlink:href="#DejaVuSans-73" transform="translate(686.523438 0)"/>
    </g>
    <!--  Galerkin Methods -->
    <g transform="translate(263.507071 68.452262) scale(0.1 -0.1)">
     <use xlink:href="#DejaVuSans-20"/>
     <use xlink:href="#DejaVuSans-47" transform="translate(31.787109 0)"/>
     <use xlink:href="#DejaVuSans-61" transform="translate(109.277344 0)"/>
     <use xlink:href="#DejaVuSans-6c" transform="translate(170.556641 0)"/>
     <use xlink:href="#DejaVuSans-65" transform="translate(198.339844 0)"/>
     <use xlink:href="#DejaVuSans-72" transform="translate(259.863281 0)"/>
     <use xlink:href="#DejaVuSans-6b" transform="translate(300.976562 0)"/>
     <use xlink:href="#DejaVuSans-69" transform="translate(358.886719 0)"/>
     <use xlink:href="#DejaVuSans-6e" transform="translate(386.669922 0)"/>
     <use xlink:href="#DejaVuSans-20" transform="translate(450.048828 0)"/>
     <use xlink:href="#DejaVuSans-4d" transform="translate(481.835938 0)"/>
     <use xlink:href="#DejaVuSans-65" transform="translate(568.115234 0)"/>
     <use xlink:href="#DejaVuSans-74" transform="translate(629.638672 0)"/>
     <use xlink:href="#DejaVuSans-68" transform="translate(668.847656 0)"/>
     <use xlink:href="#DejaVuSans-6f" transform="translate(732.226562 0)"/>
     <use xlink:href="#DejaVuSans-64" transform="translate(793.408203 0)"/>
     <use xlink:href="#DejaVuSans-73" transform="translate(856.884766 0)"/>
    </g>
    <!--  for Transport -->
    <g transform="translate(275.44379 79.650075) scale(0.1 -0.1)">
     <use xlink:href="#DejaVuSans-20"/>
     <use xlink:href="#DejaVuSans-66" transform="translate(31.787109 0)"/>
     <use xlink:href="#DejaVuSans-6f" transform="translate(66.992188 0)"/>
     <use xlink:href="#DejaVuSans-72" transform="translate(128.173828 0)"/>
     <use xlink:href="#DejaVuSans-20" transform="translate(169.287109 0)"/>
     <use xlink:href="#DejaVuSans-54" transform="translate(201.074219 0)"/>
     <use xlink:href="#DejaVuSans-72" transform="translate(247.408203 0)"/>
     <use xlink:href="#DejaVuSans-61" transform="translate(288.521484 0)"/>
     <use xlink:href="#DejaVuSans-6e" transform="translate(349.800781 0)"/>
     <use xlink:href="#DejaVuSans-73" transform="translate(413.179688 0)"/>
     <use xlink:href="#DejaVuSans-70" transform="translate(465.279297 0)"/>
     <use xlink:href="#DejaVuSans-6f" transform="translate(528.755859 0)"/>
     <use xlink:href="#DejaVuSans-72" transform="translate(589.9375 0)"/>
     <use xlink:href="#DejaVuSans-74" transform="translate(631.050781 0)"/>
    </g>
    <!--  Equations in -->
    <g transform="translate(276.471133 90.847887) scale(0.1 -0.1)">
     <use xlink:href="#DejaVuSans-20"/>
     <use xlink:href="#DejaVuSans-45" transform="translate(31.787109 0)"/>
     <use xlink:href="#DejaVuSans-71" transform="translate(94.970703 0)"/>
     <use xlink:href="#DejaVuSans-75" transform="translate(158.447266 0)"/>
     <use xlink:href="#DejaVuSans-61" transform="translate(221.826172 0)"/>
     <use xlink:href="#DejaVuSans-74" transform="translate(283.105469 0)"/>
     <use xlink:href="#DejaVuSans-69" transform="translate(322.314453 0)"/>
     <use xlink:href="#DejaVuSans-6f" transform="translate(350.097656 0)"/>
     <use xlink:href="#DejaVuSans-6e" transform="translate(411.279297 0)"/>
     <use xlink:href="#DejaVuSans-73" transform="translate(474.658203 0)"/>
     <use xlink:href="#DejaVuSans-20" transform="translate(526.757812 0)"/>
     <use xlink:href="#DejaVuSans-69" transform="translate(558.544922 0)"/>
     <use xlink:href="#DejaVuSans-6e" transform="translate(586.328125 0)"/>
    </g>
    <!--  Porous Media -->
    <g transform="translate(274.090665 102.0457) scale(0.1 -0.1)">
     <use xlink:href="#DejaVuSans-20"/>
     <use xlink:href="#DejaVuSans-50" transform="translate(31.787109 0)"/>
     <use xlink:href="#DejaVuSans-6f" transform="translate(88.464844 0)"/>
     <use xlink:href="#DejaVuSans-72" transform="translate(149.646484 0)"/>
     <use xlink:href="#DejaVuSans-6f" transform="translate(188.509766 0)"/>
     <use xlink:href="#DejaVuSans-75" transform="translate(249.691406 0)"/>
     <use xlink:href="#DejaVuSans-73" transform="translate(313.070312 0)"/>
     <use xlink:href="#DejaVuSans-20" transform="translate(365.169922 0)"/>
     <use xlink:href="#DejaVuSans-4d" transform="translate(396.957031 0)"/>
     <use xlink:href="#DejaVuSans-65" transform="translate(483.236328 0)"/>
     <use xlink:href="#DejaVuSans-64" transform="translate(544.759766 0)"/>
     <use xlink:href="#DejaVuSans-69" transform="translate(608.236328 0)"/>
     <use xlink:href="#DejaVuSans-61" transform="translate(636.019531 0)"/>
    </g>
    <!--  -->
    <g transform="translate(308.955508 113.243512) scale(0.1 -0.1)"/>
   </g>
  </g>
 </g>
 <defs>
  <clipPath id="p1910f79e1e">
   <rect x="7.2" y="7.2" width="837" height="332.64"/>
  </clipPath>
 </defs>
</svg>
