<?xml version="1.0" encoding="utf-8" standalone="no"?>
<!DOCTYPE svg PUBLIC "-//W3C//DTD SVG 1.1//EN"
  "http://www.w3.org/Graphics/SVG/1.1/DTD/svg11.dtd">
<svg xmlns:xlink="http://www.w3.org/1999/xlink" width="851.4pt" height="347.04pt" viewBox="0 0 851.4 347.04" xmlns="http://www.w3.org/2000/svg" version="1.1">
 <metadata>
  <rdf:RDF xmlns:dc="http://purl.org/dc/elements/1.1/" xmlns:cc="http://creativecommons.org/ns#" xmlns:rdf="http://www.w3.org/1999/02/22-rdf-syntax-ns#">
   <cc:Work>
    <dc:type rdf:resource="http://purl.org/dc/dcmitype/StillImage"/>
    <dc:date>2025-07-31T13:28:23.415115</dc:date>
    <dc:format>image/svg+xml</dc:format>
    <dc:creator>
     <cc:Agent>
      <dc:title>Matplotlib v3.10.3, https://matplotlib.org/</dc:title>
     </cc:Agent>
    </dc:creator>
   </cc:Work>
  </rdf:RDF>
 </metadata>
 <defs>
  <style type="text/css">*{stroke-linejoin: round; stroke-linecap: butt}</style>
 </defs>
 <g id="figure_1">
  <g id="patch_1">
   <path d="M 0 347.04 
L 851.4 347.04 
L 851.4 -0 
L 0 -0 
z
" style="fill: #ffffff"/>
  </g>
  <g id="axes_1">
   <g id="patch_2">
    <path d="M 148.120755 227.059109 
Q 99.082241 262.811232 50.947152 297.904702 
" clip-path="url(#pb8eb97a349)" style="fill: none; stroke: #000000; stroke-linecap: round"/>
    <path d="M 55.357577 297.16433 
L 50.947152 297.904702 
L 53.001109 293.932139 
z
" clip-path="url(#pb8eb97a349)" style="stroke: #000000; stroke-linecap: round"/>
   </g>
   <g id="patch_3">
    <path d="M 156.69272 235.38702 
Q 136.593729 264.693846 117.127079 293.07864 
" clip-path="url(#pb8eb97a349)" style="fill: none; stroke: #000000; stroke-linecap: round"/>
    <path d="M 121.038796 290.911043 
L 117.127079 293.07864 
L 117.740031 288.648709 
z
" clip-path="url(#pb8eb97a349)" style="stroke: #000000; stroke-linecap: round"/>
   </g>
   <g id="patch_4">
    <path d="M 176.687458 241.58586 
Q 176.687458 266.097633 176.687458 289.491371 
" clip-path="url(#pb8eb97a349)" style="fill: none; stroke: #000000; stroke-linecap: round"/>
    <path d="M 178.687458 285.491371 
L 176.687458 289.491371 
L 174.687458 285.491371 
z
" clip-path="url(#pb8eb97a349)" style="stroke: #000000; stroke-linecap: round"/>
   </g>
   <g id="patch_5">
    <path d="M 329.115395 230.885104 
Q 295.413886 263.676903 262.513687 295.689022 
" clip-path="url(#pb8eb97a349)" style="fill: none; stroke: #000000; stroke-linecap: round"/>
    <path d="M 266.775277 294.33298 
L 262.513687 295.689022 
L 263.985808 291.466125 
z
" clip-path="url(#pb8eb97a349)" style="stroke: #000000; stroke-linecap: round"/>
   </g>
   <g id="patch_6">
    <path d="M 343.013269 239.686318 
Q 334.12927 265.668289 325.606998 290.592359 
" clip-path="url(#pb8eb97a349)" style="fill: none; stroke: #000000; stroke-linecap: round"/>
    <path d="M 328.793583 287.454576 
L 325.606998 290.592359 
L 325.008723 286.160422 
z
" clip-path="url(#pb8eb97a349)" style="stroke: #000000; stroke-linecap: round"/>
   </g>
   <g id="patch_7">
    <path d="M 365.949987 239.667322 
Q 374.890118 265.664897 383.466672 290.605205 
" clip-path="url(#pb8eb97a349)" style="fill: none; stroke: #000000; stroke-linecap: round"/>
    <path d="M 384.057198 286.172229 
L 383.466672 290.605205 
L 380.274606 287.472999 
z
" clip-path="url(#pb8eb97a349)" style="stroke: #000000; stroke-linecap: round"/>
   </g>
   <g id="patch_8">
    <path d="M 379.817637 230.866109 
Q 413.598785 263.673026 446.577882 295.701025 
" clip-path="url(#pb8eb97a349)" style="fill: none; stroke: #000000; stroke-linecap: round"/>
    <path d="M 445.101754 291.479527 
L 446.577882 295.701025 
L 442.315007 294.349029 
z
" clip-path="url(#pb8eb97a349)" style="stroke: #000000; stroke-linecap: round"/>
   </g>
   <g id="patch_9">
    <path d="M 583.571363 235.38702 
Q 563.472372 264.693846 544.005722 293.07864 
" clip-path="url(#pb8eb97a349)" style="fill: none; stroke: #000000; stroke-linecap: round"/>
    <path d="M 547.917438 290.911043 
L 544.005722 293.07864 
L 544.618674 288.648709 
z
" clip-path="url(#pb8eb97a349)" style="stroke: #000000; stroke-linecap: round"/>
   </g>
   <g id="patch_10">
    <path d="M 603.566101 241.58586 
Q 603.566101 266.097633 603.566101 289.491371 
" clip-path="url(#pb8eb97a349)" style="fill: none; stroke: #000000; stroke-linecap: round"/>
    <path d="M 605.566101 285.491371 
L 603.566101 289.491371 
L 601.566101 285.491371 
z
" clip-path="url(#pb8eb97a349)" style="stroke: #000000; stroke-linecap: round"/>
   </g>
   <g id="patch_11">
    <path d="M 623.560839 235.38702 
Q 643.65983 264.693846 663.12648 293.07864 
" clip-path="url(#pb8eb97a349)" style="fill: none; stroke: #000000; stroke-linecap: round"/>
    <path d="M 662.513528 288.648709 
L 663.12648 293.07864 
L 659.214764 290.911043 
z
" clip-path="url(#pb8eb97a349)" style="stroke: #000000; stroke-linecap: round"/>
   </g>
   <g id="patch_12">
    <path d="M 632.132804 227.059109 
Q 681.171318 262.811232 729.306408 297.904702 
" clip-path="url(#pb8eb97a349)" style="fill: none; stroke: #000000; stroke-linecap: round"/>
    <path d="M 727.252451 293.932139 
L 729.306408 297.904702 
L 724.895983 297.16433 
z
" clip-path="url(#pb8eb97a349)" style="stroke: #000000; stroke-linecap: round"/>
   </g>
   <g id="patch_13">
    <path d="M 635.362489 221.686569 
Q 717.476814 261.597532 798.585587 301.019754 
" clip-path="url(#pb8eb97a349)" style="fill: none; stroke: #000000; stroke-linecap: round"/>
    <path d="M 795.862301 297.472401 
L 798.585587 301.019754 
L 794.113733 301.069971 
z
" clip-path="url(#pb8eb97a349)" style="stroke: #000000; stroke-linecap: round"/>
   </g>
   <g id="patch_14">
    <path d="M 290.588042 107.23472 
Q 195.154088 152.578609 100.729977 197.442687 
" clip-path="url(#pb8eb97a349)" style="fill: none; stroke: #000000; stroke-linecap: round"/>
    <path d="M 105.201211 197.532527 
L 100.729977 197.442687 
L 103.484589 193.919605 
z
" clip-path="url(#pb8eb97a349)" style="stroke: #000000; stroke-linecap: round"/>
   </g>
   <g id="patch_15">
    <path d="M 297.275954 118.492104 
Q 251.276933 151.960959 206.181967 184.772025 
" clip-path="url(#pb8eb97a349)" style="fill: none; stroke: #000000; stroke-linecap: round"/>
    <path d="M 210.593098 184.035868 
L 206.181967 184.772025 
L 208.23972 180.801426 
z
" clip-path="url(#pb8eb97a349)" style="stroke: #000000; stroke-linecap: round"/>
   </g>
   <g id="patch_16">
    <path d="M 354.452211 147.604601 
Q 354.452211 159.23959 354.452211 169.756546 
" clip-path="url(#pb8eb97a349)" style="fill: none; stroke: #000000; stroke-linecap: round"/>
    <path d="M 356.452211 165.756546 
L 354.452211 169.756546 
L 352.452211 165.756546 
z
" clip-path="url(#pb8eb97a349)" style="stroke: #000000; stroke-linecap: round"/>
   </g>
   <g id="patch_17">
    <path d="M 417.205831 109.472776 
Q 494.696226 149.70628 571.194361 189.424596 
" clip-path="url(#pb8eb97a349)" style="fill: none; stroke: #000000; stroke-linecap: round"/>
    <path d="M 568.565937 185.806393 
L 571.194361 189.424596 
L 566.722745 189.356413 
z
" clip-path="url(#pb8eb97a349)" style="stroke: #000000; stroke-linecap: round"/>
   </g>
   <g id="patch_18">
    <path d="M 420.630513 101.804374 
Q 550.266546 150.607528 678.856234 199.016772 
" clip-path="url(#pb8eb97a349)" style="fill: none; stroke: #000000; stroke-linecap: round"/>
    <path d="M 675.817368 195.735722 
L 678.856234 199.016772 
L 674.408074 199.479235 
z
" clip-path="url(#pb8eb97a349)" style="stroke: #000000; stroke-linecap: round"/>
   </g>
   <g id="PathCollection_1">
    <path d="M 82.23093 225.597125 
C 87.366566 225.597125 92.292551 223.556715 95.923994 219.925272 
C 99.555437 216.293829 101.595847 211.367844 101.595847 206.232208 
C 101.595847 201.096572 99.555437 196.170587 95.923994 192.539144 
C 92.292551 188.907701 87.366566 186.867291 82.23093 186.867291 
C 77.095295 186.867291 72.16931 188.907701 68.537867 192.539144 
C 64.906424 196.170587 62.866014 201.096572 62.866014 206.232208 
C 62.866014 211.367844 64.906424 216.293829 68.537867 219.925272 
C 72.16931 223.556715 77.095295 225.597125 82.23093 225.597125 
z
" clip-path="url(#pb8eb97a349)" style="fill: #add8e6; stroke: #add8e6"/>
    <path d="M 176.687458 241.587547 
C 186.063804 241.587547 195.057381 237.862286 201.687458 231.232208 
C 208.317536 224.602131 212.042797 215.608554 212.042797 206.232208 
C 212.042797 196.855863 208.317536 187.862286 201.687458 181.232208 
C 195.057381 174.602131 186.063804 170.876869 176.687458 170.876869 
C 167.311113 170.876869 158.317536 174.602131 151.687458 181.232208 
C 145.057381 187.862286 141.332119 196.855863 141.332119 206.232208 
C 141.332119 215.608554 145.057381 224.602131 151.687458 231.232208 
C 158.317536 237.862286 167.311113 241.587547 176.687458 241.587547 
z
" clip-path="url(#pb8eb97a349)" style="fill: #add8e6; stroke: #add8e6"/>
    <path d="M 34.394577 329.337474 
C 39.530213 329.337474 44.456198 327.297064 48.087641 323.665621 
C 51.719084 320.034178 53.759494 315.108193 53.759494 309.972557 
C 53.759494 304.836921 51.719084 299.910936 48.087641 296.279493 
C 44.456198 292.64805 39.530213 290.60764 34.394577 290.60764 
C 29.258941 290.60764 24.332956 292.64805 20.701513 296.279493 
C 17.07007 299.910936 15.029661 304.836921 15.029661 309.972557 
C 15.029661 315.108193 17.07007 320.034178 20.701513 323.665621 
C 24.332956 327.297064 29.258941 329.337474 34.394577 329.337474 
z
" clip-path="url(#pb8eb97a349)" style="fill: #add8e6; stroke: #add8e6"/>
    <path d="M 105.541018 329.337474 
C 110.676654 329.337474 115.602639 327.297064 119.234082 323.665621 
C 122.865525 320.034178 124.905935 315.108193 124.905935 309.972557 
C 124.905935 304.836921 122.865525 299.910936 119.234082 296.279493 
C 115.602639 292.64805 110.676654 290.60764 105.541018 290.60764 
C 100.405382 290.60764 95.479397 292.64805 91.847954 296.279493 
C 88.216511 299.910936 86.176101 304.836921 86.176101 309.972557 
C 86.176101 315.108193 88.216511 320.034178 91.847954 323.665621 
C 95.479397 327.297064 100.405382 329.337474 105.541018 329.337474 
z
" clip-path="url(#pb8eb97a349)" style="fill: #add8e6; stroke: #add8e6"/>
    <path d="M 176.687458 329.337474 
C 181.823094 329.337474 186.749079 327.297064 190.380522 323.665621 
C 194.011965 320.034178 196.052375 315.108193 196.052375 309.972557 
C 196.052375 304.836921 194.011965 299.910936 190.380522 296.279493 
C 186.749079 292.64805 181.823094 290.60764 176.687458 290.60764 
C 171.551822 290.60764 166.625837 292.64805 162.994394 296.279493 
C 159.362951 299.910936 157.322542 304.836921 157.322542 309.972557 
C 157.322542 315.108193 159.362951 320.034178 162.994394 323.665621 
C 166.625837 327.297064 171.551822 329.337474 176.687458 329.337474 
z
" clip-path="url(#pb8eb97a349)" style="fill: #add8e6; stroke: #add8e6"/>
    <path d="M 354.452211 241.587547 
C 363.828557 241.587547 372.822134 237.862286 379.452211 231.232208 
C 386.082289 224.602131 389.80755 215.608554 389.80755 206.232208 
C 389.80755 196.855863 386.082289 187.862286 379.452211 181.232208 
C 372.822134 174.602131 363.828557 170.876869 354.452211 170.876869 
C 345.075866 170.876869 336.082289 174.602131 329.452211 181.232208 
C 322.822134 187.862286 319.096872 196.855863 319.096872 206.232208 
C 319.096872 215.608554 322.822134 224.602131 329.452211 231.232208 
C 336.082289 237.862286 345.075866 241.587547 354.452211 241.587547 
z
" clip-path="url(#pb8eb97a349)" style="fill: #add8e6; stroke: #add8e6"/>
    <path d="M 247.833899 329.337474 
C 252.969535 329.337474 257.89552 327.297064 261.526963 323.665621 
C 265.158406 320.034178 267.198816 315.108193 267.198816 309.972557 
C 267.198816 304.836921 265.158406 299.910936 261.526963 296.279493 
C 257.89552 292.64805 252.969535 290.60764 247.833899 290.60764 
C 242.698263 290.60764 237.772278 292.64805 234.140835 296.279493 
C 230.509392 299.910936 228.468982 304.836921 228.468982 309.972557 
C 228.468982 315.108193 230.509392 320.034178 234.140835 323.665621 
C 237.772278 327.297064 242.698263 329.337474 247.833899 329.337474 
z
" clip-path="url(#pb8eb97a349)" style="fill: #add8e6; stroke: #add8e6"/>
    <path d="M 318.980339 329.337474 
C 324.115975 329.337474 329.04196 327.297064 332.673403 323.665621 
C 336.304846 320.034178 338.345256 315.108193 338.345256 309.972557 
C 338.345256 304.836921 336.304846 299.910936 332.673403 296.279493 
C 329.04196 292.64805 324.115975 290.60764 318.980339 290.60764 
C 313.844703 290.60764 308.918718 292.64805 305.287275 296.279493 
C 301.655832 299.910936 299.615423 304.836921 299.615423 309.972557 
C 299.615423 315.108193 301.655832 320.034178 305.287275 323.665621 
C 308.918718 327.297064 313.844703 329.337474 318.980339 329.337474 
z
" clip-path="url(#pb8eb97a349)" style="fill: #add8e6; stroke: #add8e6"/>
    <path d="M 390.12678 329.337474 
C 395.262416 329.337474 400.188401 327.297064 403.819844 323.665621 
C 407.451287 320.034178 409.491696 315.108193 409.491696 309.972557 
C 409.491696 304.836921 407.451287 299.910936 403.819844 296.279493 
C 400.188401 292.64805 395.262416 290.60764 390.12678 290.60764 
C 384.991144 290.60764 380.065159 292.64805 376.433716 296.279493 
C 372.802273 299.910936 370.761863 304.836921 370.761863 309.972557 
C 370.761863 315.108193 372.802273 320.034178 376.433716 323.665621 
C 380.065159 327.297064 384.991144 329.337474 390.12678 329.337474 
z
" clip-path="url(#pb8eb97a349)" style="fill: #add8e6; stroke: #add8e6"/>
    <path d="M 461.27322 329.337474 
C 466.408856 329.337474 471.334841 327.297064 474.966284 323.665621 
C 478.597727 320.034178 480.638137 315.108193 480.638137 309.972557 
C 480.638137 304.836921 478.597727 299.910936 474.966284 296.279493 
C 471.334841 292.64805 466.408856 290.60764 461.27322 290.60764 
C 456.137584 290.60764 451.211599 292.64805 447.580156 296.279493 
C 443.948713 299.910936 441.908304 304.836921 441.908304 309.972557 
C 441.908304 315.108193 443.948713 320.034178 447.580156 323.665621 
C 451.211599 327.297064 456.137584 329.337474 461.27322 329.337474 
z
" clip-path="url(#pb8eb97a349)" style="fill: #add8e6; stroke: #add8e6"/>
    <path d="M 603.566101 241.587547 
C 612.942447 241.587547 621.936024 237.862286 628.566101 231.232208 
C 635.196179 224.602131 638.92144 215.608554 638.92144 206.232208 
C 638.92144 196.855863 635.196179 187.862286 628.566101 181.232208 
C 621.936024 174.602131 612.942447 170.876869 603.566101 170.876869 
C 594.189756 170.876869 585.196179 174.602131 578.566101 181.232208 
C 571.936024 187.862286 568.210762 196.855863 568.210762 206.232208 
C 568.210762 215.608554 571.936024 224.602131 578.566101 231.232208 
C 585.196179 237.862286 594.189756 241.587547 603.566101 241.587547 
z
" clip-path="url(#pb8eb97a349)" style="fill: #add8e6; stroke: #add8e6"/>
    <path d="M 532.419661 329.337474 
C 537.555297 329.337474 542.481282 327.297064 546.112725 323.665621 
C 549.744168 320.034178 551.784577 315.108193 551.784577 309.972557 
C 551.784577 304.836921 549.744168 299.910936 546.112725 296.279493 
C 542.481282 292.64805 537.555297 290.60764 532.419661 290.60764 
C 527.284025 290.60764 522.35804 292.64805 518.726597 296.279493 
C 515.095154 299.910936 513.054744 304.836921 513.054744 309.972557 
C 513.054744 315.108193 515.095154 320.034178 518.726597 323.665621 
C 522.35804 327.297064 527.284025 329.337474 532.419661 329.337474 
z
" clip-path="url(#pb8eb97a349)" style="fill: #add8e6; stroke: #add8e6"/>
    <path d="M 603.566101 329.337474 
C 608.701737 329.337474 613.627722 327.297064 617.259165 323.665621 
C 620.890608 320.034178 622.931018 315.108193 622.931018 309.972557 
C 622.931018 304.836921 620.890608 299.910936 617.259165 296.279493 
C 613.627722 292.64805 608.701737 290.60764 603.566101 290.60764 
C 598.430465 290.60764 593.50448 292.64805 589.873037 296.279493 
C 586.241594 299.910936 584.201184 304.836921 584.201184 309.972557 
C 584.201184 315.108193 586.241594 320.034178 589.873037 323.665621 
C 593.50448 327.297064 598.430465 329.337474 603.566101 329.337474 
z
" clip-path="url(#pb8eb97a349)" style="fill: #add8e6; stroke: #add8e6"/>
    <path d="M 674.712542 329.337474 
C 679.848178 329.337474 684.774163 327.297064 688.405606 323.665621 
C 692.037049 320.034178 694.077458 315.108193 694.077458 309.972557 
C 694.077458 304.836921 692.037049 299.910936 688.405606 296.279493 
C 684.774163 292.64805 679.848178 290.60764 674.712542 290.60764 
C 669.576906 290.60764 664.650921 292.64805 661.019478 296.279493 
C 657.388035 299.910936 655.347625 304.836921 655.347625 309.972557 
C 655.347625 315.108193 657.388035 320.034178 661.019478 323.665621 
C 664.650921 327.297064 669.576906 329.337474 674.712542 329.337474 
z
" clip-path="url(#pb8eb97a349)" style="fill: #add8e6; stroke: #add8e6"/>
    <path d="M 745.858982 329.337474 
C 750.994618 329.337474 755.920603 327.297064 759.552046 323.665621 
C 763.183489 320.034178 765.223899 315.108193 765.223899 309.972557 
C 765.223899 304.836921 763.183489 299.910936 759.552046 296.279493 
C 755.920603 292.64805 750.994618 290.60764 745.858982 290.60764 
C 740.723346 290.60764 735.797361 292.64805 732.165918 296.279493 
C 728.534475 299.910936 726.494065 304.836921 726.494065 309.972557 
C 726.494065 315.108193 728.534475 320.034178 732.165918 323.665621 
C 735.797361 327.297064 740.723346 329.337474 745.858982 329.337474 
z
" clip-path="url(#pb8eb97a349)" style="fill: #add8e6; stroke: #add8e6"/>
    <path d="M 817.005423 329.337474 
C 822.141059 329.337474 827.067044 327.297064 830.698487 323.665621 
C 834.32993 320.034178 836.370339 315.108193 836.370339 309.972557 
C 836.370339 304.836921 834.32993 299.910936 830.698487 296.279493 
C 827.067044 292.64805 822.141059 290.60764 817.005423 290.60764 
C 811.869787 290.60764 806.943802 292.64805 803.312359 296.279493 
C 799.680916 299.910936 797.640506 304.836921 797.640506 309.972557 
C 797.640506 315.108193 799.680916 320.034178 803.312359 323.665621 
C 806.943802 327.297064 811.869787 329.337474 817.005423 329.337474 
z
" clip-path="url(#pb8eb97a349)" style="fill: #add8e6; stroke: #add8e6"/>
    <path d="M 698.022629 225.597125 
C 703.158265 225.597125 708.08425 223.556715 711.715693 219.925272 
C 715.347136 216.293829 717.387546 211.367844 717.387546 206.232208 
C 717.387546 201.096572 715.347136 196.170587 711.715693 192.539144 
C 708.08425 188.907701 703.158265 186.867291 698.022629 186.867291 
C 692.886993 186.867291 687.961008 188.907701 684.329565 192.539144 
C 680.698122 196.170587 678.657712 201.096572 678.657712 206.232208 
C 678.657712 211.367844 680.698122 216.293829 684.329565 219.925272 
C 687.961008 223.556715 692.886993 225.597125 698.022629 225.597125 
z
" clip-path="url(#pb8eb97a349)" style="fill: #add8e6; stroke: #add8e6"/>
    <path d="M 354.452211 147.601378 
C 373.204902 147.601378 391.192056 140.150855 404.452211 126.8907 
C 417.712366 113.630545 425.162889 95.643391 425.162889 76.8907 
C 425.162889 58.138009 417.712366 40.150855 404.452211 26.8907 
C 391.192056 13.630545 373.204902 6.180022 354.452211 6.180022 
C 335.69952 6.180022 317.712366 13.630545 304.452211 26.8907 
C 291.192056 40.150855 283.741533 58.138009 283.741533 76.8907 
C 283.741533 95.643391 291.192056 113.630545 304.452211 126.8907 
C 317.712366 140.150855 335.69952 147.601378 354.452211 147.601378 
z
" clip-path="url(#pb8eb97a349)" style="fill: #add8e6; stroke: #add8e6"/>
   </g>
   <g id="text_1">
    <!--  5.1 : Introduction -->
    <g transform="translate(68.827259 205.380349) scale(0.03 -0.03)">
     <defs>
      <path id="DejaVuSans-20" transform="scale(0.015625)"/>
      <path id="DejaVuSans-35" d="M 691 4666 
L 3169 4666 
L 3169 4134 
L 1269 4134 
L 1269 2991 
Q 1406 3038 1543 3061 
Q 1681 3084 1819 3084 
Q 2600 3084 3056 2656 
Q 3513 2228 3513 1497 
Q 3513 744 3044 326 
Q 2575 -91 1722 -91 
Q 1428 -91 1123 -41 
Q 819 9 494 109 
L 494 744 
Q 775 591 1075 516 
Q 1375 441 1709 441 
Q 2250 441 2565 725 
Q 2881 1009 2881 1497 
Q 2881 1984 2565 2268 
Q 2250 2553 1709 2553 
Q 1456 2553 1204 2497 
Q 953 2441 691 2322 
L 691 4666 
z
" transform="scale(0.015625)"/>
      <path id="DejaVuSans-2e" d="M 684 794 
L 1344 794 
L 1344 0 
L 684 0 
L 684 794 
z
" transform="scale(0.015625)"/>
      <path id="DejaVuSans-31" d="M 794 531 
L 1825 531 
L 1825 4091 
L 703 3866 
L 703 4441 
L 1819 4666 
L 2450 4666 
L 2450 531 
L 3481 531 
L 3481 0 
L 794 0 
L 794 531 
z
" transform="scale(0.015625)"/>
      <path id="DejaVuSans-3a" d="M 750 794 
L 1409 794 
L 1409 0 
L 750 0 
L 750 794 
z
M 750 3309 
L 1409 3309 
L 1409 2516 
L 750 2516 
L 750 3309 
z
" transform="scale(0.015625)"/>
      <path id="DejaVuSans-49" d="M 628 4666 
L 1259 4666 
L 1259 0 
L 628 0 
L 628 4666 
z
" transform="scale(0.015625)"/>
      <path id="DejaVuSans-6e" d="M 3513 2113 
L 3513 0 
L 2938 0 
L 2938 2094 
Q 2938 2591 2744 2837 
Q 2550 3084 2163 3084 
Q 1697 3084 1428 2787 
Q 1159 2491 1159 1978 
L 1159 0 
L 581 0 
L 581 3500 
L 1159 3500 
L 1159 2956 
Q 1366 3272 1645 3428 
Q 1925 3584 2291 3584 
Q 2894 3584 3203 3211 
Q 3513 2838 3513 2113 
z
" transform="scale(0.015625)"/>
      <path id="DejaVuSans-74" d="M 1172 4494 
L 1172 3500 
L 2356 3500 
L 2356 3053 
L 1172 3053 
L 1172 1153 
Q 1172 725 1289 603 
Q 1406 481 1766 481 
L 2356 481 
L 2356 0 
L 1766 0 
Q 1100 0 847 248 
Q 594 497 594 1153 
L 594 3053 
L 172 3053 
L 172 3500 
L 594 3500 
L 594 4494 
L 1172 4494 
z
" transform="scale(0.015625)"/>
      <path id="DejaVuSans-72" d="M 2631 2963 
Q 2534 3019 2420 3045 
Q 2306 3072 2169 3072 
Q 1681 3072 1420 2755 
Q 1159 2438 1159 1844 
L 1159 0 
L 581 0 
L 581 3500 
L 1159 3500 
L 1159 2956 
Q 1341 3275 1631 3429 
Q 1922 3584 2338 3584 
Q 2397 3584 2469 3576 
Q 2541 3569 2628 3553 
L 2631 2963 
z
" transform="scale(0.015625)"/>
      <path id="DejaVuSans-6f" d="M 1959 3097 
Q 1497 3097 1228 2736 
Q 959 2375 959 1747 
Q 959 1119 1226 758 
Q 1494 397 1959 397 
Q 2419 397 2687 759 
Q 2956 1122 2956 1747 
Q 2956 2369 2687 2733 
Q 2419 3097 1959 3097 
z
M 1959 3584 
Q 2709 3584 3137 3096 
Q 3566 2609 3566 1747 
Q 3566 888 3137 398 
Q 2709 -91 1959 -91 
Q 1206 -91 779 398 
Q 353 888 353 1747 
Q 353 2609 779 3096 
Q 1206 3584 1959 3584 
z
" transform="scale(0.015625)"/>
      <path id="DejaVuSans-64" d="M 2906 2969 
L 2906 4863 
L 3481 4863 
L 3481 0 
L 2906 0 
L 2906 525 
Q 2725 213 2448 61 
Q 2172 -91 1784 -91 
Q 1150 -91 751 415 
Q 353 922 353 1747 
Q 353 2572 751 3078 
Q 1150 3584 1784 3584 
Q 2172 3584 2448 3432 
Q 2725 3281 2906 2969 
z
M 947 1747 
Q 947 1113 1208 752 
Q 1469 391 1925 391 
Q 2381 391 2643 752 
Q 2906 1113 2906 1747 
Q 2906 2381 2643 2742 
Q 2381 3103 1925 3103 
Q 1469 3103 1208 2742 
Q 947 2381 947 1747 
z
" transform="scale(0.015625)"/>
      <path id="DejaVuSans-75" d="M 544 1381 
L 544 3500 
L 1119 3500 
L 1119 1403 
Q 1119 906 1312 657 
Q 1506 409 1894 409 
Q 2359 409 2629 706 
Q 2900 1003 2900 1516 
L 2900 3500 
L 3475 3500 
L 3475 0 
L 2900 0 
L 2900 538 
Q 2691 219 2414 64 
Q 2138 -91 1772 -91 
Q 1169 -91 856 284 
Q 544 659 544 1381 
z
M 1991 3584 
L 1991 3584 
z
" transform="scale(0.015625)"/>
      <path id="DejaVuSans-63" d="M 3122 3366 
L 3122 2828 
Q 2878 2963 2633 3030 
Q 2388 3097 2138 3097 
Q 1578 3097 1268 2742 
Q 959 2388 959 1747 
Q 959 1106 1268 751 
Q 1578 397 2138 397 
Q 2388 397 2633 464 
Q 2878 531 3122 666 
L 3122 134 
Q 2881 22 2623 -34 
Q 2366 -91 2075 -91 
Q 1284 -91 818 406 
Q 353 903 353 1747 
Q 353 2603 823 3093 
Q 1294 3584 2113 3584 
Q 2378 3584 2631 3529 
Q 2884 3475 3122 3366 
z
" transform="scale(0.015625)"/>
      <path id="DejaVuSans-69" d="M 603 3500 
L 1178 3500 
L 1178 0 
L 603 0 
L 603 3500 
z
M 603 4863 
L 1178 4863 
L 1178 4134 
L 603 4134 
L 603 4863 
z
" transform="scale(0.015625)"/>
     </defs>
     <use xlink:href="#DejaVuSans-20"/>
     <use xlink:href="#DejaVuSans-35" transform="translate(31.787109 0)"/>
     <use xlink:href="#DejaVuSans-2e" transform="translate(95.410156 0)"/>
     <use xlink:href="#DejaVuSans-31" transform="translate(127.197266 0)"/>
     <use xlink:href="#DejaVuSans-20" transform="translate(190.820312 0)"/>
     <use xlink:href="#DejaVuSans-3a" transform="translate(222.607422 0)"/>
     <use xlink:href="#DejaVuSans-20" transform="translate(256.298828 0)"/>
     <use xlink:href="#DejaVuSans-49" transform="translate(288.085938 0)"/>
     <use xlink:href="#DejaVuSans-6e" transform="translate(317.578125 0)"/>
     <use xlink:href="#DejaVuSans-74" transform="translate(380.957031 0)"/>
     <use xlink:href="#DejaVuSans-72" transform="translate(420.166016 0)"/>
     <use xlink:href="#DejaVuSans-6f" transform="translate(459.029297 0)"/>
     <use xlink:href="#DejaVuSans-64" transform="translate(520.210938 0)"/>
     <use xlink:href="#DejaVuSans-75" transform="translate(583.6875 0)"/>
     <use xlink:href="#DejaVuSans-63" transform="translate(647.066406 0)"/>
     <use xlink:href="#DejaVuSans-74" transform="translate(702.046875 0)"/>
     <use xlink:href="#DejaVuSans-69" transform="translate(741.255859 0)"/>
     <use xlink:href="#DejaVuSans-6f" transform="translate(769.039062 0)"/>
     <use xlink:href="#DejaVuSans-6e" transform="translate(830.220703 0)"/>
    </g>
    <!--  -->
    <g transform="translate(82.23093 208.739692) scale(0.03 -0.03)"/>
   </g>
   <g id="text_2">
    <!--  5.2 : Numerical -->
    <g transform="translate(156.734333 202.012989) scale(0.05 -0.05)">
     <defs>
      <path id="DejaVuSans-32" d="M 1228 531 
L 3431 531 
L 3431 0 
L 469 0 
L 469 531 
Q 828 903 1448 1529 
Q 2069 2156 2228 2338 
Q 2531 2678 2651 2914 
Q 2772 3150 2772 3378 
Q 2772 3750 2511 3984 
Q 2250 4219 1831 4219 
Q 1534 4219 1204 4116 
Q 875 4013 500 3803 
L 500 4441 
Q 881 4594 1212 4672 
Q 1544 4750 1819 4750 
Q 2544 4750 2975 4387 
Q 3406 4025 3406 3419 
Q 3406 3131 3298 2873 
Q 3191 2616 2906 2266 
Q 2828 2175 2409 1742 
Q 1991 1309 1228 531 
z
" transform="scale(0.015625)"/>
      <path id="DejaVuSans-4e" d="M 628 4666 
L 1478 4666 
L 3547 763 
L 3547 4666 
L 4159 4666 
L 4159 0 
L 3309 0 
L 1241 3903 
L 1241 0 
L 628 0 
L 628 4666 
z
" transform="scale(0.015625)"/>
      <path id="DejaVuSans-6d" d="M 3328 2828 
Q 3544 3216 3844 3400 
Q 4144 3584 4550 3584 
Q 5097 3584 5394 3201 
Q 5691 2819 5691 2113 
L 5691 0 
L 5113 0 
L 5113 2094 
Q 5113 2597 4934 2840 
Q 4756 3084 4391 3084 
Q 3944 3084 3684 2787 
Q 3425 2491 3425 1978 
L 3425 0 
L 2847 0 
L 2847 2094 
Q 2847 2600 2669 2842 
Q 2491 3084 2119 3084 
Q 1678 3084 1418 2786 
Q 1159 2488 1159 1978 
L 1159 0 
L 581 0 
L 581 3500 
L 1159 3500 
L 1159 2956 
Q 1356 3278 1631 3431 
Q 1906 3584 2284 3584 
Q 2666 3584 2933 3390 
Q 3200 3197 3328 2828 
z
" transform="scale(0.015625)"/>
      <path id="DejaVuSans-65" d="M 3597 1894 
L 3597 1613 
L 953 1613 
Q 991 1019 1311 708 
Q 1631 397 2203 397 
Q 2534 397 2845 478 
Q 3156 559 3463 722 
L 3463 178 
Q 3153 47 2828 -22 
Q 2503 -91 2169 -91 
Q 1331 -91 842 396 
Q 353 884 353 1716 
Q 353 2575 817 3079 
Q 1281 3584 2069 3584 
Q 2775 3584 3186 3129 
Q 3597 2675 3597 1894 
z
M 3022 2063 
Q 3016 2534 2758 2815 
Q 2500 3097 2075 3097 
Q 1594 3097 1305 2825 
Q 1016 2553 972 2059 
L 3022 2063 
z
" transform="scale(0.015625)"/>
      <path id="DejaVuSans-61" d="M 2194 1759 
Q 1497 1759 1228 1600 
Q 959 1441 959 1056 
Q 959 750 1161 570 
Q 1363 391 1709 391 
Q 2188 391 2477 730 
Q 2766 1069 2766 1631 
L 2766 1759 
L 2194 1759 
z
M 3341 1997 
L 3341 0 
L 2766 0 
L 2766 531 
Q 2569 213 2275 61 
Q 1981 -91 1556 -91 
Q 1019 -91 701 211 
Q 384 513 384 1019 
Q 384 1609 779 1909 
Q 1175 2209 1959 2209 
L 2766 2209 
L 2766 2266 
Q 2766 2663 2505 2880 
Q 2244 3097 1772 3097 
Q 1472 3097 1187 3025 
Q 903 2953 641 2809 
L 641 3341 
Q 956 3463 1253 3523 
Q 1550 3584 1831 3584 
Q 2591 3584 2966 3190 
Q 3341 2797 3341 1997 
z
" transform="scale(0.015625)"/>
      <path id="DejaVuSans-6c" d="M 603 4863 
L 1178 4863 
L 1178 0 
L 603 0 
L 603 4863 
z
" transform="scale(0.015625)"/>
     </defs>
     <use xlink:href="#DejaVuSans-20"/>
     <use xlink:href="#DejaVuSans-35" transform="translate(31.787109 0)"/>
     <use xlink:href="#DejaVuSans-2e" transform="translate(95.410156 0)"/>
     <use xlink:href="#DejaVuSans-32" transform="translate(127.197266 0)"/>
     <use xlink:href="#DejaVuSans-20" transform="translate(190.820312 0)"/>
     <use xlink:href="#DejaVuSans-3a" transform="translate(222.607422 0)"/>
     <use xlink:href="#DejaVuSans-20" transform="translate(256.298828 0)"/>
     <use xlink:href="#DejaVuSans-4e" transform="translate(288.085938 0)"/>
     <use xlink:href="#DejaVuSans-75" transform="translate(362.890625 0)"/>
     <use xlink:href="#DejaVuSans-6d" transform="translate(426.269531 0)"/>
     <use xlink:href="#DejaVuSans-65" transform="translate(523.681641 0)"/>
     <use xlink:href="#DejaVuSans-72" transform="translate(585.205078 0)"/>
     <use xlink:href="#DejaVuSans-69" transform="translate(626.318359 0)"/>
     <use xlink:href="#DejaVuSans-63" transform="translate(654.101562 0)"/>
     <use xlink:href="#DejaVuSans-61" transform="translate(709.082031 0)"/>
     <use xlink:href="#DejaVuSans-6c" transform="translate(770.361328 0)"/>
    </g>
    <!--  Models in MRST -->
    <g transform="translate(156.207771 207.611896) scale(0.05 -0.05)">
     <defs>
      <path id="DejaVuSans-4d" d="M 628 4666 
L 1569 4666 
L 2759 1491 
L 3956 4666 
L 4897 4666 
L 4897 0 
L 4281 0 
L 4281 4097 
L 3078 897 
L 2444 897 
L 1241 4097 
L 1241 0 
L 628 0 
L 628 4666 
z
" transform="scale(0.015625)"/>
      <path id="DejaVuSans-73" d="M 2834 3397 
L 2834 2853 
Q 2591 2978 2328 3040 
Q 2066 3103 1784 3103 
Q 1356 3103 1142 2972 
Q 928 2841 928 2578 
Q 928 2378 1081 2264 
Q 1234 2150 1697 2047 
L 1894 2003 
Q 2506 1872 2764 1633 
Q 3022 1394 3022 966 
Q 3022 478 2636 193 
Q 2250 -91 1575 -91 
Q 1294 -91 989 -36 
Q 684 19 347 128 
L 347 722 
Q 666 556 975 473 
Q 1284 391 1588 391 
Q 1994 391 2212 530 
Q 2431 669 2431 922 
Q 2431 1156 2273 1281 
Q 2116 1406 1581 1522 
L 1381 1569 
Q 847 1681 609 1914 
Q 372 2147 372 2553 
Q 372 3047 722 3315 
Q 1072 3584 1716 3584 
Q 2034 3584 2315 3537 
Q 2597 3491 2834 3397 
z
" transform="scale(0.015625)"/>
      <path id="DejaVuSans-52" d="M 2841 2188 
Q 3044 2119 3236 1894 
Q 3428 1669 3622 1275 
L 4263 0 
L 3584 0 
L 2988 1197 
Q 2756 1666 2539 1819 
Q 2322 1972 1947 1972 
L 1259 1972 
L 1259 0 
L 628 0 
L 628 4666 
L 2053 4666 
Q 2853 4666 3247 4331 
Q 3641 3997 3641 3322 
Q 3641 2881 3436 2590 
Q 3231 2300 2841 2188 
z
M 1259 4147 
L 1259 2491 
L 2053 2491 
Q 2509 2491 2742 2702 
Q 2975 2913 2975 3322 
Q 2975 3731 2742 3939 
Q 2509 4147 2053 4147 
L 1259 4147 
z
" transform="scale(0.015625)"/>
      <path id="DejaVuSans-53" d="M 3425 4513 
L 3425 3897 
Q 3066 4069 2747 4153 
Q 2428 4238 2131 4238 
Q 1616 4238 1336 4038 
Q 1056 3838 1056 3469 
Q 1056 3159 1242 3001 
Q 1428 2844 1947 2747 
L 2328 2669 
Q 3034 2534 3370 2195 
Q 3706 1856 3706 1288 
Q 3706 609 3251 259 
Q 2797 -91 1919 -91 
Q 1588 -91 1214 -16 
Q 841 59 441 206 
L 441 856 
Q 825 641 1194 531 
Q 1563 422 1919 422 
Q 2459 422 2753 634 
Q 3047 847 3047 1241 
Q 3047 1584 2836 1778 
Q 2625 1972 2144 2069 
L 1759 2144 
Q 1053 2284 737 2584 
Q 422 2884 422 3419 
Q 422 4038 858 4394 
Q 1294 4750 2059 4750 
Q 2388 4750 2728 4690 
Q 3069 4631 3425 4513 
z
" transform="scale(0.015625)"/>
      <path id="DejaVuSans-54" d="M -19 4666 
L 3928 4666 
L 3928 4134 
L 2272 4134 
L 2272 0 
L 1638 0 
L 1638 4134 
L -19 4134 
L -19 4666 
z
" transform="scale(0.015625)"/>
     </defs>
     <use xlink:href="#DejaVuSans-20"/>
     <use xlink:href="#DejaVuSans-4d" transform="translate(31.787109 0)"/>
     <use xlink:href="#DejaVuSans-6f" transform="translate(118.066406 0)"/>
     <use xlink:href="#DejaVuSans-64" transform="translate(179.248047 0)"/>
     <use xlink:href="#DejaVuSans-65" transform="translate(242.724609 0)"/>
     <use xlink:href="#DejaVuSans-6c" transform="translate(304.248047 0)"/>
     <use xlink:href="#DejaVuSans-73" transform="translate(332.03125 0)"/>
     <use xlink:href="#DejaVuSans-20" transform="translate(384.130859 0)"/>
     <use xlink:href="#DejaVuSans-69" transform="translate(415.917969 0)"/>
     <use xlink:href="#DejaVuSans-6e" transform="translate(443.701172 0)"/>
     <use xlink:href="#DejaVuSans-20" transform="translate(507.080078 0)"/>
     <use xlink:href="#DejaVuSans-4d" transform="translate(538.867188 0)"/>
     <use xlink:href="#DejaVuSans-52" transform="translate(625.146484 0)"/>
     <use xlink:href="#DejaVuSans-53" transform="translate(694.628906 0)"/>
     <use xlink:href="#DejaVuSans-54" transform="translate(758.105469 0)"/>
    </g>
    <!--  -->
    <g transform="translate(176.687458 213.210802) scale(0.05 -0.05)"/>
   </g>
   <g id="text_3">
    <!--  5.2.1 : A Generic -->
    <g transform="translate(21.32278 305.761354) scale(0.03 -0.03)">
     <defs>
      <path id="DejaVuSans-41" d="M 2188 4044 
L 1331 1722 
L 3047 1722 
L 2188 4044 
z
M 1831 4666 
L 2547 4666 
L 4325 0 
L 3669 0 
L 3244 1197 
L 1141 1197 
L 716 0 
L 50 0 
L 1831 4666 
z
" transform="scale(0.015625)"/>
      <path id="DejaVuSans-47" d="M 3809 666 
L 3809 1919 
L 2778 1919 
L 2778 2438 
L 4434 2438 
L 4434 434 
Q 4069 175 3628 42 
Q 3188 -91 2688 -91 
Q 1594 -91 976 548 
Q 359 1188 359 2328 
Q 359 3472 976 4111 
Q 1594 4750 2688 4750 
Q 3144 4750 3555 4637 
Q 3966 4525 4313 4306 
L 4313 3634 
Q 3963 3931 3569 4081 
Q 3175 4231 2741 4231 
Q 1884 4231 1454 3753 
Q 1025 3275 1025 2328 
Q 1025 1384 1454 906 
Q 1884 428 2741 428 
Q 3075 428 3337 486 
Q 3600 544 3809 666 
z
" transform="scale(0.015625)"/>
     </defs>
     <use xlink:href="#DejaVuSans-20"/>
     <use xlink:href="#DejaVuSans-35" transform="translate(31.787109 0)"/>
     <use xlink:href="#DejaVuSans-2e" transform="translate(95.410156 0)"/>
     <use xlink:href="#DejaVuSans-32" transform="translate(127.197266 0)"/>
     <use xlink:href="#DejaVuSans-2e" transform="translate(190.820312 0)"/>
     <use xlink:href="#DejaVuSans-31" transform="translate(222.607422 0)"/>
     <use xlink:href="#DejaVuSans-20" transform="translate(286.230469 0)"/>
     <use xlink:href="#DejaVuSans-3a" transform="translate(318.017578 0)"/>
     <use xlink:href="#DejaVuSans-20" transform="translate(351.708984 0)"/>
     <use xlink:href="#DejaVuSans-41" transform="translate(383.496094 0)"/>
     <use xlink:href="#DejaVuSans-20" transform="translate(451.904297 0)"/>
     <use xlink:href="#DejaVuSans-47" transform="translate(483.691406 0)"/>
     <use xlink:href="#DejaVuSans-65" transform="translate(561.181641 0)"/>
     <use xlink:href="#DejaVuSans-6e" transform="translate(622.705078 0)"/>
     <use xlink:href="#DejaVuSans-65" transform="translate(686.083984 0)"/>
     <use xlink:href="#DejaVuSans-72" transform="translate(747.607422 0)"/>
     <use xlink:href="#DejaVuSans-69" transform="translate(788.720703 0)"/>
     <use xlink:href="#DejaVuSans-63" transform="translate(816.503906 0)"/>
    </g>
    <!--  Multicomponent -->
    <g transform="translate(21.765515 309.120698) scale(0.03 -0.03)">
     <defs>
      <path id="DejaVuSans-70" d="M 1159 525 
L 1159 -1331 
L 581 -1331 
L 581 3500 
L 1159 3500 
L 1159 2969 
Q 1341 3281 1617 3432 
Q 1894 3584 2278 3584 
Q 2916 3584 3314 3078 
Q 3713 2572 3713 1747 
Q 3713 922 3314 415 
Q 2916 -91 2278 -91 
Q 1894 -91 1617 61 
Q 1341 213 1159 525 
z
M 3116 1747 
Q 3116 2381 2855 2742 
Q 2594 3103 2138 3103 
Q 1681 3103 1420 2742 
Q 1159 2381 1159 1747 
Q 1159 1113 1420 752 
Q 1681 391 2138 391 
Q 2594 391 2855 752 
Q 3116 1113 3116 1747 
z
" transform="scale(0.015625)"/>
     </defs>
     <use xlink:href="#DejaVuSans-20"/>
     <use xlink:href="#DejaVuSans-4d" transform="translate(31.787109 0)"/>
     <use xlink:href="#DejaVuSans-75" transform="translate(118.066406 0)"/>
     <use xlink:href="#DejaVuSans-6c" transform="translate(181.445312 0)"/>
     <use xlink:href="#DejaVuSans-74" transform="translate(209.228516 0)"/>
     <use xlink:href="#DejaVuSans-69" transform="translate(248.4375 0)"/>
     <use xlink:href="#DejaVuSans-63" transform="translate(276.220703 0)"/>
     <use xlink:href="#DejaVuSans-6f" transform="translate(331.201172 0)"/>
     <use xlink:href="#DejaVuSans-6d" transform="translate(392.382812 0)"/>
     <use xlink:href="#DejaVuSans-70" transform="translate(489.794922 0)"/>
     <use xlink:href="#DejaVuSans-6f" transform="translate(553.271484 0)"/>
     <use xlink:href="#DejaVuSans-6e" transform="translate(614.453125 0)"/>
     <use xlink:href="#DejaVuSans-65" transform="translate(677.832031 0)"/>
     <use xlink:href="#DejaVuSans-6e" transform="translate(739.355469 0)"/>
     <use xlink:href="#DejaVuSans-74" transform="translate(802.734375 0)"/>
    </g>
    <!--  Flow Model -->
    <g transform="translate(25.513171 312.480042) scale(0.03 -0.03)">
     <defs>
      <path id="DejaVuSans-46" d="M 628 4666 
L 3309 4666 
L 3309 4134 
L 1259 4134 
L 1259 2759 
L 3109 2759 
L 3109 2228 
L 1259 2228 
L 1259 0 
L 628 0 
L 628 4666 
z
" transform="scale(0.015625)"/>
      <path id="DejaVuSans-77" d="M 269 3500 
L 844 3500 
L 1563 769 
L 2278 3500 
L 2956 3500 
L 3675 769 
L 4391 3500 
L 4966 3500 
L 4050 0 
L 3372 0 
L 2619 2869 
L 1863 0 
L 1184 0 
L 269 3500 
z
" transform="scale(0.015625)"/>
     </defs>
     <use xlink:href="#DejaVuSans-20"/>
     <use xlink:href="#DejaVuSans-46" transform="translate(31.787109 0)"/>
     <use xlink:href="#DejaVuSans-6c" transform="translate(89.306641 0)"/>
     <use xlink:href="#DejaVuSans-6f" transform="translate(117.089844 0)"/>
     <use xlink:href="#DejaVuSans-77" transform="translate(178.271484 0)"/>
     <use xlink:href="#DejaVuSans-20" transform="translate(260.058594 0)"/>
     <use xlink:href="#DejaVuSans-4d" transform="translate(291.845703 0)"/>
     <use xlink:href="#DejaVuSans-6f" transform="translate(378.125 0)"/>
     <use xlink:href="#DejaVuSans-64" transform="translate(439.306641 0)"/>
     <use xlink:href="#DejaVuSans-65" transform="translate(502.783203 0)"/>
     <use xlink:href="#DejaVuSans-6c" transform="translate(564.306641 0)"/>
    </g>
    <!--  -->
    <g transform="translate(34.394577 315.839385) scale(0.03 -0.03)"/>
   </g>
   <g id="text_4">
    <!--  5.2.2 : Anatomy -->
    <g transform="translate(93.038283 307.441026) scale(0.03 -0.03)">
     <defs>
      <path id="DejaVuSans-79" d="M 2059 -325 
Q 1816 -950 1584 -1140 
Q 1353 -1331 966 -1331 
L 506 -1331 
L 506 -850 
L 844 -850 
Q 1081 -850 1212 -737 
Q 1344 -625 1503 -206 
L 1606 56 
L 191 3500 
L 800 3500 
L 1894 763 
L 2988 3500 
L 3597 3500 
L 2059 -325 
z
" transform="scale(0.015625)"/>
     </defs>
     <use xlink:href="#DejaVuSans-20"/>
     <use xlink:href="#DejaVuSans-35" transform="translate(31.787109 0)"/>
     <use xlink:href="#DejaVuSans-2e" transform="translate(95.410156 0)"/>
     <use xlink:href="#DejaVuSans-32" transform="translate(127.197266 0)"/>
     <use xlink:href="#DejaVuSans-2e" transform="translate(190.820312 0)"/>
     <use xlink:href="#DejaVuSans-32" transform="translate(222.607422 0)"/>
     <use xlink:href="#DejaVuSans-20" transform="translate(286.230469 0)"/>
     <use xlink:href="#DejaVuSans-3a" transform="translate(318.017578 0)"/>
     <use xlink:href="#DejaVuSans-20" transform="translate(351.708984 0)"/>
     <use xlink:href="#DejaVuSans-41" transform="translate(383.496094 0)"/>
     <use xlink:href="#DejaVuSans-6e" transform="translate(451.904297 0)"/>
     <use xlink:href="#DejaVuSans-61" transform="translate(515.283203 0)"/>
     <use xlink:href="#DejaVuSans-74" transform="translate(576.5625 0)"/>
     <use xlink:href="#DejaVuSans-6f" transform="translate(615.771484 0)"/>
     <use xlink:href="#DejaVuSans-6d" transform="translate(676.953125 0)"/>
     <use xlink:href="#DejaVuSans-79" transform="translate(774.365234 0)"/>
    </g>
    <!--  of a stepFunction -->
    <g transform="translate(92.121643 310.80037) scale(0.03 -0.03)">
     <defs>
      <path id="DejaVuSans-66" d="M 2375 4863 
L 2375 4384 
L 1825 4384 
Q 1516 4384 1395 4259 
Q 1275 4134 1275 3809 
L 1275 3500 
L 2222 3500 
L 2222 3053 
L 1275 3053 
L 1275 0 
L 697 0 
L 697 3053 
L 147 3053 
L 147 3500 
L 697 3500 
L 697 3744 
Q 697 4328 969 4595 
Q 1241 4863 1831 4863 
L 2375 4863 
z
" transform="scale(0.015625)"/>
     </defs>
     <use xlink:href="#DejaVuSans-20"/>
     <use xlink:href="#DejaVuSans-6f" transform="translate(31.787109 0)"/>
     <use xlink:href="#DejaVuSans-66" transform="translate(92.96875 0)"/>
     <use xlink:href="#DejaVuSans-20" transform="translate(128.173828 0)"/>
     <use xlink:href="#DejaVuSans-61" transform="translate(159.960938 0)"/>
     <use xlink:href="#DejaVuSans-20" transform="translate(221.240234 0)"/>
     <use xlink:href="#DejaVuSans-73" transform="translate(253.027344 0)"/>
     <use xlink:href="#DejaVuSans-74" transform="translate(305.126953 0)"/>
     <use xlink:href="#DejaVuSans-65" transform="translate(344.335938 0)"/>
     <use xlink:href="#DejaVuSans-70" transform="translate(405.859375 0)"/>
     <use xlink:href="#DejaVuSans-46" transform="translate(469.335938 0)"/>
     <use xlink:href="#DejaVuSans-75" transform="translate(521.355469 0)"/>
     <use xlink:href="#DejaVuSans-6e" transform="translate(584.734375 0)"/>
     <use xlink:href="#DejaVuSans-63" transform="translate(648.113281 0)"/>
     <use xlink:href="#DejaVuSans-74" transform="translate(703.09375 0)"/>
     <use xlink:href="#DejaVuSans-69" transform="translate(742.302734 0)"/>
     <use xlink:href="#DejaVuSans-6f" transform="translate(770.085938 0)"/>
     <use xlink:href="#DejaVuSans-6e" transform="translate(831.267578 0)"/>
    </g>
    <!--  -->
    <g transform="translate(105.541018 314.159713) scale(0.03 -0.03)"/>
   </g>
   <g id="text_5">
    <!--  5.2.3 : Validation -->
    <g transform="translate(163.52824 307.441026) scale(0.03 -0.03)">
     <defs>
      <path id="DejaVuSans-33" d="M 2597 2516 
Q 3050 2419 3304 2112 
Q 3559 1806 3559 1356 
Q 3559 666 3084 287 
Q 2609 -91 1734 -91 
Q 1441 -91 1130 -33 
Q 819 25 488 141 
L 488 750 
Q 750 597 1062 519 
Q 1375 441 1716 441 
Q 2309 441 2620 675 
Q 2931 909 2931 1356 
Q 2931 1769 2642 2001 
Q 2353 2234 1838 2234 
L 1294 2234 
L 1294 2753 
L 1863 2753 
Q 2328 2753 2575 2939 
Q 2822 3125 2822 3475 
Q 2822 3834 2567 4026 
Q 2313 4219 1838 4219 
Q 1578 4219 1281 4162 
Q 984 4106 628 3988 
L 628 4550 
Q 988 4650 1302 4700 
Q 1616 4750 1894 4750 
Q 2613 4750 3031 4423 
Q 3450 4097 3450 3541 
Q 3450 3153 3228 2886 
Q 3006 2619 2597 2516 
z
" transform="scale(0.015625)"/>
      <path id="DejaVuSans-56" d="M 1831 0 
L 50 4666 
L 709 4666 
L 2188 738 
L 3669 4666 
L 4325 4666 
L 2547 0 
L 1831 0 
z
" transform="scale(0.015625)"/>
     </defs>
     <use xlink:href="#DejaVuSans-20"/>
     <use xlink:href="#DejaVuSans-35" transform="translate(31.787109 0)"/>
     <use xlink:href="#DejaVuSans-2e" transform="translate(95.410156 0)"/>
     <use xlink:href="#DejaVuSans-32" transform="translate(127.197266 0)"/>
     <use xlink:href="#DejaVuSans-2e" transform="translate(190.820312 0)"/>
     <use xlink:href="#DejaVuSans-33" transform="translate(222.607422 0)"/>
     <use xlink:href="#DejaVuSans-20" transform="translate(286.230469 0)"/>
     <use xlink:href="#DejaVuSans-3a" transform="translate(318.017578 0)"/>
     <use xlink:href="#DejaVuSans-20" transform="translate(351.708984 0)"/>
     <use xlink:href="#DejaVuSans-56" transform="translate(383.496094 0)"/>
     <use xlink:href="#DejaVuSans-61" transform="translate(444.154297 0)"/>
     <use xlink:href="#DejaVuSans-6c" transform="translate(505.433594 0)"/>
     <use xlink:href="#DejaVuSans-69" transform="translate(533.216797 0)"/>
     <use xlink:href="#DejaVuSans-64" transform="translate(561 0)"/>
     <use xlink:href="#DejaVuSans-61" transform="translate(624.476562 0)"/>
     <use xlink:href="#DejaVuSans-74" transform="translate(685.755859 0)"/>
     <use xlink:href="#DejaVuSans-69" transform="translate(724.964844 0)"/>
     <use xlink:href="#DejaVuSans-6f" transform="translate(752.748047 0)"/>
     <use xlink:href="#DejaVuSans-6e" transform="translate(813.929688 0)"/>
    </g>
    <!--  and Preparation -->
    <g transform="translate(164.247302 310.80037) scale(0.03 -0.03)">
     <defs>
      <path id="DejaVuSans-50" d="M 1259 4147 
L 1259 2394 
L 2053 2394 
Q 2494 2394 2734 2622 
Q 2975 2850 2975 3272 
Q 2975 3691 2734 3919 
Q 2494 4147 2053 4147 
L 1259 4147 
z
M 628 4666 
L 2053 4666 
Q 2838 4666 3239 4311 
Q 3641 3956 3641 3272 
Q 3641 2581 3239 2228 
Q 2838 1875 2053 1875 
L 1259 1875 
L 1259 0 
L 628 0 
L 628 4666 
z
" transform="scale(0.015625)"/>
     </defs>
     <use xlink:href="#DejaVuSans-20"/>
     <use xlink:href="#DejaVuSans-61" transform="translate(31.787109 0)"/>
     <use xlink:href="#DejaVuSans-6e" transform="translate(93.066406 0)"/>
     <use xlink:href="#DejaVuSans-64" transform="translate(156.445312 0)"/>
     <use xlink:href="#DejaVuSans-20" transform="translate(219.921875 0)"/>
     <use xlink:href="#DejaVuSans-50" transform="translate(251.708984 0)"/>
     <use xlink:href="#DejaVuSans-72" transform="translate(310.261719 0)"/>
     <use xlink:href="#DejaVuSans-65" transform="translate(349.125 0)"/>
     <use xlink:href="#DejaVuSans-70" transform="translate(410.648438 0)"/>
     <use xlink:href="#DejaVuSans-61" transform="translate(474.125 0)"/>
     <use xlink:href="#DejaVuSans-72" transform="translate(535.404297 0)"/>
     <use xlink:href="#DejaVuSans-61" transform="translate(576.517578 0)"/>
     <use xlink:href="#DejaVuSans-74" transform="translate(637.796875 0)"/>
     <use xlink:href="#DejaVuSans-69" transform="translate(677.005859 0)"/>
     <use xlink:href="#DejaVuSans-6f" transform="translate(704.789062 0)"/>
     <use xlink:href="#DejaVuSans-6e" transform="translate(765.970703 0)"/>
    </g>
    <!--  -->
    <g transform="translate(176.687458 314.159713) scale(0.03 -0.03)"/>
   </g>
   <g id="text_6">
    <!--  5.3 : StateFunctions -->
    <g transform="translate(328.698305 199.213536) scale(0.05 -0.05)">
     <use xlink:href="#DejaVuSans-20"/>
     <use xlink:href="#DejaVuSans-35" transform="translate(31.787109 0)"/>
     <use xlink:href="#DejaVuSans-2e" transform="translate(95.410156 0)"/>
     <use xlink:href="#DejaVuSans-33" transform="translate(127.197266 0)"/>
     <use xlink:href="#DejaVuSans-20" transform="translate(190.820312 0)"/>
     <use xlink:href="#DejaVuSans-3a" transform="translate(222.607422 0)"/>
     <use xlink:href="#DejaVuSans-20" transform="translate(256.298828 0)"/>
     <use xlink:href="#DejaVuSans-53" transform="translate(288.085938 0)"/>
     <use xlink:href="#DejaVuSans-74" transform="translate(351.5625 0)"/>
     <use xlink:href="#DejaVuSans-61" transform="translate(390.771484 0)"/>
     <use xlink:href="#DejaVuSans-74" transform="translate(452.050781 0)"/>
     <use xlink:href="#DejaVuSans-65" transform="translate(491.259766 0)"/>
     <use xlink:href="#DejaVuSans-46" transform="translate(552.783203 0)"/>
     <use xlink:href="#DejaVuSans-75" transform="translate(604.802734 0)"/>
     <use xlink:href="#DejaVuSans-6e" transform="translate(668.181641 0)"/>
     <use xlink:href="#DejaVuSans-63" transform="translate(731.560547 0)"/>
     <use xlink:href="#DejaVuSans-74" transform="translate(786.541016 0)"/>
     <use xlink:href="#DejaVuSans-69" transform="translate(825.75 0)"/>
     <use xlink:href="#DejaVuSans-6f" transform="translate(853.533203 0)"/>
     <use xlink:href="#DejaVuSans-6e" transform="translate(914.714844 0)"/>
     <use xlink:href="#DejaVuSans-73" transform="translate(978.09375 0)"/>
    </g>
    <!--  : Framework -->
    <g transform="translate(338.181508 204.812442) scale(0.05 -0.05)">
     <defs>
      <path id="DejaVuSans-6b" d="M 581 4863 
L 1159 4863 
L 1159 1991 
L 2875 3500 
L 3609 3500 
L 1753 1863 
L 3688 0 
L 2938 0 
L 1159 1709 
L 1159 0 
L 581 0 
L 581 4863 
z
" transform="scale(0.015625)"/>
     </defs>
     <use xlink:href="#DejaVuSans-20"/>
     <use xlink:href="#DejaVuSans-3a" transform="translate(31.787109 0)"/>
     <use xlink:href="#DejaVuSans-20" transform="translate(65.478516 0)"/>
     <use xlink:href="#DejaVuSans-46" transform="translate(97.265625 0)"/>
     <use xlink:href="#DejaVuSans-72" transform="translate(147.535156 0)"/>
     <use xlink:href="#DejaVuSans-61" transform="translate(188.648438 0)"/>
     <use xlink:href="#DejaVuSans-6d" transform="translate(249.927734 0)"/>
     <use xlink:href="#DejaVuSans-65" transform="translate(347.339844 0)"/>
     <use xlink:href="#DejaVuSans-77" transform="translate(408.863281 0)"/>
     <use xlink:href="#DejaVuSans-6f" transform="translate(490.650391 0)"/>
     <use xlink:href="#DejaVuSans-72" transform="translate(551.832031 0)"/>
     <use xlink:href="#DejaVuSans-6b" transform="translate(592.945312 0)"/>
    </g>
    <!--  for AD Functions -->
    <g transform="translate(333.061196 210.411349) scale(0.05 -0.05)">
     <defs>
      <path id="DejaVuSans-44" d="M 1259 4147 
L 1259 519 
L 2022 519 
Q 2988 519 3436 956 
Q 3884 1394 3884 2338 
Q 3884 3275 3436 3711 
Q 2988 4147 2022 4147 
L 1259 4147 
z
M 628 4666 
L 1925 4666 
Q 3281 4666 3915 4102 
Q 4550 3538 4550 2338 
Q 4550 1131 3912 565 
Q 3275 0 1925 0 
L 628 0 
L 628 4666 
z
" transform="scale(0.015625)"/>
     </defs>
     <use xlink:href="#DejaVuSans-20"/>
     <use xlink:href="#DejaVuSans-66" transform="translate(31.787109 0)"/>
     <use xlink:href="#DejaVuSans-6f" transform="translate(66.992188 0)"/>
     <use xlink:href="#DejaVuSans-72" transform="translate(128.173828 0)"/>
     <use xlink:href="#DejaVuSans-20" transform="translate(169.287109 0)"/>
     <use xlink:href="#DejaVuSans-41" transform="translate(201.074219 0)"/>
     <use xlink:href="#DejaVuSans-44" transform="translate(269.482422 0)"/>
     <use xlink:href="#DejaVuSans-20" transform="translate(346.484375 0)"/>
     <use xlink:href="#DejaVuSans-46" transform="translate(378.271484 0)"/>
     <use xlink:href="#DejaVuSans-75" transform="translate(430.291016 0)"/>
     <use xlink:href="#DejaVuSans-6e" transform="translate(493.669922 0)"/>
     <use xlink:href="#DejaVuSans-63" transform="translate(557.048828 0)"/>
     <use xlink:href="#DejaVuSans-74" transform="translate(612.029297 0)"/>
     <use xlink:href="#DejaVuSans-69" transform="translate(651.238281 0)"/>
     <use xlink:href="#DejaVuSans-6f" transform="translate(679.021484 0)"/>
     <use xlink:href="#DejaVuSans-6e" transform="translate(740.203125 0)"/>
     <use xlink:href="#DejaVuSans-73" transform="translate(803.582031 0)"/>
    </g>
    <!--  -->
    <g transform="translate(354.452211 216.010255) scale(0.05 -0.05)"/>
   </g>
   <g id="text_7">
    <!--  5.3.1 : A Crash -->
    <g transform="translate(236.263743 307.441026) scale(0.03 -0.03)">
     <defs>
      <path id="DejaVuSans-43" d="M 4122 4306 
L 4122 3641 
Q 3803 3938 3442 4084 
Q 3081 4231 2675 4231 
Q 1875 4231 1450 3742 
Q 1025 3253 1025 2328 
Q 1025 1406 1450 917 
Q 1875 428 2675 428 
Q 3081 428 3442 575 
Q 3803 722 4122 1019 
L 4122 359 
Q 3791 134 3420 21 
Q 3050 -91 2638 -91 
Q 1578 -91 968 557 
Q 359 1206 359 2328 
Q 359 3453 968 4101 
Q 1578 4750 2638 4750 
Q 3056 4750 3426 4639 
Q 3797 4528 4122 4306 
z
" transform="scale(0.015625)"/>
      <path id="DejaVuSans-68" d="M 3513 2113 
L 3513 0 
L 2938 0 
L 2938 2094 
Q 2938 2591 2744 2837 
Q 2550 3084 2163 3084 
Q 1697 3084 1428 2787 
Q 1159 2491 1159 1978 
L 1159 0 
L 581 0 
L 581 4863 
L 1159 4863 
L 1159 2956 
Q 1366 3272 1645 3428 
Q 1925 3584 2291 3584 
Q 2894 3584 3203 3211 
Q 3513 2838 3513 2113 
z
" transform="scale(0.015625)"/>
     </defs>
     <use xlink:href="#DejaVuSans-20"/>
     <use xlink:href="#DejaVuSans-35" transform="translate(31.787109 0)"/>
     <use xlink:href="#DejaVuSans-2e" transform="translate(95.410156 0)"/>
     <use xlink:href="#DejaVuSans-33" transform="translate(127.197266 0)"/>
     <use xlink:href="#DejaVuSans-2e" transform="translate(190.820312 0)"/>
     <use xlink:href="#DejaVuSans-31" transform="translate(222.607422 0)"/>
     <use xlink:href="#DejaVuSans-20" transform="translate(286.230469 0)"/>
     <use xlink:href="#DejaVuSans-3a" transform="translate(318.017578 0)"/>
     <use xlink:href="#DejaVuSans-20" transform="translate(351.708984 0)"/>
     <use xlink:href="#DejaVuSans-41" transform="translate(383.496094 0)"/>
     <use xlink:href="#DejaVuSans-20" transform="translate(451.904297 0)"/>
     <use xlink:href="#DejaVuSans-43" transform="translate(483.691406 0)"/>
     <use xlink:href="#DejaVuSans-72" transform="translate(553.515625 0)"/>
     <use xlink:href="#DejaVuSans-61" transform="translate(594.628906 0)"/>
     <use xlink:href="#DejaVuSans-73" transform="translate(655.908203 0)"/>
     <use xlink:href="#DejaVuSans-68" transform="translate(708.007812 0)"/>
    </g>
    <!--  Course in State -->
    <g transform="translate(235.828977 310.80037) scale(0.03 -0.03)">
     <use xlink:href="#DejaVuSans-20"/>
     <use xlink:href="#DejaVuSans-43" transform="translate(31.787109 0)"/>
     <use xlink:href="#DejaVuSans-6f" transform="translate(101.611328 0)"/>
     <use xlink:href="#DejaVuSans-75" transform="translate(162.792969 0)"/>
     <use xlink:href="#DejaVuSans-72" transform="translate(226.171875 0)"/>
     <use xlink:href="#DejaVuSans-73" transform="translate(267.285156 0)"/>
     <use xlink:href="#DejaVuSans-65" transform="translate(319.384766 0)"/>
     <use xlink:href="#DejaVuSans-20" transform="translate(380.908203 0)"/>
     <use xlink:href="#DejaVuSans-69" transform="translate(412.695312 0)"/>
     <use xlink:href="#DejaVuSans-6e" transform="translate(440.478516 0)"/>
     <use xlink:href="#DejaVuSans-20" transform="translate(503.857422 0)"/>
     <use xlink:href="#DejaVuSans-53" transform="translate(535.644531 0)"/>
     <use xlink:href="#DejaVuSans-74" transform="translate(599.121094 0)"/>
     <use xlink:href="#DejaVuSans-61" transform="translate(638.330078 0)"/>
     <use xlink:href="#DejaVuSans-74" transform="translate(699.609375 0)"/>
     <use xlink:href="#DejaVuSans-65" transform="translate(738.818359 0)"/>
    </g>
    <!--  Functions -->
    <g transform="translate(240.196321 314.159713) scale(0.03 -0.03)">
     <use xlink:href="#DejaVuSans-20"/>
     <use xlink:href="#DejaVuSans-46" transform="translate(31.787109 0)"/>
     <use xlink:href="#DejaVuSans-75" transform="translate(83.806641 0)"/>
     <use xlink:href="#DejaVuSans-6e" transform="translate(147.185547 0)"/>
     <use xlink:href="#DejaVuSans-63" transform="translate(210.564453 0)"/>
     <use xlink:href="#DejaVuSans-74" transform="translate(265.544922 0)"/>
     <use xlink:href="#DejaVuSans-69" transform="translate(304.753906 0)"/>
     <use xlink:href="#DejaVuSans-6f" transform="translate(332.537109 0)"/>
     <use xlink:href="#DejaVuSans-6e" transform="translate(393.71875 0)"/>
     <use xlink:href="#DejaVuSans-73" transform="translate(457.097656 0)"/>
    </g>
   </g>
   <g id="text_8">
    <!--  5.3.2 : Evaluation -->
    <g transform="translate(305.313699 307.441026) scale(0.03 -0.03)">
     <defs>
      <path id="DejaVuSans-45" d="M 628 4666 
L 3578 4666 
L 3578 4134 
L 1259 4134 
L 1259 2753 
L 3481 2753 
L 3481 2222 
L 1259 2222 
L 1259 531 
L 3634 531 
L 3634 0 
L 628 0 
L 628 4666 
z
" transform="scale(0.015625)"/>
      <path id="DejaVuSans-76" d="M 191 3500 
L 800 3500 
L 1894 563 
L 2988 3500 
L 3597 3500 
L 2284 0 
L 1503 0 
L 191 3500 
z
" transform="scale(0.015625)"/>
     </defs>
     <use xlink:href="#DejaVuSans-20"/>
     <use xlink:href="#DejaVuSans-35" transform="translate(31.787109 0)"/>
     <use xlink:href="#DejaVuSans-2e" transform="translate(95.410156 0)"/>
     <use xlink:href="#DejaVuSans-33" transform="translate(127.197266 0)"/>
     <use xlink:href="#DejaVuSans-2e" transform="translate(190.820312 0)"/>
     <use xlink:href="#DejaVuSans-32" transform="translate(222.607422 0)"/>
     <use xlink:href="#DejaVuSans-20" transform="translate(286.230469 0)"/>
     <use xlink:href="#DejaVuSans-3a" transform="translate(318.017578 0)"/>
     <use xlink:href="#DejaVuSans-20" transform="translate(351.708984 0)"/>
     <use xlink:href="#DejaVuSans-45" transform="translate(383.496094 0)"/>
     <use xlink:href="#DejaVuSans-76" transform="translate(446.679688 0)"/>
     <use xlink:href="#DejaVuSans-61" transform="translate(505.859375 0)"/>
     <use xlink:href="#DejaVuSans-6c" transform="translate(567.138672 0)"/>
     <use xlink:href="#DejaVuSans-75" transform="translate(594.921875 0)"/>
     <use xlink:href="#DejaVuSans-61" transform="translate(658.300781 0)"/>
     <use xlink:href="#DejaVuSans-74" transform="translate(719.580078 0)"/>
     <use xlink:href="#DejaVuSans-69" transform="translate(758.789062 0)"/>
     <use xlink:href="#DejaVuSans-6f" transform="translate(786.572266 0)"/>
     <use xlink:href="#DejaVuSans-6e" transform="translate(847.753906 0)"/>
    </g>
    <!--  of Properties -->
    <g transform="translate(309.001121 310.80037) scale(0.03 -0.03)">
     <use xlink:href="#DejaVuSans-20"/>
     <use xlink:href="#DejaVuSans-6f" transform="translate(31.787109 0)"/>
     <use xlink:href="#DejaVuSans-66" transform="translate(92.96875 0)"/>
     <use xlink:href="#DejaVuSans-20" transform="translate(128.173828 0)"/>
     <use xlink:href="#DejaVuSans-50" transform="translate(159.960938 0)"/>
     <use xlink:href="#DejaVuSans-72" transform="translate(218.513672 0)"/>
     <use xlink:href="#DejaVuSans-6f" transform="translate(257.376953 0)"/>
     <use xlink:href="#DejaVuSans-70" transform="translate(318.558594 0)"/>
     <use xlink:href="#DejaVuSans-65" transform="translate(382.035156 0)"/>
     <use xlink:href="#DejaVuSans-72" transform="translate(443.558594 0)"/>
     <use xlink:href="#DejaVuSans-74" transform="translate(484.671875 0)"/>
     <use xlink:href="#DejaVuSans-69" transform="translate(523.880859 0)"/>
     <use xlink:href="#DejaVuSans-65" transform="translate(551.664062 0)"/>
     <use xlink:href="#DejaVuSans-73" transform="translate(613.1875 0)"/>
    </g>
    <!--  -->
    <g transform="translate(318.980339 314.159713) scale(0.03 -0.03)"/>
   </g>
   <g id="text_9">
    <!--  5.3.3 : Examples -->
    <g transform="translate(377.085452 307.441026) scale(0.03 -0.03)">
     <defs>
      <path id="DejaVuSans-78" d="M 3513 3500 
L 2247 1797 
L 3578 0 
L 2900 0 
L 1881 1375 
L 863 0 
L 184 0 
L 1544 1831 
L 300 3500 
L 978 3500 
L 1906 2253 
L 2834 3500 
L 3513 3500 
z
" transform="scale(0.015625)"/>
     </defs>
     <use xlink:href="#DejaVuSans-20"/>
     <use xlink:href="#DejaVuSans-35" transform="translate(31.787109 0)"/>
     <use xlink:href="#DejaVuSans-2e" transform="translate(95.410156 0)"/>
     <use xlink:href="#DejaVuSans-33" transform="translate(127.197266 0)"/>
     <use xlink:href="#DejaVuSans-2e" transform="translate(190.820312 0)"/>
     <use xlink:href="#DejaVuSans-33" transform="translate(222.607422 0)"/>
     <use xlink:href="#DejaVuSans-20" transform="translate(286.230469 0)"/>
     <use xlink:href="#DejaVuSans-3a" transform="translate(318.017578 0)"/>
     <use xlink:href="#DejaVuSans-20" transform="translate(351.708984 0)"/>
     <use xlink:href="#DejaVuSans-45" transform="translate(383.496094 0)"/>
     <use xlink:href="#DejaVuSans-78" transform="translate(446.679688 0)"/>
     <use xlink:href="#DejaVuSans-61" transform="translate(505.859375 0)"/>
     <use xlink:href="#DejaVuSans-6d" transform="translate(567.138672 0)"/>
     <use xlink:href="#DejaVuSans-70" transform="translate(664.550781 0)"/>
     <use xlink:href="#DejaVuSans-6c" transform="translate(728.027344 0)"/>
     <use xlink:href="#DejaVuSans-65" transform="translate(755.810547 0)"/>
     <use xlink:href="#DejaVuSans-73" transform="translate(817.333984 0)"/>
    </g>
    <!--  of State Functions -->
    <g transform="translate(376.119358 310.80037) scale(0.03 -0.03)">
     <use xlink:href="#DejaVuSans-20"/>
     <use xlink:href="#DejaVuSans-6f" transform="translate(31.787109 0)"/>
     <use xlink:href="#DejaVuSans-66" transform="translate(92.96875 0)"/>
     <use xlink:href="#DejaVuSans-20" transform="translate(128.173828 0)"/>
     <use xlink:href="#DejaVuSans-53" transform="translate(159.960938 0)"/>
     <use xlink:href="#DejaVuSans-74" transform="translate(223.4375 0)"/>
     <use xlink:href="#DejaVuSans-61" transform="translate(262.646484 0)"/>
     <use xlink:href="#DejaVuSans-74" transform="translate(323.925781 0)"/>
     <use xlink:href="#DejaVuSans-65" transform="translate(363.134766 0)"/>
     <use xlink:href="#DejaVuSans-20" transform="translate(424.658203 0)"/>
     <use xlink:href="#DejaVuSans-46" transform="translate(456.445312 0)"/>
     <use xlink:href="#DejaVuSans-75" transform="translate(508.464844 0)"/>
     <use xlink:href="#DejaVuSans-6e" transform="translate(571.84375 0)"/>
     <use xlink:href="#DejaVuSans-63" transform="translate(635.222656 0)"/>
     <use xlink:href="#DejaVuSans-74" transform="translate(690.203125 0)"/>
     <use xlink:href="#DejaVuSans-69" transform="translate(729.412109 0)"/>
     <use xlink:href="#DejaVuSans-6f" transform="translate(757.195312 0)"/>
     <use xlink:href="#DejaVuSans-6e" transform="translate(818.376953 0)"/>
     <use xlink:href="#DejaVuSans-73" transform="translate(881.755859 0)"/>
    </g>
    <!--  -->
    <g transform="translate(390.12678 314.159713) scale(0.03 -0.03)"/>
   </g>
   <g id="text_10">
    <!--  5.3.4 : The -->
    <g transform="translate(452.731423 307.441026) scale(0.03 -0.03)">
     <defs>
      <path id="DejaVuSans-34" d="M 2419 4116 
L 825 1625 
L 2419 1625 
L 2419 4116 
z
M 2253 4666 
L 3047 4666 
L 3047 1625 
L 3713 1625 
L 3713 1100 
L 3047 1100 
L 3047 0 
L 2419 0 
L 2419 1100 
L 313 1100 
L 313 1709 
L 2253 4666 
z
" transform="scale(0.015625)"/>
     </defs>
     <use xlink:href="#DejaVuSans-20"/>
     <use xlink:href="#DejaVuSans-35" transform="translate(31.787109 0)"/>
     <use xlink:href="#DejaVuSans-2e" transform="translate(95.410156 0)"/>
     <use xlink:href="#DejaVuSans-33" transform="translate(127.197266 0)"/>
     <use xlink:href="#DejaVuSans-2e" transform="translate(190.820312 0)"/>
     <use xlink:href="#DejaVuSans-34" transform="translate(222.607422 0)"/>
     <use xlink:href="#DejaVuSans-20" transform="translate(286.230469 0)"/>
     <use xlink:href="#DejaVuSans-3a" transform="translate(318.017578 0)"/>
     <use xlink:href="#DejaVuSans-20" transform="translate(351.708984 0)"/>
     <use xlink:href="#DejaVuSans-54" transform="translate(383.496094 0)"/>
     <use xlink:href="#DejaVuSans-68" transform="translate(444.580078 0)"/>
     <use xlink:href="#DejaVuSans-65" transform="translate(507.958984 0)"/>
    </g>
    <!--  StateFunctionGrouping -->
    <g transform="translate(443.561033 310.80037) scale(0.03 -0.03)">
     <defs>
      <path id="DejaVuSans-67" d="M 2906 1791 
Q 2906 2416 2648 2759 
Q 2391 3103 1925 3103 
Q 1463 3103 1205 2759 
Q 947 2416 947 1791 
Q 947 1169 1205 825 
Q 1463 481 1925 481 
Q 2391 481 2648 825 
Q 2906 1169 2906 1791 
z
M 3481 434 
Q 3481 -459 3084 -895 
Q 2688 -1331 1869 -1331 
Q 1566 -1331 1297 -1286 
Q 1028 -1241 775 -1147 
L 775 -588 
Q 1028 -725 1275 -790 
Q 1522 -856 1778 -856 
Q 2344 -856 2625 -561 
Q 2906 -266 2906 331 
L 2906 616 
Q 2728 306 2450 153 
Q 2172 0 1784 0 
Q 1141 0 747 490 
Q 353 981 353 1791 
Q 353 2603 747 3093 
Q 1141 3584 1784 3584 
Q 2172 3584 2450 3431 
Q 2728 3278 2906 2969 
L 2906 3500 
L 3481 3500 
L 3481 434 
z
" transform="scale(0.015625)"/>
     </defs>
     <use xlink:href="#DejaVuSans-20"/>
     <use xlink:href="#DejaVuSans-53" transform="translate(31.787109 0)"/>
     <use xlink:href="#DejaVuSans-74" transform="translate(95.263672 0)"/>
     <use xlink:href="#DejaVuSans-61" transform="translate(134.472656 0)"/>
     <use xlink:href="#DejaVuSans-74" transform="translate(195.751953 0)"/>
     <use xlink:href="#DejaVuSans-65" transform="translate(234.960938 0)"/>
     <use xlink:href="#DejaVuSans-46" transform="translate(296.484375 0)"/>
     <use xlink:href="#DejaVuSans-75" transform="translate(348.503906 0)"/>
     <use xlink:href="#DejaVuSans-6e" transform="translate(411.882812 0)"/>
     <use xlink:href="#DejaVuSans-63" transform="translate(475.261719 0)"/>
     <use xlink:href="#DejaVuSans-74" transform="translate(530.242188 0)"/>
     <use xlink:href="#DejaVuSans-69" transform="translate(569.451172 0)"/>
     <use xlink:href="#DejaVuSans-6f" transform="translate(597.234375 0)"/>
     <use xlink:href="#DejaVuSans-6e" transform="translate(658.416016 0)"/>
     <use xlink:href="#DejaVuSans-47" transform="translate(721.794922 0)"/>
     <use xlink:href="#DejaVuSans-72" transform="translate(799.285156 0)"/>
     <use xlink:href="#DejaVuSans-6f" transform="translate(838.148438 0)"/>
     <use xlink:href="#DejaVuSans-75" transform="translate(899.330078 0)"/>
     <use xlink:href="#DejaVuSans-70" transform="translate(962.708984 0)"/>
     <use xlink:href="#DejaVuSans-69" transform="translate(1026.185547 0)"/>
     <use xlink:href="#DejaVuSans-6e" transform="translate(1053.96875 0)"/>
     <use xlink:href="#DejaVuSans-67" transform="translate(1117.347656 0)"/>
    </g>
    <!--  Class -->
    <g transform="translate(456.85033 314.159713) scale(0.03 -0.03)">
     <use xlink:href="#DejaVuSans-20"/>
     <use xlink:href="#DejaVuSans-43" transform="translate(31.787109 0)"/>
     <use xlink:href="#DejaVuSans-6c" transform="translate(101.611328 0)"/>
     <use xlink:href="#DejaVuSans-61" transform="translate(129.394531 0)"/>
     <use xlink:href="#DejaVuSans-73" transform="translate(190.673828 0)"/>
     <use xlink:href="#DejaVuSans-73" transform="translate(242.773438 0)"/>
    </g>
   </g>
   <g id="text_11">
    <!--  5.4 : Discretization -->
    <g transform="translate(579.250867 202.012989) scale(0.05 -0.05)">
     <defs>
      <path id="DejaVuSans-7a" d="M 353 3500 
L 3084 3500 
L 3084 2975 
L 922 459 
L 3084 459 
L 3084 0 
L 275 0 
L 275 525 
L 2438 3041 
L 353 3041 
L 353 3500 
z
" transform="scale(0.015625)"/>
     </defs>
     <use xlink:href="#DejaVuSans-20"/>
     <use xlink:href="#DejaVuSans-35" transform="translate(31.787109 0)"/>
     <use xlink:href="#DejaVuSans-2e" transform="translate(95.410156 0)"/>
     <use xlink:href="#DejaVuSans-34" transform="translate(127.197266 0)"/>
     <use xlink:href="#DejaVuSans-20" transform="translate(190.820312 0)"/>
     <use xlink:href="#DejaVuSans-3a" transform="translate(222.607422 0)"/>
     <use xlink:href="#DejaVuSans-20" transform="translate(256.298828 0)"/>
     <use xlink:href="#DejaVuSans-44" transform="translate(288.085938 0)"/>
     <use xlink:href="#DejaVuSans-69" transform="translate(365.087891 0)"/>
     <use xlink:href="#DejaVuSans-73" transform="translate(392.871094 0)"/>
     <use xlink:href="#DejaVuSans-63" transform="translate(444.970703 0)"/>
     <use xlink:href="#DejaVuSans-72" transform="translate(499.951172 0)"/>
     <use xlink:href="#DejaVuSans-65" transform="translate(538.814453 0)"/>
     <use xlink:href="#DejaVuSans-74" transform="translate(600.337891 0)"/>
     <use xlink:href="#DejaVuSans-69" transform="translate(639.546875 0)"/>
     <use xlink:href="#DejaVuSans-7a" transform="translate(667.330078 0)"/>
     <use xlink:href="#DejaVuSans-61" transform="translate(719.820312 0)"/>
     <use xlink:href="#DejaVuSans-74" transform="translate(781.099609 0)"/>
     <use xlink:href="#DejaVuSans-69" transform="translate(820.308594 0)"/>
     <use xlink:href="#DejaVuSans-6f" transform="translate(848.091797 0)"/>
     <use xlink:href="#DejaVuSans-6e" transform="translate(909.273438 0)"/>
    </g>
    <!--  with State -->
    <g transform="translate(590.055945 207.611896) scale(0.05 -0.05)">
     <use xlink:href="#DejaVuSans-20"/>
     <use xlink:href="#DejaVuSans-77" transform="translate(31.787109 0)"/>
     <use xlink:href="#DejaVuSans-69" transform="translate(113.574219 0)"/>
     <use xlink:href="#DejaVuSans-74" transform="translate(141.357422 0)"/>
     <use xlink:href="#DejaVuSans-68" transform="translate(180.566406 0)"/>
     <use xlink:href="#DejaVuSans-20" transform="translate(243.945312 0)"/>
     <use xlink:href="#DejaVuSans-53" transform="translate(275.732422 0)"/>
     <use xlink:href="#DejaVuSans-74" transform="translate(339.208984 0)"/>
     <use xlink:href="#DejaVuSans-61" transform="translate(378.417969 0)"/>
     <use xlink:href="#DejaVuSans-74" transform="translate(439.697266 0)"/>
     <use xlink:href="#DejaVuSans-65" transform="translate(478.90625 0)"/>
    </g>
    <!--  Functions -->
    <g transform="translate(590.836804 213.210802) scale(0.05 -0.05)">
     <use xlink:href="#DejaVuSans-20"/>
     <use xlink:href="#DejaVuSans-46" transform="translate(31.787109 0)"/>
     <use xlink:href="#DejaVuSans-75" transform="translate(83.806641 0)"/>
     <use xlink:href="#DejaVuSans-6e" transform="translate(147.185547 0)"/>
     <use xlink:href="#DejaVuSans-63" transform="translate(210.564453 0)"/>
     <use xlink:href="#DejaVuSans-74" transform="translate(265.544922 0)"/>
     <use xlink:href="#DejaVuSans-69" transform="translate(304.753906 0)"/>
     <use xlink:href="#DejaVuSans-6f" transform="translate(332.537109 0)"/>
     <use xlink:href="#DejaVuSans-6e" transform="translate(393.71875 0)"/>
     <use xlink:href="#DejaVuSans-73" transform="translate(457.097656 0)"/>
    </g>
   </g>
   <g id="text_12">
    <!--  5.4.1 : The -->
    <g transform="translate(523.877864 307.441026) scale(0.03 -0.03)">
     <use xlink:href="#DejaVuSans-20"/>
     <use xlink:href="#DejaVuSans-35" transform="translate(31.787109 0)"/>
     <use xlink:href="#DejaVuSans-2e" transform="translate(95.410156 0)"/>
     <use xlink:href="#DejaVuSans-34" transform="translate(127.197266 0)"/>
     <use xlink:href="#DejaVuSans-2e" transform="translate(190.820312 0)"/>
     <use xlink:href="#DejaVuSans-31" transform="translate(222.607422 0)"/>
     <use xlink:href="#DejaVuSans-20" transform="translate(286.230469 0)"/>
     <use xlink:href="#DejaVuSans-3a" transform="translate(318.017578 0)"/>
     <use xlink:href="#DejaVuSans-20" transform="translate(351.708984 0)"/>
     <use xlink:href="#DejaVuSans-54" transform="translate(383.496094 0)"/>
     <use xlink:href="#DejaVuSans-68" transform="translate(444.580078 0)"/>
     <use xlink:href="#DejaVuSans-65" transform="translate(507.958984 0)"/>
    </g>
    <!--  Simulator as -->
    <g transform="translate(522.526458 310.80037) scale(0.03 -0.03)">
     <use xlink:href="#DejaVuSans-20"/>
     <use xlink:href="#DejaVuSans-53" transform="translate(31.787109 0)"/>
     <use xlink:href="#DejaVuSans-69" transform="translate(95.263672 0)"/>
     <use xlink:href="#DejaVuSans-6d" transform="translate(123.046875 0)"/>
     <use xlink:href="#DejaVuSans-75" transform="translate(220.458984 0)"/>
     <use xlink:href="#DejaVuSans-6c" transform="translate(283.837891 0)"/>
     <use xlink:href="#DejaVuSans-61" transform="translate(311.621094 0)"/>
     <use xlink:href="#DejaVuSans-74" transform="translate(372.900391 0)"/>
     <use xlink:href="#DejaVuSans-6f" transform="translate(412.109375 0)"/>
     <use xlink:href="#DejaVuSans-72" transform="translate(473.291016 0)"/>
     <use xlink:href="#DejaVuSans-20" transform="translate(514.404297 0)"/>
     <use xlink:href="#DejaVuSans-61" transform="translate(546.191406 0)"/>
     <use xlink:href="#DejaVuSans-73" transform="translate(607.470703 0)"/>
    </g>
    <!--  a Graph -->
    <g transform="translate(525.945989 314.159713) scale(0.03 -0.03)">
     <use xlink:href="#DejaVuSans-20"/>
     <use xlink:href="#DejaVuSans-61" transform="translate(31.787109 0)"/>
     <use xlink:href="#DejaVuSans-20" transform="translate(93.066406 0)"/>
     <use xlink:href="#DejaVuSans-47" transform="translate(124.853516 0)"/>
     <use xlink:href="#DejaVuSans-72" transform="translate(202.34375 0)"/>
     <use xlink:href="#DejaVuSans-61" transform="translate(243.457031 0)"/>
     <use xlink:href="#DejaVuSans-70" transform="translate(304.736328 0)"/>
     <use xlink:href="#DejaVuSans-68" transform="translate(368.212891 0)"/>
    </g>
   </g>
   <g id="text_13">
    <!--  5.4.2 : The -->
    <g transform="translate(595.024304 307.441026) scale(0.03 -0.03)">
     <use xlink:href="#DejaVuSans-20"/>
     <use xlink:href="#DejaVuSans-35" transform="translate(31.787109 0)"/>
     <use xlink:href="#DejaVuSans-2e" transform="translate(95.410156 0)"/>
     <use xlink:href="#DejaVuSans-34" transform="translate(127.197266 0)"/>
     <use xlink:href="#DejaVuSans-2e" transform="translate(190.820312 0)"/>
     <use xlink:href="#DejaVuSans-32" transform="translate(222.607422 0)"/>
     <use xlink:href="#DejaVuSans-20" transform="translate(286.230469 0)"/>
     <use xlink:href="#DejaVuSans-3a" transform="translate(318.017578 0)"/>
     <use xlink:href="#DejaVuSans-20" transform="translate(351.708984 0)"/>
     <use xlink:href="#DejaVuSans-54" transform="translate(383.496094 0)"/>
     <use xlink:href="#DejaVuSans-68" transform="translate(444.580078 0)"/>
     <use xlink:href="#DejaVuSans-65" transform="translate(507.958984 0)"/>
    </g>
    <!--  Component Implementation -->
    <g transform="translate(581.993289 310.80037) scale(0.03 -0.03)">
     <use xlink:href="#DejaVuSans-20"/>
     <use xlink:href="#DejaVuSans-43" transform="translate(31.787109 0)"/>
     <use xlink:href="#DejaVuSans-6f" transform="translate(101.611328 0)"/>
     <use xlink:href="#DejaVuSans-6d" transform="translate(162.792969 0)"/>
     <use xlink:href="#DejaVuSans-70" transform="translate(260.205078 0)"/>
     <use xlink:href="#DejaVuSans-6f" transform="translate(323.681641 0)"/>
     <use xlink:href="#DejaVuSans-6e" transform="translate(384.863281 0)"/>
     <use xlink:href="#DejaVuSans-65" transform="translate(448.242188 0)"/>
     <use xlink:href="#DejaVuSans-6e" transform="translate(509.765625 0)"/>
     <use xlink:href="#DejaVuSans-74" transform="translate(573.144531 0)"/>
     <use xlink:href="#DejaVuSans-20" transform="translate(612.353516 0)"/>
     <use xlink:href="#DejaVuSans-49" transform="translate(644.140625 0)"/>
     <use xlink:href="#DejaVuSans-6d" transform="translate(673.632812 0)"/>
     <use xlink:href="#DejaVuSans-70" transform="translate(771.044922 0)"/>
     <use xlink:href="#DejaVuSans-6c" transform="translate(834.521484 0)"/>
     <use xlink:href="#DejaVuSans-65" transform="translate(862.304688 0)"/>
     <use xlink:href="#DejaVuSans-6d" transform="translate(923.828125 0)"/>
     <use xlink:href="#DejaVuSans-65" transform="translate(1021.240234 0)"/>
     <use xlink:href="#DejaVuSans-6e" transform="translate(1082.763672 0)"/>
     <use xlink:href="#DejaVuSans-74" transform="translate(1146.142578 0)"/>
     <use xlink:href="#DejaVuSans-61" transform="translate(1185.351562 0)"/>
     <use xlink:href="#DejaVuSans-74" transform="translate(1246.630859 0)"/>
     <use xlink:href="#DejaVuSans-69" transform="translate(1285.839844 0)"/>
     <use xlink:href="#DejaVuSans-6f" transform="translate(1313.623047 0)"/>
     <use xlink:href="#DejaVuSans-6e" transform="translate(1374.804688 0)"/>
    </g>
    <!--  -->
    <g transform="translate(603.566101 314.159713) scale(0.03 -0.03)"/>
   </g>
   <g id="text_14">
    <!--  5.4.3 : Temporal -->
    <g transform="translate(662.09262 307.441026) scale(0.03 -0.03)">
     <use xlink:href="#DejaVuSans-20"/>
     <use xlink:href="#DejaVuSans-35" transform="translate(31.787109 0)"/>
     <use xlink:href="#DejaVuSans-2e" transform="translate(95.410156 0)"/>
     <use xlink:href="#DejaVuSans-34" transform="translate(127.197266 0)"/>
     <use xlink:href="#DejaVuSans-2e" transform="translate(190.820312 0)"/>
     <use xlink:href="#DejaVuSans-33" transform="translate(222.607422 0)"/>
     <use xlink:href="#DejaVuSans-20" transform="translate(286.230469 0)"/>
     <use xlink:href="#DejaVuSans-3a" transform="translate(318.017578 0)"/>
     <use xlink:href="#DejaVuSans-20" transform="translate(351.708984 0)"/>
     <use xlink:href="#DejaVuSans-54" transform="translate(383.496094 0)"/>
     <use xlink:href="#DejaVuSans-65" transform="translate(427.580078 0)"/>
     <use xlink:href="#DejaVuSans-6d" transform="translate(489.103516 0)"/>
     <use xlink:href="#DejaVuSans-70" transform="translate(586.515625 0)"/>
     <use xlink:href="#DejaVuSans-6f" transform="translate(649.992188 0)"/>
     <use xlink:href="#DejaVuSans-72" transform="translate(711.173828 0)"/>
     <use xlink:href="#DejaVuSans-61" transform="translate(752.287109 0)"/>
     <use xlink:href="#DejaVuSans-6c" transform="translate(813.566406 0)"/>
    </g>
    <!--  Discretizations -->
    <g transform="translate(663.186214 310.80037) scale(0.03 -0.03)">
     <use xlink:href="#DejaVuSans-20"/>
     <use xlink:href="#DejaVuSans-44" transform="translate(31.787109 0)"/>
     <use xlink:href="#DejaVuSans-69" transform="translate(108.789062 0)"/>
     <use xlink:href="#DejaVuSans-73" transform="translate(136.572266 0)"/>
     <use xlink:href="#DejaVuSans-63" transform="translate(188.671875 0)"/>
     <use xlink:href="#DejaVuSans-72" transform="translate(243.652344 0)"/>
     <use xlink:href="#DejaVuSans-65" transform="translate(282.515625 0)"/>
     <use xlink:href="#DejaVuSans-74" transform="translate(344.039062 0)"/>
     <use xlink:href="#DejaVuSans-69" transform="translate(383.248047 0)"/>
     <use xlink:href="#DejaVuSans-7a" transform="translate(411.03125 0)"/>
     <use xlink:href="#DejaVuSans-61" transform="translate(463.521484 0)"/>
     <use xlink:href="#DejaVuSans-74" transform="translate(524.800781 0)"/>
     <use xlink:href="#DejaVuSans-69" transform="translate(564.009766 0)"/>
     <use xlink:href="#DejaVuSans-6f" transform="translate(591.792969 0)"/>
     <use xlink:href="#DejaVuSans-6e" transform="translate(652.974609 0)"/>
     <use xlink:href="#DejaVuSans-73" transform="translate(716.353516 0)"/>
    </g>
    <!--  -->
    <g transform="translate(674.712542 314.159713) scale(0.03 -0.03)"/>
   </g>
   <g id="text_15">
    <!--  5.4.4 : Example: -->
    <g transform="translate(733.093748 304.081682) scale(0.03 -0.03)">
     <use xlink:href="#DejaVuSans-20"/>
     <use xlink:href="#DejaVuSans-35" transform="translate(31.787109 0)"/>
     <use xlink:href="#DejaVuSans-2e" transform="translate(95.410156 0)"/>
     <use xlink:href="#DejaVuSans-34" transform="translate(127.197266 0)"/>
     <use xlink:href="#DejaVuSans-2e" transform="translate(190.820312 0)"/>
     <use xlink:href="#DejaVuSans-34" transform="translate(222.607422 0)"/>
     <use xlink:href="#DejaVuSans-20" transform="translate(286.230469 0)"/>
     <use xlink:href="#DejaVuSans-3a" transform="translate(318.017578 0)"/>
     <use xlink:href="#DejaVuSans-20" transform="translate(351.708984 0)"/>
     <use xlink:href="#DejaVuSans-45" transform="translate(383.496094 0)"/>
     <use xlink:href="#DejaVuSans-78" transform="translate(446.679688 0)"/>
     <use xlink:href="#DejaVuSans-61" transform="translate(505.859375 0)"/>
     <use xlink:href="#DejaVuSans-6d" transform="translate(567.138672 0)"/>
     <use xlink:href="#DejaVuSans-70" transform="translate(664.550781 0)"/>
     <use xlink:href="#DejaVuSans-6c" transform="translate(728.027344 0)"/>
     <use xlink:href="#DejaVuSans-65" transform="translate(755.810547 0)"/>
     <use xlink:href="#DejaVuSans-3a" transform="translate(817.333984 0)"/>
    </g>
    <!--  Fully Implicit, -->
    <g transform="translate(735.457888 307.441026) scale(0.03 -0.03)">
     <defs>
      <path id="DejaVuSans-2c" d="M 750 794 
L 1409 794 
L 1409 256 
L 897 -744 
L 494 -744 
L 750 256 
L 750 794 
z
" transform="scale(0.015625)"/>
     </defs>
     <use xlink:href="#DejaVuSans-20"/>
     <use xlink:href="#DejaVuSans-46" transform="translate(31.787109 0)"/>
     <use xlink:href="#DejaVuSans-75" transform="translate(83.806641 0)"/>
     <use xlink:href="#DejaVuSans-6c" transform="translate(147.185547 0)"/>
     <use xlink:href="#DejaVuSans-6c" transform="translate(174.96875 0)"/>
     <use xlink:href="#DejaVuSans-79" transform="translate(202.751953 0)"/>
     <use xlink:href="#DejaVuSans-20" transform="translate(261.931641 0)"/>
     <use xlink:href="#DejaVuSans-49" transform="translate(293.71875 0)"/>
     <use xlink:href="#DejaVuSans-6d" transform="translate(323.210938 0)"/>
     <use xlink:href="#DejaVuSans-70" transform="translate(420.623047 0)"/>
     <use xlink:href="#DejaVuSans-6c" transform="translate(484.099609 0)"/>
     <use xlink:href="#DejaVuSans-69" transform="translate(511.882812 0)"/>
     <use xlink:href="#DejaVuSans-63" transform="translate(539.666016 0)"/>
     <use xlink:href="#DejaVuSans-69" transform="translate(594.646484 0)"/>
     <use xlink:href="#DejaVuSans-74" transform="translate(622.429688 0)"/>
     <use xlink:href="#DejaVuSans-2c" transform="translate(661.638672 0)"/>
    </g>
    <!--  Explicit, and -->
    <g transform="translate(736.155857 310.80037) scale(0.03 -0.03)">
     <use xlink:href="#DejaVuSans-20"/>
     <use xlink:href="#DejaVuSans-45" transform="translate(31.787109 0)"/>
     <use xlink:href="#DejaVuSans-78" transform="translate(94.970703 0)"/>
     <use xlink:href="#DejaVuSans-70" transform="translate(154.150391 0)"/>
     <use xlink:href="#DejaVuSans-6c" transform="translate(217.626953 0)"/>
     <use xlink:href="#DejaVuSans-69" transform="translate(245.410156 0)"/>
     <use xlink:href="#DejaVuSans-63" transform="translate(273.193359 0)"/>
     <use xlink:href="#DejaVuSans-69" transform="translate(328.173828 0)"/>
     <use xlink:href="#DejaVuSans-74" transform="translate(355.957031 0)"/>
     <use xlink:href="#DejaVuSans-2c" transform="translate(395.166016 0)"/>
     <use xlink:href="#DejaVuSans-20" transform="translate(426.953125 0)"/>
     <use xlink:href="#DejaVuSans-61" transform="translate(458.740234 0)"/>
     <use xlink:href="#DejaVuSans-6e" transform="translate(520.019531 0)"/>
     <use xlink:href="#DejaVuSans-64" transform="translate(583.398438 0)"/>
    </g>
    <!--  Adaptive Implicit -->
    <g transform="translate(732.747576 314.159713) scale(0.03 -0.03)">
     <use xlink:href="#DejaVuSans-20"/>
     <use xlink:href="#DejaVuSans-41" transform="translate(31.787109 0)"/>
     <use xlink:href="#DejaVuSans-64" transform="translate(98.445312 0)"/>
     <use xlink:href="#DejaVuSans-61" transform="translate(161.921875 0)"/>
     <use xlink:href="#DejaVuSans-70" transform="translate(223.201172 0)"/>
     <use xlink:href="#DejaVuSans-74" transform="translate(286.677734 0)"/>
     <use xlink:href="#DejaVuSans-69" transform="translate(325.886719 0)"/>
     <use xlink:href="#DejaVuSans-76" transform="translate(353.669922 0)"/>
     <use xlink:href="#DejaVuSans-65" transform="translate(412.849609 0)"/>
     <use xlink:href="#DejaVuSans-20" transform="translate(474.373047 0)"/>
     <use xlink:href="#DejaVuSans-49" transform="translate(506.160156 0)"/>
     <use xlink:href="#DejaVuSans-6d" transform="translate(535.652344 0)"/>
     <use xlink:href="#DejaVuSans-70" transform="translate(633.064453 0)"/>
     <use xlink:href="#DejaVuSans-6c" transform="translate(696.541016 0)"/>
     <use xlink:href="#DejaVuSans-69" transform="translate(724.324219 0)"/>
     <use xlink:href="#DejaVuSans-63" transform="translate(752.107422 0)"/>
     <use xlink:href="#DejaVuSans-69" transform="translate(807.087891 0)"/>
     <use xlink:href="#DejaVuSans-74" transform="translate(834.871094 0)"/>
    </g>
    <!--  -->
    <g transform="translate(745.858982 317.519057) scale(0.03 -0.03)"/>
   </g>
   <g id="text_16">
    <!--  5.4.5 : Spatial -->
    <g transform="translate(806.088938 307.441026) scale(0.03 -0.03)">
     <use xlink:href="#DejaVuSans-20"/>
     <use xlink:href="#DejaVuSans-35" transform="translate(31.787109 0)"/>
     <use xlink:href="#DejaVuSans-2e" transform="translate(95.410156 0)"/>
     <use xlink:href="#DejaVuSans-34" transform="translate(127.197266 0)"/>
     <use xlink:href="#DejaVuSans-2e" transform="translate(190.820312 0)"/>
     <use xlink:href="#DejaVuSans-35" transform="translate(222.607422 0)"/>
     <use xlink:href="#DejaVuSans-20" transform="translate(286.230469 0)"/>
     <use xlink:href="#DejaVuSans-3a" transform="translate(318.017578 0)"/>
     <use xlink:href="#DejaVuSans-20" transform="translate(351.708984 0)"/>
     <use xlink:href="#DejaVuSans-53" transform="translate(383.496094 0)"/>
     <use xlink:href="#DejaVuSans-70" transform="translate(446.972656 0)"/>
     <use xlink:href="#DejaVuSans-61" transform="translate(510.449219 0)"/>
     <use xlink:href="#DejaVuSans-74" transform="translate(571.728516 0)"/>
     <use xlink:href="#DejaVuSans-69" transform="translate(610.9375 0)"/>
     <use xlink:href="#DejaVuSans-61" transform="translate(638.720703 0)"/>
     <use xlink:href="#DejaVuSans-6c" transform="translate(700 0)"/>
    </g>
    <!--  Discretizations -->
    <g transform="translate(805.479095 310.80037) scale(0.03 -0.03)">
     <use xlink:href="#DejaVuSans-20"/>
     <use xlink:href="#DejaVuSans-44" transform="translate(31.787109 0)"/>
     <use xlink:href="#DejaVuSans-69" transform="translate(108.789062 0)"/>
     <use xlink:href="#DejaVuSans-73" transform="translate(136.572266 0)"/>
     <use xlink:href="#DejaVuSans-63" transform="translate(188.671875 0)"/>
     <use xlink:href="#DejaVuSans-72" transform="translate(243.652344 0)"/>
     <use xlink:href="#DejaVuSans-65" transform="translate(282.515625 0)"/>
     <use xlink:href="#DejaVuSans-74" transform="translate(344.039062 0)"/>
     <use xlink:href="#DejaVuSans-69" transform="translate(383.248047 0)"/>
     <use xlink:href="#DejaVuSans-7a" transform="translate(411.03125 0)"/>
     <use xlink:href="#DejaVuSans-61" transform="translate(463.521484 0)"/>
     <use xlink:href="#DejaVuSans-74" transform="translate(524.800781 0)"/>
     <use xlink:href="#DejaVuSans-69" transform="translate(564.009766 0)"/>
     <use xlink:href="#DejaVuSans-6f" transform="translate(591.792969 0)"/>
     <use xlink:href="#DejaVuSans-6e" transform="translate(652.974609 0)"/>
     <use xlink:href="#DejaVuSans-73" transform="translate(716.353516 0)"/>
    </g>
    <!--  -->
    <g transform="translate(817.005423 314.159713) scale(0.03 -0.03)"/>
   </g>
   <g id="text_17">
    <!--  5.5 : Concluding -->
    <g transform="translate(685.321848 205.380349) scale(0.03 -0.03)">
     <use xlink:href="#DejaVuSans-20"/>
     <use xlink:href="#DejaVuSans-35" transform="translate(31.787109 0)"/>
     <use xlink:href="#DejaVuSans-2e" transform="translate(95.410156 0)"/>
     <use xlink:href="#DejaVuSans-35" transform="translate(127.197266 0)"/>
     <use xlink:href="#DejaVuSans-20" transform="translate(190.820312 0)"/>
     <use xlink:href="#DejaVuSans-3a" transform="translate(222.607422 0)"/>
     <use xlink:href="#DejaVuSans-20" transform="translate(256.298828 0)"/>
     <use xlink:href="#DejaVuSans-43" transform="translate(288.085938 0)"/>
     <use xlink:href="#DejaVuSans-6f" transform="translate(357.910156 0)"/>
     <use xlink:href="#DejaVuSans-6e" transform="translate(419.091797 0)"/>
     <use xlink:href="#DejaVuSans-63" transform="translate(482.470703 0)"/>
     <use xlink:href="#DejaVuSans-6c" transform="translate(537.451172 0)"/>
     <use xlink:href="#DejaVuSans-75" transform="translate(565.234375 0)"/>
     <use xlink:href="#DejaVuSans-64" transform="translate(628.613281 0)"/>
     <use xlink:href="#DejaVuSans-69" transform="translate(692.089844 0)"/>
     <use xlink:href="#DejaVuSans-6e" transform="translate(719.873047 0)"/>
     <use xlink:href="#DejaVuSans-67" transform="translate(783.251953 0)"/>
    </g>
    <!--  Remarks -->
    <g transform="translate(691.001223 208.739692) scale(0.03 -0.03)">
     <use xlink:href="#DejaVuSans-20"/>
     <use xlink:href="#DejaVuSans-52" transform="translate(31.787109 0)"/>
     <use xlink:href="#DejaVuSans-65" transform="translate(96.769531 0)"/>
     <use xlink:href="#DejaVuSans-6d" transform="translate(158.292969 0)"/>
     <use xlink:href="#DejaVuSans-61" transform="translate(255.705078 0)"/>
     <use xlink:href="#DejaVuSans-72" transform="translate(316.984375 0)"/>
     <use xlink:href="#DejaVuSans-6b" transform="translate(358.097656 0)"/>
     <use xlink:href="#DejaVuSans-73" transform="translate(416.007812 0)"/>
    </g>
   </g>
   <g id="text_18">
    <!--  5: Better AD -->
    <g transform="translate(321.989711 46.056637) scale(0.1 -0.1)">
     <defs>
      <path id="DejaVuSans-42" d="M 1259 2228 
L 1259 519 
L 2272 519 
Q 2781 519 3026 730 
Q 3272 941 3272 1375 
Q 3272 1813 3026 2020 
Q 2781 2228 2272 2228 
L 1259 2228 
z
M 1259 4147 
L 1259 2741 
L 2194 2741 
Q 2656 2741 2882 2914 
Q 3109 3088 3109 3444 
Q 3109 3797 2882 3972 
Q 2656 4147 2194 4147 
L 1259 4147 
z
M 628 4666 
L 2241 4666 
Q 2963 4666 3353 4366 
Q 3744 4066 3744 3513 
Q 3744 3084 3544 2831 
Q 3344 2578 2956 2516 
Q 3422 2416 3680 2098 
Q 3938 1781 3938 1306 
Q 3938 681 3513 340 
Q 3088 0 2303 0 
L 628 0 
L 628 4666 
z
" transform="scale(0.015625)"/>
     </defs>
     <use xlink:href="#DejaVuSans-20"/>
     <use xlink:href="#DejaVuSans-35" transform="translate(31.787109 0)"/>
     <use xlink:href="#DejaVuSans-3a" transform="translate(95.410156 0)"/>
     <use xlink:href="#DejaVuSans-20" transform="translate(129.101562 0)"/>
     <use xlink:href="#DejaVuSans-42" transform="translate(160.888672 0)"/>
     <use xlink:href="#DejaVuSans-65" transform="translate(229.492188 0)"/>
     <use xlink:href="#DejaVuSans-74" transform="translate(291.015625 0)"/>
     <use xlink:href="#DejaVuSans-74" transform="translate(330.224609 0)"/>
     <use xlink:href="#DejaVuSans-65" transform="translate(369.433594 0)"/>
     <use xlink:href="#DejaVuSans-72" transform="translate(430.957031 0)"/>
     <use xlink:href="#DejaVuSans-20" transform="translate(472.070312 0)"/>
     <use xlink:href="#DejaVuSans-41" transform="translate(503.857422 0)"/>
     <use xlink:href="#DejaVuSans-44" transform="translate(572.265625 0)"/>
    </g>
    <!--  Simulators -->
    <g transform="translate(326.127993 57.25445) scale(0.1 -0.1)">
     <use xlink:href="#DejaVuSans-20"/>
     <use xlink:href="#DejaVuSans-53" transform="translate(31.787109 0)"/>
     <use xlink:href="#DejaVuSans-69" transform="translate(95.263672 0)"/>
     <use xlink:href="#DejaVuSans-6d" transform="translate(123.046875 0)"/>
     <use xlink:href="#DejaVuSans-75" transform="translate(220.458984 0)"/>
     <use xlink:href="#DejaVuSans-6c" transform="translate(283.837891 0)"/>
     <use xlink:href="#DejaVuSans-61" transform="translate(311.621094 0)"/>
     <use xlink:href="#DejaVuSans-74" transform="translate(372.900391 0)"/>
     <use xlink:href="#DejaVuSans-6f" transform="translate(412.109375 0)"/>
     <use xlink:href="#DejaVuSans-72" transform="translate(473.291016 0)"/>
     <use xlink:href="#DejaVuSans-73" transform="translate(514.404297 0)"/>
    </g>
    <!--  with Flexible -->
    <g transform="translate(321.424868 68.452262) scale(0.1 -0.1)">
     <defs>
      <path id="DejaVuSans-62" d="M 3116 1747 
Q 3116 2381 2855 2742 
Q 2594 3103 2138 3103 
Q 1681 3103 1420 2742 
Q 1159 2381 1159 1747 
Q 1159 1113 1420 752 
Q 1681 391 2138 391 
Q 2594 391 2855 752 
Q 3116 1113 3116 1747 
z
M 1159 2969 
Q 1341 3281 1617 3432 
Q 1894 3584 2278 3584 
Q 2916 3584 3314 3078 
Q 3713 2572 3713 1747 
Q 3713 922 3314 415 
Q 2916 -91 2278 -91 
Q 1894 -91 1617 61 
Q 1341 213 1159 525 
L 1159 0 
L 581 0 
L 581 4863 
L 1159 4863 
L 1159 2969 
z
" transform="scale(0.015625)"/>
     </defs>
     <use xlink:href="#DejaVuSans-20"/>
     <use xlink:href="#DejaVuSans-77" transform="translate(31.787109 0)"/>
     <use xlink:href="#DejaVuSans-69" transform="translate(113.574219 0)"/>
     <use xlink:href="#DejaVuSans-74" transform="translate(141.357422 0)"/>
     <use xlink:href="#DejaVuSans-68" transform="translate(180.566406 0)"/>
     <use xlink:href="#DejaVuSans-20" transform="translate(243.945312 0)"/>
     <use xlink:href="#DejaVuSans-46" transform="translate(275.732422 0)"/>
     <use xlink:href="#DejaVuSans-6c" transform="translate(333.251953 0)"/>
     <use xlink:href="#DejaVuSans-65" transform="translate(361.035156 0)"/>
     <use xlink:href="#DejaVuSans-78" transform="translate(420.808594 0)"/>
     <use xlink:href="#DejaVuSans-69" transform="translate(479.988281 0)"/>
     <use xlink:href="#DejaVuSans-62" transform="translate(507.771484 0)"/>
     <use xlink:href="#DejaVuSans-6c" transform="translate(571.248047 0)"/>
     <use xlink:href="#DejaVuSans-65" transform="translate(599.03125 0)"/>
    </g>
    <!--  State Functions -->
    <g transform="translate(314.169399 79.650075) scale(0.1 -0.1)">
     <use xlink:href="#DejaVuSans-20"/>
     <use xlink:href="#DejaVuSans-53" transform="translate(31.787109 0)"/>
     <use xlink:href="#DejaVuSans-74" transform="translate(95.263672 0)"/>
     <use xlink:href="#DejaVuSans-61" transform="translate(134.472656 0)"/>
     <use xlink:href="#DejaVuSans-74" transform="translate(195.751953 0)"/>
     <use xlink:href="#DejaVuSans-65" transform="translate(234.960938 0)"/>
     <use xlink:href="#DejaVuSans-20" transform="translate(296.484375 0)"/>
     <use xlink:href="#DejaVuSans-46" transform="translate(328.271484 0)"/>
     <use xlink:href="#DejaVuSans-75" transform="translate(380.291016 0)"/>
     <use xlink:href="#DejaVuSans-6e" transform="translate(443.669922 0)"/>
     <use xlink:href="#DejaVuSans-63" transform="translate(507.048828 0)"/>
     <use xlink:href="#DejaVuSans-74" transform="translate(562.029297 0)"/>
     <use xlink:href="#DejaVuSans-69" transform="translate(601.238281 0)"/>
     <use xlink:href="#DejaVuSans-6f" transform="translate(629.021484 0)"/>
     <use xlink:href="#DejaVuSans-6e" transform="translate(690.203125 0)"/>
     <use xlink:href="#DejaVuSans-73" transform="translate(753.582031 0)"/>
    </g>
    <!--  and Accurate -->
    <g transform="translate(319.710805 90.847887) scale(0.1 -0.1)">
     <use xlink:href="#DejaVuSans-20"/>
     <use xlink:href="#DejaVuSans-61" transform="translate(31.787109 0)"/>
     <use xlink:href="#DejaVuSans-6e" transform="translate(93.066406 0)"/>
     <use xlink:href="#DejaVuSans-64" transform="translate(156.445312 0)"/>
     <use xlink:href="#DejaVuSans-20" transform="translate(219.921875 0)"/>
     <use xlink:href="#DejaVuSans-41" transform="translate(251.708984 0)"/>
     <use xlink:href="#DejaVuSans-63" transform="translate(318.367188 0)"/>
     <use xlink:href="#DejaVuSans-63" transform="translate(373.347656 0)"/>
     <use xlink:href="#DejaVuSans-75" transform="translate(428.328125 0)"/>
     <use xlink:href="#DejaVuSans-72" transform="translate(491.707031 0)"/>
     <use xlink:href="#DejaVuSans-61" transform="translate(532.820312 0)"/>
     <use xlink:href="#DejaVuSans-74" transform="translate(594.099609 0)"/>
     <use xlink:href="#DejaVuSans-65" transform="translate(633.308594 0)"/>
    </g>
    <!--  Discretizations -->
    <g transform="translate(316.031118 102.0457) scale(0.1 -0.1)">
     <use xlink:href="#DejaVuSans-20"/>
     <use xlink:href="#DejaVuSans-44" transform="translate(31.787109 0)"/>
     <use xlink:href="#DejaVuSans-69" transform="translate(108.789062 0)"/>
     <use xlink:href="#DejaVuSans-73" transform="translate(136.572266 0)"/>
     <use xlink:href="#DejaVuSans-63" transform="translate(188.671875 0)"/>
     <use xlink:href="#DejaVuSans-72" transform="translate(243.652344 0)"/>
     <use xlink:href="#DejaVuSans-65" transform="translate(282.515625 0)"/>
     <use xlink:href="#DejaVuSans-74" transform="translate(344.039062 0)"/>
     <use xlink:href="#DejaVuSans-69" transform="translate(383.248047 0)"/>
     <use xlink:href="#DejaVuSans-7a" transform="translate(411.03125 0)"/>
     <use xlink:href="#DejaVuSans-61" transform="translate(463.521484 0)"/>
     <use xlink:href="#DejaVuSans-74" transform="translate(524.800781 0)"/>
     <use xlink:href="#DejaVuSans-69" transform="translate(564.009766 0)"/>
     <use xlink:href="#DejaVuSans-6f" transform="translate(591.792969 0)"/>
     <use xlink:href="#DejaVuSans-6e" transform="translate(652.974609 0)"/>
     <use xlink:href="#DejaVuSans-73" transform="translate(716.353516 0)"/>
    </g>
    <!--  -->
    <g transform="translate(354.452211 113.243512) scale(0.1 -0.1)"/>
   </g>
  </g>
 </g>
 <defs>
  <clipPath id="pb8eb97a349">
   <rect x="7.2" y="7.2" width="837" height="332.64"/>
  </clipPath>
 </defs>
</svg>
