<?xml version="1.0" encoding="utf-8" standalone="no"?>
<!DOCTYPE svg PUBLIC "-//W3C//DTD SVG 1.1//EN"
  "http://www.w3.org/Graphics/SVG/1.1/DTD/svg11.dtd">
<svg xmlns:xlink="http://www.w3.org/1999/xlink" width="851.4pt" height="347.04pt" viewBox="0 0 851.4 347.04" xmlns="http://www.w3.org/2000/svg" version="1.1">
 <metadata>
  <rdf:RDF xmlns:dc="http://purl.org/dc/elements/1.1/" xmlns:cc="http://creativecommons.org/ns#" xmlns:rdf="http://www.w3.org/1999/02/22-rdf-syntax-ns#">
   <cc:Work>
    <dc:type rdf:resource="http://purl.org/dc/dcmitype/StillImage"/>
    <dc:date>2025-07-09T13:06:57.230757</dc:date>
    <dc:format>image/svg+xml</dc:format>
    <dc:creator>
     <cc:Agent>
      <dc:title>Matplotlib v3.10.3, https://matplotlib.org/</dc:title>
     </cc:Agent>
    </dc:creator>
   </cc:Work>
  </rdf:RDF>
 </metadata>
 <defs>
  <style type="text/css">*{stroke-linejoin: round; stroke-linecap: butt}</style>
 </defs>
 <g id="figure_1">
  <g id="patch_1">
   <path d="M 0 347.04 
L 851.4 347.04 
L 851.4 -0 
L 0 -0 
z
" style="fill: #ffffff"/>
  </g>
  <g id="axes_1">
   <g id="patch_2">
    <path d="M 370.212631 80.074987 
Q 232.600298 189.499132 95.863064 298.227431 
" clip-path="url(#p0755d02d6f)" style="fill: none; stroke: #000000; stroke-linecap: round"/>
    <path d="M 100.238681 297.303322 
L 95.863064 298.227431 
L 97.749147 294.172472 
z
" clip-path="url(#p0755d02d6f)" style="stroke: #000000; stroke-linecap: round"/>
   </g>
   <g id="patch_3">
    <path d="M 378.308985 88.674286 
Q 284.949596 192.621434 192.337278 295.736786 
" clip-path="url(#p0755d02d6f)" style="fill: none; stroke: #000000; stroke-linecap: round"/>
    <path d="M 196.498044 294.097265 
L 192.337278 295.736786 
L 193.522121 291.424461 
z
" clip-path="url(#p0755d02d6f)" style="stroke: #000000; stroke-linecap: round"/>
   </g>
   <g id="patch_4">
    <path d="M 392.023799 98.320182 
Q 339.340084 196.121525 287.186596 292.938562 
" clip-path="url(#p0755d02d6f)" style="fill: none; stroke: #000000; stroke-linecap: round"/>
    <path d="M 290.844375 290.3655 
L 287.186596 292.938562 
L 287.322813 288.468501 
z
" clip-path="url(#p0755d02d6f)" style="stroke: #000000; stroke-linecap: round"/>
   </g>
   <g id="patch_5">
    <path d="M 413.084881 105.669436 
Q 396.395782 198.790729 379.903914 290.811521 
" clip-path="url(#p0755d02d6f)" style="fill: none; stroke: #000000; stroke-linecap: round"/>
    <path d="M 382.578182 287.227069 
L 379.903914 290.811521 
L 378.640913 286.521436 
z
" clip-path="url(#p0755d02d6f)" style="stroke: #000000; stroke-linecap: round"/>
   </g>
   <g id="patch_6">
    <path d="M 438.10184 105.652657 
Q 454.888241 198.784693 471.47632 290.816425 
" clip-path="url(#p0755d02d6f)" style="fill: none; stroke: #000000; stroke-linecap: round"/>
    <path d="M 472.735065 286.52509 
L 471.47632 290.816425 
L 468.798499 287.234628 
z
" clip-path="url(#p0755d02d6f)" style="stroke: #000000; stroke-linecap: round"/>
   </g>
   <g id="patch_7">
    <path d="M 459.144836 98.295013 
Q 511.938461 196.114422 564.201077 292.949946 
" clip-path="url(#p0755d02d6f)" style="fill: none; stroke: #000000; stroke-linecap: round"/>
    <path d="M 564.061313 288.479995 
L 564.201077 292.949946 
L 560.541258 290.379786 
z
" clip-path="url(#p0755d02d6f)" style="stroke: #000000; stroke-linecap: round"/>
   </g>
   <g id="patch_8">
    <path d="M 472.836952 88.644922 
Q 566.318191 192.609193 659.051887 295.742092 
" clip-path="url(#p0755d02d6f)" style="fill: none; stroke: #000000; stroke-linecap: round"/>
    <path d="M 657.864602 291.430439 
L 659.051887 295.742092 
L 654.890193 294.104929 
z
" clip-path="url(#p0755d02d6f)" style="stroke: #000000; stroke-linecap: round"/>
   </g>
   <g id="patch_9">
    <path d="M 480.924505 80.054013 
Q 618.665845 189.491621 755.53181 298.23373 
" clip-path="url(#p0755d02d6f)" style="fill: none; stroke: #000000; stroke-linecap: round"/>
    <path d="M 753.64412 294.17952 
L 755.53181 298.23373 
L 751.155827 297.311356 
z
" clip-path="url(#p0755d02d6f)" style="stroke: #000000; stroke-linecap: round"/>
   </g>
   <g id="PathCollection_1">
    <path d="M 79.832231 330.339462 
C 84.967867 330.339462 89.893852 328.299052 93.525295 324.667609 
C 97.156738 321.036166 99.197148 316.110181 99.197148 310.974545 
C 99.197148 305.83891 97.156738 300.912925 93.525295 297.281482 
C 89.893852 293.650039 84.967867 291.609629 79.832231 291.609629 
C 74.696595 291.609629 69.77061 293.650039 66.139167 297.281482 
C 62.507724 300.912925 60.467315 305.83891 60.467315 310.974545 
C 60.467315 316.110181 62.507724 321.036166 66.139167 324.667609 
C 69.77061 328.299052 74.696595 330.339462 79.832231 330.339462 
z
" clip-path="url(#p0755d02d6f)" style="fill: #add8e6; stroke: #add8e6"/>
    <path d="M 178.651594 330.339462 
C 183.78723 330.339462 188.713215 328.299052 192.344658 324.667609 
C 195.976101 321.036166 198.016511 316.110181 198.016511 310.974545 
C 198.016511 305.83891 195.976101 300.912925 192.344658 297.281482 
C 188.713215 293.650039 183.78723 291.609629 178.651594 291.609629 
C 173.515958 291.609629 168.589973 293.650039 164.95853 297.281482 
C 161.327087 300.912925 159.286677 305.83891 159.286677 310.974545 
C 159.286677 316.110181 161.327087 321.036166 164.95853 324.667609 
C 168.589973 328.299052 173.515958 330.339462 178.651594 330.339462 
z
" clip-path="url(#p0755d02d6f)" style="fill: #add8e6; stroke: #add8e6"/>
    <path d="M 277.470956 330.339462 
C 282.606592 330.339462 287.532577 328.299052 291.16402 324.667609 
C 294.795463 321.036166 296.835873 316.110181 296.835873 310.974545 
C 296.835873 305.83891 294.795463 300.912925 291.16402 297.281482 
C 287.532577 293.650039 282.606592 291.609629 277.470956 291.609629 
C 272.33532 291.609629 267.409335 293.650039 263.777892 297.281482 
C 260.146449 300.912925 258.10604 305.83891 258.10604 310.974545 
C 258.10604 316.110181 260.146449 321.036166 263.777892 324.667609 
C 267.409335 328.299052 272.33532 330.339462 277.470956 330.339462 
z
" clip-path="url(#p0755d02d6f)" style="fill: #add8e6; stroke: #add8e6"/>
    <path d="M 376.290319 330.339462 
C 381.425955 330.339462 386.35194 328.299052 389.983383 324.667609 
C 393.614826 321.036166 395.655236 316.110181 395.655236 310.974545 
C 395.655236 305.83891 393.614826 300.912925 389.983383 297.281482 
C 386.35194 293.650039 381.425955 291.609629 376.290319 291.609629 
C 371.154683 291.609629 366.228698 293.650039 362.597255 297.281482 
C 358.965812 300.912925 356.925402 305.83891 356.925402 310.974545 
C 356.925402 316.110181 358.965812 321.036166 362.597255 324.667609 
C 366.228698 328.299052 371.154683 330.339462 376.290319 330.339462 
z
" clip-path="url(#p0755d02d6f)" style="fill: #add8e6; stroke: #add8e6"/>
    <path d="M 475.109681 330.339462 
C 480.245317 330.339462 485.171302 328.299052 488.802745 324.667609 
C 492.434188 321.036166 494.474598 316.110181 494.474598 310.974545 
C 494.474598 305.83891 492.434188 300.912925 488.802745 297.281482 
C 485.171302 293.650039 480.245317 291.609629 475.109681 291.609629 
C 469.974045 291.609629 465.04806 293.650039 461.416617 297.281482 
C 457.785174 300.912925 455.744764 305.83891 455.744764 310.974545 
C 455.744764 316.110181 457.785174 321.036166 461.416617 324.667609 
C 465.04806 328.299052 469.974045 330.339462 475.109681 330.339462 
z
" clip-path="url(#p0755d02d6f)" style="fill: #add8e6; stroke: #add8e6"/>
    <path d="M 573.929044 330.339462 
C 579.06468 330.339462 583.990665 328.299052 587.622108 324.667609 
C 591.253551 321.036166 593.29396 316.110181 593.29396 310.974545 
C 593.29396 305.83891 591.253551 300.912925 587.622108 297.281482 
C 583.990665 293.650039 579.06468 291.609629 573.929044 291.609629 
C 568.793408 291.609629 563.867423 293.650039 560.23598 297.281482 
C 556.604537 300.912925 554.564127 305.83891 554.564127 310.974545 
C 554.564127 316.110181 556.604537 321.036166 560.23598 324.667609 
C 563.867423 328.299052 568.793408 330.339462 573.929044 330.339462 
z
" clip-path="url(#p0755d02d6f)" style="fill: #add8e6; stroke: #add8e6"/>
    <path d="M 672.748406 330.339462 
C 677.884042 330.339462 682.810027 328.299052 686.44147 324.667609 
C 690.072913 321.036166 692.113323 316.110181 692.113323 310.974545 
C 692.113323 305.83891 690.072913 300.912925 686.44147 297.281482 
C 682.810027 293.650039 677.884042 291.609629 672.748406 291.609629 
C 667.61277 291.609629 662.686785 293.650039 659.055342 297.281482 
C 655.423899 300.912925 653.383489 305.83891 653.383489 310.974545 
C 653.383489 316.110181 655.423899 321.036166 659.055342 324.667609 
C 662.686785 328.299052 667.61277 330.339462 672.748406 330.339462 
z
" clip-path="url(#p0755d02d6f)" style="fill: #add8e6; stroke: #add8e6"/>
    <path d="M 771.567769 330.339462 
C 776.703405 330.339462 781.62939 328.299052 785.260833 324.667609 
C 788.892276 321.036166 790.932685 316.110181 790.932685 310.974545 
C 790.932685 305.83891 788.892276 300.912925 785.260833 297.281482 
C 781.62939 293.650039 776.703405 291.609629 771.567769 291.609629 
C 766.432133 291.609629 761.506148 293.650039 757.874705 297.281482 
C 754.243262 300.912925 752.202852 305.83891 752.202852 310.974545 
C 752.202852 316.110181 754.243262 321.036166 757.874705 324.667609 
C 761.506148 328.299052 766.432133 330.339462 771.567769 330.339462 
z
" clip-path="url(#p0755d02d6f)" style="fill: #add8e6; stroke: #add8e6"/>
    <path d="M 425.559232 106.776133 
C 444.311923 106.776133 462.299077 99.32561 475.559232 86.065455 
C 488.819387 72.8053 496.26991 54.818146 496.26991 36.065455 
C 496.26991 17.312764 488.819387 -0.67439 475.559232 -13.934545 
C 462.299077 -27.1947 444.311923 -34.645224 425.559232 -34.645224 
C 406.806541 -34.645224 388.819387 -27.1947 375.559232 -13.934545 
C 362.299077 -0.67439 354.848554 17.312764 354.848554 36.065455 
C 354.848554 54.818146 362.299077 72.8053 375.559232 86.065455 
C 388.819387 99.32561 406.806541 106.776133 425.559232 106.776133 
z
" clip-path="url(#p0755d02d6f)" style="fill: #add8e6; stroke: #add8e6"/>
   </g>
   <g id="text_1">
    <!--  9.1 : Introduction -->
    <g transform="translate(66.42856 310.122686) scale(0.03 -0.03)">
     <defs>
      <path id="DejaVuSans-20" transform="scale(0.015625)"/>
      <path id="DejaVuSans-39" d="M 703 97 
L 703 672 
Q 941 559 1184 500 
Q 1428 441 1663 441 
Q 2288 441 2617 861 
Q 2947 1281 2994 2138 
Q 2813 1869 2534 1725 
Q 2256 1581 1919 1581 
Q 1219 1581 811 2004 
Q 403 2428 403 3163 
Q 403 3881 828 4315 
Q 1253 4750 1959 4750 
Q 2769 4750 3195 4129 
Q 3622 3509 3622 2328 
Q 3622 1225 3098 567 
Q 2575 -91 1691 -91 
Q 1453 -91 1209 -44 
Q 966 3 703 97 
z
M 1959 2075 
Q 2384 2075 2632 2365 
Q 2881 2656 2881 3163 
Q 2881 3666 2632 3958 
Q 2384 4250 1959 4250 
Q 1534 4250 1286 3958 
Q 1038 3666 1038 3163 
Q 1038 2656 1286 2365 
Q 1534 2075 1959 2075 
z
" transform="scale(0.015625)"/>
      <path id="DejaVuSans-2e" d="M 684 794 
L 1344 794 
L 1344 0 
L 684 0 
L 684 794 
z
" transform="scale(0.015625)"/>
      <path id="DejaVuSans-31" d="M 794 531 
L 1825 531 
L 1825 4091 
L 703 3866 
L 703 4441 
L 1819 4666 
L 2450 4666 
L 2450 531 
L 3481 531 
L 3481 0 
L 794 0 
L 794 531 
z
" transform="scale(0.015625)"/>
      <path id="DejaVuSans-3a" d="M 750 794 
L 1409 794 
L 1409 0 
L 750 0 
L 750 794 
z
M 750 3309 
L 1409 3309 
L 1409 2516 
L 750 2516 
L 750 3309 
z
" transform="scale(0.015625)"/>
      <path id="DejaVuSans-49" d="M 628 4666 
L 1259 4666 
L 1259 0 
L 628 0 
L 628 4666 
z
" transform="scale(0.015625)"/>
      <path id="DejaVuSans-6e" d="M 3513 2113 
L 3513 0 
L 2938 0 
L 2938 2094 
Q 2938 2591 2744 2837 
Q 2550 3084 2163 3084 
Q 1697 3084 1428 2787 
Q 1159 2491 1159 1978 
L 1159 0 
L 581 0 
L 581 3500 
L 1159 3500 
L 1159 2956 
Q 1366 3272 1645 3428 
Q 1925 3584 2291 3584 
Q 2894 3584 3203 3211 
Q 3513 2838 3513 2113 
z
" transform="scale(0.015625)"/>
      <path id="DejaVuSans-74" d="M 1172 4494 
L 1172 3500 
L 2356 3500 
L 2356 3053 
L 1172 3053 
L 1172 1153 
Q 1172 725 1289 603 
Q 1406 481 1766 481 
L 2356 481 
L 2356 0 
L 1766 0 
Q 1100 0 847 248 
Q 594 497 594 1153 
L 594 3053 
L 172 3053 
L 172 3500 
L 594 3500 
L 594 4494 
L 1172 4494 
z
" transform="scale(0.015625)"/>
      <path id="DejaVuSans-72" d="M 2631 2963 
Q 2534 3019 2420 3045 
Q 2306 3072 2169 3072 
Q 1681 3072 1420 2755 
Q 1159 2438 1159 1844 
L 1159 0 
L 581 0 
L 581 3500 
L 1159 3500 
L 1159 2956 
Q 1341 3275 1631 3429 
Q 1922 3584 2338 3584 
Q 2397 3584 2469 3576 
Q 2541 3569 2628 3553 
L 2631 2963 
z
" transform="scale(0.015625)"/>
      <path id="DejaVuSans-6f" d="M 1959 3097 
Q 1497 3097 1228 2736 
Q 959 2375 959 1747 
Q 959 1119 1226 758 
Q 1494 397 1959 397 
Q 2419 397 2687 759 
Q 2956 1122 2956 1747 
Q 2956 2369 2687 2733 
Q 2419 3097 1959 3097 
z
M 1959 3584 
Q 2709 3584 3137 3096 
Q 3566 2609 3566 1747 
Q 3566 888 3137 398 
Q 2709 -91 1959 -91 
Q 1206 -91 779 398 
Q 353 888 353 1747 
Q 353 2609 779 3096 
Q 1206 3584 1959 3584 
z
" transform="scale(0.015625)"/>
      <path id="DejaVuSans-64" d="M 2906 2969 
L 2906 4863 
L 3481 4863 
L 3481 0 
L 2906 0 
L 2906 525 
Q 2725 213 2448 61 
Q 2172 -91 1784 -91 
Q 1150 -91 751 415 
Q 353 922 353 1747 
Q 353 2572 751 3078 
Q 1150 3584 1784 3584 
Q 2172 3584 2448 3432 
Q 2725 3281 2906 2969 
z
M 947 1747 
Q 947 1113 1208 752 
Q 1469 391 1925 391 
Q 2381 391 2643 752 
Q 2906 1113 2906 1747 
Q 2906 2381 2643 2742 
Q 2381 3103 1925 3103 
Q 1469 3103 1208 2742 
Q 947 2381 947 1747 
z
" transform="scale(0.015625)"/>
      <path id="DejaVuSans-75" d="M 544 1381 
L 544 3500 
L 1119 3500 
L 1119 1403 
Q 1119 906 1312 657 
Q 1506 409 1894 409 
Q 2359 409 2629 706 
Q 2900 1003 2900 1516 
L 2900 3500 
L 3475 3500 
L 3475 0 
L 2900 0 
L 2900 538 
Q 2691 219 2414 64 
Q 2138 -91 1772 -91 
Q 1169 -91 856 284 
Q 544 659 544 1381 
z
M 1991 3584 
L 1991 3584 
z
" transform="scale(0.015625)"/>
      <path id="DejaVuSans-63" d="M 3122 3366 
L 3122 2828 
Q 2878 2963 2633 3030 
Q 2388 3097 2138 3097 
Q 1578 3097 1268 2742 
Q 959 2388 959 1747 
Q 959 1106 1268 751 
Q 1578 397 2138 397 
Q 2388 397 2633 464 
Q 2878 531 3122 666 
L 3122 134 
Q 2881 22 2623 -34 
Q 2366 -91 2075 -91 
Q 1284 -91 818 406 
Q 353 903 353 1747 
Q 353 2603 823 3093 
Q 1294 3584 2113 3584 
Q 2378 3584 2631 3529 
Q 2884 3475 3122 3366 
z
" transform="scale(0.015625)"/>
      <path id="DejaVuSans-69" d="M 603 3500 
L 1178 3500 
L 1178 0 
L 603 0 
L 603 3500 
z
M 603 4863 
L 1178 4863 
L 1178 4134 
L 603 4134 
L 603 4863 
z
" transform="scale(0.015625)"/>
     </defs>
     <use xlink:href="#DejaVuSans-20"/>
     <use xlink:href="#DejaVuSans-39" transform="translate(31.787109 0)"/>
     <use xlink:href="#DejaVuSans-2e" transform="translate(95.410156 0)"/>
     <use xlink:href="#DejaVuSans-31" transform="translate(127.197266 0)"/>
     <use xlink:href="#DejaVuSans-20" transform="translate(190.820312 0)"/>
     <use xlink:href="#DejaVuSans-3a" transform="translate(222.607422 0)"/>
     <use xlink:href="#DejaVuSans-20" transform="translate(256.298828 0)"/>
     <use xlink:href="#DejaVuSans-49" transform="translate(288.085938 0)"/>
     <use xlink:href="#DejaVuSans-6e" transform="translate(317.578125 0)"/>
     <use xlink:href="#DejaVuSans-74" transform="translate(380.957031 0)"/>
     <use xlink:href="#DejaVuSans-72" transform="translate(420.166016 0)"/>
     <use xlink:href="#DejaVuSans-6f" transform="translate(459.029297 0)"/>
     <use xlink:href="#DejaVuSans-64" transform="translate(520.210938 0)"/>
     <use xlink:href="#DejaVuSans-75" transform="translate(583.6875 0)"/>
     <use xlink:href="#DejaVuSans-63" transform="translate(647.066406 0)"/>
     <use xlink:href="#DejaVuSans-74" transform="translate(702.046875 0)"/>
     <use xlink:href="#DejaVuSans-69" transform="translate(741.255859 0)"/>
     <use xlink:href="#DejaVuSans-6f" transform="translate(769.039062 0)"/>
     <use xlink:href="#DejaVuSans-6e" transform="translate(830.220703 0)"/>
    </g>
    <!--  -->
    <g transform="translate(79.832231 313.48203) scale(0.03 -0.03)"/>
   </g>
   <g id="text_2">
    <!--  9.2 : Fracture -->
    <g transform="translate(168.171516 308.443014) scale(0.03 -0.03)">
     <defs>
      <path id="DejaVuSans-32" d="M 1228 531 
L 3431 531 
L 3431 0 
L 469 0 
L 469 531 
Q 828 903 1448 1529 
Q 2069 2156 2228 2338 
Q 2531 2678 2651 2914 
Q 2772 3150 2772 3378 
Q 2772 3750 2511 3984 
Q 2250 4219 1831 4219 
Q 1534 4219 1204 4116 
Q 875 4013 500 3803 
L 500 4441 
Q 881 4594 1212 4672 
Q 1544 4750 1819 4750 
Q 2544 4750 2975 4387 
Q 3406 4025 3406 3419 
Q 3406 3131 3298 2873 
Q 3191 2616 2906 2266 
Q 2828 2175 2409 1742 
Q 1991 1309 1228 531 
z
" transform="scale(0.015625)"/>
      <path id="DejaVuSans-46" d="M 628 4666 
L 3309 4666 
L 3309 4134 
L 1259 4134 
L 1259 2759 
L 3109 2759 
L 3109 2228 
L 1259 2228 
L 1259 0 
L 628 0 
L 628 4666 
z
" transform="scale(0.015625)"/>
      <path id="DejaVuSans-61" d="M 2194 1759 
Q 1497 1759 1228 1600 
Q 959 1441 959 1056 
Q 959 750 1161 570 
Q 1363 391 1709 391 
Q 2188 391 2477 730 
Q 2766 1069 2766 1631 
L 2766 1759 
L 2194 1759 
z
M 3341 1997 
L 3341 0 
L 2766 0 
L 2766 531 
Q 2569 213 2275 61 
Q 1981 -91 1556 -91 
Q 1019 -91 701 211 
Q 384 513 384 1019 
Q 384 1609 779 1909 
Q 1175 2209 1959 2209 
L 2766 2209 
L 2766 2266 
Q 2766 2663 2505 2880 
Q 2244 3097 1772 3097 
Q 1472 3097 1187 3025 
Q 903 2953 641 2809 
L 641 3341 
Q 956 3463 1253 3523 
Q 1550 3584 1831 3584 
Q 2591 3584 2966 3190 
Q 3341 2797 3341 1997 
z
" transform="scale(0.015625)"/>
      <path id="DejaVuSans-65" d="M 3597 1894 
L 3597 1613 
L 953 1613 
Q 991 1019 1311 708 
Q 1631 397 2203 397 
Q 2534 397 2845 478 
Q 3156 559 3463 722 
L 3463 178 
Q 3153 47 2828 -22 
Q 2503 -91 2169 -91 
Q 1331 -91 842 396 
Q 353 884 353 1716 
Q 353 2575 817 3079 
Q 1281 3584 2069 3584 
Q 2775 3584 3186 3129 
Q 3597 2675 3597 1894 
z
M 3022 2063 
Q 3016 2534 2758 2815 
Q 2500 3097 2075 3097 
Q 1594 3097 1305 2825 
Q 1016 2553 972 2059 
L 3022 2063 
z
" transform="scale(0.015625)"/>
     </defs>
     <use xlink:href="#DejaVuSans-20"/>
     <use xlink:href="#DejaVuSans-39" transform="translate(31.787109 0)"/>
     <use xlink:href="#DejaVuSans-2e" transform="translate(95.410156 0)"/>
     <use xlink:href="#DejaVuSans-32" transform="translate(127.197266 0)"/>
     <use xlink:href="#DejaVuSans-20" transform="translate(190.820312 0)"/>
     <use xlink:href="#DejaVuSans-3a" transform="translate(222.607422 0)"/>
     <use xlink:href="#DejaVuSans-20" transform="translate(256.298828 0)"/>
     <use xlink:href="#DejaVuSans-46" transform="translate(288.085938 0)"/>
     <use xlink:href="#DejaVuSans-72" transform="translate(338.355469 0)"/>
     <use xlink:href="#DejaVuSans-61" transform="translate(379.46875 0)"/>
     <use xlink:href="#DejaVuSans-63" transform="translate(440.748047 0)"/>
     <use xlink:href="#DejaVuSans-74" transform="translate(495.728516 0)"/>
     <use xlink:href="#DejaVuSans-75" transform="translate(534.9375 0)"/>
     <use xlink:href="#DejaVuSans-72" transform="translate(598.316406 0)"/>
     <use xlink:href="#DejaVuSans-65" transform="translate(637.179688 0)"/>
    </g>
    <!--  Permeability -->
    <g transform="translate(168.829875 311.802358) scale(0.03 -0.03)">
     <defs>
      <path id="DejaVuSans-50" d="M 1259 4147 
L 1259 2394 
L 2053 2394 
Q 2494 2394 2734 2622 
Q 2975 2850 2975 3272 
Q 2975 3691 2734 3919 
Q 2494 4147 2053 4147 
L 1259 4147 
z
M 628 4666 
L 2053 4666 
Q 2838 4666 3239 4311 
Q 3641 3956 3641 3272 
Q 3641 2581 3239 2228 
Q 2838 1875 2053 1875 
L 1259 1875 
L 1259 0 
L 628 0 
L 628 4666 
z
" transform="scale(0.015625)"/>
      <path id="DejaVuSans-6d" d="M 3328 2828 
Q 3544 3216 3844 3400 
Q 4144 3584 4550 3584 
Q 5097 3584 5394 3201 
Q 5691 2819 5691 2113 
L 5691 0 
L 5113 0 
L 5113 2094 
Q 5113 2597 4934 2840 
Q 4756 3084 4391 3084 
Q 3944 3084 3684 2787 
Q 3425 2491 3425 1978 
L 3425 0 
L 2847 0 
L 2847 2094 
Q 2847 2600 2669 2842 
Q 2491 3084 2119 3084 
Q 1678 3084 1418 2786 
Q 1159 2488 1159 1978 
L 1159 0 
L 581 0 
L 581 3500 
L 1159 3500 
L 1159 2956 
Q 1356 3278 1631 3431 
Q 1906 3584 2284 3584 
Q 2666 3584 2933 3390 
Q 3200 3197 3328 2828 
z
" transform="scale(0.015625)"/>
      <path id="DejaVuSans-62" d="M 3116 1747 
Q 3116 2381 2855 2742 
Q 2594 3103 2138 3103 
Q 1681 3103 1420 2742 
Q 1159 2381 1159 1747 
Q 1159 1113 1420 752 
Q 1681 391 2138 391 
Q 2594 391 2855 752 
Q 3116 1113 3116 1747 
z
M 1159 2969 
Q 1341 3281 1617 3432 
Q 1894 3584 2278 3584 
Q 2916 3584 3314 3078 
Q 3713 2572 3713 1747 
Q 3713 922 3314 415 
Q 2916 -91 2278 -91 
Q 1894 -91 1617 61 
Q 1341 213 1159 525 
L 1159 0 
L 581 0 
L 581 4863 
L 1159 4863 
L 1159 2969 
z
" transform="scale(0.015625)"/>
      <path id="DejaVuSans-6c" d="M 603 4863 
L 1178 4863 
L 1178 0 
L 603 0 
L 603 4863 
z
" transform="scale(0.015625)"/>
      <path id="DejaVuSans-79" d="M 2059 -325 
Q 1816 -950 1584 -1140 
Q 1353 -1331 966 -1331 
L 506 -1331 
L 506 -850 
L 844 -850 
Q 1081 -850 1212 -737 
Q 1344 -625 1503 -206 
L 1606 56 
L 191 3500 
L 800 3500 
L 1894 763 
L 2988 3500 
L 3597 3500 
L 2059 -325 
z
" transform="scale(0.015625)"/>
     </defs>
     <use xlink:href="#DejaVuSans-20"/>
     <use xlink:href="#DejaVuSans-50" transform="translate(31.787109 0)"/>
     <use xlink:href="#DejaVuSans-65" transform="translate(88.464844 0)"/>
     <use xlink:href="#DejaVuSans-72" transform="translate(149.988281 0)"/>
     <use xlink:href="#DejaVuSans-6d" transform="translate(189.351562 0)"/>
     <use xlink:href="#DejaVuSans-65" transform="translate(286.763672 0)"/>
     <use xlink:href="#DejaVuSans-61" transform="translate(348.287109 0)"/>
     <use xlink:href="#DejaVuSans-62" transform="translate(409.566406 0)"/>
     <use xlink:href="#DejaVuSans-69" transform="translate(473.042969 0)"/>
     <use xlink:href="#DejaVuSans-6c" transform="translate(500.826172 0)"/>
     <use xlink:href="#DejaVuSans-69" transform="translate(528.609375 0)"/>
     <use xlink:href="#DejaVuSans-74" transform="translate(556.392578 0)"/>
     <use xlink:href="#DejaVuSans-79" transform="translate(595.601562 0)"/>
    </g>
    <!--  -->
    <g transform="translate(178.651594 315.161702) scale(0.03 -0.03)"/>
   </g>
   <g id="text_3">
    <!--  9.3 : Mathematical -->
    <g transform="translate(262.929159 308.443014) scale(0.03 -0.03)">
     <defs>
      <path id="DejaVuSans-33" d="M 2597 2516 
Q 3050 2419 3304 2112 
Q 3559 1806 3559 1356 
Q 3559 666 3084 287 
Q 2609 -91 1734 -91 
Q 1441 -91 1130 -33 
Q 819 25 488 141 
L 488 750 
Q 750 597 1062 519 
Q 1375 441 1716 441 
Q 2309 441 2620 675 
Q 2931 909 2931 1356 
Q 2931 1769 2642 2001 
Q 2353 2234 1838 2234 
L 1294 2234 
L 1294 2753 
L 1863 2753 
Q 2328 2753 2575 2939 
Q 2822 3125 2822 3475 
Q 2822 3834 2567 4026 
Q 2313 4219 1838 4219 
Q 1578 4219 1281 4162 
Q 984 4106 628 3988 
L 628 4550 
Q 988 4650 1302 4700 
Q 1616 4750 1894 4750 
Q 2613 4750 3031 4423 
Q 3450 4097 3450 3541 
Q 3450 3153 3228 2886 
Q 3006 2619 2597 2516 
z
" transform="scale(0.015625)"/>
      <path id="DejaVuSans-4d" d="M 628 4666 
L 1569 4666 
L 2759 1491 
L 3956 4666 
L 4897 4666 
L 4897 0 
L 4281 0 
L 4281 4097 
L 3078 897 
L 2444 897 
L 1241 4097 
L 1241 0 
L 628 0 
L 628 4666 
z
" transform="scale(0.015625)"/>
      <path id="DejaVuSans-68" d="M 3513 2113 
L 3513 0 
L 2938 0 
L 2938 2094 
Q 2938 2591 2744 2837 
Q 2550 3084 2163 3084 
Q 1697 3084 1428 2787 
Q 1159 2491 1159 1978 
L 1159 0 
L 581 0 
L 581 4863 
L 1159 4863 
L 1159 2956 
Q 1366 3272 1645 3428 
Q 1925 3584 2291 3584 
Q 2894 3584 3203 3211 
Q 3513 2838 3513 2113 
z
" transform="scale(0.015625)"/>
     </defs>
     <use xlink:href="#DejaVuSans-20"/>
     <use xlink:href="#DejaVuSans-39" transform="translate(31.787109 0)"/>
     <use xlink:href="#DejaVuSans-2e" transform="translate(95.410156 0)"/>
     <use xlink:href="#DejaVuSans-33" transform="translate(127.197266 0)"/>
     <use xlink:href="#DejaVuSans-20" transform="translate(190.820312 0)"/>
     <use xlink:href="#DejaVuSans-3a" transform="translate(222.607422 0)"/>
     <use xlink:href="#DejaVuSans-20" transform="translate(256.298828 0)"/>
     <use xlink:href="#DejaVuSans-4d" transform="translate(288.085938 0)"/>
     <use xlink:href="#DejaVuSans-61" transform="translate(374.365234 0)"/>
     <use xlink:href="#DejaVuSans-74" transform="translate(435.644531 0)"/>
     <use xlink:href="#DejaVuSans-68" transform="translate(474.853516 0)"/>
     <use xlink:href="#DejaVuSans-65" transform="translate(538.232422 0)"/>
     <use xlink:href="#DejaVuSans-6d" transform="translate(599.755859 0)"/>
     <use xlink:href="#DejaVuSans-61" transform="translate(697.167969 0)"/>
     <use xlink:href="#DejaVuSans-74" transform="translate(758.447266 0)"/>
     <use xlink:href="#DejaVuSans-69" transform="translate(797.65625 0)"/>
     <use xlink:href="#DejaVuSans-63" transform="translate(825.439453 0)"/>
     <use xlink:href="#DejaVuSans-61" transform="translate(880.419922 0)"/>
     <use xlink:href="#DejaVuSans-6c" transform="translate(941.699219 0)"/>
    </g>
    <!--  Formulation -->
    <g transform="translate(268.056816 311.802358) scale(0.03 -0.03)">
     <use xlink:href="#DejaVuSans-20"/>
     <use xlink:href="#DejaVuSans-46" transform="translate(31.787109 0)"/>
     <use xlink:href="#DejaVuSans-6f" transform="translate(85.681641 0)"/>
     <use xlink:href="#DejaVuSans-72" transform="translate(146.863281 0)"/>
     <use xlink:href="#DejaVuSans-6d" transform="translate(186.226562 0)"/>
     <use xlink:href="#DejaVuSans-75" transform="translate(283.638672 0)"/>
     <use xlink:href="#DejaVuSans-6c" transform="translate(347.017578 0)"/>
     <use xlink:href="#DejaVuSans-61" transform="translate(374.800781 0)"/>
     <use xlink:href="#DejaVuSans-74" transform="translate(436.080078 0)"/>
     <use xlink:href="#DejaVuSans-69" transform="translate(475.289062 0)"/>
     <use xlink:href="#DejaVuSans-6f" transform="translate(503.072266 0)"/>
     <use xlink:href="#DejaVuSans-6e" transform="translate(564.253906 0)"/>
    </g>
    <!--  -->
    <g transform="translate(277.470956 315.161702) scale(0.03 -0.03)"/>
   </g>
   <g id="text_4">
    <!--  9.4 : Hierarchical -->
    <g transform="translate(363.030084 308.443014) scale(0.03 -0.03)">
     <defs>
      <path id="DejaVuSans-34" d="M 2419 4116 
L 825 1625 
L 2419 1625 
L 2419 4116 
z
M 2253 4666 
L 3047 4666 
L 3047 1625 
L 3713 1625 
L 3713 1100 
L 3047 1100 
L 3047 0 
L 2419 0 
L 2419 1100 
L 313 1100 
L 313 1709 
L 2253 4666 
z
" transform="scale(0.015625)"/>
      <path id="DejaVuSans-48" d="M 628 4666 
L 1259 4666 
L 1259 2753 
L 3553 2753 
L 3553 4666 
L 4184 4666 
L 4184 0 
L 3553 0 
L 3553 2222 
L 1259 2222 
L 1259 0 
L 628 0 
L 628 4666 
z
" transform="scale(0.015625)"/>
     </defs>
     <use xlink:href="#DejaVuSans-20"/>
     <use xlink:href="#DejaVuSans-39" transform="translate(31.787109 0)"/>
     <use xlink:href="#DejaVuSans-2e" transform="translate(95.410156 0)"/>
     <use xlink:href="#DejaVuSans-34" transform="translate(127.197266 0)"/>
     <use xlink:href="#DejaVuSans-20" transform="translate(190.820312 0)"/>
     <use xlink:href="#DejaVuSans-3a" transform="translate(222.607422 0)"/>
     <use xlink:href="#DejaVuSans-20" transform="translate(256.298828 0)"/>
     <use xlink:href="#DejaVuSans-48" transform="translate(288.085938 0)"/>
     <use xlink:href="#DejaVuSans-69" transform="translate(363.28125 0)"/>
     <use xlink:href="#DejaVuSans-65" transform="translate(391.064453 0)"/>
     <use xlink:href="#DejaVuSans-72" transform="translate(452.587891 0)"/>
     <use xlink:href="#DejaVuSans-61" transform="translate(493.701172 0)"/>
     <use xlink:href="#DejaVuSans-72" transform="translate(554.980469 0)"/>
     <use xlink:href="#DejaVuSans-63" transform="translate(593.84375 0)"/>
     <use xlink:href="#DejaVuSans-68" transform="translate(648.824219 0)"/>
     <use xlink:href="#DejaVuSans-69" transform="translate(712.203125 0)"/>
     <use xlink:href="#DejaVuSans-63" transform="translate(739.986328 0)"/>
     <use xlink:href="#DejaVuSans-61" transform="translate(794.966797 0)"/>
     <use xlink:href="#DejaVuSans-6c" transform="translate(856.246094 0)"/>
    </g>
    <!--  Fracture Model -->
    <g transform="translate(364.673756 311.802358) scale(0.03 -0.03)">
     <use xlink:href="#DejaVuSans-20"/>
     <use xlink:href="#DejaVuSans-46" transform="translate(31.787109 0)"/>
     <use xlink:href="#DejaVuSans-72" transform="translate(82.056641 0)"/>
     <use xlink:href="#DejaVuSans-61" transform="translate(123.169922 0)"/>
     <use xlink:href="#DejaVuSans-63" transform="translate(184.449219 0)"/>
     <use xlink:href="#DejaVuSans-74" transform="translate(239.429688 0)"/>
     <use xlink:href="#DejaVuSans-75" transform="translate(278.638672 0)"/>
     <use xlink:href="#DejaVuSans-72" transform="translate(342.017578 0)"/>
     <use xlink:href="#DejaVuSans-65" transform="translate(380.880859 0)"/>
     <use xlink:href="#DejaVuSans-20" transform="translate(442.404297 0)"/>
     <use xlink:href="#DejaVuSans-4d" transform="translate(474.191406 0)"/>
     <use xlink:href="#DejaVuSans-6f" transform="translate(560.470703 0)"/>
     <use xlink:href="#DejaVuSans-64" transform="translate(621.652344 0)"/>
     <use xlink:href="#DejaVuSans-65" transform="translate(685.128906 0)"/>
     <use xlink:href="#DejaVuSans-6c" transform="translate(746.652344 0)"/>
    </g>
    <!--  Module -->
    <g transform="translate(370.358991 315.161702) scale(0.03 -0.03)">
     <use xlink:href="#DejaVuSans-20"/>
     <use xlink:href="#DejaVuSans-4d" transform="translate(31.787109 0)"/>
     <use xlink:href="#DejaVuSans-6f" transform="translate(118.066406 0)"/>
     <use xlink:href="#DejaVuSans-64" transform="translate(179.248047 0)"/>
     <use xlink:href="#DejaVuSans-75" transform="translate(242.724609 0)"/>
     <use xlink:href="#DejaVuSans-6c" transform="translate(306.103516 0)"/>
     <use xlink:href="#DejaVuSans-65" transform="translate(333.886719 0)"/>
    </g>
   </g>
   <g id="text_5">
    <!--  9.5 : Two-Phase -->
    <g transform="translate(462.927572 306.763342) scale(0.03 -0.03)">
     <defs>
      <path id="DejaVuSans-35" d="M 691 4666 
L 3169 4666 
L 3169 4134 
L 1269 4134 
L 1269 2991 
Q 1406 3038 1543 3061 
Q 1681 3084 1819 3084 
Q 2600 3084 3056 2656 
Q 3513 2228 3513 1497 
Q 3513 744 3044 326 
Q 2575 -91 1722 -91 
Q 1428 -91 1123 -41 
Q 819 9 494 109 
L 494 744 
Q 775 591 1075 516 
Q 1375 441 1709 441 
Q 2250 441 2565 725 
Q 2881 1009 2881 1497 
Q 2881 1984 2565 2268 
Q 2250 2553 1709 2553 
Q 1456 2553 1204 2497 
Q 953 2441 691 2322 
L 691 4666 
z
" transform="scale(0.015625)"/>
      <path id="DejaVuSans-54" d="M -19 4666 
L 3928 4666 
L 3928 4134 
L 2272 4134 
L 2272 0 
L 1638 0 
L 1638 4134 
L -19 4134 
L -19 4666 
z
" transform="scale(0.015625)"/>
      <path id="DejaVuSans-77" d="M 269 3500 
L 844 3500 
L 1563 769 
L 2278 3500 
L 2956 3500 
L 3675 769 
L 4391 3500 
L 4966 3500 
L 4050 0 
L 3372 0 
L 2619 2869 
L 1863 0 
L 1184 0 
L 269 3500 
z
" transform="scale(0.015625)"/>
      <path id="DejaVuSans-2d" d="M 313 2009 
L 1997 2009 
L 1997 1497 
L 313 1497 
L 313 2009 
z
" transform="scale(0.015625)"/>
      <path id="DejaVuSans-73" d="M 2834 3397 
L 2834 2853 
Q 2591 2978 2328 3040 
Q 2066 3103 1784 3103 
Q 1356 3103 1142 2972 
Q 928 2841 928 2578 
Q 928 2378 1081 2264 
Q 1234 2150 1697 2047 
L 1894 2003 
Q 2506 1872 2764 1633 
Q 3022 1394 3022 966 
Q 3022 478 2636 193 
Q 2250 -91 1575 -91 
Q 1294 -91 989 -36 
Q 684 19 347 128 
L 347 722 
Q 666 556 975 473 
Q 1284 391 1588 391 
Q 1994 391 2212 530 
Q 2431 669 2431 922 
Q 2431 1156 2273 1281 
Q 2116 1406 1581 1522 
L 1381 1569 
Q 847 1681 609 1914 
Q 372 2147 372 2553 
Q 372 3047 722 3315 
Q 1072 3584 1716 3584 
Q 2034 3584 2315 3537 
Q 2597 3491 2834 3397 
z
" transform="scale(0.015625)"/>
     </defs>
     <use xlink:href="#DejaVuSans-20"/>
     <use xlink:href="#DejaVuSans-39" transform="translate(31.787109 0)"/>
     <use xlink:href="#DejaVuSans-2e" transform="translate(95.410156 0)"/>
     <use xlink:href="#DejaVuSans-35" transform="translate(127.197266 0)"/>
     <use xlink:href="#DejaVuSans-20" transform="translate(190.820312 0)"/>
     <use xlink:href="#DejaVuSans-3a" transform="translate(222.607422 0)"/>
     <use xlink:href="#DejaVuSans-20" transform="translate(256.298828 0)"/>
     <use xlink:href="#DejaVuSans-54" transform="translate(288.085938 0)"/>
     <use xlink:href="#DejaVuSans-77" transform="translate(332.669922 0)"/>
     <use xlink:href="#DejaVuSans-6f" transform="translate(414.457031 0)"/>
     <use xlink:href="#DejaVuSans-2d" transform="translate(477.513672 0)"/>
     <use xlink:href="#DejaVuSans-50" transform="translate(513.597656 0)"/>
     <use xlink:href="#DejaVuSans-68" transform="translate(573.900391 0)"/>
     <use xlink:href="#DejaVuSans-61" transform="translate(637.279297 0)"/>
     <use xlink:href="#DejaVuSans-73" transform="translate(698.558594 0)"/>
     <use xlink:href="#DejaVuSans-65" transform="translate(750.658203 0)"/>
    </g>
    <!--  Flow through -->
    <g transform="translate(464.839369 310.122686) scale(0.03 -0.03)">
     <defs>
      <path id="DejaVuSans-67" d="M 2906 1791 
Q 2906 2416 2648 2759 
Q 2391 3103 1925 3103 
Q 1463 3103 1205 2759 
Q 947 2416 947 1791 
Q 947 1169 1205 825 
Q 1463 481 1925 481 
Q 2391 481 2648 825 
Q 2906 1169 2906 1791 
z
M 3481 434 
Q 3481 -459 3084 -895 
Q 2688 -1331 1869 -1331 
Q 1566 -1331 1297 -1286 
Q 1028 -1241 775 -1147 
L 775 -588 
Q 1028 -725 1275 -790 
Q 1522 -856 1778 -856 
Q 2344 -856 2625 -561 
Q 2906 -266 2906 331 
L 2906 616 
Q 2728 306 2450 153 
Q 2172 0 1784 0 
Q 1141 0 747 490 
Q 353 981 353 1791 
Q 353 2603 747 3093 
Q 1141 3584 1784 3584 
Q 2172 3584 2450 3431 
Q 2728 3278 2906 2969 
L 2906 3500 
L 3481 3500 
L 3481 434 
z
" transform="scale(0.015625)"/>
     </defs>
     <use xlink:href="#DejaVuSans-20"/>
     <use xlink:href="#DejaVuSans-46" transform="translate(31.787109 0)"/>
     <use xlink:href="#DejaVuSans-6c" transform="translate(89.306641 0)"/>
     <use xlink:href="#DejaVuSans-6f" transform="translate(117.089844 0)"/>
     <use xlink:href="#DejaVuSans-77" transform="translate(178.271484 0)"/>
     <use xlink:href="#DejaVuSans-20" transform="translate(260.058594 0)"/>
     <use xlink:href="#DejaVuSans-74" transform="translate(291.845703 0)"/>
     <use xlink:href="#DejaVuSans-68" transform="translate(331.054688 0)"/>
     <use xlink:href="#DejaVuSans-72" transform="translate(394.433594 0)"/>
     <use xlink:href="#DejaVuSans-6f" transform="translate(433.296875 0)"/>
     <use xlink:href="#DejaVuSans-75" transform="translate(494.478516 0)"/>
     <use xlink:href="#DejaVuSans-67" transform="translate(557.857422 0)"/>
     <use xlink:href="#DejaVuSans-68" transform="translate(621.333984 0)"/>
    </g>
    <!--  a Simple Fracture -->
    <g transform="translate(461.479134 313.48203) scale(0.03 -0.03)">
     <defs>
      <path id="DejaVuSans-53" d="M 3425 4513 
L 3425 3897 
Q 3066 4069 2747 4153 
Q 2428 4238 2131 4238 
Q 1616 4238 1336 4038 
Q 1056 3838 1056 3469 
Q 1056 3159 1242 3001 
Q 1428 2844 1947 2747 
L 2328 2669 
Q 3034 2534 3370 2195 
Q 3706 1856 3706 1288 
Q 3706 609 3251 259 
Q 2797 -91 1919 -91 
Q 1588 -91 1214 -16 
Q 841 59 441 206 
L 441 856 
Q 825 641 1194 531 
Q 1563 422 1919 422 
Q 2459 422 2753 634 
Q 3047 847 3047 1241 
Q 3047 1584 2836 1778 
Q 2625 1972 2144 2069 
L 1759 2144 
Q 1053 2284 737 2584 
Q 422 2884 422 3419 
Q 422 4038 858 4394 
Q 1294 4750 2059 4750 
Q 2388 4750 2728 4690 
Q 3069 4631 3425 4513 
z
" transform="scale(0.015625)"/>
      <path id="DejaVuSans-70" d="M 1159 525 
L 1159 -1331 
L 581 -1331 
L 581 3500 
L 1159 3500 
L 1159 2969 
Q 1341 3281 1617 3432 
Q 1894 3584 2278 3584 
Q 2916 3584 3314 3078 
Q 3713 2572 3713 1747 
Q 3713 922 3314 415 
Q 2916 -91 2278 -91 
Q 1894 -91 1617 61 
Q 1341 213 1159 525 
z
M 3116 1747 
Q 3116 2381 2855 2742 
Q 2594 3103 2138 3103 
Q 1681 3103 1420 2742 
Q 1159 2381 1159 1747 
Q 1159 1113 1420 752 
Q 1681 391 2138 391 
Q 2594 391 2855 752 
Q 3116 1113 3116 1747 
z
" transform="scale(0.015625)"/>
     </defs>
     <use xlink:href="#DejaVuSans-20"/>
     <use xlink:href="#DejaVuSans-61" transform="translate(31.787109 0)"/>
     <use xlink:href="#DejaVuSans-20" transform="translate(93.066406 0)"/>
     <use xlink:href="#DejaVuSans-53" transform="translate(124.853516 0)"/>
     <use xlink:href="#DejaVuSans-69" transform="translate(188.330078 0)"/>
     <use xlink:href="#DejaVuSans-6d" transform="translate(216.113281 0)"/>
     <use xlink:href="#DejaVuSans-70" transform="translate(313.525391 0)"/>
     <use xlink:href="#DejaVuSans-6c" transform="translate(377.001953 0)"/>
     <use xlink:href="#DejaVuSans-65" transform="translate(404.785156 0)"/>
     <use xlink:href="#DejaVuSans-20" transform="translate(466.308594 0)"/>
     <use xlink:href="#DejaVuSans-46" transform="translate(498.095703 0)"/>
     <use xlink:href="#DejaVuSans-72" transform="translate(548.365234 0)"/>
     <use xlink:href="#DejaVuSans-61" transform="translate(589.478516 0)"/>
     <use xlink:href="#DejaVuSans-63" transform="translate(650.757812 0)"/>
     <use xlink:href="#DejaVuSans-74" transform="translate(705.738281 0)"/>
     <use xlink:href="#DejaVuSans-75" transform="translate(744.947266 0)"/>
     <use xlink:href="#DejaVuSans-72" transform="translate(808.326172 0)"/>
     <use xlink:href="#DejaVuSans-65" transform="translate(847.189453 0)"/>
    </g>
    <!--  Network -->
    <g transform="translate(468.369994 316.841374) scale(0.03 -0.03)">
     <defs>
      <path id="DejaVuSans-4e" d="M 628 4666 
L 1478 4666 
L 3547 763 
L 3547 4666 
L 4159 4666 
L 4159 0 
L 3309 0 
L 1241 3903 
L 1241 0 
L 628 0 
L 628 4666 
z
" transform="scale(0.015625)"/>
      <path id="DejaVuSans-6b" d="M 581 4863 
L 1159 4863 
L 1159 1991 
L 2875 3500 
L 3609 3500 
L 1753 1863 
L 3688 0 
L 2938 0 
L 1159 1709 
L 1159 0 
L 581 0 
L 581 4863 
z
" transform="scale(0.015625)"/>
     </defs>
     <use xlink:href="#DejaVuSans-20"/>
     <use xlink:href="#DejaVuSans-4e" transform="translate(31.787109 0)"/>
     <use xlink:href="#DejaVuSans-65" transform="translate(106.591797 0)"/>
     <use xlink:href="#DejaVuSans-74" transform="translate(168.115234 0)"/>
     <use xlink:href="#DejaVuSans-77" transform="translate(207.324219 0)"/>
     <use xlink:href="#DejaVuSans-6f" transform="translate(289.111328 0)"/>
     <use xlink:href="#DejaVuSans-72" transform="translate(350.292969 0)"/>
     <use xlink:href="#DejaVuSans-6b" transform="translate(391.40625 0)"/>
    </g>
   </g>
   <g id="text_6">
    <!--  9.6 : Upscaling -->
    <g transform="translate(562.296309 306.763342) scale(0.03 -0.03)">
     <defs>
      <path id="DejaVuSans-36" d="M 2113 2584 
Q 1688 2584 1439 2293 
Q 1191 2003 1191 1497 
Q 1191 994 1439 701 
Q 1688 409 2113 409 
Q 2538 409 2786 701 
Q 3034 994 3034 1497 
Q 3034 2003 2786 2293 
Q 2538 2584 2113 2584 
z
M 3366 4563 
L 3366 3988 
Q 3128 4100 2886 4159 
Q 2644 4219 2406 4219 
Q 1781 4219 1451 3797 
Q 1122 3375 1075 2522 
Q 1259 2794 1537 2939 
Q 1816 3084 2150 3084 
Q 2853 3084 3261 2657 
Q 3669 2231 3669 1497 
Q 3669 778 3244 343 
Q 2819 -91 2113 -91 
Q 1303 -91 875 529 
Q 447 1150 447 2328 
Q 447 3434 972 4092 
Q 1497 4750 2381 4750 
Q 2619 4750 2861 4703 
Q 3103 4656 3366 4563 
z
" transform="scale(0.015625)"/>
      <path id="DejaVuSans-55" d="M 556 4666 
L 1191 4666 
L 1191 1831 
Q 1191 1081 1462 751 
Q 1734 422 2344 422 
Q 2950 422 3222 751 
Q 3494 1081 3494 1831 
L 3494 4666 
L 4128 4666 
L 4128 1753 
Q 4128 841 3676 375 
Q 3225 -91 2344 -91 
Q 1459 -91 1007 375 
Q 556 841 556 1753 
L 556 4666 
z
" transform="scale(0.015625)"/>
     </defs>
     <use xlink:href="#DejaVuSans-20"/>
     <use xlink:href="#DejaVuSans-39" transform="translate(31.787109 0)"/>
     <use xlink:href="#DejaVuSans-2e" transform="translate(95.410156 0)"/>
     <use xlink:href="#DejaVuSans-36" transform="translate(127.197266 0)"/>
     <use xlink:href="#DejaVuSans-20" transform="translate(190.820312 0)"/>
     <use xlink:href="#DejaVuSans-3a" transform="translate(222.607422 0)"/>
     <use xlink:href="#DejaVuSans-20" transform="translate(256.298828 0)"/>
     <use xlink:href="#DejaVuSans-55" transform="translate(288.085938 0)"/>
     <use xlink:href="#DejaVuSans-70" transform="translate(361.279297 0)"/>
     <use xlink:href="#DejaVuSans-73" transform="translate(424.755859 0)"/>
     <use xlink:href="#DejaVuSans-63" transform="translate(476.855469 0)"/>
     <use xlink:href="#DejaVuSans-61" transform="translate(531.835938 0)"/>
     <use xlink:href="#DejaVuSans-6c" transform="translate(593.115234 0)"/>
     <use xlink:href="#DejaVuSans-69" transform="translate(620.898438 0)"/>
     <use xlink:href="#DejaVuSans-6e" transform="translate(648.681641 0)"/>
     <use xlink:href="#DejaVuSans-67" transform="translate(712.060547 0)"/>
    </g>
    <!--  a Stochastically -->
    <g transform="translate(561.652247 310.122686) scale(0.03 -0.03)">
     <use xlink:href="#DejaVuSans-20"/>
     <use xlink:href="#DejaVuSans-61" transform="translate(31.787109 0)"/>
     <use xlink:href="#DejaVuSans-20" transform="translate(93.066406 0)"/>
     <use xlink:href="#DejaVuSans-53" transform="translate(124.853516 0)"/>
     <use xlink:href="#DejaVuSans-74" transform="translate(188.330078 0)"/>
     <use xlink:href="#DejaVuSans-6f" transform="translate(227.539062 0)"/>
     <use xlink:href="#DejaVuSans-63" transform="translate(288.720703 0)"/>
     <use xlink:href="#DejaVuSans-68" transform="translate(343.701172 0)"/>
     <use xlink:href="#DejaVuSans-61" transform="translate(407.080078 0)"/>
     <use xlink:href="#DejaVuSans-73" transform="translate(468.359375 0)"/>
     <use xlink:href="#DejaVuSans-74" transform="translate(520.458984 0)"/>
     <use xlink:href="#DejaVuSans-69" transform="translate(559.667969 0)"/>
     <use xlink:href="#DejaVuSans-63" transform="translate(587.451172 0)"/>
     <use xlink:href="#DejaVuSans-61" transform="translate(642.431641 0)"/>
     <use xlink:href="#DejaVuSans-6c" transform="translate(703.710938 0)"/>
     <use xlink:href="#DejaVuSans-6c" transform="translate(731.494141 0)"/>
     <use xlink:href="#DejaVuSans-79" transform="translate(759.277344 0)"/>
    </g>
    <!--  Generated Fracture -->
    <g transform="translate(558.858497 313.48203) scale(0.03 -0.03)">
     <defs>
      <path id="DejaVuSans-47" d="M 3809 666 
L 3809 1919 
L 2778 1919 
L 2778 2438 
L 4434 2438 
L 4434 434 
Q 4069 175 3628 42 
Q 3188 -91 2688 -91 
Q 1594 -91 976 548 
Q 359 1188 359 2328 
Q 359 3472 976 4111 
Q 1594 4750 2688 4750 
Q 3144 4750 3555 4637 
Q 3966 4525 4313 4306 
L 4313 3634 
Q 3963 3931 3569 4081 
Q 3175 4231 2741 4231 
Q 1884 4231 1454 3753 
Q 1025 3275 1025 2328 
Q 1025 1384 1454 906 
Q 1884 428 2741 428 
Q 3075 428 3337 486 
Q 3600 544 3809 666 
z
" transform="scale(0.015625)"/>
     </defs>
     <use xlink:href="#DejaVuSans-20"/>
     <use xlink:href="#DejaVuSans-47" transform="translate(31.787109 0)"/>
     <use xlink:href="#DejaVuSans-65" transform="translate(109.277344 0)"/>
     <use xlink:href="#DejaVuSans-6e" transform="translate(170.800781 0)"/>
     <use xlink:href="#DejaVuSans-65" transform="translate(234.179688 0)"/>
     <use xlink:href="#DejaVuSans-72" transform="translate(295.703125 0)"/>
     <use xlink:href="#DejaVuSans-61" transform="translate(336.816406 0)"/>
     <use xlink:href="#DejaVuSans-74" transform="translate(398.095703 0)"/>
     <use xlink:href="#DejaVuSans-65" transform="translate(437.304688 0)"/>
     <use xlink:href="#DejaVuSans-64" transform="translate(498.828125 0)"/>
     <use xlink:href="#DejaVuSans-20" transform="translate(562.304688 0)"/>
     <use xlink:href="#DejaVuSans-46" transform="translate(594.091797 0)"/>
     <use xlink:href="#DejaVuSans-72" transform="translate(644.361328 0)"/>
     <use xlink:href="#DejaVuSans-61" transform="translate(685.474609 0)"/>
     <use xlink:href="#DejaVuSans-63" transform="translate(746.753906 0)"/>
     <use xlink:href="#DejaVuSans-74" transform="translate(801.734375 0)"/>
     <use xlink:href="#DejaVuSans-75" transform="translate(840.943359 0)"/>
     <use xlink:href="#DejaVuSans-72" transform="translate(904.322266 0)"/>
     <use xlink:href="#DejaVuSans-65" transform="translate(943.185547 0)"/>
    </g>
    <!--  Network -->
    <g transform="translate(567.189356 316.841374) scale(0.03 -0.03)">
     <use xlink:href="#DejaVuSans-20"/>
     <use xlink:href="#DejaVuSans-4e" transform="translate(31.787109 0)"/>
     <use xlink:href="#DejaVuSans-65" transform="translate(106.591797 0)"/>
     <use xlink:href="#DejaVuSans-74" transform="translate(168.115234 0)"/>
     <use xlink:href="#DejaVuSans-77" transform="translate(207.324219 0)"/>
     <use xlink:href="#DejaVuSans-6f" transform="translate(289.111328 0)"/>
     <use xlink:href="#DejaVuSans-72" transform="translate(350.292969 0)"/>
     <use xlink:href="#DejaVuSans-6b" transform="translate(391.40625 0)"/>
    </g>
   </g>
   <g id="text_7">
    <!--  9.7 : Simulation -->
    <g transform="translate(660.437625 303.403999) scale(0.03 -0.03)">
     <defs>
      <path id="DejaVuSans-37" d="M 525 4666 
L 3525 4666 
L 3525 4397 
L 1831 0 
L 1172 0 
L 2766 4134 
L 525 4134 
L 525 4666 
z
" transform="scale(0.015625)"/>
     </defs>
     <use xlink:href="#DejaVuSans-20"/>
     <use xlink:href="#DejaVuSans-39" transform="translate(31.787109 0)"/>
     <use xlink:href="#DejaVuSans-2e" transform="translate(95.410156 0)"/>
     <use xlink:href="#DejaVuSans-37" transform="translate(127.197266 0)"/>
     <use xlink:href="#DejaVuSans-20" transform="translate(190.820312 0)"/>
     <use xlink:href="#DejaVuSans-3a" transform="translate(222.607422 0)"/>
     <use xlink:href="#DejaVuSans-20" transform="translate(256.298828 0)"/>
     <use xlink:href="#DejaVuSans-53" transform="translate(288.085938 0)"/>
     <use xlink:href="#DejaVuSans-69" transform="translate(351.5625 0)"/>
     <use xlink:href="#DejaVuSans-6d" transform="translate(379.345703 0)"/>
     <use xlink:href="#DejaVuSans-75" transform="translate(476.757812 0)"/>
     <use xlink:href="#DejaVuSans-6c" transform="translate(540.136719 0)"/>
     <use xlink:href="#DejaVuSans-61" transform="translate(567.919922 0)"/>
     <use xlink:href="#DejaVuSans-74" transform="translate(629.199219 0)"/>
     <use xlink:href="#DejaVuSans-69" transform="translate(668.408203 0)"/>
     <use xlink:href="#DejaVuSans-6f" transform="translate(696.191406 0)"/>
     <use xlink:href="#DejaVuSans-6e" transform="translate(757.373047 0)"/>
    </g>
    <!--  of Well Test -->
    <g transform="translate(663.767391 306.763342) scale(0.03 -0.03)">
     <defs>
      <path id="DejaVuSans-66" d="M 2375 4863 
L 2375 4384 
L 1825 4384 
Q 1516 4384 1395 4259 
Q 1275 4134 1275 3809 
L 1275 3500 
L 2222 3500 
L 2222 3053 
L 1275 3053 
L 1275 0 
L 697 0 
L 697 3053 
L 147 3053 
L 147 3500 
L 697 3500 
L 697 3744 
Q 697 4328 969 4595 
Q 1241 4863 1831 4863 
L 2375 4863 
z
" transform="scale(0.015625)"/>
      <path id="DejaVuSans-57" d="M 213 4666 
L 850 4666 
L 1831 722 
L 2809 4666 
L 3519 4666 
L 4500 722 
L 5478 4666 
L 6119 4666 
L 4947 0 
L 4153 0 
L 3169 4050 
L 2175 0 
L 1381 0 
L 213 4666 
z
" transform="scale(0.015625)"/>
     </defs>
     <use xlink:href="#DejaVuSans-20"/>
     <use xlink:href="#DejaVuSans-6f" transform="translate(31.787109 0)"/>
     <use xlink:href="#DejaVuSans-66" transform="translate(92.96875 0)"/>
     <use xlink:href="#DejaVuSans-20" transform="translate(128.173828 0)"/>
     <use xlink:href="#DejaVuSans-57" transform="translate(159.960938 0)"/>
     <use xlink:href="#DejaVuSans-65" transform="translate(252.962891 0)"/>
     <use xlink:href="#DejaVuSans-6c" transform="translate(314.486328 0)"/>
     <use xlink:href="#DejaVuSans-6c" transform="translate(342.269531 0)"/>
     <use xlink:href="#DejaVuSans-20" transform="translate(370.052734 0)"/>
     <use xlink:href="#DejaVuSans-54" transform="translate(401.839844 0)"/>
     <use xlink:href="#DejaVuSans-65" transform="translate(445.923828 0)"/>
     <use xlink:href="#DejaVuSans-73" transform="translate(507.447266 0)"/>
     <use xlink:href="#DejaVuSans-74" transform="translate(559.546875 0)"/>
    </g>
    <!--  Response in -->
    <g transform="translate(663.223406 310.122686) scale(0.03 -0.03)">
     <defs>
      <path id="DejaVuSans-52" d="M 2841 2188 
Q 3044 2119 3236 1894 
Q 3428 1669 3622 1275 
L 4263 0 
L 3584 0 
L 2988 1197 
Q 2756 1666 2539 1819 
Q 2322 1972 1947 1972 
L 1259 1972 
L 1259 0 
L 628 0 
L 628 4666 
L 2053 4666 
Q 2853 4666 3247 4331 
Q 3641 3997 3641 3322 
Q 3641 2881 3436 2590 
Q 3231 2300 2841 2188 
z
M 1259 4147 
L 1259 2491 
L 2053 2491 
Q 2509 2491 2742 2702 
Q 2975 2913 2975 3322 
Q 2975 3731 2742 3939 
Q 2509 4147 2053 4147 
L 1259 4147 
z
" transform="scale(0.015625)"/>
     </defs>
     <use xlink:href="#DejaVuSans-20"/>
     <use xlink:href="#DejaVuSans-52" transform="translate(31.787109 0)"/>
     <use xlink:href="#DejaVuSans-65" transform="translate(96.769531 0)"/>
     <use xlink:href="#DejaVuSans-73" transform="translate(158.292969 0)"/>
     <use xlink:href="#DejaVuSans-70" transform="translate(210.392578 0)"/>
     <use xlink:href="#DejaVuSans-6f" transform="translate(273.869141 0)"/>
     <use xlink:href="#DejaVuSans-6e" transform="translate(335.050781 0)"/>
     <use xlink:href="#DejaVuSans-73" transform="translate(398.429688 0)"/>
     <use xlink:href="#DejaVuSans-65" transform="translate(450.529297 0)"/>
     <use xlink:href="#DejaVuSans-20" transform="translate(512.052734 0)"/>
     <use xlink:href="#DejaVuSans-69" transform="translate(543.839844 0)"/>
     <use xlink:href="#DejaVuSans-6e" transform="translate(571.623047 0)"/>
    </g>
    <!--  an Outcrop-Based -->
    <g transform="translate(658.836141 313.48203) scale(0.03 -0.03)">
     <defs>
      <path id="DejaVuSans-4f" d="M 2522 4238 
Q 1834 4238 1429 3725 
Q 1025 3213 1025 2328 
Q 1025 1447 1429 934 
Q 1834 422 2522 422 
Q 3209 422 3611 934 
Q 4013 1447 4013 2328 
Q 4013 3213 3611 3725 
Q 3209 4238 2522 4238 
z
M 2522 4750 
Q 3503 4750 4090 4092 
Q 4678 3434 4678 2328 
Q 4678 1225 4090 567 
Q 3503 -91 2522 -91 
Q 1538 -91 948 565 
Q 359 1222 359 2328 
Q 359 3434 948 4092 
Q 1538 4750 2522 4750 
z
" transform="scale(0.015625)"/>
      <path id="DejaVuSans-42" d="M 1259 2228 
L 1259 519 
L 2272 519 
Q 2781 519 3026 730 
Q 3272 941 3272 1375 
Q 3272 1813 3026 2020 
Q 2781 2228 2272 2228 
L 1259 2228 
z
M 1259 4147 
L 1259 2741 
L 2194 2741 
Q 2656 2741 2882 2914 
Q 3109 3088 3109 3444 
Q 3109 3797 2882 3972 
Q 2656 4147 2194 4147 
L 1259 4147 
z
M 628 4666 
L 2241 4666 
Q 2963 4666 3353 4366 
Q 3744 4066 3744 3513 
Q 3744 3084 3544 2831 
Q 3344 2578 2956 2516 
Q 3422 2416 3680 2098 
Q 3938 1781 3938 1306 
Q 3938 681 3513 340 
Q 3088 0 2303 0 
L 628 0 
L 628 4666 
z
" transform="scale(0.015625)"/>
     </defs>
     <use xlink:href="#DejaVuSans-20"/>
     <use xlink:href="#DejaVuSans-61" transform="translate(31.787109 0)"/>
     <use xlink:href="#DejaVuSans-6e" transform="translate(93.066406 0)"/>
     <use xlink:href="#DejaVuSans-20" transform="translate(156.445312 0)"/>
     <use xlink:href="#DejaVuSans-4f" transform="translate(188.232422 0)"/>
     <use xlink:href="#DejaVuSans-75" transform="translate(266.943359 0)"/>
     <use xlink:href="#DejaVuSans-74" transform="translate(330.322266 0)"/>
     <use xlink:href="#DejaVuSans-63" transform="translate(369.53125 0)"/>
     <use xlink:href="#DejaVuSans-72" transform="translate(424.511719 0)"/>
     <use xlink:href="#DejaVuSans-6f" transform="translate(463.375 0)"/>
     <use xlink:href="#DejaVuSans-70" transform="translate(524.556641 0)"/>
     <use xlink:href="#DejaVuSans-2d" transform="translate(588.033203 0)"/>
     <use xlink:href="#DejaVuSans-42" transform="translate(620.492188 0)"/>
     <use xlink:href="#DejaVuSans-61" transform="translate(689.095703 0)"/>
     <use xlink:href="#DejaVuSans-73" transform="translate(750.375 0)"/>
     <use xlink:href="#DejaVuSans-65" transform="translate(802.474609 0)"/>
     <use xlink:href="#DejaVuSans-64" transform="translate(863.998047 0)"/>
    </g>
    <!--  Fracture Network -->
    <g transform="translate(659.372859 316.841374) scale(0.03 -0.03)">
     <use xlink:href="#DejaVuSans-20"/>
     <use xlink:href="#DejaVuSans-46" transform="translate(31.787109 0)"/>
     <use xlink:href="#DejaVuSans-72" transform="translate(82.056641 0)"/>
     <use xlink:href="#DejaVuSans-61" transform="translate(123.169922 0)"/>
     <use xlink:href="#DejaVuSans-63" transform="translate(184.449219 0)"/>
     <use xlink:href="#DejaVuSans-74" transform="translate(239.429688 0)"/>
     <use xlink:href="#DejaVuSans-75" transform="translate(278.638672 0)"/>
     <use xlink:href="#DejaVuSans-72" transform="translate(342.017578 0)"/>
     <use xlink:href="#DejaVuSans-65" transform="translate(380.880859 0)"/>
     <use xlink:href="#DejaVuSans-20" transform="translate(442.404297 0)"/>
     <use xlink:href="#DejaVuSans-4e" transform="translate(474.191406 0)"/>
     <use xlink:href="#DejaVuSans-65" transform="translate(548.996094 0)"/>
     <use xlink:href="#DejaVuSans-74" transform="translate(610.519531 0)"/>
     <use xlink:href="#DejaVuSans-77" transform="translate(649.728516 0)"/>
     <use xlink:href="#DejaVuSans-6f" transform="translate(731.515625 0)"/>
     <use xlink:href="#DejaVuSans-72" transform="translate(792.697266 0)"/>
     <use xlink:href="#DejaVuSans-6b" transform="translate(833.810547 0)"/>
    </g>
    <!--  -->
    <g transform="translate(672.748406 320.200717) scale(0.03 -0.03)"/>
   </g>
   <g id="text_8">
    <!--  9.8 : Concluding -->
    <g transform="translate(758.866987 310.122686) scale(0.03 -0.03)">
     <defs>
      <path id="DejaVuSans-38" d="M 2034 2216 
Q 1584 2216 1326 1975 
Q 1069 1734 1069 1313 
Q 1069 891 1326 650 
Q 1584 409 2034 409 
Q 2484 409 2743 651 
Q 3003 894 3003 1313 
Q 3003 1734 2745 1975 
Q 2488 2216 2034 2216 
z
M 1403 2484 
Q 997 2584 770 2862 
Q 544 3141 544 3541 
Q 544 4100 942 4425 
Q 1341 4750 2034 4750 
Q 2731 4750 3128 4425 
Q 3525 4100 3525 3541 
Q 3525 3141 3298 2862 
Q 3072 2584 2669 2484 
Q 3125 2378 3379 2068 
Q 3634 1759 3634 1313 
Q 3634 634 3220 271 
Q 2806 -91 2034 -91 
Q 1263 -91 848 271 
Q 434 634 434 1313 
Q 434 1759 690 2068 
Q 947 2378 1403 2484 
z
M 1172 3481 
Q 1172 3119 1398 2916 
Q 1625 2713 2034 2713 
Q 2441 2713 2670 2916 
Q 2900 3119 2900 3481 
Q 2900 3844 2670 4047 
Q 2441 4250 2034 4250 
Q 1625 4250 1398 4047 
Q 1172 3844 1172 3481 
z
" transform="scale(0.015625)"/>
      <path id="DejaVuSans-43" d="M 4122 4306 
L 4122 3641 
Q 3803 3938 3442 4084 
Q 3081 4231 2675 4231 
Q 1875 4231 1450 3742 
Q 1025 3253 1025 2328 
Q 1025 1406 1450 917 
Q 1875 428 2675 428 
Q 3081 428 3442 575 
Q 3803 722 4122 1019 
L 4122 359 
Q 3791 134 3420 21 
Q 3050 -91 2638 -91 
Q 1578 -91 968 557 
Q 359 1206 359 2328 
Q 359 3453 968 4101 
Q 1578 4750 2638 4750 
Q 3056 4750 3426 4639 
Q 3797 4528 4122 4306 
z
" transform="scale(0.015625)"/>
     </defs>
     <use xlink:href="#DejaVuSans-20"/>
     <use xlink:href="#DejaVuSans-39" transform="translate(31.787109 0)"/>
     <use xlink:href="#DejaVuSans-2e" transform="translate(95.410156 0)"/>
     <use xlink:href="#DejaVuSans-38" transform="translate(127.197266 0)"/>
     <use xlink:href="#DejaVuSans-20" transform="translate(190.820312 0)"/>
     <use xlink:href="#DejaVuSans-3a" transform="translate(222.607422 0)"/>
     <use xlink:href="#DejaVuSans-20" transform="translate(256.298828 0)"/>
     <use xlink:href="#DejaVuSans-43" transform="translate(288.085938 0)"/>
     <use xlink:href="#DejaVuSans-6f" transform="translate(357.910156 0)"/>
     <use xlink:href="#DejaVuSans-6e" transform="translate(419.091797 0)"/>
     <use xlink:href="#DejaVuSans-63" transform="translate(482.470703 0)"/>
     <use xlink:href="#DejaVuSans-6c" transform="translate(537.451172 0)"/>
     <use xlink:href="#DejaVuSans-75" transform="translate(565.234375 0)"/>
     <use xlink:href="#DejaVuSans-64" transform="translate(628.613281 0)"/>
     <use xlink:href="#DejaVuSans-69" transform="translate(692.089844 0)"/>
     <use xlink:href="#DejaVuSans-6e" transform="translate(719.873047 0)"/>
     <use xlink:href="#DejaVuSans-67" transform="translate(783.251953 0)"/>
    </g>
    <!--  Remarks -->
    <g transform="translate(764.546362 313.48203) scale(0.03 -0.03)">
     <use xlink:href="#DejaVuSans-20"/>
     <use xlink:href="#DejaVuSans-52" transform="translate(31.787109 0)"/>
     <use xlink:href="#DejaVuSans-65" transform="translate(96.769531 0)"/>
     <use xlink:href="#DejaVuSans-6d" transform="translate(158.292969 0)"/>
     <use xlink:href="#DejaVuSans-61" transform="translate(255.705078 0)"/>
     <use xlink:href="#DejaVuSans-72" transform="translate(316.984375 0)"/>
     <use xlink:href="#DejaVuSans-6b" transform="translate(358.097656 0)"/>
     <use xlink:href="#DejaVuSans-73" transform="translate(416.007812 0)"/>
    </g>
   </g>
   <g id="text_9">
    <!--  9: Embedded -->
    <g transform="translate(390.635794 40.015624) scale(0.1 -0.1)">
     <defs>
      <path id="DejaVuSans-45" d="M 628 4666 
L 3578 4666 
L 3578 4134 
L 1259 4134 
L 1259 2753 
L 3481 2753 
L 3481 2222 
L 1259 2222 
L 1259 531 
L 3634 531 
L 3634 0 
L 628 0 
L 628 4666 
z
" transform="scale(0.015625)"/>
     </defs>
     <use xlink:href="#DejaVuSans-20"/>
     <use xlink:href="#DejaVuSans-39" transform="translate(31.787109 0)"/>
     <use xlink:href="#DejaVuSans-3a" transform="translate(95.410156 0)"/>
     <use xlink:href="#DejaVuSans-20" transform="translate(129.101562 0)"/>
     <use xlink:href="#DejaVuSans-45" transform="translate(160.888672 0)"/>
     <use xlink:href="#DejaVuSans-6d" transform="translate(224.072266 0)"/>
     <use xlink:href="#DejaVuSans-62" transform="translate(321.484375 0)"/>
     <use xlink:href="#DejaVuSans-65" transform="translate(384.960938 0)"/>
     <use xlink:href="#DejaVuSans-64" transform="translate(446.484375 0)"/>
     <use xlink:href="#DejaVuSans-64" transform="translate(509.960938 0)"/>
     <use xlink:href="#DejaVuSans-65" transform="translate(573.4375 0)"/>
     <use xlink:href="#DejaVuSans-64" transform="translate(634.960938 0)"/>
    </g>
    <!--  Discrete Fracture -->
    <g transform="translate(381.201419 51.213437) scale(0.1 -0.1)">
     <defs>
      <path id="DejaVuSans-44" d="M 1259 4147 
L 1259 519 
L 2022 519 
Q 2988 519 3436 956 
Q 3884 1394 3884 2338 
Q 3884 3275 3436 3711 
Q 2988 4147 2022 4147 
L 1259 4147 
z
M 628 4666 
L 1925 4666 
Q 3281 4666 3915 4102 
Q 4550 3538 4550 2338 
Q 4550 1131 3912 565 
Q 3275 0 1925 0 
L 628 0 
L 628 4666 
z
" transform="scale(0.015625)"/>
     </defs>
     <use xlink:href="#DejaVuSans-20"/>
     <use xlink:href="#DejaVuSans-44" transform="translate(31.787109 0)"/>
     <use xlink:href="#DejaVuSans-69" transform="translate(108.789062 0)"/>
     <use xlink:href="#DejaVuSans-73" transform="translate(136.572266 0)"/>
     <use xlink:href="#DejaVuSans-63" transform="translate(188.671875 0)"/>
     <use xlink:href="#DejaVuSans-72" transform="translate(243.652344 0)"/>
     <use xlink:href="#DejaVuSans-65" transform="translate(282.515625 0)"/>
     <use xlink:href="#DejaVuSans-74" transform="translate(344.039062 0)"/>
     <use xlink:href="#DejaVuSans-65" transform="translate(383.248047 0)"/>
     <use xlink:href="#DejaVuSans-20" transform="translate(444.771484 0)"/>
     <use xlink:href="#DejaVuSans-46" transform="translate(476.558594 0)"/>
     <use xlink:href="#DejaVuSans-72" transform="translate(526.828125 0)"/>
     <use xlink:href="#DejaVuSans-61" transform="translate(567.941406 0)"/>
     <use xlink:href="#DejaVuSans-63" transform="translate(629.220703 0)"/>
     <use xlink:href="#DejaVuSans-74" transform="translate(684.201172 0)"/>
     <use xlink:href="#DejaVuSans-75" transform="translate(723.410156 0)"/>
     <use xlink:href="#DejaVuSans-72" transform="translate(786.789062 0)"/>
     <use xlink:href="#DejaVuSans-65" transform="translate(825.652344 0)"/>
    </g>
    <!--  Models -->
    <g transform="translate(406.3522 62.411249) scale(0.1 -0.1)">
     <use xlink:href="#DejaVuSans-20"/>
     <use xlink:href="#DejaVuSans-4d" transform="translate(31.787109 0)"/>
     <use xlink:href="#DejaVuSans-6f" transform="translate(118.066406 0)"/>
     <use xlink:href="#DejaVuSans-64" transform="translate(179.248047 0)"/>
     <use xlink:href="#DejaVuSans-65" transform="translate(242.724609 0)"/>
     <use xlink:href="#DejaVuSans-6c" transform="translate(304.248047 0)"/>
     <use xlink:href="#DejaVuSans-73" transform="translate(332.03125 0)"/>
    </g>
   </g>
  </g>
 </g>
 <defs>
  <clipPath id="p0755d02d6f">
   <rect x="7.2" y="7.2" width="837" height="332.64"/>
  </clipPath>
 </defs>
</svg>
