<?xml version="1.0" encoding="utf-8" standalone="no"?>
<!DOCTYPE svg PUBLIC "-//W3C//DTD SVG 1.1//EN"
  "http://www.w3.org/Graphics/SVG/1.1/DTD/svg11.dtd">
<svg xmlns:xlink="http://www.w3.org/1999/xlink" width="851.4pt" height="347.04pt" viewBox="0 0 851.4 347.04" xmlns="http://www.w3.org/2000/svg" version="1.1">
 <metadata>
  <rdf:RDF xmlns:dc="http://purl.org/dc/elements/1.1/" xmlns:cc="http://creativecommons.org/ns#" xmlns:rdf="http://www.w3.org/1999/02/22-rdf-syntax-ns#">
   <cc:Work>
    <dc:type rdf:resource="http://purl.org/dc/dcmitype/StillImage"/>
    <dc:date>2025-07-09T13:14:16.441059</dc:date>
    <dc:format>image/svg+xml</dc:format>
    <dc:creator>
     <cc:Agent>
      <dc:title>Matplotlib v3.10.3, https://matplotlib.org/</dc:title>
     </cc:Agent>
    </dc:creator>
   </cc:Work>
  </rdf:RDF>
 </metadata>
 <defs>
  <style type="text/css">*{stroke-linejoin: round; stroke-linecap: butt}</style>
 </defs>
 <g id="figure_1">
  <g id="patch_1">
   <path d="M 0 347.04 
L 851.4 347.04 
L 851.4 -0 
L 0 -0 
z
" style="fill: #ffffff"/>
  </g>
  <g id="axes_1">
   <g id="patch_2">
    <path d="M 223.905979 209.037253 
Q 159.77342 254.413316 96.553547 299.143621 
" clip-path="url(#pc2941d7c46)" style="fill: none; stroke: #000000; stroke-linecap: round"/>
    <path d="M 100.97404 298.46595 
L 96.553547 299.143621 
L 98.663706 295.200624 
z
" clip-path="url(#pc2941d7c46)" style="stroke: #000000; stroke-linecap: round"/>
   </g>
   <g id="patch_3">
    <path d="M 232.360572 217.492975 
Q 204.917311 256.327139 178.119286 294.248247 
" clip-path="url(#pc2941d7c46)" style="fill: none; stroke: #000000; stroke-linecap: round"/>
    <path d="M 182.061077 292.135835 
L 178.119286 294.248247 
L 178.794431 289.827367 
z
" clip-path="url(#pc2941d7c46)" style="stroke: #000000; stroke-linecap: round"/>
   </g>
   <g id="patch_4">
    <path d="M 252.766116 223.975261 
Q 252.766116 257.793418 252.766116 290.493542 
" clip-path="url(#pc2941d7c46)" style="fill: none; stroke: #000000; stroke-linecap: round"/>
    <path d="M 254.766116 286.493542 
L 252.766116 290.493542 
L 250.766116 286.493542 
z
" clip-path="url(#pc2941d7c46)" style="stroke: #000000; stroke-linecap: round"/>
   </g>
   <g id="patch_5">
    <path d="M 405.294456 217.492975 
Q 377.851195 256.327139 351.05317 294.248247 
" clip-path="url(#pc2941d7c46)" style="fill: none; stroke: #000000; stroke-linecap: round"/>
    <path d="M 354.994961 292.135835 
L 351.05317 294.248247 
L 351.728315 289.827367 
z
" clip-path="url(#pc2941d7c46)" style="stroke: #000000; stroke-linecap: round"/>
   </g>
   <g id="patch_6">
    <path d="M 425.7 223.975261 
Q 425.7 257.793418 425.7 290.493542 
" clip-path="url(#pc2941d7c46)" style="fill: none; stroke: #000000; stroke-linecap: round"/>
    <path d="M 427.7 286.493542 
L 425.7 290.493542 
L 423.7 286.493542 
z
" clip-path="url(#pc2941d7c46)" style="stroke: #000000; stroke-linecap: round"/>
   </g>
   <g id="patch_7">
    <path d="M 446.105544 217.492975 
Q 473.548805 256.327139 500.34683 294.248247 
" clip-path="url(#pc2941d7c46)" style="fill: none; stroke: #000000; stroke-linecap: round"/>
    <path d="M 499.671685 289.827367 
L 500.34683 294.248247 
L 496.405039 292.135835 
z
" clip-path="url(#pc2941d7c46)" style="stroke: #000000; stroke-linecap: round"/>
   </g>
   <g id="patch_8">
    <path d="M 598.633884 223.975261 
Q 598.633884 257.793418 598.633884 290.493542 
" clip-path="url(#pc2941d7c46)" style="fill: none; stroke: #000000; stroke-linecap: round"/>
    <path d="M 600.633884 286.493542 
L 598.633884 290.493542 
L 596.633884 286.493542 
z
" clip-path="url(#pc2941d7c46)" style="stroke: #000000; stroke-linecap: round"/>
   </g>
   <g id="patch_9">
    <path d="M 619.039428 217.492975 
Q 646.482689 256.327139 673.280714 294.248247 
" clip-path="url(#pc2941d7c46)" style="fill: none; stroke: #000000; stroke-linecap: round"/>
    <path d="M 672.605569 289.827367 
L 673.280714 294.248247 
L 669.338923 292.135835 
z
" clip-path="url(#pc2941d7c46)" style="stroke: #000000; stroke-linecap: round"/>
   </g>
   <g id="patch_10">
    <path d="M 627.494021 209.037253 
Q 691.62658 254.413316 754.846453 299.143621 
" clip-path="url(#pc2941d7c46)" style="fill: none; stroke: #000000; stroke-linecap: round"/>
    <path d="M 752.736294 295.200624 
L 754.846453 299.143621 
L 750.42596 298.46595 
z
" clip-path="url(#pc2941d7c46)" style="stroke: #000000; stroke-linecap: round"/>
   </g>
   <g id="patch_11">
    <path d="M 363.228739 69.187184 
Q 259.152572 124.367478 156.064192 179.024056 
" clip-path="url(#pc2941d7c46)" style="fill: none; stroke: #000000; stroke-linecap: round"/>
    <path d="M 160.535055 178.917359 
L 156.064192 179.024056 
L 158.661352 175.383348 
z
" clip-path="url(#pc2941d7c46)" style="stroke: #000000; stroke-linecap: round"/>
   </g>
   <g id="patch_12">
    <path d="M 372.674084 82.841837 
Q 325.975917 124.036247 280.116182 164.491042 
" clip-path="url(#pc2941d7c46)" style="fill: none; stroke: #000000; stroke-linecap: round"/>
    <path d="M 284.438913 163.344744 
L 280.116182 164.491042 
L 281.792782 160.345079 
z
" clip-path="url(#pc2941d7c46)" style="stroke: #000000; stroke-linecap: round"/>
   </g>
   <g id="patch_13">
    <path d="M 425.7 106.778216 
Q 425.7 130.017847 425.7 152.139444 
" clip-path="url(#pc2941d7c46)" style="fill: none; stroke: #000000; stroke-linecap: round"/>
    <path d="M 427.7 148.139444 
L 425.7 152.139444 
L 423.7 148.139444 
z
" clip-path="url(#pc2941d7c46)" style="stroke: #000000; stroke-linecap: round"/>
   </g>
   <g id="patch_14">
    <path d="M 478.725916 82.841837 
Q 525.424083 124.036247 571.283818 164.491042 
" clip-path="url(#pc2941d7c46)" style="fill: none; stroke: #000000; stroke-linecap: round"/>
    <path d="M 569.607218 160.345079 
L 571.283818 164.491042 
L 566.961087 163.344744 
z
" clip-path="url(#pc2941d7c46)" style="stroke: #000000; stroke-linecap: round"/>
   </g>
   <g id="patch_15">
    <path d="M 488.171261 69.187184 
Q 592.247428 124.367478 695.335808 179.024056 
" clip-path="url(#pc2941d7c46)" style="fill: none; stroke: #000000; stroke-linecap: round"/>
    <path d="M 692.738648 175.383348 
L 695.335808 179.024056 
L 690.864945 178.917359 
z
" clip-path="url(#pc2941d7c46)" style="stroke: #000000; stroke-linecap: round"/>
   </g>
   <g id="PathCollection_1">
    <path d="M 137.969549 207.982598 
C 143.105185 207.982598 148.03117 205.942189 151.662613 202.310746 
C 155.294056 198.679303 157.334465 193.753318 157.334465 188.617682 
C 157.334465 183.482046 155.294056 178.556061 151.662613 174.924618 
C 148.03117 171.293175 143.105185 169.252765 137.969549 169.252765 
C 132.833913 169.252765 127.907928 171.293175 124.276485 174.924618 
C 120.645042 178.556061 118.604632 183.482046 118.604632 188.617682 
C 118.604632 193.753318 120.645042 198.679303 124.276485 202.310746 
C 127.907928 205.942189 132.833913 207.982598 137.969549 207.982598 
z
" clip-path="url(#pc2941d7c46)" style="fill: #add8e6; stroke: #add8e6"/>
    <path d="M 252.766116 223.973021 
C 262.142461 223.973021 271.136038 220.247759 277.766116 213.617682 
C 284.396193 206.987604 288.121455 197.994027 288.121455 188.617682 
C 288.121455 179.241336 284.396193 170.247759 277.766116 163.617682 
C 271.136038 156.987604 262.142461 153.262343 252.766116 153.262343 
C 243.38977 153.262343 234.396193 156.987604 227.766116 163.617682 
C 221.136038 170.247759 217.410777 179.241336 217.410777 188.617682 
C 217.410777 197.994027 221.136038 206.987604 227.766116 213.617682 
C 234.396193 220.247759 243.38977 223.973021 252.766116 223.973021 
z
" clip-path="url(#pc2941d7c46)" style="fill: #add8e6; stroke: #add8e6"/>
    <path d="M 79.832231 330.339462 
C 84.967867 330.339462 89.893852 328.299052 93.525295 324.667609 
C 97.156738 321.036166 99.197148 316.110181 99.197148 310.974545 
C 99.197148 305.83891 97.156738 300.912925 93.525295 297.281482 
C 89.893852 293.650039 84.967867 291.609629 79.832231 291.609629 
C 74.696595 291.609629 69.77061 293.650039 66.139167 297.281482 
C 62.507724 300.912925 60.467315 305.83891 60.467315 310.974545 
C 60.467315 316.110181 62.507724 321.036166 66.139167 324.667609 
C 69.77061 328.299052 74.696595 330.339462 79.832231 330.339462 
z
" clip-path="url(#pc2941d7c46)" style="fill: #add8e6; stroke: #add8e6"/>
    <path d="M 166.299174 330.339462 
C 171.43481 330.339462 176.360794 328.299052 179.992237 324.667609 
C 183.62368 321.036166 185.66409 316.110181 185.66409 310.974545 
C 185.66409 305.83891 183.62368 300.912925 179.992237 297.281482 
C 176.360794 293.650039 171.43481 291.609629 166.299174 291.609629 
C 161.163538 291.609629 156.237553 293.650039 152.60611 297.281482 
C 148.974667 300.912925 146.934257 305.83891 146.934257 310.974545 
C 146.934257 316.110181 148.974667 321.036166 152.60611 324.667609 
C 156.237553 328.299052 161.163538 330.339462 166.299174 330.339462 
z
" clip-path="url(#pc2941d7c46)" style="fill: #008000; stroke: #008000"/>
    <path d="M 252.766116 330.339462 
C 257.901752 330.339462 262.827737 328.299052 266.45918 324.667609 
C 270.090623 321.036166 272.131032 316.110181 272.131032 310.974545 
C 272.131032 305.83891 270.090623 300.912925 266.45918 297.281482 
C 262.827737 293.650039 257.901752 291.609629 252.766116 291.609629 
C 247.63048 291.609629 242.704495 293.650039 239.073052 297.281482 
C 235.441609 300.912925 233.401199 305.83891 233.401199 310.974545 
C 233.401199 316.110181 235.441609 321.036166 239.073052 324.667609 
C 242.704495 328.299052 247.63048 330.339462 252.766116 330.339462 
z
" clip-path="url(#pc2941d7c46)" style="fill: #add8e6; stroke: #add8e6"/>
    <path d="M 425.7 223.973021 
C 435.076346 223.973021 444.069922 220.247759 450.7 213.617682 
C 457.330078 206.987604 461.055339 197.994027 461.055339 188.617682 
C 461.055339 179.241336 457.330078 170.247759 450.7 163.617682 
C 444.069922 156.987604 435.076346 153.262343 425.7 153.262343 
C 416.323654 153.262343 407.330078 156.987604 400.7 163.617682 
C 394.069922 170.247759 390.344661 179.241336 390.344661 188.617682 
C 390.344661 197.994027 394.069922 206.987604 400.7 213.617682 
C 407.330078 220.247759 416.323654 223.973021 425.7 223.973021 
z
" clip-path="url(#pc2941d7c46)" style="fill: #add8e6; stroke: #add8e6"/>
    <path d="M 339.233058 330.339462 
C 344.368694 330.339462 349.294679 328.299052 352.926122 324.667609 
C 356.557565 321.036166 358.597975 316.110181 358.597975 310.974545 
C 358.597975 305.83891 356.557565 300.912925 352.926122 297.281482 
C 349.294679 293.650039 344.368694 291.609629 339.233058 291.609629 
C 334.097422 291.609629 329.171437 293.650039 325.539994 297.281482 
C 321.908551 300.912925 319.868141 305.83891 319.868141 310.974545 
C 319.868141 316.110181 321.908551 321.036166 325.539994 324.667609 
C 329.171437 328.299052 334.097422 330.339462 339.233058 330.339462 
z
" clip-path="url(#pc2941d7c46)" style="fill: #add8e6; stroke: #add8e6"/>
    <path d="M 425.7 330.339462 
C 430.835636 330.339462 435.761621 328.299052 439.393064 324.667609 
C 443.024507 321.036166 445.064917 316.110181 445.064917 310.974545 
C 445.064917 305.83891 443.024507 300.912925 439.393064 297.281482 
C 435.761621 293.650039 430.835636 291.609629 425.7 291.609629 
C 420.564364 291.609629 415.638379 293.650039 412.006936 297.281482 
C 408.375493 300.912925 406.335083 305.83891 406.335083 310.974545 
C 406.335083 316.110181 408.375493 321.036166 412.006936 324.667609 
C 415.638379 328.299052 420.564364 330.339462 425.7 330.339462 
z
" clip-path="url(#pc2941d7c46)" style="fill: #add8e6; stroke: #add8e6"/>
    <path d="M 512.166942 330.339462 
C 517.302578 330.339462 522.228563 328.299052 525.860006 324.667609 
C 529.491449 321.036166 531.531859 316.110181 531.531859 310.974545 
C 531.531859 305.83891 529.491449 300.912925 525.860006 297.281482 
C 522.228563 293.650039 517.302578 291.609629 512.166942 291.609629 
C 507.031306 291.609629 502.105321 293.650039 498.473878 297.281482 
C 494.842435 300.912925 492.802025 305.83891 492.802025 310.974545 
C 492.802025 316.110181 494.842435 321.036166 498.473878 324.667609 
C 502.105321 328.299052 507.031306 330.339462 512.166942 330.339462 
z
" clip-path="url(#pc2941d7c46)" style="fill: #add8e6; stroke: #add8e6"/>
    <path d="M 598.633884 223.973021 
C 608.01023 223.973021 617.003807 220.247759 623.633884 213.617682 
C 630.263962 206.987604 633.989223 197.994027 633.989223 188.617682 
C 633.989223 179.241336 630.263962 170.247759 623.633884 163.617682 
C 617.003807 156.987604 608.01023 153.262343 598.633884 153.262343 
C 589.257539 153.262343 580.263962 156.987604 573.633884 163.617682 
C 567.003807 170.247759 563.278545 179.241336 563.278545 188.617682 
C 563.278545 197.994027 567.003807 206.987604 573.633884 213.617682 
C 580.263962 220.247759 589.257539 223.973021 598.633884 223.973021 
z
" clip-path="url(#pc2941d7c46)" style="fill: #add8e6; stroke: #add8e6"/>
    <path d="M 598.633884 330.339462 
C 603.76952 330.339462 608.695505 328.299052 612.326948 324.667609 
C 615.958391 321.036166 617.998801 316.110181 617.998801 310.974545 
C 617.998801 305.83891 615.958391 300.912925 612.326948 297.281482 
C 608.695505 293.650039 603.76952 291.609629 598.633884 291.609629 
C 593.498248 291.609629 588.572263 293.650039 584.94082 297.281482 
C 581.309377 300.912925 579.268968 305.83891 579.268968 310.974545 
C 579.268968 316.110181 581.309377 321.036166 584.94082 324.667609 
C 588.572263 328.299052 593.498248 330.339462 598.633884 330.339462 
z
" clip-path="url(#pc2941d7c46)" style="fill: #add8e6; stroke: #add8e6"/>
    <path d="M 685.100826 330.339462 
C 690.236462 330.339462 695.162447 328.299052 698.79389 324.667609 
C 702.425333 321.036166 704.465743 316.110181 704.465743 310.974545 
C 704.465743 305.83891 702.425333 300.912925 698.79389 297.281482 
C 695.162447 293.650039 690.236462 291.609629 685.100826 291.609629 
C 679.96519 291.609629 675.039206 293.650039 671.407763 297.281482 
C 667.77632 300.912925 665.73591 305.83891 665.73591 310.974545 
C 665.73591 316.110181 667.77632 321.036166 671.407763 324.667609 
C 675.039206 328.299052 679.96519 330.339462 685.100826 330.339462 
z
" clip-path="url(#pc2941d7c46)" style="fill: #add8e6; stroke: #add8e6"/>
    <path d="M 771.567769 330.339462 
C 776.703405 330.339462 781.62939 328.299052 785.260833 324.667609 
C 788.892276 321.036166 790.932685 316.110181 790.932685 310.974545 
C 790.932685 305.83891 788.892276 300.912925 785.260833 297.281482 
C 781.62939 293.650039 776.703405 291.609629 771.567769 291.609629 
C 766.432133 291.609629 761.506148 293.650039 757.874705 297.281482 
C 754.243262 300.912925 752.202852 305.83891 752.202852 310.974545 
C 752.202852 316.110181 754.243262 321.036166 757.874705 324.667609 
C 761.506148 328.299052 766.432133 330.339462 771.567769 330.339462 
z
" clip-path="url(#pc2941d7c46)" style="fill: #add8e6; stroke: #add8e6"/>
    <path d="M 713.430451 207.982598 
C 718.566087 207.982598 723.492072 205.942189 727.123515 202.310746 
C 730.754958 198.679303 732.795368 193.753318 732.795368 188.617682 
C 732.795368 183.482046 730.754958 178.556061 727.123515 174.924618 
C 723.492072 171.293175 718.566087 169.252765 713.430451 169.252765 
C 708.294815 169.252765 703.36883 171.293175 699.737387 174.924618 
C 696.105944 178.556061 694.065535 183.482046 694.065535 188.617682 
C 694.065535 193.753318 696.105944 198.679303 699.737387 202.310746 
C 703.36883 205.942189 708.294815 207.982598 713.430451 207.982598 
z
" clip-path="url(#pc2941d7c46)" style="fill: #add8e6; stroke: #add8e6"/>
    <path d="M 425.7 106.776133 
C 444.452691 106.776133 462.439845 99.32561 475.7 86.065455 
C 488.960155 72.8053 496.410678 54.818146 496.410678 36.065455 
C 496.410678 17.312764 488.960155 -0.67439 475.7 -13.934545 
C 462.439845 -27.1947 444.452691 -34.645224 425.7 -34.645224 
C 406.947309 -34.645224 388.960155 -27.1947 375.7 -13.934545 
C 362.439845 -0.67439 354.989322 17.312764 354.989322 36.065455 
C 354.989322 54.818146 362.439845 72.8053 375.7 86.065455 
C 388.960155 99.32561 406.947309 106.776133 425.7 106.776133 
z
" clip-path="url(#pc2941d7c46)" style="fill: #008000; stroke: #008000"/>
   </g>
   <g id="text_1">
    <!--  13.1 : Introduction -->
    <g transform="translate(123.611502 187.765822) scale(0.03 -0.03)">
     <defs>
      <path id="DejaVuSans-20" transform="scale(0.015625)"/>
      <path id="DejaVuSans-31" d="M 794 531 
L 1825 531 
L 1825 4091 
L 703 3866 
L 703 4441 
L 1819 4666 
L 2450 4666 
L 2450 531 
L 3481 531 
L 3481 0 
L 794 0 
L 794 531 
z
" transform="scale(0.015625)"/>
      <path id="DejaVuSans-33" d="M 2597 2516 
Q 3050 2419 3304 2112 
Q 3559 1806 3559 1356 
Q 3559 666 3084 287 
Q 2609 -91 1734 -91 
Q 1441 -91 1130 -33 
Q 819 25 488 141 
L 488 750 
Q 750 597 1062 519 
Q 1375 441 1716 441 
Q 2309 441 2620 675 
Q 2931 909 2931 1356 
Q 2931 1769 2642 2001 
Q 2353 2234 1838 2234 
L 1294 2234 
L 1294 2753 
L 1863 2753 
Q 2328 2753 2575 2939 
Q 2822 3125 2822 3475 
Q 2822 3834 2567 4026 
Q 2313 4219 1838 4219 
Q 1578 4219 1281 4162 
Q 984 4106 628 3988 
L 628 4550 
Q 988 4650 1302 4700 
Q 1616 4750 1894 4750 
Q 2613 4750 3031 4423 
Q 3450 4097 3450 3541 
Q 3450 3153 3228 2886 
Q 3006 2619 2597 2516 
z
" transform="scale(0.015625)"/>
      <path id="DejaVuSans-2e" d="M 684 794 
L 1344 794 
L 1344 0 
L 684 0 
L 684 794 
z
" transform="scale(0.015625)"/>
      <path id="DejaVuSans-3a" d="M 750 794 
L 1409 794 
L 1409 0 
L 750 0 
L 750 794 
z
M 750 3309 
L 1409 3309 
L 1409 2516 
L 750 2516 
L 750 3309 
z
" transform="scale(0.015625)"/>
      <path id="DejaVuSans-49" d="M 628 4666 
L 1259 4666 
L 1259 0 
L 628 0 
L 628 4666 
z
" transform="scale(0.015625)"/>
      <path id="DejaVuSans-6e" d="M 3513 2113 
L 3513 0 
L 2938 0 
L 2938 2094 
Q 2938 2591 2744 2837 
Q 2550 3084 2163 3084 
Q 1697 3084 1428 2787 
Q 1159 2491 1159 1978 
L 1159 0 
L 581 0 
L 581 3500 
L 1159 3500 
L 1159 2956 
Q 1366 3272 1645 3428 
Q 1925 3584 2291 3584 
Q 2894 3584 3203 3211 
Q 3513 2838 3513 2113 
z
" transform="scale(0.015625)"/>
      <path id="DejaVuSans-74" d="M 1172 4494 
L 1172 3500 
L 2356 3500 
L 2356 3053 
L 1172 3053 
L 1172 1153 
Q 1172 725 1289 603 
Q 1406 481 1766 481 
L 2356 481 
L 2356 0 
L 1766 0 
Q 1100 0 847 248 
Q 594 497 594 1153 
L 594 3053 
L 172 3053 
L 172 3500 
L 594 3500 
L 594 4494 
L 1172 4494 
z
" transform="scale(0.015625)"/>
      <path id="DejaVuSans-72" d="M 2631 2963 
Q 2534 3019 2420 3045 
Q 2306 3072 2169 3072 
Q 1681 3072 1420 2755 
Q 1159 2438 1159 1844 
L 1159 0 
L 581 0 
L 581 3500 
L 1159 3500 
L 1159 2956 
Q 1341 3275 1631 3429 
Q 1922 3584 2338 3584 
Q 2397 3584 2469 3576 
Q 2541 3569 2628 3553 
L 2631 2963 
z
" transform="scale(0.015625)"/>
      <path id="DejaVuSans-6f" d="M 1959 3097 
Q 1497 3097 1228 2736 
Q 959 2375 959 1747 
Q 959 1119 1226 758 
Q 1494 397 1959 397 
Q 2419 397 2687 759 
Q 2956 1122 2956 1747 
Q 2956 2369 2687 2733 
Q 2419 3097 1959 3097 
z
M 1959 3584 
Q 2709 3584 3137 3096 
Q 3566 2609 3566 1747 
Q 3566 888 3137 398 
Q 2709 -91 1959 -91 
Q 1206 -91 779 398 
Q 353 888 353 1747 
Q 353 2609 779 3096 
Q 1206 3584 1959 3584 
z
" transform="scale(0.015625)"/>
      <path id="DejaVuSans-64" d="M 2906 2969 
L 2906 4863 
L 3481 4863 
L 3481 0 
L 2906 0 
L 2906 525 
Q 2725 213 2448 61 
Q 2172 -91 1784 -91 
Q 1150 -91 751 415 
Q 353 922 353 1747 
Q 353 2572 751 3078 
Q 1150 3584 1784 3584 
Q 2172 3584 2448 3432 
Q 2725 3281 2906 2969 
z
M 947 1747 
Q 947 1113 1208 752 
Q 1469 391 1925 391 
Q 2381 391 2643 752 
Q 2906 1113 2906 1747 
Q 2906 2381 2643 2742 
Q 2381 3103 1925 3103 
Q 1469 3103 1208 2742 
Q 947 2381 947 1747 
z
" transform="scale(0.015625)"/>
      <path id="DejaVuSans-75" d="M 544 1381 
L 544 3500 
L 1119 3500 
L 1119 1403 
Q 1119 906 1312 657 
Q 1506 409 1894 409 
Q 2359 409 2629 706 
Q 2900 1003 2900 1516 
L 2900 3500 
L 3475 3500 
L 3475 0 
L 2900 0 
L 2900 538 
Q 2691 219 2414 64 
Q 2138 -91 1772 -91 
Q 1169 -91 856 284 
Q 544 659 544 1381 
z
M 1991 3584 
L 1991 3584 
z
" transform="scale(0.015625)"/>
      <path id="DejaVuSans-63" d="M 3122 3366 
L 3122 2828 
Q 2878 2963 2633 3030 
Q 2388 3097 2138 3097 
Q 1578 3097 1268 2742 
Q 959 2388 959 1747 
Q 959 1106 1268 751 
Q 1578 397 2138 397 
Q 2388 397 2633 464 
Q 2878 531 3122 666 
L 3122 134 
Q 2881 22 2623 -34 
Q 2366 -91 2075 -91 
Q 1284 -91 818 406 
Q 353 903 353 1747 
Q 353 2603 823 3093 
Q 1294 3584 2113 3584 
Q 2378 3584 2631 3529 
Q 2884 3475 3122 3366 
z
" transform="scale(0.015625)"/>
      <path id="DejaVuSans-69" d="M 603 3500 
L 1178 3500 
L 1178 0 
L 603 0 
L 603 3500 
z
M 603 4863 
L 1178 4863 
L 1178 4134 
L 603 4134 
L 603 4863 
z
" transform="scale(0.015625)"/>
     </defs>
     <use xlink:href="#DejaVuSans-20"/>
     <use xlink:href="#DejaVuSans-31" transform="translate(31.787109 0)"/>
     <use xlink:href="#DejaVuSans-33" transform="translate(95.410156 0)"/>
     <use xlink:href="#DejaVuSans-2e" transform="translate(159.033203 0)"/>
     <use xlink:href="#DejaVuSans-31" transform="translate(190.820312 0)"/>
     <use xlink:href="#DejaVuSans-20" transform="translate(254.443359 0)"/>
     <use xlink:href="#DejaVuSans-3a" transform="translate(286.230469 0)"/>
     <use xlink:href="#DejaVuSans-20" transform="translate(319.921875 0)"/>
     <use xlink:href="#DejaVuSans-49" transform="translate(351.708984 0)"/>
     <use xlink:href="#DejaVuSans-6e" transform="translate(381.201172 0)"/>
     <use xlink:href="#DejaVuSans-74" transform="translate(444.580078 0)"/>
     <use xlink:href="#DejaVuSans-72" transform="translate(483.789062 0)"/>
     <use xlink:href="#DejaVuSans-6f" transform="translate(522.652344 0)"/>
     <use xlink:href="#DejaVuSans-64" transform="translate(583.833984 0)"/>
     <use xlink:href="#DejaVuSans-75" transform="translate(647.310547 0)"/>
     <use xlink:href="#DejaVuSans-63" transform="translate(710.689453 0)"/>
     <use xlink:href="#DejaVuSans-74" transform="translate(765.669922 0)"/>
     <use xlink:href="#DejaVuSans-69" transform="translate(804.878906 0)"/>
     <use xlink:href="#DejaVuSans-6f" transform="translate(832.662109 0)"/>
     <use xlink:href="#DejaVuSans-6e" transform="translate(893.84375 0)"/>
    </g>
    <!--  -->
    <g transform="translate(137.969549 191.125166) scale(0.03 -0.03)"/>
   </g>
   <g id="text_2">
    <!--  13.2 : Governing -->
    <g transform="translate(231.054788 187.197916) scale(0.05 -0.05)">
     <defs>
      <path id="DejaVuSans-32" d="M 1228 531 
L 3431 531 
L 3431 0 
L 469 0 
L 469 531 
Q 828 903 1448 1529 
Q 2069 2156 2228 2338 
Q 2531 2678 2651 2914 
Q 2772 3150 2772 3378 
Q 2772 3750 2511 3984 
Q 2250 4219 1831 4219 
Q 1534 4219 1204 4116 
Q 875 4013 500 3803 
L 500 4441 
Q 881 4594 1212 4672 
Q 1544 4750 1819 4750 
Q 2544 4750 2975 4387 
Q 3406 4025 3406 3419 
Q 3406 3131 3298 2873 
Q 3191 2616 2906 2266 
Q 2828 2175 2409 1742 
Q 1991 1309 1228 531 
z
" transform="scale(0.015625)"/>
      <path id="DejaVuSans-47" d="M 3809 666 
L 3809 1919 
L 2778 1919 
L 2778 2438 
L 4434 2438 
L 4434 434 
Q 4069 175 3628 42 
Q 3188 -91 2688 -91 
Q 1594 -91 976 548 
Q 359 1188 359 2328 
Q 359 3472 976 4111 
Q 1594 4750 2688 4750 
Q 3144 4750 3555 4637 
Q 3966 4525 4313 4306 
L 4313 3634 
Q 3963 3931 3569 4081 
Q 3175 4231 2741 4231 
Q 1884 4231 1454 3753 
Q 1025 3275 1025 2328 
Q 1025 1384 1454 906 
Q 1884 428 2741 428 
Q 3075 428 3337 486 
Q 3600 544 3809 666 
z
" transform="scale(0.015625)"/>
      <path id="DejaVuSans-76" d="M 191 3500 
L 800 3500 
L 1894 563 
L 2988 3500 
L 3597 3500 
L 2284 0 
L 1503 0 
L 191 3500 
z
" transform="scale(0.015625)"/>
      <path id="DejaVuSans-65" d="M 3597 1894 
L 3597 1613 
L 953 1613 
Q 991 1019 1311 708 
Q 1631 397 2203 397 
Q 2534 397 2845 478 
Q 3156 559 3463 722 
L 3463 178 
Q 3153 47 2828 -22 
Q 2503 -91 2169 -91 
Q 1331 -91 842 396 
Q 353 884 353 1716 
Q 353 2575 817 3079 
Q 1281 3584 2069 3584 
Q 2775 3584 3186 3129 
Q 3597 2675 3597 1894 
z
M 3022 2063 
Q 3016 2534 2758 2815 
Q 2500 3097 2075 3097 
Q 1594 3097 1305 2825 
Q 1016 2553 972 2059 
L 3022 2063 
z
" transform="scale(0.015625)"/>
      <path id="DejaVuSans-67" d="M 2906 1791 
Q 2906 2416 2648 2759 
Q 2391 3103 1925 3103 
Q 1463 3103 1205 2759 
Q 947 2416 947 1791 
Q 947 1169 1205 825 
Q 1463 481 1925 481 
Q 2391 481 2648 825 
Q 2906 1169 2906 1791 
z
M 3481 434 
Q 3481 -459 3084 -895 
Q 2688 -1331 1869 -1331 
Q 1566 -1331 1297 -1286 
Q 1028 -1241 775 -1147 
L 775 -588 
Q 1028 -725 1275 -790 
Q 1522 -856 1778 -856 
Q 2344 -856 2625 -561 
Q 2906 -266 2906 331 
L 2906 616 
Q 2728 306 2450 153 
Q 2172 0 1784 0 
Q 1141 0 747 490 
Q 353 981 353 1791 
Q 353 2603 747 3093 
Q 1141 3584 1784 3584 
Q 2172 3584 2450 3431 
Q 2728 3278 2906 2969 
L 2906 3500 
L 3481 3500 
L 3481 434 
z
" transform="scale(0.015625)"/>
     </defs>
     <use xlink:href="#DejaVuSans-20"/>
     <use xlink:href="#DejaVuSans-31" transform="translate(31.787109 0)"/>
     <use xlink:href="#DejaVuSans-33" transform="translate(95.410156 0)"/>
     <use xlink:href="#DejaVuSans-2e" transform="translate(159.033203 0)"/>
     <use xlink:href="#DejaVuSans-32" transform="translate(190.820312 0)"/>
     <use xlink:href="#DejaVuSans-20" transform="translate(254.443359 0)"/>
     <use xlink:href="#DejaVuSans-3a" transform="translate(286.230469 0)"/>
     <use xlink:href="#DejaVuSans-20" transform="translate(319.921875 0)"/>
     <use xlink:href="#DejaVuSans-47" transform="translate(351.708984 0)"/>
     <use xlink:href="#DejaVuSans-6f" transform="translate(429.199219 0)"/>
     <use xlink:href="#DejaVuSans-76" transform="translate(490.380859 0)"/>
     <use xlink:href="#DejaVuSans-65" transform="translate(549.560547 0)"/>
     <use xlink:href="#DejaVuSans-72" transform="translate(611.083984 0)"/>
     <use xlink:href="#DejaVuSans-6e" transform="translate(650.447266 0)"/>
     <use xlink:href="#DejaVuSans-69" transform="translate(713.826172 0)"/>
     <use xlink:href="#DejaVuSans-6e" transform="translate(741.609375 0)"/>
     <use xlink:href="#DejaVuSans-67" transform="translate(804.988281 0)"/>
    </g>
    <!--  Equations -->
    <g transform="translate(239.597366 192.796822) scale(0.05 -0.05)">
     <defs>
      <path id="DejaVuSans-45" d="M 628 4666 
L 3578 4666 
L 3578 4134 
L 1259 4134 
L 1259 2753 
L 3481 2753 
L 3481 2222 
L 1259 2222 
L 1259 531 
L 3634 531 
L 3634 0 
L 628 0 
L 628 4666 
z
" transform="scale(0.015625)"/>
      <path id="DejaVuSans-71" d="M 947 1747 
Q 947 1113 1208 752 
Q 1469 391 1925 391 
Q 2381 391 2643 752 
Q 2906 1113 2906 1747 
Q 2906 2381 2643 2742 
Q 2381 3103 1925 3103 
Q 1469 3103 1208 2742 
Q 947 2381 947 1747 
z
M 2906 525 
Q 2725 213 2448 61 
Q 2172 -91 1784 -91 
Q 1150 -91 751 415 
Q 353 922 353 1747 
Q 353 2572 751 3078 
Q 1150 3584 1784 3584 
Q 2172 3584 2448 3432 
Q 2725 3281 2906 2969 
L 2906 3500 
L 3481 3500 
L 3481 -1331 
L 2906 -1331 
L 2906 525 
z
" transform="scale(0.015625)"/>
      <path id="DejaVuSans-61" d="M 2194 1759 
Q 1497 1759 1228 1600 
Q 959 1441 959 1056 
Q 959 750 1161 570 
Q 1363 391 1709 391 
Q 2188 391 2477 730 
Q 2766 1069 2766 1631 
L 2766 1759 
L 2194 1759 
z
M 3341 1997 
L 3341 0 
L 2766 0 
L 2766 531 
Q 2569 213 2275 61 
Q 1981 -91 1556 -91 
Q 1019 -91 701 211 
Q 384 513 384 1019 
Q 384 1609 779 1909 
Q 1175 2209 1959 2209 
L 2766 2209 
L 2766 2266 
Q 2766 2663 2505 2880 
Q 2244 3097 1772 3097 
Q 1472 3097 1187 3025 
Q 903 2953 641 2809 
L 641 3341 
Q 956 3463 1253 3523 
Q 1550 3584 1831 3584 
Q 2591 3584 2966 3190 
Q 3341 2797 3341 1997 
z
" transform="scale(0.015625)"/>
      <path id="DejaVuSans-73" d="M 2834 3397 
L 2834 2853 
Q 2591 2978 2328 3040 
Q 2066 3103 1784 3103 
Q 1356 3103 1142 2972 
Q 928 2841 928 2578 
Q 928 2378 1081 2264 
Q 1234 2150 1697 2047 
L 1894 2003 
Q 2506 1872 2764 1633 
Q 3022 1394 3022 966 
Q 3022 478 2636 193 
Q 2250 -91 1575 -91 
Q 1294 -91 989 -36 
Q 684 19 347 128 
L 347 722 
Q 666 556 975 473 
Q 1284 391 1588 391 
Q 1994 391 2212 530 
Q 2431 669 2431 922 
Q 2431 1156 2273 1281 
Q 2116 1406 1581 1522 
L 1381 1569 
Q 847 1681 609 1914 
Q 372 2147 372 2553 
Q 372 3047 722 3315 
Q 1072 3584 1716 3584 
Q 2034 3584 2315 3537 
Q 2597 3491 2834 3397 
z
" transform="scale(0.015625)"/>
     </defs>
     <use xlink:href="#DejaVuSans-20"/>
     <use xlink:href="#DejaVuSans-45" transform="translate(31.787109 0)"/>
     <use xlink:href="#DejaVuSans-71" transform="translate(94.970703 0)"/>
     <use xlink:href="#DejaVuSans-75" transform="translate(158.447266 0)"/>
     <use xlink:href="#DejaVuSans-61" transform="translate(221.826172 0)"/>
     <use xlink:href="#DejaVuSans-74" transform="translate(283.105469 0)"/>
     <use xlink:href="#DejaVuSans-69" transform="translate(322.314453 0)"/>
     <use xlink:href="#DejaVuSans-6f" transform="translate(350.097656 0)"/>
     <use xlink:href="#DejaVuSans-6e" transform="translate(411.279297 0)"/>
     <use xlink:href="#DejaVuSans-73" transform="translate(474.658203 0)"/>
    </g>
   </g>
   <g id="text_3">
    <!--  13.2.1 : Richards' -->
    <g transform="translate(66.235903 310.122686) scale(0.03 -0.03)">
     <defs>
      <path id="DejaVuSans-52" d="M 2841 2188 
Q 3044 2119 3236 1894 
Q 3428 1669 3622 1275 
L 4263 0 
L 3584 0 
L 2988 1197 
Q 2756 1666 2539 1819 
Q 2322 1972 1947 1972 
L 1259 1972 
L 1259 0 
L 628 0 
L 628 4666 
L 2053 4666 
Q 2853 4666 3247 4331 
Q 3641 3997 3641 3322 
Q 3641 2881 3436 2590 
Q 3231 2300 2841 2188 
z
M 1259 4147 
L 1259 2491 
L 2053 2491 
Q 2509 2491 2742 2702 
Q 2975 2913 2975 3322 
Q 2975 3731 2742 3939 
Q 2509 4147 2053 4147 
L 1259 4147 
z
" transform="scale(0.015625)"/>
      <path id="DejaVuSans-68" d="M 3513 2113 
L 3513 0 
L 2938 0 
L 2938 2094 
Q 2938 2591 2744 2837 
Q 2550 3084 2163 3084 
Q 1697 3084 1428 2787 
Q 1159 2491 1159 1978 
L 1159 0 
L 581 0 
L 581 4863 
L 1159 4863 
L 1159 2956 
Q 1366 3272 1645 3428 
Q 1925 3584 2291 3584 
Q 2894 3584 3203 3211 
Q 3513 2838 3513 2113 
z
" transform="scale(0.015625)"/>
      <path id="DejaVuSans-27" d="M 1147 4666 
L 1147 2931 
L 616 2931 
L 616 4666 
L 1147 4666 
z
" transform="scale(0.015625)"/>
     </defs>
     <use xlink:href="#DejaVuSans-20"/>
     <use xlink:href="#DejaVuSans-31" transform="translate(31.787109 0)"/>
     <use xlink:href="#DejaVuSans-33" transform="translate(95.410156 0)"/>
     <use xlink:href="#DejaVuSans-2e" transform="translate(159.033203 0)"/>
     <use xlink:href="#DejaVuSans-32" transform="translate(190.820312 0)"/>
     <use xlink:href="#DejaVuSans-2e" transform="translate(254.443359 0)"/>
     <use xlink:href="#DejaVuSans-31" transform="translate(286.230469 0)"/>
     <use xlink:href="#DejaVuSans-20" transform="translate(349.853516 0)"/>
     <use xlink:href="#DejaVuSans-3a" transform="translate(381.640625 0)"/>
     <use xlink:href="#DejaVuSans-20" transform="translate(415.332031 0)"/>
     <use xlink:href="#DejaVuSans-52" transform="translate(447.119141 0)"/>
     <use xlink:href="#DejaVuSans-69" transform="translate(516.601562 0)"/>
     <use xlink:href="#DejaVuSans-63" transform="translate(544.384766 0)"/>
     <use xlink:href="#DejaVuSans-68" transform="translate(599.365234 0)"/>
     <use xlink:href="#DejaVuSans-61" transform="translate(662.744141 0)"/>
     <use xlink:href="#DejaVuSans-72" transform="translate(724.023438 0)"/>
     <use xlink:href="#DejaVuSans-64" transform="translate(763.386719 0)"/>
     <use xlink:href="#DejaVuSans-73" transform="translate(826.863281 0)"/>
     <use xlink:href="#DejaVuSans-27" transform="translate(878.962891 0)"/>
    </g>
    <!--  Equation -->
    <g transform="translate(72.712388 313.48203) scale(0.03 -0.03)">
     <use xlink:href="#DejaVuSans-20"/>
     <use xlink:href="#DejaVuSans-45" transform="translate(31.787109 0)"/>
     <use xlink:href="#DejaVuSans-71" transform="translate(94.970703 0)"/>
     <use xlink:href="#DejaVuSans-75" transform="translate(158.447266 0)"/>
     <use xlink:href="#DejaVuSans-61" transform="translate(221.826172 0)"/>
     <use xlink:href="#DejaVuSans-74" transform="translate(283.105469 0)"/>
     <use xlink:href="#DejaVuSans-69" transform="translate(322.314453 0)"/>
     <use xlink:href="#DejaVuSans-6f" transform="translate(350.097656 0)"/>
     <use xlink:href="#DejaVuSans-6e" transform="translate(411.279297 0)"/>
    </g>
   </g>
   <g id="text_4">
    <!--  13.2.2 : Unsaturated -->
    <g transform="translate(150.305892 308.443014) scale(0.03 -0.03)">
     <defs>
      <path id="DejaVuSans-55" d="M 556 4666 
L 1191 4666 
L 1191 1831 
Q 1191 1081 1462 751 
Q 1734 422 2344 422 
Q 2950 422 3222 751 
Q 3494 1081 3494 1831 
L 3494 4666 
L 4128 4666 
L 4128 1753 
Q 4128 841 3676 375 
Q 3225 -91 2344 -91 
Q 1459 -91 1007 375 
Q 556 841 556 1753 
L 556 4666 
z
" transform="scale(0.015625)"/>
     </defs>
     <use xlink:href="#DejaVuSans-20"/>
     <use xlink:href="#DejaVuSans-31" transform="translate(31.787109 0)"/>
     <use xlink:href="#DejaVuSans-33" transform="translate(95.410156 0)"/>
     <use xlink:href="#DejaVuSans-2e" transform="translate(159.033203 0)"/>
     <use xlink:href="#DejaVuSans-32" transform="translate(190.820312 0)"/>
     <use xlink:href="#DejaVuSans-2e" transform="translate(254.443359 0)"/>
     <use xlink:href="#DejaVuSans-32" transform="translate(286.230469 0)"/>
     <use xlink:href="#DejaVuSans-20" transform="translate(349.853516 0)"/>
     <use xlink:href="#DejaVuSans-3a" transform="translate(381.640625 0)"/>
     <use xlink:href="#DejaVuSans-20" transform="translate(415.332031 0)"/>
     <use xlink:href="#DejaVuSans-55" transform="translate(447.119141 0)"/>
     <use xlink:href="#DejaVuSans-6e" transform="translate(520.3125 0)"/>
     <use xlink:href="#DejaVuSans-73" transform="translate(583.691406 0)"/>
     <use xlink:href="#DejaVuSans-61" transform="translate(635.791016 0)"/>
     <use xlink:href="#DejaVuSans-74" transform="translate(697.070312 0)"/>
     <use xlink:href="#DejaVuSans-75" transform="translate(736.279297 0)"/>
     <use xlink:href="#DejaVuSans-72" transform="translate(799.658203 0)"/>
     <use xlink:href="#DejaVuSans-61" transform="translate(840.771484 0)"/>
     <use xlink:href="#DejaVuSans-74" transform="translate(902.050781 0)"/>
     <use xlink:href="#DejaVuSans-65" transform="translate(941.259766 0)"/>
     <use xlink:href="#DejaVuSans-64" transform="translate(1002.783203 0)"/>
    </g>
    <!--  Poroelasticity -->
    <g transform="translate(155.791439 311.802358) scale(0.03 -0.03)">
     <defs>
      <path id="DejaVuSans-50" d="M 1259 4147 
L 1259 2394 
L 2053 2394 
Q 2494 2394 2734 2622 
Q 2975 2850 2975 3272 
Q 2975 3691 2734 3919 
Q 2494 4147 2053 4147 
L 1259 4147 
z
M 628 4666 
L 2053 4666 
Q 2838 4666 3239 4311 
Q 3641 3956 3641 3272 
Q 3641 2581 3239 2228 
Q 2838 1875 2053 1875 
L 1259 1875 
L 1259 0 
L 628 0 
L 628 4666 
z
" transform="scale(0.015625)"/>
      <path id="DejaVuSans-6c" d="M 603 4863 
L 1178 4863 
L 1178 0 
L 603 0 
L 603 4863 
z
" transform="scale(0.015625)"/>
      <path id="DejaVuSans-79" d="M 2059 -325 
Q 1816 -950 1584 -1140 
Q 1353 -1331 966 -1331 
L 506 -1331 
L 506 -850 
L 844 -850 
Q 1081 -850 1212 -737 
Q 1344 -625 1503 -206 
L 1606 56 
L 191 3500 
L 800 3500 
L 1894 763 
L 2988 3500 
L 3597 3500 
L 2059 -325 
z
" transform="scale(0.015625)"/>
     </defs>
     <use xlink:href="#DejaVuSans-20"/>
     <use xlink:href="#DejaVuSans-50" transform="translate(31.787109 0)"/>
     <use xlink:href="#DejaVuSans-6f" transform="translate(88.464844 0)"/>
     <use xlink:href="#DejaVuSans-72" transform="translate(149.646484 0)"/>
     <use xlink:href="#DejaVuSans-6f" transform="translate(188.509766 0)"/>
     <use xlink:href="#DejaVuSans-65" transform="translate(249.691406 0)"/>
     <use xlink:href="#DejaVuSans-6c" transform="translate(311.214844 0)"/>
     <use xlink:href="#DejaVuSans-61" transform="translate(338.998047 0)"/>
     <use xlink:href="#DejaVuSans-73" transform="translate(400.277344 0)"/>
     <use xlink:href="#DejaVuSans-74" transform="translate(452.376953 0)"/>
     <use xlink:href="#DejaVuSans-69" transform="translate(491.585938 0)"/>
     <use xlink:href="#DejaVuSans-63" transform="translate(519.369141 0)"/>
     <use xlink:href="#DejaVuSans-69" transform="translate(574.349609 0)"/>
     <use xlink:href="#DejaVuSans-74" transform="translate(602.132812 0)"/>
     <use xlink:href="#DejaVuSans-79" transform="translate(641.341797 0)"/>
    </g>
    <!--  -->
    <g transform="translate(166.299174 315.161702) scale(0.03 -0.03)"/>
   </g>
   <g id="text_5">
    <!--  13.2.3 : Boundary -->
    <g transform="translate(238.835569 306.763342) scale(0.03 -0.03)">
     <defs>
      <path id="DejaVuSans-42" d="M 1259 2228 
L 1259 519 
L 2272 519 
Q 2781 519 3026 730 
Q 3272 941 3272 1375 
Q 3272 1813 3026 2020 
Q 2781 2228 2272 2228 
L 1259 2228 
z
M 1259 4147 
L 1259 2741 
L 2194 2741 
Q 2656 2741 2882 2914 
Q 3109 3088 3109 3444 
Q 3109 3797 2882 3972 
Q 2656 4147 2194 4147 
L 1259 4147 
z
M 628 4666 
L 2241 4666 
Q 2963 4666 3353 4366 
Q 3744 4066 3744 3513 
Q 3744 3084 3544 2831 
Q 3344 2578 2956 2516 
Q 3422 2416 3680 2098 
Q 3938 1781 3938 1306 
Q 3938 681 3513 340 
Q 3088 0 2303 0 
L 628 0 
L 628 4666 
z
" transform="scale(0.015625)"/>
     </defs>
     <use xlink:href="#DejaVuSans-20"/>
     <use xlink:href="#DejaVuSans-31" transform="translate(31.787109 0)"/>
     <use xlink:href="#DejaVuSans-33" transform="translate(95.410156 0)"/>
     <use xlink:href="#DejaVuSans-2e" transform="translate(159.033203 0)"/>
     <use xlink:href="#DejaVuSans-32" transform="translate(190.820312 0)"/>
     <use xlink:href="#DejaVuSans-2e" transform="translate(254.443359 0)"/>
     <use xlink:href="#DejaVuSans-33" transform="translate(286.230469 0)"/>
     <use xlink:href="#DejaVuSans-20" transform="translate(349.853516 0)"/>
     <use xlink:href="#DejaVuSans-3a" transform="translate(381.640625 0)"/>
     <use xlink:href="#DejaVuSans-20" transform="translate(415.332031 0)"/>
     <use xlink:href="#DejaVuSans-42" transform="translate(447.119141 0)"/>
     <use xlink:href="#DejaVuSans-6f" transform="translate(515.722656 0)"/>
     <use xlink:href="#DejaVuSans-75" transform="translate(576.904297 0)"/>
     <use xlink:href="#DejaVuSans-6e" transform="translate(640.283203 0)"/>
     <use xlink:href="#DejaVuSans-64" transform="translate(703.662109 0)"/>
     <use xlink:href="#DejaVuSans-61" transform="translate(767.138672 0)"/>
     <use xlink:href="#DejaVuSans-72" transform="translate(828.417969 0)"/>
     <use xlink:href="#DejaVuSans-79" transform="translate(869.53125 0)"/>
    </g>
    <!--  and Initial -->
    <g transform="translate(244.840022 310.122686) scale(0.03 -0.03)">
     <use xlink:href="#DejaVuSans-20"/>
     <use xlink:href="#DejaVuSans-61" transform="translate(31.787109 0)"/>
     <use xlink:href="#DejaVuSans-6e" transform="translate(93.066406 0)"/>
     <use xlink:href="#DejaVuSans-64" transform="translate(156.445312 0)"/>
     <use xlink:href="#DejaVuSans-20" transform="translate(219.921875 0)"/>
     <use xlink:href="#DejaVuSans-49" transform="translate(251.708984 0)"/>
     <use xlink:href="#DejaVuSans-6e" transform="translate(281.201172 0)"/>
     <use xlink:href="#DejaVuSans-69" transform="translate(344.580078 0)"/>
     <use xlink:href="#DejaVuSans-74" transform="translate(372.363281 0)"/>
     <use xlink:href="#DejaVuSans-69" transform="translate(411.572266 0)"/>
     <use xlink:href="#DejaVuSans-61" transform="translate(439.355469 0)"/>
     <use xlink:href="#DejaVuSans-6c" transform="translate(500.634766 0)"/>
    </g>
    <!--  Conditions -->
    <g transform="translate(244.349944 313.48203) scale(0.03 -0.03)">
     <defs>
      <path id="DejaVuSans-43" d="M 4122 4306 
L 4122 3641 
Q 3803 3938 3442 4084 
Q 3081 4231 2675 4231 
Q 1875 4231 1450 3742 
Q 1025 3253 1025 2328 
Q 1025 1406 1450 917 
Q 1875 428 2675 428 
Q 3081 428 3442 575 
Q 3803 722 4122 1019 
L 4122 359 
Q 3791 134 3420 21 
Q 3050 -91 2638 -91 
Q 1578 -91 968 557 
Q 359 1206 359 2328 
Q 359 3453 968 4101 
Q 1578 4750 2638 4750 
Q 3056 4750 3426 4639 
Q 3797 4528 4122 4306 
z
" transform="scale(0.015625)"/>
     </defs>
     <use xlink:href="#DejaVuSans-20"/>
     <use xlink:href="#DejaVuSans-43" transform="translate(31.787109 0)"/>
     <use xlink:href="#DejaVuSans-6f" transform="translate(101.611328 0)"/>
     <use xlink:href="#DejaVuSans-6e" transform="translate(162.792969 0)"/>
     <use xlink:href="#DejaVuSans-64" transform="translate(226.171875 0)"/>
     <use xlink:href="#DejaVuSans-69" transform="translate(289.648438 0)"/>
     <use xlink:href="#DejaVuSans-74" transform="translate(317.431641 0)"/>
     <use xlink:href="#DejaVuSans-69" transform="translate(356.640625 0)"/>
     <use xlink:href="#DejaVuSans-6f" transform="translate(384.423828 0)"/>
     <use xlink:href="#DejaVuSans-6e" transform="translate(445.605469 0)"/>
     <use xlink:href="#DejaVuSans-73" transform="translate(508.984375 0)"/>
    </g>
    <!--  -->
    <g transform="translate(252.766116 316.841374) scale(0.03 -0.03)"/>
   </g>
   <g id="text_6">
    <!--  13.3 : Discretization -->
    <g transform="translate(399.794141 184.398463) scale(0.05 -0.05)">
     <defs>
      <path id="DejaVuSans-44" d="M 1259 4147 
L 1259 519 
L 2022 519 
Q 2988 519 3436 956 
Q 3884 1394 3884 2338 
Q 3884 3275 3436 3711 
Q 2988 4147 2022 4147 
L 1259 4147 
z
M 628 4666 
L 1925 4666 
Q 3281 4666 3915 4102 
Q 4550 3538 4550 2338 
Q 4550 1131 3912 565 
Q 3275 0 1925 0 
L 628 0 
L 628 4666 
z
" transform="scale(0.015625)"/>
      <path id="DejaVuSans-7a" d="M 353 3500 
L 3084 3500 
L 3084 2975 
L 922 459 
L 3084 459 
L 3084 0 
L 275 0 
L 275 525 
L 2438 3041 
L 353 3041 
L 353 3500 
z
" transform="scale(0.015625)"/>
     </defs>
     <use xlink:href="#DejaVuSans-20"/>
     <use xlink:href="#DejaVuSans-31" transform="translate(31.787109 0)"/>
     <use xlink:href="#DejaVuSans-33" transform="translate(95.410156 0)"/>
     <use xlink:href="#DejaVuSans-2e" transform="translate(159.033203 0)"/>
     <use xlink:href="#DejaVuSans-33" transform="translate(190.820312 0)"/>
     <use xlink:href="#DejaVuSans-20" transform="translate(254.443359 0)"/>
     <use xlink:href="#DejaVuSans-3a" transform="translate(286.230469 0)"/>
     <use xlink:href="#DejaVuSans-20" transform="translate(319.921875 0)"/>
     <use xlink:href="#DejaVuSans-44" transform="translate(351.708984 0)"/>
     <use xlink:href="#DejaVuSans-69" transform="translate(428.710938 0)"/>
     <use xlink:href="#DejaVuSans-73" transform="translate(456.494141 0)"/>
     <use xlink:href="#DejaVuSans-63" transform="translate(508.59375 0)"/>
     <use xlink:href="#DejaVuSans-72" transform="translate(563.574219 0)"/>
     <use xlink:href="#DejaVuSans-65" transform="translate(602.4375 0)"/>
     <use xlink:href="#DejaVuSans-74" transform="translate(663.960938 0)"/>
     <use xlink:href="#DejaVuSans-69" transform="translate(703.169922 0)"/>
     <use xlink:href="#DejaVuSans-7a" transform="translate(730.953125 0)"/>
     <use xlink:href="#DejaVuSans-61" transform="translate(783.443359 0)"/>
     <use xlink:href="#DejaVuSans-74" transform="translate(844.722656 0)"/>
     <use xlink:href="#DejaVuSans-69" transform="translate(883.931641 0)"/>
     <use xlink:href="#DejaVuSans-6f" transform="translate(911.714844 0)"/>
     <use xlink:href="#DejaVuSans-6e" transform="translate(972.896484 0)"/>
    </g>
    <!--  and Implementation -->
    <g transform="translate(399.55625 189.997369) scale(0.05 -0.05)">
     <defs>
      <path id="DejaVuSans-6d" d="M 3328 2828 
Q 3544 3216 3844 3400 
Q 4144 3584 4550 3584 
Q 5097 3584 5394 3201 
Q 5691 2819 5691 2113 
L 5691 0 
L 5113 0 
L 5113 2094 
Q 5113 2597 4934 2840 
Q 4756 3084 4391 3084 
Q 3944 3084 3684 2787 
Q 3425 2491 3425 1978 
L 3425 0 
L 2847 0 
L 2847 2094 
Q 2847 2600 2669 2842 
Q 2491 3084 2119 3084 
Q 1678 3084 1418 2786 
Q 1159 2488 1159 1978 
L 1159 0 
L 581 0 
L 581 3500 
L 1159 3500 
L 1159 2956 
Q 1356 3278 1631 3431 
Q 1906 3584 2284 3584 
Q 2666 3584 2933 3390 
Q 3200 3197 3328 2828 
z
" transform="scale(0.015625)"/>
      <path id="DejaVuSans-70" d="M 1159 525 
L 1159 -1331 
L 581 -1331 
L 581 3500 
L 1159 3500 
L 1159 2969 
Q 1341 3281 1617 3432 
Q 1894 3584 2278 3584 
Q 2916 3584 3314 3078 
Q 3713 2572 3713 1747 
Q 3713 922 3314 415 
Q 2916 -91 2278 -91 
Q 1894 -91 1617 61 
Q 1341 213 1159 525 
z
M 3116 1747 
Q 3116 2381 2855 2742 
Q 2594 3103 2138 3103 
Q 1681 3103 1420 2742 
Q 1159 2381 1159 1747 
Q 1159 1113 1420 752 
Q 1681 391 2138 391 
Q 2594 391 2855 752 
Q 3116 1113 3116 1747 
z
" transform="scale(0.015625)"/>
     </defs>
     <use xlink:href="#DejaVuSans-20"/>
     <use xlink:href="#DejaVuSans-61" transform="translate(31.787109 0)"/>
     <use xlink:href="#DejaVuSans-6e" transform="translate(93.066406 0)"/>
     <use xlink:href="#DejaVuSans-64" transform="translate(156.445312 0)"/>
     <use xlink:href="#DejaVuSans-20" transform="translate(219.921875 0)"/>
     <use xlink:href="#DejaVuSans-49" transform="translate(251.708984 0)"/>
     <use xlink:href="#DejaVuSans-6d" transform="translate(281.201172 0)"/>
     <use xlink:href="#DejaVuSans-70" transform="translate(378.613281 0)"/>
     <use xlink:href="#DejaVuSans-6c" transform="translate(442.089844 0)"/>
     <use xlink:href="#DejaVuSans-65" transform="translate(469.873047 0)"/>
     <use xlink:href="#DejaVuSans-6d" transform="translate(531.396484 0)"/>
     <use xlink:href="#DejaVuSans-65" transform="translate(628.808594 0)"/>
     <use xlink:href="#DejaVuSans-6e" transform="translate(690.332031 0)"/>
     <use xlink:href="#DejaVuSans-74" transform="translate(753.710938 0)"/>
     <use xlink:href="#DejaVuSans-61" transform="translate(792.919922 0)"/>
     <use xlink:href="#DejaVuSans-74" transform="translate(854.199219 0)"/>
     <use xlink:href="#DejaVuSans-69" transform="translate(893.408203 0)"/>
     <use xlink:href="#DejaVuSans-6f" transform="translate(921.191406 0)"/>
     <use xlink:href="#DejaVuSans-6e" transform="translate(982.373047 0)"/>
    </g>
    <!--  -->
    <g transform="translate(425.7 195.596275) scale(0.05 -0.05)"/>
   </g>
   <g id="text_7">
    <!--  13.3.1 : MPFA -->
    <g transform="translate(328.576027 310.122686) scale(0.03 -0.03)">
     <defs>
      <path id="DejaVuSans-4d" d="M 628 4666 
L 1569 4666 
L 2759 1491 
L 3956 4666 
L 4897 4666 
L 4897 0 
L 4281 0 
L 4281 4097 
L 3078 897 
L 2444 897 
L 1241 4097 
L 1241 0 
L 628 0 
L 628 4666 
z
" transform="scale(0.015625)"/>
      <path id="DejaVuSans-46" d="M 628 4666 
L 3309 4666 
L 3309 4134 
L 1259 4134 
L 1259 2759 
L 3109 2759 
L 3109 2228 
L 1259 2228 
L 1259 0 
L 628 0 
L 628 4666 
z
" transform="scale(0.015625)"/>
      <path id="DejaVuSans-41" d="M 2188 4044 
L 1331 1722 
L 3047 1722 
L 2188 4044 
z
M 1831 4666 
L 2547 4666 
L 4325 0 
L 3669 0 
L 3244 1197 
L 1141 1197 
L 716 0 
L 50 0 
L 1831 4666 
z
" transform="scale(0.015625)"/>
     </defs>
     <use xlink:href="#DejaVuSans-20"/>
     <use xlink:href="#DejaVuSans-31" transform="translate(31.787109 0)"/>
     <use xlink:href="#DejaVuSans-33" transform="translate(95.410156 0)"/>
     <use xlink:href="#DejaVuSans-2e" transform="translate(159.033203 0)"/>
     <use xlink:href="#DejaVuSans-33" transform="translate(190.820312 0)"/>
     <use xlink:href="#DejaVuSans-2e" transform="translate(254.443359 0)"/>
     <use xlink:href="#DejaVuSans-31" transform="translate(286.230469 0)"/>
     <use xlink:href="#DejaVuSans-20" transform="translate(349.853516 0)"/>
     <use xlink:href="#DejaVuSans-3a" transform="translate(381.640625 0)"/>
     <use xlink:href="#DejaVuSans-20" transform="translate(415.332031 0)"/>
     <use xlink:href="#DejaVuSans-4d" transform="translate(447.119141 0)"/>
     <use xlink:href="#DejaVuSans-50" transform="translate(533.398438 0)"/>
     <use xlink:href="#DejaVuSans-46" transform="translate(593.701172 0)"/>
     <use xlink:href="#DejaVuSans-41" transform="translate(642.095703 0)"/>
    </g>
    <!--  and MPSA -->
    <g transform="translate(331.252355 313.48203) scale(0.03 -0.03)">
     <defs>
      <path id="DejaVuSans-53" d="M 3425 4513 
L 3425 3897 
Q 3066 4069 2747 4153 
Q 2428 4238 2131 4238 
Q 1616 4238 1336 4038 
Q 1056 3838 1056 3469 
Q 1056 3159 1242 3001 
Q 1428 2844 1947 2747 
L 2328 2669 
Q 3034 2534 3370 2195 
Q 3706 1856 3706 1288 
Q 3706 609 3251 259 
Q 2797 -91 1919 -91 
Q 1588 -91 1214 -16 
Q 841 59 441 206 
L 441 856 
Q 825 641 1194 531 
Q 1563 422 1919 422 
Q 2459 422 2753 634 
Q 3047 847 3047 1241 
Q 3047 1584 2836 1778 
Q 2625 1972 2144 2069 
L 1759 2144 
Q 1053 2284 737 2584 
Q 422 2884 422 3419 
Q 422 4038 858 4394 
Q 1294 4750 2059 4750 
Q 2388 4750 2728 4690 
Q 3069 4631 3425 4513 
z
" transform="scale(0.015625)"/>
     </defs>
     <use xlink:href="#DejaVuSans-20"/>
     <use xlink:href="#DejaVuSans-61" transform="translate(31.787109 0)"/>
     <use xlink:href="#DejaVuSans-6e" transform="translate(93.066406 0)"/>
     <use xlink:href="#DejaVuSans-64" transform="translate(156.445312 0)"/>
     <use xlink:href="#DejaVuSans-20" transform="translate(219.921875 0)"/>
     <use xlink:href="#DejaVuSans-4d" transform="translate(251.708984 0)"/>
     <use xlink:href="#DejaVuSans-50" transform="translate(337.988281 0)"/>
     <use xlink:href="#DejaVuSans-53" transform="translate(398.291016 0)"/>
     <use xlink:href="#DejaVuSans-41" transform="translate(463.642578 0)"/>
    </g>
   </g>
   <g id="text_8">
    <!--  13.3.2 : Discretization -->
    <g transform="translate(408.725391 310.122686) scale(0.03 -0.03)">
     <use xlink:href="#DejaVuSans-20"/>
     <use xlink:href="#DejaVuSans-31" transform="translate(31.787109 0)"/>
     <use xlink:href="#DejaVuSans-33" transform="translate(95.410156 0)"/>
     <use xlink:href="#DejaVuSans-2e" transform="translate(159.033203 0)"/>
     <use xlink:href="#DejaVuSans-33" transform="translate(190.820312 0)"/>
     <use xlink:href="#DejaVuSans-2e" transform="translate(254.443359 0)"/>
     <use xlink:href="#DejaVuSans-32" transform="translate(286.230469 0)"/>
     <use xlink:href="#DejaVuSans-20" transform="translate(349.853516 0)"/>
     <use xlink:href="#DejaVuSans-3a" transform="translate(381.640625 0)"/>
     <use xlink:href="#DejaVuSans-20" transform="translate(415.332031 0)"/>
     <use xlink:href="#DejaVuSans-44" transform="translate(447.119141 0)"/>
     <use xlink:href="#DejaVuSans-69" transform="translate(524.121094 0)"/>
     <use xlink:href="#DejaVuSans-73" transform="translate(551.904297 0)"/>
     <use xlink:href="#DejaVuSans-63" transform="translate(604.003906 0)"/>
     <use xlink:href="#DejaVuSans-72" transform="translate(658.984375 0)"/>
     <use xlink:href="#DejaVuSans-65" transform="translate(697.847656 0)"/>
     <use xlink:href="#DejaVuSans-74" transform="translate(759.371094 0)"/>
     <use xlink:href="#DejaVuSans-69" transform="translate(798.580078 0)"/>
     <use xlink:href="#DejaVuSans-7a" transform="translate(826.363281 0)"/>
     <use xlink:href="#DejaVuSans-61" transform="translate(878.853516 0)"/>
     <use xlink:href="#DejaVuSans-74" transform="translate(940.132812 0)"/>
     <use xlink:href="#DejaVuSans-69" transform="translate(979.341797 0)"/>
     <use xlink:href="#DejaVuSans-6f" transform="translate(1007.125 0)"/>
     <use xlink:href="#DejaVuSans-6e" transform="translate(1068.306641 0)"/>
    </g>
    <!--  -->
    <g transform="translate(425.7 313.48203) scale(0.03 -0.03)"/>
   </g>
   <g id="text_9">
    <!--  13.3.3 : Solving -->
    <g transform="translate(499.966317 308.443014) scale(0.03 -0.03)">
     <use xlink:href="#DejaVuSans-20"/>
     <use xlink:href="#DejaVuSans-31" transform="translate(31.787109 0)"/>
     <use xlink:href="#DejaVuSans-33" transform="translate(95.410156 0)"/>
     <use xlink:href="#DejaVuSans-2e" transform="translate(159.033203 0)"/>
     <use xlink:href="#DejaVuSans-33" transform="translate(190.820312 0)"/>
     <use xlink:href="#DejaVuSans-2e" transform="translate(254.443359 0)"/>
     <use xlink:href="#DejaVuSans-33" transform="translate(286.230469 0)"/>
     <use xlink:href="#DejaVuSans-20" transform="translate(349.853516 0)"/>
     <use xlink:href="#DejaVuSans-3a" transform="translate(381.640625 0)"/>
     <use xlink:href="#DejaVuSans-20" transform="translate(415.332031 0)"/>
     <use xlink:href="#DejaVuSans-53" transform="translate(447.119141 0)"/>
     <use xlink:href="#DejaVuSans-6f" transform="translate(510.595703 0)"/>
     <use xlink:href="#DejaVuSans-6c" transform="translate(571.777344 0)"/>
     <use xlink:href="#DejaVuSans-76" transform="translate(599.560547 0)"/>
     <use xlink:href="#DejaVuSans-69" transform="translate(658.740234 0)"/>
     <use xlink:href="#DejaVuSans-6e" transform="translate(686.523438 0)"/>
     <use xlink:href="#DejaVuSans-67" transform="translate(749.902344 0)"/>
    </g>
    <!--  the Equations -->
    <g transform="translate(501.327333 311.802358) scale(0.03 -0.03)">
     <use xlink:href="#DejaVuSans-20"/>
     <use xlink:href="#DejaVuSans-74" transform="translate(31.787109 0)"/>
     <use xlink:href="#DejaVuSans-68" transform="translate(70.996094 0)"/>
     <use xlink:href="#DejaVuSans-65" transform="translate(134.375 0)"/>
     <use xlink:href="#DejaVuSans-20" transform="translate(195.898438 0)"/>
     <use xlink:href="#DejaVuSans-45" transform="translate(227.685547 0)"/>
     <use xlink:href="#DejaVuSans-71" transform="translate(290.869141 0)"/>
     <use xlink:href="#DejaVuSans-75" transform="translate(354.345703 0)"/>
     <use xlink:href="#DejaVuSans-61" transform="translate(417.724609 0)"/>
     <use xlink:href="#DejaVuSans-74" transform="translate(479.003906 0)"/>
     <use xlink:href="#DejaVuSans-69" transform="translate(518.212891 0)"/>
     <use xlink:href="#DejaVuSans-6f" transform="translate(545.996094 0)"/>
     <use xlink:href="#DejaVuSans-6e" transform="translate(607.177734 0)"/>
     <use xlink:href="#DejaVuSans-73" transform="translate(670.556641 0)"/>
    </g>
    <!--  -->
    <g transform="translate(512.166942 315.161702) scale(0.03 -0.03)"/>
   </g>
   <g id="text_10">
    <!--  13.4 : Numerical -->
    <g transform="translate(577.090134 187.197916) scale(0.05 -0.05)">
     <defs>
      <path id="DejaVuSans-34" d="M 2419 4116 
L 825 1625 
L 2419 1625 
L 2419 4116 
z
M 2253 4666 
L 3047 4666 
L 3047 1625 
L 3713 1625 
L 3713 1100 
L 3047 1100 
L 3047 0 
L 2419 0 
L 2419 1100 
L 313 1100 
L 313 1709 
L 2253 4666 
z
" transform="scale(0.015625)"/>
      <path id="DejaVuSans-4e" d="M 628 4666 
L 1478 4666 
L 3547 763 
L 3547 4666 
L 4159 4666 
L 4159 0 
L 3309 0 
L 1241 3903 
L 1241 0 
L 628 0 
L 628 4666 
z
" transform="scale(0.015625)"/>
     </defs>
     <use xlink:href="#DejaVuSans-20"/>
     <use xlink:href="#DejaVuSans-31" transform="translate(31.787109 0)"/>
     <use xlink:href="#DejaVuSans-33" transform="translate(95.410156 0)"/>
     <use xlink:href="#DejaVuSans-2e" transform="translate(159.033203 0)"/>
     <use xlink:href="#DejaVuSans-34" transform="translate(190.820312 0)"/>
     <use xlink:href="#DejaVuSans-20" transform="translate(254.443359 0)"/>
     <use xlink:href="#DejaVuSans-3a" transform="translate(286.230469 0)"/>
     <use xlink:href="#DejaVuSans-20" transform="translate(319.921875 0)"/>
     <use xlink:href="#DejaVuSans-4e" transform="translate(351.708984 0)"/>
     <use xlink:href="#DejaVuSans-75" transform="translate(426.513672 0)"/>
     <use xlink:href="#DejaVuSans-6d" transform="translate(489.892578 0)"/>
     <use xlink:href="#DejaVuSans-65" transform="translate(587.304688 0)"/>
     <use xlink:href="#DejaVuSans-72" transform="translate(648.828125 0)"/>
     <use xlink:href="#DejaVuSans-69" transform="translate(689.941406 0)"/>
     <use xlink:href="#DejaVuSans-63" transform="translate(717.724609 0)"/>
     <use xlink:href="#DejaVuSans-61" transform="translate(772.705078 0)"/>
     <use xlink:href="#DejaVuSans-6c" transform="translate(833.984375 0)"/>
    </g>
    <!--  Examples -->
    <g transform="translate(585.690525 192.796822) scale(0.05 -0.05)">
     <defs>
      <path id="DejaVuSans-78" d="M 3513 3500 
L 2247 1797 
L 3578 0 
L 2900 0 
L 1881 1375 
L 863 0 
L 184 0 
L 1544 1831 
L 300 3500 
L 978 3500 
L 1906 2253 
L 2834 3500 
L 3513 3500 
z
" transform="scale(0.015625)"/>
     </defs>
     <use xlink:href="#DejaVuSans-20"/>
     <use xlink:href="#DejaVuSans-45" transform="translate(31.787109 0)"/>
     <use xlink:href="#DejaVuSans-78" transform="translate(94.970703 0)"/>
     <use xlink:href="#DejaVuSans-61" transform="translate(154.150391 0)"/>
     <use xlink:href="#DejaVuSans-6d" transform="translate(215.429688 0)"/>
     <use xlink:href="#DejaVuSans-70" transform="translate(312.841797 0)"/>
     <use xlink:href="#DejaVuSans-6c" transform="translate(376.318359 0)"/>
     <use xlink:href="#DejaVuSans-65" transform="translate(404.101562 0)"/>
     <use xlink:href="#DejaVuSans-73" transform="translate(465.625 0)"/>
    </g>
   </g>
   <g id="text_11">
    <!--  13.4.1 : Numerical -->
    <g transform="translate(584.276541 308.443014) scale(0.03 -0.03)">
     <use xlink:href="#DejaVuSans-20"/>
     <use xlink:href="#DejaVuSans-31" transform="translate(31.787109 0)"/>
     <use xlink:href="#DejaVuSans-33" transform="translate(95.410156 0)"/>
     <use xlink:href="#DejaVuSans-2e" transform="translate(159.033203 0)"/>
     <use xlink:href="#DejaVuSans-34" transform="translate(190.820312 0)"/>
     <use xlink:href="#DejaVuSans-2e" transform="translate(254.443359 0)"/>
     <use xlink:href="#DejaVuSans-31" transform="translate(286.230469 0)"/>
     <use xlink:href="#DejaVuSans-20" transform="translate(349.853516 0)"/>
     <use xlink:href="#DejaVuSans-3a" transform="translate(381.640625 0)"/>
     <use xlink:href="#DejaVuSans-20" transform="translate(415.332031 0)"/>
     <use xlink:href="#DejaVuSans-4e" transform="translate(447.119141 0)"/>
     <use xlink:href="#DejaVuSans-75" transform="translate(521.923828 0)"/>
     <use xlink:href="#DejaVuSans-6d" transform="translate(585.302734 0)"/>
     <use xlink:href="#DejaVuSans-65" transform="translate(682.714844 0)"/>
     <use xlink:href="#DejaVuSans-72" transform="translate(744.238281 0)"/>
     <use xlink:href="#DejaVuSans-69" transform="translate(785.351562 0)"/>
     <use xlink:href="#DejaVuSans-63" transform="translate(813.134766 0)"/>
     <use xlink:href="#DejaVuSans-61" transform="translate(868.115234 0)"/>
     <use xlink:href="#DejaVuSans-6c" transform="translate(929.394531 0)"/>
    </g>
    <!--  Convergence -->
    <g transform="translate(588.266541 311.802358) scale(0.03 -0.03)">
     <use xlink:href="#DejaVuSans-20"/>
     <use xlink:href="#DejaVuSans-43" transform="translate(31.787109 0)"/>
     <use xlink:href="#DejaVuSans-6f" transform="translate(101.611328 0)"/>
     <use xlink:href="#DejaVuSans-6e" transform="translate(162.792969 0)"/>
     <use xlink:href="#DejaVuSans-76" transform="translate(226.171875 0)"/>
     <use xlink:href="#DejaVuSans-65" transform="translate(285.351562 0)"/>
     <use xlink:href="#DejaVuSans-72" transform="translate(346.875 0)"/>
     <use xlink:href="#DejaVuSans-67" transform="translate(386.238281 0)"/>
     <use xlink:href="#DejaVuSans-65" transform="translate(449.714844 0)"/>
     <use xlink:href="#DejaVuSans-6e" transform="translate(511.238281 0)"/>
     <use xlink:href="#DejaVuSans-63" transform="translate(574.617188 0)"/>
     <use xlink:href="#DejaVuSans-65" transform="translate(629.597656 0)"/>
    </g>
    <!--  Tests -->
    <g transform="translate(594.422166 315.161702) scale(0.03 -0.03)">
     <defs>
      <path id="DejaVuSans-54" d="M -19 4666 
L 3928 4666 
L 3928 4134 
L 2272 4134 
L 2272 0 
L 1638 0 
L 1638 4134 
L -19 4134 
L -19 4666 
z
" transform="scale(0.015625)"/>
     </defs>
     <use xlink:href="#DejaVuSans-20"/>
     <use xlink:href="#DejaVuSans-54" transform="translate(31.787109 0)"/>
     <use xlink:href="#DejaVuSans-65" transform="translate(75.871094 0)"/>
     <use xlink:href="#DejaVuSans-73" transform="translate(137.394531 0)"/>
     <use xlink:href="#DejaVuSans-74" transform="translate(189.494141 0)"/>
     <use xlink:href="#DejaVuSans-73" transform="translate(228.703125 0)"/>
    </g>
   </g>
   <g id="text_12">
    <!--  13.4.2 : Water -->
    <g transform="translate(673.960045 305.08367) scale(0.03 -0.03)">
     <defs>
      <path id="DejaVuSans-57" d="M 213 4666 
L 850 4666 
L 1831 722 
L 2809 4666 
L 3519 4666 
L 4500 722 
L 5478 4666 
L 6119 4666 
L 4947 0 
L 4153 0 
L 3169 4050 
L 2175 0 
L 1381 0 
L 213 4666 
z
" transform="scale(0.015625)"/>
     </defs>
     <use xlink:href="#DejaVuSans-20"/>
     <use xlink:href="#DejaVuSans-31" transform="translate(31.787109 0)"/>
     <use xlink:href="#DejaVuSans-33" transform="translate(95.410156 0)"/>
     <use xlink:href="#DejaVuSans-2e" transform="translate(159.033203 0)"/>
     <use xlink:href="#DejaVuSans-34" transform="translate(190.820312 0)"/>
     <use xlink:href="#DejaVuSans-2e" transform="translate(254.443359 0)"/>
     <use xlink:href="#DejaVuSans-32" transform="translate(286.230469 0)"/>
     <use xlink:href="#DejaVuSans-20" transform="translate(349.853516 0)"/>
     <use xlink:href="#DejaVuSans-3a" transform="translate(381.640625 0)"/>
     <use xlink:href="#DejaVuSans-20" transform="translate(415.332031 0)"/>
     <use xlink:href="#DejaVuSans-57" transform="translate(447.119141 0)"/>
     <use xlink:href="#DejaVuSans-61" transform="translate(539.621094 0)"/>
     <use xlink:href="#DejaVuSans-74" transform="translate(600.900391 0)"/>
     <use xlink:href="#DejaVuSans-65" transform="translate(640.109375 0)"/>
     <use xlink:href="#DejaVuSans-72" transform="translate(701.632812 0)"/>
    </g>
    <!--  Infiltration -->
    <g transform="translate(676.872389 308.443014) scale(0.03 -0.03)">
     <defs>
      <path id="DejaVuSans-66" d="M 2375 4863 
L 2375 4384 
L 1825 4384 
Q 1516 4384 1395 4259 
Q 1275 4134 1275 3809 
L 1275 3500 
L 2222 3500 
L 2222 3053 
L 1275 3053 
L 1275 0 
L 697 0 
L 697 3053 
L 147 3053 
L 147 3500 
L 697 3500 
L 697 3744 
Q 697 4328 969 4595 
Q 1241 4863 1831 4863 
L 2375 4863 
z
" transform="scale(0.015625)"/>
     </defs>
     <use xlink:href="#DejaVuSans-20"/>
     <use xlink:href="#DejaVuSans-49" transform="translate(31.787109 0)"/>
     <use xlink:href="#DejaVuSans-6e" transform="translate(61.279297 0)"/>
     <use xlink:href="#DejaVuSans-66" transform="translate(124.658203 0)"/>
     <use xlink:href="#DejaVuSans-69" transform="translate(159.863281 0)"/>
     <use xlink:href="#DejaVuSans-6c" transform="translate(187.646484 0)"/>
     <use xlink:href="#DejaVuSans-74" transform="translate(215.429688 0)"/>
     <use xlink:href="#DejaVuSans-72" transform="translate(254.638672 0)"/>
     <use xlink:href="#DejaVuSans-61" transform="translate(295.751953 0)"/>
     <use xlink:href="#DejaVuSans-74" transform="translate(357.03125 0)"/>
     <use xlink:href="#DejaVuSans-69" transform="translate(396.240234 0)"/>
     <use xlink:href="#DejaVuSans-6f" transform="translate(424.023438 0)"/>
     <use xlink:href="#DejaVuSans-6e" transform="translate(485.205078 0)"/>
    </g>
    <!--  in a Column -->
    <g transform="translate(675.639811 311.802358) scale(0.03 -0.03)">
     <use xlink:href="#DejaVuSans-20"/>
     <use xlink:href="#DejaVuSans-69" transform="translate(31.787109 0)"/>
     <use xlink:href="#DejaVuSans-6e" transform="translate(59.570312 0)"/>
     <use xlink:href="#DejaVuSans-20" transform="translate(122.949219 0)"/>
     <use xlink:href="#DejaVuSans-61" transform="translate(154.736328 0)"/>
     <use xlink:href="#DejaVuSans-20" transform="translate(216.015625 0)"/>
     <use xlink:href="#DejaVuSans-43" transform="translate(247.802734 0)"/>
     <use xlink:href="#DejaVuSans-6f" transform="translate(317.626953 0)"/>
     <use xlink:href="#DejaVuSans-6c" transform="translate(378.808594 0)"/>
     <use xlink:href="#DejaVuSans-75" transform="translate(406.591797 0)"/>
     <use xlink:href="#DejaVuSans-6d" transform="translate(469.970703 0)"/>
     <use xlink:href="#DejaVuSans-6e" transform="translate(567.382812 0)"/>
    </g>
    <!--  of Dry Soil -->
    <g transform="translate(676.861842 315.161702) scale(0.03 -0.03)">
     <use xlink:href="#DejaVuSans-20"/>
     <use xlink:href="#DejaVuSans-6f" transform="translate(31.787109 0)"/>
     <use xlink:href="#DejaVuSans-66" transform="translate(92.96875 0)"/>
     <use xlink:href="#DejaVuSans-20" transform="translate(128.173828 0)"/>
     <use xlink:href="#DejaVuSans-44" transform="translate(159.960938 0)"/>
     <use xlink:href="#DejaVuSans-72" transform="translate(236.962891 0)"/>
     <use xlink:href="#DejaVuSans-79" transform="translate(278.076172 0)"/>
     <use xlink:href="#DejaVuSans-20" transform="translate(337.255859 0)"/>
     <use xlink:href="#DejaVuSans-53" transform="translate(369.042969 0)"/>
     <use xlink:href="#DejaVuSans-6f" transform="translate(432.519531 0)"/>
     <use xlink:href="#DejaVuSans-69" transform="translate(493.701172 0)"/>
     <use xlink:href="#DejaVuSans-6c" transform="translate(521.484375 0)"/>
    </g>
    <!--  -->
    <g transform="translate(685.100826 318.521045) scale(0.03 -0.03)"/>
   </g>
   <g id="text_13">
    <!--  13.4.3 : Desiccation -->
    <g transform="translate(756.143315 306.763342) scale(0.03 -0.03)">
     <use xlink:href="#DejaVuSans-20"/>
     <use xlink:href="#DejaVuSans-31" transform="translate(31.787109 0)"/>
     <use xlink:href="#DejaVuSans-33" transform="translate(95.410156 0)"/>
     <use xlink:href="#DejaVuSans-2e" transform="translate(159.033203 0)"/>
     <use xlink:href="#DejaVuSans-34" transform="translate(190.820312 0)"/>
     <use xlink:href="#DejaVuSans-2e" transform="translate(254.443359 0)"/>
     <use xlink:href="#DejaVuSans-33" transform="translate(286.230469 0)"/>
     <use xlink:href="#DejaVuSans-20" transform="translate(349.853516 0)"/>
     <use xlink:href="#DejaVuSans-3a" transform="translate(381.640625 0)"/>
     <use xlink:href="#DejaVuSans-20" transform="translate(415.332031 0)"/>
     <use xlink:href="#DejaVuSans-44" transform="translate(447.119141 0)"/>
     <use xlink:href="#DejaVuSans-65" transform="translate(524.121094 0)"/>
     <use xlink:href="#DejaVuSans-73" transform="translate(585.644531 0)"/>
     <use xlink:href="#DejaVuSans-69" transform="translate(637.744141 0)"/>
     <use xlink:href="#DejaVuSans-63" transform="translate(665.527344 0)"/>
     <use xlink:href="#DejaVuSans-63" transform="translate(720.507812 0)"/>
     <use xlink:href="#DejaVuSans-61" transform="translate(775.488281 0)"/>
     <use xlink:href="#DejaVuSans-74" transform="translate(836.767578 0)"/>
     <use xlink:href="#DejaVuSans-69" transform="translate(875.976562 0)"/>
     <use xlink:href="#DejaVuSans-6f" transform="translate(903.759766 0)"/>
     <use xlink:href="#DejaVuSans-6e" transform="translate(964.941406 0)"/>
    </g>
    <!--  of a Clayey -->
    <g transform="translate(762.690581 310.122686) scale(0.03 -0.03)">
     <use xlink:href="#DejaVuSans-20"/>
     <use xlink:href="#DejaVuSans-6f" transform="translate(31.787109 0)"/>
     <use xlink:href="#DejaVuSans-66" transform="translate(92.96875 0)"/>
     <use xlink:href="#DejaVuSans-20" transform="translate(128.173828 0)"/>
     <use xlink:href="#DejaVuSans-61" transform="translate(159.960938 0)"/>
     <use xlink:href="#DejaVuSans-20" transform="translate(221.240234 0)"/>
     <use xlink:href="#DejaVuSans-43" transform="translate(253.027344 0)"/>
     <use xlink:href="#DejaVuSans-6c" transform="translate(322.851562 0)"/>
     <use xlink:href="#DejaVuSans-61" transform="translate(350.634766 0)"/>
     <use xlink:href="#DejaVuSans-79" transform="translate(411.914062 0)"/>
     <use xlink:href="#DejaVuSans-65" transform="translate(471.09375 0)"/>
     <use xlink:href="#DejaVuSans-79" transform="translate(532.617188 0)"/>
    </g>
    <!--  Soil in a Petri -->
    <g transform="translate(761.276362 313.48203) scale(0.03 -0.03)">
     <use xlink:href="#DejaVuSans-20"/>
     <use xlink:href="#DejaVuSans-53" transform="translate(31.787109 0)"/>
     <use xlink:href="#DejaVuSans-6f" transform="translate(95.263672 0)"/>
     <use xlink:href="#DejaVuSans-69" transform="translate(156.445312 0)"/>
     <use xlink:href="#DejaVuSans-6c" transform="translate(184.228516 0)"/>
     <use xlink:href="#DejaVuSans-20" transform="translate(212.011719 0)"/>
     <use xlink:href="#DejaVuSans-69" transform="translate(243.798828 0)"/>
     <use xlink:href="#DejaVuSans-6e" transform="translate(271.582031 0)"/>
     <use xlink:href="#DejaVuSans-20" transform="translate(334.960938 0)"/>
     <use xlink:href="#DejaVuSans-61" transform="translate(366.748047 0)"/>
     <use xlink:href="#DejaVuSans-20" transform="translate(428.027344 0)"/>
     <use xlink:href="#DejaVuSans-50" transform="translate(459.814453 0)"/>
     <use xlink:href="#DejaVuSans-65" transform="translate(516.492188 0)"/>
     <use xlink:href="#DejaVuSans-74" transform="translate(578.015625 0)"/>
     <use xlink:href="#DejaVuSans-72" transform="translate(617.224609 0)"/>
     <use xlink:href="#DejaVuSans-69" transform="translate(658.337891 0)"/>
    </g>
    <!--  Dish -->
    <g transform="translate(767.7873 316.841374) scale(0.03 -0.03)">
     <use xlink:href="#DejaVuSans-20"/>
     <use xlink:href="#DejaVuSans-44" transform="translate(31.787109 0)"/>
     <use xlink:href="#DejaVuSans-69" transform="translate(108.789062 0)"/>
     <use xlink:href="#DejaVuSans-73" transform="translate(136.572266 0)"/>
     <use xlink:href="#DejaVuSans-68" transform="translate(188.671875 0)"/>
    </g>
   </g>
   <g id="text_14">
    <!--  13.5 : Concluding -->
    <g transform="translate(699.775295 187.765822) scale(0.03 -0.03)">
     <defs>
      <path id="DejaVuSans-35" d="M 691 4666 
L 3169 4666 
L 3169 4134 
L 1269 4134 
L 1269 2991 
Q 1406 3038 1543 3061 
Q 1681 3084 1819 3084 
Q 2600 3084 3056 2656 
Q 3513 2228 3513 1497 
Q 3513 744 3044 326 
Q 2575 -91 1722 -91 
Q 1428 -91 1123 -41 
Q 819 9 494 109 
L 494 744 
Q 775 591 1075 516 
Q 1375 441 1709 441 
Q 2250 441 2565 725 
Q 2881 1009 2881 1497 
Q 2881 1984 2565 2268 
Q 2250 2553 1709 2553 
Q 1456 2553 1204 2497 
Q 953 2441 691 2322 
L 691 4666 
z
" transform="scale(0.015625)"/>
     </defs>
     <use xlink:href="#DejaVuSans-20"/>
     <use xlink:href="#DejaVuSans-31" transform="translate(31.787109 0)"/>
     <use xlink:href="#DejaVuSans-33" transform="translate(95.410156 0)"/>
     <use xlink:href="#DejaVuSans-2e" transform="translate(159.033203 0)"/>
     <use xlink:href="#DejaVuSans-35" transform="translate(190.820312 0)"/>
     <use xlink:href="#DejaVuSans-20" transform="translate(254.443359 0)"/>
     <use xlink:href="#DejaVuSans-3a" transform="translate(286.230469 0)"/>
     <use xlink:href="#DejaVuSans-20" transform="translate(319.921875 0)"/>
     <use xlink:href="#DejaVuSans-43" transform="translate(351.708984 0)"/>
     <use xlink:href="#DejaVuSans-6f" transform="translate(421.533203 0)"/>
     <use xlink:href="#DejaVuSans-6e" transform="translate(482.714844 0)"/>
     <use xlink:href="#DejaVuSans-63" transform="translate(546.09375 0)"/>
     <use xlink:href="#DejaVuSans-6c" transform="translate(601.074219 0)"/>
     <use xlink:href="#DejaVuSans-75" transform="translate(628.857422 0)"/>
     <use xlink:href="#DejaVuSans-64" transform="translate(692.236328 0)"/>
     <use xlink:href="#DejaVuSans-69" transform="translate(755.712891 0)"/>
     <use xlink:href="#DejaVuSans-6e" transform="translate(783.496094 0)"/>
     <use xlink:href="#DejaVuSans-67" transform="translate(846.875 0)"/>
    </g>
    <!--  Remarks -->
    <g transform="translate(706.409045 191.125166) scale(0.03 -0.03)">
     <defs>
      <path id="DejaVuSans-6b" d="M 581 4863 
L 1159 4863 
L 1159 1991 
L 2875 3500 
L 3609 3500 
L 1753 1863 
L 3688 0 
L 2938 0 
L 1159 1709 
L 1159 0 
L 581 0 
L 581 4863 
z
" transform="scale(0.015625)"/>
     </defs>
     <use xlink:href="#DejaVuSans-20"/>
     <use xlink:href="#DejaVuSans-52" transform="translate(31.787109 0)"/>
     <use xlink:href="#DejaVuSans-65" transform="translate(96.769531 0)"/>
     <use xlink:href="#DejaVuSans-6d" transform="translate(158.292969 0)"/>
     <use xlink:href="#DejaVuSans-61" transform="translate(255.705078 0)"/>
     <use xlink:href="#DejaVuSans-72" transform="translate(316.984375 0)"/>
     <use xlink:href="#DejaVuSans-6b" transform="translate(358.097656 0)"/>
     <use xlink:href="#DejaVuSans-73" transform="translate(416.007812 0)"/>
    </g>
   </g>
   <g id="text_15">
    <!--  13: A Finite-Volume-Based -->
    <g transform="translate(358.889062 25.619098) scale(0.1 -0.1)">
     <defs>
      <path id="DejaVuSans-2d" d="M 313 2009 
L 1997 2009 
L 1997 1497 
L 313 1497 
L 313 2009 
z
" transform="scale(0.015625)"/>
      <path id="DejaVuSans-56" d="M 1831 0 
L 50 4666 
L 709 4666 
L 2188 738 
L 3669 4666 
L 4325 4666 
L 2547 0 
L 1831 0 
z
" transform="scale(0.015625)"/>
     </defs>
     <use xlink:href="#DejaVuSans-20"/>
     <use xlink:href="#DejaVuSans-31" transform="translate(31.787109 0)"/>
     <use xlink:href="#DejaVuSans-33" transform="translate(95.410156 0)"/>
     <use xlink:href="#DejaVuSans-3a" transform="translate(159.033203 0)"/>
     <use xlink:href="#DejaVuSans-20" transform="translate(192.724609 0)"/>
     <use xlink:href="#DejaVuSans-41" transform="translate(224.511719 0)"/>
     <use xlink:href="#DejaVuSans-20" transform="translate(292.919922 0)"/>
     <use xlink:href="#DejaVuSans-46" transform="translate(324.707031 0)"/>
     <use xlink:href="#DejaVuSans-69" transform="translate(374.976562 0)"/>
     <use xlink:href="#DejaVuSans-6e" transform="translate(402.759766 0)"/>
     <use xlink:href="#DejaVuSans-69" transform="translate(466.138672 0)"/>
     <use xlink:href="#DejaVuSans-74" transform="translate(493.921875 0)"/>
     <use xlink:href="#DejaVuSans-65" transform="translate(533.130859 0)"/>
     <use xlink:href="#DejaVuSans-2d" transform="translate(594.654297 0)"/>
     <use xlink:href="#DejaVuSans-56" transform="translate(624.863281 0)"/>
     <use xlink:href="#DejaVuSans-6f" transform="translate(685.521484 0)"/>
     <use xlink:href="#DejaVuSans-6c" transform="translate(746.703125 0)"/>
     <use xlink:href="#DejaVuSans-75" transform="translate(774.486328 0)"/>
     <use xlink:href="#DejaVuSans-6d" transform="translate(837.865234 0)"/>
     <use xlink:href="#DejaVuSans-65" transform="translate(935.277344 0)"/>
     <use xlink:href="#DejaVuSans-2d" transform="translate(996.800781 0)"/>
     <use xlink:href="#DejaVuSans-42" transform="translate(1029.259766 0)"/>
     <use xlink:href="#DejaVuSans-61" transform="translate(1097.863281 0)"/>
     <use xlink:href="#DejaVuSans-73" transform="translate(1159.142578 0)"/>
     <use xlink:href="#DejaVuSans-65" transform="translate(1211.242188 0)"/>
     <use xlink:href="#DejaVuSans-64" transform="translate(1272.765625 0)"/>
    </g>
    <!--  Module for -->
    <g transform="translate(397.464844 36.81691) scale(0.1 -0.1)">
     <use xlink:href="#DejaVuSans-20"/>
     <use xlink:href="#DejaVuSans-4d" transform="translate(31.787109 0)"/>
     <use xlink:href="#DejaVuSans-6f" transform="translate(118.066406 0)"/>
     <use xlink:href="#DejaVuSans-64" transform="translate(179.248047 0)"/>
     <use xlink:href="#DejaVuSans-75" transform="translate(242.724609 0)"/>
     <use xlink:href="#DejaVuSans-6c" transform="translate(306.103516 0)"/>
     <use xlink:href="#DejaVuSans-65" transform="translate(333.886719 0)"/>
     <use xlink:href="#DejaVuSans-20" transform="translate(395.410156 0)"/>
     <use xlink:href="#DejaVuSans-66" transform="translate(427.197266 0)"/>
     <use xlink:href="#DejaVuSans-6f" transform="translate(462.402344 0)"/>
     <use xlink:href="#DejaVuSans-72" transform="translate(523.583984 0)"/>
    </g>
    <!--  Unsaturated -->
    <g transform="translate(393.154687 48.014723) scale(0.1 -0.1)">
     <use xlink:href="#DejaVuSans-20"/>
     <use xlink:href="#DejaVuSans-55" transform="translate(31.787109 0)"/>
     <use xlink:href="#DejaVuSans-6e" transform="translate(104.980469 0)"/>
     <use xlink:href="#DejaVuSans-73" transform="translate(168.359375 0)"/>
     <use xlink:href="#DejaVuSans-61" transform="translate(220.458984 0)"/>
     <use xlink:href="#DejaVuSans-74" transform="translate(281.738281 0)"/>
     <use xlink:href="#DejaVuSans-75" transform="translate(320.947266 0)"/>
     <use xlink:href="#DejaVuSans-72" transform="translate(384.326172 0)"/>
     <use xlink:href="#DejaVuSans-61" transform="translate(425.439453 0)"/>
     <use xlink:href="#DejaVuSans-74" transform="translate(486.71875 0)"/>
     <use xlink:href="#DejaVuSans-65" transform="translate(525.927734 0)"/>
     <use xlink:href="#DejaVuSans-64" transform="translate(587.451172 0)"/>
    </g>
    <!--  Poroelasticity -->
    <g transform="translate(390.674219 59.212535) scale(0.1 -0.1)">
     <use xlink:href="#DejaVuSans-20"/>
     <use xlink:href="#DejaVuSans-50" transform="translate(31.787109 0)"/>
     <use xlink:href="#DejaVuSans-6f" transform="translate(88.464844 0)"/>
     <use xlink:href="#DejaVuSans-72" transform="translate(149.646484 0)"/>
     <use xlink:href="#DejaVuSans-6f" transform="translate(188.509766 0)"/>
     <use xlink:href="#DejaVuSans-65" transform="translate(249.691406 0)"/>
     <use xlink:href="#DejaVuSans-6c" transform="translate(311.214844 0)"/>
     <use xlink:href="#DejaVuSans-61" transform="translate(338.998047 0)"/>
     <use xlink:href="#DejaVuSans-73" transform="translate(400.277344 0)"/>
     <use xlink:href="#DejaVuSans-74" transform="translate(452.376953 0)"/>
     <use xlink:href="#DejaVuSans-69" transform="translate(491.585938 0)"/>
     <use xlink:href="#DejaVuSans-63" transform="translate(519.369141 0)"/>
     <use xlink:href="#DejaVuSans-69" transform="translate(574.349609 0)"/>
     <use xlink:href="#DejaVuSans-74" transform="translate(602.132812 0)"/>
     <use xlink:href="#DejaVuSans-79" transform="translate(641.341797 0)"/>
    </g>
    <!--  -->
    <g transform="translate(425.7 70.410348) scale(0.1 -0.1)"/>
   </g>
  </g>
 </g>
 <defs>
  <clipPath id="pc2941d7c46">
   <rect x="7.2" y="7.2" width="837" height="332.64"/>
  </clipPath>
 </defs>
</svg>
