<?xml version="1.0" encoding="utf-8" standalone="no"?>
<!DOCTYPE svg PUBLIC "-//W3C//DTD SVG 1.1//EN"
  "http://www.w3.org/Graphics/SVG/1.1/DTD/svg11.dtd">
<svg xmlns:xlink="http://www.w3.org/1999/xlink" width="851.4pt" height="347.04pt" viewBox="0 0 851.4 347.04" xmlns="http://www.w3.org/2000/svg" version="1.1">
 <metadata>
  <rdf:RDF xmlns:dc="http://purl.org/dc/elements/1.1/" xmlns:cc="http://creativecommons.org/ns#" xmlns:rdf="http://www.w3.org/1999/02/22-rdf-syntax-ns#">
   <cc:Work>
    <dc:type rdf:resource="http://purl.org/dc/dcmitype/StillImage"/>
    <dc:date>2025-08-01T13:11:09.955546</dc:date>
    <dc:format>image/svg+xml</dc:format>
    <dc:creator>
     <cc:Agent>
      <dc:title>Matplotlib v3.10.3, https://matplotlib.org/</dc:title>
     </cc:Agent>
    </dc:creator>
   </cc:Work>
  </rdf:RDF>
 </metadata>
 <defs>
  <style type="text/css">*{stroke-linejoin: round; stroke-linecap: butt}</style>
 </defs>
 <g id="figure_1">
  <g id="patch_1">
   <path d="M 0 347.04 
L 851.4 347.04 
L 851.4 -0 
L 0 -0 
z
" style="fill: #ffffff"/>
  </g>
  <g id="axes_1">
   <g id="patch_2">
    <path d="M 181.154547 224.535883 
Q 118.84431 262.240995 57.490611 299.367287 
" clip-path="url(#p3395116127)" style="fill: none; stroke: #000000; stroke-linecap: round"/>
    <path d="M 61.948255 299.007546 
L 57.490611 299.367287 
L 59.877405 295.585327 
z
" clip-path="url(#p3395116127)" style="stroke: #000000; stroke-linecap: round"/>
   </g>
   <g id="patch_3">
    <path d="M 188.882019 233.487477 
Q 163.449727 264.266607 138.72959 294.183858 
" clip-path="url(#p3395116127)" style="fill: none; stroke: #000000; stroke-linecap: round"/>
    <path d="M 142.819251 292.374252 
L 138.72959 294.183858 
L 139.735702 289.826365 
z
" clip-path="url(#p3395116127)" style="stroke: #000000; stroke-linecap: round"/>
   </g>
   <g id="patch_4">
    <path d="M 211.402604 241.58586 
Q 211.402604 266.097633 211.402604 289.491371 
" clip-path="url(#p3395116127)" style="fill: none; stroke: #000000; stroke-linecap: round"/>
    <path d="M 213.402604 285.491371 
L 211.402604 289.491371 
L 209.402604 285.491371 
z
" clip-path="url(#p3395116127)" style="stroke: #000000; stroke-linecap: round"/>
   </g>
   <g id="patch_5">
    <path d="M 360.319936 233.487477 
Q 334.887644 264.266607 310.167507 294.183858 
" clip-path="url(#p3395116127)" style="fill: none; stroke: #000000; stroke-linecap: round"/>
    <path d="M 314.257168 292.374252 
L 310.167507 294.183858 
L 311.173619 289.826365 
z
" clip-path="url(#p3395116127)" style="stroke: #000000; stroke-linecap: round"/>
   </g>
   <g id="patch_6">
    <path d="M 382.840521 241.58586 
Q 382.840521 266.097633 382.840521 289.491371 
" clip-path="url(#p3395116127)" style="fill: none; stroke: #000000; stroke-linecap: round"/>
    <path d="M 384.840521 285.491371 
L 382.840521 289.491371 
L 380.840521 285.491371 
z
" clip-path="url(#p3395116127)" style="stroke: #000000; stroke-linecap: round"/>
   </g>
   <g id="patch_7">
    <path d="M 405.361105 233.487477 
Q 430.793398 264.266607 455.513534 294.183858 
" clip-path="url(#p3395116127)" style="fill: none; stroke: #000000; stroke-linecap: round"/>
    <path d="M 454.507422 289.826365 
L 455.513534 294.183858 
L 451.423873 292.374252 
z
" clip-path="url(#p3395116127)" style="stroke: #000000; stroke-linecap: round"/>
   </g>
   <g id="patch_8">
    <path d="M 583.549521 238.920169 
Q 572.602343 265.493259 562.081033 291.032601 
" clip-path="url(#p3395116127)" style="fill: none; stroke: #000000; stroke-linecap: round"/>
    <path d="M 565.453891 288.095965 
L 562.081033 291.032601 
L 561.755439 286.572333 
z
" clip-path="url(#p3395116127)" style="stroke: #000000; stroke-linecap: round"/>
   </g>
   <g id="patch_9">
    <path d="M 610.548556 238.894842 
Q 621.567606 265.490419 632.15871 291.053106 
" clip-path="url(#p3395116127)" style="fill: none; stroke: #000000; stroke-linecap: round"/>
    <path d="M 632.475334 286.592192 
L 632.15871 291.053106 
L 628.779954 288.123258 
z
" clip-path="url(#p3395116127)" style="stroke: #000000; stroke-linecap: round"/>
   </g>
   <g id="patch_10">
    <path d="M 624.542597 228.420448 
Q 667.591154 263.120163 709.769252 297.118237 
" clip-path="url(#p3395116127)" style="fill: none; stroke: #000000; stroke-linecap: round"/>
    <path d="M 707.910139 293.050843 
L 709.769252 297.118237 
L 705.399869 296.165091 
z
" clip-path="url(#p3395116127)" style="stroke: #000000; stroke-linecap: round"/>
   </g>
   <g id="patch_11">
    <path d="M 628.840433 221.629583 
Q 711.421319 261.583831 792.995776 301.051149 
" clip-path="url(#p3395116127)" style="fill: none; stroke: #000000; stroke-linecap: round"/>
    <path d="M 790.266114 297.5087 
L 792.995776 301.051149 
L 788.52402 301.10941 
z
" clip-path="url(#p3395116127)" style="stroke: #000000; stroke-linecap: round"/>
   </g>
   <g id="patch_12">
    <path d="M 318.437483 106.093982 
Q 216.835174 152.165114 116.251107 197.774529 
" clip-path="url(#p3395116127)" style="fill: none; stroke: #000000; stroke-linecap: round"/>
    <path d="M 120.720026 197.944125 
L 116.251107 197.774529 
L 119.068135 194.301151 
z
" clip-path="url(#p3395116127)" style="stroke: #000000; stroke-linecap: round"/>
   </g>
   <g id="patch_13">
    <path d="M 326.391259 119.478902 
Q 283.00908 152.208631 240.519417 184.264999 
" clip-path="url(#p3395116127)" style="fill: none; stroke: #000000; stroke-linecap: round"/>
    <path d="M 244.917125 183.452495 
L 240.519417 184.264999 
L 242.508039 180.25933 
z
" clip-path="url(#p3395116127)" style="stroke: #000000; stroke-linecap: round"/>
   </g>
   <g id="patch_14">
    <path d="M 382.840521 147.604601 
Q 382.840521 159.23959 382.840521 169.756546 
" clip-path="url(#p3395116127)" style="fill: none; stroke: #000000; stroke-linecap: round"/>
    <path d="M 384.840521 165.756546 
L 382.840521 169.756546 
L 380.840521 165.756546 
z
" clip-path="url(#p3395116127)" style="stroke: #000000; stroke-linecap: round"/>
   </g>
   <g id="patch_15">
    <path d="M 443.368178 113.443649 
Q 505.059568 150.699383 565.793905 187.377147 
" clip-path="url(#p3395116127)" style="fill: none; stroke: #000000; stroke-linecap: round"/>
    <path d="M 563.40375 183.597311 
L 565.793905 187.377147 
L 561.335944 187.02137 
z
" clip-path="url(#p3395116127)" style="stroke: #000000; stroke-linecap: round"/>
   </g>
   <g id="patch_16">
    <path d="M 448.622952 102.832617 
Q 570.713341 150.980102 691.76365 198.717423 
" clip-path="url(#p3395116127)" style="fill: none; stroke: #000000; stroke-linecap: round"/>
    <path d="M 688.776275 195.389422 
L 691.76365 198.717423 
L 687.308824 199.110523 
z
" clip-path="url(#p3395116127)" style="stroke: #000000; stroke-linecap: round"/>
   </g>
   <g id="PathCollection_1">
    <path d="M 97.599086 225.597125 
C 102.734722 225.597125 107.660707 223.556715 111.29215 219.925272 
C 114.923593 216.293829 116.964003 211.367844 116.964003 206.232208 
C 116.964003 201.096572 114.923593 196.170587 111.29215 192.539144 
C 107.660707 188.907701 102.734722 186.867291 97.599086 186.867291 
C 92.46345 186.867291 87.537465 188.907701 83.906022 192.539144 
C 80.274579 196.170587 78.23417 201.096572 78.23417 206.232208 
C 78.23417 211.367844 80.274579 216.293829 83.906022 219.925272 
C 87.537465 223.556715 92.46345 225.597125 97.599086 225.597125 
z
" clip-path="url(#p3395116127)" style="fill: #ebe4d8; stroke: #ebe4d8"/>
    <path d="M 211.402604 241.587547 
C 220.778949 241.587547 229.772526 237.862286 236.402604 231.232208 
C 243.032681 224.602131 246.757943 215.608554 246.757943 206.232208 
C 246.757943 196.855863 243.032681 187.862286 236.402604 181.232208 
C 229.772526 174.602131 220.778949 170.876869 211.402604 170.876869 
C 202.026258 170.876869 193.032681 174.602131 186.402604 181.232208 
C 179.772526 187.862286 176.047265 196.855863 176.047265 206.232208 
C 176.047265 215.608554 179.772526 224.602131 186.402604 231.232208 
C 193.032681 237.862286 202.026258 241.587547 211.402604 241.587547 
z
" clip-path="url(#p3395116127)" style="fill: #ebe4d8; stroke: #ebe4d8"/>
    <path d="M 39.964687 329.337474 
C 45.100323 329.337474 50.026308 327.297064 53.657751 323.665621 
C 57.289194 320.034178 59.329604 315.108193 59.329604 309.972557 
C 59.329604 304.836921 57.289194 299.910936 53.657751 296.279493 
C 50.026308 292.64805 45.100323 290.60764 39.964687 290.60764 
C 34.829051 290.60764 29.903066 292.64805 26.271623 296.279493 
C 22.64018 299.910936 20.59977 304.836921 20.59977 309.972557 
C 20.59977 315.108193 22.64018 320.034178 26.271623 323.665621 
C 29.903066 327.297064 34.829051 329.337474 39.964687 329.337474 
z
" clip-path="url(#p3395116127)" style="fill: #ebe4d8; stroke: #ebe4d8"/>
    <path d="M 125.683645 329.337474 
C 130.819281 329.337474 135.745266 327.297064 139.376709 323.665621 
C 143.008152 320.034178 145.048562 315.108193 145.048562 309.972557 
C 145.048562 304.836921 143.008152 299.910936 139.376709 296.279493 
C 135.745266 292.64805 130.819281 290.60764 125.683645 290.60764 
C 120.548009 290.60764 115.622024 292.64805 111.990581 296.279493 
C 108.359138 299.910936 106.318729 304.836921 106.318729 309.972557 
C 106.318729 315.108193 108.359138 320.034178 111.990581 323.665621 
C 115.622024 327.297064 120.548009 329.337474 125.683645 329.337474 
z
" clip-path="url(#p3395116127)" style="fill: #ebe4d8; stroke: #ebe4d8"/>
    <path d="M 211.402604 329.337474 
C 216.53824 329.337474 221.464225 327.297064 225.095668 323.665621 
C 228.727111 320.034178 230.767521 315.108193 230.767521 309.972557 
C 230.767521 304.836921 228.727111 299.910936 225.095668 296.279493 
C 221.464225 292.64805 216.53824 290.60764 211.402604 290.60764 
C 206.266968 290.60764 201.340983 292.64805 197.70954 296.279493 
C 194.078097 299.910936 192.037687 304.836921 192.037687 309.972557 
C 192.037687 315.108193 194.078097 320.034178 197.70954 323.665621 
C 201.340983 327.297064 206.266968 329.337474 211.402604 329.337474 
z
" clip-path="url(#p3395116127)" style="fill: #ebe4d8; stroke: #ebe4d8"/>
    <path d="M 382.840521 241.587547 
C 392.216866 241.587547 401.210443 237.862286 407.840521 231.232208 
C 414.470598 224.602131 418.19586 215.608554 418.19586 206.232208 
C 418.19586 196.855863 414.470598 187.862286 407.840521 181.232208 
C 401.210443 174.602131 392.216866 170.876869 382.840521 170.876869 
C 373.464175 170.876869 364.470598 174.602131 357.840521 181.232208 
C 351.210443 187.862286 347.485182 196.855863 347.485182 206.232208 
C 347.485182 215.608554 351.210443 224.602131 357.840521 231.232208 
C 364.470598 237.862286 373.464175 241.587547 382.840521 241.587547 
z
" clip-path="url(#p3395116127)" style="fill: #ebe4d8; stroke: #ebe4d8"/>
    <path d="M 297.121562 329.337474 
C 302.257198 329.337474 307.183183 327.297064 310.814626 323.665621 
C 314.446069 320.034178 316.486479 315.108193 316.486479 309.972557 
C 316.486479 304.836921 314.446069 299.910936 310.814626 296.279493 
C 307.183183 292.64805 302.257198 290.60764 297.121562 290.60764 
C 291.985926 290.60764 287.059941 292.64805 283.428498 296.279493 
C 279.797055 299.910936 277.756646 304.836921 277.756646 309.972557 
C 277.756646 315.108193 279.797055 320.034178 283.428498 323.665621 
C 287.059941 327.297064 291.985926 329.337474 297.121562 329.337474 
z
" clip-path="url(#p3395116127)" style="fill: #ebe4d8; stroke: #ebe4d8"/>
    <path d="M 382.840521 329.337474 
C 387.976157 329.337474 392.902142 327.297064 396.533585 323.665621 
C 400.165028 320.034178 402.205437 315.108193 402.205437 309.972557 
C 402.205437 304.836921 400.165028 299.910936 396.533585 296.279493 
C 392.902142 292.64805 387.976157 290.60764 382.840521 290.60764 
C 377.704885 290.60764 372.7789 292.64805 369.147457 296.279493 
C 365.516014 299.910936 363.475604 304.836921 363.475604 309.972557 
C 363.475604 315.108193 365.516014 320.034178 369.147457 323.665621 
C 372.7789 327.297064 377.704885 329.337474 382.840521 329.337474 
z
" clip-path="url(#p3395116127)" style="fill: #ebe4d8; stroke: #ebe4d8"/>
    <path d="M 468.559479 329.337474 
C 473.695115 329.337474 478.6211 327.297064 482.252543 323.665621 
C 485.883986 320.034178 487.924396 315.108193 487.924396 309.972557 
C 487.924396 304.836921 485.883986 299.910936 482.252543 296.279493 
C 478.6211 292.64805 473.695115 290.60764 468.559479 290.60764 
C 463.423843 290.60764 458.497858 292.64805 454.866415 296.279493 
C 451.234972 299.910936 449.194563 304.836921 449.194563 309.972557 
C 449.194563 315.108193 451.234972 320.034178 454.866415 323.665621 
C 458.497858 327.297064 463.423843 329.337474 468.559479 329.337474 
z
" clip-path="url(#p3395116127)" style="fill: #ebe4d8; stroke: #ebe4d8"/>
    <path d="M 597.01581 241.587547 
C 606.392156 241.587547 615.385733 237.862286 622.01581 231.232208 
C 628.645888 224.602131 632.371149 215.608554 632.371149 206.232208 
C 632.371149 196.855863 628.645888 187.862286 622.01581 181.232208 
C 615.385733 174.602131 606.392156 170.876869 597.01581 170.876869 
C 587.639465 170.876869 578.645888 174.602131 572.01581 181.232208 
C 565.385733 187.862286 561.660471 196.855863 561.660471 206.232208 
C 561.660471 215.608554 565.385733 224.602131 572.01581 231.232208 
C 578.645888 237.862286 587.639465 241.587547 597.01581 241.587547 
z
" clip-path="url(#p3395116127)" style="fill: #ebe4d8; stroke: #ebe4d8"/>
    <path d="M 554.278438 329.337474 
C 559.414074 329.337474 564.340059 327.297064 567.971502 323.665621 
C 571.602945 320.034178 573.643354 315.108193 573.643354 309.972557 
C 573.643354 304.836921 571.602945 299.910936 567.971502 296.279493 
C 564.340059 292.64805 559.414074 290.60764 554.278438 290.60764 
C 549.142802 290.60764 544.216817 292.64805 540.585374 296.279493 
C 536.953931 299.910936 534.913521 304.836921 534.913521 309.972557 
C 534.913521 315.108193 536.953931 320.034178 540.585374 323.665621 
C 544.216817 327.297064 549.142802 329.337474 554.278438 329.337474 
z
" clip-path="url(#p3395116127)" style="fill: #ebe4d8; stroke: #ebe4d8"/>
    <path d="M 639.997396 329.337474 
C 645.133032 329.337474 650.059017 327.297064 653.69046 323.665621 
C 657.321903 320.034178 659.362313 315.108193 659.362313 309.972557 
C 659.362313 304.836921 657.321903 299.910936 653.69046 296.279493 
C 650.059017 292.64805 645.133032 290.60764 639.997396 290.60764 
C 634.86176 290.60764 629.935775 292.64805 626.304332 296.279493 
C 622.672889 299.910936 620.632479 304.836921 620.632479 309.972557 
C 620.632479 315.108193 622.672889 320.034178 626.304332 323.665621 
C 629.935775 327.297064 634.86176 329.337474 639.997396 329.337474 
z
" clip-path="url(#p3395116127)" style="fill: #ebe4d8; stroke: #ebe4d8"/>
    <path d="M 725.716355 329.337474 
C 730.851991 329.337474 735.777976 327.297064 739.409419 323.665621 
C 743.040862 320.034178 745.081271 315.108193 745.081271 309.972557 
C 745.081271 304.836921 743.040862 299.910936 739.409419 296.279493 
C 735.777976 292.64805 730.851991 290.60764 725.716355 290.60764 
C 720.580719 290.60764 715.654734 292.64805 712.023291 296.279493 
C 708.391848 299.910936 706.351438 304.836921 706.351438 309.972557 
C 706.351438 315.108193 708.391848 320.034178 712.023291 323.665621 
C 715.654734 327.297064 720.580719 329.337474 725.716355 329.337474 
z
" clip-path="url(#p3395116127)" style="fill: #ebe4d8; stroke: #ebe4d8"/>
    <path d="M 811.435313 329.337474 
C 816.570949 329.337474 821.496934 327.297064 825.128377 323.665621 
C 828.75982 320.034178 830.80023 315.108193 830.80023 309.972557 
C 830.80023 304.836921 828.75982 299.910936 825.128377 296.279493 
C 821.496934 292.64805 816.570949 290.60764 811.435313 290.60764 
C 806.299677 290.60764 801.373692 292.64805 797.742249 296.279493 
C 794.110806 299.910936 792.070396 304.836921 792.070396 309.972557 
C 792.070396 315.108193 794.110806 320.034178 797.742249 323.665621 
C 801.373692 327.297064 806.299677 329.337474 811.435313 329.337474 
z
" clip-path="url(#p3395116127)" style="fill: #ebe4d8; stroke: #ebe4d8"/>
    <path d="M 710.819328 225.597125 
C 715.954964 225.597125 720.880949 223.556715 724.512392 219.925272 
C 728.143835 216.293829 730.184244 211.367844 730.184244 206.232208 
C 730.184244 201.096572 728.143835 196.170587 724.512392 192.539144 
C 720.880949 188.907701 715.954964 186.867291 710.819328 186.867291 
C 705.683692 186.867291 700.757707 188.907701 697.126264 192.539144 
C 693.494821 196.170587 691.454411 201.096572 691.454411 206.232208 
C 691.454411 211.367844 693.494821 216.293829 697.126264 219.925272 
C 700.757707 223.556715 705.683692 225.597125 710.819328 225.597125 
z
" clip-path="url(#p3395116127)" style="fill: #ebe4d8; stroke: #ebe4d8"/>
    <path d="M 382.840521 147.601378 
C 401.593212 147.601378 419.580366 140.150855 432.840521 126.8907 
C 446.100676 113.630545 453.551199 95.643391 453.551199 76.8907 
C 453.551199 58.138009 446.100676 40.150855 432.840521 26.8907 
C 419.580366 13.630545 401.593212 6.180022 382.840521 6.180022 
C 364.08783 6.180022 346.100676 13.630545 332.840521 26.8907 
C 319.580366 40.150855 312.129843 58.138009 312.129843 76.8907 
C 312.129843 95.643391 319.580366 113.630545 332.840521 126.8907 
C 346.100676 140.150855 364.08783 147.601378 382.840521 147.601378 
z
" clip-path="url(#p3395116127)" style="fill: #ebe4d8; stroke: #ebe4d8"/>
   </g>
   <g id="text_1">
    <!--  11.1 : Introduction -->
    <g transform="translate(83.241039 205.380349) scale(0.03 -0.03)">
     <defs>
      <path id="DejaVuSans-20" transform="scale(0.015625)"/>
      <path id="DejaVuSans-31" d="M 794 531 
L 1825 531 
L 1825 4091 
L 703 3866 
L 703 4441 
L 1819 4666 
L 2450 4666 
L 2450 531 
L 3481 531 
L 3481 0 
L 794 0 
L 794 531 
z
" transform="scale(0.015625)"/>
      <path id="DejaVuSans-2e" d="M 684 794 
L 1344 794 
L 1344 0 
L 684 0 
L 684 794 
z
" transform="scale(0.015625)"/>
      <path id="DejaVuSans-3a" d="M 750 794 
L 1409 794 
L 1409 0 
L 750 0 
L 750 794 
z
M 750 3309 
L 1409 3309 
L 1409 2516 
L 750 2516 
L 750 3309 
z
" transform="scale(0.015625)"/>
      <path id="DejaVuSans-49" d="M 628 4666 
L 1259 4666 
L 1259 0 
L 628 0 
L 628 4666 
z
" transform="scale(0.015625)"/>
      <path id="DejaVuSans-6e" d="M 3513 2113 
L 3513 0 
L 2938 0 
L 2938 2094 
Q 2938 2591 2744 2837 
Q 2550 3084 2163 3084 
Q 1697 3084 1428 2787 
Q 1159 2491 1159 1978 
L 1159 0 
L 581 0 
L 581 3500 
L 1159 3500 
L 1159 2956 
Q 1366 3272 1645 3428 
Q 1925 3584 2291 3584 
Q 2894 3584 3203 3211 
Q 3513 2838 3513 2113 
z
" transform="scale(0.015625)"/>
      <path id="DejaVuSans-74" d="M 1172 4494 
L 1172 3500 
L 2356 3500 
L 2356 3053 
L 1172 3053 
L 1172 1153 
Q 1172 725 1289 603 
Q 1406 481 1766 481 
L 2356 481 
L 2356 0 
L 1766 0 
Q 1100 0 847 248 
Q 594 497 594 1153 
L 594 3053 
L 172 3053 
L 172 3500 
L 594 3500 
L 594 4494 
L 1172 4494 
z
" transform="scale(0.015625)"/>
      <path id="DejaVuSans-72" d="M 2631 2963 
Q 2534 3019 2420 3045 
Q 2306 3072 2169 3072 
Q 1681 3072 1420 2755 
Q 1159 2438 1159 1844 
L 1159 0 
L 581 0 
L 581 3500 
L 1159 3500 
L 1159 2956 
Q 1341 3275 1631 3429 
Q 1922 3584 2338 3584 
Q 2397 3584 2469 3576 
Q 2541 3569 2628 3553 
L 2631 2963 
z
" transform="scale(0.015625)"/>
      <path id="DejaVuSans-6f" d="M 1959 3097 
Q 1497 3097 1228 2736 
Q 959 2375 959 1747 
Q 959 1119 1226 758 
Q 1494 397 1959 397 
Q 2419 397 2687 759 
Q 2956 1122 2956 1747 
Q 2956 2369 2687 2733 
Q 2419 3097 1959 3097 
z
M 1959 3584 
Q 2709 3584 3137 3096 
Q 3566 2609 3566 1747 
Q 3566 888 3137 398 
Q 2709 -91 1959 -91 
Q 1206 -91 779 398 
Q 353 888 353 1747 
Q 353 2609 779 3096 
Q 1206 3584 1959 3584 
z
" transform="scale(0.015625)"/>
      <path id="DejaVuSans-64" d="M 2906 2969 
L 2906 4863 
L 3481 4863 
L 3481 0 
L 2906 0 
L 2906 525 
Q 2725 213 2448 61 
Q 2172 -91 1784 -91 
Q 1150 -91 751 415 
Q 353 922 353 1747 
Q 353 2572 751 3078 
Q 1150 3584 1784 3584 
Q 2172 3584 2448 3432 
Q 2725 3281 2906 2969 
z
M 947 1747 
Q 947 1113 1208 752 
Q 1469 391 1925 391 
Q 2381 391 2643 752 
Q 2906 1113 2906 1747 
Q 2906 2381 2643 2742 
Q 2381 3103 1925 3103 
Q 1469 3103 1208 2742 
Q 947 2381 947 1747 
z
" transform="scale(0.015625)"/>
      <path id="DejaVuSans-75" d="M 544 1381 
L 544 3500 
L 1119 3500 
L 1119 1403 
Q 1119 906 1312 657 
Q 1506 409 1894 409 
Q 2359 409 2629 706 
Q 2900 1003 2900 1516 
L 2900 3500 
L 3475 3500 
L 3475 0 
L 2900 0 
L 2900 538 
Q 2691 219 2414 64 
Q 2138 -91 1772 -91 
Q 1169 -91 856 284 
Q 544 659 544 1381 
z
M 1991 3584 
L 1991 3584 
z
" transform="scale(0.015625)"/>
      <path id="DejaVuSans-63" d="M 3122 3366 
L 3122 2828 
Q 2878 2963 2633 3030 
Q 2388 3097 2138 3097 
Q 1578 3097 1268 2742 
Q 959 2388 959 1747 
Q 959 1106 1268 751 
Q 1578 397 2138 397 
Q 2388 397 2633 464 
Q 2878 531 3122 666 
L 3122 134 
Q 2881 22 2623 -34 
Q 2366 -91 2075 -91 
Q 1284 -91 818 406 
Q 353 903 353 1747 
Q 353 2603 823 3093 
Q 1294 3584 2113 3584 
Q 2378 3584 2631 3529 
Q 2884 3475 3122 3366 
z
" transform="scale(0.015625)"/>
      <path id="DejaVuSans-69" d="M 603 3500 
L 1178 3500 
L 1178 0 
L 603 0 
L 603 3500 
z
M 603 4863 
L 1178 4863 
L 1178 4134 
L 603 4134 
L 603 4863 
z
" transform="scale(0.015625)"/>
     </defs>
     <use xlink:href="#DejaVuSans-20"/>
     <use xlink:href="#DejaVuSans-31" transform="translate(31.787109 0)"/>
     <use xlink:href="#DejaVuSans-31" transform="translate(95.410156 0)"/>
     <use xlink:href="#DejaVuSans-2e" transform="translate(159.033203 0)"/>
     <use xlink:href="#DejaVuSans-31" transform="translate(190.820312 0)"/>
     <use xlink:href="#DejaVuSans-20" transform="translate(254.443359 0)"/>
     <use xlink:href="#DejaVuSans-3a" transform="translate(286.230469 0)"/>
     <use xlink:href="#DejaVuSans-20" transform="translate(319.921875 0)"/>
     <use xlink:href="#DejaVuSans-49" transform="translate(351.708984 0)"/>
     <use xlink:href="#DejaVuSans-6e" transform="translate(381.201172 0)"/>
     <use xlink:href="#DejaVuSans-74" transform="translate(444.580078 0)"/>
     <use xlink:href="#DejaVuSans-72" transform="translate(483.789062 0)"/>
     <use xlink:href="#DejaVuSans-6f" transform="translate(522.652344 0)"/>
     <use xlink:href="#DejaVuSans-64" transform="translate(583.833984 0)"/>
     <use xlink:href="#DejaVuSans-75" transform="translate(647.310547 0)"/>
     <use xlink:href="#DejaVuSans-63" transform="translate(710.689453 0)"/>
     <use xlink:href="#DejaVuSans-74" transform="translate(765.669922 0)"/>
     <use xlink:href="#DejaVuSans-69" transform="translate(804.878906 0)"/>
     <use xlink:href="#DejaVuSans-6f" transform="translate(832.662109 0)"/>
     <use xlink:href="#DejaVuSans-6e" transform="translate(893.84375 0)"/>
    </g>
    <!--  -->
    <g transform="translate(97.599086 208.739692) scale(0.03 -0.03)"/>
   </g>
   <g id="text_2">
    <!--  11.2 : Modeling -->
    <g transform="translate(191.23776 193.61463) scale(0.05 -0.05)">
     <defs>
      <path id="DejaVuSans-32" d="M 1228 531 
L 3431 531 
L 3431 0 
L 469 0 
L 469 531 
Q 828 903 1448 1529 
Q 2069 2156 2228 2338 
Q 2531 2678 2651 2914 
Q 2772 3150 2772 3378 
Q 2772 3750 2511 3984 
Q 2250 4219 1831 4219 
Q 1534 4219 1204 4116 
Q 875 4013 500 3803 
L 500 4441 
Q 881 4594 1212 4672 
Q 1544 4750 1819 4750 
Q 2544 4750 2975 4387 
Q 3406 4025 3406 3419 
Q 3406 3131 3298 2873 
Q 3191 2616 2906 2266 
Q 2828 2175 2409 1742 
Q 1991 1309 1228 531 
z
" transform="scale(0.015625)"/>
      <path id="DejaVuSans-4d" d="M 628 4666 
L 1569 4666 
L 2759 1491 
L 3956 4666 
L 4897 4666 
L 4897 0 
L 4281 0 
L 4281 4097 
L 3078 897 
L 2444 897 
L 1241 4097 
L 1241 0 
L 628 0 
L 628 4666 
z
" transform="scale(0.015625)"/>
      <path id="DejaVuSans-65" d="M 3597 1894 
L 3597 1613 
L 953 1613 
Q 991 1019 1311 708 
Q 1631 397 2203 397 
Q 2534 397 2845 478 
Q 3156 559 3463 722 
L 3463 178 
Q 3153 47 2828 -22 
Q 2503 -91 2169 -91 
Q 1331 -91 842 396 
Q 353 884 353 1716 
Q 353 2575 817 3079 
Q 1281 3584 2069 3584 
Q 2775 3584 3186 3129 
Q 3597 2675 3597 1894 
z
M 3022 2063 
Q 3016 2534 2758 2815 
Q 2500 3097 2075 3097 
Q 1594 3097 1305 2825 
Q 1016 2553 972 2059 
L 3022 2063 
z
" transform="scale(0.015625)"/>
      <path id="DejaVuSans-6c" d="M 603 4863 
L 1178 4863 
L 1178 0 
L 603 0 
L 603 4863 
z
" transform="scale(0.015625)"/>
      <path id="DejaVuSans-67" d="M 2906 1791 
Q 2906 2416 2648 2759 
Q 2391 3103 1925 3103 
Q 1463 3103 1205 2759 
Q 947 2416 947 1791 
Q 947 1169 1205 825 
Q 1463 481 1925 481 
Q 2391 481 2648 825 
Q 2906 1169 2906 1791 
z
M 3481 434 
Q 3481 -459 3084 -895 
Q 2688 -1331 1869 -1331 
Q 1566 -1331 1297 -1286 
Q 1028 -1241 775 -1147 
L 775 -588 
Q 1028 -725 1275 -790 
Q 1522 -856 1778 -856 
Q 2344 -856 2625 -561 
Q 2906 -266 2906 331 
L 2906 616 
Q 2728 306 2450 153 
Q 2172 0 1784 0 
Q 1141 0 747 490 
Q 353 981 353 1791 
Q 353 2603 747 3093 
Q 1141 3584 1784 3584 
Q 2172 3584 2450 3431 
Q 2728 3278 2906 2969 
L 2906 3500 
L 3481 3500 
L 3481 434 
z
" transform="scale(0.015625)"/>
     </defs>
     <use xlink:href="#DejaVuSans-20"/>
     <use xlink:href="#DejaVuSans-31" transform="translate(31.787109 0)"/>
     <use xlink:href="#DejaVuSans-31" transform="translate(95.410156 0)"/>
     <use xlink:href="#DejaVuSans-2e" transform="translate(159.033203 0)"/>
     <use xlink:href="#DejaVuSans-32" transform="translate(190.820312 0)"/>
     <use xlink:href="#DejaVuSans-20" transform="translate(254.443359 0)"/>
     <use xlink:href="#DejaVuSans-3a" transform="translate(286.230469 0)"/>
     <use xlink:href="#DejaVuSans-20" transform="translate(319.921875 0)"/>
     <use xlink:href="#DejaVuSans-4d" transform="translate(351.708984 0)"/>
     <use xlink:href="#DejaVuSans-6f" transform="translate(437.988281 0)"/>
     <use xlink:href="#DejaVuSans-64" transform="translate(499.169922 0)"/>
     <use xlink:href="#DejaVuSans-65" transform="translate(562.646484 0)"/>
     <use xlink:href="#DejaVuSans-6c" transform="translate(624.169922 0)"/>
     <use xlink:href="#DejaVuSans-69" transform="translate(651.953125 0)"/>
     <use xlink:href="#DejaVuSans-6e" transform="translate(679.736328 0)"/>
     <use xlink:href="#DejaVuSans-67" transform="translate(743.115234 0)"/>
    </g>
    <!--  and Simulation -->
    <g transform="translate(191.793619 199.213536) scale(0.05 -0.05)">
     <defs>
      <path id="DejaVuSans-61" d="M 2194 1759 
Q 1497 1759 1228 1600 
Q 959 1441 959 1056 
Q 959 750 1161 570 
Q 1363 391 1709 391 
Q 2188 391 2477 730 
Q 2766 1069 2766 1631 
L 2766 1759 
L 2194 1759 
z
M 3341 1997 
L 3341 0 
L 2766 0 
L 2766 531 
Q 2569 213 2275 61 
Q 1981 -91 1556 -91 
Q 1019 -91 701 211 
Q 384 513 384 1019 
Q 384 1609 779 1909 
Q 1175 2209 1959 2209 
L 2766 2209 
L 2766 2266 
Q 2766 2663 2505 2880 
Q 2244 3097 1772 3097 
Q 1472 3097 1187 3025 
Q 903 2953 641 2809 
L 641 3341 
Q 956 3463 1253 3523 
Q 1550 3584 1831 3584 
Q 2591 3584 2966 3190 
Q 3341 2797 3341 1997 
z
" transform="scale(0.015625)"/>
      <path id="DejaVuSans-53" d="M 3425 4513 
L 3425 3897 
Q 3066 4069 2747 4153 
Q 2428 4238 2131 4238 
Q 1616 4238 1336 4038 
Q 1056 3838 1056 3469 
Q 1056 3159 1242 3001 
Q 1428 2844 1947 2747 
L 2328 2669 
Q 3034 2534 3370 2195 
Q 3706 1856 3706 1288 
Q 3706 609 3251 259 
Q 2797 -91 1919 -91 
Q 1588 -91 1214 -16 
Q 841 59 441 206 
L 441 856 
Q 825 641 1194 531 
Q 1563 422 1919 422 
Q 2459 422 2753 634 
Q 3047 847 3047 1241 
Q 3047 1584 2836 1778 
Q 2625 1972 2144 2069 
L 1759 2144 
Q 1053 2284 737 2584 
Q 422 2884 422 3419 
Q 422 4038 858 4394 
Q 1294 4750 2059 4750 
Q 2388 4750 2728 4690 
Q 3069 4631 3425 4513 
z
" transform="scale(0.015625)"/>
      <path id="DejaVuSans-6d" d="M 3328 2828 
Q 3544 3216 3844 3400 
Q 4144 3584 4550 3584 
Q 5097 3584 5394 3201 
Q 5691 2819 5691 2113 
L 5691 0 
L 5113 0 
L 5113 2094 
Q 5113 2597 4934 2840 
Q 4756 3084 4391 3084 
Q 3944 3084 3684 2787 
Q 3425 2491 3425 1978 
L 3425 0 
L 2847 0 
L 2847 2094 
Q 2847 2600 2669 2842 
Q 2491 3084 2119 3084 
Q 1678 3084 1418 2786 
Q 1159 2488 1159 1978 
L 1159 0 
L 581 0 
L 581 3500 
L 1159 3500 
L 1159 2956 
Q 1356 3278 1631 3431 
Q 1906 3584 2284 3584 
Q 2666 3584 2933 3390 
Q 3200 3197 3328 2828 
z
" transform="scale(0.015625)"/>
     </defs>
     <use xlink:href="#DejaVuSans-20"/>
     <use xlink:href="#DejaVuSans-61" transform="translate(31.787109 0)"/>
     <use xlink:href="#DejaVuSans-6e" transform="translate(93.066406 0)"/>
     <use xlink:href="#DejaVuSans-64" transform="translate(156.445312 0)"/>
     <use xlink:href="#DejaVuSans-20" transform="translate(219.921875 0)"/>
     <use xlink:href="#DejaVuSans-53" transform="translate(251.708984 0)"/>
     <use xlink:href="#DejaVuSans-69" transform="translate(315.185547 0)"/>
     <use xlink:href="#DejaVuSans-6d" transform="translate(342.96875 0)"/>
     <use xlink:href="#DejaVuSans-75" transform="translate(440.380859 0)"/>
     <use xlink:href="#DejaVuSans-6c" transform="translate(503.759766 0)"/>
     <use xlink:href="#DejaVuSans-61" transform="translate(531.542969 0)"/>
     <use xlink:href="#DejaVuSans-74" transform="translate(592.822266 0)"/>
     <use xlink:href="#DejaVuSans-69" transform="translate(632.03125 0)"/>
     <use xlink:href="#DejaVuSans-6f" transform="translate(659.814453 0)"/>
     <use xlink:href="#DejaVuSans-6e" transform="translate(720.996094 0)"/>
    </g>
    <!--  Techniques -->
    <g transform="translate(196.717838 204.812442) scale(0.05 -0.05)">
     <defs>
      <path id="DejaVuSans-54" d="M -19 4666 
L 3928 4666 
L 3928 4134 
L 2272 4134 
L 2272 0 
L 1638 0 
L 1638 4134 
L -19 4134 
L -19 4666 
z
" transform="scale(0.015625)"/>
      <path id="DejaVuSans-68" d="M 3513 2113 
L 3513 0 
L 2938 0 
L 2938 2094 
Q 2938 2591 2744 2837 
Q 2550 3084 2163 3084 
Q 1697 3084 1428 2787 
Q 1159 2491 1159 1978 
L 1159 0 
L 581 0 
L 581 4863 
L 1159 4863 
L 1159 2956 
Q 1366 3272 1645 3428 
Q 1925 3584 2291 3584 
Q 2894 3584 3203 3211 
Q 3513 2838 3513 2113 
z
" transform="scale(0.015625)"/>
      <path id="DejaVuSans-71" d="M 947 1747 
Q 947 1113 1208 752 
Q 1469 391 1925 391 
Q 2381 391 2643 752 
Q 2906 1113 2906 1747 
Q 2906 2381 2643 2742 
Q 2381 3103 1925 3103 
Q 1469 3103 1208 2742 
Q 947 2381 947 1747 
z
M 2906 525 
Q 2725 213 2448 61 
Q 2172 -91 1784 -91 
Q 1150 -91 751 415 
Q 353 922 353 1747 
Q 353 2572 751 3078 
Q 1150 3584 1784 3584 
Q 2172 3584 2448 3432 
Q 2725 3281 2906 2969 
L 2906 3500 
L 3481 3500 
L 3481 -1331 
L 2906 -1331 
L 2906 525 
z
" transform="scale(0.015625)"/>
      <path id="DejaVuSans-73" d="M 2834 3397 
L 2834 2853 
Q 2591 2978 2328 3040 
Q 2066 3103 1784 3103 
Q 1356 3103 1142 2972 
Q 928 2841 928 2578 
Q 928 2378 1081 2264 
Q 1234 2150 1697 2047 
L 1894 2003 
Q 2506 1872 2764 1633 
Q 3022 1394 3022 966 
Q 3022 478 2636 193 
Q 2250 -91 1575 -91 
Q 1294 -91 989 -36 
Q 684 19 347 128 
L 347 722 
Q 666 556 975 473 
Q 1284 391 1588 391 
Q 1994 391 2212 530 
Q 2431 669 2431 922 
Q 2431 1156 2273 1281 
Q 2116 1406 1581 1522 
L 1381 1569 
Q 847 1681 609 1914 
Q 372 2147 372 2553 
Q 372 3047 722 3315 
Q 1072 3584 1716 3584 
Q 2034 3584 2315 3537 
Q 2597 3491 2834 3397 
z
" transform="scale(0.015625)"/>
     </defs>
     <use xlink:href="#DejaVuSans-20"/>
     <use xlink:href="#DejaVuSans-54" transform="translate(31.787109 0)"/>
     <use xlink:href="#DejaVuSans-65" transform="translate(75.871094 0)"/>
     <use xlink:href="#DejaVuSans-63" transform="translate(137.394531 0)"/>
     <use xlink:href="#DejaVuSans-68" transform="translate(192.375 0)"/>
     <use xlink:href="#DejaVuSans-6e" transform="translate(255.753906 0)"/>
     <use xlink:href="#DejaVuSans-69" transform="translate(319.132812 0)"/>
     <use xlink:href="#DejaVuSans-71" transform="translate(346.916016 0)"/>
     <use xlink:href="#DejaVuSans-75" transform="translate(410.392578 0)"/>
     <use xlink:href="#DejaVuSans-65" transform="translate(473.771484 0)"/>
     <use xlink:href="#DejaVuSans-73" transform="translate(535.294922 0)"/>
    </g>
    <!--  for Fractured -->
    <g transform="translate(194.523698 210.411349) scale(0.05 -0.05)">
     <defs>
      <path id="DejaVuSans-66" d="M 2375 4863 
L 2375 4384 
L 1825 4384 
Q 1516 4384 1395 4259 
Q 1275 4134 1275 3809 
L 1275 3500 
L 2222 3500 
L 2222 3053 
L 1275 3053 
L 1275 0 
L 697 0 
L 697 3053 
L 147 3053 
L 147 3500 
L 697 3500 
L 697 3744 
Q 697 4328 969 4595 
Q 1241 4863 1831 4863 
L 2375 4863 
z
" transform="scale(0.015625)"/>
      <path id="DejaVuSans-46" d="M 628 4666 
L 3309 4666 
L 3309 4134 
L 1259 4134 
L 1259 2759 
L 3109 2759 
L 3109 2228 
L 1259 2228 
L 1259 0 
L 628 0 
L 628 4666 
z
" transform="scale(0.015625)"/>
     </defs>
     <use xlink:href="#DejaVuSans-20"/>
     <use xlink:href="#DejaVuSans-66" transform="translate(31.787109 0)"/>
     <use xlink:href="#DejaVuSans-6f" transform="translate(66.992188 0)"/>
     <use xlink:href="#DejaVuSans-72" transform="translate(128.173828 0)"/>
     <use xlink:href="#DejaVuSans-20" transform="translate(169.287109 0)"/>
     <use xlink:href="#DejaVuSans-46" transform="translate(201.074219 0)"/>
     <use xlink:href="#DejaVuSans-72" transform="translate(251.34375 0)"/>
     <use xlink:href="#DejaVuSans-61" transform="translate(292.457031 0)"/>
     <use xlink:href="#DejaVuSans-63" transform="translate(353.736328 0)"/>
     <use xlink:href="#DejaVuSans-74" transform="translate(408.716797 0)"/>
     <use xlink:href="#DejaVuSans-75" transform="translate(447.925781 0)"/>
     <use xlink:href="#DejaVuSans-72" transform="translate(511.304688 0)"/>
     <use xlink:href="#DejaVuSans-65" transform="translate(550.167969 0)"/>
     <use xlink:href="#DejaVuSans-64" transform="translate(611.691406 0)"/>
    </g>
    <!--  Reservoirs -->
    <g transform="translate(197.542838 216.010255) scale(0.05 -0.05)">
     <defs>
      <path id="DejaVuSans-52" d="M 2841 2188 
Q 3044 2119 3236 1894 
Q 3428 1669 3622 1275 
L 4263 0 
L 3584 0 
L 2988 1197 
Q 2756 1666 2539 1819 
Q 2322 1972 1947 1972 
L 1259 1972 
L 1259 0 
L 628 0 
L 628 4666 
L 2053 4666 
Q 2853 4666 3247 4331 
Q 3641 3997 3641 3322 
Q 3641 2881 3436 2590 
Q 3231 2300 2841 2188 
z
M 1259 4147 
L 1259 2491 
L 2053 2491 
Q 2509 2491 2742 2702 
Q 2975 2913 2975 3322 
Q 2975 3731 2742 3939 
Q 2509 4147 2053 4147 
L 1259 4147 
z
" transform="scale(0.015625)"/>
      <path id="DejaVuSans-76" d="M 191 3500 
L 800 3500 
L 1894 563 
L 2988 3500 
L 3597 3500 
L 2284 0 
L 1503 0 
L 191 3500 
z
" transform="scale(0.015625)"/>
     </defs>
     <use xlink:href="#DejaVuSans-20"/>
     <use xlink:href="#DejaVuSans-52" transform="translate(31.787109 0)"/>
     <use xlink:href="#DejaVuSans-65" transform="translate(96.769531 0)"/>
     <use xlink:href="#DejaVuSans-73" transform="translate(158.292969 0)"/>
     <use xlink:href="#DejaVuSans-65" transform="translate(210.392578 0)"/>
     <use xlink:href="#DejaVuSans-72" transform="translate(271.916016 0)"/>
     <use xlink:href="#DejaVuSans-76" transform="translate(313.029297 0)"/>
     <use xlink:href="#DejaVuSans-6f" transform="translate(372.208984 0)"/>
     <use xlink:href="#DejaVuSans-69" transform="translate(433.390625 0)"/>
     <use xlink:href="#DejaVuSans-72" transform="translate(461.173828 0)"/>
     <use xlink:href="#DejaVuSans-73" transform="translate(502.287109 0)"/>
    </g>
    <!--  -->
    <g transform="translate(211.402604 221.609161) scale(0.05 -0.05)"/>
   </g>
   <g id="text_3">
    <!--  11.2.1 : Governing -->
    <g transform="translate(25.506796 309.120698) scale(0.03 -0.03)">
     <defs>
      <path id="DejaVuSans-47" d="M 3809 666 
L 3809 1919 
L 2778 1919 
L 2778 2438 
L 4434 2438 
L 4434 434 
Q 4069 175 3628 42 
Q 3188 -91 2688 -91 
Q 1594 -91 976 548 
Q 359 1188 359 2328 
Q 359 3472 976 4111 
Q 1594 4750 2688 4750 
Q 3144 4750 3555 4637 
Q 3966 4525 4313 4306 
L 4313 3634 
Q 3963 3931 3569 4081 
Q 3175 4231 2741 4231 
Q 1884 4231 1454 3753 
Q 1025 3275 1025 2328 
Q 1025 1384 1454 906 
Q 1884 428 2741 428 
Q 3075 428 3337 486 
Q 3600 544 3809 666 
z
" transform="scale(0.015625)"/>
     </defs>
     <use xlink:href="#DejaVuSans-20"/>
     <use xlink:href="#DejaVuSans-31" transform="translate(31.787109 0)"/>
     <use xlink:href="#DejaVuSans-31" transform="translate(95.410156 0)"/>
     <use xlink:href="#DejaVuSans-2e" transform="translate(159.033203 0)"/>
     <use xlink:href="#DejaVuSans-32" transform="translate(190.820312 0)"/>
     <use xlink:href="#DejaVuSans-2e" transform="translate(254.443359 0)"/>
     <use xlink:href="#DejaVuSans-31" transform="translate(286.230469 0)"/>
     <use xlink:href="#DejaVuSans-20" transform="translate(349.853516 0)"/>
     <use xlink:href="#DejaVuSans-3a" transform="translate(381.640625 0)"/>
     <use xlink:href="#DejaVuSans-20" transform="translate(415.332031 0)"/>
     <use xlink:href="#DejaVuSans-47" transform="translate(447.119141 0)"/>
     <use xlink:href="#DejaVuSans-6f" transform="translate(524.609375 0)"/>
     <use xlink:href="#DejaVuSans-76" transform="translate(585.791016 0)"/>
     <use xlink:href="#DejaVuSans-65" transform="translate(644.970703 0)"/>
     <use xlink:href="#DejaVuSans-72" transform="translate(706.494141 0)"/>
     <use xlink:href="#DejaVuSans-6e" transform="translate(745.857422 0)"/>
     <use xlink:href="#DejaVuSans-69" transform="translate(809.236328 0)"/>
     <use xlink:href="#DejaVuSans-6e" transform="translate(837.019531 0)"/>
     <use xlink:href="#DejaVuSans-67" transform="translate(900.398438 0)"/>
    </g>
    <!--  Equations -->
    <g transform="translate(32.063437 312.480042) scale(0.03 -0.03)">
     <defs>
      <path id="DejaVuSans-45" d="M 628 4666 
L 3578 4666 
L 3578 4134 
L 1259 4134 
L 1259 2753 
L 3481 2753 
L 3481 2222 
L 1259 2222 
L 1259 531 
L 3634 531 
L 3634 0 
L 628 0 
L 628 4666 
z
" transform="scale(0.015625)"/>
     </defs>
     <use xlink:href="#DejaVuSans-20"/>
     <use xlink:href="#DejaVuSans-45" transform="translate(31.787109 0)"/>
     <use xlink:href="#DejaVuSans-71" transform="translate(94.970703 0)"/>
     <use xlink:href="#DejaVuSans-75" transform="translate(158.447266 0)"/>
     <use xlink:href="#DejaVuSans-61" transform="translate(221.826172 0)"/>
     <use xlink:href="#DejaVuSans-74" transform="translate(283.105469 0)"/>
     <use xlink:href="#DejaVuSans-69" transform="translate(322.314453 0)"/>
     <use xlink:href="#DejaVuSans-6f" transform="translate(350.097656 0)"/>
     <use xlink:href="#DejaVuSans-6e" transform="translate(411.279297 0)"/>
     <use xlink:href="#DejaVuSans-73" transform="translate(474.658203 0)"/>
    </g>
   </g>
   <g id="text_4">
    <!--  11.2.2 : Multicontinuum -->
    <g transform="translate(107.299973 309.120698) scale(0.03 -0.03)">
     <use xlink:href="#DejaVuSans-20"/>
     <use xlink:href="#DejaVuSans-31" transform="translate(31.787109 0)"/>
     <use xlink:href="#DejaVuSans-31" transform="translate(95.410156 0)"/>
     <use xlink:href="#DejaVuSans-2e" transform="translate(159.033203 0)"/>
     <use xlink:href="#DejaVuSans-32" transform="translate(190.820312 0)"/>
     <use xlink:href="#DejaVuSans-2e" transform="translate(254.443359 0)"/>
     <use xlink:href="#DejaVuSans-32" transform="translate(286.230469 0)"/>
     <use xlink:href="#DejaVuSans-20" transform="translate(349.853516 0)"/>
     <use xlink:href="#DejaVuSans-3a" transform="translate(381.640625 0)"/>
     <use xlink:href="#DejaVuSans-20" transform="translate(415.332031 0)"/>
     <use xlink:href="#DejaVuSans-4d" transform="translate(447.119141 0)"/>
     <use xlink:href="#DejaVuSans-75" transform="translate(533.398438 0)"/>
     <use xlink:href="#DejaVuSans-6c" transform="translate(596.777344 0)"/>
     <use xlink:href="#DejaVuSans-74" transform="translate(624.560547 0)"/>
     <use xlink:href="#DejaVuSans-69" transform="translate(663.769531 0)"/>
     <use xlink:href="#DejaVuSans-63" transform="translate(691.552734 0)"/>
     <use xlink:href="#DejaVuSans-6f" transform="translate(746.533203 0)"/>
     <use xlink:href="#DejaVuSans-6e" transform="translate(807.714844 0)"/>
     <use xlink:href="#DejaVuSans-74" transform="translate(871.09375 0)"/>
     <use xlink:href="#DejaVuSans-69" transform="translate(910.302734 0)"/>
     <use xlink:href="#DejaVuSans-6e" transform="translate(938.085938 0)"/>
     <use xlink:href="#DejaVuSans-75" transform="translate(1001.464844 0)"/>
     <use xlink:href="#DejaVuSans-75" transform="translate(1064.84375 0)"/>
     <use xlink:href="#DejaVuSans-6d" transform="translate(1128.222656 0)"/>
    </g>
    <!--  Models -->
    <g transform="translate(119.921536 312.480042) scale(0.03 -0.03)">
     <use xlink:href="#DejaVuSans-20"/>
     <use xlink:href="#DejaVuSans-4d" transform="translate(31.787109 0)"/>
     <use xlink:href="#DejaVuSans-6f" transform="translate(118.066406 0)"/>
     <use xlink:href="#DejaVuSans-64" transform="translate(179.248047 0)"/>
     <use xlink:href="#DejaVuSans-65" transform="translate(242.724609 0)"/>
     <use xlink:href="#DejaVuSans-6c" transform="translate(304.248047 0)"/>
     <use xlink:href="#DejaVuSans-73" transform="translate(332.03125 0)"/>
    </g>
   </g>
   <g id="text_5">
    <!--  11.2.3 : Discrete -->
    <g transform="translate(198.501432 305.761354) scale(0.03 -0.03)">
     <defs>
      <path id="DejaVuSans-33" d="M 2597 2516 
Q 3050 2419 3304 2112 
Q 3559 1806 3559 1356 
Q 3559 666 3084 287 
Q 2609 -91 1734 -91 
Q 1441 -91 1130 -33 
Q 819 25 488 141 
L 488 750 
Q 750 597 1062 519 
Q 1375 441 1716 441 
Q 2309 441 2620 675 
Q 2931 909 2931 1356 
Q 2931 1769 2642 2001 
Q 2353 2234 1838 2234 
L 1294 2234 
L 1294 2753 
L 1863 2753 
Q 2328 2753 2575 2939 
Q 2822 3125 2822 3475 
Q 2822 3834 2567 4026 
Q 2313 4219 1838 4219 
Q 1578 4219 1281 4162 
Q 984 4106 628 3988 
L 628 4550 
Q 988 4650 1302 4700 
Q 1616 4750 1894 4750 
Q 2613 4750 3031 4423 
Q 3450 4097 3450 3541 
Q 3450 3153 3228 2886 
Q 3006 2619 2597 2516 
z
" transform="scale(0.015625)"/>
      <path id="DejaVuSans-44" d="M 1259 4147 
L 1259 519 
L 2022 519 
Q 2988 519 3436 956 
Q 3884 1394 3884 2338 
Q 3884 3275 3436 3711 
Q 2988 4147 2022 4147 
L 1259 4147 
z
M 628 4666 
L 1925 4666 
Q 3281 4666 3915 4102 
Q 4550 3538 4550 2338 
Q 4550 1131 3912 565 
Q 3275 0 1925 0 
L 628 0 
L 628 4666 
z
" transform="scale(0.015625)"/>
     </defs>
     <use xlink:href="#DejaVuSans-20"/>
     <use xlink:href="#DejaVuSans-31" transform="translate(31.787109 0)"/>
     <use xlink:href="#DejaVuSans-31" transform="translate(95.410156 0)"/>
     <use xlink:href="#DejaVuSans-2e" transform="translate(159.033203 0)"/>
     <use xlink:href="#DejaVuSans-32" transform="translate(190.820312 0)"/>
     <use xlink:href="#DejaVuSans-2e" transform="translate(254.443359 0)"/>
     <use xlink:href="#DejaVuSans-33" transform="translate(286.230469 0)"/>
     <use xlink:href="#DejaVuSans-20" transform="translate(349.853516 0)"/>
     <use xlink:href="#DejaVuSans-3a" transform="translate(381.640625 0)"/>
     <use xlink:href="#DejaVuSans-20" transform="translate(415.332031 0)"/>
     <use xlink:href="#DejaVuSans-44" transform="translate(447.119141 0)"/>
     <use xlink:href="#DejaVuSans-69" transform="translate(524.121094 0)"/>
     <use xlink:href="#DejaVuSans-73" transform="translate(551.904297 0)"/>
     <use xlink:href="#DejaVuSans-63" transform="translate(604.003906 0)"/>
     <use xlink:href="#DejaVuSans-72" transform="translate(658.984375 0)"/>
     <use xlink:href="#DejaVuSans-65" transform="translate(697.847656 0)"/>
     <use xlink:href="#DejaVuSans-74" transform="translate(759.371094 0)"/>
     <use xlink:href="#DejaVuSans-65" transform="translate(798.580078 0)"/>
    </g>
    <!--  Fracture and -->
    <g transform="translate(201.467916 309.120698) scale(0.03 -0.03)">
     <use xlink:href="#DejaVuSans-20"/>
     <use xlink:href="#DejaVuSans-46" transform="translate(31.787109 0)"/>
     <use xlink:href="#DejaVuSans-72" transform="translate(82.056641 0)"/>
     <use xlink:href="#DejaVuSans-61" transform="translate(123.169922 0)"/>
     <use xlink:href="#DejaVuSans-63" transform="translate(184.449219 0)"/>
     <use xlink:href="#DejaVuSans-74" transform="translate(239.429688 0)"/>
     <use xlink:href="#DejaVuSans-75" transform="translate(278.638672 0)"/>
     <use xlink:href="#DejaVuSans-72" transform="translate(342.017578 0)"/>
     <use xlink:href="#DejaVuSans-65" transform="translate(380.880859 0)"/>
     <use xlink:href="#DejaVuSans-20" transform="translate(442.404297 0)"/>
     <use xlink:href="#DejaVuSans-61" transform="translate(474.191406 0)"/>
     <use xlink:href="#DejaVuSans-6e" transform="translate(535.470703 0)"/>
     <use xlink:href="#DejaVuSans-64" transform="translate(598.849609 0)"/>
    </g>
    <!--  Matrix Model -->
    <g transform="translate(201.222526 312.480042) scale(0.03 -0.03)">
     <defs>
      <path id="DejaVuSans-78" d="M 3513 3500 
L 2247 1797 
L 3578 0 
L 2900 0 
L 1881 1375 
L 863 0 
L 184 0 
L 1544 1831 
L 300 3500 
L 978 3500 
L 1906 2253 
L 2834 3500 
L 3513 3500 
z
" transform="scale(0.015625)"/>
     </defs>
     <use xlink:href="#DejaVuSans-20"/>
     <use xlink:href="#DejaVuSans-4d" transform="translate(31.787109 0)"/>
     <use xlink:href="#DejaVuSans-61" transform="translate(118.066406 0)"/>
     <use xlink:href="#DejaVuSans-74" transform="translate(179.345703 0)"/>
     <use xlink:href="#DejaVuSans-72" transform="translate(218.554688 0)"/>
     <use xlink:href="#DejaVuSans-69" transform="translate(259.667969 0)"/>
     <use xlink:href="#DejaVuSans-78" transform="translate(287.451172 0)"/>
     <use xlink:href="#DejaVuSans-20" transform="translate(346.630859 0)"/>
     <use xlink:href="#DejaVuSans-4d" transform="translate(378.417969 0)"/>
     <use xlink:href="#DejaVuSans-6f" transform="translate(464.697266 0)"/>
     <use xlink:href="#DejaVuSans-64" transform="translate(525.878906 0)"/>
     <use xlink:href="#DejaVuSans-65" transform="translate(589.355469 0)"/>
     <use xlink:href="#DejaVuSans-6c" transform="translate(650.878906 0)"/>
    </g>
    <!--  -->
    <g transform="translate(211.402604 315.839385) scale(0.03 -0.03)"/>
   </g>
   <g id="text_6">
    <!--  11.3 : Implementation -->
    <g transform="translate(354.197161 204.812442) scale(0.05 -0.05)">
     <defs>
      <path id="DejaVuSans-70" d="M 1159 525 
L 1159 -1331 
L 581 -1331 
L 581 3500 
L 1159 3500 
L 1159 2969 
Q 1341 3281 1617 3432 
Q 1894 3584 2278 3584 
Q 2916 3584 3314 3078 
Q 3713 2572 3713 1747 
Q 3713 922 3314 415 
Q 2916 -91 2278 -91 
Q 1894 -91 1617 61 
Q 1341 213 1159 525 
z
M 3116 1747 
Q 3116 2381 2855 2742 
Q 2594 3103 2138 3103 
Q 1681 3103 1420 2742 
Q 1159 2381 1159 1747 
Q 1159 1113 1420 752 
Q 1681 391 2138 391 
Q 2594 391 2855 752 
Q 3116 1113 3116 1747 
z
" transform="scale(0.015625)"/>
     </defs>
     <use xlink:href="#DejaVuSans-20"/>
     <use xlink:href="#DejaVuSans-31" transform="translate(31.787109 0)"/>
     <use xlink:href="#DejaVuSans-31" transform="translate(95.410156 0)"/>
     <use xlink:href="#DejaVuSans-2e" transform="translate(159.033203 0)"/>
     <use xlink:href="#DejaVuSans-33" transform="translate(190.820312 0)"/>
     <use xlink:href="#DejaVuSans-20" transform="translate(254.443359 0)"/>
     <use xlink:href="#DejaVuSans-3a" transform="translate(286.230469 0)"/>
     <use xlink:href="#DejaVuSans-20" transform="translate(319.921875 0)"/>
     <use xlink:href="#DejaVuSans-49" transform="translate(351.708984 0)"/>
     <use xlink:href="#DejaVuSans-6d" transform="translate(381.201172 0)"/>
     <use xlink:href="#DejaVuSans-70" transform="translate(478.613281 0)"/>
     <use xlink:href="#DejaVuSans-6c" transform="translate(542.089844 0)"/>
     <use xlink:href="#DejaVuSans-65" transform="translate(569.873047 0)"/>
     <use xlink:href="#DejaVuSans-6d" transform="translate(631.396484 0)"/>
     <use xlink:href="#DejaVuSans-65" transform="translate(728.808594 0)"/>
     <use xlink:href="#DejaVuSans-6e" transform="translate(790.332031 0)"/>
     <use xlink:href="#DejaVuSans-74" transform="translate(853.710938 0)"/>
     <use xlink:href="#DejaVuSans-61" transform="translate(892.919922 0)"/>
     <use xlink:href="#DejaVuSans-74" transform="translate(954.199219 0)"/>
     <use xlink:href="#DejaVuSans-69" transform="translate(993.408203 0)"/>
     <use xlink:href="#DejaVuSans-6f" transform="translate(1021.191406 0)"/>
     <use xlink:href="#DejaVuSans-6e" transform="translate(1082.373047 0)"/>
    </g>
    <!--  in MRST -->
    <g transform="translate(371.964349 210.411349) scale(0.05 -0.05)">
     <use xlink:href="#DejaVuSans-20"/>
     <use xlink:href="#DejaVuSans-69" transform="translate(31.787109 0)"/>
     <use xlink:href="#DejaVuSans-6e" transform="translate(59.570312 0)"/>
     <use xlink:href="#DejaVuSans-20" transform="translate(122.949219 0)"/>
     <use xlink:href="#DejaVuSans-4d" transform="translate(154.736328 0)"/>
     <use xlink:href="#DejaVuSans-52" transform="translate(241.015625 0)"/>
     <use xlink:href="#DejaVuSans-53" transform="translate(310.498047 0)"/>
     <use xlink:href="#DejaVuSans-54" transform="translate(373.974609 0)"/>
    </g>
   </g>
   <g id="text_7">
    <!--  11.3.1 : Multicontinuum -->
    <g transform="translate(278.73789 304.081682) scale(0.03 -0.03)">
     <use xlink:href="#DejaVuSans-20"/>
     <use xlink:href="#DejaVuSans-31" transform="translate(31.787109 0)"/>
     <use xlink:href="#DejaVuSans-31" transform="translate(95.410156 0)"/>
     <use xlink:href="#DejaVuSans-2e" transform="translate(159.033203 0)"/>
     <use xlink:href="#DejaVuSans-33" transform="translate(190.820312 0)"/>
     <use xlink:href="#DejaVuSans-2e" transform="translate(254.443359 0)"/>
     <use xlink:href="#DejaVuSans-31" transform="translate(286.230469 0)"/>
     <use xlink:href="#DejaVuSans-20" transform="translate(349.853516 0)"/>
     <use xlink:href="#DejaVuSans-3a" transform="translate(381.640625 0)"/>
     <use xlink:href="#DejaVuSans-20" transform="translate(415.332031 0)"/>
     <use xlink:href="#DejaVuSans-4d" transform="translate(447.119141 0)"/>
     <use xlink:href="#DejaVuSans-75" transform="translate(533.398438 0)"/>
     <use xlink:href="#DejaVuSans-6c" transform="translate(596.777344 0)"/>
     <use xlink:href="#DejaVuSans-74" transform="translate(624.560547 0)"/>
     <use xlink:href="#DejaVuSans-69" transform="translate(663.769531 0)"/>
     <use xlink:href="#DejaVuSans-63" transform="translate(691.552734 0)"/>
     <use xlink:href="#DejaVuSans-6f" transform="translate(746.533203 0)"/>
     <use xlink:href="#DejaVuSans-6e" transform="translate(807.714844 0)"/>
     <use xlink:href="#DejaVuSans-74" transform="translate(871.09375 0)"/>
     <use xlink:href="#DejaVuSans-69" transform="translate(910.302734 0)"/>
     <use xlink:href="#DejaVuSans-6e" transform="translate(938.085938 0)"/>
     <use xlink:href="#DejaVuSans-75" transform="translate(1001.464844 0)"/>
     <use xlink:href="#DejaVuSans-75" transform="translate(1064.84375 0)"/>
     <use xlink:href="#DejaVuSans-6d" transform="translate(1128.222656 0)"/>
    </g>
    <!--  and Discrete -->
    <g transform="translate(287.15125 307.441026) scale(0.03 -0.03)">
     <use xlink:href="#DejaVuSans-20"/>
     <use xlink:href="#DejaVuSans-61" transform="translate(31.787109 0)"/>
     <use xlink:href="#DejaVuSans-6e" transform="translate(93.066406 0)"/>
     <use xlink:href="#DejaVuSans-64" transform="translate(156.445312 0)"/>
     <use xlink:href="#DejaVuSans-20" transform="translate(219.921875 0)"/>
     <use xlink:href="#DejaVuSans-44" transform="translate(251.708984 0)"/>
     <use xlink:href="#DejaVuSans-69" transform="translate(328.710938 0)"/>
     <use xlink:href="#DejaVuSans-73" transform="translate(356.494141 0)"/>
     <use xlink:href="#DejaVuSans-63" transform="translate(408.59375 0)"/>
     <use xlink:href="#DejaVuSans-72" transform="translate(463.574219 0)"/>
     <use xlink:href="#DejaVuSans-65" transform="translate(502.4375 0)"/>
     <use xlink:href="#DejaVuSans-74" transform="translate(563.960938 0)"/>
     <use xlink:href="#DejaVuSans-65" transform="translate(603.169922 0)"/>
    </g>
    <!--  Fracture and -->
    <g transform="translate(287.186875 310.80037) scale(0.03 -0.03)">
     <use xlink:href="#DejaVuSans-20"/>
     <use xlink:href="#DejaVuSans-46" transform="translate(31.787109 0)"/>
     <use xlink:href="#DejaVuSans-72" transform="translate(82.056641 0)"/>
     <use xlink:href="#DejaVuSans-61" transform="translate(123.169922 0)"/>
     <use xlink:href="#DejaVuSans-63" transform="translate(184.449219 0)"/>
     <use xlink:href="#DejaVuSans-74" transform="translate(239.429688 0)"/>
     <use xlink:href="#DejaVuSans-75" transform="translate(278.638672 0)"/>
     <use xlink:href="#DejaVuSans-72" transform="translate(342.017578 0)"/>
     <use xlink:href="#DejaVuSans-65" transform="translate(380.880859 0)"/>
     <use xlink:href="#DejaVuSans-20" transform="translate(442.404297 0)"/>
     <use xlink:href="#DejaVuSans-61" transform="translate(474.191406 0)"/>
     <use xlink:href="#DejaVuSans-6e" transform="translate(535.470703 0)"/>
     <use xlink:href="#DejaVuSans-64" transform="translate(598.849609 0)"/>
    </g>
    <!--  Matrix Models -->
    <g transform="translate(286.160078 314.159713) scale(0.03 -0.03)">
     <use xlink:href="#DejaVuSans-20"/>
     <use xlink:href="#DejaVuSans-4d" transform="translate(31.787109 0)"/>
     <use xlink:href="#DejaVuSans-61" transform="translate(118.066406 0)"/>
     <use xlink:href="#DejaVuSans-74" transform="translate(179.345703 0)"/>
     <use xlink:href="#DejaVuSans-72" transform="translate(218.554688 0)"/>
     <use xlink:href="#DejaVuSans-69" transform="translate(259.667969 0)"/>
     <use xlink:href="#DejaVuSans-78" transform="translate(287.451172 0)"/>
     <use xlink:href="#DejaVuSans-20" transform="translate(346.630859 0)"/>
     <use xlink:href="#DejaVuSans-4d" transform="translate(378.417969 0)"/>
     <use xlink:href="#DejaVuSans-6f" transform="translate(464.697266 0)"/>
     <use xlink:href="#DejaVuSans-64" transform="translate(525.878906 0)"/>
     <use xlink:href="#DejaVuSans-65" transform="translate(589.355469 0)"/>
     <use xlink:href="#DejaVuSans-6c" transform="translate(650.878906 0)"/>
     <use xlink:href="#DejaVuSans-73" transform="translate(678.662109 0)"/>
    </g>
    <!--  -->
    <g transform="translate(297.121562 317.519057) scale(0.03 -0.03)"/>
   </g>
   <g id="text_8">
    <!--  11.3.2 : A -->
    <g transform="translate(375.108021 305.761354) scale(0.03 -0.03)">
     <defs>
      <path id="DejaVuSans-41" d="M 2188 4044 
L 1331 1722 
L 3047 1722 
L 2188 4044 
z
M 1831 4666 
L 2547 4666 
L 4325 0 
L 3669 0 
L 3244 1197 
L 1141 1197 
L 716 0 
L 50 0 
L 1831 4666 
z
" transform="scale(0.015625)"/>
     </defs>
     <use xlink:href="#DejaVuSans-20"/>
     <use xlink:href="#DejaVuSans-31" transform="translate(31.787109 0)"/>
     <use xlink:href="#DejaVuSans-31" transform="translate(95.410156 0)"/>
     <use xlink:href="#DejaVuSans-2e" transform="translate(159.033203 0)"/>
     <use xlink:href="#DejaVuSans-33" transform="translate(190.820312 0)"/>
     <use xlink:href="#DejaVuSans-2e" transform="translate(254.443359 0)"/>
     <use xlink:href="#DejaVuSans-32" transform="translate(286.230469 0)"/>
     <use xlink:href="#DejaVuSans-20" transform="translate(349.853516 0)"/>
     <use xlink:href="#DejaVuSans-3a" transform="translate(381.640625 0)"/>
     <use xlink:href="#DejaVuSans-20" transform="translate(415.332031 0)"/>
     <use xlink:href="#DejaVuSans-41" transform="translate(447.119141 0)"/>
    </g>
    <!--  Brief Note -->
    <g transform="translate(374.822552 309.120698) scale(0.03 -0.03)">
     <defs>
      <path id="DejaVuSans-42" d="M 1259 2228 
L 1259 519 
L 2272 519 
Q 2781 519 3026 730 
Q 3272 941 3272 1375 
Q 3272 1813 3026 2020 
Q 2781 2228 2272 2228 
L 1259 2228 
z
M 1259 4147 
L 1259 2741 
L 2194 2741 
Q 2656 2741 2882 2914 
Q 3109 3088 3109 3444 
Q 3109 3797 2882 3972 
Q 2656 4147 2194 4147 
L 1259 4147 
z
M 628 4666 
L 2241 4666 
Q 2963 4666 3353 4366 
Q 3744 4066 3744 3513 
Q 3744 3084 3544 2831 
Q 3344 2578 2956 2516 
Q 3422 2416 3680 2098 
Q 3938 1781 3938 1306 
Q 3938 681 3513 340 
Q 3088 0 2303 0 
L 628 0 
L 628 4666 
z
" transform="scale(0.015625)"/>
      <path id="DejaVuSans-4e" d="M 628 4666 
L 1478 4666 
L 3547 763 
L 3547 4666 
L 4159 4666 
L 4159 0 
L 3309 0 
L 1241 3903 
L 1241 0 
L 628 0 
L 628 4666 
z
" transform="scale(0.015625)"/>
     </defs>
     <use xlink:href="#DejaVuSans-20"/>
     <use xlink:href="#DejaVuSans-42" transform="translate(31.787109 0)"/>
     <use xlink:href="#DejaVuSans-72" transform="translate(100.390625 0)"/>
     <use xlink:href="#DejaVuSans-69" transform="translate(141.503906 0)"/>
     <use xlink:href="#DejaVuSans-65" transform="translate(169.287109 0)"/>
     <use xlink:href="#DejaVuSans-66" transform="translate(230.810547 0)"/>
     <use xlink:href="#DejaVuSans-20" transform="translate(266.015625 0)"/>
     <use xlink:href="#DejaVuSans-4e" transform="translate(297.802734 0)"/>
     <use xlink:href="#DejaVuSans-6f" transform="translate(372.607422 0)"/>
     <use xlink:href="#DejaVuSans-74" transform="translate(433.789062 0)"/>
     <use xlink:href="#DejaVuSans-65" transform="translate(472.998047 0)"/>
    </g>
    <!--  on Other Methods -->
    <g transform="translate(368.875521 312.480042) scale(0.03 -0.03)">
     <defs>
      <path id="DejaVuSans-4f" d="M 2522 4238 
Q 1834 4238 1429 3725 
Q 1025 3213 1025 2328 
Q 1025 1447 1429 934 
Q 1834 422 2522 422 
Q 3209 422 3611 934 
Q 4013 1447 4013 2328 
Q 4013 3213 3611 3725 
Q 3209 4238 2522 4238 
z
M 2522 4750 
Q 3503 4750 4090 4092 
Q 4678 3434 4678 2328 
Q 4678 1225 4090 567 
Q 3503 -91 2522 -91 
Q 1538 -91 948 565 
Q 359 1222 359 2328 
Q 359 3434 948 4092 
Q 1538 4750 2522 4750 
z
" transform="scale(0.015625)"/>
     </defs>
     <use xlink:href="#DejaVuSans-20"/>
     <use xlink:href="#DejaVuSans-6f" transform="translate(31.787109 0)"/>
     <use xlink:href="#DejaVuSans-6e" transform="translate(92.96875 0)"/>
     <use xlink:href="#DejaVuSans-20" transform="translate(156.347656 0)"/>
     <use xlink:href="#DejaVuSans-4f" transform="translate(188.134766 0)"/>
     <use xlink:href="#DejaVuSans-74" transform="translate(266.845703 0)"/>
     <use xlink:href="#DejaVuSans-68" transform="translate(306.054688 0)"/>
     <use xlink:href="#DejaVuSans-65" transform="translate(369.433594 0)"/>
     <use xlink:href="#DejaVuSans-72" transform="translate(430.957031 0)"/>
     <use xlink:href="#DejaVuSans-20" transform="translate(472.070312 0)"/>
     <use xlink:href="#DejaVuSans-4d" transform="translate(503.857422 0)"/>
     <use xlink:href="#DejaVuSans-65" transform="translate(590.136719 0)"/>
     <use xlink:href="#DejaVuSans-74" transform="translate(651.660156 0)"/>
     <use xlink:href="#DejaVuSans-68" transform="translate(690.869141 0)"/>
     <use xlink:href="#DejaVuSans-6f" transform="translate(754.248047 0)"/>
     <use xlink:href="#DejaVuSans-64" transform="translate(815.429688 0)"/>
     <use xlink:href="#DejaVuSans-73" transform="translate(878.90625 0)"/>
    </g>
    <!--  -->
    <g transform="translate(382.840521 315.839385) scale(0.03 -0.03)"/>
   </g>
   <g id="text_9">
    <!--  11.3.3 : Description -->
    <g transform="translate(453.310104 307.441026) scale(0.03 -0.03)">
     <use xlink:href="#DejaVuSans-20"/>
     <use xlink:href="#DejaVuSans-31" transform="translate(31.787109 0)"/>
     <use xlink:href="#DejaVuSans-31" transform="translate(95.410156 0)"/>
     <use xlink:href="#DejaVuSans-2e" transform="translate(159.033203 0)"/>
     <use xlink:href="#DejaVuSans-33" transform="translate(190.820312 0)"/>
     <use xlink:href="#DejaVuSans-2e" transform="translate(254.443359 0)"/>
     <use xlink:href="#DejaVuSans-33" transform="translate(286.230469 0)"/>
     <use xlink:href="#DejaVuSans-20" transform="translate(349.853516 0)"/>
     <use xlink:href="#DejaVuSans-3a" transform="translate(381.640625 0)"/>
     <use xlink:href="#DejaVuSans-20" transform="translate(415.332031 0)"/>
     <use xlink:href="#DejaVuSans-44" transform="translate(447.119141 0)"/>
     <use xlink:href="#DejaVuSans-65" transform="translate(524.121094 0)"/>
     <use xlink:href="#DejaVuSans-73" transform="translate(585.644531 0)"/>
     <use xlink:href="#DejaVuSans-63" transform="translate(637.744141 0)"/>
     <use xlink:href="#DejaVuSans-72" transform="translate(692.724609 0)"/>
     <use xlink:href="#DejaVuSans-69" transform="translate(733.837891 0)"/>
     <use xlink:href="#DejaVuSans-70" transform="translate(761.621094 0)"/>
     <use xlink:href="#DejaVuSans-74" transform="translate(825.097656 0)"/>
     <use xlink:href="#DejaVuSans-69" transform="translate(864.306641 0)"/>
     <use xlink:href="#DejaVuSans-6f" transform="translate(892.089844 0)"/>
     <use xlink:href="#DejaVuSans-6e" transform="translate(953.271484 0)"/>
    </g>
    <!--  of the fractures -->
    <g transform="translate(456.507214 310.80037) scale(0.03 -0.03)">
     <use xlink:href="#DejaVuSans-20"/>
     <use xlink:href="#DejaVuSans-6f" transform="translate(31.787109 0)"/>
     <use xlink:href="#DejaVuSans-66" transform="translate(92.96875 0)"/>
     <use xlink:href="#DejaVuSans-20" transform="translate(128.173828 0)"/>
     <use xlink:href="#DejaVuSans-74" transform="translate(159.960938 0)"/>
     <use xlink:href="#DejaVuSans-68" transform="translate(199.169922 0)"/>
     <use xlink:href="#DejaVuSans-65" transform="translate(262.548828 0)"/>
     <use xlink:href="#DejaVuSans-20" transform="translate(324.072266 0)"/>
     <use xlink:href="#DejaVuSans-66" transform="translate(355.859375 0)"/>
     <use xlink:href="#DejaVuSans-72" transform="translate(391.064453 0)"/>
     <use xlink:href="#DejaVuSans-61" transform="translate(432.177734 0)"/>
     <use xlink:href="#DejaVuSans-63" transform="translate(493.457031 0)"/>
     <use xlink:href="#DejaVuSans-74" transform="translate(548.4375 0)"/>
     <use xlink:href="#DejaVuSans-75" transform="translate(587.646484 0)"/>
     <use xlink:href="#DejaVuSans-72" transform="translate(651.025391 0)"/>
     <use xlink:href="#DejaVuSans-65" transform="translate(689.888672 0)"/>
     <use xlink:href="#DejaVuSans-73" transform="translate(751.412109 0)"/>
    </g>
    <!--  Module -->
    <g transform="translate(462.628151 314.159713) scale(0.03 -0.03)">
     <use xlink:href="#DejaVuSans-20"/>
     <use xlink:href="#DejaVuSans-4d" transform="translate(31.787109 0)"/>
     <use xlink:href="#DejaVuSans-6f" transform="translate(118.066406 0)"/>
     <use xlink:href="#DejaVuSans-64" transform="translate(179.248047 0)"/>
     <use xlink:href="#DejaVuSans-75" transform="translate(242.724609 0)"/>
     <use xlink:href="#DejaVuSans-6c" transform="translate(306.103516 0)"/>
     <use xlink:href="#DejaVuSans-65" transform="translate(333.886719 0)"/>
    </g>
   </g>
   <g id="text_10">
    <!--  11.4 : Applications -->
    <g transform="translate(572.952529 204.812442) scale(0.05 -0.05)">
     <defs>
      <path id="DejaVuSans-34" d="M 2419 4116 
L 825 1625 
L 2419 1625 
L 2419 4116 
z
M 2253 4666 
L 3047 4666 
L 3047 1625 
L 3713 1625 
L 3713 1100 
L 3047 1100 
L 3047 0 
L 2419 0 
L 2419 1100 
L 313 1100 
L 313 1709 
L 2253 4666 
z
" transform="scale(0.015625)"/>
     </defs>
     <use xlink:href="#DejaVuSans-20"/>
     <use xlink:href="#DejaVuSans-31" transform="translate(31.787109 0)"/>
     <use xlink:href="#DejaVuSans-31" transform="translate(95.410156 0)"/>
     <use xlink:href="#DejaVuSans-2e" transform="translate(159.033203 0)"/>
     <use xlink:href="#DejaVuSans-34" transform="translate(190.820312 0)"/>
     <use xlink:href="#DejaVuSans-20" transform="translate(254.443359 0)"/>
     <use xlink:href="#DejaVuSans-3a" transform="translate(286.230469 0)"/>
     <use xlink:href="#DejaVuSans-20" transform="translate(319.921875 0)"/>
     <use xlink:href="#DejaVuSans-41" transform="translate(351.708984 0)"/>
     <use xlink:href="#DejaVuSans-70" transform="translate(420.117188 0)"/>
     <use xlink:href="#DejaVuSans-70" transform="translate(483.59375 0)"/>
     <use xlink:href="#DejaVuSans-6c" transform="translate(547.070312 0)"/>
     <use xlink:href="#DejaVuSans-69" transform="translate(574.853516 0)"/>
     <use xlink:href="#DejaVuSans-63" transform="translate(602.636719 0)"/>
     <use xlink:href="#DejaVuSans-61" transform="translate(657.617188 0)"/>
     <use xlink:href="#DejaVuSans-74" transform="translate(718.896484 0)"/>
     <use xlink:href="#DejaVuSans-69" transform="translate(758.105469 0)"/>
     <use xlink:href="#DejaVuSans-6f" transform="translate(785.888672 0)"/>
     <use xlink:href="#DejaVuSans-6e" transform="translate(847.070312 0)"/>
     <use xlink:href="#DejaVuSans-73" transform="translate(910.449219 0)"/>
    </g>
    <!--  -->
    <g transform="translate(597.01581 210.411349) scale(0.05 -0.05)"/>
   </g>
   <g id="text_11">
    <!--  11.4.1 : Validation -->
    <g transform="translate(540.164844 305.761354) scale(0.03 -0.03)">
     <defs>
      <path id="DejaVuSans-56" d="M 1831 0 
L 50 4666 
L 709 4666 
L 2188 738 
L 3669 4666 
L 4325 4666 
L 2547 0 
L 1831 0 
z
" transform="scale(0.015625)"/>
     </defs>
     <use xlink:href="#DejaVuSans-20"/>
     <use xlink:href="#DejaVuSans-31" transform="translate(31.787109 0)"/>
     <use xlink:href="#DejaVuSans-31" transform="translate(95.410156 0)"/>
     <use xlink:href="#DejaVuSans-2e" transform="translate(159.033203 0)"/>
     <use xlink:href="#DejaVuSans-34" transform="translate(190.820312 0)"/>
     <use xlink:href="#DejaVuSans-2e" transform="translate(254.443359 0)"/>
     <use xlink:href="#DejaVuSans-31" transform="translate(286.230469 0)"/>
     <use xlink:href="#DejaVuSans-20" transform="translate(349.853516 0)"/>
     <use xlink:href="#DejaVuSans-3a" transform="translate(381.640625 0)"/>
     <use xlink:href="#DejaVuSans-20" transform="translate(415.332031 0)"/>
     <use xlink:href="#DejaVuSans-56" transform="translate(447.119141 0)"/>
     <use xlink:href="#DejaVuSans-61" transform="translate(507.777344 0)"/>
     <use xlink:href="#DejaVuSans-6c" transform="translate(569.056641 0)"/>
     <use xlink:href="#DejaVuSans-69" transform="translate(596.839844 0)"/>
     <use xlink:href="#DejaVuSans-64" transform="translate(624.623047 0)"/>
     <use xlink:href="#DejaVuSans-61" transform="translate(688.099609 0)"/>
     <use xlink:href="#DejaVuSans-74" transform="translate(749.378906 0)"/>
     <use xlink:href="#DejaVuSans-69" transform="translate(788.587891 0)"/>
     <use xlink:href="#DejaVuSans-6f" transform="translate(816.371094 0)"/>
     <use xlink:href="#DejaVuSans-6e" transform="translate(877.552734 0)"/>
    </g>
    <!--  of the DFM -->
    <g transform="translate(545.628828 309.120698) scale(0.03 -0.03)">
     <use xlink:href="#DejaVuSans-20"/>
     <use xlink:href="#DejaVuSans-6f" transform="translate(31.787109 0)"/>
     <use xlink:href="#DejaVuSans-66" transform="translate(92.96875 0)"/>
     <use xlink:href="#DejaVuSans-20" transform="translate(128.173828 0)"/>
     <use xlink:href="#DejaVuSans-74" transform="translate(159.960938 0)"/>
     <use xlink:href="#DejaVuSans-68" transform="translate(199.169922 0)"/>
     <use xlink:href="#DejaVuSans-65" transform="translate(262.548828 0)"/>
     <use xlink:href="#DejaVuSans-20" transform="translate(324.072266 0)"/>
     <use xlink:href="#DejaVuSans-44" transform="translate(355.859375 0)"/>
     <use xlink:href="#DejaVuSans-46" transform="translate(432.861328 0)"/>
     <use xlink:href="#DejaVuSans-4d" transform="translate(490.380859 0)"/>
    </g>
    <!--  Implementation -->
    <g transform="translate(541.891016 312.480042) scale(0.03 -0.03)">
     <use xlink:href="#DejaVuSans-20"/>
     <use xlink:href="#DejaVuSans-49" transform="translate(31.787109 0)"/>
     <use xlink:href="#DejaVuSans-6d" transform="translate(61.279297 0)"/>
     <use xlink:href="#DejaVuSans-70" transform="translate(158.691406 0)"/>
     <use xlink:href="#DejaVuSans-6c" transform="translate(222.167969 0)"/>
     <use xlink:href="#DejaVuSans-65" transform="translate(249.951172 0)"/>
     <use xlink:href="#DejaVuSans-6d" transform="translate(311.474609 0)"/>
     <use xlink:href="#DejaVuSans-65" transform="translate(408.886719 0)"/>
     <use xlink:href="#DejaVuSans-6e" transform="translate(470.410156 0)"/>
     <use xlink:href="#DejaVuSans-74" transform="translate(533.789062 0)"/>
     <use xlink:href="#DejaVuSans-61" transform="translate(572.998047 0)"/>
     <use xlink:href="#DejaVuSans-74" transform="translate(634.277344 0)"/>
     <use xlink:href="#DejaVuSans-69" transform="translate(673.486328 0)"/>
     <use xlink:href="#DejaVuSans-6f" transform="translate(701.269531 0)"/>
     <use xlink:href="#DejaVuSans-6e" transform="translate(762.451172 0)"/>
    </g>
    <!--  -->
    <g transform="translate(554.278438 315.839385) scale(0.03 -0.03)"/>
   </g>
   <g id="text_12">
    <!--  11.4.2 : Pressure -->
    <g transform="translate(626.887631 302.40201) scale(0.03 -0.03)">
     <defs>
      <path id="DejaVuSans-50" d="M 1259 4147 
L 1259 2394 
L 2053 2394 
Q 2494 2394 2734 2622 
Q 2975 2850 2975 3272 
Q 2975 3691 2734 3919 
Q 2494 4147 2053 4147 
L 1259 4147 
z
M 628 4666 
L 2053 4666 
Q 2838 4666 3239 4311 
Q 3641 3956 3641 3272 
Q 3641 2581 3239 2228 
Q 2838 1875 2053 1875 
L 1259 1875 
L 1259 0 
L 628 0 
L 628 4666 
z
" transform="scale(0.015625)"/>
     </defs>
     <use xlink:href="#DejaVuSans-20"/>
     <use xlink:href="#DejaVuSans-31" transform="translate(31.787109 0)"/>
     <use xlink:href="#DejaVuSans-31" transform="translate(95.410156 0)"/>
     <use xlink:href="#DejaVuSans-2e" transform="translate(159.033203 0)"/>
     <use xlink:href="#DejaVuSans-34" transform="translate(190.820312 0)"/>
     <use xlink:href="#DejaVuSans-2e" transform="translate(254.443359 0)"/>
     <use xlink:href="#DejaVuSans-32" transform="translate(286.230469 0)"/>
     <use xlink:href="#DejaVuSans-20" transform="translate(349.853516 0)"/>
     <use xlink:href="#DejaVuSans-3a" transform="translate(381.640625 0)"/>
     <use xlink:href="#DejaVuSans-20" transform="translate(415.332031 0)"/>
     <use xlink:href="#DejaVuSans-50" transform="translate(447.119141 0)"/>
     <use xlink:href="#DejaVuSans-72" transform="translate(505.671875 0)"/>
     <use xlink:href="#DejaVuSans-65" transform="translate(544.535156 0)"/>
     <use xlink:href="#DejaVuSans-73" transform="translate(606.058594 0)"/>
     <use xlink:href="#DejaVuSans-73" transform="translate(658.158203 0)"/>
     <use xlink:href="#DejaVuSans-75" transform="translate(710.257812 0)"/>
     <use xlink:href="#DejaVuSans-72" transform="translate(773.636719 0)"/>
     <use xlink:href="#DejaVuSans-65" transform="translate(812.5 0)"/>
    </g>
    <!--  Buildup in -->
    <g transform="translate(632.008256 305.761354) scale(0.03 -0.03)">
     <use xlink:href="#DejaVuSans-20"/>
     <use xlink:href="#DejaVuSans-42" transform="translate(31.787109 0)"/>
     <use xlink:href="#DejaVuSans-75" transform="translate(100.390625 0)"/>
     <use xlink:href="#DejaVuSans-69" transform="translate(163.769531 0)"/>
     <use xlink:href="#DejaVuSans-6c" transform="translate(191.552734 0)"/>
     <use xlink:href="#DejaVuSans-64" transform="translate(219.335938 0)"/>
     <use xlink:href="#DejaVuSans-75" transform="translate(282.8125 0)"/>
     <use xlink:href="#DejaVuSans-70" transform="translate(346.191406 0)"/>
     <use xlink:href="#DejaVuSans-20" transform="translate(409.667969 0)"/>
     <use xlink:href="#DejaVuSans-69" transform="translate(441.455078 0)"/>
     <use xlink:href="#DejaVuSans-6e" transform="translate(469.238281 0)"/>
    </g>
    <!--  Fractured Aquifers -->
    <g transform="translate(625.764037 309.120698) scale(0.03 -0.03)">
     <use xlink:href="#DejaVuSans-20"/>
     <use xlink:href="#DejaVuSans-46" transform="translate(31.787109 0)"/>
     <use xlink:href="#DejaVuSans-72" transform="translate(82.056641 0)"/>
     <use xlink:href="#DejaVuSans-61" transform="translate(123.169922 0)"/>
     <use xlink:href="#DejaVuSans-63" transform="translate(184.449219 0)"/>
     <use xlink:href="#DejaVuSans-74" transform="translate(239.429688 0)"/>
     <use xlink:href="#DejaVuSans-75" transform="translate(278.638672 0)"/>
     <use xlink:href="#DejaVuSans-72" transform="translate(342.017578 0)"/>
     <use xlink:href="#DejaVuSans-65" transform="translate(380.880859 0)"/>
     <use xlink:href="#DejaVuSans-64" transform="translate(442.404297 0)"/>
     <use xlink:href="#DejaVuSans-20" transform="translate(505.880859 0)"/>
     <use xlink:href="#DejaVuSans-41" transform="translate(537.667969 0)"/>
     <use xlink:href="#DejaVuSans-71" transform="translate(604.326172 0)"/>
     <use xlink:href="#DejaVuSans-75" transform="translate(667.802734 0)"/>
     <use xlink:href="#DejaVuSans-69" transform="translate(731.181641 0)"/>
     <use xlink:href="#DejaVuSans-66" transform="translate(758.964844 0)"/>
     <use xlink:href="#DejaVuSans-65" transform="translate(794.169922 0)"/>
     <use xlink:href="#DejaVuSans-72" transform="translate(855.693359 0)"/>
     <use xlink:href="#DejaVuSans-73" transform="translate(896.806641 0)"/>
    </g>
    <!--  during CO 2 -->
    <g transform="translate(630.545521 312.480042) scale(0.03 -0.03)">
     <defs>
      <path id="DejaVuSans-43" d="M 4122 4306 
L 4122 3641 
Q 3803 3938 3442 4084 
Q 3081 4231 2675 4231 
Q 1875 4231 1450 3742 
Q 1025 3253 1025 2328 
Q 1025 1406 1450 917 
Q 1875 428 2675 428 
Q 3081 428 3442 575 
Q 3803 722 4122 1019 
L 4122 359 
Q 3791 134 3420 21 
Q 3050 -91 2638 -91 
Q 1578 -91 968 557 
Q 359 1206 359 2328 
Q 359 3453 968 4101 
Q 1578 4750 2638 4750 
Q 3056 4750 3426 4639 
Q 3797 4528 4122 4306 
z
" transform="scale(0.015625)"/>
     </defs>
     <use xlink:href="#DejaVuSans-20"/>
     <use xlink:href="#DejaVuSans-64" transform="translate(31.787109 0)"/>
     <use xlink:href="#DejaVuSans-75" transform="translate(95.263672 0)"/>
     <use xlink:href="#DejaVuSans-72" transform="translate(158.642578 0)"/>
     <use xlink:href="#DejaVuSans-69" transform="translate(199.755859 0)"/>
     <use xlink:href="#DejaVuSans-6e" transform="translate(227.539062 0)"/>
     <use xlink:href="#DejaVuSans-67" transform="translate(290.917969 0)"/>
     <use xlink:href="#DejaVuSans-20" transform="translate(354.394531 0)"/>
     <use xlink:href="#DejaVuSans-43" transform="translate(386.181641 0)"/>
     <use xlink:href="#DejaVuSans-4f" transform="translate(456.005859 0)"/>
     <use xlink:href="#DejaVuSans-20" transform="translate(534.716797 0)"/>
     <use xlink:href="#DejaVuSans-32" transform="translate(566.503906 0)"/>
    </g>
    <!--  Storage Operations -->
    <g transform="translate(624.928256 315.839385) scale(0.03 -0.03)">
     <use xlink:href="#DejaVuSans-20"/>
     <use xlink:href="#DejaVuSans-53" transform="translate(31.787109 0)"/>
     <use xlink:href="#DejaVuSans-74" transform="translate(95.263672 0)"/>
     <use xlink:href="#DejaVuSans-6f" transform="translate(134.472656 0)"/>
     <use xlink:href="#DejaVuSans-72" transform="translate(195.654297 0)"/>
     <use xlink:href="#DejaVuSans-61" transform="translate(236.767578 0)"/>
     <use xlink:href="#DejaVuSans-67" transform="translate(298.046875 0)"/>
     <use xlink:href="#DejaVuSans-65" transform="translate(361.523438 0)"/>
     <use xlink:href="#DejaVuSans-20" transform="translate(423.046875 0)"/>
     <use xlink:href="#DejaVuSans-4f" transform="translate(454.833984 0)"/>
     <use xlink:href="#DejaVuSans-70" transform="translate(533.544922 0)"/>
     <use xlink:href="#DejaVuSans-65" transform="translate(597.021484 0)"/>
     <use xlink:href="#DejaVuSans-72" transform="translate(658.544922 0)"/>
     <use xlink:href="#DejaVuSans-61" transform="translate(699.658203 0)"/>
     <use xlink:href="#DejaVuSans-74" transform="translate(760.9375 0)"/>
     <use xlink:href="#DejaVuSans-69" transform="translate(800.146484 0)"/>
     <use xlink:href="#DejaVuSans-6f" transform="translate(827.929688 0)"/>
     <use xlink:href="#DejaVuSans-6e" transform="translate(889.111328 0)"/>
     <use xlink:href="#DejaVuSans-73" transform="translate(952.490234 0)"/>
    </g>
    <!--  -->
    <g transform="translate(639.997396 319.198729) scale(0.03 -0.03)"/>
   </g>
   <g id="text_13">
    <!--  11.4.3 : A -->
    <g transform="translate(717.983855 304.081682) scale(0.03 -0.03)">
     <use xlink:href="#DejaVuSans-20"/>
     <use xlink:href="#DejaVuSans-31" transform="translate(31.787109 0)"/>
     <use xlink:href="#DejaVuSans-31" transform="translate(95.410156 0)"/>
     <use xlink:href="#DejaVuSans-2e" transform="translate(159.033203 0)"/>
     <use xlink:href="#DejaVuSans-34" transform="translate(190.820312 0)"/>
     <use xlink:href="#DejaVuSans-2e" transform="translate(254.443359 0)"/>
     <use xlink:href="#DejaVuSans-33" transform="translate(286.230469 0)"/>
     <use xlink:href="#DejaVuSans-20" transform="translate(349.853516 0)"/>
     <use xlink:href="#DejaVuSans-3a" transform="translate(381.640625 0)"/>
     <use xlink:href="#DejaVuSans-20" transform="translate(415.332031 0)"/>
     <use xlink:href="#DejaVuSans-41" transform="translate(447.119141 0)"/>
    </g>
    <!--  Model with -->
    <g transform="translate(717.076823 307.441026) scale(0.03 -0.03)">
     <defs>
      <path id="DejaVuSans-77" d="M 269 3500 
L 844 3500 
L 1563 769 
L 2278 3500 
L 2956 3500 
L 3675 769 
L 4391 3500 
L 4966 3500 
L 4050 0 
L 3372 0 
L 2619 2869 
L 1863 0 
L 1184 0 
L 269 3500 
z
" transform="scale(0.015625)"/>
     </defs>
     <use xlink:href="#DejaVuSans-20"/>
     <use xlink:href="#DejaVuSans-4d" transform="translate(31.787109 0)"/>
     <use xlink:href="#DejaVuSans-6f" transform="translate(118.066406 0)"/>
     <use xlink:href="#DejaVuSans-64" transform="translate(179.248047 0)"/>
     <use xlink:href="#DejaVuSans-65" transform="translate(242.724609 0)"/>
     <use xlink:href="#DejaVuSans-6c" transform="translate(304.248047 0)"/>
     <use xlink:href="#DejaVuSans-20" transform="translate(332.03125 0)"/>
     <use xlink:href="#DejaVuSans-77" transform="translate(363.818359 0)"/>
     <use xlink:href="#DejaVuSans-69" transform="translate(445.605469 0)"/>
     <use xlink:href="#DejaVuSans-74" transform="translate(473.388672 0)"/>
     <use xlink:href="#DejaVuSans-68" transform="translate(512.597656 0)"/>
    </g>
    <!--  Explicit Fractures -->
    <g transform="translate(712.371511 310.80037) scale(0.03 -0.03)">
     <use xlink:href="#DejaVuSans-20"/>
     <use xlink:href="#DejaVuSans-45" transform="translate(31.787109 0)"/>
     <use xlink:href="#DejaVuSans-78" transform="translate(94.970703 0)"/>
     <use xlink:href="#DejaVuSans-70" transform="translate(154.150391 0)"/>
     <use xlink:href="#DejaVuSans-6c" transform="translate(217.626953 0)"/>
     <use xlink:href="#DejaVuSans-69" transform="translate(245.410156 0)"/>
     <use xlink:href="#DejaVuSans-63" transform="translate(273.193359 0)"/>
     <use xlink:href="#DejaVuSans-69" transform="translate(328.173828 0)"/>
     <use xlink:href="#DejaVuSans-74" transform="translate(355.957031 0)"/>
     <use xlink:href="#DejaVuSans-20" transform="translate(395.166016 0)"/>
     <use xlink:href="#DejaVuSans-46" transform="translate(426.953125 0)"/>
     <use xlink:href="#DejaVuSans-72" transform="translate(477.222656 0)"/>
     <use xlink:href="#DejaVuSans-61" transform="translate(518.335938 0)"/>
     <use xlink:href="#DejaVuSans-63" transform="translate(579.615234 0)"/>
     <use xlink:href="#DejaVuSans-74" transform="translate(634.595703 0)"/>
     <use xlink:href="#DejaVuSans-75" transform="translate(673.804688 0)"/>
     <use xlink:href="#DejaVuSans-72" transform="translate(737.183594 0)"/>
     <use xlink:href="#DejaVuSans-65" transform="translate(776.046875 0)"/>
     <use xlink:href="#DejaVuSans-73" transform="translate(837.570312 0)"/>
    </g>
    <!--  and Dual Porosity -->
    <g transform="translate(712.079948 314.159713) scale(0.03 -0.03)">
     <defs>
      <path id="DejaVuSans-79" d="M 2059 -325 
Q 1816 -950 1584 -1140 
Q 1353 -1331 966 -1331 
L 506 -1331 
L 506 -850 
L 844 -850 
Q 1081 -850 1212 -737 
Q 1344 -625 1503 -206 
L 1606 56 
L 191 3500 
L 800 3500 
L 1894 763 
L 2988 3500 
L 3597 3500 
L 2059 -325 
z
" transform="scale(0.015625)"/>
     </defs>
     <use xlink:href="#DejaVuSans-20"/>
     <use xlink:href="#DejaVuSans-61" transform="translate(31.787109 0)"/>
     <use xlink:href="#DejaVuSans-6e" transform="translate(93.066406 0)"/>
     <use xlink:href="#DejaVuSans-64" transform="translate(156.445312 0)"/>
     <use xlink:href="#DejaVuSans-20" transform="translate(219.921875 0)"/>
     <use xlink:href="#DejaVuSans-44" transform="translate(251.708984 0)"/>
     <use xlink:href="#DejaVuSans-75" transform="translate(328.710938 0)"/>
     <use xlink:href="#DejaVuSans-61" transform="translate(392.089844 0)"/>
     <use xlink:href="#DejaVuSans-6c" transform="translate(453.369141 0)"/>
     <use xlink:href="#DejaVuSans-20" transform="translate(481.152344 0)"/>
     <use xlink:href="#DejaVuSans-50" transform="translate(512.939453 0)"/>
     <use xlink:href="#DejaVuSans-6f" transform="translate(569.617188 0)"/>
     <use xlink:href="#DejaVuSans-72" transform="translate(630.798828 0)"/>
     <use xlink:href="#DejaVuSans-6f" transform="translate(669.662109 0)"/>
     <use xlink:href="#DejaVuSans-73" transform="translate(730.84375 0)"/>
     <use xlink:href="#DejaVuSans-69" transform="translate(782.943359 0)"/>
     <use xlink:href="#DejaVuSans-74" transform="translate(810.726562 0)"/>
     <use xlink:href="#DejaVuSans-79" transform="translate(849.935547 0)"/>
    </g>
    <!--  -->
    <g transform="translate(725.716355 317.519057) scale(0.03 -0.03)"/>
   </g>
   <g id="text_14">
    <!--  11.4.4 : Multirate -->
    <g transform="translate(798.015704 305.761354) scale(0.03 -0.03)">
     <use xlink:href="#DejaVuSans-20"/>
     <use xlink:href="#DejaVuSans-31" transform="translate(31.787109 0)"/>
     <use xlink:href="#DejaVuSans-31" transform="translate(95.410156 0)"/>
     <use xlink:href="#DejaVuSans-2e" transform="translate(159.033203 0)"/>
     <use xlink:href="#DejaVuSans-34" transform="translate(190.820312 0)"/>
     <use xlink:href="#DejaVuSans-2e" transform="translate(254.443359 0)"/>
     <use xlink:href="#DejaVuSans-34" transform="translate(286.230469 0)"/>
     <use xlink:href="#DejaVuSans-20" transform="translate(349.853516 0)"/>
     <use xlink:href="#DejaVuSans-3a" transform="translate(381.640625 0)"/>
     <use xlink:href="#DejaVuSans-20" transform="translate(415.332031 0)"/>
     <use xlink:href="#DejaVuSans-4d" transform="translate(447.119141 0)"/>
     <use xlink:href="#DejaVuSans-75" transform="translate(533.398438 0)"/>
     <use xlink:href="#DejaVuSans-6c" transform="translate(596.777344 0)"/>
     <use xlink:href="#DejaVuSans-74" transform="translate(624.560547 0)"/>
     <use xlink:href="#DejaVuSans-69" transform="translate(663.769531 0)"/>
     <use xlink:href="#DejaVuSans-72" transform="translate(691.552734 0)"/>
     <use xlink:href="#DejaVuSans-61" transform="translate(732.666016 0)"/>
     <use xlink:href="#DejaVuSans-74" transform="translate(793.945312 0)"/>
     <use xlink:href="#DejaVuSans-65" transform="translate(833.154297 0)"/>
    </g>
    <!--  Transfer in -->
    <g transform="translate(803.084063 309.120698) scale(0.03 -0.03)">
     <use xlink:href="#DejaVuSans-20"/>
     <use xlink:href="#DejaVuSans-54" transform="translate(31.787109 0)"/>
     <use xlink:href="#DejaVuSans-72" transform="translate(78.121094 0)"/>
     <use xlink:href="#DejaVuSans-61" transform="translate(119.234375 0)"/>
     <use xlink:href="#DejaVuSans-6e" transform="translate(180.513672 0)"/>
     <use xlink:href="#DejaVuSans-73" transform="translate(243.892578 0)"/>
     <use xlink:href="#DejaVuSans-66" transform="translate(295.992188 0)"/>
     <use xlink:href="#DejaVuSans-65" transform="translate(331.197266 0)"/>
     <use xlink:href="#DejaVuSans-72" transform="translate(392.720703 0)"/>
     <use xlink:href="#DejaVuSans-20" transform="translate(433.833984 0)"/>
     <use xlink:href="#DejaVuSans-69" transform="translate(465.621094 0)"/>
     <use xlink:href="#DejaVuSans-6e" transform="translate(493.404297 0)"/>
    </g>
    <!--  Multicontinuum -->
    <g transform="translate(799.281329 312.480042) scale(0.03 -0.03)">
     <use xlink:href="#DejaVuSans-20"/>
     <use xlink:href="#DejaVuSans-4d" transform="translate(31.787109 0)"/>
     <use xlink:href="#DejaVuSans-75" transform="translate(118.066406 0)"/>
     <use xlink:href="#DejaVuSans-6c" transform="translate(181.445312 0)"/>
     <use xlink:href="#DejaVuSans-74" transform="translate(209.228516 0)"/>
     <use xlink:href="#DejaVuSans-69" transform="translate(248.4375 0)"/>
     <use xlink:href="#DejaVuSans-63" transform="translate(276.220703 0)"/>
     <use xlink:href="#DejaVuSans-6f" transform="translate(331.201172 0)"/>
     <use xlink:href="#DejaVuSans-6e" transform="translate(392.382812 0)"/>
     <use xlink:href="#DejaVuSans-74" transform="translate(455.761719 0)"/>
     <use xlink:href="#DejaVuSans-69" transform="translate(494.970703 0)"/>
     <use xlink:href="#DejaVuSans-6e" transform="translate(522.753906 0)"/>
     <use xlink:href="#DejaVuSans-75" transform="translate(586.132812 0)"/>
     <use xlink:href="#DejaVuSans-75" transform="translate(649.511719 0)"/>
     <use xlink:href="#DejaVuSans-6d" transform="translate(712.890625 0)"/>
    </g>
    <!--  Model -->
    <g transform="translate(806.45461 315.839385) scale(0.03 -0.03)">
     <use xlink:href="#DejaVuSans-20"/>
     <use xlink:href="#DejaVuSans-4d" transform="translate(31.787109 0)"/>
     <use xlink:href="#DejaVuSans-6f" transform="translate(118.066406 0)"/>
     <use xlink:href="#DejaVuSans-64" transform="translate(179.248047 0)"/>
     <use xlink:href="#DejaVuSans-65" transform="translate(242.724609 0)"/>
     <use xlink:href="#DejaVuSans-6c" transform="translate(304.248047 0)"/>
    </g>
   </g>
   <g id="text_15">
    <!--  11.5 : Summary -->
    <g transform="translate(698.295265 203.700677) scale(0.03 -0.03)">
     <defs>
      <path id="DejaVuSans-35" d="M 691 4666 
L 3169 4666 
L 3169 4134 
L 1269 4134 
L 1269 2991 
Q 1406 3038 1543 3061 
Q 1681 3084 1819 3084 
Q 2600 3084 3056 2656 
Q 3513 2228 3513 1497 
Q 3513 744 3044 326 
Q 2575 -91 1722 -91 
Q 1428 -91 1123 -41 
Q 819 9 494 109 
L 494 744 
Q 775 591 1075 516 
Q 1375 441 1709 441 
Q 2250 441 2565 725 
Q 2881 1009 2881 1497 
Q 2881 1984 2565 2268 
Q 2250 2553 1709 2553 
Q 1456 2553 1204 2497 
Q 953 2441 691 2322 
L 691 4666 
z
" transform="scale(0.015625)"/>
     </defs>
     <use xlink:href="#DejaVuSans-20"/>
     <use xlink:href="#DejaVuSans-31" transform="translate(31.787109 0)"/>
     <use xlink:href="#DejaVuSans-31" transform="translate(95.410156 0)"/>
     <use xlink:href="#DejaVuSans-2e" transform="translate(159.033203 0)"/>
     <use xlink:href="#DejaVuSans-35" transform="translate(190.820312 0)"/>
     <use xlink:href="#DejaVuSans-20" transform="translate(254.443359 0)"/>
     <use xlink:href="#DejaVuSans-3a" transform="translate(286.230469 0)"/>
     <use xlink:href="#DejaVuSans-20" transform="translate(319.921875 0)"/>
     <use xlink:href="#DejaVuSans-53" transform="translate(351.708984 0)"/>
     <use xlink:href="#DejaVuSans-75" transform="translate(415.185547 0)"/>
     <use xlink:href="#DejaVuSans-6d" transform="translate(478.564453 0)"/>
     <use xlink:href="#DejaVuSans-6d" transform="translate(575.976562 0)"/>
     <use xlink:href="#DejaVuSans-61" transform="translate(673.388672 0)"/>
     <use xlink:href="#DejaVuSans-72" transform="translate(734.667969 0)"/>
     <use xlink:href="#DejaVuSans-79" transform="translate(775.78125 0)"/>
    </g>
    <!--  and Conclusion -->
    <g transform="translate(698.86925 207.060021) scale(0.03 -0.03)">
     <use xlink:href="#DejaVuSans-20"/>
     <use xlink:href="#DejaVuSans-61" transform="translate(31.787109 0)"/>
     <use xlink:href="#DejaVuSans-6e" transform="translate(93.066406 0)"/>
     <use xlink:href="#DejaVuSans-64" transform="translate(156.445312 0)"/>
     <use xlink:href="#DejaVuSans-20" transform="translate(219.921875 0)"/>
     <use xlink:href="#DejaVuSans-43" transform="translate(251.708984 0)"/>
     <use xlink:href="#DejaVuSans-6f" transform="translate(321.533203 0)"/>
     <use xlink:href="#DejaVuSans-6e" transform="translate(382.714844 0)"/>
     <use xlink:href="#DejaVuSans-63" transform="translate(446.09375 0)"/>
     <use xlink:href="#DejaVuSans-6c" transform="translate(501.074219 0)"/>
     <use xlink:href="#DejaVuSans-75" transform="translate(528.857422 0)"/>
     <use xlink:href="#DejaVuSans-73" transform="translate(592.236328 0)"/>
     <use xlink:href="#DejaVuSans-69" transform="translate(644.335938 0)"/>
     <use xlink:href="#DejaVuSans-6f" transform="translate(672.119141 0)"/>
     <use xlink:href="#DejaVuSans-6e" transform="translate(733.300781 0)"/>
    </g>
    <!--  -->
    <g transform="translate(710.819328 210.419364) scale(0.03 -0.03)"/>
   </g>
   <g id="text_16">
    <!--  11: A Unified -->
    <g transform="translate(348.988958 51.655544) scale(0.1 -0.1)">
     <defs>
      <path id="DejaVuSans-55" d="M 556 4666 
L 1191 4666 
L 1191 1831 
Q 1191 1081 1462 751 
Q 1734 422 2344 422 
Q 2950 422 3222 751 
Q 3494 1081 3494 1831 
L 3494 4666 
L 4128 4666 
L 4128 1753 
Q 4128 841 3676 375 
Q 3225 -91 2344 -91 
Q 1459 -91 1007 375 
Q 556 841 556 1753 
L 556 4666 
z
" transform="scale(0.015625)"/>
     </defs>
     <use xlink:href="#DejaVuSans-20"/>
     <use xlink:href="#DejaVuSans-31" transform="translate(31.787109 0)"/>
     <use xlink:href="#DejaVuSans-31" transform="translate(95.410156 0)"/>
     <use xlink:href="#DejaVuSans-3a" transform="translate(159.033203 0)"/>
     <use xlink:href="#DejaVuSans-20" transform="translate(192.724609 0)"/>
     <use xlink:href="#DejaVuSans-41" transform="translate(224.511719 0)"/>
     <use xlink:href="#DejaVuSans-20" transform="translate(292.919922 0)"/>
     <use xlink:href="#DejaVuSans-55" transform="translate(324.707031 0)"/>
     <use xlink:href="#DejaVuSans-6e" transform="translate(397.900391 0)"/>
     <use xlink:href="#DejaVuSans-69" transform="translate(461.279297 0)"/>
     <use xlink:href="#DejaVuSans-66" transform="translate(489.0625 0)"/>
     <use xlink:href="#DejaVuSans-69" transform="translate(524.267578 0)"/>
     <use xlink:href="#DejaVuSans-65" transform="translate(552.050781 0)"/>
     <use xlink:href="#DejaVuSans-64" transform="translate(613.574219 0)"/>
    </g>
    <!--  Framework for -->
    <g transform="translate(345.10849 62.853356) scale(0.1 -0.1)">
     <defs>
      <path id="DejaVuSans-6b" d="M 581 4863 
L 1159 4863 
L 1159 1991 
L 2875 3500 
L 3609 3500 
L 1753 1863 
L 3688 0 
L 2938 0 
L 1159 1709 
L 1159 0 
L 581 0 
L 581 4863 
z
" transform="scale(0.015625)"/>
     </defs>
     <use xlink:href="#DejaVuSans-20"/>
     <use xlink:href="#DejaVuSans-46" transform="translate(31.787109 0)"/>
     <use xlink:href="#DejaVuSans-72" transform="translate(82.056641 0)"/>
     <use xlink:href="#DejaVuSans-61" transform="translate(123.169922 0)"/>
     <use xlink:href="#DejaVuSans-6d" transform="translate(184.449219 0)"/>
     <use xlink:href="#DejaVuSans-65" transform="translate(281.861328 0)"/>
     <use xlink:href="#DejaVuSans-77" transform="translate(343.384766 0)"/>
     <use xlink:href="#DejaVuSans-6f" transform="translate(425.171875 0)"/>
     <use xlink:href="#DejaVuSans-72" transform="translate(486.353516 0)"/>
     <use xlink:href="#DejaVuSans-6b" transform="translate(527.466797 0)"/>
     <use xlink:href="#DejaVuSans-20" transform="translate(585.376953 0)"/>
     <use xlink:href="#DejaVuSans-66" transform="translate(617.164062 0)"/>
     <use xlink:href="#DejaVuSans-6f" transform="translate(652.369141 0)"/>
     <use xlink:href="#DejaVuSans-72" transform="translate(713.550781 0)"/>
    </g>
    <!--  Flow Simulation -->
    <g transform="translate(341.616302 74.051169) scale(0.1 -0.1)">
     <use xlink:href="#DejaVuSans-20"/>
     <use xlink:href="#DejaVuSans-46" transform="translate(31.787109 0)"/>
     <use xlink:href="#DejaVuSans-6c" transform="translate(89.306641 0)"/>
     <use xlink:href="#DejaVuSans-6f" transform="translate(117.089844 0)"/>
     <use xlink:href="#DejaVuSans-77" transform="translate(178.271484 0)"/>
     <use xlink:href="#DejaVuSans-20" transform="translate(260.058594 0)"/>
     <use xlink:href="#DejaVuSans-53" transform="translate(291.845703 0)"/>
     <use xlink:href="#DejaVuSans-69" transform="translate(355.322266 0)"/>
     <use xlink:href="#DejaVuSans-6d" transform="translate(383.105469 0)"/>
     <use xlink:href="#DejaVuSans-75" transform="translate(480.517578 0)"/>
     <use xlink:href="#DejaVuSans-6c" transform="translate(543.896484 0)"/>
     <use xlink:href="#DejaVuSans-61" transform="translate(571.679688 0)"/>
     <use xlink:href="#DejaVuSans-74" transform="translate(632.958984 0)"/>
     <use xlink:href="#DejaVuSans-69" transform="translate(672.167969 0)"/>
     <use xlink:href="#DejaVuSans-6f" transform="translate(699.951172 0)"/>
     <use xlink:href="#DejaVuSans-6e" transform="translate(761.132812 0)"/>
    </g>
    <!--  in Fractured -->
    <g transform="translate(351.399896 85.248981) scale(0.1 -0.1)">
     <use xlink:href="#DejaVuSans-20"/>
     <use xlink:href="#DejaVuSans-69" transform="translate(31.787109 0)"/>
     <use xlink:href="#DejaVuSans-6e" transform="translate(59.570312 0)"/>
     <use xlink:href="#DejaVuSans-20" transform="translate(122.949219 0)"/>
     <use xlink:href="#DejaVuSans-46" transform="translate(154.736328 0)"/>
     <use xlink:href="#DejaVuSans-72" transform="translate(205.005859 0)"/>
     <use xlink:href="#DejaVuSans-61" transform="translate(246.119141 0)"/>
     <use xlink:href="#DejaVuSans-63" transform="translate(307.398438 0)"/>
     <use xlink:href="#DejaVuSans-74" transform="translate(362.378906 0)"/>
     <use xlink:href="#DejaVuSans-75" transform="translate(401.587891 0)"/>
     <use xlink:href="#DejaVuSans-72" transform="translate(464.966797 0)"/>
     <use xlink:href="#DejaVuSans-65" transform="translate(503.830078 0)"/>
     <use xlink:href="#DejaVuSans-64" transform="translate(565.353516 0)"/>
    </g>
    <!--  Reservoirs -->
    <g transform="translate(355.12099 96.446794) scale(0.1 -0.1)">
     <use xlink:href="#DejaVuSans-20"/>
     <use xlink:href="#DejaVuSans-52" transform="translate(31.787109 0)"/>
     <use xlink:href="#DejaVuSans-65" transform="translate(96.769531 0)"/>
     <use xlink:href="#DejaVuSans-73" transform="translate(158.292969 0)"/>
     <use xlink:href="#DejaVuSans-65" transform="translate(210.392578 0)"/>
     <use xlink:href="#DejaVuSans-72" transform="translate(271.916016 0)"/>
     <use xlink:href="#DejaVuSans-76" transform="translate(313.029297 0)"/>
     <use xlink:href="#DejaVuSans-6f" transform="translate(372.208984 0)"/>
     <use xlink:href="#DejaVuSans-69" transform="translate(433.390625 0)"/>
     <use xlink:href="#DejaVuSans-72" transform="translate(461.173828 0)"/>
     <use xlink:href="#DejaVuSans-73" transform="translate(502.287109 0)"/>
    </g>
    <!--  -->
    <g transform="translate(382.840521 107.644606) scale(0.1 -0.1)"/>
   </g>
  </g>
 </g>
 <defs>
  <clipPath id="p3395116127">
   <rect x="7.2" y="7.2" width="837" height="332.64"/>
  </clipPath>
 </defs>
</svg>
